<svg width="141" height="116" viewBox="0 0 141 116" fill="none" xmlns="http://www.w3.org/2000/svg">
<path d="M15.6876 49.7903C15.2318 49.7903 14.5361 49.6273 14.1523 49.5108C13.7684 49.3943 13.4566 48.0433 13.4566 48.0433C12.449 44.2231 11.0853 38.6021 11.0542 35.2135C11.0481 34.542 11.0542 21.5 11.0542 21.5H11.8256H20.3114V35.2135C20.3114 38.7135 18.7102 44.2231 17.7026 48.0433C17.7026 48.0433 17.3908 49.3943 17.0069 49.5108C16.6231 49.6273 15.9274 49.7903 15.4717 49.7903" fill="#868CA6"/>
<path opacity="0.7" d="M15.6596 49.3212C15.2518 49.3212 14.6281 49.1814 14.2922 49.065C13.9564 48.9718 13.6685 47.7372 13.6685 47.7372C12.757 44.313 11.8324 39.2648 11.5685 36.2599C11.5685 34.7139 11.5685 23.3087 11.5685 23.3087V22.2139H19.7971C19.7971 22.2139 19.941 34.676 19.7971 36.2599C19.5332 39.2648 18.3944 44.2898 17.4828 47.7139C17.4828 47.7139 17.1949 48.9252 16.8591 49.0417C16.5232 49.1348 15.8995 49.2979 15.4917 49.2979" fill="#C0C3D2"/>
<rect x="10.0256" y="21.5" width="11.8286" height="1" fill="#868CA6"/>
<path d="M17.74 22.5H20.3114C20.3114 22.5 20.3114 34.2818 20.3114 35.7546C20.3114 37.2273 19.2829 41.8909 19.2829 41.8909C19.2829 41.8909 17.3382 49.1472 17.2257 49.2546C17.1132 49.362 15.6829 49.5001 15.6829 49.5001L17.74 35.7546V22.5Z" fill="black" fill-opacity="0.1"/>
<rect x="8.99707" y="20" width="13.3714" height="1" fill="#868CA6"/>
<rect x="11.5685" y="21" width="8.22858" height="0.500002" fill="#577898"/>
<path fill-rule="evenodd" clip-rule="evenodd" d="M23.7431 20.5615C23.8718 20.7727 23.9114 21.0131 23.9114 21.25C23.9114 21.4869 23.8718 21.7273 23.7431 21.9385C23.6071 22.1617 23.4059 22.2964 23.192 22.3744C22.9917 22.4474 22.7706 22.4746 22.5613 22.4873C22.3523 22.5 22.1139 22.5 21.8659 22.5H21.8543V21.5C22.1164 21.5 22.3237 21.4998 22.4972 21.4893C22.6736 21.4785 22.774 21.4588 22.8308 21.4381C22.8432 21.4336 22.8515 21.4297 22.8566 21.427C22.858 21.4263 22.8591 21.4256 22.8601 21.4251C22.8606 21.4239 22.8612 21.4225 22.8619 21.4206C22.8642 21.4149 22.8673 21.4054 22.8705 21.3912C22.877 21.3622 22.8828 21.317 22.8828 21.25C22.8828 21.183 22.877 21.1378 22.8705 21.1088C22.8673 21.0946 22.8642 21.0852 22.8619 21.0794C22.8612 21.0775 22.8606 21.0761 22.8601 21.0749C22.8591 21.0744 22.858 21.0737 22.8566 21.073C22.8515 21.0703 22.8432 21.0664 22.8308 21.0619C22.774 21.0412 22.6736 21.0215 22.4972 21.0107C22.3237 21.0002 22.1164 21 21.8543 21L21.8542 20L21.8659 20C22.1138 20 22.3523 20 22.5613 20.0127C22.7706 20.0254 22.9917 20.0526 23.192 20.1256C23.4059 20.2036 23.6071 20.3383 23.7431 20.5615Z" fill="#868CA6"/>
<path d="M37.6876 49.7903C37.2318 49.7903 36.5361 49.6273 36.1523 49.5108C35.7684 49.3943 35.4566 48.0433 35.4566 48.0433C34.449 44.2231 33.0853 38.6021 33.0542 35.2135C33.0481 34.542 33.0542 21.5 33.0542 21.5H33.8256H42.3114V35.2135C42.3114 38.7135 40.7102 44.2231 39.7026 48.0433C39.7026 48.0433 39.3908 49.3943 39.0069 49.5108C38.6231 49.6273 37.9274 49.7903 37.4717 49.7903" fill="#868CA6"/>
<path opacity="0.7" d="M37.6596 49.3212C37.2518 49.3212 36.6281 49.1814 36.2922 49.065C35.9564 48.9718 35.6685 47.7372 35.6685 47.7372C34.757 44.313 33.8324 39.2648 33.5685 36.2599C33.5685 34.7139 33.5685 23.3087 33.5685 23.3087V22.2139H41.7971C41.7971 22.2139 41.941 34.676 41.7971 36.2599C41.5332 39.2648 40.3944 44.2898 39.4828 47.7139C39.4828 47.7139 39.1949 48.9252 38.8591 49.0417C38.5232 49.1348 37.8995 49.2979 37.4917 49.2979" fill="#C0C3D2"/>
<rect x="32.0256" y="21.5" width="11.8286" height="1" fill="#868CA6"/>
<path d="M39.74 22.5H42.3114C42.3114 22.5 42.3114 34.2818 42.3114 35.7546C42.3114 37.2273 41.2829 41.8909 41.2829 41.8909C41.2829 41.8909 39.3382 49.1472 39.2257 49.2546C39.1132 49.362 37.6829 49.5001 37.6829 49.5001L39.74 35.7546V22.5Z" fill="black" fill-opacity="0.1"/>
<rect x="30.9971" y="20" width="13.3714" height="1" fill="#868CA6"/>
<rect x="33.5685" y="21" width="8.22858" height="0.500002" fill="#577898"/>
<path fill-rule="evenodd" clip-rule="evenodd" d="M45.7431 20.5615C45.8718 20.7727 45.9114 21.0131 45.9114 21.25C45.9114 21.4869 45.8718 21.7273 45.7431 21.9385C45.6071 22.1617 45.4059 22.2964 45.192 22.3744C44.9917 22.4474 44.7706 22.4746 44.5613 22.4873C44.3523 22.5 44.1139 22.5 43.8659 22.5H43.8543V21.5C44.1164 21.5 44.3237 21.4998 44.4972 21.4893C44.6736 21.4785 44.774 21.4588 44.8308 21.4381C44.8432 21.4336 44.8515 21.4297 44.8566 21.427C44.858 21.4263 44.8591 21.4256 44.8601 21.4251C44.8606 21.4239 44.8612 21.4225 44.8619 21.4206C44.8642 21.4149 44.8673 21.4054 44.8705 21.3912C44.877 21.3622 44.8828 21.317 44.8828 21.25C44.8828 21.183 44.877 21.1378 44.8705 21.1088C44.8673 21.0946 44.8642 21.0852 44.8619 21.0794C44.8612 21.0775 44.8606 21.0761 44.8601 21.0749C44.8591 21.0744 44.858 21.0737 44.8566 21.073C44.8515 21.0703 44.8432 21.0664 44.8308 21.0619C44.774 21.0412 44.6736 21.0215 44.4972 21.0107C44.3237 21.0002 44.1164 21 43.8543 21L43.8542 20L43.8659 20C44.1138 20 44.3523 20 44.5613 20.0127C44.7706 20.0254 44.9917 20.0526 45.192 20.1256C45.4059 20.2036 45.6071 20.3383 45.7431 20.5615Z" fill="#868CA6"/>
<path d="M59.6876 49.7903C59.2318 49.7903 58.5361 49.6273 58.1523 49.5108C57.7684 49.3943 57.4566 48.0433 57.4566 48.0433C56.449 44.2231 55.0853 38.6021 55.0542 35.2135C55.0481 34.542 55.0542 21.5 55.0542 21.5H55.8256H64.3114V35.2135C64.3114 38.7135 62.7102 44.2231 61.7026 48.0433C61.7026 48.0433 61.3908 49.3943 61.0069 49.5108C60.6231 49.6273 59.9274 49.7903 59.4717 49.7903" fill="#868CA6"/>
<path opacity="0.7" d="M59.6596 49.3212C59.2518 49.3212 58.6281 49.1814 58.2922 49.065C57.9564 48.9718 57.6685 47.7372 57.6685 47.7372C56.757 44.313 55.8324 39.2648 55.5685 36.2599C55.5685 34.7139 55.5685 23.3087 55.5685 23.3087V22.2139H63.7971C63.7971 22.2139 63.941 34.676 63.7971 36.2599C63.5332 39.2648 62.3944 44.2898 61.4828 47.7139C61.4828 47.7139 61.1949 48.9252 60.8591 49.0417C60.5232 49.1348 59.8995 49.2979 59.4917 49.2979" fill="#C0C3D2"/>
<rect x="54.0256" y="21.5" width="11.8286" height="1" fill="#868CA6"/>
<path d="M61.74 22.5H64.3114C64.3114 22.5 64.3114 34.2818 64.3114 35.7546C64.3114 37.2273 63.2829 41.8909 63.2829 41.8909C63.2829 41.8909 61.3382 49.1472 61.2257 49.2546C61.1132 49.362 59.6829 49.5001 59.6829 49.5001L61.74 35.7546V22.5Z" fill="black" fill-opacity="0.1"/>
<rect x="52.9971" y="20" width="13.3714" height="1" fill="#868CA6"/>
<rect x="55.5685" y="21" width="8.22858" height="0.500002" fill="#577898"/>
<path fill-rule="evenodd" clip-rule="evenodd" d="M67.7431 20.5615C67.8718 20.7727 67.9114 21.0131 67.9114 21.25C67.9114 21.4869 67.8718 21.7273 67.7431 21.9385C67.6071 22.1617 67.4059 22.2964 67.192 22.3744C66.9917 22.4474 66.7706 22.4746 66.5613 22.4873C66.3523 22.5 66.1139 22.5 65.8659 22.5H65.8543V21.5C66.1164 21.5 66.3237 21.4998 66.4972 21.4893C66.6736 21.4785 66.774 21.4588 66.8308 21.4381C66.8432 21.4336 66.8515 21.4297 66.8566 21.427C66.858 21.4263 66.8591 21.4256 66.8601 21.4251C66.8606 21.4239 66.8612 21.4225 66.8619 21.4206C66.8642 21.4149 66.8673 21.4054 66.8705 21.3912C66.877 21.3622 66.8828 21.317 66.8828 21.25C66.8828 21.183 66.877 21.1378 66.8705 21.1088C66.8673 21.0946 66.8642 21.0852 66.8619 21.0794C66.8612 21.0775 66.8606 21.0761 66.8601 21.0749C66.8591 21.0744 66.858 21.0737 66.8566 21.073C66.8515 21.0703 66.8432 21.0664 66.8308 21.0619C66.774 21.0412 66.6736 21.0215 66.4972 21.0107C66.3237 21.0002 66.1164 21 65.8543 21L65.8542 20L65.8659 20C66.1138 20 66.3523 20 66.5613 20.0127C66.7706 20.0254 66.9917 20.0526 67.192 20.1256C67.4059 20.2036 67.6071 20.3383 67.7431 20.5615Z" fill="#868CA6"/>
<path d="M81.6876 49.7903C81.2318 49.7903 80.5361 49.6273 80.1523 49.5108C79.7684 49.3943 79.4566 48.0433 79.4566 48.0433C78.449 44.2231 77.0853 38.6021 77.0542 35.2135C77.0481 34.542 77.0542 21.5 77.0542 21.5H77.8256H86.3114V35.2135C86.3114 38.7135 84.7102 44.2231 83.7026 48.0433C83.7026 48.0433 83.3908 49.3943 83.0069 49.5108C82.6231 49.6273 81.9274 49.7903 81.4717 49.7903" fill="#868CA6"/>
<path opacity="0.7" d="M81.6596 49.3212C81.2518 49.3212 80.6281 49.1814 80.2922 49.065C79.9564 48.9718 79.6685 47.7372 79.6685 47.7372C78.757 44.313 77.8324 39.2648 77.5685 36.2599C77.5685 34.7139 77.5685 23.3087 77.5685 23.3087V22.2139H85.7971C85.7971 22.2139 85.941 34.676 85.7971 36.2599C85.5332 39.2648 84.3944 44.2898 83.4828 47.7139C83.4828 47.7139 83.1949 48.9252 82.8591 49.0417C82.5232 49.1348 81.8995 49.2979 81.4917 49.2979" fill="#C0C3D2"/>
<rect x="76.0256" y="21.5" width="11.8286" height="1" fill="#868CA6"/>
<path d="M83.74 22.5H86.3114C86.3114 22.5 86.3114 34.2818 86.3114 35.7546C86.3114 37.2273 85.2829 41.8909 85.2829 41.8909C85.2829 41.8909 83.3382 49.1472 83.2257 49.2546C83.1132 49.362 81.6829 49.5001 81.6829 49.5001L83.74 35.7546V22.5Z" fill="black" fill-opacity="0.1"/>
<rect x="74.9971" y="20" width="13.3714" height="1" fill="#868CA6"/>
<rect x="77.5685" y="21" width="8.22858" height="0.500002" fill="#577898"/>
<path fill-rule="evenodd" clip-rule="evenodd" d="M89.7431 20.5615C89.8718 20.7727 89.9114 21.0131 89.9114 21.25C89.9114 21.4869 89.8718 21.7273 89.7431 21.9385C89.6071 22.1617 89.4059 22.2964 89.192 22.3744C88.9917 22.4474 88.7706 22.4746 88.5613 22.4873C88.3523 22.5 88.1139 22.5 87.8659 22.5H87.8543V21.5C88.1164 21.5 88.3237 21.4998 88.4972 21.4893C88.6736 21.4785 88.774 21.4588 88.8308 21.4381C88.8432 21.4336 88.8515 21.4297 88.8566 21.427C88.858 21.4263 88.8591 21.4256 88.8601 21.4251C88.8606 21.4239 88.8612 21.4225 88.8619 21.4206C88.8642 21.4149 88.8673 21.4054 88.8705 21.3912C88.877 21.3622 88.8828 21.317 88.8828 21.25C88.8828 21.183 88.877 21.1378 88.8705 21.1088C88.8673 21.0946 88.8642 21.0852 88.8619 21.0794C88.8612 21.0775 88.8606 21.0761 88.8601 21.0749C88.8591 21.0744 88.858 21.0737 88.8566 21.073C88.8515 21.0703 88.8432 21.0664 88.8308 21.0619C88.774 21.0412 88.6736 21.0215 88.4972 21.0107C88.3237 21.0002 88.1164 21 87.8543 21L87.8542 20L87.8659 20C88.1138 20 88.3523 20 88.5613 20.0127C88.7706 20.0254 88.9917 20.0526 89.192 20.1256C89.4059 20.2036 89.6071 20.3383 89.7431 20.5615Z" fill="#868CA6"/>
<path d="M103.688 49.7903C103.232 49.7903 102.536 49.6273 102.152 49.5108C101.768 49.3943 101.457 48.0433 101.457 48.0433C100.449 44.2231 99.0853 38.6021 99.0542 35.2135C99.0481 34.542 99.0542 21.5 99.0542 21.5H99.8256H108.311V35.2135C108.311 38.7135 106.71 44.2231 105.703 48.0433C105.703 48.0433 105.391 49.3943 105.007 49.5108C104.623 49.6273 103.927 49.7903 103.472 49.7903" fill="#868CA6"/>
<path opacity="0.7" d="M103.66 49.3212C103.252 49.3212 102.628 49.1814 102.292 49.065C101.956 48.9718 101.669 47.7372 101.669 47.7372C100.757 44.313 99.8324 39.2648 99.5685 36.2599C99.5685 34.7139 99.5685 23.3087 99.5685 23.3087V22.2139H107.797C107.797 22.2139 107.941 34.676 107.797 36.2599C107.533 39.2648 106.394 44.2898 105.483 47.7139C105.483 47.7139 105.195 48.9252 104.859 49.0417C104.523 49.1348 103.9 49.2979 103.492 49.2979" fill="#C0C3D2"/>
<rect x="98.0256" y="21.5" width="11.8286" height="1" fill="#868CA6"/>
<path d="M105.74 22.5H108.311C108.311 22.5 108.311 34.2818 108.311 35.7546C108.311 37.2273 107.283 41.8909 107.283 41.8909C107.283 41.8909 105.338 49.1472 105.226 49.2546C105.113 49.362 103.683 49.5001 103.683 49.5001L105.74 35.7546V22.5Z" fill="black" fill-opacity="0.1"/>
<rect x="96.9971" y="20" width="13.3714" height="1" fill="#868CA6"/>
<rect x="99.5685" y="21" width="8.22858" height="0.500002" fill="#577898"/>
<path fill-rule="evenodd" clip-rule="evenodd" d="M111.743 20.5615C111.872 20.7727 111.911 21.0131 111.911 21.25C111.911 21.4869 111.872 21.7273 111.743 21.9385C111.607 22.1617 111.406 22.2964 111.192 22.3744C110.992 22.4474 110.771 22.4746 110.561 22.4873C110.352 22.5 110.114 22.5 109.866 22.5H109.854V21.5C110.116 21.5 110.324 21.4998 110.497 21.4893C110.674 21.4785 110.774 21.4588 110.831 21.4381C110.843 21.4336 110.851 21.4297 110.857 21.427C110.858 21.4263 110.859 21.4256 110.86 21.4251C110.861 21.4239 110.861 21.4225 110.862 21.4206C110.864 21.4149 110.867 21.4054 110.87 21.3912C110.877 21.3622 110.883 21.317 110.883 21.25C110.883 21.183 110.877 21.1378 110.87 21.1088C110.867 21.0946 110.864 21.0852 110.862 21.0794C110.861 21.0775 110.861 21.0761 110.86 21.0749C110.859 21.0744 110.858 21.0737 110.857 21.073C110.851 21.0703 110.843 21.0664 110.831 21.0619C110.774 21.0412 110.674 21.0215 110.497 21.0107C110.324 21.0002 110.116 21 109.854 21L109.854 20L109.866 20C110.114 20 110.352 20 110.561 20.0127C110.771 20.0254 110.992 20.0526 111.192 20.1256C111.406 20.2036 111.607 20.3383 111.743 20.5615Z" fill="#868CA6"/>
<path d="M141 106H0L4.15879 116H136.841L141 106Z" fill="#CCCCCC"/>
<path d="M0 36H141L136.841 32H4.15879L0 36Z" fill="#F7F7F7"/>
<path d="M141 36H0V106H141V36Z" fill="#EAEAEF"/>
<path d="M138 39H3V103H138V39Z" fill="#F7F7F7"/>
<path d="M138 78.5L3 45V103H138V78.5Z" fill="#E36554"/>
<path d="M138 82L3 58.5V103H138V82Z" fill="#C14534"/>
<mask id="mask0" mask-type="alpha" maskUnits="userSpaceOnUse" x="12" y="53" width="42" height="22">
<rect x="12" y="53" width="42" height="22" rx="1" fill="#C4C4C4"/>
</mask>
<g mask="url(#mask0)">
<path d="M54 53H12V75H54V53Z" fill="#4873E2"/>
<rect x="12" y="53" width="42" height="0.880001" fill="#254FBB"/>
<path d="M12 75L12 53L12.7119 53L12.7119 74.12L12 75Z" fill="#254FBB"/>
</g>
<path opacity="0.2" d="M37.9329 53.8799L12.8136 74.9999H29.0194L54.3051 53.8799H37.9329Z" fill="white"/>
<path opacity="0.2" d="M57.5441 53.8799L33.2788 75H36.5271L59.9999 53.8799H57.5441Z" fill="white"/>
<mask id="mask1" mask-type="alpha" maskUnits="userSpaceOnUse" x="56" y="53" width="11" height="11">
<path d="M56 53.9167C56 53.4104 56.4104 53 56.9167 53H66.0833C66.5896 53 67 53.4104 67 53.9167V63.0833C67 63.5896 66.5896 64 66.0833 64H56.9167C56.4104 64 56 63.5896 56 63.0833V53.9167Z" fill="#80CCE8"/>
</mask>
<g mask="url(#mask1)">
<path d="M56 53.9167C56 53.4104 56.4104 53 56.9167 53H66.0833C66.5896 53 67 53.4104 67 53.9167V63.0833C67 63.5896 66.5896 64 66.0833 64H56.9167C56.4104 64 56 63.5896 56 63.0833V53.9167Z" fill="#FAAC48"/>
<path d="M56 53.4583C56 53.2052 56.2239 53 56.5 53V53C56.7761 53 57 53.2052 57 53.4583V63.5417C57 63.7948 56.7761 64 56.5 64V64C56.2239 64 56 63.7948 56 63.5417V53.4583Z" fill="#FFD5A0"/>
<path d="M56.9167 63H66.5417C66.7948 63 67 63.2239 67 63.5V63.5C67 63.7761 66.7948 64 66.5417 64H56L56.9167 63Z" fill="#DD871A"/>
<path d="M66.5 64C66.2239 64 66 63.7948 66 63.5417L66 53.4583C66 53.2052 66.2239 53 66.5 53C66.7761 53 67 53.2052 67 53.4583L67 63.5417C67 63.7948 66.7761 64 66.5 64Z" fill="#DD871A"/>
<path d="M56 53.5C56 53.2239 56.2052 53 56.4583 53H67L66.0833 54H56.4583C56.2052 54 56 53.7761 56 53.5V53.5Z" fill="#FFD5A0"/>
</g>
<path fill-rule="evenodd" clip-rule="evenodd" d="M57.8333 59.2586L61.5476 55.75V57.7414L57.8333 61.25V59.2586ZM65.1666 59.2586L61.5476 55.75V57.7414L65.1666 61.25V59.2586Z" fill="#333333"/>
<mask id="mask2" mask-type="alpha" maskUnits="userSpaceOnUse" x="56" y="64" width="11" height="11">
<path d="M56 64.9167C56 64.4104 56.4104 64 56.9167 64H66.0833C66.5896 64 67 64.4104 67 64.9167V74.0833C67 74.5896 66.5896 75 66.0833 75H56.9167C56.4104 75 56 74.5896 56 74.0833V64.9167Z" fill="#80CCE8"/>
</mask>
<g mask="url(#mask2)">
<path d="M56 64.9167C56 64.4104 56.4104 64 56.9167 64H66.0833C66.5896 64 67 64.4104 67 64.9167V74.0833C67 74.5896 66.5896 75 66.0833 75H56.9167C56.4104 75 56 74.5896 56 74.0833V64.9167Z" fill="#FAAC48"/>
<path d="M56 64.4583C56 64.2052 56.2239 64 56.5 64V64C56.7761 64 57 64.2052 57 64.4583V74.5417C57 74.7948 56.7761 75 56.5 75V75C56.2239 75 56 74.7948 56 74.5417V64.4583Z" fill="#FFD5A0"/>
<path d="M56.9167 74H66.5417C66.7948 74 67 74.2239 67 74.5V74.5C67 74.7761 66.7948 75 66.5417 75H56L56.9167 74Z" fill="#DD871A"/>
<path d="M66.5 75C66.2239 75 66 74.7948 66 74.5417L66 64.4583C66 64.2052 66.2239 64 66.5 64V64C66.7761 64 67 64.2052 67 64.4583L67 74.5417C67 74.7948 66.7761 75 66.5 75V75Z" fill="#DD871A"/>
<path d="M56 64.5C56 64.2239 56.2052 64 56.4583 64H67L66.0833 65H56.4583C56.2052 65 56 64.7761 56 64.5V64.5Z" fill="#FFD5A0"/>
</g>
<path fill-rule="evenodd" clip-rule="evenodd" d="M65.1666 68.9914L61.4523 72.5L61.4523 70.5086L65.1666 67L65.1666 68.9914ZM57.8333 68.9914L61.4523 72.5L61.4523 70.5086L57.8333 67L57.8333 68.9914Z" fill="#333333"/>
<mask id="mask3" mask-type="alpha" maskUnits="userSpaceOnUse" x="75" y="53" width="42" height="22">
<rect x="75" y="53" width="42" height="22" rx="1" fill="#C4C4C4"/>
</mask>
<g mask="url(#mask3)">
<path d="M117 53H75V75H117V53Z" fill="#4873E2"/>
<rect x="75" y="53" width="42" height="0.880001" fill="#254FBB"/>
<path d="M75 75L75 53L75.7119 53L75.7119 74.12L75 75Z" fill="#254FBB"/>
</g>
<path opacity="0.2" d="M100.933 53.8799L75.8136 74.9999H92.0194L117.305 53.8799H100.933Z" fill="white"/>
<path opacity="0.2" d="M120.544 53.8799L96.2788 75H99.5271L123 53.8799H120.544Z" fill="white"/>
<mask id="mask4" mask-type="alpha" maskUnits="userSpaceOnUse" x="119" y="53" width="11" height="11">
<path d="M119 53.9167C119 53.4104 119.41 53 119.917 53H129.083C129.59 53 130 53.4104 130 53.9167V63.0833C130 63.5896 129.59 64 129.083 64H119.917C119.41 64 119 63.5896 119 63.0833V53.9167Z" fill="#80CCE8"/>
</mask>
<g mask="url(#mask4)">
<path d="M119 53.9167C119 53.4104 119.41 53 119.917 53H129.083C129.59 53 130 53.4104 130 53.9167V63.0833C130 63.5896 129.59 64 129.083 64H119.917C119.41 64 119 63.5896 119 63.0833V53.9167Z" fill="#FAAC48"/>
<path d="M119 53.4583C119 53.2052 119.224 53 119.5 53V53C119.776 53 120 53.2052 120 53.4583V63.5417C120 63.7948 119.776 64 119.5 64V64C119.224 64 119 63.7948 119 63.5417V53.4583Z" fill="#FFD5A0"/>
<path d="M119.917 63H129.542C129.795 63 130 63.2239 130 63.5V63.5C130 63.7761 129.795 64 129.542 64H119L119.917 63Z" fill="#DD871A"/>
<path d="M129.5 64C129.224 64 129 63.7948 129 63.5417L129 53.4583C129 53.2052 129.224 53 129.5 53C129.776 53 130 53.2052 130 53.4583L130 63.5417C130 63.7948 129.776 64 129.5 64Z" fill="#DD871A"/>
<path d="M119 53.5C119 53.2239 119.205 53 119.458 53H130L129.083 54H119.458C119.205 54 119 53.7761 119 53.5V53.5Z" fill="#FFD5A0"/>
</g>
<path fill-rule="evenodd" clip-rule="evenodd" d="M120.833 59.2586L124.548 55.75V57.7414L120.833 61.25V59.2586ZM128.167 59.2586L124.548 55.75V57.7414L128.167 61.25V59.2586Z" fill="#333333"/>
<mask id="mask5" mask-type="alpha" maskUnits="userSpaceOnUse" x="119" y="64" width="11" height="11">
<path d="M119 64.9167C119 64.4104 119.41 64 119.917 64H129.083C129.59 64 130 64.4104 130 64.9167V74.0833C130 74.5896 129.59 75 129.083 75H119.917C119.41 75 119 74.5896 119 74.0833V64.9167Z" fill="#80CCE8"/>
</mask>
<g mask="url(#mask5)">
<path d="M119 64.9167C119 64.4104 119.41 64 119.917 64H129.083C129.59 64 130 64.4104 130 64.9167V74.0833C130 74.5896 129.59 75 129.083 75H119.917C119.41 75 119 74.5896 119 74.0833V64.9167Z" fill="#FAAC48"/>
<path d="M119 64.4583C119 64.2052 119.224 64 119.5 64V64C119.776 64 120 64.2052 120 64.4583V74.5417C120 74.7948 119.776 75 119.5 75V75C119.224 75 119 74.7948 119 74.5417V64.4583Z" fill="#FFD5A0"/>
<path d="M119.917 74H129.542C129.795 74 130 74.2239 130 74.5V74.5C130 74.7761 129.795 75 129.542 75H119L119.917 74Z" fill="#DD871A"/>
<path d="M129.5 75C129.224 75 129 74.7948 129 74.5417L129 64.4583C129 64.2052 129.224 64 129.5 64V64C129.776 64 130 64.2052 130 64.4583L130 74.5417C130 74.7948 129.776 75 129.5 75V75Z" fill="#DD871A"/>
<path d="M119 64.5C119 64.2239 119.205 64 119.458 64H130L129.083 65H119.458C119.205 65 119 64.7761 119 64.5V64.5Z" fill="#FFD5A0"/>
</g>
<path fill-rule="evenodd" clip-rule="evenodd" d="M128.167 68.9914L124.452 72.5L124.452 70.5086L128.167 67L128.167 68.9914ZM120.833 68.9914L124.452 72.5L124.452 70.5086L120.833 67L120.833 68.9914Z" fill="#333333"/>
<mask id="mask6" mask-type="alpha" maskUnits="userSpaceOnUse" x="53" y="82" width="36" height="12">
<rect x="53" y="82" width="36" height="12" rx="1" fill="#FAAC48"/>
</mask>
<g mask="url(#mask6)">
<rect x="53" y="82" width="36" height="12" rx="1" fill="#FAAC48"/>
<path d="M53 82.5455C53 82.2442 53.2442 82 53.5455 82H88C88.5523 82 89 82.4477 89 83V83.0909H53.5455C53.2442 83.0909 53 82.8467 53 82.5455V82.5455Z" fill="#FFD5A0"/>
<path d="M89 93.4545C89 93.7558 88.7558 94 88.4545 94L54 94C53.4477 94 53 93.5523 53 93L53 92.9091L88.4545 92.9091C88.7558 92.9091 89 93.1533 89 93.4545V93.4545Z" fill="#DD871A"/>
<path d="M53.5 82C53.2239 82 53 82.2239 53 82.5L53 94L54 92.9091L54 82.5C54 82.2239 53.7761 82 53.5 82V82Z" fill="#FFD5A0"/>
<path d="M88.5 94C88.7761 94 89 93.7761 89 93.5L89 82L88 83.0909L88 93.5C88 93.7761 88.2239 94 88.5 94V94Z" fill="#DD871A"/>
</g>
<path d="M66.3146 90C67.1677 90 67.597 89.625 67.597 88.8693C67.597 88.1648 67.2643 87.8466 66.3843 87.7273C65.7673 87.642 65.5419 87.4602 65.5419 87.0739C65.5419 86.6818 65.8156 86.4659 66.3146 86.4659C66.819 86.4659 67.0604 86.6818 67.0604 87.1307H67.5433C67.5433 86.375 67.1355 86 66.3307 86C65.5097 86 65.0644 86.3864 65.0644 87.125C65.0644 87.7898 65.3756 88.0909 66.2126 88.2102C66.8833 88.3068 67.1194 88.5 67.1194 88.9148C67.1194 89.3239 66.8512 89.5341 66.32 89.5341C65.7673 89.5341 65.4829 89.3011 65.4829 88.8352H65C65 89.6136 65.4454 90 66.3146 90Z" fill="#333333"/>
<path d="M69.1446 89.9318H69.5739V89.5H69.2573C68.9407 89.5 68.8602 89.4034 68.8602 89.0227V87.4091H69.5417V87H68.8602V86.2273H68.4363L68.3988 87H67.9105V87.4091H68.388V89.017C68.388 89.6591 68.6134 89.9318 69.1446 89.9318Z" fill="#333333"/>
<path d="M70.8809 90C71.2833 90 71.5945 89.8352 71.8198 89.5341L71.8359 89.9318H72.2384V88.017C72.2384 87.2898 71.8842 86.9318 71.1545 86.9318C70.4623 86.9318 70.0867 87.2557 70.0384 87.892H70.4999C70.516 87.5341 70.7467 87.3636 71.1384 87.3636C71.5677 87.3636 71.7662 87.5739 71.7662 88.0284V88.1875H71.1008C70.3228 88.1875 69.958 88.517 69.958 89.1023C69.958 89.6761 70.3121 90 70.8809 90ZM70.9506 89.5682C70.6018 89.5682 70.4301 89.3977 70.4301 89.0909C70.4301 88.7614 70.634 88.6023 71.1169 88.6023H71.7662V89.017C71.5999 89.375 71.3208 89.5682 70.9506 89.5682Z" fill="#333333"/>
<path d="M73.0701 89.9318H73.5423V88.2443C73.6335 87.6818 73.8857 87.4375 74.3364 87.4375H74.4759V86.9432H74.2881C73.8857 86.9432 73.6335 87.1307 73.494 87.5455L73.4726 87H73.0701V89.9318Z" fill="#333333"/>
<path d="M75.9041 89.9318H76.3333V89.5H76.0168C75.7002 89.5 75.6197 89.4034 75.6197 89.0227V87.4091H76.3011V87H75.6197V86.2273H75.1958L75.1583 87H74.67V87.4091H75.1475V89.017C75.1475 89.6591 75.3729 89.9318 75.9041 89.9318Z" fill="#333333"/>
</svg>
