<svg width="183" height="159" viewBox="0 0 183 159" fill="none" xmlns="http://www.w3.org/2000/svg">
<rect opacity="0.6" x="45" y="129" width="93" height="7" fill="#FFFACE"/>
<path opacity="0.4" d="M53.7 127H130.7L137.7 129H44.7L53.7 127Z" fill="#FFFACE"/>
<path opacity="0.5" fill-rule="evenodd" clip-rule="evenodd" d="M3 99H180L179.92 99.5324L180 99.5L172 159H147L139.5 139H43.5L36 159H11L3 99.5L3.10884 99.5442L3 99Z" fill="#F2F2F2"/>
<mask id="mask0" mask-type="alpha" maskUnits="userSpaceOnUse" x="3" y="99" width="177" height="60">
<path opacity="0.5" fill-rule="evenodd" clip-rule="evenodd" d="M3 99H180L179.92 99.5324L180 99.5L172 159H147L139.5 139H43.5L36 159H11L3 99.5L3.10884 99.5442L3 99Z" fill="#F2F2F2"/>
</mask>
<g mask="url(#mask0)">
<path opacity="0.3" d="M81.5 101L25.5 157L59.5 159.5L118 101H81.5Z" fill="white"/>
<path opacity="0.3" d="M123 101L64 160H69.5L128.5 101H123Z" fill="white"/>
</g>
<path d="M19 99H25V143C25 144.657 23.6569 146 22 146C20.3431 146 19 144.657 19 143V99Z" fill="#333333"/>
<path d="M158 99H164V143C164 144.657 162.657 146 161 146C159.343 146 158 144.657 158 143V99Z" fill="#AD210C"/>
<path opacity="0.5" fill-rule="evenodd" clip-rule="evenodd" d="M139.5 139L147 159H172L180 99.5L179.92 99.5324L180 99H3L3.10884 99.5442L3 99.5L11 159H36L43.5 139H139.5ZM34.614 157L42.114 137H140.886L148.386 157H170.251L177.558 102.651L177.422 102.706L177.678 101H5.43961L5.79875 102.796L5.44161 102.651L12.7491 157H34.614Z" fill="#F2F2F2"/>
<path opacity="0.5" d="M52 134H132L141 137H42L52 134Z" fill="#F2F2F2" fill-opacity="0.5"/>
<path opacity="0.3" d="M12 153H38L36.5 157H13L12 153Z" fill="#F2F2F2" fill-opacity="0.5"/>
<path opacity="0.3" d="M171 153H145L146.5 157H170L171 153Z" fill="#F2F2F2" fill-opacity="0.5"/>
<path fill-rule="evenodd" clip-rule="evenodd" d="M25 71H19V79.5815C16.0682 80.7683 14 83.6426 14 87V97H30V87C30 83.6426 27.9318 80.7683 25 79.5815V71Z" fill="#444444"/>
<path opacity="0.5" fill-rule="evenodd" clip-rule="evenodd" d="M25.0002 71H23.0002V79.941C23.0002 79.941 23.0002 79.941 23.0002 79.9411V80H23.0661C23.2143 80.1326 23.3611 80.2625 23.5061 80.3908C25.4146 82.0788 27.0003 83.4813 27.0003 87V97H30.0002V87C30.0002 83.6426 27.9321 80.7683 25.0002 79.5815V71Z" fill="#111111"/>
<path opacity="0.2" fill-rule="evenodd" clip-rule="evenodd" d="M20 71H21V80C20.4601 80.5399 19.9668 80.967 19.5253 81.3494C17.9221 82.7376 17 83.5361 17 87.0002V97.0002H15V87.0002C15 83.6428 17.0682 80.7685 20 79.5817V71Z" fill="#999999"/>
<path fill-rule="evenodd" clip-rule="evenodd" d="M164 71H158V79.5815C155.068 80.7683 153 83.6426 153 87V97H169V87C169 83.6426 166.932 80.7683 164 79.5815V71Z" fill="#AD210C"/>
<path opacity="0.5" fill-rule="evenodd" clip-rule="evenodd" d="M164 71H162V79.941C162 79.941 162 79.941 162 79.9411V80H162.066C162.214 80.1326 162.361 80.2625 162.506 80.3908C164.415 82.0788 166 83.4813 166 87V97H169V87C169 83.6426 166.932 80.7683 164 79.5815V71Z" fill="#541005"/>
<path opacity="0.5" fill-rule="evenodd" clip-rule="evenodd" d="M159 71H160V80C159.46 80.5399 158.967 80.967 158.525 81.3494C156.922 82.7376 156 83.5361 156 87.0002V97.0002H154V87.0002C154 83.6428 156.068 80.7685 159 79.5817V71Z" fill="#C48686"/>
<path opacity="0.6" fill-rule="evenodd" clip-rule="evenodd" d="M175.2 121H175.7L173.523 132.613L170 157H148L140.778 137H42.2258L35 157H13L8.19995 124L8.26307 124.003L7.69995 121H135H175.2Z" fill="#4FB7F2"/>
<path d="M0 99C0 97.8954 0.895431 97 2 97H181C182.105 97 183 97.8954 183 99V108C183 113.523 178.523 118 173 118H10C4.47716 118 0 113.523 0 108V99Z" fill="#F2F2F2" fill-opacity="0.5"/>
<path d="M1 99C1 98.4477 1.44772 98 2 98H181C181.552 98 182 98.4477 182 99V108C182 112.971 177.971 117 173 117H10C5.02944 117 1 112.971 1 108V99Z" stroke="#F2F2F2" stroke-opacity="0.5" stroke-width="2"/>
</svg>
