<svg width="183" height="159" viewBox="0 0 183 159" fill="none" xmlns="http://www.w3.org/2000/svg">
<path d="M0 5C0 3.34315 1.34315 2 3 2H180C181.657 2 183 3.34315 183 5C183 8.31371 180.314 11 177 11H6C2.6863 11 0 8.31371 0 5Z" fill="#F2F2F2" fill-opacity="0.5"/>
<path d="M1 5C1 3.89543 1.89543 3 3 3H180C181.105 3 182 3.89543 182 5C182 7.76142 179.761 10 177 10H6C3.23858 10 1 7.76142 1 5Z" stroke="#F2F2F2" stroke-opacity="0.5" stroke-width="2"/>
<mask id="path-3-inside-1" fill="white">
<path fill-rule="evenodd" clip-rule="evenodd" d="M5 2C2.23858 2 0 4.23858 0 7V19H21V19.0378C21.0725 19.0323 21.1453 19.0275 21.2181 19.0232C21.4768 19.0078 21.7375 19 22 19C29.1797 19 35 24.8203 35 32C35 39.1797 29.1797 45 22 45C21.6636 45 21.3301 44.9872 21 44.9622V45H0V94C0 96.7614 2.23858 99 5 99H178C180.761 99 183 96.7614 183 94V86H162V85.9622C161.67 85.9873 161.336 86 161 86C153.82 86 148 80.1797 148 73C148 65.8203 153.82 60 161 60C161.336 60 161.67 60.0127 162 60.0378V60H183V7C183 4.23858 180.761 2 178 2H5Z"/>
</mask>
<path fill-rule="evenodd" clip-rule="evenodd" d="M5 2C2.23858 2 0 4.23858 0 7V19H21V19.0378C21.0725 19.0323 21.1453 19.0275 21.2181 19.0232C21.4768 19.0078 21.7375 19 22 19C29.1797 19 35 24.8203 35 32C35 39.1797 29.1797 45 22 45C21.6636 45 21.3301 44.9872 21 44.9622V45H0V94C0 96.7614 2.23858 99 5 99H178C180.761 99 183 96.7614 183 94V86H162V85.9622C161.67 85.9873 161.336 86 161 86C153.82 86 148 80.1797 148 73C148 65.8203 153.82 60 161 60C161.336 60 161.67 60.0127 162 60.0378V60H183V7C183 4.23858 180.761 2 178 2H5Z" fill="#F2F2F2" fill-opacity="0.5"/>
<path d="M0 19H-2V21H0V19ZM21 19H23V17H21V19ZM21 19.0378H19V21.1951L21.1511 21.0321L21 19.0378ZM21.2181 19.0232L21.3352 21.0198L21.3369 21.0197L21.2181 19.0232ZM21 44.9622L21.1512 42.9679L19 42.8048V44.9622H21ZM21 45V47H23V45H21ZM0 45V43H-2V45H0ZM183 86H185V84H183V86ZM162 86H160V88H162V86ZM162 85.9622H164V83.804L161.848 83.9679L162 85.9622ZM162 60.0378L161.848 62.0321L164 62.196V60.0378H162ZM162 60V58H160V60H162ZM183 60V62H185V60H183ZM2 7C2 5.34315 3.34315 4 5 4V0C1.13401 0 -2 3.13401 -2 7H2ZM2 19V7H-2V19H2ZM21 17H0V21H21V17ZM23 19.0378V19H19V19.0378H23ZM21.1011 17.0266C21.017 17.0316 20.9329 17.0372 20.8489 17.0436L21.1511 21.0321C21.2121 21.0275 21.2735 21.0234 21.3352 21.0198L21.1011 17.0266ZM22 17C21.6979 17 21.3975 17.009 21.0994 17.0267L21.3369 21.0197C21.5561 21.0066 21.7772 21 22 21V17ZM37 32C37 23.7157 30.2843 17 22 17V21C28.0751 21 33 25.9249 33 32H37ZM22 47C30.2843 47 37 40.2843 37 32H33C33 38.0751 28.0751 43 22 43V47ZM20.8488 46.9564C21.2288 46.9852 21.6128 47 22 47V43C21.7144 43 21.4313 42.9891 21.1512 42.9679L20.8488 46.9564ZM23 45V44.9622H19V45H23ZM0 47H21V43H0V47ZM2 94V45H-2V94H2ZM5 97C3.34315 97 2 95.6569 2 94H-2C-2 97.866 1.13401 101 5 101V97ZM178 97H5V101H178V97ZM181 94C181 95.6569 179.657 97 178 97V101C181.866 101 185 97.866 185 94H181ZM181 86V94H185V86H181ZM162 88H183V84H162V88ZM160 85.9622V86H164V85.9622H160ZM161 88C161.387 88 161.771 87.9854 162.152 87.9564L161.848 83.9679C161.569 83.9892 161.286 84 161 84V88ZM146 73C146 81.2843 152.716 88 161 88V84C154.925 84 150 79.0751 150 73H146ZM161 58C152.716 58 146 64.7157 146 73H150C150 66.9249 154.925 62 161 62V58ZM162.152 58.0436C161.771 58.0146 161.387 58 161 58V62C161.286 62 161.569 62.0108 161.848 62.0321L162.152 58.0436ZM160 60V60.0378H164V60H160ZM183 58H162V62H183V58ZM181 7V60H185V7H181ZM178 4C179.657 4 181 5.34314 181 7H185C185 3.13401 181.866 0 178 0V4ZM5 4H178V0H5V4Z" fill="#F2F2F2" fill-opacity="0.5" mask="url(#path-3-inside-1)"/>
<path fill-rule="evenodd" clip-rule="evenodd" d="M2.6363e-06 17L2.27299e-06 19L21 19M23 19.0379C22.6699 19.0128 22.3365 19 22 19C21.6635 19 21.33 19.0128 21 19.0379M23 19.0379C29.7124 19.5485 35 25.1568 35 32C35 38.8432 29.7125 44.4515 23 44.9621C22.67 44.9872 22.3365 45 22 45C21.6635 45 21.33 44.9872 21 44.9621V45H0V94C0 96.7614 2.23858 99 5 99H178C180.761 99 183 96.7614 183 94V86H162V85.9621C161.67 85.9872 161.336 86 161 86C160.664 86 160.33 85.9872 160 85.9621C153.288 85.4515 148 79.8432 148 73C148 66.1568 153.288 60.5485 160 60.0379C160.33 60.0128 160.664 60 161 60C161.336 60 161.67 60.0128 162 60.0379V60H183V7C183 4.23858 180.761 2 178 2H5C2.23858 2 0 4.23858 0 7L2.6363e-06 17M181 58V7C181 5.34314 179.657 4 178 4H5C3.34315 4 2 5.34315 2 7V17L23 17V17.0328C30.818 17.5474 37 24.0518 37 32C37 39.9482 30.818 46.4526 23 46.9672V47H2V94C2 95.6569 3.34315 97 5 97H178C179.657 97 181 95.6569 181 94V88H160V87.9672C152.182 87.4526 146 80.9482 146 73C146 65.0518 152.182 58.5474 160 58.0328V58H181Z" fill="#F2F2F2" fill-opacity="0.5"/>
<mask id="mask0" mask-type="alpha" maskUnits="userSpaceOnUse" x="0" y="2" width="183" height="97">
<mask id="path-6-inside-2" mask-type="luminance" fill="white">
<path fill-rule="evenodd" clip-rule="evenodd" d="M5 2C2.23858 2 0 4.23858 0 7V45V94C0 96.7614 2.23858 99 5 99H178C180.761 99 183 96.7614 183 94V86H162V85.9621C161.67 85.9872 161.336 86 161 86C153.82 86 148 80.1797 148 73C148 65.8203 153.82 60 161 60C161.336 60 161.67 60.0128 162 60.0379V60H183V7C183 4.23858 180.761 2 178 2H5ZM0 45H21V44.9621C21.33 44.9872 21.6635 45 22 45C29.1797 45 35 39.1797 35 32C35 24.8203 29.1797 19 22 19C21.6635 19 21.33 19.0128 21 19.0379V19L2.27299e-06 19L0 45Z"/>
</mask>
<path fill-rule="evenodd" clip-rule="evenodd" d="M5 2C2.23858 2 0 4.23858 0 7V45V94C0 96.7614 2.23858 99 5 99H178C180.761 99 183 96.7614 183 94V86H162V85.9621C161.67 85.9872 161.336 86 161 86C153.82 86 148 80.1797 148 73C148 65.8203 153.82 60 161 60C161.336 60 161.67 60.0128 162 60.0379V60H183V7C183 4.23858 180.761 2 178 2H5ZM0 45H21V44.9621C21.33 44.9872 21.6635 45 22 45C29.1797 45 35 39.1797 35 32C35 24.8203 29.1797 19 22 19C21.6635 19 21.33 19.0128 21 19.0379V19L2.27299e-06 19L0 45Z" fill="#F2F2F2" fill-opacity="0.5"/>
<path d="M183 86H185V84H183V86ZM162 86H160V88H162V86ZM162 85.9621H164V83.8042L161.848 83.9679L162 85.9621ZM162 60.0379L161.848 62.0321L164 62.1958V60.0379H162ZM162 60V58H160V60H162ZM183 60V62H185V60H183ZM21 45V47H23V45H21ZM21 44.9621L21.1517 42.9679L19 42.8042V44.9621H21ZM22 45L22 43H22V45ZM21 19.0379H19V21.1958L21.1517 21.0321L21 19.0379ZM21 19H23V17H21V19ZM2.27299e-06 19L2.6363e-06 17H-2L-2 19H2.27299e-06ZM2 7C2 5.34315 3.34315 4 5 4V0C1.13401 0 -2 3.13401 -2 7H2ZM2 45V7H-2V45H2ZM2 94V45H-2V94H2ZM5 97C3.34315 97 2 95.6569 2 94H-2C-2 97.866 1.13401 101 5 101V97ZM178 97H5V101H178V97ZM181 94C181 95.6569 179.657 97 178 97V101C181.866 101 185 97.866 185 94H181ZM181 86V94H185V86H181ZM162 88H183V84H162V88ZM160 85.9621V86H164V85.9621H160ZM161 88C161.387 88 161.771 87.9853 162.152 87.9564L161.848 83.9679C161.569 83.9891 161.286 84 161 84V88ZM146 73C146 81.2843 152.716 88 161 88V84C154.925 84 150 79.0751 150 73H146ZM161 58C152.716 58 146 64.7157 146 73H150C150 66.9249 154.925 62 161 62V58ZM162.152 58.0437C161.771 58.0147 161.387 58 161 58V62C161.286 62 161.569 62.0109 161.848 62.0321L162.152 58.0437ZM160 60V60.0379H164V60H160ZM183 58H162V62H183V58ZM181 7V60H185V7H181ZM178 4C179.657 4 181 5.34314 181 7H185C185 3.13401 181.866 0 178 0V4ZM5 4H178V0H5V4ZM0 47H21V43H0V47ZM23 45V44.9621H19V45H23ZM20.8483 46.9564C21.2288 46.9853 21.6129 47 22 47V43C21.7142 43 21.4313 42.9891 21.1517 42.9679L20.8483 46.9564ZM22 47C30.2843 47 37 40.2843 37 32H33C33 38.0751 28.0751 43 22 43L22 47ZM37 32C37 23.7157 30.2843 17 22 17V21C28.0751 21 33 25.9249 33 32H37ZM22 17C21.6129 17 21.2288 17.0147 20.8483 17.0437L21.1517 21.0321C21.4313 21.0109 21.7142 21 22 21V17ZM23 19.0379V19H19V19.0379H23ZM21 17L2.6363e-06 17L1.90969e-06 21L21 21V17ZM-2 19L-2 45H2L2 19H-2Z" fill="#F2F2F2" fill-opacity="0.5" mask="url(#path-6-inside-2)"/>
</mask>
<g mask="url(#mask0)">
<path opacity="0.3" d="M124 11L37.5 97H73L160.5 11H124Z" fill="white"/>
<path opacity="0.3" d="M165.5 11L78.5 97H84L171 11H165.5Z" fill="white"/>
</g>
<path opacity="0.5" fill-rule="evenodd" clip-rule="evenodd" d="M3 99H180L179.92 99.5324L180 99.5L172 159H147L139.5 139H43.5L36 159H11L3 99.5L3.10884 99.5442L3 99Z" fill="#F2F2F2"/>
<mask id="mask1" mask-type="alpha" maskUnits="userSpaceOnUse" x="3" y="99" width="177" height="60">
<path opacity="0.5" fill-rule="evenodd" clip-rule="evenodd" d="M3 99H180L179.92 99.5324L180 99.5L172 159H147L139.5 139H43.5L36 159H11L3 99.5L3.10884 99.5442L3 99Z" fill="#F2F2F2"/>
</mask>
<g mask="url(#mask1)">
<path opacity="0.3" d="M81.5 101L25.5 157L59.5 159.5L118 101H81.5Z" fill="white"/>
<path opacity="0.3" d="M123 101L64 160H69.5L128.5 101H123Z" fill="white"/>
</g>
<path d="M19 99H25V143C25 144.657 23.6569 146 22 146C20.3431 146 19 144.657 19 143V99Z" fill="#333333"/>
<path d="M158 99H164V143C164 144.657 162.657 146 161 146C159.343 146 158 144.657 158 143V99Z" fill="#AD210C"/>
<path opacity="0.5" fill-rule="evenodd" clip-rule="evenodd" d="M139.5 139L147 159H172L180 99.5L179.92 99.5324L180 99H3L3.10884 99.5442L3 99.5L11 159H36L43.5 139H139.5ZM34.614 157L42.114 137H140.886L148.386 157H170.251L177.558 102.651L177.422 102.706L177.678 101H5.43961L5.79875 102.796L5.44161 102.651L12.7491 157H34.614Z" fill="#F2F2F2"/>
<path opacity="0.5" d="M52 134H132L141 137H42L52 134Z" fill="#F2F2F2" fill-opacity="0.5"/>
<path opacity="0.3" d="M12 153H38L36.5 157H13L12 153Z" fill="#F2F2F2" fill-opacity="0.5"/>
<path opacity="0.3" d="M171 153H145L146.5 157H170L171 153Z" fill="#F2F2F2" fill-opacity="0.5"/>
<path fill-rule="evenodd" clip-rule="evenodd" d="M164 71H158V79.5815C155.068 80.7683 153 83.6426 153 87V97H169V87C169 83.6426 166.932 80.7683 164 79.5815V71Z" fill="#AD210C"/>
<path fill-rule="evenodd" clip-rule="evenodd" d="M25 71H19V79.5815C16.0682 80.7683 14 83.6426 14 87V97H30V87C30 83.6426 27.9318 80.7683 25 79.5815V71Z" fill="#333333"/>
<path d="M0 99C0 97.8954 0.895431 97 2 97H181C182.105 97 183 97.8954 183 99V108C183 113.523 178.523 118 173 118H10C4.47716 118 0 113.523 0 108V99Z" fill="#F2F2F2" fill-opacity="0.5"/>
<path d="M1 99C1 98.4477 1.44772 98 2 98H181C181.552 98 182 98.4477 182 99V108C182 112.971 177.971 117 173 117H10C5.02944 117 1 112.971 1 108V99Z" stroke="#F2F2F2" stroke-opacity="0.5" stroke-width="2"/>
</svg>
