<svg width="176" height="208" viewBox="0 0 176 208" fill="none" xmlns="http://www.w3.org/2000/svg">
<path fill-rule="evenodd" clip-rule="evenodd" d="M43.9438 102.458H48.6271L49.2125 107.261H127.268L127.853 102.458H132.049V112.161H43.9438V102.458ZM132.146 112.161H126.585L132.146 116.525V117.061H132.829L132.146 116.525V112.161ZM49.5052 112.161H43.9437V116.525L43.2607 117.061H43.9437V116.525L49.5052 112.161Z" fill="#F2F2F2" fill-opacity="0.3"/>
<path fill-rule="evenodd" clip-rule="evenodd" d="M43.9439 179L132.146 178.215L126.78 174.099L49.7981 174.099L49.7005 174.099L49.3265 174.418L43.8464 178.117L44.9801 178.117L43.9439 179Z" fill="#758CA2" fill-opacity="0.6"/>
<path d="M49.9512 174.002L44.2921 177.824L43.6092 102.067L49.3657 102.067L49.9512 106.924L49.9512 174.002Z" fill="#99A7AD" fill-opacity="0.6"/>
<path d="M126.78 174.143L132.049 178.118L132.737 104.194L127.268 101.87L126.78 107.12L126.78 174.143Z" fill="#99A7AD" fill-opacity="0.6"/>
<rect x="49.7002" y="107.064" width="1.75625" height="67.0348" fill="#F2F2F2" fill-opacity="0.5"/>
<rect x="125.023" y="107.064" width="1.75624" height="67.0348" fill="#F2F2F2" fill-opacity="0.5"/>
<path d="M105.802 107.163L49.6025 163.613V174.1H57.0178L123.658 107.163H121.218H105.802Z" fill="white" fill-opacity="0.2"/>
<path d="M126.78 108.143L60.9209 174.197H64.3358L126.78 111.475V108.143Z" fill="white" fill-opacity="0.2"/>
<mask id="path-9-inside-1" fill="white">
<path fill-rule="evenodd" clip-rule="evenodd" d="M49.7003 101.38H48.2607C45.4993 101.38 43.2607 103.619 43.2607 106.38V174C43.2607 176.761 45.4993 179 48.2607 179H127.829C130.591 179 132.829 176.761 132.829 174V106.38C132.829 103.619 130.591 101.38 127.829 101.38H126.78V102.065C126.78 104.826 124.541 107.065 121.78 107.065H54.7003C51.9389 107.065 49.7003 104.826 49.7003 102.065V101.38Z"/>
</mask>
<path fill-rule="evenodd" clip-rule="evenodd" d="M49.7003 101.38H48.2607C45.4993 101.38 43.2607 103.619 43.2607 106.38V174C43.2607 176.761 45.4993 179 48.2607 179H127.829C130.591 179 132.829 176.761 132.829 174V106.38C132.829 103.619 130.591 101.38 127.829 101.38H126.78V102.065C126.78 104.826 124.541 107.065 121.78 107.065H54.7003C51.9389 107.065 49.7003 104.826 49.7003 102.065V101.38Z" fill="#F2F2F2" fill-opacity="0.5"/>
<path d="M49.7003 101.38H56.7003V94.3804H49.7003V101.38ZM126.78 101.38V94.3804H119.78V101.38H126.78ZM48.2607 108.38H49.7003V94.3804H48.2607V108.38ZM50.2607 106.38C50.2607 107.485 49.3653 108.38 48.2607 108.38V94.3804C41.6333 94.3804 36.2607 99.753 36.2607 106.38H50.2607ZM50.2607 174V106.38H36.2607V174H50.2607ZM48.2607 172C49.3653 172 50.2607 172.895 50.2607 174H36.2607C36.2607 180.627 41.6333 186 48.2607 186V172ZM127.829 172H48.2607V186H127.829V172ZM125.829 174C125.829 172.895 126.725 172 127.829 172V186C134.457 186 139.829 180.627 139.829 174H125.829ZM125.829 106.38V174H139.829V106.38H125.829ZM127.829 108.38C126.725 108.38 125.829 107.485 125.829 106.38H139.829C139.829 99.753 134.457 94.3804 127.829 94.3804V108.38ZM126.78 108.38H127.829V94.3804H126.78V108.38ZM119.78 101.38V102.065H133.78V101.38H119.78ZM119.78 102.065C119.78 100.96 120.675 100.065 121.78 100.065V114.065C128.407 114.065 133.78 108.692 133.78 102.065H119.78ZM121.78 100.065H54.7003V114.065H121.78V100.065ZM54.7003 100.065C55.8049 100.065 56.7003 100.96 56.7003 102.065H42.7003C42.7003 108.692 48.0729 114.065 54.7003 114.065V100.065ZM56.7003 102.065V101.38H42.7003V102.065H56.7003Z" fill="#F2F2F2" mask="url(#path-9-inside-1)"/>
<path opacity="0.2" d="M52.7648 115.885H54.9482V107.995H52.7648V115.885Z" fill="#3E6E7A"/>
<path opacity="0.2" d="M52.7648 115.885H54.9482V107.995H52.7648V115.885Z" fill="#3E6E7A"/>
<path opacity="0.2" d="M52.4034 115.005H55.124V107.065H52.4034V115.005Z" fill="#3E6E7A"/>
<path opacity="0.2" d="M54.9492 115.87L55.1225 115.005V107.064L54.9492 107.93V115.87Z" fill="#3E6E7A"/>
<path opacity="0.2" d="M52.7749 107.93L52.4023 107.065V115.006L52.7749 115.871V107.93Z" fill="#3E6E7A"/>
<path opacity="0.5" d="M52.4023 114.14V114.954L52.7749 115.87H54.9497L55.123 114.954V114.14H52.4023Z" fill="#CCD4E2"/>
<path opacity="0.2" d="M102.249 115.884H104.433V107.994H102.249V115.884Z" fill="#3E6E7A"/>
<path opacity="0.2" d="M102.249 115.884H104.433V107.994H102.249V115.884Z" fill="#3E6E7A"/>
<path opacity="0.2" d="M101.88 115.005H104.601V107.065H101.88V115.005Z" fill="#3E6E7A"/>
<path opacity="0.2" d="M104.43 115.87L104.603 115.005V107.064L104.43 107.93V115.87Z" fill="#3E6E7A"/>
<path opacity="0.2" d="M102.247 107.93L101.883 107.064V115.005L102.247 115.87V107.93Z" fill="#3E6E7A"/>
<path opacity="0.5" d="M101.883 114.14V114.954L102.247 115.87H104.43L104.603 114.954V114.14H101.883Z" fill="#CCD4E2"/>
<path opacity="0.2" d="M107.174 115.884H109.357V107.995H107.174V115.884Z" fill="#3E6E7A"/>
<path opacity="0.2" d="M107.174 115.884H109.357V107.995H107.174V115.884Z" fill="#3E6E7A"/>
<path opacity="0.2" d="M106.805 115.005H109.525V107.065H106.805V115.005Z" fill="#3E6E7A"/>
<path opacity="0.2" d="M109.358 115.87L109.523 115.005V107.064L109.358 107.93V115.87Z" fill="#3E6E7A"/>
<path opacity="0.2" d="M107.175 107.93L106.812 107.064V115.005L107.175 115.87V107.93Z" fill="#3E6E7A"/>
<path opacity="0.5" d="M106.812 114.14V114.954L107.175 115.87H109.359L109.523 114.954V114.14H106.812Z" fill="#CCD4E2"/>
<path opacity="0.2" d="M123.937 107.929H121.754V115.819H123.937V107.929Z" fill="#3E6E7A"/>
<path opacity="0.2" d="M123.937 107.929H121.754V115.819H123.937V107.929Z" fill="#3E6E7A"/>
<path opacity="0.2" d="M124.302 107.065H121.581V115.006H124.302V107.065Z" fill="#3E6E7A"/>
<path opacity="0.2" d="M121.754 115.82L121.581 114.955V107.065L121.754 107.93V115.82Z" fill="#3E6E7A"/>
<path opacity="0.2" d="M123.929 107.93L124.301 107.064V114.954L123.929 115.819V107.93Z" fill="#3E6E7A"/>
<path opacity="0.5" d="M124.302 114.089V114.954L123.929 115.82H121.754L121.581 114.954V114.089H124.302Z" fill="#CCD4E2"/>
<path opacity="0.2" d="M119.013 107.929H116.829V115.819H119.013V107.929Z" fill="#3E6E7A"/>
<path opacity="0.2" d="M119.013 107.929H116.829V115.819H119.013V107.929Z" fill="#3E6E7A"/>
<path opacity="0.2" d="M119.377 107.065H116.656V115.006H119.377V107.065Z" fill="#3E6E7A"/>
<path opacity="0.2" d="M116.83 115.82L116.656 114.955V107.065L116.83 107.93V115.82Z" fill="#3E6E7A"/>
<path opacity="0.2" d="M119.013 107.93L119.377 107.064V114.954L119.013 115.819V107.93Z" fill="#3E6E7A"/>
<path opacity="0.5" d="M119.377 114.089V114.954L119.013 115.82H116.83L116.656 114.954V114.089H119.377Z" fill="#CCD4E2"/>
<path opacity="0.2" d="M114.079 107.929H111.896V115.819H114.079V107.929Z" fill="#3E6E7A"/>
<path opacity="0.2" d="M114.079 107.929H111.896V115.819H114.079V107.929Z" fill="#3E6E7A"/>
<path opacity="0.2" d="M114.451 107.065H111.73V115.006H114.451V107.065Z" fill="#3E6E7A"/>
<path opacity="0.2" d="M111.895 115.82L111.73 114.955V107.065L111.895 107.93V115.82Z" fill="#3E6E7A"/>
<path opacity="0.2" d="M114.078 107.93L114.442 107.064V114.954L114.078 115.819V107.93Z" fill="#3E6E7A"/>
<path opacity="0.5" d="M114.442 114.089V114.954L114.079 115.82H111.895L111.73 114.954V114.089H114.442Z" fill="#CCD4E2"/>
<path opacity="0.2" d="M77.3986 115.884H79.582V107.994H77.3986V115.884Z" fill="#3E6E7A"/>
<path opacity="0.2" d="M77.3986 115.884H79.582V107.994H77.3986V115.884Z" fill="#3E6E7A"/>
<path opacity="0.2" d="M77.0294 115.005H79.75V107.065H77.0294V115.005Z" fill="#3E6E7A"/>
<path opacity="0.2" d="M79.5791 115.87L79.7524 115.005V107.064L79.5791 107.93V115.87Z" fill="#3E6E7A"/>
<path opacity="0.2" d="M77.3961 107.93L77.0322 107.064V115.005L77.3961 115.87V107.93Z" fill="#3E6E7A"/>
<path opacity="0.5" d="M77.0322 114.14V114.954L77.3961 115.87H79.5795L79.7528 114.954V114.14H77.0322Z" fill="#CCD4E2"/>
<path opacity="0.2" d="M82.3234 115.884H84.5068V107.995H82.3234V115.884Z" fill="#3E6E7A"/>
<path opacity="0.2" d="M82.3234 115.884H84.5068V107.995H82.3234V115.884Z" fill="#3E6E7A"/>
<path opacity="0.2" d="M81.9542 115.005H84.6748V107.065H81.9542V115.005Z" fill="#3E6E7A"/>
<path opacity="0.2" d="M84.5078 115.87L84.6724 115.005V107.064L84.5078 107.93V115.87Z" fill="#3E6E7A"/>
<path opacity="0.2" d="M82.3248 107.93L81.9609 107.064V115.005L82.3248 115.87V107.93Z" fill="#3E6E7A"/>
<path opacity="0.5" d="M81.9609 114.14V114.954L82.3248 115.87H84.5083L84.6729 114.954V114.14H81.9609Z" fill="#CCD4E2"/>
<path opacity="0.2" d="M99.0867 107.929H96.9033V115.819H99.0867V107.929Z" fill="#3E6E7A"/>
<path opacity="0.2" d="M99.0867 107.929H96.9033V115.819H99.0867V107.929Z" fill="#3E6E7A"/>
<path opacity="0.2" d="M99.4511 107.065H96.7305V115.006H99.4511V107.065Z" fill="#3E6E7A"/>
<path opacity="0.2" d="M96.9038 115.82L96.7305 114.955V107.065L96.9038 107.93V115.82Z" fill="#3E6E7A"/>
<path opacity="0.2" d="M99.0781 107.93L99.4507 107.064V114.954L99.0781 115.819V107.93Z" fill="#3E6E7A"/>
<path opacity="0.5" d="M99.4511 114.089V114.954L99.0785 115.82H96.9038L96.7305 114.954V114.089H99.4511Z" fill="#CCD4E2"/>
<path opacity="0.2" d="M94.3856 107.929H92.2021V115.819H94.3856V107.929Z" fill="#3E6E7A"/>
<path opacity="0.2" d="M94.3856 107.929H92.2021V115.819H94.3856V107.929Z" fill="#3E6E7A"/>
<path opacity="0.2" d="M94.7499 107.065H92.0293V115.006H94.7499V107.065Z" fill="#3E6E7A"/>
<path opacity="0.2" d="M92.2026 115.82L92.0293 114.955V107.065L92.2026 107.93V115.82Z" fill="#3E6E7A"/>
<path opacity="0.2" d="M94.3857 107.93L94.7496 107.064V114.954L94.3857 115.819V107.93Z" fill="#3E6E7A"/>
<path opacity="0.5" d="M94.7499 114.089V114.954L94.386 115.82H92.2026L92.0293 114.954V114.089H94.7499Z" fill="#CCD4E2"/>
<path opacity="0.2" d="M89.2283 107.929H87.0449V115.819H89.2283V107.929Z" fill="#3E6E7A"/>
<path opacity="0.2" d="M89.2283 107.929H87.0449V115.819H89.2283V107.929Z" fill="#3E6E7A"/>
<path opacity="0.2" d="M89.6005 107.065H86.8799V115.006H89.6005V107.065Z" fill="#3E6E7A"/>
<path opacity="0.2" d="M87.0445 115.82L86.8799 114.955V107.065L87.0445 107.93V115.82Z" fill="#3E6E7A"/>
<path opacity="0.2" d="M89.2275 107.93L89.5914 107.064V114.954L89.2275 115.819V107.93Z" fill="#3E6E7A"/>
<path opacity="0.5" d="M89.5918 114.089V114.954L89.2279 115.82H87.0445L86.8799 114.954V114.089H89.5918Z" fill="#CCD4E2"/>
<path opacity="0.2" d="M57.6974 115.884H59.8809V107.994H57.6974V115.884Z" fill="#3E6E7A"/>
<path opacity="0.2" d="M57.6974 115.884H59.8809V107.994H57.6974V115.884Z" fill="#3E6E7A"/>
<path opacity="0.2" d="M57.3282 115.005H60.0488V107.065H57.3282V115.005Z" fill="#3E6E7A"/>
<path opacity="0.2" d="M59.8779 115.87L60.0512 115.005V107.064L59.8779 107.93V115.87Z" fill="#3E6E7A"/>
<path opacity="0.2" d="M57.695 107.93L57.3311 107.064V115.005L57.695 115.87V107.93Z" fill="#3E6E7A"/>
<path opacity="0.5" d="M57.3311 114.14V114.954L57.695 115.87H59.8784L60.0517 114.954V114.14H57.3311Z" fill="#CCD4E2"/>
<path opacity="0.2" d="M62.6222 115.884H64.8057V107.994H62.6222V115.884Z" fill="#3E6E7A"/>
<path opacity="0.2" d="M62.6222 115.884H64.8057V107.994H62.6222V115.884Z" fill="#3E6E7A"/>
<path opacity="0.2" d="M62.253 115.005H64.9736V107.065H62.253V115.005Z" fill="#3E6E7A"/>
<path opacity="0.2" d="M64.8066 115.87L64.9713 115.005V107.064L64.8066 107.93V115.87Z" fill="#3E6E7A"/>
<path opacity="0.2" d="M62.6237 107.93L62.2598 107.064V115.005L62.6237 115.87V107.93Z" fill="#3E6E7A"/>
<path opacity="0.5" d="M62.2598 114.14V114.954L62.6237 115.87H64.8071L64.9717 114.954V114.14H62.2598Z" fill="#CCD4E2"/>
<path opacity="0.2" d="M74.6844 107.929H72.501V115.819H74.6844V107.929Z" fill="#3E6E7A"/>
<path opacity="0.2" d="M74.6844 107.929H72.501V115.819H74.6844V107.929Z" fill="#3E6E7A"/>
<path opacity="0.2" d="M75.0487 107.065H72.3281V115.006H75.0487V107.065Z" fill="#3E6E7A"/>
<path opacity="0.2" d="M72.5014 115.82L72.3281 114.955V107.065L72.5014 107.93V115.82Z" fill="#3E6E7A"/>
<path opacity="0.2" d="M74.6846 107.93L75.0485 107.064V114.954L74.6846 115.819V107.93Z" fill="#3E6E7A"/>
<path opacity="0.5" d="M75.0487 114.089V114.954L74.6848 115.82H72.5014L72.3281 114.954V114.089H75.0487Z" fill="#CCD4E2"/>
<path opacity="0.2" d="M69.5272 107.929H67.3438V115.819H69.5272V107.929Z" fill="#3E6E7A"/>
<path opacity="0.2" d="M69.5272 107.929H67.3438V115.819H69.5272V107.929Z" fill="#3E6E7A"/>
<path opacity="0.2" d="M69.8993 107.065H67.1787V115.006H69.8993V107.065Z" fill="#3E6E7A"/>
<path opacity="0.2" d="M67.3433 115.82L67.1787 114.955V107.065L67.3433 107.93V115.82Z" fill="#3E6E7A"/>
<path opacity="0.2" d="M69.5264 107.93L69.8903 107.064V114.954L69.5264 115.819V107.93Z" fill="#3E6E7A"/>
<path opacity="0.5" d="M69.8907 114.089V114.954L69.5268 115.82H67.3433L67.1787 114.954V114.089H69.8907Z" fill="#CCD4E2"/>
<g style="mix-blend-mode:soft-light">
<path d="M43.2607 170.179H132.829V174C132.829 176.761 130.591 179 127.829 179H48.2607C45.4993 179 43.2607 176.761 43.2607 174V170.179Z" fill="white"/>
</g>
<path fill-rule="evenodd" clip-rule="evenodd" d="M53.5263 167.898H43V174C43 176.761 45.2386 179 48 179H58.5263C55.7649 179 53.5263 176.761 53.5263 174V167.898Z" fill="#E5ECF0"/>
<path fill-rule="evenodd" clip-rule="evenodd" d="M122.474 167.898H133V174C133 176.761 130.761 179 128 179H117.474C120.235 179 122.474 176.761 122.474 174V167.898Z" fill="#E5ECF0"/>
<path opacity="0.5" d="M43 121.375H133V174C133 176.761 130.761 179 128 179H48C45.2386 179 43 176.761 43 174V121.375Z" fill="#00AEEF"/>
<path opacity="0.5" fill-rule="evenodd" clip-rule="evenodd" d="M5.67784 91.8628H173.162L173.094 92.8793L173.162 92.8237L165.592 207.178H141.936L139.056 191.582H39.783L36.9035 207.178H13.2476L5.67773 92.8237L5.74538 92.8795L5.67784 91.8628Z" fill="#F2F2F2"/>
<mask id="mask0" mask-type="alpha" maskUnits="userSpaceOnUse" x="5" y="91" width="169" height="117">
<path opacity="0.5" fill-rule="evenodd" clip-rule="evenodd" d="M5.67773 91.8628H173.162L172.769 93.148L173.162 92.8238L165.592 207.178H141.936L138.358 187.801H40.481L36.9035 207.178H13.2476L5.67773 92.8238L5.82749 92.9473L5.67773 91.8628Z" fill="#F2F2F2"/>
</mask>
<g mask="url(#mask0)">
<path opacity="0.3" d="M79.957 95.7065L26.9678 203.334L59.1398 208.139L114.495 95.7065H79.957Z" fill="white"/>
<path opacity="0.3" d="M119.226 95.7065L63.3984 209.1H68.6027L124.431 95.7065H119.226Z" fill="white"/>
</g>
<path d="M20.8174 91.8628H26.4948V179.354C26.4948 180.922 25.2239 182.193 23.6561 182.193V182.193C22.0883 182.193 20.8174 180.922 20.8174 179.354V91.8628Z" fill="#333333"/>
<path d="M152.345 91.8628H158.022V179.354C158.022 180.922 156.751 182.193 155.183 182.193V182.193C153.616 182.193 152.345 180.922 152.345 179.354V91.8628Z" fill="#AD210C"/>
<path opacity="0.5" fill-rule="evenodd" clip-rule="evenodd" d="M139.097 191.645L141.936 207.178H165.592L173.162 92.8238L173.086 92.8861L173.162 91.8628H5.67773L5.78073 92.9087L5.67773 92.8238L13.2476 207.178H36.9035L39.8501 191.645H139.097ZM35.5921 203.334L38.5386 187.801H140.409L143.247 203.334H163.937L170.851 98.8791L170.722 98.9858L170.964 95.7066H7.98618L8.32602 99.1579L7.98808 98.879L14.9027 203.334H35.5921Z" fill="#F2F2F2"/>
<path opacity="0.5" d="M49.0229 179.767H130.839L140.043 185.438H38.7959L49.0229 179.767Z" fill="#F2F2F2" fill-opacity="0.5"/>
<path opacity="0.3" d="M14.1943 195.646H38.7965L37.3771 203.334H15.1406L14.1943 195.646Z" fill="#F2F2F2" fill-opacity="0.5"/>
<path opacity="0.3" d="M164.646 195.646H140.043L141.463 203.334H163.699L164.646 195.646Z" fill="#F2F2F2" fill-opacity="0.5"/>
<path fill-rule="evenodd" clip-rule="evenodd" d="M26.4945 65.397H20.8171V73.5089C18.0429 74.6318 16.0859 77.3516 16.0859 80.5285V89.9723H31.2257V80.5285C31.2257 77.3516 29.2687 74.6318 26.4945 73.5089V65.397Z" fill="#444444"/>
<path opacity="0.5" fill-rule="evenodd" clip-rule="evenodd" d="M26.495 65.397H24.6025V73.848C24.6025 73.8481 24.6025 73.8481 24.6025 73.8481V73.9038H24.6649C24.8051 74.0292 24.944 74.1519 25.0812 74.2732C26.8871 75.8687 28.3875 77.1944 28.3875 80.5203V89.9723H31.2262V80.5203C31.2262 77.3469 29.2692 74.63 26.495 73.5083V65.397Z" fill="#111111"/>
<path opacity="0.2" fill-rule="evenodd" clip-rule="evenodd" d="M21.7637 65.397H22.71V73.9038H22.7073C22.7082 73.9038 22.7091 73.9038 22.71 73.9038C22.1991 74.4141 21.7324 74.8179 21.3145 75.1793C19.7975 76.4914 18.925 77.2461 18.925 80.5204V89.9725H17.0326V80.5204C17.0326 77.347 18.9895 74.6302 21.7637 73.5085V65.397Z" fill="#999999"/>
<path fill-rule="evenodd" clip-rule="evenodd" d="M158.022 65.397H152.344V73.5089C149.57 74.6318 147.613 77.3516 147.613 80.5285V89.9723H162.753V80.5285C162.753 77.3516 160.796 74.6318 158.022 73.5089V65.397Z" fill="#AD210C"/>
<path opacity="0.5" fill-rule="evenodd" clip-rule="evenodd" d="M158.022 65.397H156.13V73.848C156.13 73.8481 156.13 73.8481 156.13 73.8481V73.9038H156.192C156.332 74.0292 156.471 74.1519 156.609 74.2732C158.414 75.8687 159.915 77.1944 159.915 80.5203V89.9723H162.754V80.5203C162.754 77.3469 160.797 74.63 158.022 73.5083V65.397Z" fill="#541005"/>
<path opacity="0.5" fill-rule="evenodd" clip-rule="evenodd" d="M153.291 65.397H154.237V73.9038H154.235C154.236 73.9038 154.236 73.9038 154.237 73.9038C153.726 74.4141 153.26 74.8179 152.842 75.1793C151.325 76.4914 150.452 77.2461 150.452 80.5204V89.9725H148.56V80.5204C148.56 77.347 150.517 74.6302 153.291 73.5085V65.397Z" fill="#C48686"/>
<path d="M0 91.647C0 90.5424 0.895431 89.647 2 89.647H174C175.105 89.647 176 90.5424 176 91.647V99.8217C176 105.345 171.523 109.822 166 109.822H10C4.47715 109.822 0 105.345 0 99.8217V91.647Z" fill="#F2F2F2" fill-opacity="0.5"/>
<path d="M2 90.647H174C174.552 90.647 175 91.0947 175 91.647V99.8217C175 104.792 170.971 108.822 166 108.822H10C5.02944 108.822 1 104.792 1 99.8217V91.647C1 91.0947 1.44772 90.647 2 90.647Z" stroke="#F2F2F2" stroke-opacity="0.5" stroke-width="2"/>
</svg>
