<svg width="176" height="208" viewBox="0 0 176 208" fill="none" xmlns="http://www.w3.org/2000/svg">
<path opacity="0.5" fill-rule="evenodd" clip-rule="evenodd" d="M5.67784 91.8628H173.162L173.094 92.8793L173.162 92.8237L165.592 207.178H141.936L139.056 191.582H39.783L36.9035 207.178H13.2476L5.67773 92.8237L5.74538 92.8795L5.67784 91.8628Z" fill="#F2F2F2"/>
<mask id="mask0" mask-type="alpha" maskUnits="userSpaceOnUse" x="5" y="91" width="169" height="117">
<path opacity="0.5" fill-rule="evenodd" clip-rule="evenodd" d="M5.67773 91.8628H173.162L172.769 93.148L173.162 92.8238L165.592 207.178H141.936L138.358 187.801H40.481L36.9035 207.178H13.2476L5.67773 92.8238L5.82749 92.9473L5.67773 91.8628Z" fill="#F2F2F2"/>
</mask>
<g mask="url(#mask0)">
<path opacity="0.3" d="M79.957 95.7065L26.9678 203.334L59.1398 208.139L114.495 95.7065H79.957Z" fill="white"/>
<path opacity="0.3" d="M119.226 95.7065L63.3984 209.1H68.6027L124.431 95.7065H119.226Z" fill="white"/>
</g>
<path d="M20.8174 91.8628H26.4948V179.354C26.4948 180.922 25.2239 182.193 23.6561 182.193V182.193C22.0883 182.193 20.8174 180.922 20.8174 179.354V91.8628Z" fill="#333333"/>
<path d="M152.345 91.8628H158.022V179.354C158.022 180.922 156.751 182.193 155.183 182.193V182.193C153.616 182.193 152.345 180.922 152.345 179.354V91.8628Z" fill="#AD210C"/>
<path opacity="0.5" fill-rule="evenodd" clip-rule="evenodd" d="M139.097 191.645L141.936 207.178H165.592L173.162 92.8238L173.086 92.8861L173.162 91.8628H5.67773L5.78073 92.9087L5.67773 92.8238L13.2476 207.178H36.9035L39.8501 191.645H139.097ZM35.5921 203.334L38.5386 187.801H140.409L143.247 203.334H163.937L170.851 98.8791L170.722 98.9858L170.964 95.7066H7.98618L8.32602 99.1579L7.98808 98.879L14.9027 203.334H35.5921Z" fill="#F2F2F2"/>
<path opacity="0.5" d="M49.0229 179.767H130.839L140.043 185.438H38.7959L49.0229 179.767Z" fill="#F2F2F2" fill-opacity="0.5"/>
<path opacity="0.3" d="M14.1943 195.646H38.7965L37.3771 203.334H15.1406L14.1943 195.646Z" fill="#F2F2F2" fill-opacity="0.5"/>
<path opacity="0.3" d="M164.646 195.646H140.043L141.463 203.334H163.699L164.646 195.646Z" fill="#F2F2F2" fill-opacity="0.5"/>
<path fill-rule="evenodd" clip-rule="evenodd" d="M26.4945 65.397H20.8171V73.5089C18.0429 74.6318 16.0859 77.3516 16.0859 80.5285V89.9723H31.2257V80.5285C31.2257 77.3516 29.2687 74.6318 26.4945 73.5089V65.397Z" fill="#444444"/>
<path opacity="0.5" fill-rule="evenodd" clip-rule="evenodd" d="M26.495 65.397H24.6025V73.848C24.6025 73.8481 24.6025 73.8481 24.6025 73.8481V73.9038H24.6649C24.8051 74.0292 24.944 74.1519 25.0812 74.2732C26.8871 75.8687 28.3875 77.1944 28.3875 80.5203V89.9723H31.2262V80.5203C31.2262 77.3469 29.2692 74.63 26.495 73.5083V65.397Z" fill="#111111"/>
<path opacity="0.2" fill-rule="evenodd" clip-rule="evenodd" d="M21.7637 65.397H22.71V73.9038H22.7073C22.7082 73.9038 22.7091 73.9038 22.71 73.9038C22.1991 74.4141 21.7324 74.8179 21.3145 75.1793C19.7975 76.4914 18.925 77.2461 18.925 80.5204V89.9725H17.0326V80.5204C17.0326 77.347 18.9895 74.6302 21.7637 73.5085V65.397Z" fill="#999999"/>
<path fill-rule="evenodd" clip-rule="evenodd" d="M158.022 65.397H152.344V73.5089C149.57 74.6318 147.613 77.3516 147.613 80.5285V89.9723H162.753V80.5285C162.753 77.3516 160.796 74.6318 158.022 73.5089V65.397Z" fill="#AD210C"/>
<path opacity="0.5" fill-rule="evenodd" clip-rule="evenodd" d="M158.022 65.397H156.13V73.848C156.13 73.8481 156.13 73.8481 156.13 73.8481V73.9038H156.192C156.332 74.0292 156.471 74.1519 156.609 74.2732C158.414 75.8687 159.915 77.1944 159.915 80.5203V89.9723H162.754V80.5203C162.754 77.3469 160.797 74.63 158.022 73.5083V65.397Z" fill="#541005"/>
<path opacity="0.5" fill-rule="evenodd" clip-rule="evenodd" d="M153.291 65.397H154.237V73.9038H154.235C154.236 73.9038 154.236 73.9038 154.237 73.9038C153.726 74.4141 153.26 74.8179 152.842 75.1793C151.325 76.4914 150.452 77.2461 150.452 80.5204V89.9725H148.56V80.5204C148.56 77.347 150.517 74.6302 153.291 73.5085V65.397Z" fill="#C48686"/>
<path opacity="0.6" fill-rule="evenodd" clip-rule="evenodd" d="M10 110.178H169L166.736 169.178H168.62L163.699 203.205H142.882L136.004 184.178H42.8392L35.9573 203.205H15.1401L10.5981 172.013L12.3761 172.107L10 110.178Z" fill="#4FB7F2"/>
<path d="M0 91.647C0 90.5424 0.895431 89.647 2 89.647H174C175.105 89.647 176 90.5424 176 91.647V99.8217C176 105.345 171.523 109.822 166 109.822H10C4.47715 109.822 0 105.345 0 99.8217V91.647Z" fill="#F2F2F2" fill-opacity="0.5"/>
<path d="M2 90.647H174C174.552 90.647 175 91.0947 175 91.647V99.8217C175 104.792 170.971 108.822 166 108.822H10C5.02944 108.822 1 104.792 1 99.8217V91.647C1 91.0947 1.44772 90.647 2 90.647Z" stroke="#F2F2F2" stroke-opacity="0.5" stroke-width="2"/>
</svg>
