<svg width="9" height="9" viewBox="0 0 9 9" fill="none" xmlns="http://www.w3.org/2000/svg">
<g clip-path="url(#clip0)">
<mask id="mask0" mask-type="alpha" maskUnits="userSpaceOnUse" x="0" y="-9" width="9" height="18">
<path d="M-1.78814e-07 8.25C-1.78814e-07 8.66421 0.335786 9 0.75 9H8.25C8.66421 9 9 8.66421 9 8.25V-8.25C9 -8.66421 8.66421 -9 8.25 -9H0.75C0.335787 -9 3.57628e-07 -8.66421 3.57628e-07 -8.25L-1.78814e-07 8.25Z" fill="#80CCE8"/>
</mask>
<g>
<path d="M-1.78814e-07 8.25C-1.78814e-07 8.66421 0.335786 9 0.75 9H8.25C8.66421 9 9 8.66421 9 8.25V-8.25C9 -8.66421 8.66421 -9 8.25 -9H0.75C0.335787 -9 3.57628e-07 -8.66421 3.57628e-07 -8.25L-1.78814e-07 8.25Z" fill="#80CCE8"/>
<path d="M8.5 -9C8.22386 -9 8 -8.81345 8 -8.58333L8 0.583333C8 0.813452 8.22386 1 8.5 1V1C8.77614 1 9 0.813452 9 0.583333L9 -8.58333C9 -8.81345 8.77614 -9 8.5 -9V-9Z" fill="#68B1CC"/>
<path d="M0 8.25C0 8.66421 0.335786 9 0.75 9H8.25C8.66421 9 9 8.66421 9 8.25V0.75C9 0.335786 8.66421 0 8.25 0H0.75C0.335786 0 0 0.335786 0 0.75V8.25Z" fill="#80CCE8"/>
<path d="M0 9.37484C0 9.60496 0.223858 9.7915 0.5 9.7915C0.776142 9.7915 1 9.60496 1 9.37484V-0.000162125C1 -0.000162125 0.776142 -0.000162125 0.5 -0.000162125C0.223858 -0.000162125 0 -0.000162125 0 -0.000162125V9.37484Z" fill="#A9E1F5"/>
<path d="M1 1H8C8.20711 1 9 0.582107 9 0.375C9 0.167894 8.83211 9.53674e-07 8.625 9.53674e-07L0 0L1 1Z" fill="#68B1CC"/>
<path d="M8.5 2.18557e-08C8.22386 9.78513e-09 8 1.99899e-05 8 1.99899e-05L8 9.58333C8 9.81345 8.22386 10 8.5 10C8.77614 10 9 9.81345 9 9.58333L9 1.99889e-05C9 1.99889e-05 8.77614 3.39262e-08 8.5 2.18557e-08Z" fill="#68B1CC"/>
<path d="M0 8.5C0 8.77614 0.167893 9 0.375 9H9L8 8H0.375C0.167893 8 0 8.22386 0 8.5Z" fill="#A9E1F5"/>
<path fill-rule="evenodd" clip-rule="evenodd" d="M1.5 3.87931L4.539 6.75V5.12069L1.5 2.25V3.87931ZM7.5 3.87931L4.539 6.75V5.12069L7.5 2.25V3.87931Z" fill="#333333"/>
</g>
</g>
<defs>
<clipPath id="clip0">
<rect width="9" height="9" fill="white" transform="matrix(1 0 0 -1 0 9)"/>
</clipPath>
</defs>
</svg>
