<svg width="9" height="9" viewBox="0 0 9 9" fill="none" xmlns="http://www.w3.org/2000/svg">
<g clip-path="url(#clip0)">
<mask id="mask0" mask-type="alpha" maskUnits="userSpaceOnUse" x="0" y="0" width="9" height="18">
<path d="M-1.78814e-07 0.75C-1.78814e-07 0.335786 0.335786 0 0.75 0H8.25C8.66421 0 9 0.335786 9 0.75V17.25C9 17.6642 8.66421 18 8.25 18H0.75C0.335787 18 3.57628e-07 17.6642 3.57628e-07 17.25L-1.78814e-07 0.75Z" fill="#80CCE8"/>
</mask>
<g>
<path d="M-1.78814e-07 0.75C-1.78814e-07 0.335786 0.335786 0 0.75 0H8.25C8.66421 0 9 0.335786 9 0.75V17.25C9 17.6642 8.66421 18 8.25 18H0.75C0.335787 18 3.57628e-07 17.6642 3.57628e-07 17.25L-1.78814e-07 0.75Z" fill="#80CCE8"/>
<path d="M8.5 18C8.22386 18 8 17.8135 8 17.5833L8 8.41667C8 8.18655 8.22386 8 8.5 8V8C8.77614 8 9 8.18655 9 8.41667L9 17.5833C9 17.8135 8.77614 18 8.5 18V18Z" fill="#68B1CC"/>
<path d="M0 0.75C0 0.335786 0.335786 0 0.75 0H8.25C8.66421 0 9 0.335786 9 0.75V8.25C9 8.66421 8.66421 9 8.25 9H0.75C0.335786 9 0 8.66421 0 8.25V0.75Z" fill="#58A2BE"/>
<path d="M0 -0.374837C0 -0.604956 0.223858 -0.791504 0.5 -0.791504C0.776142 -0.791504 1 -0.604956 1 -0.374837V9.00016C1 9.00016 0.776142 9.00016 0.5 9.00016C0.223858 9.00016 0 9.00016 0 9.00016V-0.374837Z" fill="#367791"/>
<path d="M1 8H8C8.20711 8 9 8.41789 9 8.625C9 8.83211 8.83211 9 8.625 9L0 9L1 8Z" fill="#367791"/>
<path d="M8.5 9C8.22386 9 8 8.99998 8 8.99998L8 -0.583334C8 -0.813453 8.22386 -1 8.5 -1C8.77614 -1 9 -0.813453 9 -0.583334L9 8.99998C9 8.99998 8.77614 9 8.5 9Z" fill="#367791"/>
<path d="M0 0.5C0 0.223858 0.167893 0 0.375 0H9L8 1H0.375C0.167893 1 0 0.776142 0 0.5Z" fill="#367791"/>
<path fill-rule="evenodd" clip-rule="evenodd" d="M1.5 5.12069L4.539 2.25V3.87931L1.5 6.75V5.12069ZM7.5 5.12069L4.539 2.25V3.87931L7.5 6.75V5.12069Z" fill="#333333"/>
</g>
</g>
<defs>
<clipPath id="clip0">
<rect width="9" height="9" fill="white"/>
</clipPath>
</defs>
</svg>
