<svg width="9" height="18" viewBox="0 0 9 18" fill="none" xmlns="http://www.w3.org/2000/svg">
<mask id="mask0" mask-type="alpha" maskUnits="userSpaceOnUse" x="0" y="0" width="9" height="18">
<path d="M-1.78814e-07 0.75C-1.78814e-07 0.335786 0.335786 0 0.75 0H8.25C8.66421 0 9 0.335786 9 0.75V17.25C9 17.6642 8.66421 18 8.25 18H0.75C0.335787 18 3.57628e-07 17.6642 3.57628e-07 17.25L-1.78814e-07 0.75Z" fill="#80CCE8"/>
</mask>
<g>
<path d="M-1.78814e-07 0.75C-1.78814e-07 0.335786 0.335786 0 0.75 0H8.25C8.66421 0 9 0.335786 9 0.75V17.25C9 17.6642 8.66421 18 8.25 18H0.75C0.335787 18 3.57628e-07 17.6642 3.57628e-07 17.25L-1.78814e-07 0.75Z" fill="#80CCE8"/>
<path d="M0 9.75C0 9.33579 0.335786 9 0.75 9H8.25C8.66421 9 9 9.33579 9 9.75V17.25C9 17.6642 8.66421 18 8.25 18H0.75C0.335786 18 0 17.6642 0 17.25V9.75Z" fill="#80CCE8"/>
<path d="M0 9.375C0 9.16789 0.223858 9 0.5 9C0.776142 9 1 9.16789 1 9.375V17.625C1 17.8321 0.776142 18 0.5 18C0.223858 18 0 17.8321 0 17.625V9.375Z" fill="#A9E1F5"/>
<path d="M1 17H8.625C8.83211 17 9 17.2239 9 17.5C9 17.7761 8.83211 18 8.625 18H0L1 17Z" fill="#68B1CC"/>
<path d="M8.5 18C8.22386 18 8 17.8135 8 17.5833L8 8.41667C8 8.18655 8.22386 8 8.5 8C8.77614 8 9 8.18655 9 8.41667L9 17.5833C9 17.8135 8.77614 18 8.5 18Z" fill="#68B1CC"/>
<path d="M7.96914e-05 9.375C-1.5 9 0.167973 9 0.37508 9H9.00008L8.00008 10H1.00008C0.792973 10 7.96914e-05 9.58211 7.96914e-05 9.375Z" fill="#A9E1F5"/>
<path d="M0 0.75C0 0.335786 0.335786 0 0.75 0H8.25C8.66421 0 9 0.335786 9 0.75V8.25C9 8.66421 8.66421 9 8.25 9H0.75C0.335786 9 0 8.66421 0 8.25V0.75Z" fill="#80CCE8"/>
<path d="M0 -0.374837C0 -0.604956 0.223858 -0.791504 0.5 -0.791504C0.776142 -0.791504 1 -0.604956 1 -0.374837V9.00016C1 9.00016 0.776142 9.00016 0.5 9.00016C0.223858 9.00016 0 9.00016 0 9.00016V-0.374837Z" fill="#A9E1F5"/>
<path d="M1 8H8C8.20711 8 9 8.41789 9 8.625C9 8.83211 8.83211 9 8.625 9L0 9L1 8Z" fill="#68B1CC"/>
<path d="M8.5 9C8.22386 9 8 8.99998 8 8.99998L8 -0.583334C8 -0.813453 8.22386 -1 8.5 -1C8.77614 -1 9 -0.813453 9 -0.583334L9 8.99998C9 8.99998 8.77614 9 8.5 9Z" fill="#68B1CC"/>
<path d="M0 0.5C0 0.223858 0.167893 0 0.375 0H9L8 1H0.375C0.167893 1 0 0.776142 0 0.5Z" fill="#A9E1F5"/>
<path fill-rule="evenodd" clip-rule="evenodd" d="M1.5 5.12069L4.539 2.25V3.87931L1.5 6.75V5.12069ZM7.5 5.12069L4.539 2.25V3.87931L7.5 6.75V5.12069Z" fill="#333333"/>
<path fill-rule="evenodd" clip-rule="evenodd" d="M7.5 12.8793L4.461 15.75L4.461 14.1207L7.5 11.25L7.5 12.8793ZM1.5 12.8793L4.461 15.75L4.461 14.1207L1.5 11.25L1.5 12.8793Z" fill="#333333"/>
</g>
</svg>
