<?xml version="1.0" encoding="utf-8"?>
<!-- Generator: Adobe Illustrator 21.0.0, SVG Export Plug-In . SVG Version: 6.00 Build 0)  -->
<svg version="1.1" id="Layer_1" xmlns="http://www.w3.org/2000/svg" xmlns:xlink="http://www.w3.org/1999/xlink" x="0px" y="0px"
	 viewBox="0 0 160 312" style="enable-background:new 0 0 160 312;" xml:space="preserve">
<style type="text/css">
	.st0{fill:#4873E2;}
	.st1{fill:#E4E4E4;}
	.st2{fill:#9F9F9F;}
	.st3{fill:#EBEBEB;}
	.st4{fill:#D0D0D0;}
	.st5{fill:#A8A8A8;}
	.st6{fill:#0D0E0E;}
	.st7{fill:#828383;}
	.st8{fill:#EEEEEE;}
	.st9{opacity:0.7;fill:#848484;enable-background:new    ;}
	.st10{opacity:0.7;fill:#353535;enable-background:new    ;}
	.st11{fill:#8A8A8A;}
	.st12{opacity:0.3;fill:#FFFFFF;enable-background:new    ;}
	.st13{fill:#9E9E9E;}
	.st14{fill:#FFFFFF;}
	.st15{fill:#54BCE3;}
	.st16{fill:#1E4BBF;}
	.st17{opacity:0.2;fill:#FFFFFF;enable-background:new    ;}
	.st18{fill:#1C3B8B;}
</style>
<rect x="87" y="250" class="st0" width="37" height="18"/>
<rect x="36" y="250" class="st0" width="37" height="18"/>
<rect x="36" y="228" class="st0" width="78" height="18"/>
<path class="st1" d="M144.4,273l-3.7,34.2l-19.4-156.4h36L144.4,273z M16.7,268.2L20,308l19.8-157.1h-36L16.7,268.2z"/>
<path class="st2" d="M140.7,307.3c-17.9,2.2-38.2,3.7-60.1,3.8c-22.1,0-42.4-1.4-60.4-3.6c0-12.7,0-25.5,0-38.2l120.5-0.2V307.3z"/>
<path class="st3" d="M5.3,158.6c0,0,16,44.5,17.1,56.5c0.9,8.9-1.6,43-2.9,60.1c-0.4,6,3,11.4,8.4,13c13.5,4,31.5,7.7,52.7,7.8
	c21.3,0,39.4-3.7,53.1-7.7c5.5-1.7,9.1-7.5,8.4-13.6c-0.7-6.1-1.4-13.1-2.2-21c-1.7-16.3-3-33.8-1.8-38.7
	c2.3-9.8,15.6-56.5,15.6-56.5L5.3,158.6z"/>
<path class="st4" d="M16.7,172.8l126.7-0.1C143.3,172.7,80.3,268.1,16.7,172.8z"/>
<path class="st5" d="M157,150.8c0,3.8-2.5,7.4-7.1,10.6c-12.2,8.6-38.9,14.6-70,14.6c-30.9,0-57.7-6-69.9-14.6
	c-4.6-3.2-7.1-6.8-7.1-10.5c0-13.9,34.5-25.2,77-25.2C122.5,125.7,157,136.9,157,150.8z"/>
<path class="st6" d="M149.9,161.4c-12.2,8.6-38.9,14.6-70,14.6c-30.9,0-57.7-6-69.9-14.6c12.2-8.6,38.9-14.6,69.9-14.6
	C110.9,146.8,137.7,152.8,149.9,161.4z"/>
<path class="st7" d="M133.3,133.6c-13.5-4.9-32.3-7.9-53.2-7.9h0c-20.9,0-39.7,3.1-53.2,8c-6.8,2.5-12.1,5.3-15.6,8.4
	c-3.6,3.1-5.1,6.1-5.1,8.9c0,3,1.8,6.3,6.1,9.6l0,0l0,0c5.7,4.4,14.9,8.3,26.8,11.1c11.8,2.8,25.9,4.4,41.1,4.4
	c15.2,0,29.4-1.6,41.1-4.4c11.8-2.8,21.1-6.7,26.8-11.1c4.2-3.4,6.1-6.7,6.1-9.7c0-2.8-1.6-5.8-5.1-8.9
	C145.3,138.9,140,136,133.3,133.6z M152.1,138.1c4.2,3.6,6.9,7.8,6.9,12.7c0,5.2-3.2,9.8-8,13.6l0,0l0,0c-6.5,5.1-16.5,9.2-28.7,12
	c-12.2,2.9-26.7,4.5-42.3,4.5c-15.6,0-30.1-1.6-42.3-4.5c-12.2-2.8-22.2-6.9-28.7-12c-4.9-3.8-8-8.4-8-13.6c0-4.8,2.7-9.1,6.9-12.7
	c4.2-3.6,10.1-6.7,17.2-9.3c14.2-5.1,33.6-11.3,54.9-11.3c21.4,0,40.8,6.1,54.9,11.2C142,131.4,147.9,134.5,152.1,138.1z"/>
<path class="st8" d="M80,186.2c-30.9,0-58.5-7.8-71.7-20.3C2.8,160.7,0,155,0,148.9c0-21,35.2-37.4,80-37.5c44.8,0,80,16.4,80,37.3
	c0,6.1-2.8,11.8-8.3,16.9C138.5,178.4,110.9,186.2,80,186.2z M80,119c-43.7,0-73,15.4-73,29.9c0,3.8,2,7.6,5.9,11.3
	c11.9,11.2,38.2,18.5,67.2,18.5s55.2-7.4,67.2-18.6c3.9-3.7,5.9-7.5,5.9-11.3C153,134.3,123.7,119,80,119z"/>
<path class="st9" d="M89.1,155.7c-0.3,0.9-1,1.6-2,2.3c-1.8,1.2-4.6,2.1-7.5,2.1c-2.8,0-5.6-0.8-7.5-2.1c-1-0.7-1.7-1.4-2-2.3
	c-0.9-2.5,3.4-4.7,9.5-4.7C85.8,151,90,153.2,89.1,155.7z"/>
<path class="st10" d="M87.2,158c-1.8,1.2-4.6,2.1-7.5,2.1c-2.8,0-5.6-0.8-7.5-2.1c1.7-0.9,4.4-1.5,7.5-1.5S85.4,157.1,87.2,158z"/>
<path class="st9" d="M44.1,164.7c-0.3,0.9-1,1.6-2,2.3c-1.8,1.2-4.6,2.1-7.5,2.1c-2.8,0-5.6-0.8-7.5-2.1c-1-0.7-1.7-1.4-2-2.3
	c-0.9-2.5,3.4-4.7,9.5-4.7C40.8,160,45,162.2,44.1,164.7z"/>
<path class="st10" d="M42.2,167c-1.8,1.2-4.6,2.1-7.5,2.1c-2.8,0-5.6-0.8-7.5-2.1c1.7-0.9,4.4-1.5,7.5-1.5
	C37.8,165.5,40.4,166.1,42.2,167z"/>
<path class="st9" d="M65.1,158.7c-0.3,0.9-1,1.6-2,2.3c-1.8,1.2-4.6,2.1-7.5,2.1c-2.8,0-5.6-0.8-7.5-2.1c-1-0.7-1.7-1.4-2-2.3
	c-0.9-2.5,3.4-4.7,9.5-4.7C61.8,154,66,156.2,65.1,158.7z"/>
<path class="st10" d="M63.2,161c-1.8,1.2-4.6,2.1-7.5,2.1c-2.8,0-5.6-0.8-7.5-2.1c1.7-0.9,4.4-1.5,7.5-1.5
	C58.8,159.5,61.4,160.1,63.2,161z"/>
<path class="st9" d="M115.1,158.7c-0.3,0.9-1,1.6-2,2.3c-1.8,1.2-4.6,2.1-7.5,2.1c-2.8,0-5.6-0.8-7.5-2.1c-1-0.7-1.7-1.4-2-2.3
	c-0.9-2.5,3.4-4.7,9.5-4.7C111.8,154,116,156.2,115.1,158.7z"/>
<path class="st10" d="M113.2,161c-1.8,1.2-4.6,2.1-7.5,2.1c-2.8,0-5.6-0.8-7.5-2.1c1.7-0.9,4.4-1.5,7.5-1.5S111.4,160.1,113.2,161z"
	/>
<path class="st9" d="M137.1,163.7c-0.3,0.9-1,1.6-2,2.3c-1.8,1.2-4.6,2.1-7.5,2.1c-2.8,0-5.6-0.8-7.5-2.1c-1-0.7-1.7-1.4-2-2.3
	c-0.9-2.5,3.4-4.7,9.5-4.7C133.8,159,138,161.2,137.1,163.7z"/>
<path class="st10" d="M135.2,166c-1.8,1.2-4.6,2.1-7.5,2.1c-2.8,0-5.6-0.8-7.5-2.1c1.7-0.9,4.4-1.5,7.5-1.5S133.4,165.1,135.2,166z"
	/>
<path class="st1" d="M80,31.6c-44.2,0-80,20.7-80,46.3c0,25.6,35.8,46.3,80,46.3c44.2,0,80-20.7,80-46.3
	C160,52.4,124.2,31.6,80,31.6z M80,92.6c-14,0-25.3-6.6-25.3-14.6S66,63.3,80,63.3s25.3,6.6,25.3,14.6S94,92.6,80,92.6z"/>
<path class="st11" d="M80,34.6C38.6,34.6,5,54,5,77.9c0,23.9,33.5,43.3,75,43.3c41.4,0,75-19.4,75-43.3C155,54,121.4,34.6,80,34.6z
	 M80,94C64.7,94,52.1,86.9,52.1,78S64.6,61.9,80,61.9c15.3,0,27.9,7.2,27.9,16.1S95.3,94,80,94z"/>
<path class="st4" d="M105.3,77.9c0,3.9-2.7,7.5-7.2,10.2c-3.9,2.4-9.2,3.9-15.1,4.4c-1,0.1-2,0.1-3,0.1c-14,0-25.3-6.6-25.3-14.6
	c0-0.9,0.2-1.7,0.4-2.6c2,6.8,12.4,12.2,25,12.2c0.6,0,1.3,0,1.8,0c5.2-0.3,10-1.4,13.9-3.2c4.8-2.1,8.1-5.3,9.1-8.9
	C105.1,76.2,105.3,77,105.3,77.9z"/>
<path class="st12" d="M98.2,88.1c-3.9,2.4-9.2,3.9-15.1,4.4l-1.2-5c5.2-0.3,10-1.4,13.9-3.2L98.2,88.1z"/>
<path class="st13" d="M125.8,112.2l-20-28.3C101.7,89.8,91.7,94,80,94c-2,0-4-0.2-5.9-0.3l6.3,27.6
	C97.5,121.2,113.2,117.8,125.8,112.2z"/>
<path class="st11" d="M105.3,24c-5.7-1.5-14.1-3.1-24.4-3.2c-11.2-0.1-20.3,1.6-26.3,3.2c0,3.8,0,7.4,0,11.2
	c6.1-1.5,15-2.9,25.7-2.9c10.3,0,18.8,1.5,24.9,2.9C105.3,31.5,105.3,27.8,105.3,24z"/>
<path class="st8" d="M54.4,23.2c6.1-1.6,15.3-3.3,26.6-3.2c10.4,0.1,18.8,1.7,24.6,3.2l0.7,0.2V24c0,3.8,0,7.5-0.1,11.2l0,1.1
	l-1.2-0.3c-6-1.4-14.4-2.9-24.6-2.9c-10.6,0-19.4,1.4-25.5,2.9l-1.2,0.3v-13L54.4,23.2z M55.6,24.7v9.5c6.1-1.4,14.7-2.7,24.8-2.7
	c9.7,0,17.9,1.3,23.9,2.7c0.1-3.2,0.1-6.3,0.1-9.5c-5.6-1.4-13.6-2.9-23.4-3C70.3,21.6,61.6,23.2,55.6,24.7z"/>
<path class="st14" d="M23.3,208.9c-0.9-6.5,5.6-11.1,10.8-7.7c9.9,6.5,19.9,17.5,44.4,17.5c24.5,0,33.3-10.3,43.5-16.7
	c4.8-3.1,12.8,0.9,12.5,7c0,0.3,0,0.6,0,0.8c-0.1,3.9,1.7,45.9,3.3,61.3c0.4,3.8-1.8,7.3-5.1,8.2c-13.3,4.1-31.3,7.9-52.7,7.9
	c-21.5,0-39.4-3.8-52.6-7.8c-3.2-1-5.4-4.3-5.1-7.9c0.7-9.3,1.2-16.9,1.6-22.3c0.9-14.6,0.4-34.2,0-37.5
	C23.5,210.9,23.4,209.9,23.3,208.9z"/>
<path class="st15" d="M135.9,259.1c-11.7,5.9-39.1,18.3-61.5,11.4c-3.9-1.1-16.1-4.9-17.2-12.4c-0.7-4.7,3.3-8,2.2-9.9
	c-1.2-2.3-9.1-1.5-36,10.8c-0.4,4.9-0.9,11.1-1.3,18.4c-0.3,3.7,1.9,7,5.1,7.9c13.2,4.1,31.3,7.8,52.6,7.8c21.5,0,39.4-3.9,52.7-7.9
	c3.3-1,5.5-4.5,5.1-8.2C137.2,272.5,136.6,266,135.9,259.1z"/>
<g>
	<rect x="36" y="228" class="st16" width="77" height="18"/>
	<path class="st17" d="M71,247l23.5-23.5H111L85.5,249L71,247z M109.5,227.5L90,247h3.5l19.5-19.5H109.5z"/>
	<path class="st18" d="M36,245.5c0-0.3,0.2-0.5,0.5-0.5h77.1c0.3,0,0.5,0.2,0.5,0.5s-0.2,0.5-0.5,0.5H36.5
		C36.2,246,36,245.8,36,245.5z"/>
	<path class="st18" d="M113,228.4c0-0.2,0.2-0.4,0.5-0.4s0.5,0.2,0.5,0.4v17.2c0,0.2-0.2,0.4-0.5,0.4s-0.5-0.2-0.5-0.4V228.4z"/>
</g>
<g>
	<rect x="36" y="250" class="st16" width="37" height="18"/>
	<path class="st17" d="M47,269l23.5-23.5H87L61.5,271L47,269z M85.5,249.5L66,269h3.5L89,249.5H85.5z"/>
	<path class="st18" d="M36,267.5c0-0.3,0.2-0.5,0.5-0.5h36.1c0.3,0,0.5,0.2,0.5,0.5s-0.2,0.5-0.5,0.5H36.5
		C36.2,268,36,267.8,36,267.5z"/>
	<path class="st18" d="M72,250.4c0-0.2,0.2-0.4,0.5-0.4s0.5,0.2,0.5,0.4v17.1c0,0.2-0.2,0.4-0.5,0.4s-0.5-0.2-0.5-0.4V250.4z"/>
</g>
<g>
	<rect x="87" y="250" class="st16" width="36.5" height="18"/>
	<path class="st17" d="M59,269l23.5-23.5H99L73.5,271L59,269z M97.5,249.5L78,269h3.5l19.5-19.5H97.5z"/>
	<path class="st18" d="M87,267.5c0-0.3,0.2-0.5,0.5-0.5h36.1c0.3,0,0.5,0.2,0.5,0.5s-0.2,0.5-0.5,0.5H87.5
		C87.2,268,87,267.8,87,267.5z"/>
	<path class="st18" d="M123,250.4c0-0.2,0.2-0.4,0.5-0.4s0.5,0.2,0.5,0.4v17.1c0,0.2-0.2,0.4-0.5,0.4s-0.5-0.2-0.5-0.4V250.4z"/>
</g>
<path class="st14" d="M101.1,233.4c0,1.2,0.6,2.3,1.6,2.7l-0.2,0.5c-1.2-0.5-1.9-1.8-1.9-3.1v-0.3h0.5V233.4z"/>
<path class="st14" d="M101.5,233.6l-0.4-1.6l-1.1,1.2L101.5,233.6z"/>
<path class="st14" d="M104.7,236.1c0.9-0.5,1.6-1.5,1.6-2.7h0.5c0,1.4-0.8,2.6-1.9,3.1L104.7,236.1z"/>
<path class="st14" d="M104.9,235.3l-1.2,1.2l1.6,0.5L104.9,235.3z"/>
<path class="st14" d="M103.7,230.5c-0.6,0-1.2,0.3-1.7,0.7l-0.3-0.4c0.6-0.4,1.3-0.8,2-0.8c0.7,0,1.4,0.2,2,0.7l-0.3,0.4
	C104.9,230.7,104.3,230.5,103.7,230.5z"/>
<path class="st14" d="M104.6,231.4l1.6,0.5l-0.3-1.7L104.6,231.4z"/>
<path class="st14" d="M98,243h0.9v-1.5h0.5l0.8,1.5h1l-0.9-1.6c0.5-0.1,0.7-0.5,0.7-1.2c0-0.9-0.4-1.3-1.4-1.3H98V243z M98.9,240.8
	v-1h0.7c0.4,0,0.6,0.1,0.6,0.5c0,0.4-0.2,0.5-0.6,0.5H98.9z"/>
<path class="st14" d="M101.8,243h0.9v-1.4h0.7c1,0,1.5-0.4,1.5-1.3c0-0.9-0.4-1.3-1.5-1.3h-1.6V243z M102.8,240.8v-1.1h0.6
	c0.5,0,0.7,0.2,0.7,0.5s-0.2,0.5-0.7,0.5H102.8z"/>
<path class="st14" d="M105.6,243h0.9v-3l1,3h0.6l1-3v3h0.9v-4h-1.3l-0.9,2.6l-0.9-2.6h-1.3V243z"/>
</svg>
