<svg width="42" height="14" viewBox="0 0 42 14" fill="none" xmlns="http://www.w3.org/2000/svg">
<mask id="mask0" mask-type="alpha" maskUnits="userSpaceOnUse" x="0" y="0" width="42" height="14">
<path d="M0 1C0 0.447715 0.447715 0 1 0H41C41.5523 0 42 0.447715 42 1V13C42 13.5523 41.5358 14.0002 40.9836 13.9982C12.0826 13.8952 2.42171 9.41093 0.422003 8.26462C0.148931 8.10808 0 7.81476 0 7.5V1Z" fill="#FAAC48"/>
</mask>
<g>
<path d="M0 1C0 0.447715 0.447715 0 1 0H41.0177C41.563 0 42.0076 0.433068 42.0164 0.978321C42.0677 4.15852 42.2096 14 42 14C12.3084 14 2.44498 9.42427 0.422003 8.26462C0.148931 8.10808 0 7.81476 0 7.5V1Z" fill="#DD871A"/>
<path d="M41 1L42 0L42.5 14.5L16.5 14C13.6667 12.6667 9.69999 10.3 16.5 11.5C23.3 12.7 35.6667 13 41 13V1Z" fill="#9A5700"/>
<path fill-rule="evenodd" clip-rule="evenodd" d="M0 0H43C43.2761 0 42.5 0 42 0L41 1H1V7.46941C1.19297 7.61244 1.52468 7.80831 2.04033 8.04354C2.70978 8.34893 3.64911 8.70297 4.90739 9.08395C7.42332 9.84573 11.1898 10.7078 16.5733 11.5054C16.8464 11.5459 17.0351 11.8001 16.9946 12.0733C16.9541 12.3464 16.6999 12.5351 16.4267 12.4946C11.0102 11.6922 7.19334 10.8209 4.6176 10.041C3.33006 9.6512 2.34647 9.28232 1.6253 8.95334C0.919051 8.63117 0.421088 8.32819 0.146447 8.05355L0 7.90711V0Z" fill="#9A5700"/>
</g>
<path d="M18.5101 6.48329V7.94859H18V4.20566H19.4267C19.85 4.20566 20.1812 4.3102 20.4203 4.51928C20.6611 4.72836 20.7816 5.00514 20.7816 5.34961C20.7816 5.71294 20.6638 5.99314 20.4282 6.19023C20.1944 6.3856 19.8588 6.48329 19.4213 6.48329H18.5101ZM18.5101 6.07969H19.4267C19.6994 6.07969 19.9084 6.01799 20.0536 5.8946C20.1989 5.76949 20.2715 5.58955 20.2715 5.35476C20.2715 5.13196 20.1989 4.95373 20.0536 4.82005C19.9084 4.68638 19.7091 4.61697 19.4559 4.61183H18.5101V6.07969Z" fill="black"/>
<path d="M23.1301 7.67352C22.9388 7.89117 22.6581 8 22.2879 8C21.9815 8 21.7477 7.91431 21.5866 7.74293C21.4271 7.56984 21.3466 7.31448 21.3448 6.97686V5.1671H21.8363V6.96401C21.8363 7.3856 22.0134 7.5964 22.3676 7.5964C22.7431 7.5964 22.9928 7.46101 23.1168 7.19023V5.1671H23.6083V7.94859H23.1407L23.1301 7.67352Z" fill="black"/>
<path d="M24.8915 7.94859H24.4V4H24.8915V7.94859Z" fill="black"/>
<path d="M27.3543 7.2108C27.3543 7.08226 27.3038 6.98286 27.2028 6.9126C27.1036 6.84062 26.9292 6.77892 26.6795 6.72751C26.4315 6.67609 26.234 6.6144 26.087 6.54242C25.9418 6.47044 25.8337 6.38475 25.7629 6.28535C25.6938 6.18595 25.6593 6.06769 25.6593 5.93059C25.6593 5.70266 25.7585 5.50985 25.9568 5.35219C26.157 5.19452 26.412 5.11568 26.722 5.11568C27.0478 5.11568 27.3117 5.19709 27.5137 5.3599C27.7173 5.52271 27.8192 5.73093 27.8192 5.98458H27.325C27.325 5.85433 27.2675 5.74207 27.1523 5.64781C27.039 5.55356 26.8955 5.50643 26.722 5.50643C26.5431 5.50643 26.4032 5.54413 26.3022 5.61954C26.2012 5.69494 26.1508 5.79349 26.1508 5.91517C26.1508 6.02999 26.1977 6.11654 26.2916 6.17481C26.3854 6.23308 26.5546 6.28877 26.799 6.3419C27.0452 6.39503 27.2444 6.45844 27.3968 6.53213C27.5491 6.60583 27.6615 6.69494 27.7342 6.79949C27.8086 6.90231 27.8457 7.02828 27.8457 7.17738C27.8457 7.42588 27.743 7.62554 27.5376 7.77635C27.3321 7.92545 27.0656 8 26.7379 8C26.5077 8 26.304 7.96058 26.1269 7.88175C25.9497 7.80291 25.8107 7.69323 25.7098 7.5527C25.6106 7.41045 25.561 7.25707 25.561 7.09255H26.0525C26.0613 7.25193 26.1269 7.37875 26.2491 7.47301C26.373 7.56555 26.536 7.61183 26.7379 7.61183C26.9239 7.61183 27.0726 7.57584 27.1842 7.50386C27.2976 7.43016 27.3543 7.33248 27.3543 7.2108Z" fill="black"/>
<path d="M29.6789 8C29.2892 8 28.9722 7.87661 28.7278 7.62982C28.4834 7.38132 28.3611 7.0497 28.3611 6.63496V6.54756C28.3611 6.27164 28.4152 6.02571 28.5232 5.80977C28.633 5.59212 28.7853 5.42245 28.9802 5.30077C29.1768 5.17738 29.3893 5.11568 29.6178 5.11568C29.9915 5.11568 30.2819 5.23479 30.4892 5.47301C30.6964 5.71123 30.8 6.05227 30.8 6.49614V6.69409H28.8526C28.8597 6.96829 28.9421 7.19023 29.0997 7.3599C29.2591 7.52785 29.461 7.61183 29.7054 7.61183C29.879 7.61183 30.026 7.57755 30.1465 7.509C30.2669 7.44045 30.3723 7.34961 30.4626 7.2365L30.7628 7.46272C30.5219 7.82091 30.1606 8 29.6789 8ZM29.6178 5.50643C29.4194 5.50643 29.2529 5.57669 29.1183 5.71722C28.9837 5.85604 28.9005 6.05141 28.8686 6.30334H30.3085V6.26735C30.2943 6.02571 30.227 5.8389 30.1066 5.70694C29.9862 5.57326 29.8232 5.50643 29.6178 5.50643Z" fill="black"/>
</svg>
