<svg width="42" height="14" viewBox="0 0 42 14" fill="none" xmlns="http://www.w3.org/2000/svg">
<mask id="mask0" mask-type="alpha" maskUnits="userSpaceOnUse" x="0" y="0" width="42" height="14">
<path d="M42 1C42 0.447715 41.5523 0 41 0H1C0.447716 0 0 0.447715 0 1V13C0 13.5523 0.464157 14.0002 1.01644 13.9982C29.9174 13.8952 39.5783 9.41093 41.578 8.26462C41.8511 8.10808 42 7.81476 42 7.5V1Z" fill="#FAAC48"/>
</mask>
<g>
<path d="M42 1C42 0.447715 41.5523 0 41 0H0.982304C0.436981 0 -0.00761795 0.433068 -0.0164146 0.978321C-0.0677338 4.15852 -0.209606 14 0 14C29.6916 14 39.555 9.42427 41.578 8.26462C41.8511 8.10808 42 7.81476 42 7.5V1Z" fill="#FAAC48"/>
<path d="M1 13L12.5 12.7L14 14H0V0H42L41 1H1V13Z" fill="#FFD5A0"/>
<path fill-rule="evenodd" clip-rule="evenodd" d="M40.9999 7.49043V1L41.9999 0L41.9999 8.10902L41.7235 8.24721C37.6403 10.2888 32.5659 12.4969 12.5299 13.6991L12.47 12.7009C31.9674 11.531 37.1212 9.41305 40.9999 7.49043Z" fill="#DD871A"/>
<circle cx="12.5" cy="13.2" r="0.5" fill="#FFD5A0"/>
</g>
<path d="M12.4585 6.21123C11.9948 6.08467 11.657 5.92959 11.4449 5.74599C11.2346 5.56061 11.1295 5.33244 11.1295 5.0615C11.1295 4.7549 11.2581 4.50178 11.5153 4.30214C11.7743 4.10071 12.1103 4 12.5232 4C12.8048 4 13.0554 4.05169 13.275 4.15508C13.4965 4.25847 13.6673 4.40107 13.7874 4.58289C13.9094 4.76471 13.9704 4.96346 13.9704 5.17914H13.427C13.427 4.94385 13.3482 4.75936 13.1905 4.62567C13.0328 4.4902 12.8104 4.42246 12.5232 4.42246C12.2567 4.42246 12.0483 4.47861 11.8982 4.59091C11.7499 4.70143 11.6757 4.85561 11.6757 5.05348C11.6757 5.21212 11.7461 5.3467 11.8869 5.45722C12.0296 5.56595 12.2708 5.66578 12.6105 5.75668C12.9521 5.84759 13.2187 5.94831 13.4101 6.05882C13.6035 6.16756 13.7461 6.29501 13.8381 6.44118C13.932 6.58734 13.9789 6.75936 13.9789 6.95722C13.9789 7.27273 13.8494 7.52585 13.5903 7.71658C13.3313 7.90553 12.985 8 12.5514 8C12.2698 8 12.007 7.9492 11.763 7.84759C11.519 7.74421 11.3304 7.60339 11.1971 7.42513C11.0657 7.24688 11 7.04456 11 6.81818H11.5434C11.5434 7.05348 11.6344 7.23975 11.8165 7.37701C12.0005 7.51248 12.2454 7.58021 12.5514 7.58021C12.8367 7.58021 13.0554 7.52496 13.2074 7.41444C13.3595 7.30392 13.4355 7.1533 13.4355 6.96257C13.4355 6.77184 13.3651 6.62478 13.2243 6.52139C13.0835 6.41622 12.8282 6.31283 12.4585 6.21123Z" fill="black"/>
<path d="M15.2994 4.35294V5.05348H15.8681V5.43583H15.2994V7.22995C15.2994 7.34581 15.3247 7.43316 15.3754 7.49198C15.4261 7.54902 15.5124 7.57754 15.6344 7.57754C15.6945 7.57754 15.7771 7.56684 15.8822 7.54545V7.94652C15.7452 7.98217 15.6119 8 15.4824 8C15.2496 8 15.0741 7.93316 14.9559 7.79947C14.8376 7.66578 14.7785 7.47594 14.7785 7.22995V5.43583H14.2238V5.05348H14.7785V4.35294H15.2994Z" fill="black"/>
<path d="M18.3599 7.94652C18.3299 7.88948 18.3055 7.78788 18.2867 7.64171C18.0446 7.88057 17.7555 8 17.4195 8C17.1192 8 16.8724 7.91979 16.679 7.75936C16.4876 7.59715 16.3918 7.39216 16.3918 7.14438C16.3918 6.84314 16.512 6.60963 16.7522 6.44385C16.9944 6.27629 17.3341 6.19251 17.7715 6.19251H18.2783V5.96524C18.2783 5.79234 18.2238 5.65508 18.115 5.55348C18.0061 5.45009 17.8456 5.3984 17.6335 5.3984C17.4477 5.3984 17.2919 5.44296 17.1661 5.53209C17.0404 5.62121 16.9775 5.72906 16.9775 5.85561H16.4538C16.4538 5.71123 16.5073 5.57219 16.6143 5.4385C16.7231 5.30303 16.8695 5.19608 17.0535 5.11765C17.2393 5.03922 17.443 5 17.6645 5C18.0155 5 18.2905 5.08378 18.4894 5.25134C18.6884 5.41711 18.7916 5.64617 18.7992 5.9385V7.27005C18.7992 7.53565 18.8348 7.74688 18.9061 7.90374V7.94652H18.3599ZM17.4955 7.56952C17.6588 7.56952 17.8137 7.52941 17.9601 7.4492C18.1065 7.36898 18.2126 7.26471 18.2783 7.13636V6.54278H17.87C17.2318 6.54278 16.9127 6.72014 16.9127 7.07487C16.9127 7.22995 16.9672 7.35116 17.076 7.4385C17.1849 7.52585 17.3247 7.56952 17.4955 7.56952Z" fill="black"/>
<path d="M21.0882 5.49733C21.0094 5.48485 20.924 5.47861 20.832 5.47861C20.4904 5.47861 20.2586 5.61676 20.1366 5.89305V7.94652H19.6157V5.05348H20.1225L20.1309 5.3877C20.3017 5.12923 20.5439 5 20.8573 5C20.9587 5 21.0357 5.01248 21.0882 5.03743V5.49733Z" fill="black"/>
<path d="M22.4172 4.35294V5.05348H22.9859V5.43583H22.4172V7.22995C22.4172 7.34581 22.4425 7.43316 22.4932 7.49198C22.5439 7.54902 22.6302 7.57754 22.7522 7.57754C22.8123 7.57754 22.8949 7.56684 23 7.54545V7.94652C22.863 7.98217 22.7297 8 22.6002 8C22.3674 8 22.1919 7.93316 22.0737 7.79947C21.9554 7.66578 21.8963 7.47594 21.8963 7.22995V5.43583H21.3416V5.05348H21.8963V4.35294H22.4172Z" fill="black"/>
</svg>
