<svg xmlns="http://www.w3.org/2000/svg" width="352" height="19" fill="none" viewBox="0 0 352 19">
    <path fill="#54BCE3" d="M0 0h352v19H0V0z"/>
    <path fill="#227B9D" fill-rule="evenodd" d="M3 8.5a2.5 2.5 0 1 1 5 0V19H3V8.5zm10 0a2.5 2.5 0 0 1 5 0V19h-5V8.5zM25.5 6A2.5 2.5 0 0 0 23 8.5V19h5V8.5A2.5 2.5 0 0 0 25.5 6zM33 8.5a2.5 2.5 0 0 1 5 0V19h-5V8.5zM45.5 6A2.5 2.5 0 0 0 43 8.5V19h5V8.5A2.5 2.5 0 0 0 45.5 6zM53 8.5a2.5 2.5 0 0 1 5 0V19h-5V8.5zM65.5 6A2.5 2.5 0 0 0 63 8.5V19h5V8.5A2.5 2.5 0 0 0 65.5 6zM73 8.5a2.5 2.5 0 0 1 5 0V19h-5V8.5zM85.5 6A2.5 2.5 0 0 0 83 8.5V19h5V8.5A2.5 2.5 0 0 0 85.5 6zM93 8.5a2.5 2.5 0 0 1 5 0V19h-5V8.5zM105.5 6a2.5 2.5 0 0 0-2.5 2.5V19h5V8.5a2.5 2.5 0 0 0-2.5-2.5zm7.5 2.5a2.5 2.5 0 1 1 5 0V19h-5V8.5zM125.5 6a2.5 2.5 0 0 0-2.5 2.5V19h5V8.5a2.5 2.5 0 0 0-2.5-2.5zm7.5 2.5a2.5 2.5 0 1 1 5 0V19h-5V8.5zM145.5 6a2.5 2.5 0 0 0-2.5 2.5V19h5V8.5a2.5 2.5 0 0 0-2.5-2.5zm7.5 2.5a2.5 2.5 0 1 1 5 0V19h-5V8.5zM165.5 6a2.5 2.5 0 0 0-2.5 2.5V19h5V8.5a2.5 2.5 0 0 0-2.5-2.5zm7.5 2.5a2.5 2.5 0 1 1 5 0V19h-5V8.5zM185.5 6a2.5 2.5 0 0 0-2.5 2.5V19h5V8.5a2.5 2.5 0 0 0-2.5-2.5zm7.5 2.5a2.5 2.5 0 1 1 5 0V19h-5V8.5zM205.5 6a2.5 2.5 0 0 0-2.5 2.5V19h5V8.5a2.5 2.5 0 0 0-2.5-2.5zm7.5 2.5a2.5 2.5 0 1 1 5 0V19h-5V8.5zM225.5 6a2.5 2.5 0 0 0-2.5 2.5V19h5V8.5a2.5 2.5 0 0 0-2.5-2.5zm7.5 2.5a2.5 2.5 0 1 1 5 0V19h-5V8.5zM245.5 6a2.5 2.5 0 0 0-2.5 2.5V19h5V8.5a2.5 2.5 0 0 0-2.5-2.5zm7.5 2.5a2.5 2.5 0 1 1 5 0V19h-5V8.5zM265.5 6a2.5 2.5 0 0 0-2.5 2.5V19h5V8.5a2.5 2.5 0 0 0-2.5-2.5zm7.5 2.5a2.5 2.5 0 1 1 5 0V19h-5V8.5zM285.5 6a2.5 2.5 0 0 0-2.5 2.5V19h5V8.5a2.5 2.5 0 0 0-2.5-2.5zm7.5 2.5a2.5 2.5 0 1 1 5 0V19h-5V8.5zM305.5 6a2.5 2.5 0 0 0-2.5 2.5V19h5V8.5a2.5 2.5 0 0 0-2.5-2.5zm7.5 2.5a2.5 2.5 0 1 1 5 0V19h-5V8.5zM325.5 6a2.5 2.5 0 0 0-2.5 2.5V19h5V8.5a2.5 2.5 0 0 0-2.5-2.5zm7.5 2.5a2.5 2.5 0 1 1 5 0V19h-5V8.5zM345.5 6a2.5 2.5 0 0 0-2.5 2.5V19h5V8.5a2.5 2.5 0 0 0-2.5-2.5z" clip-rule="evenodd"/>
</svg>
