<svg xmlns="http://www.w3.org/2000/svg" width="352" height="19" fill="none" viewBox="0 0 352 19">
    <path fill="#F7DD89" d="M0 0h352v19H0V0z"/>
    <path fill="#B19435" d="M3 8.5a2.5 2.5 0 1 1 5 0V19H3V8.5zm10 0a2.5 2.5 0 0 1 5 0V19h-5V8.5zm10 0a2.5 2.5 0 0 1 5 0V19h-5V8.5zm10 0a2.5 2.5 0 0 1 5 0V19h-5V8.5zm10 0a2.5 2.5 0 0 1 5 0V19h-5V8.5zm10 0a2.5 2.5 0 0 1 5 0V19h-5V8.5zm10 0a2.5 2.5 0 0 1 5 0V19h-5V8.5zm10 0a2.5 2.5 0 0 1 5 0V19h-5V8.5zm10 0a2.5 2.5 0 0 1 5 0V19h-5V8.5zm10 0a2.5 2.5 0 0 1 5 0V19h-5V8.5zm10 0a2.5 2.5 0 1 1 5 0V19h-5V8.5zm10 0a2.5 2.5 0 1 1 5 0V19h-5V8.5zm10 0a2.5 2.5 0 1 1 5 0V19h-5V8.5zm10 0a2.5 2.5 0 1 1 5 0V19h-5V8.5zm10 0a2.5 2.5 0 1 1 5 0V19h-5V8.5zm10 0a2.5 2.5 0 1 1 5 0V19h-5V8.5zm10 0a2.5 2.5 0 1 1 5 0V19h-5V8.5zm10 0a2.5 2.5 0 1 1 5 0V19h-5V8.5zm10 0a2.5 2.5 0 1 1 5 0V19h-5V8.5zm10 0a2.5 2.5 0 1 1 5 0V19h-5V8.5zm10 0a2.5 2.5 0 1 1 5 0V19h-5V8.5zm10 0a2.5 2.5 0 1 1 5 0V19h-5V8.5zm10 0a2.5 2.5 0 1 1 5 0V19h-5V8.5zm10 0a2.5 2.5 0 1 1 5 0V19h-5V8.5zm10 0a2.5 2.5 0 1 1 5 0V19h-5V8.5zm10 0a2.5 2.5 0 1 1 5 0V19h-5V8.5zm10 0a2.5 2.5 0 1 1 5 0V19h-5V8.5zm10 0a2.5 2.5 0 1 1 5 0V19h-5V8.5zm10 0a2.5 2.5 0 1 1 5 0V19h-5V8.5zm10 0a2.5 2.5 0 1 1 5 0V19h-5V8.5zm10 0a2.5 2.5 0 1 1 5 0V19h-5V8.5zm10 0a2.5 2.5 0 1 1 5 0V19h-5V8.5zm10 0a2.5 2.5 0 1 1 5 0V19h-5V8.5zm10 0a2.5 2.5 0 1 1 5 0V19h-5V8.5zm10 0a2.5 2.5 0 1 1 5 0V19h-5V8.5z"/>
</svg>
