<svg id="Layer_1" data-name="Layer 1" xmlns="http://www.w3.org/2000/svg" width="352" height="19" viewBox="0 0 352 19">
  <defs>
    <style>
      .cls-1 {
        fill: #99b2c4;
      }

      .cls-2 {
        fill: #668ba6;
      }
    </style>
  </defs>
  <rect class="cls-1" width="352" height="19"/>
  <polygon class="cls-2" points="9.16 12.9 3.38 12.9 3.94 1.52 8.56 1.52 9.16 12.9"/>
  <polygon class="cls-2" points="22.75 12.9 16.96 12.9 17.52 1.52 22.14 1.52 22.75 12.9"/>
  <polygon class="cls-2" points="36.34 12.9 30.55 12.9 31.12 1.52 35.73 1.52 36.34 12.9"/>
  <polygon class="cls-2" points="49.93 12.9 44.14 12.9 44.7 1.52 49.32 1.52 49.93 12.9"/>
  <polygon class="cls-2" points="63.51 12.9 57.73 12.9 58.29 1.52 62.91 1.52 63.51 12.9"/>
  <polygon class="cls-2" points="77.1 12.9 71.32 12.9 71.88 1.52 76.5 1.52 77.1 12.9"/>
  <polygon class="cls-2" points="90.69 12.9 84.9 12.9 85.46 1.52 90.08 1.52 90.69 12.9"/>
  <polygon class="cls-2" points="104.27 12.9 98.49 12.9 99.05 1.52 103.67 1.52 104.27 12.9"/>
  <polygon class="cls-2" points="117.87 12.9 112.08 12.9 112.64 1.52 117.26 1.52 117.87 12.9"/>
  <polygon class="cls-2" points="131.45 12.9 125.66 12.9 126.23 1.52 130.84 1.52 131.45 12.9"/>
  <polygon class="cls-2" points="145.04 12.9 139.25 12.9 139.81 1.52 144.43 1.52 145.04 12.9"/>
  <polygon class="cls-2" points="158.63 12.9 152.84 12.9 153.4 1.52 158.02 1.52 158.63 12.9"/>
  <polygon class="cls-2" points="172.21 12.9 166.43 12.9 166.99 1.52 171.61 1.52 172.21 12.9"/>
  <polygon class="cls-2" points="185.8 12.9 180.02 12.9 180.57 1.52 185.19 1.52 185.8 12.9"/>
  <polygon class="cls-2" points="199.39 12.9 193.6 12.9 194.16 1.52 198.78 1.52 199.39 12.9"/>
  <polygon class="cls-2" points="212.97 12.9 207.19 12.9 207.75 1.52 212.37 1.52 212.97 12.9"/>
  <polygon class="cls-2" points="226.56 12.9 220.78 12.9 221.34 1.52 225.95 1.52 226.56 12.9"/>
  <polygon class="cls-2" points="240.15 12.9 234.37 12.9 234.93 1.52 239.55 1.52 240.15 12.9"/>
  <polygon class="cls-2" points="253.74 12.9 247.95 12.9 248.51 1.52 253.13 1.52 253.74 12.9"/>
  <polygon class="cls-2" points="267.32 12.9 261.54 12.9 262.1 1.52 266.72 1.52 267.32 12.9"/>
  <polygon class="cls-2" points="280.92 12.9 275.13 12.9 275.69 1.52 280.31 1.52 280.92 12.9"/>
  <polygon class="cls-2" points="294.5 12.9 288.71 12.9 289.27 1.52 293.89 1.52 294.5 12.9"/>
  <polygon class="cls-2" points="308.08 12.9 302.31 12.9 302.86 1.52 307.48 1.52 308.08 12.9"/>
  <polygon class="cls-2" points="321.68 12.9 315.89 12.9 316.45 1.52 321.07 1.52 321.68 12.9"/>
  <polygon class="cls-2" points="335.26 12.9 329.48 12.9 330.04 1.52 334.66 1.52 335.26 12.9"/>
  <polygon class="cls-2" points="348.85 12.9 343.06 12.9 343.62 1.52 348.24 1.52 348.85 12.9"/>
  <polygon class="cls-2" points="337.83 19 14.16 19 0 19 0 12.34 352 12.34 352 15.24 352 19 337.83 19"/>
</svg>
