<svg xmlns="http://www.w3.org/2000/svg" width="184" height="321" fill="none" viewBox="0 0 184 321">
    <path fill="url(#a)" d="M91.858 320c50.731 0 91.857-41.126 91.857-91.858 0-50.731-41.126-91.857-91.857-91.857C41.126 136.285 0 177.411 0 228.142 0 278.874 41.126 320 91.858 320z"/>
    <path fill="url(#b)" d="M91.858 306.562c43.31 0 78.419-35.109 78.419-78.42 0-43.31-35.109-78.419-78.42-78.419-43.31 0-78.42 35.109-78.42 78.419 0 43.311 35.11 78.42 78.42 78.42z"/>
    <path fill="url(#c)" d="M91.858 302.15c40.873 0 74.007-33.134 74.007-74.007 0-40.873-33.134-74.008-74.007-74.008-40.874 0-74.008 33.135-74.008 74.008s33.134 74.007 74.008 74.007z"/>
    <path fill="#E4E4E4" d="M91.858 16.55c-41.918 0-75.913 28.98-75.913 64.781 0 35.8 33.995 64.782 75.913 64.782 41.917 0 75.912-28.982 75.912-64.782s-33.995-64.782-75.912-64.782zm0 85.238c-13.237 0-24.068-9.225-24.068-20.457 0-11.231 10.73-20.457 24.068-20.457 13.237 0 24.067 9.226 24.067 20.457s-10.83 20.457-24.067 20.457z"/>
    <path fill="#8A8A8A" d="M91.858 20.661c-39.31 0-71.1 27.176-71.1 60.67s31.89 60.67 71.1 60.67c39.31 0 71.099-27.176 71.099-60.67s-31.789-60.67-71.1-60.67zm0 83.233c-14.541 0-26.374-10.128-26.374-22.563 0-12.435 11.833-22.563 26.374-22.563 14.54 0 26.374 10.128 26.374 22.563 0 12.435-11.834 22.563-26.374 22.563z"/>
    <path fill="#D0D0D0" d="M115.925 81.331c0 5.515-2.607 10.53-6.819 14.24-3.711 3.31-8.725 5.515-14.34 6.117-.903.1-1.906.1-2.908.1-13.237 0-24.068-9.225-24.068-20.457 0-1.203.1-2.407.401-3.51 2.006 9.627 11.833 16.948 23.667 16.948.601 0 1.203 0 1.805-.1 5.014-.301 9.526-1.906 13.136-4.413 4.513-3.008 7.722-7.521 8.725-12.535.2 1.203.401 2.407.401 3.61z"/>
    <path fill="#fff" d="M109.106 95.57c-3.711 3.31-8.725 5.516-14.34 6.118l-1.103-7.02c5.014-.3 9.526-1.905 13.136-4.412l2.307 5.315z" opacity=".3"/>
    <path fill="#9E9E9E" d="M135.38 129.266l-18.954-39.712c-3.91 8.324-13.437 14.24-24.568 14.24-1.906 0-3.811-.2-5.616-.501l6.017 38.608c16.245 0 31.187-4.713 43.121-12.635z"/>
    <path fill="#8A8A8A" stroke="#EEE" stroke-miterlimit="10" stroke-width="3" d="M115.925 5.92c-5.415-2.106-13.438-4.312-23.065-4.413-10.63-.1-19.254 2.307-24.97 4.413v15.644c5.817-2.006 14.24-4.112 24.469-4.012 9.828.1 17.95 2.106 23.666 4.012-.1-5.215-.1-10.43-.1-15.644z"/>
    <path fill="#0D0E0E" d="M91.858 286.206c32.067 0 58.062-25.996 58.062-58.063 0-32.067-25.995-58.063-58.062-58.063-32.068 0-58.063 25.996-58.063 58.063 0 32.067 25.995 58.063 58.063 58.063z"/>
    <path fill="url(#d)" d="M91.858 249.603c11.852 0 21.46-9.608 21.46-21.46s-9.608-21.46-21.46-21.46c-11.853 0-21.46 9.608-21.46 21.46s9.608 21.46 21.46 21.46z"/>
    <path fill="#EAEAEA" d="M60.77 199.764c-3.81-.602-7.822 1.203-9.827 4.713a9.515 9.515 0 0 0 1.103 10.83l2.607 2.106a9.548 9.548 0 0 0 12.937-3.71 9.548 9.548 0 0 0-3.71-12.936l-3.11-1.003z" opacity=".7"/>
    <path fill="#EAEAEA" d="M60.67 199.964c-3.61-.602-7.42 1.103-9.326 4.512-1.905 3.41-1.304 7.521 1.103 10.329l2.407 2.006c4.412 2.407 9.928.802 12.334-3.51 2.407-4.412.903-9.928-3.51-12.335l-3.008-1.002z" opacity=".5"/>
    <path fill="#4F4F4F" d="M65.985 212.7c-1.705 3.109-5.114 4.713-8.524 4.212-.3 0-.602-.101-.902-.201-.401-.1-.803-.2-1.204-.401-.2-.1-.4-.201-.702-.301-4.011-2.206-5.515-7.32-3.209-11.332 2.206-4.011 7.32-5.515 11.332-3.209a7.833 7.833 0 0 1 2.708 2.407l.601.903c0 .1.1.2.1.2 1.104 2.307 1.104 5.215-.2 7.722z" opacity=".7"/>
    <path fill="#4F4F4F" d="M65.985 212.7c-1.705 3.109-5.114 4.713-8.524 4.212-1.203-2.407-1.203-5.215.2-7.722 1.705-3.108 5.115-4.713 8.525-4.211 1.103 2.306 1.103 5.214-.201 7.721z" opacity=".5"/>
    <path fill="#EAEAEA" d="M122.945 199.764c3.81-.602 7.822 1.203 9.827 4.713a9.514 9.514 0 0 1-1.103 10.83l-2.607 2.106a9.548 9.548 0 0 1-12.936-3.71 9.548 9.548 0 0 1 3.71-12.936l3.109-1.003z" opacity=".7"/>
    <path fill="#EAEAEA" d="M123.045 199.964c3.61-.602 7.421 1.103 9.326 4.512 1.906 3.41 1.304 7.521-1.103 10.329l-2.407 2.006c-4.412 2.407-9.927.802-12.334-3.51-2.407-4.412-.903-9.928 3.51-12.335l3.008-1.002z" opacity=".5"/>
    <path fill="#4F4F4F" d="M117.73 212.7c1.705 3.109 5.114 4.713 8.524 4.212.301 0 .602-.101.902-.201.402-.1.803-.2 1.204-.401.2-.1.401-.201.702-.301 4.011-2.206 5.515-7.32 3.209-11.332-2.206-4.011-7.321-5.515-11.332-3.209a7.823 7.823 0 0 0-2.707 2.407l-.602.903c0 .1-.1.2-.1.2-1.104 2.307-1.104 5.215.2 7.722z" opacity=".7"/>
    <path fill="#4F4F4F" d="M117.73 212.7c1.705 3.109 5.114 4.713 8.524 4.212 1.203-2.407 1.203-5.215-.201-7.722-1.704-3.108-5.114-4.713-8.523-4.211-1.104 2.306-1.104 5.214.2 7.721z" opacity=".5"/>
    <path fill="#EAEAEA" d="M100.181 270.06c-1.805 3.41-5.616 5.516-9.727 5.014-4.112-.601-7.22-3.61-8.023-7.421l-.1-3.309c.702-5.214 5.515-8.825 10.73-8.123 5.214.702 8.825 5.516 8.123 10.73l-1.003 3.109z" opacity=".7"/>
    <path fill="#EAEAEA" d="M99.98 270.06c-1.704 3.309-5.315 5.315-9.226 4.713-3.91-.601-6.819-3.409-7.62-7.019l-.101-3.109c.702-4.914 5.214-8.424 10.228-7.722 4.914.702 8.424 5.215 7.722 10.229l-1.003 2.908z" opacity=".5"/>
    <path fill="#4F4F4F" d="M92.96 258.227c-3.51-.501-6.819 1.304-8.423 4.312-.2.301-.3.602-.401.802-.2.401-.3.803-.401 1.204-.1.2-.1.501-.1.702a8.28 8.28 0 0 0 7.12 9.326c4.512.601 8.724-2.608 9.326-7.12.2-1.204.1-2.507-.301-3.61-.1-.301-.2-.702-.401-1.003 0-.1-.1-.201-.1-.201-1.204-2.306-3.51-4.011-6.318-4.412z" opacity=".7"/>
    <path fill="#4F4F4F" d="M92.96 258.227c-3.51-.501-6.819 1.304-8.423 4.312 1.203 2.407 3.51 4.112 6.318 4.513 3.51.501 6.819-1.304 8.423-4.312-1.203-2.407-3.51-4.112-6.317-4.513z" opacity=".5"/>
    <path fill="#EAEAEA" d="M122.945 256.221c3.81.602 7.822-1.203 9.827-4.713a9.514 9.514 0 0 0-1.103-10.83l-2.607-2.106a9.548 9.548 0 0 0-12.936 3.71 9.55 9.55 0 0 0 3.71 12.937l3.109 1.002z" opacity=".7"/>
    <path fill="#EAEAEA" d="M123.045 256.121c3.61.602 7.421-1.103 9.326-4.512 1.906-3.41 1.304-7.522-1.103-10.329l-2.407-2.006c-4.412-2.407-9.927-.903-12.334 3.51-2.407 4.412-.903 9.928 3.51 12.334l3.008 1.003z" opacity=".5"/>
    <path fill="#4F4F4F" d="M117.73 243.386c1.705-3.109 5.114-4.713 8.524-4.212.301 0 .602.1.902.201.402.1.803.2 1.204.401.2.1.401.2.702.301 4.011 2.206 5.515 7.32 3.209 11.331-2.206 4.012-7.321 5.516-11.332 3.209a7.82 7.82 0 0 1-2.707-2.406l-.602-.903c0-.1-.1-.201-.1-.201-1.104-2.306-1.104-5.214.2-7.721z" opacity=".7"/>
    <path fill="#4F4F4F" d="M117.73 243.385c1.705-3.108 5.114-4.713 8.524-4.211 1.203 2.406 1.203 5.214-.201 7.721-1.704 3.109-5.114 4.713-8.523 4.212-1.104-2.306-1.104-5.215.2-7.722z" opacity=".5"/>
    <path fill="#EAEAEA" d="M60.77 256.221c-3.81.602-7.822-1.203-9.827-4.713a9.515 9.515 0 0 1 1.103-10.83l2.607-2.106a9.548 9.548 0 0 1 12.937 3.71 9.55 9.55 0 0 1-3.71 12.937l-3.11 1.002z" opacity=".7"/>
    <path fill="#EAEAEA" d="M60.67 256.121c-3.61.602-7.42-1.103-9.326-4.512-1.905-3.41-1.304-7.522 1.103-10.329l2.407-2.006c4.412-2.407 9.928-.903 12.334 3.51 2.407 4.412.903 9.928-3.51 12.334l-3.008 1.003z" opacity=".5"/>
    <path fill="#4F4F4F" d="M65.985 243.386c-1.705-3.109-5.114-4.713-8.524-4.212-.3 0-.602.1-.902.201-.401.1-.803.2-1.204.401-.2.1-.4.2-.702.301-4.011 2.206-5.515 7.32-3.209 11.331 2.206 4.012 7.32 5.516 11.332 3.209a7.83 7.83 0 0 0 2.708-2.406l.601-.903c0-.1.1-.201.1-.201 1.104-2.306 1.104-5.214-.2-7.721z" opacity=".7"/>
    <path fill="#4F4F4F" d="M65.985 243.385c-1.705-3.108-5.114-4.713-8.524-4.211-1.203 2.406-1.203 5.214.2 7.721 1.705 3.109 5.115 4.713 8.525 4.212 1.103-2.306 1.103-5.215-.201-7.722z" opacity=".5"/>
    <path fill="#EAEAEA" d="M83.534 186.125c1.805-3.41 5.616-5.516 9.727-5.014 4.112.602 7.221 3.61 8.023 7.421l.1 3.309c-.702 5.215-5.515 8.825-10.73 8.123-5.214-.702-8.825-5.516-8.123-10.73l1.003-3.109z" opacity=".7"/>
    <path fill="#EAEAEA" d="M83.735 186.125c1.705-3.31 5.315-5.315 9.226-4.714 3.91.502 6.819 3.41 7.621 7.02l.1 3.109c-.702 4.914-5.214 8.423-10.228 7.721-4.914-.701-8.424-5.214-7.722-10.228l1.003-2.908z" opacity=".5"/>
    <path fill="#4F4F4F" d="M90.754 197.958c3.51.501 6.82-1.304 8.424-4.312.2-.301.3-.602.401-.803.2-.401.301-.802.401-1.203.101-.201.101-.501.101-.702a8.28 8.28 0 0 0-7.12-9.326c-4.513-.602-8.725 2.607-9.326 7.12-.201 1.203-.1 2.507.3 3.61.1.301.201.702.401 1.003 0 .1.1.2.1.2 1.204 2.307 3.51 4.012 6.318 4.413z" opacity=".7"/>
    <path fill="#4F4F4F" d="M90.754 197.958c3.51.501 6.82-1.304 8.424-4.313-1.203-2.406-3.51-4.111-6.318-4.512-3.51-.502-6.819 1.304-8.423 4.312 1.203 2.407 3.51 4.111 6.317 4.513z" opacity=".5"/>
    <path fill="#EAEAEA" d="M100.783 187.027c-1.505-3.61-5.014-6.117-9.126-5.917-4.111.101-7.521 2.908-8.724 6.519h-.602l.1 3.209c.2 5.214 4.613 9.326 9.828 9.125 5.214-.2 9.326-4.613 9.125-9.827l-.1-3.209-.501.1z" opacity=".7"/>
    <path fill="#EAEAEA" d="M91.858 196.955c5.261 0 9.526-4.266 9.526-9.527a9.526 9.526 0 0 0-9.526-9.527 9.527 9.527 0 0 0-9.527 9.527c0 5.261 4.265 9.527 9.527 9.527z" opacity=".7"/>
    <path fill="#EAEAEA" d="M91.858 195.751a8.324 8.324 0 1 0-.001-16.647 8.324 8.324 0 0 0 0 16.647z" opacity=".7"/>
    <path fill="#EAEAEA" d="M83.534 190.336a2.608 2.608 0 1 0 0-5.216 2.608 2.608 0 0 0 0 5.216zM100.181 189.735a2.607 2.607 0 1 0 0-5.214 2.607 2.607 0 0 0 0 5.214z" opacity=".7"/>
    <defs>
        <radialGradient id="a" cx="0" cy="0" r="1" gradientTransform="translate(91.86 228.093) scale(91.8509)" gradientUnits="userSpaceOnUse">
            <stop offset=".801" stop-color="#fff"/>
            <stop offset="1" stop-color="#B8B8B8"/>
        </radialGradient>
        <radialGradient id="b" cx="0" cy="0" r="1" gradientTransform="translate(91.86 228.093) scale(78.453)" gradientUnits="userSpaceOnUse">
            <stop offset=".833" stop-color="#fff"/>
            <stop offset="1" stop-color="#454545"/>
        </radialGradient>
        <radialGradient id="c" cx="0" cy="0" r="1" gradientTransform="translate(91.86 228.093) scale(74.0196)" gradientUnits="userSpaceOnUse">
            <stop offset=".833" stop-color="#858585"/>
            <stop offset="1" stop-color="#B0B0B0"/>
        </radialGradient>
        <radialGradient id="d" cx="0" cy="0" r="1" gradientTransform="translate(91.86 228.093) scale(21.454)" gradientUnits="userSpaceOnUse">
            <stop offset=".356" stop-color="#787878"/>
            <stop offset="1" stop-color="#171717"/>
        </radialGradient>
    </defs>
</svg>
