<svg xmlns="http://www.w3.org/2000/svg" width="160" height="312" fill="none" viewBox="0 0 160 312">
    <path fill="#E4E4E4" fill-rule="evenodd" d="M144.352 272.986l-3.693 34.239-19.428-156.387h35.956l-12.835 122.148zm-127.649-4.824L20 308l19.824-157.074H3.78l12.923 117.236z" clip-rule="evenodd"/>
    <path fill="#9F9F9F" d="M140.747 307.316a513.249 513.249 0 0 1-60.132 3.772c-22.066 0-42.373-1.404-60.395-3.596v-38.243l120.527-.175v38.242z"/>
    <path fill="#EBEBEB" d="M5.275 158.644s16 44.47 17.142 56.487c.88 8.946-1.582 42.979-2.9 60.082-.44 5.965 2.988 11.403 8.351 12.982a187.098 187.098 0 0 0 52.66 7.806c21.274 0 39.384-3.684 53.098-7.719 5.539-1.666 9.143-7.455 8.44-13.595-.703-6.052-1.407-13.069-2.198-20.963-1.67-16.314-2.989-33.769-1.846-38.681 2.286-9.824 15.56-56.486 15.56-56.486l-148.307.087z"/>
    <path fill="#D0D0D0" d="M16.703 172.766l126.682-.088c-.088 0-63.121 95.431-126.682.088z"/>
    <path fill="#A8A8A8" d="M157.011 150.838c0 3.772-2.549 7.368-7.121 10.613-12.22 8.596-38.945 14.648-69.978 14.648-30.945 0-57.67-5.964-69.89-14.56-4.571-3.245-7.12-6.754-7.12-10.526 0-13.858 34.46-25.173 77.01-25.173 42.637-.175 77.099 11.052 77.099 24.998z"/>
    <path fill="#0D0E0E" d="M149.89 161.364c-12.22 8.595-38.945 14.648-69.978 14.648-30.945 0-57.67-5.965-69.89-14.561 12.22-8.595 38.945-14.648 69.89-14.648 31.033 0 57.758 5.965 69.978 14.561z"/>
    <path fill="#828383" fill-rule="evenodd" d="M133.251 133.575c-13.497-4.866-32.316-7.91-53.246-7.866H80c-20.885 0-39.705 3.086-53.213 7.985-6.765 2.454-12.066 5.314-15.629 8.362-3.572 3.056-5.141 6.064-5.141 8.87 0 3.039 1.808 6.335 6.055 9.594l.008.007.008.006c5.655 4.416 14.923 8.3 26.767 11.07 11.79 2.758 25.927 4.364 41.145 4.364 15.216 0 29.351-1.627 41.141-4.406 11.834-2.79 21.099-6.692 26.758-11.106 4.212-3.381 6.085-6.683 6.085-9.705 0-2.807-1.565-5.808-5.129-8.853-3.554-3.038-8.845-5.885-15.604-8.322zm18.853 4.52c4.17 3.564 6.88 7.832 6.88 12.655 0 5.221-3.223 9.809-7.969 13.616l-.013.01-.013.01c-6.474 5.056-16.544 9.176-28.701 12.041-12.21 2.878-26.734 4.54-42.288 4.54-15.55 0-30.074-1.639-42.283-4.495-12.151-2.842-22.22-6.937-28.698-11.992-4.891-3.756-8.002-8.352-8.002-13.554 0-4.825 2.716-9.098 6.89-12.669 4.186-3.58 10.094-6.695 17.175-9.263 14.183-5.144 33.604-11.285 54.916-11.285 21.354-.044 40.776 6.052 54.949 11.163 7.076 2.551 12.978 5.652 17.157 9.223z" clip-rule="evenodd"/>
    <path fill="#EEE" d="M80 186.186c-30.945 0-58.462-7.807-71.736-20.349C2.814 160.662 0 154.96 0 148.908c0-20.963 35.165-37.365 80-37.453 44.835 0 80 16.402 80 37.278 0 6.052-2.813 11.753-8.264 16.928-13.274 12.718-40.791 20.525-71.736 20.525zm0-67.187c-43.692 0-72.967 15.437-72.967 29.909 0 3.772 2.022 7.631 5.89 11.315 11.868 11.227 38.242 18.507 67.165 18.507 28.923 0 55.209-7.367 67.165-18.595 3.868-3.683 5.89-7.455 5.89-11.314-.176-14.473-29.451-29.822-73.143-29.822z"/>
    <path fill="#fff" d="M23.822 207.765c-.945-6.507 5.577-11.128 10.775-7.733 9.925 6.507 19.945 17.504 44.424 17.504s33.27-10.337 43.478-16.749c4.821-3.112 12.785.943 12.501 6.978v.849c-.095 3.866 1.677 45.889 3.284 61.26.378 3.772-1.796 7.261-5.104 8.204-13.327 4.055-31.286 7.922-52.741 7.922-21.456 0-39.414-3.772-52.647-7.827-3.214-1.038-5.387-4.338-5.104-7.922.662-9.336 1.229-16.88 1.607-22.255.945-14.617.378-34.195 0-37.496-.19-.755-.284-1.698-.473-2.735z"/>
    <path fill="#54BCE3" d="M136.488 257.944c-11.72 5.941-39.13 18.294-61.531 11.41-3.876-1.131-16.068-4.904-17.203-12.448-.661-4.715 3.309-8.016 2.174-9.902-1.228-2.263-9.073-1.508-36.011 10.845-.378 4.904-.85 11.128-1.323 18.389-.284 3.678 1.89 6.979 5.104 7.922 13.232 4.055 31.285 7.827 52.646 7.827 21.456 0 39.414-3.867 52.741-7.922 3.308-1.037 5.482-4.526 5.104-8.204-.378-4.432-1.039-10.939-1.701-17.917z"/>
    <path fill="#4873E2" d="M37 221a2 2 0 0 1 2-2h81a2 2 0 0 1 2 2v19a2 2 0 0 1-2 2H39a2 2 0 0 1-2-2v-19z"/>
    <path fill="#80CCE8" d="M37 248a2 2 0 0 1 2-2h37a2 2 0 0 1 2 2v16a2 2 0 0 1-2 2H39a2 2 0 0 1-2-2v-16zM82 248a2 2 0 0 1 2-2h37a2 2 0 0 1 2 2v16a2 2 0 0 1-2 2H84a2 2 0 0 1-2-2v-16z"/>
    <path fill="#6D8FE4" d="M104 219h17a2 2 0 0 1 2 2v19a2 2 0 0 1-2 2h-17v-23z"/>
    <path fill="#003E6B" d="M92.167 261.898h3.527v-.708h-1.396v-5.088h-.702c-.376.495-.877.716-1.596.742v.665c.56-.018 1.095-.086 1.563-.418v4.099h-1.396v.708zM96.71 261.898h3.902v-.708h-3.176c.034-.622.41-.997 1.454-1.474 1.262-.58 1.739-1.142 1.739-2.063 0-1.014-.652-1.653-1.889-1.653s-1.947.622-1.947 1.764v.196h.719v-.119c0-.776.426-1.159 1.22-1.159.785 0 1.161.383 1.161.988 0 .606-.35.989-1.353 1.458-1.33.622-1.83 1.261-1.83 2.335v.435zM101.912 258.693h.852v-.869h-.852v.869zm0 3.205h.852v-.87h-.852v.87zM106.018 262c1.27 0 1.955-.673 1.955-1.926v-2.148c0-1.253-.685-1.926-1.955-1.926-1.271 0-1.956.673-1.956 1.926v2.148c0 1.253.685 1.926 1.956 1.926zm0-.682c-.819 0-1.22-.426-1.22-1.295v-2.046c0-.869.401-1.295 1.22-1.295s1.22.426 1.22 1.295v2.046c0 .869-.401 1.295-1.22 1.295zM111.045 262c1.27 0 1.955-.673 1.955-1.926v-2.148c0-1.253-.685-1.926-1.955-1.926-1.271 0-1.956.673-1.956 1.926v2.148c0 1.253.685 1.926 1.956 1.926zm0-.682c-.819 0-1.22-.426-1.22-1.295v-2.046c0-.869.401-1.295 1.22-1.295s1.22.426 1.22 1.295v2.046c0 .869-.401 1.295-1.22 1.295zM47.167 261.898h3.527v-.708h-1.396v-5.088h-.702c-.376.495-.877.716-1.596.742v.665c.56-.018 1.095-.086 1.563-.418v4.099h-1.396v.708zM53.665 262c1.27 0 1.955-.673 1.955-1.926v-2.148c0-1.253-.685-1.926-1.955-1.926s-1.956.673-1.956 1.926v2.148c0 1.253.686 1.926 1.956 1.926zm0-.682c-.82 0-1.22-.426-1.22-1.295v-2.046c0-.869.4-1.295 1.22-1.295.819 0 1.22.426 1.22 1.295v2.046c0 .869-.401 1.295-1.22 1.295zM56.912 258.693h.852v-.869h-.852v.869zm0 3.205h.852v-.87h-.852v.87zM61.018 262c1.27 0 1.955-.673 1.955-1.926v-2.148c0-1.253-.685-1.926-1.955-1.926s-1.956.673-1.956 1.926v2.148c0 1.253.685 1.926 1.956 1.926zm0-.682c-.82 0-1.22-.426-1.22-1.295v-2.046c0-.869.4-1.295 1.22-1.295.819 0 1.22.426 1.22 1.295v2.046c0 .869-.401 1.295-1.22 1.295zM66.045 262c1.27 0 1.955-.673 1.955-1.926v-2.148c0-1.253-.685-1.926-1.955-1.926s-1.956.673-1.956 1.926v2.148c0 1.253.685 1.926 1.956 1.926zm0-.682c-.82 0-1.22-.426-1.22-1.295v-2.046c0-.869.4-1.295 1.22-1.295.819 0 1.22.426 1.22 1.295v2.046c0 .869-.401 1.295-1.22 1.295z"/>
    <path fill="#000" d="M85 252.923h.455v-1.531h.754l.82 1.531h.525l-.84-1.565c.501-.105.714-.443.714-1.087 0-.794-.324-1.121-1.108-1.121H85v3.773zm.455-1.986v-1.332h.825c.516 0 .692.183.692.666 0 .483-.176.666-.692.666h-.825zM89.181 252.99c.627 0 1.017-.311 1.052-.921h-.43c-.03.311-.237.499-.632.499-.465 0-.678-.255-.678-.816v-.127h1.76v-.416c0-.788-.389-1.216-1.102-1.216-.713 0-1.103.428-1.103 1.216v.566c0 .788.4 1.215 1.133 1.215zm-.688-1.77c0-.55.208-.805.668-.805.455 0 .662.255.662.805h-1.33zM90.95 252.923h.446v-1.848c.192-.443.41-.632.688-.632.273 0 .424.183.424.566v1.914h.446v-1.875c.192-.416.414-.605.687-.605.273 0 .425.183.425.566v1.914h.445v-1.953c0-.633-.288-.977-.809-.977-.334 0-.602.145-.82.5-.106-.328-.353-.5-.718-.5-.353 0-.612.161-.819.516l-.015-.449h-.38v2.863zM95.985 252.99c.379 0 .672-.161.885-.455l.015.388h.38v-1.87c0-.71-.335-1.06-1.022-1.06-.653 0-1.007.317-1.052.938h.435c.015-.349.232-.516.601-.516.405 0 .592.205.592.649v.156h-.627c-.733 0-1.077.322-1.077.893 0 .561.334.877.87.877zm.065-.422c-.328 0-.49-.166-.49-.466 0-.322.192-.477.647-.477h.612v.405c-.157.35-.42.538-.769.538zM98.028 249.544h.486V249h-.486v.544zm.02 3.379h.445v-2.863h-.445v2.863zM99.332 252.923h.446v-1.859c.187-.421.424-.621.733-.621.308 0 .46.194.46.644v1.836h.445v-1.881c0-.688-.273-1.049-.819-1.049-.364 0-.642.161-.87.516l-.015-.449h-.38v2.863zM102.197 249.544h.485V249h-.485v.544zm.02 3.379h.445v-2.863h-.445v2.863zM103.501 252.923h.445v-1.859c.187-.421.425-.621.734-.621.308 0 .46.194.46.644v1.836h.445v-1.881c0-.688-.273-1.049-.819-1.049-.365 0-.643.161-.87.516l-.015-.449h-.38v2.863zM107.372 254c.743 0 1.113-.377 1.113-1.138v-2.802h-.38l-.02.444c-.217-.35-.496-.511-.87-.511-.607 0-.961.411-.961 1.193v.45c0 .782.354 1.193.961 1.193.349 0 .612-.139.825-.438v.471c0 .5-.213.716-.678.716-.364 0-.612-.133-.637-.466h-.415c.035.588.399.888 1.062.888zm-.101-1.598c-.359 0-.572-.272-.572-.783v-.416c0-.51.213-.782.572-.782.329 0 .597.233.769.638v.705c-.172.405-.44.638-.769.638zM111.29 252.923h.456v-3.313h1.016v-.46h-2.488v.46h1.016v3.313zM113.261 249.544h.485V249h-.485v.544zm.02 3.379h.445v-2.863h-.445v2.863zM114.565 252.923h.445v-1.848c.192-.443.41-.632.688-.632.273 0 .425.183.425.566v1.914h.445v-1.875c.192-.416.415-.605.688-.605.273 0 .425.183.425.566v1.914h.445v-1.953c0-.633-.289-.977-.81-.977-.333 0-.601.145-.819.5-.106-.328-.354-.5-.718-.5-.354 0-.612.161-.819.516l-.016-.449h-.379v2.863zM119.928 252.99c.627 0 1.016-.311 1.052-.921h-.43c-.03.311-.238.499-.632.499-.466 0-.678-.255-.678-.816v-.127H121v-.416c0-.788-.389-1.216-1.103-1.216-.713 0-1.102.428-1.102 1.216v.566c0 .788.399 1.215 1.133 1.215zm-.688-1.77c0-.55.207-.805.668-.805.455 0 .662.255.662.805h-1.33zM49.221 253c.792 0 1.191-.367 1.191-1.107 0-.69-.309-1.001-1.126-1.118-.573-.084-.783-.262-.783-.64 0-.384.255-.595.718-.595.469 0 .693.211.693.651h.448c0-.74-.379-1.108-1.126-1.108-.763 0-1.176.379-1.176 1.102 0 .651.289.946 1.066 1.063.623.094.843.283.843.689 0 .401-.25.607-.743.607-.513 0-.777-.228-.777-.684H48c0 .762.414 1.14 1.221 1.14zM52.068 253c.618 0 1.002-.312 1.037-.924h-.424c-.03.312-.234.501-.623.501-.458 0-.668-.256-.668-.818v-.128h1.735v-.417c0-.79-.384-1.218-1.087-1.218-.702 0-1.086.428-1.086 1.218v.568c0 .79.394 1.218 1.116 1.218zm-.678-1.775c0-.55.205-.806.658-.806.449 0 .653.256.653.806h-1.31zM54.594 252.933h.4v-.423h-.295c-.294 0-.369-.094-.369-.467v-1.58h.633v-.4h-.633v-.757h-.393l-.035.757h-.454v.4h.444v1.575c0 .628.209.895.702.895zM57.433 252.933h.448v-3.321h1.002v-.462H56.43v.462h1.002v3.321zM59.374 249.545h.478V249h-.478v.545zm.02 3.388h.439v-2.87h-.44v2.87zM60.66 252.933h.438v-1.852c.19-.445.404-.635.678-.635.269 0 .418.184.418.568v1.919h.439v-1.88c.19-.417.408-.607.678-.607.269 0 .418.184.418.568v1.919h.439v-1.958c0-.634-.284-.979-.798-.979-.328 0-.593.144-.807.501-.105-.329-.349-.501-.708-.501-.348 0-.603.161-.807.517l-.015-.45h-.374v2.87zM65.944 253c.617 0 1.001-.312 1.036-.924h-.424c-.03.312-.234.501-.623.501-.458 0-.667-.256-.667-.818v-.128H67v-.417c0-.79-.384-1.218-1.086-1.218-.703 0-1.087.428-1.087 1.218v.568c0 .79.394 1.218 1.117 1.218zm-.678-1.775c0-.55.204-.806.657-.806.45 0 .653.256.653.806h-1.31z"/>
    <path fill="#fff" d="M45 236h6.752v-1.328H49.08v-9.552h-1.344c-.72.928-1.68 1.344-3.056 1.392v1.248c1.072-.032 2.096-.16 2.992-.784v7.696H45V236zM57.49 236.192c2.463 0 3.823-1.04 3.823-3.168 0-1.376-.56-2.256-1.744-2.656v-.032c.976-.416 1.472-1.232 1.472-2.416 0-1.92-1.296-2.992-3.536-2.992-2.336 0-3.68 1.152-3.68 3.152v.24h1.36v-.144c0-1.264.8-1.968 2.272-1.968 1.408 0 2.192.64 2.192 1.84 0 1.168-.752 1.76-2.176 1.76h-1.216v1.28h1.2c1.68 0 2.448.64 2.448 1.888 0 1.328-.864 1.936-2.416 1.936-1.632 0-2.448-.672-2.448-1.984v-.208h-1.376v.4c0 2 1.328 3.072 3.824 3.072zM63.514 238.144c1.184-.032 1.776-.8 1.776-2.224v-1.552h-1.632V236h.64v.272c0 .608-.336.96-.784.976v.896zM71.535 236.192c2.496 0 3.904-1.216 3.904-3.68 0-2.336-1.28-3.616-3.488-3.616-.976 0-1.776.256-2.416.768l.208-3.216h5.2v-1.328H68.48l-.368 5.888h1.296c.64-.56 1.344-.832 2.224-.832 1.536 0 2.4.816 2.4 2.368 0 1.584-.896 2.368-2.512 2.368-1.456 0-2.336-.64-2.384-1.728H67.76c.032 1.872 1.36 3.008 3.776 3.008zM81.144 236.192c2.432 0 3.744-1.264 3.744-3.616v-4.032c0-2.352-1.312-3.616-3.744-3.616-2.432 0-3.744 1.264-3.744 3.616v4.032c0 2.352 1.312 3.616 3.744 3.616zm0-1.28c-1.568 0-2.336-.8-2.336-2.432v-3.84c0-1.632.768-2.432 2.336-2.432 1.568 0 2.336.8 2.336 2.432v3.84c0 1.632-.768 2.432-2.336 2.432zM90.77 236.192c2.431 0 3.743-1.264 3.743-3.616v-4.032c0-2.352-1.312-3.616-3.744-3.616-2.432 0-3.744 1.264-3.744 3.616v4.032c0 2.352 1.312 3.616 3.744 3.616zm0-1.28c-1.569 0-2.337-.8-2.337-2.432v-3.84c0-1.632.768-2.432 2.336-2.432 1.568 0 2.336.8 2.336 2.432v3.84c0 1.632-.768 2.432-2.336 2.432z"/>
    <path fill="#B2E6F7" fill-rule="evenodd" d="M111.114 228.124c0 1.22.61 2.294 1.57 2.677l-.185.464c-1.2-.478-1.885-1.775-1.885-3.141v-.323h.5v.323z" clip-rule="evenodd"/>
    <path fill="#B2E6F7" d="M111.512 228.34l-.432-1.616-1.08 1.185 1.512.431z"/>
    <path fill="#B2E6F7" fill-rule="evenodd" d="M114.738 230.814c.9-.499 1.599-1.497 1.599-2.69h.5c0 1.393-.814 2.55-1.857 3.128l-.242-.438z" clip-rule="evenodd"/>
    <path fill="#B2E6F7" d="M114.859 230.064l-1.188 1.185 1.62.538-.432-1.723z"/>
    <path fill="#B2E6F7" fill-rule="evenodd" d="M113.671 225.25c-.568 0-1.161.286-1.679.699l-.312-.39c.562-.449 1.264-.809 1.991-.809.704 0 1.407.234 1.992.701l-.312.391a2.686 2.686 0 0 0-1.68-.592z" clip-rule="evenodd"/>
    <path fill="#B2E6F7" d="M114.643 226.185l1.62.539-.324-1.724-1.296 1.185z"/>
    <path fill="#227B9D" d="M37 271a1 1 0 0 1 1-1h84a1 1 0 0 1 1 1v14a1 1 0 0 1-1 1H38a1 1 0 0 1-1-1v-14z"/>
    <mask id="a" width="12" height="12" x="42" y="272" maskUnits="userSpaceOnUse">
        <path fill="#80CCE8" d="M42 273a1 1 0 0 1 1-1h10a1 1 0 0 1 1 1v10a1 1 0 0 1-1 1H43a1 1 0 0 1-1-1v-10z"/>
    </mask>
    <g mask="url(#a)">
        <path fill="#80CCE8" d="M42 273a1 1 0 0 1 1-1h10a1 1 0 0 1 1 1v10a1 1 0 0 1-1 1H43a1 1 0 0 1-1-1v-10z"/>
        <path fill="#A9E1F5" d="M42 272.5a.5.5 0 0 1 1 0v11a.5.5 0 0 1-1 0v-11z"/>
        <path fill="#68B1CC" d="M43 283h10.5a.5.5 0 0 1 0 1H42l1-1z"/>
        <path fill="#68B1CC" d="M53.5 284a.5.5 0 0 1-.5-.5v-11a.5.5 0 0 1 1 0v11a.5.5 0 0 1-.5.5z"/>
        <path fill="#A9E1F5" d="M42 272.5a.5.5 0 0 1 .5-.5H54l-1 1H42.5a.5.5 0 0 1-.5-.5z"/>
    </g>
    <mask id="b" width="12" height="12" x="58" y="272" maskUnits="userSpaceOnUse">
        <path fill="#80CCE8" d="M58 273a1 1 0 0 1 1-1h10a1 1 0 0 1 1 1v10a1 1 0 0 1-1 1H59a1 1 0 0 1-1-1v-10z"/>
    </mask>
    <g mask="url(#b)">
        <path fill="#80CCE8" d="M58 273a1 1 0 0 1 1-1h10a1 1 0 0 1 1 1v10a1 1 0 0 1-1 1H59a1 1 0 0 1-1-1v-10z"/>
        <path fill="#A9E1F5" d="M58 272.5a.5.5 0 0 1 1 0v11a.5.5 0 0 1-1 0v-11z"/>
        <path fill="#68B1CC" d="M59 283h10.5a.5.5 0 0 1 0 1H58l1-1z"/>
        <path fill="#68B1CC" d="M69.5 284a.5.5 0 0 1-.5-.5v-11a.5.5 0 0 1 1 0v11a.5.5 0 0 1-.5.5z"/>
        <path fill="#A9E1F5" d="M58 272.5a.5.5 0 0 1 .5-.5H70l-1 1H58.5a.5.5 0 0 1-.5-.5z"/>
    </g>
    <mask id="c" width="12" height="12" x="74" y="272" maskUnits="userSpaceOnUse">
        <path fill="#80CCE8" d="M74 273a1 1 0 0 1 1-1h10a1 1 0 0 1 1 1v10a1 1 0 0 1-1 1H75a1 1 0 0 1-1-1v-10z"/>
    </mask>
    <g mask="url(#c)">
        <path fill="#80CCE8" d="M74 273a1 1 0 0 1 1-1h10a1 1 0 0 1 1 1v10a1 1 0 0 1-1 1H75a1 1 0 0 1-1-1v-10z"/>
        <path fill="#A9E1F5" d="M74 272.5a.5.5 0 0 1 1 0v11a.5.5 0 0 1-1 0v-11z"/>
        <path fill="#68B1CC" d="M75 283h10.5a.5.5 0 0 1 0 1H74l1-1z"/>
        <path fill="#68B1CC" d="M85.5 284a.5.5 0 0 1-.5-.5v-11a.5.5 0 0 1 1 0v11a.5.5 0 0 1-.5.5z"/>
        <path fill="#A9E1F5" d="M74 272.5a.5.5 0 0 1 .5-.5H86l-1 1H74.5a.5.5 0 0 1-.5-.5z"/>
    </g>
    <mask id="d" width="12" height="12" x="90" y="272" maskUnits="userSpaceOnUse">
        <path fill="#80CCE8" d="M90 273a1 1 0 0 1 1-1h10a1 1 0 0 1 1 1v10a1 1 0 0 1-1 1H91a1 1 0 0 1-1-1v-10z"/>
    </mask>
    <g mask="url(#d)">
        <path fill="#80CCE8" d="M90 273a1 1 0 0 1 1-1h10a1 1 0 0 1 1 1v10a1 1 0 0 1-1 1H91a1 1 0 0 1-1-1v-10z"/>
        <path fill="#A9E1F5" d="M90 272.5a.5.5 0 0 1 1 0v11a.5.5 0 0 1-1 0v-11z"/>
        <path fill="#68B1CC" d="M91 283h10.5a.5.5 0 0 1 0 1H90l1-1z"/>
        <path fill="#68B1CC" d="M101.5 284a.5.5 0 0 1-.5-.5v-11a.5.5 0 0 1 1 0v11a.5.5 0 0 1-.5.5z"/>
        <path fill="#A9E1F5" d="M90 272.5a.5.5 0 0 1 .5-.5H102l-1 1H90.5a.5.5 0 0 1-.5-.5z"/>
    </g>
    <mask id="e" width="12" height="12" x="106" y="272" maskUnits="userSpaceOnUse">
        <path fill="#80CCE8" d="M106 273a1 1 0 0 1 1-1h10a1 1 0 0 1 1 1v10a1 1 0 0 1-1 1h-10a1 1 0 0 1-1-1v-10z"/>
    </mask>
    <g mask="url(#e)">
        <path fill="#FAAC48" d="M106 273a1 1 0 0 1 1-1h10a1 1 0 0 1 1 1v10a1 1 0 0 1-1 1h-10a1 1 0 0 1-1-1v-10z"/>
        <path fill="#FFD5A0" d="M106 272.5a.5.5 0 0 1 1 0v11a.5.5 0 0 1-1 0v-11z"/>
        <path fill="#DD871A" d="M107 283h10.5a.5.5 0 0 1 0 1H106l1-1z"/>
        <path fill="#DD871A" d="M117.5 284a.5.5 0 0 1-.5-.5v-11a.5.5 0 0 1 1 0v11a.5.5 0 0 1-.5.5z"/>
        <path fill="#FFD5A0" d="M106 272.5a.5.5 0 0 1 .5-.5H118l-1 1h-10.5a.5.5 0 0 1-.5-.5z"/>
    </g>
    <path fill="#333" fill-rule="evenodd" d="M60 278.828L64.052 275v2.172L60 281v-2.172zm8 0L64.052 275v2.172L68 281v-2.172zM84 277.172L79.948 281v-2.172L84 275v2.172zm-8 0L79.948 281v-2.172L76 275v2.172z" clip-rule="evenodd"/>
    <path fill="#333" d="M115 278l-5 3v-6l5 3z"/>
    <path fill="#000" d="M44 279.088h.428v-1.548l.51 1.548h.305l.51-1.548v1.548h.453v-2.052h-.67l-.434 1.34-.438-1.34H44v2.052zM47.416 279.125c.567 0 .83-.263.83-.836v-.453c0-.573-.263-.836-.83-.836s-.83.263-.83.836v.453c0 .573.263.836.83.836zm0-.39c-.272 0-.377-.129-.377-.452v-.441c0-.323.105-.453.377-.453s.377.13.377.453v.441c0 .323-.105.452-.377.452zM48.627 279.088h.764c.552 0 .796-.25.796-.808v-.435c0-.555-.244-.809-.796-.809h-.764v2.052zm.453-.386v-1.279h.247c.305 0 .408.111.408.431v.417c0 .319-.103.431-.408.431h-.247zM50.563 279.088H52v-.389h-.984v-.462h.803v-.386h-.803v-.425h.954v-.39h-1.407v2.052z"/>
    <path fill="#333" d="M93.184 276.957h.7v-1.383c.067-.346.242-.483.606-.483h.133v-.653h-.185c-.34 0-.535.156-.63.506l-.028-.459h-.596v2.472zM95.958 277.013c.691 0 1.046-.326 1.056-.999h-.668c-.01.284-.113.431-.379.431-.265 0-.388-.147-.388-.483v-.478c0-.341.123-.488.389-.488.265 0 .364.147.378.431h.668c-.01-.672-.365-.999-1.056-.999-.715 0-1.08.355-1.08 1.051v.483c0 .696.365 1.051 1.08 1.051zM97.602 276.957h.701v-1.942h.535v-.53h-.535v-.147c0-.218.071-.298.26-.298h.294v-.54h-.53c-.488 0-.725.26-.725.805v.18h-.379v.53h.38v1.942zM92 281.028h.7v-1.382c.067-.346.242-.483.607-.483h.132v-.654h-.184c-.341 0-.535.157-.63.507l-.028-.459H92v2.471zM93.785 281.89h.7v-1.06c.166.175.375.255.64.255.563 0 .88-.35.88-1.018v-.554c0-.667-.317-1.013-.88-1.013-.313 0-.54.109-.725.355l-.019-.298h-.596v3.333zm1.179-1.373c-.223 0-.379-.128-.478-.379v-.696c.1-.246.255-.374.473-.374.227 0 .346.133.346.45v.549c0 .322-.119.45-.341.45zM96.527 281.028h.7v-1.586c.11-.236.247-.336.413-.336.17 0 .27.1.27.317v1.605h.7v-1.586c.114-.236.246-.336.417-.336.17 0 .265.1.265.317v1.605h.7v-1.68c0-.554-.278-.848-.78-.848a.819.819 0 0 0-.706.35c-.123-.232-.346-.35-.663-.35a.792.792 0 0 0-.7.36l-.02-.303h-.596v2.471zM92 277.5h7.99v.5H92z"/>
    <path fill="#B2E6F7" d="M108 239h.911v-1.476h.492l.82 1.476h1.038l-.893-1.559c.516-.147.735-.523.735-1.176 0-.894-.401-1.265-1.415-1.265H108v4zm.911-2.229v-1.018h.68c.443 0 .601.147.601.512 0 .359-.158.506-.601.506h-.68zM111.843 239h.911v-1.4h.722c1.045 0 1.488-.382 1.488-1.294 0-.918-.443-1.306-1.488-1.306h-1.633v4zm.911-2.153v-1.094h.643c.462 0 .656.165.656.547s-.194.547-.656.547h-.643zM115.561 239h.862v-3.018L117.45 239h.613l1.026-3.018V239H120v-4h-1.348l-.875 2.612-.88-2.612h-1.336v4z"/>
    <path fill="#848484" d="M89.12 155.7c-.3.9-1 1.6-2 2.3-1.8 1.2-4.6 2.1-7.5 2.1-2.8 0-5.6-.8-7.5-2.1-1-.7-1.7-1.4-2-2.3-.9-2.5 3.4-4.7 9.5-4.7 6.2 0 10.4 2.2 9.5 4.7z" opacity=".7"/>
    <path fill="#353535" d="M87.219 158c-1.8 1.2-4.6 2.1-7.5 2.1-2.8 0-5.6-.8-7.5-2.1 1.7-.9 4.4-1.5 7.5-1.5 3.1 0 5.7.6 7.5 1.5z" opacity=".7"/>
    <path fill="#848484" d="M44.12 164.7c-.3.9-1 1.6-2 2.3-1.8 1.2-4.6 2.1-7.5 2.1-2.8 0-5.6-.8-7.5-2.1-1-.7-1.7-1.4-2-2.3-.9-2.5 3.4-4.7 9.5-4.7 6.2 0 10.4 2.2 9.5 4.7z" opacity=".7"/>
    <path fill="#353535" d="M42.219 167c-1.8 1.2-4.6 2.1-7.5 2.1-2.8 0-5.6-.8-7.5-2.1 1.7-.9 4.4-1.5 7.5-1.5 3.1 0 5.7.6 7.5 1.5z" opacity=".7"/>
    <path fill="#848484" d="M65.12 158.7c-.3.9-1 1.6-2 2.3-1.8 1.2-4.6 2.1-7.5 2.1-2.8 0-5.6-.8-7.5-2.1-1-.7-1.7-1.4-2-2.3-.9-2.5 3.4-4.7 9.5-4.7 6.2 0 10.4 2.2 9.5 4.7z" opacity=".7"/>
    <path fill="#353535" d="M63.219 161c-1.8 1.2-4.6 2.1-7.5 2.1-2.8 0-5.6-.8-7.5-2.1 1.7-.9 4.4-1.5 7.5-1.5 3.1 0 5.7.6 7.5 1.5z" opacity=".7"/>
    <path fill="#848484" d="M115.119 158.7c-.3.9-1 1.6-2 2.3-1.8 1.2-4.6 2.1-7.5 2.1-2.8 0-5.6-.8-7.5-2.1-1-.7-1.7-1.4-2-2.3-.9-2.5 3.4-4.7 9.5-4.7 6.2 0 10.4 2.2 9.5 4.7z" opacity=".7"/>
    <path fill="#353535" d="M113.219 161c-1.8 1.2-4.6 2.1-7.5 2.1-2.8 0-5.6-.8-7.5-2.1 1.7-.9 4.4-1.5 7.5-1.5 3.1 0 5.7.6 7.5 1.5z" opacity=".7"/>
    <path fill="#848484" d="M137.119 163.7c-.3.9-1 1.6-2 2.3-1.8 1.2-4.6 2.1-7.5 2.1-2.8 0-5.6-.8-7.5-2.1-1-.7-1.7-1.4-2-2.3-.9-2.5 3.4-4.7 9.5-4.7 6.2 0 10.4 2.2 9.5 4.7z" opacity=".7"/>
    <path fill="#353535" d="M135.219 166c-1.8 1.2-4.6 2.1-7.5 2.1-2.8 0-5.6-.8-7.5-2.1 1.7-.9 4.4-1.5 7.5-1.5 3.1 0 5.7.6 7.5 1.5z" opacity=".7"/>
    <path fill="#D0D2D3" d="M89 154.4v-5.8c.6-2.4-3.5-4.6-9.5-4.6s-10.1 2.1-9.5 4.6h-.1v6.5c0 .2 0 .4.1.5.9 2.5 5.1 4.4 9.5 4.4s8.6-1.9 9.5-4.4c.1-.4.1-.8 0-1.2z" opacity=".8"/>
    <path fill="#D0D2D3" d="M89.1 147.3h-.2c-.9-1.8-4.5-3.2-9.4-3.2s-8.5 1.4-9.4 3.2h-.4c-.9 0-1.7.5-1.7 1.1 0 .6.7 1.1 1.7 1.1.2 0 .5 0 .7-.1 1.3 2.2 5.2 3.7 9.2 3.7 3.9 0 7.8-1.5 9.1-3.7.2 0 .3.1.5.1.9 0 1.7-.5 1.7-1.1-.1-.6-.9-1.1-1.8-1.1z" opacity=".7"/>
    <path fill="#D0D2D3" d="M65 157.4v-5.8c.6-2.4-3.5-4.6-9.5-4.6s-10.1 2.1-9.5 4.6h-.1v6.5c0 .2 0 .4.1.5.9 2.5 5.1 4.4 9.5 4.4s8.6-1.9 9.5-4.4c.1-.4.1-.8 0-1.2z" opacity=".8"/>
    <path fill="#D0D2D3" d="M65.1 150.3h-.2c-.9-1.8-4.5-3.2-9.4-3.2s-8.5 1.4-9.4 3.2h-.4c-.9 0-1.7.5-1.7 1.1 0 .6.7 1.1 1.7 1.1.2 0 .5 0 .7-.1 1.3 2.2 5.2 3.7 9.2 3.7 3.9 0 7.8-1.5 9.1-3.7.2 0 .3.1.5.1.9 0 1.7-.5 1.7-1.1-.1-.6-.9-1.1-1.8-1.1z" opacity=".7"/>
    <path fill="#D0D2D3" d="M44 163.4v-5.8c.6-2.4-3.5-4.6-9.5-4.6s-10.1 2.1-9.5 4.6h-.1v6.5c0 .2 0 .4.1.5.9 2.5 5.1 4.4 9.5 4.4s8.6-1.9 9.5-4.4c.1-.4.1-.8 0-1.2z" opacity=".8"/>
    <path fill="#D0D2D3" d="M44.1 156.3h-.2c-.9-1.8-4.5-3.2-9.4-3.2s-8.5 1.4-9.4 3.2h-.4c-.9 0-1.7.5-1.7 1.1 0 .6.7 1.1 1.7 1.1.2 0 .5 0 .7-.1 1.3 2.2 5.2 3.7 9.2 3.7 3.9 0 7.8-1.5 9.1-3.7.2 0 .3.1.5.1.9 0 1.7-.5 1.7-1.1-.1-.6-.9-1.1-1.8-1.1z" opacity=".7"/>
    <path fill="#D0D2D3" d="M115 157.4v-5.8c.6-2.4-3.5-4.6-9.5-4.6s-10.1 2.1-9.5 4.6h-.1v6.5c0 .2 0 .4.1.5.9 2.5 5.1 4.4 9.5 4.4s8.6-1.9 9.5-4.4c.1-.4.1-.8 0-1.2z" opacity=".8"/>
    <path fill="#D0D2D3" d="M115.1 150.3h-.2c-.9-1.8-4.5-3.2-9.4-3.2s-8.5 1.4-9.4 3.2h-.4c-.9 0-1.7.5-1.7 1.1 0 .6.7 1.1 1.7 1.1.2 0 .5 0 .7-.1 1.3 2.2 5.2 3.7 9.2 3.7 3.9 0 7.8-1.5 9.1-3.7.2 0 .3.1.5.1.9 0 1.7-.5 1.7-1.1-.1-.6-.9-1.1-1.8-1.1z" opacity=".7"/>
    <path fill="#D0D2D3" d="M137 162.4v-5.8c.6-2.4-3.5-4.6-9.5-4.6s-10.1 2.1-9.5 4.6h-.1v6.5c0 .2 0 .4.1.5.9 2.5 5.1 4.4 9.5 4.4s8.6-1.9 9.5-4.4c.1-.4.1-.8 0-1.2z" opacity=".8"/>
    <path fill="#D0D2D3" d="M137.1 155.3h-.2c-.9-1.8-4.5-3.2-9.4-3.2s-8.5 1.4-9.4 3.2h-.4c-.9 0-1.7.5-1.7 1.1 0 .6.7 1.1 1.7 1.1.2 0 .5 0 .7-.1 1.3 2.2 5.2 3.7 9.2 3.7 3.9 0 7.8-1.5 9.1-3.7.2 0 .3.1.5.1.9 0 1.7-.5 1.7-1.1-.1-.6-.9-1.1-1.8-1.1z" opacity=".7"/>
    <path fill="#E4E4E4" d="M80 31.644c-44.175 0-80 20.713-80 46.306 0 25.592 35.825 46.306 80 46.306s80-20.714 80-46.306c0-25.593-35.825-46.306-80-46.306zm0 60.942c-13.98 0-25.34-6.59-25.34-14.636S66.02 63.313 80 63.313s25.34 6.591 25.34 14.637S93.98 92.586 80 92.586z"/>
    <path fill="#8A8A8A" d="M80 34.554c-41.36 0-74.951 19.43-74.951 43.31 0 23.881 33.495 43.311 74.951 43.311 41.359 0 74.952-19.43 74.952-43.31 0-23.881-33.593-43.31-74.952-43.31zm0 59.488c-15.34 0-27.864-7.19-27.864-16.092 0-8.902 12.427-16.092 27.864-16.092 15.34 0 27.864 7.19 27.864 16.092 0 8.902-12.524 16.092-27.864 16.092z"/>
    <path fill="#D0D0D0" d="M105.34 77.864c0 3.938-2.719 7.533-7.185 10.186-3.883 2.397-9.223 3.937-15.145 4.365-.971.086-2.04.086-3.01.086-13.98 0-25.34-6.59-25.34-14.637 0-.856.194-1.711.388-2.567C57.088 82.144 67.475 87.45 80 87.45h1.844c5.243-.257 10-1.37 13.884-3.167 4.757-2.14 8.058-5.307 9.126-8.902.291.856.486 1.626.486 2.482z"/>
    <path fill="#fff" d="M98.155 88.05c-3.883 2.397-9.223 3.937-15.145 4.365l-1.166-4.964c5.243-.257 10-1.37 13.884-3.167l2.427 3.766z" opacity=".3"/>
    <path fill="#9E9E9E" d="M125.825 112.187l-20-28.331C101.748 89.848 91.747 94.042 80 94.042c-2.039 0-3.98-.172-5.922-.343l6.31 27.647c17.088-.171 32.816-3.509 45.437-9.159z"/>
    <path fill="#8A8A8A" d="M105.34 24.026a101.994 101.994 0 0 0-24.37-3.167c-11.165-.086-20.29 1.626-26.31 3.167v11.213c6.116-1.455 15.049-2.91 25.728-2.91 10.291 0 18.835 1.455 24.854 2.91.098-3.766.098-7.447.098-11.213z"/>
    <path fill="#EEE" fill-rule="evenodd" d="M54.39 23.204c6.085-1.558 15.308-3.287 26.59-3.2a103.092 103.092 0 0 1 24.629 3.2l.702.178v.644c0 3.765 0 7.455-.098 11.232l-.028 1.096-1.199-.29c-5.954-1.439-14.41-2.88-24.598-2.88-10.581 0-19.428 1.443-25.475 2.881l-1.224.291V23.383l.7-.179zm1.241 1.468v9.458c6.125-1.371 14.67-2.657 24.757-2.657 9.728 0 17.912 1.287 23.909 2.658.067-3.164.072-6.28.072-9.458a100.82 100.82 0 0 0-23.407-2.958c-10.624-.081-19.381 1.482-25.331 2.957z" clip-rule="evenodd"/>
</svg>
