<svg xmlns="http://www.w3.org/2000/svg" width="327" height="417" fill="none" viewBox="0 0 327 417">
    <path fill="#8AADC6" d="M4 45h286v321a5 5 0 0 1-5 5H9a5 5 0 0 1-5-5V45z"/>
    <path fill="#9ABBD3" d="M18 57h24v320H18zM251 57h24v320h-24z"/>
    <path fill="#DFDFDF" d="M42 195h209l24 13H18l24-13z"/>
    <path fill="#fff" d="M15 208h260v11H15v-11z"/>
    <path fill="#E9E9E9" fill-rule="evenodd" d="M290 45H4v363a3 3 0 0 0 3 3h280a3 3 0 0 0 3-3V45zM21 61.84a3 3 0 0 0-3 3v327.442a3 3 0 0 0 3 3h251a3 3 0 0 0 3-3V64.841a3 3 0 0 0-3-3H21z" clip-rule="evenodd"/>
    <path fill="#E9E9E9" fill-rule="evenodd" d="M290 45H4v315h286V45zm-15 12H18v289h257V57z" clip-rule="evenodd"/>
    <path fill="#D4D4D4" fill-rule="evenodd" d="M290 45h-29v16.84h9a5 5 0 0 1 5 5v323.442a5 5 0 0 1-5 5h-9V411h26a3 3 0 0 0 3-3V45z" clip-rule="evenodd"/>
    <path fill="#38B0DC" d="M0 3a3 3 0 0 1 3-3h289a3 3 0 0 1 3 3v42H0V3z"/>
    <path fill="#54BCE3" d="M0 3a3 3 0 0 1 3-3h114.927c2.649 0 3.998 3.181 2.157 5.085L81.5 45H0V3z"/>
    <path fill="#15A5DA" d="M261 3a3 3 0 0 1 3-3h28a3 3 0 0 1 3 3v42h-34V3z"/>
    <path fill="#C4C4C4" d="M12 411h19v6H12zM263 411h19v6h-19z"/>
    <path fill="#54BCE3" d="M150.5 401H12v-45h226l-87.5 45z"/>
    <path fill="#38B0DC" d="M138 356h144v45H99.5l38.5-45z"/>
    <mask id="a" width="67" height="35" x="221" y="5" maskUnits="userSpaceOnUse">
        <rect width="65.182" height="34.143" x="221.818" y="5.857" fill="#C4C4C4" rx="1"/>
    </mask>
    <g mask="url(#a)">
        <path fill="#4873E2" d="M287 5.857h-65.182V40H287V5.857z"/>
        <path fill="#254FBB" d="M221.818 5.857H287v1.366h-65.182z"/>
        <path fill="#254FBB" d="M221.818 40V5.857h1.105v32.777L221.818 40z"/>
        <path fill="#fff" d="M292.5 7.223L254.842 40h5.041l36.429-32.777H292.5zM262.065 7.223L223.081 40h25.15l39.243-32.777h-25.409z" opacity=".2"/>
    </g>
    <path fill="#868CA6" d="M203.041 187.581c-.889 0-2.246-.327-2.994-.56-.749-.232-1.357-2.935-1.357-2.935-1.964-7.64-4.624-18.882-4.684-25.659-.012-1.343 0-27.427 0-27.427H212.057v27.427c0 7-3.122 18.019-5.087 25.659 0 0-.608 2.703-1.356 2.935-.749.233-2.105.56-2.994.56"/>
    <path fill="#C0C3D2" d="M202.986 186.641c-.795 0-2.011-.279-2.666-.512-.655-.187-1.216-2.656-1.216-2.656-1.778-6.848-3.581-16.944-4.095-22.954v-28.092h16.045s.281 24.924 0 28.092c-.514 6.01-2.735 16.059-4.513 22.908 0 0-.561 2.422-1.216 2.655-.655.187-1.871.513-2.666.513" opacity=".7"/>
    <path fill="#868CA6" d="M192 131h23.066v2H192z"/>
    <path fill="#fff" d="M194.006 139.427h18.052v16h-18.052z"/>
    <path fill="#000" fill-opacity=".1" d="M207.043 133h5.014v26.509c0 2.946-2.005 12.273-2.005 12.273s-3.793 14.512-4.012 14.727c-.219.215-3.009.491-3.009.491l4.012-27.491V133z"/>
    <path fill="#868CA6" d="M189.994 128h26.074v2h-26.074z"/>
    <path fill="#577898" d="M195.009 130h16.046v1h-16.046z"/>
    <path fill="#868CA6" fill-rule="evenodd" d="M218.749 129.123c.251.422.328.903.328 1.377s-.077.955-.328 1.377c-.265.446-.658.716-1.075.872-.39.146-.821.2-1.23.226-.407.025-.872.025-1.356.025h-.022v-2c.511 0 .915 0 1.253-.021.344-.022.54-.061.651-.103.024-.009.04-.017.05-.022l.007-.004.004-.009a.427.427 0 0 0 .016-.059c.013-.058.024-.148.024-.282 0-.134-.011-.224-.024-.282a.427.427 0 0 0-.016-.059l-.004-.009-.007-.004c-.01-.005-.026-.013-.05-.022-.111-.042-.307-.081-.651-.103-.338-.021-.742-.021-1.253-.021v-2h.022c.484 0 .949 0 1.356.025.409.026.84.08 1.23.226.417.156.81.426 1.075.872z" clip-rule="evenodd"/>
    <path fill="#333" d="M197.155 152h1.332v-2.744l1.82-1.918 2.99 4.662h1.553l-3.625-5.628 3.581-3.892h-1.643l-4.676 5.054v-5.054h-1.332V152z"/>
    <path fill="#333" d="M206.621 150.258h1.154v-2.052h2.049v-1.064h-2.049v-2.052h-1.154v2.052h-2.049v1.064h2.049v2.052z"/>
    <path fill="#868CA6" d="M86.04 187.581c-.888 0-2.245-.327-2.993-.56-.748-.232-1.357-2.935-1.357-2.935-1.964-7.64-4.624-18.882-4.684-25.659-.012-1.343 0-27.427 0-27.427H95.057v27.427c0 7-3.122 18.019-5.087 25.659 0 0-.608 2.703-1.356 2.935-.749.233-2.105.56-2.994.56"/>
    <path fill="#C0C3D2" d="M85.986 186.641c-.795 0-2.011-.279-2.666-.512-.655-.187-1.216-2.656-1.216-2.656-1.778-6.848-3.58-16.944-4.096-22.954v-28.092h16.046s.281 24.924 0 28.092c-.514 6.01-2.735 16.059-4.513 22.908 0 0-.56 2.422-1.216 2.655-.655.187-1.871.513-2.666.513" opacity=".7"/>
    <path fill="#868CA6" d="M75 131h23.066v2H75z"/>
    <path fill="#fff" d="M77.006 139.427h18.052v16H77.006z"/>
    <path fill="#000" fill-opacity=".1" d="M90.043 133h5.014v26.509c0 2.946-2.005 12.273-2.005 12.273s-3.793 14.512-4.012 14.727c-.22.215-3.009.491-3.009.491l4.012-27.491V133z"/>
    <path fill="#868CA6" d="M72.994 128h26.074v2H72.994z"/>
    <path fill="#577898" d="M78.008 130h16.046v1H78.008z"/>
    <path fill="#868CA6" fill-rule="evenodd" d="M101.749 129.123c.251.422.328.903.328 1.377s-.077.955-.328 1.377c-.265.446-.658.716-1.075.872-.39.146-.822.2-1.23.226-.407.025-.872.025-1.356.025h-.022v-2c.51 0 .915 0 1.253-.021.344-.022.54-.061.651-.103.024-.009.04-.017.05-.022l.007-.004.004-.009a.427.427 0 0 0 .016-.059c.013-.058.024-.148.024-.282 0-.134-.011-.224-.024-.282a.427.427 0 0 0-.016-.059l-.004-.009-.007-.004c-.01-.005-.026-.013-.05-.022-.11-.042-.306-.081-.65-.103-.339-.021-.743-.021-1.254-.021v-2h.022c.484 0 .949 0 1.357.025.408.026.839.08 1.229.226.417.156.81.426 1.075.872z" clip-rule="evenodd"/>
    <path fill="#333" d="M80.155 152h1.332v-2.744l1.82-1.918 2.99 4.662h1.553l-3.625-5.628 3.581-3.892h-1.643l-4.676 5.054v-5.054h-1.332V152z"/>
    <path fill="#333" d="M90.79 148.206h2.034v-1.064h-5.252v1.064h3.218z"/>
    <path fill="#868CA6" d="M118.041 187.581c-.889 0-2.246-.327-2.994-.56-.749-.232-1.357-2.935-1.357-2.935-1.964-7.64-4.624-18.882-4.684-25.659-.012-1.343 0-27.427 0-27.427H127.057v27.427c0 7-3.122 18.019-5.087 25.659 0 0-.608 2.703-1.356 2.935-.749.233-2.105.56-2.994.56"/>
    <path fill="#C0C3D2" d="M117.986 186.641c-.795 0-2.011-.279-2.666-.512-.655-.187-1.216-2.656-1.216-2.656-1.778-6.848-3.581-16.944-4.095-22.954v-28.092h16.045s.281 24.924 0 28.092c-.514 6.01-2.735 16.059-4.513 22.908 0 0-.561 2.422-1.216 2.655-.655.187-1.871.513-2.666.513" opacity=".7"/>
    <path fill="#868CA6" d="M107 131h23.066v2H107z"/>
    <path fill="#fff" d="M109.006 139.427h18.052v16h-18.052z"/>
    <path fill="#000" fill-opacity=".1" d="M122.043 133h5.014v26.509c0 2.946-2.005 12.273-2.005 12.273s-3.793 14.512-4.012 14.727c-.219.215-3.009.491-3.009.491l4.012-27.491V133z"/>
    <path fill="#868CA6" d="M104.994 128h26.074v2h-26.074z"/>
    <path fill="#577898" d="M110.009 130h16.046v1h-16.046z"/>
    <path fill="#868CA6" fill-rule="evenodd" d="M133.749 129.123c.251.422.328.903.328 1.377s-.077.955-.328 1.377c-.265.446-.658.716-1.075.872-.39.146-.821.2-1.23.226-.407.025-.872.025-1.356.025h-.022v-2c.511 0 .915 0 1.253-.021.344-.022.54-.061.651-.103.024-.009.04-.017.05-.022l.007-.004.004-.009a.427.427 0 0 0 .016-.059c.013-.058.024-.148.024-.282 0-.134-.011-.224-.024-.282a.427.427 0 0 0-.016-.059l-.004-.009-.007-.004c-.01-.005-.026-.013-.05-.022-.111-.042-.307-.081-.651-.103-.338-.021-.742-.021-1.253-.021v-2h.022c.484 0 .949 0 1.356.025.409.026.84.08 1.23.226.417.156.81.426 1.075.872z" clip-rule="evenodd"/>
    <path fill="#000" d="M111.171 151.52h1.376l.918-2.436h4.055l.917 2.436h1.421l-3.67-9.52h-1.347l-3.67 9.52zm2.723-3.584l1.598-4.326 1.599 4.326h-3.197zM122.136 149.778h1.154v-2.052h2.049v-1.064h-2.049v-2.052h-1.154v2.052h-2.049v1.064h2.049v2.052z"/>
    <path fill="#868CA6" d="M169.041 187.581c-.889 0-2.246-.327-2.994-.56-.749-.232-1.357-2.935-1.357-2.935-1.964-7.64-4.624-18.882-4.684-25.659-.012-1.343 0-27.427 0-27.427H178.057v27.427c0 7-3.122 18.019-5.087 25.659 0 0-.608 2.703-1.356 2.935-.749.233-2.105.56-2.994.56"/>
    <path fill="#C0C3D2" d="M168.986 186.641c-.795 0-2.011-.279-2.666-.512-.655-.187-1.216-2.656-1.216-2.656-1.778-6.848-3.581-16.944-4.095-22.954v-28.092h16.045s.281 24.924 0 28.092c-.514 6.01-2.735 16.059-4.513 22.908 0 0-.561 2.422-1.216 2.655-.655.187-1.871.513-2.666.513" opacity=".7"/>
    <path fill="#868CA6" d="M158 131h23.066v2H158z"/>
    <path fill="#fff" d="M160.006 139.427h18.052v16h-18.052z"/>
    <path fill="#000" fill-opacity=".1" d="M173.043 133h5.014v26.509c0 2.946-2.005 12.273-2.005 12.273s-3.793 14.512-4.012 14.727c-.219.215-3.009.491-3.009.491l4.012-27.491V133z"/>
    <path fill="#868CA6" d="M155.994 128h26.074v2h-26.074z"/>
    <path fill="#577898" d="M161.009 130h16.046v1h-16.046z"/>
    <path fill="#868CA6" fill-rule="evenodd" d="M184.749 129.123c.251.422.328.903.328 1.377s-.077.955-.328 1.377c-.265.446-.658.716-1.075.872-.39.146-.821.2-1.23.226-.407.025-.872.025-1.356.025h-.022v-2c.511 0 .915 0 1.253-.021.344-.022.54-.061.651-.103.024-.009.04-.017.05-.022l.007-.004.004-.009a.427.427 0 0 0 .016-.059c.013-.058.024-.148.024-.282 0-.134-.011-.224-.024-.282a.427.427 0 0 0-.016-.059l-.004-.009-.007-.004c-.01-.005-.026-.013-.05-.022-.111-.042-.307-.081-.651-.103-.338-.021-.742-.021-1.253-.021v-2h.022c.484 0 .949 0 1.356.025.409.026.84.08 1.23.226.417.156.81.426 1.075.872z" clip-rule="evenodd"/>
    <path fill="#000" d="M162.228 151.52h1.377l.917-2.436h4.055l.918 2.436h1.42l-3.67-9.52h-1.347l-3.67 9.52zm2.723-3.584l1.599-4.326 1.598 4.326h-3.197zM174.193 147.726h2.203v-1.064h-5.252v1.064h3.049z"/>
    <path fill="#B2B2B2" d="M56.244 199.486v-38.815l1.228-1.403h56.461s-24.057 1.403-34.368 1.403c-10.31 0-15.547 25.877-17.183 38.815h-6.138zM232.756 199.486v-38.815l-1.228-1.403h-56.461s24.057 1.403 34.368 1.403c10.31 0 15.547 25.877 17.184 38.815h6.137z"/>
    <path fill="#fff" d="M141 118.522a4.5 4.5 0 0 1 9 0v39.74h-9v-39.74z"/>
    <path fill="#fff" d="M51 159.257a2 2 0 0 1 2-2h183a2 2 0 0 1 2 2v1.016H51v-1.016z"/>
    <path fill="#B2B2B2" fill-rule="evenodd" d="M238 160.273H51l2.77 2.011H77V161h18v1.284h14V161h18v1.284h33V161h18v1.284h16V161h18v1.284h23.23l2.77-2.011z" clip-rule="evenodd"/>
    <path fill="#fff" d="M51 202v-41.727l1.311-1.508h60.311s-25.698 1.508-36.71 1.508c-11.014 0-16.608 27.818-18.356 41.727H51zM238 202v-41.727l-1.311-1.508h-60.311s25.698 1.508 36.711 1.508c11.013 0 16.607 27.818 18.355 41.727H238z"/>
    <path fill="#182225" fill-opacity=".08" d="M21 62h254v290H21z"/>
    <path fill="#fff" fill-rule="evenodd" d="M17 51a5 5 0 0 0-5 5v299a5 5 0 0 0 5 5h260a5 5 0 0 0 5-5V56a5 5 0 0 0-5-5H17zm11.217 14.218a3 3 0 0 0-3 3V343.73a3 3 0 0 0 3 3h236.622a3 3 0 0 0 3-3V68.218a3 3 0 0 0-3-3H28.217z" clip-rule="evenodd"/>
    <rect width="16" height="88" x="18" y="85" fill="#54BCE3" rx="8"/>
    <path fill="#15A5DA" d="M29 86a5 5 0 0 1 5 5v76a5 5 0 0 1-5 5V86z"/>
    <path fill="#fff" d="M268 58.5l-236 292h38l203-251V74l-5-15.5zM235 56L18 331l4.5 5.5L247.5 56 235 49.5V56z" opacity=".2"/>
</svg>
