<svg xmlns="http://www.w3.org/2000/svg" width="54" height="71" fill="none" viewBox="0 0 54 71">
    <path fill="#C5C5CF" d="M53.428 65.988l-16.76-40.764V1.181H16.972v24.043C11.372 38.812 5.772 52.4.212 65.988c-.705 1.683.43 3.524 2.193 3.72C9.845 70.49 18.068 71 26.957 71c8.771 0 16.916-.51 24.239-1.292 1.801-.196 2.937-2.076 2.232-3.72z"/>
    <path fill="#00AEEF" d="M50.295 65.283L35.532 29.375a42.46 42.46 0 0 1-8.223.9 42.157 42.157 0 0 1-9.123-.9c-2.35 3.054-10.26 24.983-14.763 35.908a2.408 2.408 0 0 0 1.958 3.29c6.54.704 13.783 1.135 21.615 1.135 7.714 0 14.88-.43 21.341-1.136a2.408 2.408 0 0 0 1.958-3.289z"/>
    <path fill="#C5C5CF" d="M38.978 1.573s-.587.47-1.88.548c-.978.078-1.84.118-2.231.157H14.622V.046h20.245l2.154-.04s1.448-.195 1.957 1.567z"/>
    <path fill="#C5C5CF" d="M37.02.006s1.45-.195 1.958 1.567c0 0-.587.47-1.88.548-.978.078-1.84.118-2.231.157H14.622S35.415 1.729 37.02.006z"/>
    <path fill="#E8E8EA" d="M25.077.085h-2.114v2.232h2.114V.085z" opacity=".7"/>
    <path fill="#E8E8EA" d="M42.894 67.358l-8.693-40.841V2.826H19.478v23.69c-2.898 13.628-5.796 27.215-8.693 40.842-.196.94.43 1.84 1.37 1.88 4.7.274 9.711.43 14.92.43 5.05 0 9.867-.156 14.449-.43.94-.04 1.566-.94 1.37-1.88z" opacity=".3"/>
    <path fill="#fff" d="M30.168 20.29H23.55v.666h6.618v-.666zM30.168 31.96H23.55v.665h6.618v-.666zM30.168 44.49H23.55v.666h6.618v-.666zM30.168 60.467H23.55v.665h6.618v-.665z" opacity=".2"/>
    <g opacity=".2">
        <path fill="#fff" d="M25.351 23.814v-1.37h-.548v-.314h.235c.078 0 .118-.039.196-.078.04-.04.117-.078.157-.117a.3.3 0 0 0 .078-.196h.352v2.114h-.47v-.039zM26.957 23.344v.47c0 .078 0 .118-.04.196-.038.04-.078.117-.117.157a.54.54 0 0 1-.156.117c-.04.04-.118.04-.196.04v-.236c.039 0 .078 0 .078-.039.04 0 .04-.039.079-.078 0-.04.039-.04.039-.079v-.078h-.235v-.47h.548zM27.78 22.052l-.08.47c.08-.078.118-.117.197-.117.078-.04.156-.04.235-.04.117 0 .195 0 .274.04.078.039.156.078.196.156.039.079.117.157.117.235.04.079.04.196.04.274 0 .118-.04.196-.08.314-.038.078-.117.195-.156.235a.818.818 0 0 1-.235.156c-.078.04-.196.04-.313.04-.117 0-.196 0-.313-.04-.079-.039-.196-.078-.235-.117-.079-.04-.118-.118-.157-.196a.738.738 0 0 1-.078-.313h.43c0 .078.04.195.118.235.078.039.157.078.235.078.04 0 .117 0 .157-.04.039-.038.078-.038.117-.078.04-.039.04-.078.078-.117 0-.04.04-.117.04-.157 0-.039 0-.117-.04-.156 0-.04-.039-.079-.078-.118-.04-.039-.078-.078-.117-.078-.04 0-.079-.04-.157-.04s-.157 0-.196.04l-.117.117h-.392l.196-1.174h1.175v.352h-.862v.04z" opacity=".2"/>
    </g>
    <g opacity=".2">
        <path fill="#fff" d="M25.351 35.523v-1.371h-.548v-.313h.235c.078 0 .118-.04.196-.079.04-.039.117-.078.157-.117a.3.3 0 0 0 .078-.196h.352v2.115h-.47v-.04zM26.957 35.053v.47c0 .078 0 .117-.04.195-.038.04-.078.118-.117.157a.538.538 0 0 1-.156.117c-.04.04-.118.04-.196.04v-.235c.039 0 .078 0 .078-.04.04 0 .04-.039.079-.078 0-.04.039-.04.039-.078v-.078h-.235v-.47h.548zM27.27 33.917a.969.969 0 0 1 .157-.352c.078-.079.156-.157.235-.196.078-.04.196-.04.313-.04.117 0 .196 0 .313.04.078.039.196.078.235.196.079.078.118.195.157.352.039.157.078.313.078.51 0 .195-.039.39-.078.547-.04.157-.118.274-.157.353a1.035 1.035 0 0 1-.235.196c-.078.039-.196.039-.313.039-.117 0-.196 0-.313-.04-.079-.039-.196-.078-.235-.195-.079-.079-.118-.196-.157-.353-.039-.156-.078-.313-.078-.548 0-.196.039-.352.078-.509zm.392.744c0 .078 0 .157.039.235.039.078.039.157.117.196a.3.3 0 0 0 .196.078c.078 0 .157-.04.196-.078.04-.04.078-.118.117-.196.04-.078.04-.157.04-.235v-.235-.117-.157c0-.04 0-.117-.04-.157 0-.039-.039-.117-.078-.156l-.117-.118c-.04-.039-.079-.039-.157-.039-.04 0-.117 0-.157.04-.039.038-.078.078-.078.117-.04.039-.04.078-.078.156 0 .04-.04.118-.04.157v.274c0 .078.04.157.04.235z" opacity=".2"/>
    </g>
    <g opacity=".2">
        <path fill="#fff" d="M24.725 46.566a.968.968 0 0 1 .156-.353c.079-.078.157-.157.235-.196.079-.039.196-.039.314-.039.117 0 .196 0 .313.04.078.038.196.078.235.195.078.078.117.196.157.352.039.157.078.314.078.51 0 .195-.04.391-.078.548-.04.156-.118.274-.157.352a1.035 1.035 0 0 1-.235.196c-.078.04-.196.04-.313.04-.118 0-.196 0-.314-.04-.078-.04-.195-.078-.235-.196-.078-.078-.117-.196-.156-.352-.04-.157-.078-.313-.078-.548.039-.196.039-.353.078-.51zm.391.743c0 .079 0 .157.04.235.039.079.039.157.117.196.078.04.118.078.196.078.078 0 .157-.039.196-.078.039-.039.078-.117.117-.196.04-.078.04-.156.04-.234v-.236-.117-.157c0-.039 0-.117-.04-.156 0-.04-.039-.118-.078-.157l-.118-.117c-.039-.04-.078-.04-.156-.04-.04 0-.118 0-.157.04-.039.039-.078.078-.078.117-.04.04-.04.078-.079.157 0 .039-.039.117-.039.156v.274c.04.079.04.157.04.236zM26.957 47.701v.47c0 .078 0 .118-.04.196-.038.04-.078.117-.117.157-.039.039-.078.078-.156.117-.04.04-.118.04-.196.04v-.236c.039 0 .078 0 .078-.039.04 0 .04-.04.079-.078 0-.04.039-.04.039-.079v-.078h-.235v-.47h.548zM27.78 46.409l-.08.47c.08-.078.118-.118.197-.118.078-.039.156-.039.235-.039.117 0 .195 0 .274.04.078.039.156.078.196.156.039.078.117.157.117.235.04.078.04.196.04.274 0 .118-.04.196-.08.313-.038.079-.117.196-.156.235a.818.818 0 0 1-.235.157c-.078.04-.195.04-.313.04-.117 0-.196 0-.313-.04-.079-.04-.196-.078-.235-.117-.078-.04-.118-.118-.157-.196a.737.737 0 0 1-.078-.314h.43c0 .079.04.196.118.235.078.04.157.079.235.079.04 0 .117 0 .157-.04.039-.039.078-.039.117-.078.04-.039.04-.078.078-.117 0-.04.04-.118.04-.157 0-.04 0-.117-.04-.157 0-.039-.039-.078-.078-.117-.039-.04-.078-.078-.117-.078-.04 0-.079-.04-.157-.04s-.157 0-.196.04l-.117.117h-.392l.196-1.175h1.175v.353h-.862v.039z" opacity=".2"/>
    </g>
    <g opacity=".2">
        <path fill="#fff" d="M24.725 62.346a.968.968 0 0 1 .156-.352c.079-.079.157-.157.235-.196.079-.04.196-.04.314-.04.117 0 .196 0 .313.04.078.039.196.078.235.196.078.078.117.195.157.352.039.157.078.313.078.509s-.04.392-.078.548c-.04.157-.118.274-.157.353a1.04 1.04 0 0 1-.235.196c-.078.039-.196.039-.313.039-.118 0-.196 0-.314-.04-.078-.039-.195-.078-.235-.195-.078-.079-.117-.196-.156-.353-.04-.156-.078-.313-.078-.548.039-.196.039-.352.078-.509zm.391.744c0 .078 0 .157.04.235.039.078.039.157.117.196.078.039.118.078.196.078.078 0 .157-.04.196-.078.039-.04.078-.118.117-.196.04-.078.04-.157.04-.235v-.235-.117-.157c0-.04 0-.117-.04-.157 0-.039-.039-.117-.078-.156l-.118-.118c-.039-.039-.078-.039-.156-.039-.04 0-.118 0-.157.04-.039.038-.078.077-.078.117-.04.039-.04.078-.079.156 0 .04-.039.118-.039.157v.274c.04.078.04.157.04.235zM26.957 63.481v.47c0 .079 0 .118-.04.196-.038.04-.078.118-.117.157-.039.039-.078.078-.156.117-.04.04-.118.04-.196.04v-.236c.039 0 .078 0 .078-.039.04 0 .04-.039.079-.078 0-.04.039-.04.039-.078v-.078h-.235v-.47h.548zM27.897 63.952v-1.37h-.51v-.314h.236c.078 0 .117-.04.195-.078.04-.04.118-.079.157-.118a.299.299 0 0 0 .078-.196h.353v2.115h-.51v-.04z" opacity=".2"/>
    </g>
</svg>
