<svg xmlns="http://www.w3.org/2000/svg" width="43" height="62" fill="none" viewBox="0 0 43 62">
    <path fill="#E08F53" d="M43 13.577v46.021c0 1.246-1.038 2.262-2.306 2.262H2.306a2.323 2.323 0 0 1-1.536-.578l-.013-.013-.157-.154-.007-.009A2.219 2.219 0 0 1 0 59.596V14.444c0-1.245 2.126-3.128 3.394-3.128h37.298c1.27-.002 2.308 1.016 2.308 2.261z"/>
    <path fill="#FAA262" d="M16.596 11.316H3.608C1.615 11.316 0 12.887 0 14.826v45.279c0 .969.808 1.755 1.804 1.755h14.792V11.316z"/>
    <path fill="#FFB127" d="M16.597 18.86H3.017v39.982h13.58V18.86z"/>
    <path fill="#EA6A00" d="M39.982 18.86h-4.526v39.982h4.526V18.86z"/>
    <path fill="#E3ECEF" d="M41.492 18.86h-1.51v39.982h1.51V18.86zM3.018 18.86h-.755v39.982h.755V18.86zM35.457 18.86h-18.86v39.982h18.86V18.86z"/>
    <path fill="#F2F6F7" d="M16.597 18.86H3.017v39.982h13.58V18.86z"/>
    <path fill="#C9DADF" d="M39.983 18.86h-4.527v39.982h4.527V18.86z"/>
    <path fill="#FAA262" d="M5.28 9.807c0-.833.791-1.509 1.766-1.509h29.662c.975 0 1.766.676 1.766 1.51v1.508H5.28V9.807z"/>
    <path fill="#DAE2E5" d="M38.474 9.098v1.718c0 .264-.199.481-.447.498-.011.002-.02.002-.032.002H5.757c-.01 0-.02 0-.032-.002a.49.49 0 0 1-.444-.498V9.098c0-.274.214-.499.476-.499h.131v-7.45c0-.23.158-.423.366-.463V.47c0-.258.203-.471.45-.471H37.05a.442.442 0 0 1 .348.172.48.48 0 0 1 .104.299v.214a.47.47 0 0 1 .365.462v7.451h.13a.487.487 0 0 1 .478.5z"/>
    <path fill="#F2F6F7" d="M17.466 10.815V9.098c0-.275.21-.5.466-.5h.128v-7.45c0-.23.155-.423.358-.463V.47c0-.258.199-.471.442-.471H6.674c-.243 0-.441.21-.441.47v.215a.468.468 0 0 0-.358.462v7.451h-.128c-.257 0-.466.225-.466.5v1.718c0 .264.192.481.435.498.01.002.02.002.031.002h12.186c-.011 0-.021 0-.032-.002a.49.49 0 0 1-.435-.5z"/>
    <path fill="#BECFD3" d="M7.544.754h-.755v7.544h.755V.754zM9.052.754h-.754v7.544h.754V.754zM10.561.754h-.754v7.544h.754V.754zM12.07.754h-.755v7.544h.755V.754zM14.333.754h-1.509v7.544h1.509V.754zM15.842.754h-.754v7.544h.754V.754zM17.35.754h-.754v7.544h.755V.754zM18.86.754h-.755v7.544h.755V.754zM20.369.754h-.755v7.544h.755V.754zM21.877.754h-.754v7.544h.754V.754zM23.386.754h-.755v7.544h.755V.754zM25.649.754H24.14v7.544h1.509V.754zM27.157.754h-.754v7.544h.754V.754zM28.667.754h-.755v7.544h.755V.754zM30.176.754h-.755v7.544h.755V.754zM31.684.754h-.755v7.544h.755V.754zM33.193.754h-.755v7.544h.755V.754zM34.702.754h-.755v7.544h.755V.754zM36.965.754h-1.51v7.544h1.51V.754z"/>
</svg>
