<svg xmlns="http://www.w3.org/2000/svg" width="85" height="81" fill="none" viewBox="0 0 85 81">
    <path fill="#C5C5C5" fill-rule="evenodd" d="M40.5 10C23.655 10 10 23.655 10 40.5S23.655 71 40.5 71 71 57.345 71 40.5 57.345 10 40.5 10zM0 40.5C0 18.133 18.133 0 40.5 0S81 18.133 81 40.5 62.867 81 40.5 81 0 62.867 0 40.5z" clip-rule="evenodd"/>
    <path fill="#008D36" fill-rule="evenodd" d="M71 40.5c0-9.003-3.895-17.09-10.107-22.68l6.688-7.434C75.813 17.792 81 28.544 81 40.5H71z" clip-rule="evenodd"/>
    <path fill="#E52826" fill-rule="evenodd" d="M26.947 13.119C16.892 18.115 10 28.483 10 40.45c0 10.793 5.602 20.28 14.08 25.708l-5.391 8.422C7.46 67.392 0 54.794 0 40.451 0 24.54 9.174 10.785 22.497 4.163l4.45 8.956z" clip-rule="evenodd"/>
    <path fill="#FAAC48" stroke="#fff" stroke-width="2" d="M82.68 44.638h1v-5H69.12v5h13.56zM28.76 67.006l.502-.865-.865-.501-2.595-1.505-.865-.502-.502.865-6.3 10.866-.502.865.865.502 2.596 1.504.865.502.501-.865 6.3-10.866z"/>
</svg>
