<svg xmlns="http://www.w3.org/2000/svg" width="91" height="91" fill="none" viewBox="0 0 91 91">
    <path fill="#C5C5C5" fill-rule="evenodd" d="M45.5 10C25.894 10 10 25.894 10 45.5S25.894 81 45.5 81 81 65.106 81 45.5 65.106 10 45.5 10zM0 45.5C0 20.371 20.371 0 45.5 0S91 20.371 91 45.5 70.629 91 45.5 91 0 70.629 0 45.5z" clip-rule="evenodd"/>
    <path fill="#E52826" fill-rule="evenodd" d="M27.299 14.829C16.925 21.037 10 32.369 10 45.315c0 19.606 15.894 35.5 35.5 35.5 12.04 0 22.683-5.99 29.11-15.175l8.193 5.734c-8.218 11.744-21.861 19.44-37.303 19.44-25.129 0-45.5-20.37-45.5-45.5C0 28.71 8.898 14.188 22.163 6.249l5.136 8.58z" clip-rule="evenodd"/>
    <path fill="#008D36" fill-rule="evenodd" d="M81 45.5C81 25.838 65.396 10 45.846 10V0C71.031 0 91 20.427 91 45.5H81z" clip-rule="evenodd"/>
    <path fill="#FAAC48" stroke="#fff" stroke-width="2" d="M79.99 14.963l.742-.672-.672-.74-2.015-2.223-.672-.74-.74.671-9.305 8.438-.74.671.671.741 2.016 2.222.671.741.741-.672 9.304-8.437zM22.991 71.963l.74-.672-.671-.74-2.015-2.223-.672-.74-.74.671-9.305 8.438-.74.671.671.741 2.015 2.222.672.741.741-.672 9.304-8.437z"/>
</svg>
