<svg xmlns="http://www.w3.org/2000/svg" width="97" height="97" fill="none" viewBox="0 0 97 97">
    <path fill="#C5C5C5" fill-rule="evenodd" d="M46.752 10.046c-20.272 0-36.706 16.434-36.706 36.706 0 20.271 16.434 36.705 36.706 36.705 20.271 0 36.705-16.434 36.705-36.705 0-20.272-16.434-36.706-36.705-36.706zM0 46.752C0 20.931 20.931 0 46.752 0c25.82 0 46.75 20.931 46.75 46.752 0 25.82-20.93 46.75-46.75 46.75S0 72.573 0 46.753z" clip-rule="evenodd"/>
    <path fill="#F8AF3E" fill-rule="evenodd" d="M46.752 10.046c-20.272 0-36.706 16.434-36.706 36.706 0 11.75 5.516 22.21 14.12 28.936l-6.187 7.915C7.044 75.054 0 61.724 0 46.752 0 20.931 20.931 0 46.752 0 67.263 0 84.678 13.208 90.98 31.568l-9.502 3.261c-4.952-14.426-18.637-24.783-34.727-24.783z" clip-rule="evenodd"/>
    <path fill="#FAAC48" stroke="#fff" stroke-width="2" d="M51.482 82.12l-.02-1.005-1.004.02-2.809.053-1.004.02.02 1.004.224 11.76.019 1.004 1.004-.019 2.81-.053 1.004-.02-.02-1.004-.224-11.76zM82.43 40.427l-1.002.07.071 1.003.198 2.802.071 1.002 1.002-.07 11.733-.83 1.002-.071-.07-1.002-.199-2.803-.07-1.002-1.003.07-11.733.83z"/>
</svg>
