<svg xmlns="http://www.w3.org/2000/svg" width="71" height="74" fill="none" viewBox="0 0 71 74">
    <path fill="#C5C5C5" fill-rule="evenodd" d="M35.5 11.566c-14.083 0-25.5 11.417-25.5 25.5s11.417 25.5 25.5 25.5S61 51.15 61 37.066s-11.417-25.5-25.5-25.5zM0 37.066c0-19.606 15.894-35.5 35.5-35.5S71 17.46 71 37.066s-15.894 35.5-35.5 35.5S0 56.672 0 37.066z" clip-rule="evenodd"/>
    <path fill="#FAAC48" stroke="#fff" stroke-width="2" d="M51.453 4.347l.422-.906-.906-.423-2.72-1.267-.906-.422-.422.906-5.305 11.385-.423.906.907.422 2.72 1.268.905.422.423-.906 5.305-11.385zM29.462 60.357l.425-.905-.906-.425-2.716-1.272-.906-.425-.424.906-5.329 11.374-.424.905.906.424 2.716 1.273.906.424.424-.905 5.328-11.374z"/>
</svg>
