<svg xmlns="http://www.w3.org/2000/svg" width="115" height="115" fill="none" viewBox="0 0 115 115">
    <path fill="#C5C5C5" fill-rule="evenodd" d="M57 10.075c-25.916 0-46.925 21.009-46.925 46.925 0 25.916 21.009 46.925 46.925 46.925 25.916 0 46.925-21.009 46.925-46.925 0-25.916-21.009-46.925-46.925-46.925zM0 57C0 25.52 25.52 0 57 0s57 25.52 57 57-25.52 57-57 57S0 88.48 0 57z" clip-rule="evenodd"/>
    <path fill="#115F92" fill-rule="evenodd" d="M23.688 89.845c7.33 7.284 16.918 12.492 27.452 13.748l-1.193 10.003c-13.077-1.559-24.67-7.97-33.36-16.604l7.1-7.147z" clip-rule="evenodd"/>
    <path fill="#1399F1" fill-rule="evenodd" d="M103.925 57c0-2.611-.338-5.256-.815-8.028l9.928-1.71c.517 3.002.962 6.293.962 9.738 0 8.668-1.854 16.935-5.37 24.362l-9.106-4.311c2.86-6.04 4.401-12.83 4.401-20.051z" clip-rule="evenodd"/>
    <path fill="#333332" fill-rule="evenodd" d="M71.04 101.791a46.954 46.954 0 0 0 20.575-13.107l7.43 6.804a57.029 57.029 0 0 1-24.995 15.917l-3.01-9.614z" clip-rule="evenodd"/>
    <path fill="#1399F1" fill-rule="evenodd" d="M92.697 26.54c-6.195-7.253-14.553-12.588-24.062-15.013l2.49-9.762c11.573 2.951 21.721 9.438 29.232 18.232l-7.66 6.543z" clip-rule="evenodd"/>
    <path fill="#115F92" fill-rule="evenodd" d="M14.373 37.35A46.73 46.73 0 0 0 10.075 57c0 6.56 1.342 12.792 3.763 18.448l-9.262 3.964A56.832 56.832 0 0 1 0 57c0-8.514 1.87-16.606 5.227-23.874l9.146 4.224z" clip-rule="evenodd"/>
    <path fill="#333332" fill-rule="evenodd" d="M47.862 10.981c-10.134 2.02-19.1 7.31-25.748 14.737l-7.506-6.72C22.667 9.996 33.558 3.56 45.893 1.102l1.97 9.88z" clip-rule="evenodd"/>
    <path fill="#FAAC48" stroke="#fff" stroke-width="2" d="M96.262 36.845l-.872.504.504.873 1.749 3.03.504.872.872-.504 12.685-7.323.872-.504-.503-.873-1.75-3.03-.503-.872-.873.504-12.685 7.323zM6.465 86.992l-.872.503.504.873 1.749 3.03.504.872.872-.504 12.685-7.323.872-.504-.503-.872-1.75-3.03-.503-.873-.873.504-12.685 7.324z"/>
</svg>
