<svg xmlns="http://www.w3.org/2000/svg" width="111" height="111" fill="none" viewBox="0 0 111 111">
    <path fill="#C5C5C5" fill-rule="evenodd" d="M55.5 10C30.371 10 10 30.371 10 55.5S30.371 101 55.5 101 101 80.629 101 55.5 80.629 10 55.5 10zM0 55.5C0 24.848 24.848 0 55.5 0S111 24.848 111 55.5 86.152 111 55.5 111 0 86.152 0 55.5z" clip-rule="evenodd"/>
    <path fill="#F8AF3E" fill-rule="evenodd" d="M55.5 10c-17.233 0-32.236 9.578-39.963 23.726l-8.776-4.794C16.171 11.705 34.465 0 55.5 0a55.305 55.305 0 0 1 23.72 5.311l-4.278 9.039A45.305 45.305 0 0 0 55.5 10z" clip-rule="evenodd"/>
    <path fill="#1399F1" fill-rule="evenodd" d="M101 55.5c0-6.57-1.39-12.804-3.887-18.432l9.141-4.055A55.316 55.316 0 0 1 111 55.5c0 6.14-.999 12.057-2.847 17.591l-9.485-3.167A45.452 45.452 0 0 0 101 55.5z" clip-rule="evenodd"/>
    <path fill="#115F92" fill-rule="evenodd" d="M31.781 94.337C38.684 98.563 46.8 101 55.5 101c3.343 0 6.597-.36 9.727-1.041l2.127 9.771A55.712 55.712 0 0 1 55.5 111c-10.595 0-20.51-2.973-28.94-8.134l5.221-8.529z" clip-rule="evenodd"/>
    <path fill="#333332" fill-rule="evenodd" d="M79.218 94.337a45.755 45.755 0 0 0 15.585-15.896l8.631 5.05a55.756 55.756 0 0 1-18.995 19.375l-5.22-8.529z" clip-rule="evenodd"/>
    <path fill="#FAAC48" stroke="#fff" stroke-width="2" d="M5.504 84.312l-.831.555.554.832 1.887 2.828.555.832.832-.555 11.842-7.899.832-.555-.555-.832-1.887-2.828-.554-.832-.832.555-11.843 7.899zM82.368 20.553l-.65.76.761.65 2.586 2.208.76.649.65-.76 9.242-10.827.65-.761-.761-.65-2.586-2.207-.76-.649-.65.76-9.242 10.827z"/>
</svg>
