<svg width="128" height="10" viewBox="0 0 128 10" fill="none" xmlns="http://www.w3.org/2000/svg">
<path fill-rule="evenodd" clip-rule="evenodd" d="M6.50346 9.99999L8.74227e-07 9.99999L0 0L6.50345 -5.6855e-07L6.50346 9.99999Z" fill="#C5C5C5"/>
<path fill-rule="evenodd" clip-rule="evenodd" d="M38.1339 9.99999H6.50341V0H38.1339V9.99999Z" fill="#1399F1"/>
<path fill-rule="evenodd" clip-rule="evenodd" d="M47.8892 9.99999H38.134V0H47.8892V9.99999Z" fill="#C5C5C5"/>
<path fill-rule="evenodd" clip-rule="evenodd" d="M82.4757 10L70.3557 9.99999L70.3557 0L82.4757 3.1456e-06L82.4757 10Z" fill="#C5C5C5"/>
<path fill-rule="evenodd" clip-rule="evenodd" d="M128 9.99999H108.194V0H128V9.99999Z" fill="#C5C5C5"/>
<path fill-rule="evenodd" clip-rule="evenodd" d="M70.3556 10L47.8891 9.99999L47.8891 0L70.3556 5.83087e-06L70.3556 10Z" fill="#333332"/>
<path fill-rule="evenodd" clip-rule="evenodd" d="M108.194 9.99999H82.4755V0H108.194V9.99999Z" fill="#115F92"/>
</svg>
