<svg xmlns="http://www.w3.org/2000/svg" width="98" height="97" fill="none" viewBox="0 0 98 97">
    <path fill="#C5C5C5" fill-rule="evenodd" d="M48.001 10.003c-20.986 0-37.998 17.012-37.998 37.998C10.003 68.987 27.015 86 48 86 68.987 86 86 68.987 86 48S68.987 10.003 48 10.003zM0 48C0 21.491 21.49 0 48.001 0c26.51 0 48.002 21.49 48.002 48.001 0 26.51-21.491 48.002-48.002 48.002C21.491 96.003 0 74.512 0 48z" clip-rule="evenodd"/>
    <path fill="#333332" fill-rule="evenodd" d="M47.91 10.003c-1.32 0-2.621.067-3.903.197-12.724 1.297-23.607 8.881-29.471 19.617l-8.779-4.794C13.15 11.486 26.885 1.89 42.993.249A48.506 48.506 0 0 1 47.91 0v10.003z" clip-rule="evenodd"/>
    <path fill="#115F92" fill-rule="evenodd" d="M9.981 51.58C11.781 70.885 28.035 86 47.814 86a38.44 38.44 0 0 0 4.553-.27l1.184 9.933c-1.883.224-3.798.34-5.737.34-24.992 0-45.517-19.095-47.793-43.495l9.96-.928z" clip-rule="evenodd"/>
    <path fill="#1399F1" fill-rule="evenodd" d="M86 47.374c0-14.425-8.055-26.367-20.14-32.815l4.71-8.825c15.032 8.021 25.433 23.182 25.433 41.64H86z" clip-rule="evenodd"/>
    <path fill="#FAAC48" stroke="#fff" stroke-width="2" d="M63.286 81.3l-.328-.946-.945.329-2.735.95-.945.328.328.945 3.978 11.45.329.944.945-.328 2.734-.95.945-.328-.328-.945-3.978-11.45zM83.998 54.23l-.977-.217-.217.977-.627 2.826-.217.977.976.217 11.833 2.628.976.217.217-.977.628-2.826.217-.977-.977-.217-11.832-2.628z"/>
</svg>
