<svg xmlns="http://www.w3.org/2000/svg" width="87" height="87" fill="none" viewBox="0 0 87 87">
    <path fill="#C5C5C5" fill-rule="evenodd" d="M43.5 10C24.998 10 10 24.998 10 43.5 10 62.002 24.998 77 43.5 77 62.002 77 77 62.002 77 43.5 77 24.998 62.002 10 43.5 10zM0 43.5C0 19.476 19.476 0 43.5 0S87 19.476 87 43.5 67.524 87 43.5 87 0 67.524 0 43.5z" clip-rule="evenodd"/>
    <path fill="#333332" fill-rule="evenodd" d="M17.317 22.6A33.337 33.337 0 0 0 10 43.5c0 1.559.106 3.09.31 4.588L.404 49.443A43.845 43.845 0 0 1 0 43.5a43.337 43.337 0 0 1 9.506-27.143l7.81 6.244z" clip-rule="evenodd"/>
    <path fill="#1399F1" fill-rule="evenodd" d="M43.829 10c-3.605 0-7.068.568-10.31 1.615l-3.073-9.516A43.473 43.473 0 0 1 43.829 0c10.673 0 20.43 4.177 27.877 10.37l-6.395 7.688C59.415 13.155 51.866 10 43.83 10z" clip-rule="evenodd"/>
    <path fill="#115F92" fill-rule="evenodd" d="M14.859 60.962C20.779 70.635 31.076 77 43.125 77c2.26 0 4.464-.223 6.59-.647l1.956 9.807c-2.767.551-5.626.84-8.546.84C27.357 87 13.94 78.615 6.33 66.183l8.529-5.22z" clip-rule="evenodd"/>
    <path fill="#008D36" fill-rule="evenodd" d="M76.701 39.114c-.533-4.827-2.289-9.158-4.888-13.405l8.528-5.221c3.15 5.144 5.564 10.874 6.3 17.527l-9.94 1.099z" clip-rule="evenodd"/>
    <path fill="#E52826" fill-rule="evenodd" d="M66.119 68.112C72.789 62.002 77 52.985 77 43.17h10c0 12.671-5.427 24.347-14.127 32.315l-6.754-7.374z" clip-rule="evenodd"/>
    <path fill="#FAAC48" stroke="#fff" stroke-width="2" d="M82.349 22.06l.833-.551-.552-.834-1.474-2.227-.552-.834-.834.552-9.8 6.488-.835.552.552.834 1.474 2.227.552.834.834-.552 9.802-6.488zM69.753 79.381l.64.769.769-.64 2.052-1.71.768-.639-.64-.768-7.522-9.033-.64-.768-.768.64-2.052 1.708-.768.64.64.769 7.521 9.032z"/>
</svg>
