<svg xmlns="http://www.w3.org/2000/svg" width="106" height="104" fill="none" viewBox="0 0 106 104">
    <path fill="#C5C5C5" fill-rule="evenodd" d="M50.964 10.058c-22.592 0-40.906 18.314-40.906 40.906 0 22.593 18.314 40.907 40.906 40.907 22.593 0 40.907-18.314 40.907-40.907 0-22.592-18.314-40.906-40.907-40.906zM0 50.964C0 22.818 22.817 0 50.964 0s50.965 22.817 50.965 50.964-22.818 50.965-50.965 50.965C22.818 101.929 0 79.111 0 50.964z" clip-rule="evenodd"/>
    <path fill="#E52826" fill-rule="evenodd" d="M62.767 90.152c6.694-2.163 13.781-6.64 18.441-11.61l7.338 6.878c-5.85 6.241-14.41 11.628-22.687 14.302l-3.091-9.57z" clip-rule="evenodd"/>
    <path fill="#008D36" fill-rule="evenodd" d="M85.29 73.251c3.337-4.875 5.36-10.65 6.301-17.122l9.953 1.449c-1.114 7.65-3.575 14.956-7.954 21.354l-8.3-5.68z" clip-rule="evenodd"/>
    <path fill="#F8AF3E" fill-rule="evenodd" d="M50.964 10.058c-22.592 0-40.906 18.314-40.906 40.906 0 13.096 6.148 24.753 15.736 32.249l-6.195 7.924C7.68 81.816 0 67.285 0 50.963 0 22.818 22.817 0 50.964 0 73.324 0 92.31 14.397 99.18 34.413l-9.513 3.265C84.15 21.6 68.898 10.058 50.965 10.058z" clip-rule="evenodd"/>
    <path fill="#FAAC48" stroke="#fff" stroke-width="2" d="M91.016 54.28l-1-.104-.104 1-.317 3.077-.103 1 1 .104 12.881 1.328 1 .103.103-1 .317-3.077.104-1-1.001-.104-12.88-1.328zM63.658 88.04l-.23-.98-.978.23-3.012.706-.979.23.23.979 2.955 12.606.23.98.979-.23 3.01-.706.98-.229-.23-.98-2.955-12.606z"/>
</svg>
