<svg width="11" height="11" viewBox="0 0 11 11" fill="none" xmlns="http://www.w3.org/2000/svg">
<path d="M0 0.916666C0 0.410405 0.410406 0 0.916667 0H10.0833C10.5896 0 11 0.410406 11 0.916667V10.0833C11 10.5896 10.5896 11 10.0833 11H0.916666C0.410405 11 0 10.5896 0 10.0833V0.916666Z" fill="#DD871A"/>
<path d="M10.5 11C10.2239 11 10 10.7948 10 10.5417L10 0.458333C10 0.205202 10.2239 -9.78515e-09 10.5 -2.18557e-08C10.7761 -3.39263e-08 11 0.205202 11 0.458333L11 10.5417C11 10.7948 10.7761 11 10.5 11Z" fill="#BA6C08"/>
<path d="M0 0.458334C0 0.205203 0.223858 0 0.5 0C0.776142 0 1 0.205203 1 0.458333V10.5417C1 10.7948 0.776142 11 0.5 11C0.223858 11 0 10.7948 0 10.5417V0.458334Z" fill="#BA6C08"/>
<path d="M10.5417 -1.45694e-08C10.673 -8.82911e-09 10.7914 0.0602512 10.875 0.156796C10.5 0.5 10.5 0.5 10.5 0.5C10.5 0.5 10.5 0.5 10 1L0.458357 1C0.205226 1 2.38079e-05 0.776142 2.382e-05 0.5C2.38321e-05 0.223857 0.205226 -4.66391e-07 0.458357 -4.55326e-07L10.5417 -1.45694e-08Z" fill="#BA6C08"/>
<path d="M0.458329 11C0.327006 11 0.208582 10.9397 0.12502 10.8432C0.50002 10.5 0.5 10.5 0.5 10.5C0.5 10.5 0.499995 10.5 0.999995 10L10.5417 10C10.7948 10 11 10.2239 11 10.5C11 10.7761 10.7948 11 10.5417 11L0.458329 11Z" fill="#BA6C08"/>
<path fill-rule="evenodd" clip-rule="evenodd" d="M9.16663 4.74138L5.4523 8.25L5.4523 6.25862L9.16663 2.75L9.16663 4.74138ZM1.83331 4.74138L5.4523 8.25L5.4523 6.25862L1.83331 2.75L1.83331 4.74138Z" fill="#333333"/>
</svg>
