<svg width="179" height="37" viewBox="0 0 179 37" fill="none" xmlns="http://www.w3.org/2000/svg">
<mask id="mask0" mask-type="alpha" maskUnits="userSpaceOnUse" x="0" y="0" width="179" height="37">
<rect x="0.607323" y="0.502441" width="178" height="36" rx="1" fill="#FAAC48"/>
</mask>
<g mask="url(#mask0)">
<rect x="0.607323" y="0.502441" width="178" height="39" rx="1" fill="#FAAC48"/>
<path d="M0.607323 1.50244C0.607323 0.950157 1.05504 0.502441 1.60732 0.502441H178.288C178.84 0.502441 179.288 0.950157 179.288 1.50244V4.0231H1.60732C1.05504 4.0231 0.607323 3.57539 0.607323 3.0231V1.50244Z" fill="#FFD5A0"/>
<path d="M178.288 35.2295C178.288 35.7818 177.84 36.2295 177.288 36.2295L1.60733 36.2295C1.05504 36.2295 0.60733 35.7818 0.60733 35.2295L0.607331 32.7088L177.288 32.7088C177.84 32.7088 178.288 33.1565 178.288 33.7088L178.288 35.2295Z" fill="#DD871A"/>
<path d="M1.60732 0.502441C1.05504 0.502441 0.607323 0.950157 0.607323 1.50244L0.607324 39.2297L3.84846 35.7091L3.84846 1.50244C3.84846 0.950155 3.40074 0.502441 2.84846 0.502441L1.60732 0.502441Z" fill="#FFD5A0"/>
<path d="M177.607 39.2295C178.16 39.2295 178.607 38.7818 178.607 38.2295L178.607 0.502228L175.366 4.02289L175.366 38.2295C175.366 38.7818 175.814 39.2295 176.366 39.2295L177.607 39.2295Z" fill="#DD871A"/>
</g>
<path d="M75.8681 25.3207C78.6332 25.3207 80.0245 24.1105 80.0245 21.6717C80.0245 19.3979 78.9463 18.3711 76.0942 17.986C74.0942 17.7109 73.3638 17.1242 73.3638 15.8773C73.3638 14.612 74.2507 13.9152 75.8681 13.9152C77.5028 13.9152 78.2854 14.612 78.2854 16.0606H79.8506C79.8506 13.6218 78.5289 12.4116 75.9203 12.4116C73.2595 12.4116 71.816 13.6585 71.816 16.0423C71.816 18.1877 72.8247 19.1596 75.5377 19.5446C77.7115 19.8564 78.4767 20.4798 78.4767 21.8184C78.4767 23.1386 77.6072 23.8171 75.8855 23.8171C74.0942 23.8171 73.1725 23.0653 73.1725 21.5617H71.6073C71.6073 24.0738 73.0508 25.3207 75.8681 25.3207Z" fill="#333333"/>
<path d="M85.0405 25.1007H86.4318V23.7071H85.4058C84.3797 23.7071 84.1188 23.3953 84.1188 22.1668V16.9591H86.3275V15.6389H84.1188V13.1451H82.7449L82.6232 15.6389H81.0406V16.9591H82.5884V22.1484C82.5884 24.2205 83.3188 25.1007 85.0405 25.1007Z" fill="#333333"/>
<path d="M90.668 25.3207C91.9723 25.3207 92.981 24.7889 93.7114 23.8171L93.7636 25.1007H95.0679V18.9212C95.0679 16.5741 93.9201 15.4189 91.5549 15.4189C89.3115 15.4189 88.0941 16.464 87.9376 18.5178H89.4332C89.4854 17.3625 90.2332 16.8124 91.5027 16.8124C92.894 16.8124 93.5375 17.4909 93.5375 18.9578V19.4713H91.381C88.8593 19.4713 87.6768 20.5348 87.6768 22.4235C87.6768 24.2755 88.8245 25.3207 90.668 25.3207ZM90.8941 23.9271C89.7637 23.9271 89.2071 23.377 89.2071 22.3868C89.2071 21.3233 89.868 20.8099 91.4332 20.8099H93.5375V22.1484C92.9984 23.3037 92.094 23.9271 90.8941 23.9271Z" fill="#333333"/>
<path d="M97.7637 25.1007H99.2941V19.6546C99.5898 17.8393 100.407 17.0508 101.868 17.0508H102.32V15.4555H101.711C100.407 15.4555 99.5898 16.0606 99.1376 17.3992L99.068 15.6389H97.7637V25.1007Z" fill="#333333"/>
<path d="M106.949 25.1007H108.34V23.7071H107.314C106.288 23.7071 106.027 23.3953 106.027 22.1668V16.9591H108.236V15.6389H106.027V13.1451H104.653L104.532 15.6389H102.949V16.9591H104.497V22.1484C104.497 24.2205 105.227 25.1007 106.949 25.1007Z" fill="#333333"/>
</svg>
