<svg width="179" height="37" viewBox="0 0 179 37" fill="none" xmlns="http://www.w3.org/2000/svg">
<mask id="mask0" mask-type="alpha" maskUnits="userSpaceOnUse" x="0" y="0" width="179" height="37">
<rect x="0.488647" y="0.502441" width="178" height="36" rx="1" fill="#FAAC48"/>
</mask>
<g mask="url(#mask0)">
<rect x="0.488647" y="0.502441" width="178" height="39" rx="1" fill="#DD871A"/>
<path d="M0.488647 1.50244C0.488647 0.950157 0.936363 0.502441 1.48865 0.502441H178.169C178.722 0.502441 179.169 0.950157 179.169 1.50244V4.0231H1.48865C0.936364 4.0231 0.488647 3.57539 0.488647 3.0231V1.50244Z" fill="#BA6C08"/>
<path d="M178.169 35.2295C178.169 35.7818 177.722 36.2295 177.169 36.2295L1.48864 36.2295C0.936359 36.2295 0.488647 35.7818 0.488648 35.2295L0.488648 32.7088L177.169 32.7088C177.722 32.7088 178.169 33.1565 178.169 33.7088L178.169 35.2295Z" fill="#BA6C08"/>
<path d="M1.48865 0.502441C0.936362 0.502441 0.488647 0.950157 0.488648 1.50244L0.488649 39.2297L3.72978 35.7091L3.72978 1.50244C3.72978 0.950155 3.28207 0.502441 2.72978 0.502441L1.48865 0.502441Z" fill="#BA6C08"/>
<path d="M177.489 39.2295C178.041 39.2295 178.489 38.7818 178.489 38.2295L178.489 0.502228L175.248 4.02289L175.248 38.2295C175.248 38.7818 175.695 39.2295 176.248 39.2295L177.489 39.2295Z" fill="#BA6C08"/>
</g>
<path d="M75.7494 25.3207C78.5146 25.3207 79.9058 24.1105 79.9058 21.6717C79.9058 19.3979 78.8276 18.3711 75.9755 17.986C73.9755 17.7109 73.2451 17.1242 73.2451 15.8773C73.2451 14.612 74.1321 13.9152 75.7494 13.9152C77.3841 13.9152 78.1667 14.612 78.1667 16.0606H79.7319C79.7319 13.6218 78.4102 12.4116 75.8016 12.4116C73.1408 12.4116 71.6973 13.6585 71.6973 16.0423C71.6973 18.1877 72.706 19.1596 75.419 19.5446C77.5928 19.8564 78.358 20.4798 78.358 21.8184C78.358 23.1386 77.4885 23.8171 75.7668 23.8171C73.9755 23.8171 73.0538 23.0653 73.0538 21.5617H71.4886C71.4886 24.0738 72.9321 25.3207 75.7494 25.3207Z" fill="#333333"/>
<path d="M84.9219 25.1007H86.3131V23.7071H85.2871C84.261 23.7071 84.0001 23.3953 84.0001 22.1668V16.9591H86.2088V15.6389H84.0001V13.1451H82.6263L82.5045 15.6389H80.922V16.9591H82.4697V22.1484C82.4697 24.2205 83.2002 25.1007 84.9219 25.1007Z" fill="#333333"/>
<path d="M90.5493 25.3207C91.8536 25.3207 92.8623 24.7889 93.5927 23.8171L93.6449 25.1007H94.9492V18.9212C94.9492 16.5741 93.8014 15.4189 91.4362 15.4189C89.1928 15.4189 87.9754 16.464 87.8189 18.5178H89.3145C89.3667 17.3625 90.1145 16.8124 91.3841 16.8124C92.7753 16.8124 93.4188 17.4909 93.4188 18.9578V19.4713H91.2623C88.7406 19.4713 87.5581 20.5348 87.5581 22.4235C87.5581 24.2755 88.7059 25.3207 90.5493 25.3207ZM90.7754 23.9271C89.645 23.9271 89.0885 23.377 89.0885 22.3868C89.0885 21.3233 89.7493 20.8099 91.3145 20.8099H93.4188V22.1484C92.8797 23.3037 91.9753 23.9271 90.7754 23.9271Z" fill="#333333"/>
<path d="M97.645 25.1007H99.1754V19.6546C99.4711 17.8393 100.288 17.0508 101.749 17.0508H102.201V15.4555H101.593C100.288 15.4555 99.4711 16.0606 99.0189 17.3992L98.9494 15.6389H97.645V25.1007Z" fill="#333333"/>
<path d="M106.83 25.1007H108.222V23.7071H107.195C106.169 23.7071 105.909 23.3953 105.909 22.1668V16.9591H108.117V15.6389H105.909V13.1451H104.535L104.413 15.6389H102.83V16.9591H104.378V22.1484C104.378 24.2205 105.109 25.1007 106.83 25.1007Z" fill="#333333"/>
</svg>
