<?xml version="1.0" encoding="utf-8"?>
<!-- Generator: Adobe Illustrator 21.0.0, SVG Export Plug-In . SVG Version: 6.00 Build 0)  -->
<svg version="1.1" id="Layer_1" xmlns="http://www.w3.org/2000/svg" xmlns:xlink="http://www.w3.org/1999/xlink" x="0px" y="0px"
	 viewBox="0 0 205 32" style="enable-background:new 0 0 205 32;" xml:space="preserve">
<style type="text/css">
	.st0{fill:#006F98;}
	.st1{fill:#006388;}
	.st2{fill:#008EC2;}
	.st3{fill:#11536B;}
	.st4{fill:#00AEEF;}
	.st5{fill:#009BD4;filter:url(#Adobe_OpacityMaskFilter);}
	.st6{mask:url(#mask0);}
	.st7{fill:#009BD4;filter:url(#Adobe_OpacityMaskFilter_1_);}
	.st8{mask:url(#mask1);}
	.st9{fill:#009BD4;filter:url(#Adobe_OpacityMaskFilter_2_);}
	.st10{mask:url(#mask2);}
	.st11{fill:#009BD4;filter:url(#Adobe_OpacityMaskFilter_3_);}
	.st12{mask:url(#mask3);}
	.st13{fill:#009BD4;filter:url(#Adobe_OpacityMaskFilter_4_);}
	.st14{mask:url(#mask4);}
	.st15{fill:#009BD4;filter:url(#Adobe_OpacityMaskFilter_5_);}
	.st16{mask:url(#mask5);}
</style>
<path class="st0" d="M203,3c0,0,2,1,2,2.9s0,23.1,0,23.1h-1L203,3z"/>
<path class="st1" d="M3,29l5.9,1L205,29c0,0,0,3-5.9,3c-5.9,0-188.3,0-192.2,0C3,32,3,29,3,29z"/>
<path class="st2" d="M5,3h197c1.1,0,2,0.9,2,2v24c0,1.1-0.9,2-2,2H5c-1.1,0-2-0.9-2-2V5C3,3.9,3.9,3,5,3z"/>
<rect x="199.2" y="26" class="st3" width="3.9" height="1"/>
<path class="st1" d="M0,26l5.8,1l195.3-1c0,0,0,3-5.8,3S7.7,29,3.9,29C0,29,0,26,0,26z"/>
<path class="st0" d="M200,0c0,0,3,1,3,3s0,23,0,23h-1V6L200,0z"/>
<path class="st4" d="M2,0h198c1.1,0,2,0.9,2,2v24c0,1.1-0.9,2-2,2H2c-1.1,0-2-0.9-2-2V2C0,0.9,0.9,0,2,0z"/>
<defs>
	<filter id="Adobe_OpacityMaskFilter" filterUnits="userSpaceOnUse" x="8" y="5" width="19" height="19">
		<feColorMatrix  type="matrix" values="1 0 0 0 0  0 1 0 0 0  0 0 1 0 0  0 0 0 1 0"/>
	</filter>
</defs>
<mask maskUnits="userSpaceOnUse" x="8" y="5" width="19" height="19" id="mask0">
	<circle class="st5" cx="17" cy="14" r="9"/>
</mask>
<g class="st6">
	<circle class="st0" cx="17" cy="14" r="9"/>
	<circle class="st2" cx="18" cy="15" r="9"/>
</g>
<defs>
	<filter id="Adobe_OpacityMaskFilter_1_" filterUnits="userSpaceOnUse" x="40.5" y="5" width="19" height="19">
		<feColorMatrix  type="matrix" values="1 0 0 0 0  0 1 0 0 0  0 0 1 0 0  0 0 0 1 0"/>
	</filter>
</defs>
<mask maskUnits="userSpaceOnUse" x="40.5" y="5" width="19" height="19" id="mask1">
	<circle class="st7" cx="49.5" cy="14" r="9"/>
</mask>
<g class="st8">
	<circle class="st0" cx="49.5" cy="14" r="9"/>
	<circle class="st2" cx="50.5" cy="15" r="9"/>
</g>
<defs>
	<filter id="Adobe_OpacityMaskFilter_2_" filterUnits="userSpaceOnUse" x="74.5" y="5" width="19" height="19">
		<feColorMatrix  type="matrix" values="1 0 0 0 0  0 1 0 0 0  0 0 1 0 0  0 0 0 1 0"/>
	</filter>
</defs>
<mask maskUnits="userSpaceOnUse" x="74.5" y="5" width="19" height="19" id="mask2">
	<circle class="st9" cx="83.5" cy="14" r="9"/>
</mask>
<g class="st10">
	<circle class="st0" cx="83.5" cy="14" r="9"/>
	<circle class="st2" cx="84.5" cy="15" r="9"/>
</g>
<defs>
	<filter id="Adobe_OpacityMaskFilter_3_" filterUnits="userSpaceOnUse" x="108.5" y="5" width="19" height="19">
		<feColorMatrix  type="matrix" values="1 0 0 0 0  0 1 0 0 0  0 0 1 0 0  0 0 0 1 0"/>
	</filter>
</defs>
<mask maskUnits="userSpaceOnUse" x="108.5" y="5" width="19" height="19" id="mask3">
	<circle class="st11" cx="117.5" cy="14" r="9"/>
</mask>
<g class="st12">
	<circle class="st0" cx="117.5" cy="14" r="9"/>
	<circle class="st2" cx="118.5" cy="15" r="9"/>
</g>
<path class="st0" d="M203,6l1,1v20l-1-1V6z"/>
<defs>
	<filter id="Adobe_OpacityMaskFilter_4_" filterUnits="userSpaceOnUse" x="142.5" y="5" width="19" height="19">
		<feColorMatrix  type="matrix" values="1 0 0 0 0  0 1 0 0 0  0 0 1 0 0  0 0 0 1 0"/>
	</filter>
</defs>
<mask maskUnits="userSpaceOnUse" x="142.5" y="5" width="19" height="19" id="mask4">
	<circle class="st13" cx="151.5" cy="14" r="9"/>
</mask>
<g class="st14">
	<circle class="st0" cx="151.5" cy="14" r="9"/>
	<circle class="st2" cx="152.5" cy="15" r="9"/>
</g>
<defs>
	<filter id="Adobe_OpacityMaskFilter_5_" filterUnits="userSpaceOnUse" x="176" y="5" width="19" height="19">
		<feColorMatrix  type="matrix" values="1 0 0 0 0  0 1 0 0 0  0 0 1 0 0  0 0 0 1 0"/>
	</filter>
</defs>
<mask maskUnits="userSpaceOnUse" x="176" y="5" width="19" height="19" id="mask5">
	<circle class="st15" cx="185" cy="14" r="9"/>
</mask>
<g class="st16">
	<circle class="st0" cx="185" cy="14" r="9"/>
	<circle class="st2" cx="186" cy="15" r="9"/>
</g>
</svg>
