<svg xmlns="http://www.w3.org/2000/svg" width="22" height="23" fill="none" viewBox="0 0 22 23">
    <path fill="#EAEAEA" d="M19.982 9.284c-1.413-3.633-4.945-6.156-9.083-6.156-4.138.101-7.569 2.826-8.88 6.459h-.606l.1 3.23c.102 5.247 4.441 9.485 9.79 9.384 5.247-.1 9.486-4.44 9.385-9.789l-.101-3.229-.605.101z" opacity=".7"/>
    <path fill="#EAEAEA" d="M11 19.174a9.587 9.587 0 0 0 9.587-9.587 9.587 9.587 0 1 0-19.174 0A9.587 9.587 0 0 0 11 19.174z" opacity=".7"/>
    <path fill="#EAEAEA" d="M11 17.962a8.376 8.376 0 1 0 0-16.753 8.376 8.376 0 0 0 0 16.753z" opacity=".7"/>
    <path fill="#EAEAEA" d="M2.624 12.413a2.624 2.624 0 1 0 0-5.248 2.624 2.624 0 0 0 0 5.248zM19.376 12.008a2.624 2.624 0 1 0 0-5.247 2.624 2.624 0 0 0 0 5.247z" opacity=".7"/>
</svg>
