<svg width="36" height="12" viewBox="0 0 36 12" fill="none" xmlns="http://www.w3.org/2000/svg">
<mask id="mask0" mask-type="alpha" maskUnits="userSpaceOnUse" x="0" y="0" width="36" height="12">
<rect width="36" height="12" rx="1" fill="#FAAC48"/>
</mask>
<g>
<rect width="36" height="12" rx="1" fill="#FAAC48"/>
<path d="M0 0.545455C0 0.244208 0.244208 0 0.545455 0H35C35.5523 0 36 0.447715 36 1V1.09091H0.545456C0.24421 1.09091 0 0.846701 0 0.545455V0.545455Z" fill="#FFD5A0"/>
<path d="M36 11.4545C36 11.7558 35.7558 12 35.4545 12L1 12C0.447716 12 3.58788e-08 11.5523 8.01375e-08 11L8.74228e-08 10.9091L35.4545 10.9091C35.7558 10.9091 36 11.1533 36 11.4545V11.4545Z" fill="#DD871A"/>
<path d="M0.5 -2.18557e-08C0.223857 -9.78512e-09 9.78513e-09 0.223858 2.18557e-08 0.5L5.24537e-07 12L1 10.9091L1 0.5C1 0.223858 0.776142 -3.39262e-08 0.5 -2.18557e-08V-2.18557e-08Z" fill="#FFD5A0"/>
<path d="M35.5 12C35.7761 12 36 11.7761 36 11.5L36 -3.57628e-07L35 1.09091L35 11.5C35 11.7761 35.2239 12 35.5 12V12Z" fill="#DD871A"/>
</g>
<path d="M13.3146 8C14.1677 8 14.597 7.625 14.597 6.86932C14.597 6.16477 14.2643 5.84659 13.3843 5.72727C12.7673 5.64205 12.5419 5.46023 12.5419 5.07386C12.5419 4.68182 12.8156 4.46591 13.3146 4.46591C13.819 4.46591 14.0604 4.68182 14.0604 5.13068H14.5433C14.5433 4.375 14.1355 4 13.3307 4C12.5097 4 12.0644 4.38636 12.0644 5.125C12.0644 5.78977 12.3756 6.09091 13.2126 6.21023C13.8833 6.30682 14.1194 6.5 14.1194 6.91477C14.1194 7.32386 13.8512 7.53409 13.32 7.53409C12.7673 7.53409 12.4829 7.30114 12.4829 6.83523H12C12 7.61364 12.4454 8 13.3146 8Z" fill="#333333"/>
<path d="M16.1446 7.93182H16.5739V7.5H16.2573C15.9407 7.5 15.8602 7.40341 15.8602 7.02273V5.40909H16.5417V5H15.8602V4.22727H15.4363L15.3988 5H14.9105V5.40909H15.388V7.01705C15.388 7.65909 15.6134 7.93182 16.1446 7.93182Z" fill="#333333"/>
<path d="M17.8809 8C18.2833 8 18.5945 7.83523 18.8198 7.53409L18.8359 7.93182H19.2384V6.01705C19.2384 5.28977 18.8842 4.93182 18.1545 4.93182C17.4623 4.93182 17.0867 5.25568 17.0384 5.89205H17.4999C17.516 5.53409 17.7467 5.36364 18.1384 5.36364C18.5677 5.36364 18.7662 5.57386 18.7662 6.02841V6.1875H18.1008C17.3228 6.1875 16.958 6.51705 16.958 7.10227C16.958 7.67614 17.3121 8 17.8809 8ZM17.9506 7.56818C17.6018 7.56818 17.4301 7.39773 17.4301 7.09091C17.4301 6.76136 17.634 6.60227 18.1169 6.60227H18.7662V7.01705C18.5999 7.375 18.3208 7.56818 17.9506 7.56818Z" fill="#333333"/>
<path d="M20.0701 7.93182H20.5423V6.24432C20.6335 5.68182 20.8857 5.4375 21.3364 5.4375H21.4759V4.94318H21.2881C20.8857 4.94318 20.6335 5.13068 20.494 5.54545L20.4726 5H20.0701V7.93182Z" fill="#333333"/>
<path d="M22.9041 7.93182H23.3333V7.5H23.0168C22.7002 7.5 22.6197 7.40341 22.6197 7.02273V5.40909H23.3011V5H22.6197V4.22727H22.1958L22.1583 5H21.67V5.40909H22.1475V7.01705C22.1475 7.65909 22.3729 7.93182 22.9041 7.93182Z" fill="#333333"/>
</svg>
