<?xml version="1.0" encoding="utf-8"?>
<!-- Generator: Adobe Illustrator 21.0.0, SVG Export Plug-In . SVG Version: 6.00 Build 0)  -->
<svg version="1.1" id="Layer_1" xmlns="http://www.w3.org/2000/svg" xmlns:xlink="http://www.w3.org/1999/xlink" x="0px" y="0px"
	 viewBox="0 0 162 198" style="enable-background:new 0 0 162 198;" xml:space="preserve">
<style type="text/css">
	.st0{fill:#FAAC48;}
	.st1{fill:#80CCE8;}
	.st2{fill:#C4C4C4;}
	.st3{fill:#EBEBEB;}
	.st4{fill:#B0E298;}
	.st5{fill:#FFFFFF;}
	.st6{fill:#54BCE3;}
	.st7{fill:#E4E4E4;}
	.st8{fill:#003E6B;}
	.st9{fill:#BEBEBE;}
	.st10{fill:#4873E2;}
	.st11{fill:#254FBB;}
	.st12{opacity:0.2;fill:#FFFFFF;enable-background:new    ;}
	.st13{fill:#3B8ECA;}
	.st14{opacity:0.71;fill:#D4DEE6;enable-background:new    ;}
	.st15{opacity:0.71;fill:#EBEBEB;enable-background:new    ;}
	.st16{opacity:0.71;fill:#FFFFFF;enable-background:new    ;}
</style>
<path class="st0" d="M64,168h34c0.6,0,1,0.4,1,1v10c0,0.6-0.4,1-1,1H64c-0.6,0-1-0.4-1-1v-10C63,168.4,63.4,168,64,168z"/>
<path class="st1" d="M129,150.9c0-0.5,0.4-0.9,0.9-0.9h9.2c0.5,0,0.9,0.4,0.9,0.9v9.2c0,0.5-0.4,0.9-0.9,0.9h-9.2
	c-0.5,0-0.9-0.4-0.9-0.9c0,0,0,0,0,0V150.9z"/>
<path class="st1" d="M129,139.9c0-0.5,0.4-0.9,0.9-0.9h9.2c0.5,0,0.9,0.4,0.9,0.9v9.2c0,0.5-0.4,0.9-0.9,0.9h-9.2
	c-0.5,0-0.9-0.4-0.9-0.9c0,0,0,0,0,0V139.9z"/>
<path class="st2" d="M86,139h40c0.6,0,1,0.4,1,1v20c0,0.6-0.4,1-1,1H86c-0.6,0-1-0.4-1-1v-20C85,139.4,85.4,139,86,139z"/>
<path class="st1" d="M66,150.9c0-0.5,0.4-0.9,0.9-0.9h9.2c0.5,0,0.9,0.4,0.9,0.9v9.2c0,0.5-0.4,0.9-0.9,0.9h-9.2
	c-0.5,0-0.9-0.4-0.9-0.9c0,0,0,0,0,0V150.9z"/>
<path class="st1" d="M66,139.9c0-0.5,0.4-0.9,0.9-0.9h9.2c0.5,0,0.9,0.4,0.9,0.9v9.2c0,0.5-0.4,0.9-0.9,0.9h-9.2
	c-0.5,0-0.9-0.4-0.9-0.9c0,0,0,0,0,0V139.9z"/>
<path class="st2" d="M23,139h40c0.6,0,1,0.4,1,1v20c0,0.6-0.4,1-1,1H23c-0.6,0-1-0.4-1-1v-20C22,139.4,22.4,139,23,139z"/>
<path class="st3" d="M162,97H0v96h162V97z"/>
<path class="st4" d="M162,183H0v15h162V183z"/>
<path class="st5" d="M157,126H5v63h152V126z"/>
<path class="st6" d="M157,189H5v-63h15.9c0.7,3.8,1.7,6.4,2.4,8c18.8,42.9,117.5,4.2,132.9,43.8c0.4,1.2,0.7,2.1,0.8,2.6V189z"/>
<path class="st7" d="M157,101H5.5c21.5,3,67.2,9,78,9S137,104,157,101z"/>
<path class="st8" d="M84.8,119H86l1.9-6.9l1.9,6.9H91l2.4-8.8h-1.2l-1.8,6.9l-1.9-6.9h-1.1l-1.9,6.9l-1.8-6.9h-1.2L84.8,119
	L84.8,119z M93.4,119h1.2l0.8-2.3H99l0.8,2.3h1.2l-3.2-8.8h-1.2L93.4,119z M95.8,115.7l1.4-4l1.4,4H95.8z M103,119h1.2v-7.8h2.6
	v-1.1h-6.4v1.1h2.6C103,111.2,103,119,103,119z M108.1,119h5.9v-1.1h-4.7V115h4v-1.1h-4v-2.7h4.6v-1.1h-5.8V119z M115.7,119h1.2
	v-3.6h1.9l2.1,3.6h1.4l-2.2-3.7c1.3-0.2,1.8-1,1.8-2.5c0-1.9-0.8-2.6-2.8-2.6h-3.4V119z M116.8,114.3v-3.1h2.1
	c1.3,0,1.8,0.4,1.8,1.6s-0.5,1.6-1.8,1.6C119,114.3,116.8,114.3,116.8,114.3z M127.3,119h3.7c1.9,0,2.8-0.8,2.8-2.4
	c0-1.2-0.4-1.9-1.5-2.2v0c0.8-0.3,1.2-0.9,1.2-1.9c0-1.6-0.9-2.3-2.8-2.3h-3.4C127.3,110.2,127.3,119,127.3,119z M128.5,114v-2.7
	h2.2c1.2,0,1.7,0.4,1.7,1.4c0,1-0.5,1.4-1.7,1.4C130.6,114,128.5,114,128.5,114z M128.5,117.9V115h2.2c1.4,0,2,0.4,2,1.5
	c0,1-0.5,1.5-1.8,1.5H128.5L128.5,117.9z M134.5,119h1.2l0.8-2.3h3.6l0.8,2.3h1.2l-3.2-8.8h-1.2L134.5,119z M136.9,115.7l1.4-4
	l1.4,4H136.9L136.9,115.7z M144.1,119h1.2v-7.8h2.6v-1.1h-6.4v1.1h2.6L144.1,119L144.1,119z M149.2,119h1.2v-4h4.3v4h1.2v-8.8h-1.2
	v3.8h-4.3v-3.8h-1.2V119z"/>
<path class="st7" d="M6,125h150l1,1H5L6,125z"/>
<path class="st9" d="M158,97H4v-0.9C4,94.4,5.5,93,7.3,93h147.2c1.9,0,3.3,1.4,3.3,3.1V97H158z"/>
<g>
	<path class="st10" d="M64,139H22v22h42V139z"/>
	<path class="st11" d="M22,139h42v0.9H22V139z"/>
	<path class="st11" d="M22,161v-22h0.7v21.1L22,161z"/>
</g>
<path class="st12" d="M47.9,139.9L22.8,161H39l25.3-21.1H47.9z M67.5,139.9L43.3,161h3.2L70,139.9H67.5z"/>
<g>
	<path class="st10" d="M127,139H85v22h42V139z"/>
	<path class="st11" d="M85,139h42v0.9H85V139z"/>
	<path class="st11" d="M85,161v-22h0.7v21.1L85,161z"/>
</g>
<path class="st12" d="M110.9,139.9L85.8,161H102l25.3-21.1C127.3,139.9,110.9,139.9,110.9,139.9z M130.5,139.9L106.3,161h3.2
	l23.5-21.1H130.5z"/>
<path class="st6" d="M49.3,42h68.5c1.7,0,3,1.3,3,3l0,0c0,1.7-1.3,3-3,3H49.3c-1.7,0-3-1.3-3-3l0,0C46.3,43.3,47.6,42,49.3,42z"/>
<path class="st13" d="M49.3,42L49.3,42c1.7,0,3,1.3,3,3l0,0c0,1.7-1.3,3-3,3h0c-1.7,0-3-1.3-3-3l0,0C46.3,43.3,47.6,42,49.3,42z"/>
<path class="st13" d="M117.7,42L117.7,42c1.7,0,3,1.3,3,3l0,0c0,1.7-1.3,3-3,3h0c-1.7,0-3-1.3-3-3l0,0C114.7,43.3,116.1,42,117.7,42
	z"/>
<path class="st14" d="M0,4c0-2.2,1.8-4,4-4h154c2.2,0,4,1.8,4,4v93H0V4z"/>
<path class="st15" d="M0,97V4h7v93H0z"/>
<path class="st12" d="M124.8,4L7,97H27L144.9,4H124.8z M149.9,4L32.2,97h4L152.9,4H149.9z"/>
<path class="st15" d="M162,97V4h-7v93H162z"/>
<path class="st16" d="M0,4c0-2.2,1.8-4,4-4h154c2.2,0,4,1.8,4,4H0z"/>
</svg>
