<svg width="162" height="198" viewBox="0 0 162 198" fill="none" xmlns="http://www.w3.org/2000/svg">
<path d="M162 97H0V193H162V97Z" fill="#EBEBEB"/>
<path d="M162 183H0V198H162V183Z" fill="#B0E298"/>
<path d="M157 126H5V189H157V126Z" fill="white"/>
<path d="M157 189H5V126H20.9301C21.5939 129.806 22.6559 132.431 23.3197 134.006C42.1703 176.925 140.804 138.206 156.204 177.844C156.602 179.025 156.867 179.944 157 180.469C157 183.356 157 186.244 157 189Z" fill="#54BCE3"/>
<path d="M157 101H5.5C27 104 72.7 110 83.5 110C94.3 110 137 104 157 101Z" fill="#E4E4E4"/>
<path d="M84.8352 119H86.0182L87.9292 112.149L89.8272 119H91.0232L93.4022 110.16H92.2322L90.4252 117.102L88.5142 110.16H87.3702L85.4722 117.076L83.6652 110.16H82.4562L84.8352 119ZM93.4246 119H94.6336L95.4396 116.738H99.0016L99.8076 119H101.056L97.8316 110.16H96.6486L93.4246 119ZM95.8166 115.672L97.2206 111.655L98.6246 115.672H95.8166ZM103.032 119H104.202V111.239H106.815V110.16H100.419V111.239H103.032V119ZM108.1 119H114.015V117.934H109.27V115.009H113.235V113.943H109.27V111.226H113.885V110.16H108.1V119ZM115.679 119H116.849V115.412H118.786L120.892 119H122.244L120.086 115.334C121.373 115.087 121.919 114.294 121.919 112.786C121.919 110.927 121.087 110.16 119.072 110.16H115.679V119ZM116.849 114.346V111.226H118.968C120.294 111.226 120.749 111.655 120.749 112.786C120.749 113.917 120.294 114.346 118.968 114.346H116.849ZM127.308 119H130.987C132.937 119 133.834 118.22 133.834 116.556C133.834 115.386 133.392 114.697 132.378 114.385V114.359C133.184 114.06 133.535 113.436 133.535 112.448C133.535 110.875 132.625 110.16 130.727 110.16H127.308V119ZM128.478 113.956V111.226H130.636C131.871 111.226 132.378 111.616 132.378 112.604C132.378 113.579 131.884 113.956 130.649 113.956H128.478ZM128.478 117.934V115.022H130.675C132.118 115.022 132.664 115.425 132.664 116.478C132.664 117.505 132.144 117.934 130.818 117.934H128.478ZM134.507 119H135.716L136.522 116.738H140.084L140.89 119H142.138L138.914 110.16H137.731L134.507 119ZM136.899 115.672L138.303 111.655L139.707 115.672H136.899ZM144.114 119H145.284V111.239H147.897V110.16H141.501V111.239H144.114V119ZM149.182 119H150.352V115.022H154.629V119H155.799V110.16H154.629V113.93H150.352V110.16H149.182V119Z" fill="#003E6B"/>
<path d="M6 125H156L157 126H5L6 125Z" fill="#E4E4E4"/>
<path d="M158 97H4V96.125C4 94.375 5.45658 93 7.3104 93H154.557C156.411 93 157.868 94.375 157.868 96.125V97H158Z" fill="#BEBEBE"/>
<path opacity="0.71" d="M162 96.968V90.456C162 89.8786 161.517 89.3975 160.937 89.3975H1.06261C0.483006 89.3975 0 89.8786 0 90.456V97H162V96.968Z" fill="#E4E4E4"/>
<path opacity="0.69" d="M162 91.29H0V93.5355H162V91.29Z" fill="#EBEBEB"/>
<path opacity="0.83" d="M159.038 83.6235H2.96243C1.32021 83.6235 0 84.9387 0 86.5747V92.413H162V86.5747C162 84.9708 160.68 83.6235 159.038 83.6235Z" fill="white"/>
<path fill-rule="evenodd" clip-rule="evenodd" d="M48.7771 82.1005C47.4855 83.6262 46.7228 85.6179 46.7228 87.4408H40.9267C40.9267 84.1312 42.257 80.846 44.3464 78.3779C46.4387 75.9064 49.526 74 53.1628 74H108.805C112.436 74 115.524 75.8928 117.62 78.3637C119.713 80.8311 121.041 84.1177 121.041 87.4408H115.245C115.245 85.5993 114.481 83.6091 113.193 82.0907C111.908 80.5759 110.326 79.7741 108.805 79.7741H53.1628C51.6476 79.7741 50.0658 80.5783 48.7771 82.1005Z" fill="#54BCE3"/>
<mask id="mask0" mask-type="alpha" maskUnits="userSpaceOnUse" x="22" y="139" width="42" height="23">
<rect x="22" y="139" width="42" height="22" rx="1" fill="#C4C4C4"/>
</mask>
<g>
<path d="M64 139H22V161H64V139Z" fill="#4873E2"/>
<rect x="22" y="139" width="42" height="0.880001" fill="#254FBB"/>
<path d="M22 161L22 139L22.7119 139L22.7119 160.12L22 161Z" fill="#254FBB"/>
</g>
<path opacity="0.2" d="M47.9329 139.88L22.8136 161H39.0194L64.3051 139.88H47.9329Z" fill="white"/>
<path opacity="0.2" d="M67.5441 139.88L43.2788 161H46.5271L69.9999 139.88H67.5441Z" fill="white"/>
<mask id="mask1" mask-type="alpha" maskUnits="userSpaceOnUse" x="85" y="139" width="42" height="23">
<rect x="85" y="139" width="42" height="22" rx="1" fill="#C4C4C4"/>
</mask>
<g>
<path d="M127 139H85V161H127V139Z" fill="#4873E2"/>
<rect x="85" y="139" width="42" height="0.880001" fill="#254FBB"/>
<path d="M85 161L85 139L85.7119 139L85.7119 160.12L85 161Z" fill="#254FBB"/>
</g>
<path opacity="0.2" d="M110.933 139.88L85.8136 161H102.019L127.305 139.88H110.933Z" fill="white"/>
<path opacity="0.2" d="M130.544 139.88L106.279 161H109.527L133 139.88H130.544Z" fill="white"/>
</svg>
