<svg xmlns="http://www.w3.org/2000/svg" width="162" height="198" fill="none" viewBox="0 0 162 198">
    <path fill="#EBEBEB" d="M162 97H0v96h162V97z"/>
    <path fill="#B0E298" d="M162 183H0v15h162v-15z"/>
    <path fill="#fff" d="M157 126H5v63h152v-63z"/>
    <path fill="#54BCE3" d="M157 189H5v-63h15.93c.664 3.806 1.726 6.431 2.39 8.006 18.85 42.919 117.484 4.2 132.884 43.838.398 1.181.663 2.1.796 2.625V189z"/>
    <path fill="#E4E4E4" d="M157 101H5.5c21.5 3 67.2 9 78 9 10.8 0 53.5-6 73.5-9z"/>
    <path fill="#003E6B" d="M84.835 119h1.183l1.911-6.851L89.827 119h1.196l2.38-8.84h-1.17l-1.808 6.942-1.91-6.942H87.37l-1.898 6.916-1.807-6.916h-1.209l2.38 8.84zm8.59 0h1.209l.806-2.262h3.562l.806 2.262h1.248l-3.224-8.84h-1.183L93.425 119zm2.392-3.328l1.404-4.017 1.404 4.017h-2.808zm7.215 3.328h1.17v-7.761h2.613v-1.079h-6.396v1.079h2.613V119zm5.068 0h5.915v-1.066h-4.745v-2.925h3.965v-1.066h-3.965v-2.717h4.615v-1.066H108.1V119zm7.579 0h1.17v-3.588h1.937l2.106 3.588h1.352l-2.158-3.666c1.287-.247 1.833-1.04 1.833-2.548 0-1.859-.832-2.626-2.847-2.626h-3.393V119zm1.17-4.654v-3.12h2.119c1.326 0 1.781.429 1.781 1.56s-.455 1.56-1.781 1.56h-2.119zM127.308 119h3.679c1.95 0 2.847-.78 2.847-2.444 0-1.17-.442-1.859-1.456-2.171v-.026c.806-.299 1.157-.923 1.157-1.911 0-1.573-.91-2.288-2.808-2.288h-3.419V119zm1.17-5.044v-2.73h2.158c1.235 0 1.742.39 1.742 1.378 0 .975-.494 1.352-1.729 1.352h-2.171zm0 3.978v-2.912h2.197c1.443 0 1.989.403 1.989 1.456 0 1.027-.52 1.456-1.846 1.456h-2.34zm6.029 1.066h1.209l.806-2.262h3.562l.806 2.262h1.248l-3.224-8.84h-1.183l-3.224 8.84zm2.392-3.328l1.404-4.017 1.404 4.017h-2.808zm7.215 3.328h1.17v-7.761h2.613v-1.079h-6.396v1.079h2.613V119zm5.068 0h1.17v-3.978h4.277V119h1.17v-8.84h-1.17v3.77h-4.277v-3.77h-1.17V119z"/>
    <path fill="#E4E4E4" d="M6 125h150l1 1H5l1-1z"/>
    <path fill="#BEBEBE" d="M158 97H4v-.875C4 94.375 5.457 93 7.31 93h147.247c1.854 0 3.311 1.375 3.311 3.125V97H158z"/>
    <path fill="#E4E4E4" d="M162 96.968v-6.512a1.07 1.07 0 0 0-1.063-1.059H1.063A1.07 1.07 0 0 0 0 90.456V97h162v-.032z" opacity=".71"/>
    <path fill="#EBEBEB" d="M162 91.29H0v2.245h162V91.29z" opacity=".69"/>
    <path fill="#fff" d="M159.038 83.624H2.962A2.949 2.949 0 0 0 0 86.574v5.839h162v-5.838a2.97 2.97 0 0 0-2.962-2.951z" opacity=".83"/>
    <path fill="#54BCE3" fill-rule="evenodd" d="M48.777 82.1c-1.291 1.526-2.054 3.518-2.054 5.34h-5.796c0-3.309 1.33-6.594 3.42-9.062C46.438 75.906 49.526 74 53.163 74h55.642c3.631 0 6.719 1.893 8.815 4.364 2.093 2.467 3.421 5.754 3.421 9.077h-5.796c0-1.842-.764-3.832-2.052-5.35-1.285-1.515-2.867-2.317-4.388-2.317H53.163c-1.515 0-3.097.804-4.386 2.326z" clip-rule="evenodd"/>
    <mask id="a" width="42" height="23" x="22" y="139" maskUnits="userSpaceOnUse">
        <rect width="42" height="22" x="22" y="139" fill="#C4C4C4" rx="1"/>
    </mask>
    <g>
        <path fill="#4873E2" d="M64 139H22v22h42v-22z"/>
        <path fill="#254FBB" d="M22 139h42v.88H22z"/>
        <path fill="#254FBB" d="M22 161v-22h.712v21.12L22 161z"/>
    </g>
    <path fill="#fff" d="M47.933 139.88L22.813 161H39.02l25.286-21.12H47.933zM67.544 139.88L43.28 161h3.248L70 139.88h-2.456z" opacity=".2"/>
    <mask id="b" width="11" height="11" x="66" y="139" maskUnits="userSpaceOnUse">
        <path fill="#80CCE8" d="M66 139.917c0-.507.41-.917.917-.917h9.166c.507 0 .917.41.917.917v9.166c0 .507-.41.917-.917.917h-9.166a.916.916 0 0 1-.917-.917v-9.166z"/>
    </mask>
    <g>
        <path fill="#FAAC48" d="M66 139.917c0-.507.41-.917.917-.917h9.166c.507 0 .917.41.917.917v9.166c0 .507-.41.917-.917.917h-9.166a.916.916 0 0 1-.917-.917v-9.166z"/>
        <path fill="#FFD5A0" d="M66 139.458c0-.253.224-.458.5-.458s.5.205.5.458v10.084c0 .253-.224.458-.5.458s-.5-.205-.5-.458v-10.084z"/>
        <path fill="#DD871A" d="M66.917 149h9.625c.253 0 .458.224.458.5s-.205.5-.458.5H66l.917-1z"/>
        <path fill="#DD871A" d="M76.5 150c-.276 0-.5-.205-.5-.458v-10.084c0-.253.224-.458.5-.458s.5.205.5.458v10.084c0 .253-.224.458-.5.458z"/>
        <path fill="#FFD5A0" d="M66 139.5c0-.276.205-.5.458-.5H77l-.917 1h-9.625c-.253 0-.458-.224-.458-.5z"/>
    </g>
    <path fill="#333" fill-rule="evenodd" d="M67.833 145.259l3.715-3.509v1.991l-3.715 3.509v-1.991zm7.334 0l-3.62-3.509v1.991l3.62 3.509v-1.991z" clip-rule="evenodd"/>
    <mask id="c" width="11" height="11" x="66" y="150" maskUnits="userSpaceOnUse">
        <path fill="#80CCE8" d="M66 150.917c0-.507.41-.917.917-.917h9.166c.507 0 .917.41.917.917v9.166c0 .507-.41.917-.917.917h-9.166a.916.916 0 0 1-.917-.917v-9.166z"/>
    </mask>
    <g>
        <path fill="#FAAC48" d="M66 150.917c0-.507.41-.917.917-.917h9.166c.507 0 .917.41.917.917v9.166c0 .507-.41.917-.917.917h-9.166a.916.916 0 0 1-.917-.917v-9.166z"/>
        <path fill="#FFD5A0" d="M66 150.458c0-.253.224-.458.5-.458s.5.205.5.458v10.084c0 .253-.224.458-.5.458s-.5-.205-.5-.458v-10.084z"/>
        <path fill="#DD871A" d="M66.917 160h9.625c.253 0 .458.224.458.5s-.205.5-.458.5H66l.917-1z"/>
        <path fill="#DD871A" d="M76.5 161c-.276 0-.5-.205-.5-.458v-10.084c0-.253.224-.458.5-.458s.5.205.5.458v10.084c0 .253-.224.458-.5.458z"/>
        <path fill="#FFD5A0" d="M66 150.5c0-.276.205-.5.458-.5H77l-.917 1h-9.625c-.253 0-.458-.224-.458-.5z"/>
    </g>
    <path fill="#333" fill-rule="evenodd" d="M75.166 154.991l-3.714 3.509v-1.991L75.167 153v1.991zm-7.333 0l3.62 3.509v-1.991L67.832 153v1.991z" clip-rule="evenodd"/>
    <mask id="d" width="42" height="23" x="85" y="139" maskUnits="userSpaceOnUse">
        <rect width="42" height="22" x="85" y="139" fill="#C4C4C4" rx="1"/>
    </mask>
    <g>
        <path fill="#4873E2" d="M127 139H85v22h42v-22z"/>
        <path fill="#254FBB" d="M85 139h42v.88H85z"/>
        <path fill="#254FBB" d="M85 161v-22h.712v21.12L85 161z"/>
    </g>
    <path fill="#fff" d="M110.933 139.88L85.813 161h16.206l25.286-21.12h-16.372zM130.544 139.88L106.279 161h3.248L133 139.88h-2.456z" opacity=".2"/>
    <mask id="e" width="11" height="11" x="129" y="139" maskUnits="userSpaceOnUse">
        <path fill="#80CCE8" d="M129 139.917c0-.507.41-.917.917-.917h9.166c.507 0 .917.41.917.917v9.166c0 .507-.41.917-.917.917h-9.166a.916.916 0 0 1-.917-.917v-9.166z"/>
    </mask>
    <g>
        <path fill="#FAAC48" d="M129 139.917c0-.507.41-.917.917-.917h9.166c.507 0 .917.41.917.917v9.166c0 .507-.41.917-.917.917h-9.166a.916.916 0 0 1-.917-.917v-9.166z"/>
        <path fill="#FFD5A0" d="M129 139.458c0-.253.224-.458.5-.458s.5.205.5.458v10.084c0 .253-.224.458-.5.458s-.5-.205-.5-.458v-10.084z"/>
        <path fill="#DD871A" d="M129.917 149h9.625c.253 0 .458.224.458.5s-.205.5-.458.5H129l.917-1z"/>
        <path fill="#DD871A" d="M139.5 150c-.276 0-.5-.205-.5-.458v-10.084c0-.253.224-.458.5-.458s.5.205.5.458v10.084c0 .253-.224.458-.5.458z"/>
        <path fill="#FFD5A0" d="M129 139.5c0-.276.205-.5.458-.5H140l-.917 1h-9.625c-.253 0-.458-.224-.458-.5z"/>
    </g>
    <path fill="#333" fill-rule="evenodd" d="M130.833 145.259l3.715-3.509v1.991l-3.715 3.509v-1.991zm7.334 0l-3.619-3.509v1.991l3.619 3.509v-1.991z" clip-rule="evenodd"/>
    <mask id="f" width="11" height="11" x="129" y="150" maskUnits="userSpaceOnUse">
        <path fill="#80CCE8" d="M129 150.917c0-.507.41-.917.917-.917h9.166c.507 0 .917.41.917.917v9.166c0 .507-.41.917-.917.917h-9.166a.916.916 0 0 1-.917-.917v-9.166z"/>
    </mask>
    <g>
        <path fill="#FAAC48" d="M129 150.917c0-.507.41-.917.917-.917h9.166c.507 0 .917.41.917.917v9.166c0 .507-.41.917-.917.917h-9.166a.916.916 0 0 1-.917-.917v-9.166z"/>
        <path fill="#FFD5A0" d="M129 150.458c0-.253.224-.458.5-.458s.5.205.5.458v10.084c0 .253-.224.458-.5.458s-.5-.205-.5-.458v-10.084z"/>
        <path fill="#DD871A" d="M129.917 160h9.625c.253 0 .458.224.458.5s-.205.5-.458.5H129l.917-1z"/>
        <path fill="#DD871A" d="M139.5 161c-.276 0-.5-.205-.5-.458v-10.084c0-.253.224-.458.5-.458s.5.205.5.458v10.084c0 .253-.224.458-.5.458z"/>
        <path fill="#FFD5A0" d="M129 150.5c0-.276.205-.5.458-.5H140l-.917 1h-9.625c-.253 0-.458-.224-.458-.5z"/>
    </g>
    <path fill="#333" fill-rule="evenodd" d="M138.167 154.991l-3.715 3.509v-1.991l3.715-3.509v1.991zm-7.334 0l3.619 3.509v-1.991L130.833 153v1.991z" clip-rule="evenodd"/>
    <mask id="g" width="36" height="12" x="63" y="168" maskUnits="userSpaceOnUse">
        <rect width="36" height="12" x="63" y="168" fill="#FAAC48" rx="1"/>
    </mask>
    <g>
        <rect width="36" height="12" x="63" y="168" fill="#FAAC48" rx="1"/>
        <path fill="#FFD5A0" d="M63 168.545c0-.301.244-.545.545-.545H98a1 1 0 0 1 1 1v.091H63.545a.545.545 0 0 1-.545-.546z"/>
        <path fill="#DD871A" d="M99 179.455a.545.545 0 0 1-.546.545H64a1 1 0 0 1-1-1v-.091h35.454c.302 0 .546.244.546.546z"/>
        <path fill="#FFD5A0" d="M63.5 168a.5.5 0 0 0-.5.5V180l1-1.091V168.5a.5.5 0 0 0-.5-.5z"/>
        <path fill="#DD871A" d="M98.5 180a.5.5 0 0 0 .5-.5V168l-1 1.091V179.5a.5.5 0 0 0 .5.5z"/>
    </g>
    <path fill="#333" d="M76.315 176c.853 0 1.282-.375 1.282-1.131 0-.704-.333-1.022-1.213-1.142-.617-.085-.842-.267-.842-.653 0-.392.274-.608.773-.608.504 0 .745.216.745.665h.483c0-.756-.408-1.131-1.212-1.131-.821 0-1.267.386-1.267 1.125 0 .665.312.966 1.149 1.085.67.097.906.29.906.705 0 .409-.268.619-.799.619-.553 0-.837-.233-.837-.699H75c0 .779.445 1.165 1.315 1.165zM79.145 175.932h.429v-.432h-.317c-.316 0-.397-.097-.397-.477v-1.614h.682V173h-.682v-.773h-.424L78.4 173h-.489v.409h.478v1.608c0 .642.225.915.757.915zM80.88 176c.403 0 .715-.165.94-.466l.016.398h.402v-1.915c0-.727-.354-1.085-1.084-1.085-.692 0-1.067.324-1.116.96h.462c.016-.358.247-.528.638-.528.43 0 .628.21.628.664v.16h-.665c-.778 0-1.143.329-1.143.914 0 .574.354.898.923.898zm.07-.432c-.348 0-.52-.17-.52-.477 0-.33.204-.489.687-.489h.65v.415c-.167.358-.446.551-.816.551zM83.07 175.932h.472v-1.688c.091-.562.344-.806.794-.806h.14v-.495h-.188c-.402 0-.654.188-.794.602l-.021-.545h-.403v2.932zM85.904 175.932h.43v-.432h-.317c-.317 0-.397-.097-.397-.477v-1.614h.681V173h-.681v-.773h-.424l-.038.773h-.488v.409h.477v1.608c0 .642.226.915.757.915z"/>
</svg>
