<svg xmlns="http://www.w3.org/2000/svg" width="162" height="198" fill="none" viewBox="0 0 162 198">
    <rect width="74.46" height="6" x="46.286" y="42" fill="#54BCE3" rx="3"/>
    <rect width="6.037" height="6" x="46.286" y="42" fill="#3B8ECA" rx="3"/>
    <rect width="6.037" height="6" x="114.708" y="42" fill="#3B8ECA" rx="3"/>
    <path fill="#D4DEE6" d="M0 4a4 4 0 0 1 4-4h154a4 4 0 0 1 4 4v93H0V4z" opacity=".71"/>
    <path fill="#EBEBEB" d="M0 97V4h7.043v93H0z" opacity=".71"/>
    <path fill="#fff" d="M124.77 4L7.043 97h19.92L144.894 4H124.77zM149.925 4L32.199 97h3.992L152.944 4h-3.019z" opacity=".2"/>
    <path fill="#EBEBEB" d="M162 97V4h-7.044v93H162z" opacity=".71"/>
    <path fill="#fff" d="M0 4a4 4 0 0 1 4-4h154a4 4 0 0 1 4 4H0z" opacity=".71"/>
    <path fill="#868CA6" d="M129.397 128.245c-.727 0-1.837-.266-2.449-.456-.613-.19-1.11-2.393-1.11-2.393-1.608-6.228-3.784-15.393-3.833-20.918-.01-1.095 0-22.359 0-22.359h14.769v22.359c0 5.707-2.555 14.69-4.162 20.918 0 0-.498 2.203-1.11 2.393-.612.19-1.722.456-2.449.456"/>
    <path fill="#C0C3D2" d="M129.353 127.479c-.651 0-1.646-.228-2.182-.418-.536-.152-.995-2.165-.995-2.165-1.454-5.583-2.93-13.813-3.351-18.713V83.282h13.129s.229 20.319 0 22.901c-.421 4.9-2.238 13.092-3.693 18.675 0 0-.459 1.975-.995 2.165-.536.152-1.531.418-2.181.418" opacity=".7"/>
    <path fill="#868CA6" d="M120.364 82.119h18.872v1.63h-18.872z"/>
    <path fill="#fff" d="M122.005 88.989h14.769v13.043h-14.769z"/>
    <path fill="#000" fill-opacity=".1" d="M132.671 83.75h4.103v21.611c0 2.401-1.641 10.005-1.641 10.005s-3.103 11.83-3.282 12.006c-.18.175-2.462.4-2.462.4l3.282-22.411V83.75z"/>
    <path fill="#868CA6" d="M118.723 79.674h21.334v1.63h-21.334z"/>
    <path fill="#577898" d="M122.825 81.304h13.128v.815h-13.128z"/>
    <path fill="#868CA6" fill-rule="evenodd" d="M142.249 80.59c.206.344.269.736.269 1.122 0 .386-.063.778-.269 1.122a1.672 1.672 0 0 1-.879.711c-.32.12-.672.163-1.006.184-.334.02-.714.02-1.11.02h-.018v-1.63c.418 0 .749 0 1.025-.017.282-.017.442-.05.533-.084a.407.407 0 0 0 .041-.017l.005-.004a1.121 1.121 0 0 0 .037-.285c0-.11-.01-.183-.02-.23a.281.281 0 0 0-.017-.056l-.005-.003a.38.38 0 0 0-.041-.018c-.091-.034-.251-.066-.533-.083a17.653 17.653 0 0 0-1.025-.018v-1.63h.018c.396 0 .776 0 1.11.02.334.021.686.066 1.006.185.341.127.662.346.879.71z" clip-rule="evenodd"/>
    <path fill="#333" d="M124.581 99.239h1.09v-2.237l1.489-1.564 2.446 3.8h1.272l-2.967-4.587 2.93-3.173h-1.344l-3.826 4.12v-4.12h-1.09v7.76z"/>
    <path fill="#333" d="M132.326 97.819h.944v-1.673h1.676v-.867h-1.676v-1.673h-.944v1.673h-1.676v.867h1.676v1.673z"/>
    <path fill="#868CA6" d="M33.67 128.245c-.727 0-1.837-.266-2.45-.456-.612-.19-1.11-2.393-1.11-2.393-1.607-6.228-3.783-15.393-3.832-20.918-.01-1.095 0-22.359 0-22.359h14.769v22.359c0 5.707-2.555 14.69-4.162 20.918 0 0-.498 2.203-1.11 2.393-.613.19-1.722.456-2.45.456"/>
    <path fill="#C0C3D2" d="M33.625 127.479c-.65 0-1.645-.228-2.181-.418-.536-.152-.995-2.165-.995-2.165-1.455-5.583-2.93-13.813-3.35-18.713V83.282h13.128s.23 20.319 0 22.901c-.421 4.9-2.238 13.092-3.693 18.675 0 0-.46 1.975-.995 2.165-.536.152-1.53.418-2.182.418" opacity=".7"/>
    <path fill="#868CA6" d="M24.637 82.119h18.872v1.63H24.637z"/>
    <path fill="#fff" d="M26.277 88.989h14.769v13.043H26.277z"/>
    <path fill="#000" fill-opacity=".1" d="M36.944 83.75h4.103v21.611c0 2.401-1.641 10.005-1.641 10.005s-3.103 11.83-3.282 12.006c-.18.175-2.462.4-2.462.4l3.282-22.411V83.75z"/>
    <path fill="#868CA6" d="M22.995 79.674h21.334v1.63H22.995z"/>
    <path fill="#577898" d="M27.098 81.304h13.128v.815H27.098z"/>
    <path fill="#868CA6" fill-rule="evenodd" d="M46.522 80.59c.205.344.268.736.268 1.122 0 .386-.063.778-.268 1.122a1.672 1.672 0 0 1-.88.711c-.319.12-.672.163-1.006.184-.333.02-.714.02-1.11.02h-.018v-1.63c.418 0 .75 0 1.026-.017.282-.017.442-.05.532-.084a.348.348 0 0 0 .041-.017l.006-.004a1.107 1.107 0 0 0 .036-.285c0-.11-.009-.183-.02-.23a.348.348 0 0 0-.013-.048l-.003-.008c-.002 0-.003-.002-.005-.003a.328.328 0 0 0-.042-.018c-.09-.034-.25-.066-.532-.083a17.686 17.686 0 0 0-1.026-.018v-1.63h.019c.395 0 .776 0 1.11.02.333.021.686.066 1.006.185.34.127.662.346.879.71z" clip-rule="evenodd"/>
    <path fill="#333" d="M28.854 99.239h1.09v-2.237l1.489-1.564 2.446 3.8h1.271l-2.966-4.587 2.93-3.173H33.77l-3.826 4.12v-4.12h-1.09v7.76z"/>
    <path fill="#333" d="M37.555 96.146h1.664v-.867H34.922v.867h2.633z"/>
    <path fill="#868CA6" d="M59.852 128.245c-.727 0-1.837-.266-2.45-.456-.612-.19-1.11-2.393-1.11-2.393-1.607-6.228-3.783-15.393-3.833-20.918-.01-1.095 0-22.359 0-22.359h14.77v22.359c0 5.707-2.555 14.69-4.162 20.918 0 0-.498 2.203-1.11 2.393-.613.19-1.723.456-2.45.456"/>
    <path fill="#C0C3D2" d="M59.807 127.479c-.65 0-1.646-.228-2.181-.418-.536-.152-.995-2.165-.995-2.165-1.455-5.583-2.93-13.813-3.351-18.713V83.282h13.128s.23 20.319 0 22.901c-.42 4.9-2.238 13.092-3.692 18.675 0 0-.46 1.975-.995 2.165-.536.152-1.531.418-2.182.418" opacity=".7"/>
    <path fill="#868CA6" d="M50.818 82.119H69.69v1.63H50.818z"/>
    <path fill="#fff" d="M52.459 88.989h14.769v13.043H52.459z"/>
    <path fill="#000" fill-opacity=".1" d="M63.126 83.75h4.103v21.611c0 2.401-1.641 10.005-1.641 10.005s-3.103 11.83-3.282 12.006c-.18.175-2.462.4-2.462.4l3.282-22.411V83.75z"/>
    <path fill="#868CA6" d="M49.177 79.674h21.334v1.63H49.177z"/>
    <path fill="#577898" d="M53.28 81.304h13.128v.815H53.28z"/>
    <path fill="#868CA6" fill-rule="evenodd" d="M72.704 80.59c.205.344.268.736.268 1.122 0 .386-.063.778-.268 1.122a1.672 1.672 0 0 1-.88.711c-.32.12-.672.163-1.006.184-.333.02-.714.02-1.11.02h-.018v-1.63c.418 0 .75 0 1.026-.017.282-.017.442-.05.532-.084a.36.36 0 0 0 .041-.017l.006-.004.003-.007a.338.338 0 0 0 .013-.048c.01-.047.02-.121.02-.23 0-.11-.01-.183-.02-.23a.338.338 0 0 0-.016-.056l-.006-.003a.338.338 0 0 0-.04-.018c-.091-.034-.251-.066-.533-.083a17.688 17.688 0 0 0-1.026-.018v-1.63h.019c.395 0 .776 0 1.11.02.333.021.686.066 1.005.185.342.127.663.346.88.71z" clip-rule="evenodd"/>
    <path fill="#000" d="M54.23 98.848h1.127l.75-1.986h3.318l.751 1.986h1.163l-3.003-7.761h-1.102l-3.003 7.76zm2.229-2.922l1.307-3.527 1.308 3.527H56.46zM63.202 97.428h.944v-1.673h1.676v-.868h-1.676v-1.672h-.944v1.672h-1.676v.868h1.676v1.673z"/>
    <path fill="#868CA6" d="M101.579 128.245c-.727 0-1.837-.266-2.45-.456-.612-.19-1.11-2.393-1.11-2.393-1.607-6.228-3.783-15.393-3.832-20.918-.01-1.095 0-22.359 0-22.359h14.769v22.359c0 5.707-2.555 14.69-4.162 20.918 0 0-.498 2.203-1.11 2.393-.612.19-1.722.456-2.45.456"/>
    <path fill="#C0C3D2" d="M101.535 127.479c-.651 0-1.646-.228-2.182-.418-.536-.152-.995-2.165-.995-2.165-1.455-5.583-2.93-13.813-3.35-18.713V83.282h13.128s.229 20.319 0 22.901c-.421 4.9-2.238 13.092-3.693 18.675 0 0-.459 1.975-.995 2.165-.536.152-1.531.418-2.181.418" opacity=".7"/>
    <path fill="#868CA6" d="M92.546 82.119h18.872v1.63H92.546z"/>
    <path fill="#fff" d="M94.186 88.989h14.769v13.043H94.186z"/>
    <path fill="#000" fill-opacity=".1" d="M104.853 83.75h4.103v21.611c0 2.401-1.641 10.005-1.641 10.005s-3.103 11.83-3.282 12.006c-.18.175-2.462.4-2.462.4l3.282-22.411V83.75z"/>
    <path fill="#868CA6" d="M90.904 79.674h21.334v1.63H90.904z"/>
    <path fill="#577898" d="M95.007 81.304h13.128v.815H95.007z"/>
    <path fill="#868CA6" fill-rule="evenodd" d="M114.431 80.59c.205.344.269.736.269 1.122 0 .386-.064.778-.269 1.122a1.672 1.672 0 0 1-.879.711c-.32.12-.673.163-1.006.184-.334.02-.714.02-1.11.02h-.019v-1.63c.419 0 .749 0 1.026-.017.282-.017.442-.05.533-.084a.407.407 0 0 0 .041-.017l.005-.004a1.121 1.121 0 0 0 .037-.285c0-.11-.01-.183-.02-.23a.281.281 0 0 0-.017-.056l-.005-.003a.38.38 0 0 0-.041-.018c-.091-.034-.251-.066-.533-.083a17.69 17.69 0 0 0-1.026-.018v-1.63h.019c.396 0 .776 0 1.11.02.333.021.686.066 1.006.185.341.127.662.346.879.71z" clip-rule="evenodd"/>
    <path fill="#000" d="M96.005 98.848h1.126l.75-1.986h3.319l.75 1.986h1.163l-3.003-7.761h-1.102l-3.003 7.76zm2.228-2.922l1.308-3.527 1.307 3.527h-2.615zM105.794 95.755h1.803v-.868H103.3v.868h2.494z"/>
    <path fill="#B2B2B2" d="M10.244 137.951v-31.643l1.228-1.144h56.461s-24.057 1.144-34.368 1.144c-10.31 0-15.547 21.095-17.183 31.643h-6.138zM152.756 137.951v-31.643l-1.228-1.144H95.067s24.057 1.144 34.368 1.144c10.31 0 15.547 21.095 17.183 31.643h6.138z"/>
    <path fill="#fff" d="M78 72.779a4.5 4.5 0 1 1 9 0v31.565h-9V72.779z"/>
    <path fill="#fff" d="M5 105.524a2 2 0 0 1 2-2h149a2 2 0 0 1 2 2v.459H5v-.459z"/>
    <path fill="#B2B2B2" fill-rule="evenodd" d="M158 105.983H5l2.267 1.64h19.006v-1.047H41v1.047h11.455v-1.047h14.727v1.047h27v-1.047h14.727v1.047H122v-1.047h14.727v1.047h19.006l2.267-1.64z" clip-rule="evenodd"/>
    <path fill="#fff" d="M5 140v-34.017l1.311-1.229h60.311s-25.698 1.229-36.71 1.229c-11.014 0-16.608 22.678-18.356 34.017H5zM158 140v-34.017l-1.311-1.229H96.378s25.698 1.229 36.711 1.229c11.013 0 16.607 22.678 18.355 34.017H158z"/>
    <path fill="#EBEBEB" d="M162 97H0v96h162V97z"/>
    <path fill="#B0E298" d="M162 183H0v15h162v-15z"/>
    <path fill="#fff" d="M157 126H5v63h152v-63z"/>
    <path fill="#54BCE3" d="M157 189H5v-63h15.93c.664 3.806 1.726 6.431 2.39 8.006 18.85 42.919 117.484 4.2 132.883 43.838.399 1.181.664 2.1.797 2.625V189z"/>
    <path fill="#E4E4E4" d="M157 101H5.5c21.5 3 67.2 9 78 9 10.8 0 53.5-6 73.5-9z"/>
    <path fill="#003E6B" d="M84.835 119h1.183l1.911-6.851L89.827 119h1.196l2.38-8.84h-1.17l-1.808 6.942-1.91-6.942H87.37l-1.898 6.916-1.807-6.916h-1.209l2.38 8.84zm8.59 0h1.209l.806-2.262h3.562l.806 2.262h1.248l-3.224-8.84h-1.183L93.425 119zm2.392-3.328l1.404-4.017 1.404 4.017h-2.808zm7.215 3.328h1.17v-7.761h2.613v-1.079h-6.396v1.079h2.613V119zm5.068 0h5.915v-1.066h-4.745v-2.925h3.965v-1.066h-3.965v-2.717h4.615v-1.066H108.1V119zm7.579 0h1.17v-3.588h1.937l2.106 3.588h1.352l-2.158-3.666c1.287-.247 1.833-1.04 1.833-2.548 0-1.859-.832-2.626-2.847-2.626h-3.393V119zm1.17-4.654v-3.12h2.119c1.326 0 1.781.429 1.781 1.56s-.455 1.56-1.781 1.56h-2.119zM127.308 119h3.679c1.95 0 2.847-.78 2.847-2.444 0-1.17-.442-1.859-1.456-2.171v-.026c.806-.299 1.157-.923 1.157-1.911 0-1.573-.91-2.288-2.808-2.288h-3.419V119zm1.17-5.044v-2.73h2.158c1.235 0 1.742.39 1.742 1.378 0 .975-.494 1.352-1.729 1.352h-2.171zm0 3.978v-2.912h2.197c1.443 0 1.989.403 1.989 1.456 0 1.027-.52 1.456-1.846 1.456h-2.34zm6.029 1.066h1.209l.806-2.262h3.562l.806 2.262h1.248l-3.224-8.84h-1.183l-3.224 8.84zm2.392-3.328l1.404-4.017 1.404 4.017h-2.808zm7.215 3.328h1.17v-7.761h2.613v-1.079h-6.396v1.079h2.613V119zm5.068 0h1.17v-3.978h4.277V119h1.17v-8.84h-1.17v3.77h-4.277v-3.77h-1.17V119z"/>
    <path fill="#E4E4E4" d="M6 125h150l1 1H5l1-1z"/>
    <path fill="#BEBEBE" d="M158 97H4v-.875C4 94.375 5.457 93 7.31 93h147.247c1.854 0 3.311 1.375 3.311 3.125V97H158z"/>
    <mask id="a" width="43" height="23" x="21" y="138" maskUnits="userSpaceOnUse">
        <rect width="42" height="22" x="22" y="139" fill="#C4C4C4" rx="1"/>
    </mask>
    <g>
        <path fill="#4873E2" d="M64 139H22v22h42v-22z"/>
        <path fill="#254FBB" d="M22 139h42v.88H22z"/>
        <path fill="#254FBB" d="M22 161v-22h.712v21.12L22 161z"/>
    </g>
    <path fill="#fff" d="M47.933 139.88L22.813 161H39.02l25.286-21.12H47.933zM67.544 139.88L43.28 161h3.248L70 139.88h-2.456z" opacity=".2"/>
    <mask id="b" width="12" height="12" x="65" y="149" maskUnits="userSpaceOnUse">
        <path fill="#80CCE8" d="M66 150.917c0-.507.41-.917.917-.917h9.166c.507 0 .917.41.917.917v9.166c0 .507-.41.917-.917.917h-9.166a.916.916 0 0 1-.917-.917v-9.166z"/>
    </mask>
    <g>
        <path fill="#DD871A" d="M66 150.917c0-.507.41-.917.917-.917h9.166c.507 0 .917.41.917.917v9.166c0 .507-.41.917-.917.917h-9.166a.916.916 0 0 1-.917-.917v-9.166z"/>
        <path fill="#BA6C08" d="M66 150.458c0-.253.224-.458.5-.458s.5.205.5.458v10.084c0 .253-.224.458-.5.458s-.5-.205-.5-.458v-10.084z"/>
        <path fill="#BA6C08" d="M66.917 160h9.625c.253 0 .458.224.458.5s-.205.5-.458.5H66l.917-1z"/>
        <path fill="#BA6C08" d="M76.5 161c-.276 0-.5-.205-.5-.458v-10.084c0-.253.224-.458.5-.458s.5.205.5.458v10.084c0 .253-.224.458-.5.458z"/>
        <path fill="#BA6C08" d="M66 150.5c0-.276.205-.5.458-.5H77l-.917 1h-9.625c-.253 0-.458-.224-.458-.5z"/>
    </g>
    <path fill="#333" fill-rule="evenodd" d="M75.166 154.991l-3.714 3.509v-1.991L75.167 153v1.991zm-7.333 0l3.62 3.509v-1.991L67.832 153v1.991z" clip-rule="evenodd"/>
    <mask id="c" width="12" height="12" x="65" y="138" maskUnits="userSpaceOnUse">
        <path fill="#DD871A" d="M66 139.917c0-.507.41-.917.917-.917h9.166c.507 0 .917.41.917.917v9.166c0 .507-.41.917-.917.917h-9.166a.916.916 0 0 1-.917-.917v-9.166z"/>
    </mask>
    <g>
        <path fill="#DD871A" d="M66 139.917c0-.507.41-.917.917-.917h9.166c.507 0 .917.41.917.917v9.166c0 .507-.41.917-.917.917h-9.166a.916.916 0 0 1-.917-.917v-9.166z"/>
        <path fill="#BA6C08" d="M66 139.458c0-.253.224-.458.5-.458s.5.205.5.458v10.084c0 .253-.224.458-.5.458s-.5-.205-.5-.458v-10.084z"/>
        <path fill="#BA6C08" d="M66.917 149h9.625c.253 0 .458.224.458.5s-.205.5-.458.5H66l.917-1z"/>
        <path fill="#BA6C08" d="M76.5 150c-.276 0-.5-.205-.5-.458v-10.084c0-.253.224-.458.5-.458s.5.205.5.458v10.084c0 .253-.224.458-.5.458z"/>
        <path fill="#BA6C08" d="M66 139.5c0-.276.205-.5.458-.5H77l-.917 1h-9.625c-.253 0-.458-.224-.458-.5z"/>
    </g>
    <path fill="#333" fill-rule="evenodd" d="M67.833 145.259l3.715-3.509v1.991l-3.715 3.509v-1.991zm7.334 0l-3.62-3.509v1.991l3.62 3.509v-1.991z" clip-rule="evenodd"/>
    <mask id="d" width="12" height="12" x="65" y="138" maskUnits="userSpaceOnUse">
        <path fill="#80CCE8" d="M66 139.917c0-.507.41-.917.917-.917h9.166c.507 0 .917.41.917.917v9.166c0 .507-.41.917-.917.917h-9.166a.916.916 0 0 1-.917-.917v-9.166z"/>
    </mask>
    <g>
        <path fill="#FAAC48" d="M66 139.917c0-.507.41-.917.917-.917h9.166c.507 0 .917.41.917.917v9.166c0 .507-.41.917-.917.917h-9.166a.916.916 0 0 1-.917-.917v-9.166z"/>
        <path fill="#FFD5A0" d="M66 139.458c0-.253.224-.458.5-.458s.5.205.5.458v10.084c0 .253-.224.458-.5.458s-.5-.205-.5-.458v-10.084z"/>
        <path fill="#DD871A" d="M66.917 149h9.625c.253 0 .458.224.458.5s-.205.5-.458.5H66l.917-1z"/>
        <path fill="#DD871A" d="M76.5 150c-.276 0-.5-.205-.5-.458v-10.084c0-.253.224-.458.5-.458s.5.205.5.458v10.084c0 .253-.224.458-.5.458z"/>
        <path fill="#FFD5A0" d="M66 139.5c0-.276.205-.5.458-.5H77l-.917 1h-9.625c-.253 0-.458-.224-.458-.5z"/>
    </g>
    <path fill="#333" fill-rule="evenodd" d="M67.833 145.259l3.715-3.509v1.991l-3.715 3.509v-1.991zm7.334 0l-3.62-3.509v1.991l3.62 3.509v-1.991z" clip-rule="evenodd"/>
    <mask id="e" width="12" height="12" x="65" y="149" maskUnits="userSpaceOnUse">
        <path fill="#80CCE8" d="M66 150.917c0-.507.41-.917.917-.917h9.166c.507 0 .917.41.917.917v9.166c0 .507-.41.917-.917.917h-9.166a.916.916 0 0 1-.917-.917v-9.166z"/>
    </mask>
    <g>
        <path fill="#FAAC48" d="M66 150.917c0-.507.41-.917.917-.917h9.166c.507 0 .917.41.917.917v9.166c0 .507-.41.917-.917.917h-9.166a.916.916 0 0 1-.917-.917v-9.166z"/>
        <path fill="#FFD5A0" d="M66 150.458c0-.253.224-.458.5-.458s.5.205.5.458v10.084c0 .253-.224.458-.5.458s-.5-.205-.5-.458v-10.084z"/>
        <path fill="#DD871A" d="M66.917 160h9.625c.253 0 .458.224.458.5s-.205.5-.458.5H66l.917-1z"/>
        <path fill="#DD871A" d="M76.5 161c-.276 0-.5-.205-.5-.458v-10.084c0-.253.224-.458.5-.458s.5.205.5.458v10.084c0 .253-.224.458-.5.458z"/>
        <path fill="#FFD5A0" d="M66 150.5c0-.276.205-.5.458-.5H77l-.917 1h-9.625c-.253 0-.458-.224-.458-.5z"/>
    </g>
    <path fill="#333" fill-rule="evenodd" d="M75.166 154.991l-3.714 3.509v-1.991L75.167 153v1.991zm-7.333 0l3.62 3.509v-1.991L67.832 153v1.991z" clip-rule="evenodd"/>
    <mask id="f" width="43" height="23" x="84" y="138" maskUnits="userSpaceOnUse">
        <rect width="42" height="22" x="85" y="139" fill="#C4C4C4" rx="1"/>
    </mask>
    <g>
        <path fill="#4873E2" d="M127 139H85v22h42v-22z"/>
        <path fill="#254FBB" d="M85 139h42v.88H85z"/>
        <path fill="#254FBB" d="M85 161v-22h.712v21.12L85 161z"/>
    </g>
    <path fill="#fff" d="M110.933 139.88L85.813 161h16.206l25.286-21.12h-16.372zM130.544 139.88L106.279 161h3.248L133 139.88h-2.456z" opacity=".2"/>
    <mask id="g" width="12" height="12" x="128" y="138" maskUnits="userSpaceOnUse">
        <path fill="#DD871A" d="M129 139.917c0-.507.41-.917.917-.917h9.166c.507 0 .917.41.917.917v9.166c0 .507-.41.917-.917.917h-9.166a.916.916 0 0 1-.917-.917v-9.166z"/>
    </mask>
    <g>
        <path fill="#DD871A" d="M129 139.917c0-.507.41-.917.917-.917h9.166c.507 0 .917.41.917.917v9.166c0 .507-.41.917-.917.917h-9.166a.916.916 0 0 1-.917-.917v-9.166z"/>
        <path fill="#BA6C08" d="M129 139.458c0-.253.224-.458.5-.458s.5.205.5.458v10.084c0 .253-.224.458-.5.458s-.5-.205-.5-.458v-10.084z"/>
        <path fill="#BA6C08" d="M129.917 149h9.625c.253 0 .458.224.458.5s-.205.5-.458.5H129l.917-1z"/>
        <path fill="#BA6C08" d="M139.5 150c-.276 0-.5-.205-.5-.458v-10.084c0-.253.224-.458.5-.458s.5.205.5.458v10.084c0 .253-.224.458-.5.458z"/>
        <path fill="#BA6C08" d="M129 139.5c0-.276.205-.5.458-.5H140l-.917 1h-9.625c-.253 0-.458-.224-.458-.5z"/>
    </g>
    <path fill="#333" fill-rule="evenodd" d="M130.833 145.259l3.715-3.509v1.991l-3.715 3.509v-1.991zm7.334 0l-3.619-3.509v1.991l3.619 3.509v-1.991z" clip-rule="evenodd"/>
    <mask id="h" width="12" height="12" x="128" y="138" maskUnits="userSpaceOnUse">
        <path fill="#80CCE8" d="M129 139.917c0-.507.41-.917.917-.917h9.166c.507 0 .917.41.917.917v9.166c0 .507-.41.917-.917.917h-9.166a.916.916 0 0 1-.917-.917v-9.166z"/>
    </mask>
    <g>
        <path fill="#FAAC48" d="M129 139.917c0-.507.41-.917.917-.917h9.166c.507 0 .917.41.917.917v9.166c0 .507-.41.917-.917.917h-9.166a.916.916 0 0 1-.917-.917v-9.166z"/>
        <path fill="#FFD5A0" d="M129 139.458c0-.253.224-.458.5-.458s.5.205.5.458v10.084c0 .253-.224.458-.5.458s-.5-.205-.5-.458v-10.084z"/>
        <path fill="#DD871A" d="M129.917 149h9.625c.253 0 .458.224.458.5s-.205.5-.458.5H129l.917-1z"/>
        <path fill="#DD871A" d="M139.5 150c-.276 0-.5-.205-.5-.458v-10.084c0-.253.224-.458.5-.458s.5.205.5.458v10.084c0 .253-.224.458-.5.458z"/>
        <path fill="#FFD5A0" d="M129 139.5c0-.276.205-.5.458-.5H140l-.917 1h-9.625c-.253 0-.458-.224-.458-.5z"/>
    </g>
    <path fill="#333" fill-rule="evenodd" d="M130.833 145.259l3.715-3.509v1.991l-3.715 3.509v-1.991zm7.334 0l-3.619-3.509v1.991l3.619 3.509v-1.991z" clip-rule="evenodd"/>
    <mask id="i" width="12" height="12" x="128" y="149" maskUnits="userSpaceOnUse">
        <path fill="#80CCE8" d="M129 150.917c0-.507.41-.917.917-.917h9.166c.507 0 .917.41.917.917v9.166c0 .507-.41.917-.917.917h-9.166a.916.916 0 0 1-.917-.917v-9.166z"/>
    </mask>
    <g>
        <path fill="#FAAC48" d="M129 150.917c0-.507.41-.917.917-.917h9.166c.507 0 .917.41.917.917v9.166c0 .507-.41.917-.917.917h-9.166a.916.916 0 0 1-.917-.917v-9.166z"/>
        <path fill="#FFD5A0" d="M129 150.458c0-.253.224-.458.5-.458s.5.205.5.458v10.084c0 .253-.224.458-.5.458s-.5-.205-.5-.458v-10.084z"/>
        <path fill="#DD871A" d="M129.917 160h9.625c.253 0 .458.224.458.5s-.205.5-.458.5H129l.917-1z"/>
        <path fill="#DD871A" d="M139.5 161c-.276 0-.5-.205-.5-.458v-10.084c0-.253.224-.458.5-.458s.5.205.5.458v10.084c0 .253-.224.458-.5.458z"/>
        <path fill="#FFD5A0" d="M129 150.5c0-.276.205-.5.458-.5H140l-.917 1h-9.625c-.253 0-.458-.224-.458-.5z"/>
    </g>
    <path fill="#333" fill-rule="evenodd" d="M138.166 154.991l-3.714 3.509v-1.991l3.714-3.509v1.991zm-7.333 0l3.619 3.509v-1.991L130.833 153v1.991z" clip-rule="evenodd"/>
    <mask id="j" width="37" height="13" x="62" y="167" maskUnits="userSpaceOnUse">
        <rect width="36" height="12" x="63" y="168" fill="#FAAC48" rx="1"/>
    </mask>
    <g>
        <rect width="36" height="12" x="63" y="168" fill="#FAAC48" rx="1"/>
        <path fill="#FFD5A0" d="M63 168.545c0-.301.244-.545.545-.545H98a1 1 0 0 1 1 1v.091H63.545a.545.545 0 0 1-.545-.546z"/>
        <path fill="#DD871A" d="M99 179.455a.545.545 0 0 1-.546.545H64a1 1 0 0 1-1-1v-.091h35.454c.302 0 .546.244.546.546z"/>
        <path fill="#FFD5A0" d="M63.5 168a.5.5 0 0 0-.5.5V180l1-1.091V168.5a.5.5 0 0 0-.5-.5z"/>
        <path fill="#DD871A" d="M98.5 180a.5.5 0 0 0 .5-.5V168l-1 1.091V179.5a.5.5 0 0 0 .5.5z"/>
    </g>
    <path fill="#333" d="M76.315 176c.853 0 1.282-.375 1.282-1.131 0-.704-.333-1.022-1.213-1.142-.617-.085-.842-.267-.842-.653 0-.392.274-.608.773-.608.504 0 .745.216.745.665h.483c0-.756-.408-1.131-1.212-1.131-.821 0-1.267.386-1.267 1.125 0 .665.312.966 1.149 1.085.67.097.906.29.906.705 0 .409-.268.619-.8.619-.552 0-.836-.233-.836-.699H75c0 .779.445 1.165 1.315 1.165zM79.145 175.932h.429v-.432h-.317c-.316 0-.397-.097-.397-.477v-1.614h.682V173h-.682v-.773h-.424L78.4 173h-.489v.409h.478v1.608c0 .642.225.915.757.915zM80.88 176c.403 0 .715-.165.94-.466l.016.398h.402v-1.915c0-.727-.354-1.085-1.084-1.085-.692 0-1.067.324-1.116.96h.462c.016-.358.247-.528.638-.528.43 0 .628.21.628.664v.159h-.665c-.778 0-1.143.33-1.143.915 0 .574.354.898.923.898zm.07-.432c-.348 0-.52-.17-.52-.477 0-.33.204-.489.687-.489h.65v.415c-.167.358-.446.551-.816.551zM83.07 175.932h.472v-1.688c.091-.562.344-.807.794-.807h.14v-.494h-.188c-.402 0-.654.188-.794.602l-.022-.545h-.402v2.932zM85.904 175.932h.43v-.432h-.317c-.317 0-.397-.097-.397-.477v-1.614h.681V173h-.681v-.773h-.424l-.038.773h-.488v.409h.477v1.608c0 .642.226.915.757.915z"/>
</svg>
