<svg width="204" height="42" viewBox="0 0 204 42" fill="none" xmlns="http://www.w3.org/2000/svg">
<path d="M0 39H202V42H0V39Z" fill="#00AEEF"/>
<path d="M3.69565 37H198.304L202 39H0L3.69565 37Z" fill="#99DFF9"/>
<path d="M0 0H204V3H0V0Z" fill="#00AEEF"/>
<ellipse cx="84.8" cy="37.5" rx="6.8" ry="0.5" fill="black" fill-opacity="0.3"/>
<ellipse cx="50.8" cy="37.5" rx="6.8" ry="0.5" fill="black" fill-opacity="0.3"/>
<ellipse cx="16.8" cy="37.5" rx="6.8" ry="0.5" fill="black" fill-opacity="0.3"/>
<ellipse cx="185.866" cy="37.5" rx="6.8" ry="0.5" fill="black" fill-opacity="0.3"/>
<ellipse cx="153" cy="37.5" rx="6.8" ry="0.5" fill="black" fill-opacity="0.3"/>
<ellipse cx="120.133" cy="37.5" rx="6.8" ry="0.5" fill="black" fill-opacity="0.3"/>
<path fill-rule="evenodd" clip-rule="evenodd" d="M204 3H0L2 5H8V4H26V5H42V4H60V5H76V4H94V5H110V4H128V5H144V4H162V5H178V4H196V5H202L204 3Z" fill="#008BC0"/>
<rect x="5" y="4" width="2" height="34" fill="#00AEEF"/>
<rect x="198" y="4" width="2" height="34" fill="#00AEEF"/>
</svg>
