<svg width="205" height="42" viewBox="0 0 205 42" fill="none" xmlns="http://www.w3.org/2000/svg">
<rect y="39" width="205" height="3" fill="#00AEEF"/>
<path d="M4.82353 37H200.176L205 39H0L4.82353 37Z" fill="#99DFF9"/>
<rect width="205" height="3" fill="#00AEEF"/>
<ellipse cx="22.6706" cy="37.5" rx="8.2" ry="0.5" fill="black" fill-opacity="0.3"/>
<ellipse cx="128.788" cy="37.5" rx="8.2" ry="0.5" fill="black" fill-opacity="0.3"/>
<ellipse cx="74.5235" cy="37.5" rx="8.2" ry="0.5" fill="black" fill-opacity="0.3"/>
<path fill-rule="evenodd" clip-rule="evenodd" d="M0 3H205L202.588 5H192.941V4H171.235V5H139.882V4H118.176V5H85.6176V4H63.9118V5H32.5588V4H10.8529V5H2.41176L0 3Z" fill="#008BC0"/>
<rect x="3.61768" y="4" width="2.41176" height="34" fill="#00AEEF"/>
<ellipse cx="181.847" cy="37.5" rx="8.2" ry="0.5" fill="black" fill-opacity="0.3"/>
<rect x="198.97" y="4" width="2.41176" height="34" fill="#00AEEF"/>
</svg>
