<svg width="52" height="57" viewBox="0 0 52 57" fill="none" xmlns="http://www.w3.org/2000/svg">
<path d="M39.5735 23.656C39.4408 23.1608 39.7276 22.6624 40.2214 22.5301L45.5085 21.1134C46.0024 20.9811 46.4999 21.2693 46.6326 21.7645C46.7653 22.2598 46.4785 22.7581 45.9847 22.8905L40.6831 24.311C40.2037 24.4395 39.7062 24.1513 39.5735 23.656Z" fill="#3971B4"/>
<path d="M5.18592 36.6804C5.05321 36.1852 5.34 35.6868 5.83385 35.5545L11.1355 34.1339C11.6293 34.0016 12.1269 34.2898 12.2596 34.785C12.3923 35.2803 12.1055 35.7786 11.6116 35.911L6.31002 37.3315C5.81227 37.4493 5.31471 37.1611 5.18592 36.6804Z" fill="#3971B4"/>
<path d="M25.8184 50.1341L24.3938 44.8175C24.2611 44.3222 24.5479 43.8238 25.0417 43.6915C25.5356 43.5592 26.0331 43.8474 26.1658 44.3426L27.5904 49.6593C27.7231 50.1545 27.4363 50.6529 26.9425 50.7852C26.4631 50.9137 25.9511 50.6293 25.8184 50.1341Z" fill="#3971B4"/>
<path d="M21.627 13.2738L20.2024 7.9571C20.0697 7.46186 20.3565 6.96349 20.8503 6.83116C21.3442 6.69883 21.8417 6.98704 21.9744 7.48229L23.399 12.7989C23.5317 13.2942 23.2449 13.7925 22.7511 13.9249C22.2717 14.0533 21.7597 13.769 21.627 13.2738Z" fill="#3971B4"/>
<path d="M33.6541 15.751C33.5917 15.518 33.6164 15.2615 33.7477 15.0546L36.3289 10.5693C36.5877 10.1409 37.1542 9.98907 37.5819 10.2491C38.0097 10.5092 38.1541 11.0482 37.9137 11.4873L35.3325 15.9726C35.0776 16.4156 34.5257 16.5635 34.0834 16.3073C33.8768 16.1753 33.7165 15.9841 33.6541 15.751Z" fill="#3971B4"/>
<path d="M37.5951 37.4878C37.4624 36.9926 37.7492 36.4942 38.243 36.3619C38.4754 36.2996 38.7313 36.3247 38.9379 36.4567L43.4159 39.0506C43.8542 39.2922 44.021 39.8564 43.7661 40.2994C43.5256 40.7385 42.9631 40.9048 42.5208 40.6486C42.5063 40.6525 42.5024 40.638 42.5024 40.638L38.0244 38.0441C37.8032 37.916 37.6576 37.7209 37.5951 37.4878Z" fill="#3971B4"/>
<path d="M7.97188 18.8388C7.83918 18.3436 8.12598 17.8452 8.61983 17.7129C8.85223 17.6506 9.10804 17.6757 9.31466 17.8077L12.6686 19.7504C13.0963 20.0105 13.2485 20.5785 12.9897 21.007C12.7308 21.4354 12.1934 21.5794 11.7551 21.3378L8.40116 19.3951C8.19455 19.2631 8.03433 19.0719 7.97188 18.8388Z" fill="#3971B4"/>
<path d="M4.56749 27.338C4.53627 27.2215 4.52347 27.1156 4.53583 26.9874C4.58913 26.4891 5.05348 26.1305 5.55059 26.1847L10.4424 26.7786C10.9395 26.8327 11.2978 27.2987 11.2445 27.797C11.1912 28.2952 10.7269 28.6539 10.2298 28.5997L5.35644 28.0165C4.97271 27.9788 4.66507 27.7021 4.56749 27.338Z" fill="#3971B4"/>
<path d="M12.513 49.9063C12.4505 49.6733 12.4752 49.4168 12.6066 49.2099L14.5398 45.8505C14.7986 45.4221 15.3651 45.2703 15.7929 45.5304C16.2206 45.7905 16.365 46.3294 16.1246 46.7685L14.1914 50.1279C13.9365 50.5709 13.3845 50.7188 12.9423 50.4626C12.7211 50.3345 12.5754 50.1394 12.513 49.9063Z" fill="#3971B4"/>
<path d="M8.84118 43.2892C8.73189 42.8814 8.9142 42.4578 9.27906 42.2508L12.5705 40.4165C13.0225 40.1861 13.5654 40.3529 13.8104 40.8024C14.037 41.2413 13.882 41.7668 13.4668 42.0185L10.1754 43.8528C9.72726 44.0978 9.16987 43.9349 8.92877 43.4999C8.89473 43.431 8.86069 43.362 8.84118 43.2892Z" fill="#3971B4"/>
<path d="M18.2868 50.2486C18.2517 50.1175 18.2417 49.9641 18.2686 49.832L19.0922 45.8176C19.193 45.3222 19.6836 45.0034 20.1779 45.1051C20.6722 45.2069 20.9909 45.6991 20.8901 46.1945L20.0665 50.2089C19.9657 50.7042 19.4897 51.0191 18.9808 50.9213C18.6513 50.8535 18.3805 50.5982 18.2868 50.2486Z" fill="#3971B4"/>
<path d="M31.4675 42.923C31.3348 42.4277 31.6216 41.9294 32.1154 41.797C32.4495 41.7075 32.8053 41.8151 33.0325 42.0821L35.753 45.1469C36.0879 45.5255 36.058 46.1111 35.6808 46.4464C35.3036 46.7816 34.7194 46.7508 34.3844 46.3722L31.66 43.2929C31.5707 43.1919 31.5065 43.0686 31.4675 42.923Z" fill="#3971B4"/>
<path d="M40.8248 31.8749C40.6921 31.3797 40.9789 30.8813 41.4728 30.749C41.6325 30.7062 41.804 30.7071 41.9582 30.7594L47.0841 32.2273C47.5611 32.3805 47.8362 32.8845 47.6879 33.3769C47.5503 33.8509 47.048 34.126 46.575 33.9874L41.449 32.5195C41.1446 32.4293 40.9068 32.1808 40.8248 31.8749Z" fill="#3971B4"/>
<path d="M37.2644 18.578C37.1668 18.2139 37.2988 17.835 37.5977 17.6144L41.5372 14.6542C41.9406 14.3588 42.5221 14.4371 42.8174 14.842C43.1126 15.2468 43.0353 15.8296 42.6318 16.125L38.6924 19.0853C38.289 19.3807 37.7075 19.3023 37.4122 18.8975C37.3413 18.8072 37.2956 18.6946 37.2644 18.578Z" fill="#3971B4"/>
<path d="M29.1774 13.1561C29.1501 13.0541 29.1412 12.9628 29.1468 12.8676L29.4943 7.07617C29.5476 6.57792 29.9935 6.20864 30.4867 6.24822C30.9654 6.29169 31.3227 6.69553 31.313 7.18211L30.9655 12.9736C30.9306 13.4825 30.5031 13.8625 29.9954 13.8268C29.6156 13.8037 29.2789 13.5348 29.1774 13.1561Z" fill="#3971B4"/>
<path d="M11.8483 12.1002C11.7156 11.605 12.0024 11.1066 12.4963 10.9743C12.8013 10.8925 13.1347 10.9749 13.3687 11.2089L17.1987 14.9286C17.5588 15.2849 17.558 15.8628 17.2031 16.2233C16.8589 16.5653 16.2863 16.5782 15.934 16.2511L12.1039 12.5313C11.9778 12.409 11.8913 12.2604 11.8483 12.1002Z" fill="#3971B4"/>
<path d="M24.0434 45.9436C25.0485 45.6274 26.13 45.3064 27.2775 44.9989C35.6874 42.7455 44.2374 34.1005 42.2664 26.7446L42.0049 25.7686C40.9946 21.8241 39.9308 17.7378 32.7379 13.436C29.5258 11.6738 25.7427 11.2668 22.2404 12.3145C18.1674 13.2654 14.5639 15.6204 12.0543 18.9781C9.63638 23.2011 9.56569 31.8847 11.8958 40.5807C12.7544 43.7853 13.9226 45.7048 15.5549 46.6256C17.835 47.8725 20.578 47.0126 24.0434 45.9436Z" fill="#66A1DB"/>
<path d="M19.6526 27.1061C20.5709 30.5331 24.0856 32.569 27.5029 31.6533C30.9203 30.7376 32.9462 27.2172 32.0279 23.7901C31.1096 20.3631 27.5949 18.3273 24.1776 19.2429C20.7603 20.1586 18.7344 23.6791 19.6526 27.1061Z" fill="#A6CAE2"/>
<path d="M14.8349 30.2866C14.7022 29.7914 14.989 29.293 15.4828 29.1607C15.9767 29.0284 16.4743 29.3166 16.607 29.8118C16.7982 30.5256 17.4336 30.9798 18.4706 31.6543C20.1755 32.5557 21.4612 34.1002 22.0334 35.9452C22.1661 36.4405 21.8793 36.9388 21.3854 37.0712C20.8916 37.2035 20.394 36.9153 20.2613 36.42C19.7917 35.0159 18.779 33.851 17.4504 33.1922C16.2325 32.5974 15.3024 31.5665 14.8349 30.2866Z" fill="white" fill-opacity="0.5"/>
<path d="M32.6277 33.1219C32.179 31.0408 32.9548 28.8814 34.6245 27.5598C35.7093 26.3792 36.3096 25.6563 36.0324 24.6221C35.8997 24.1269 36.1865 23.6285 36.6804 23.4962C37.1742 23.3639 37.6718 23.6521 37.8045 24.1473C38.3587 26.2157 37.0912 27.5857 35.9852 28.8032C34.9004 29.9838 33.9626 31.0156 34.4036 32.6616C34.5363 33.1569 34.2495 33.6552 33.7557 33.7876C33.2725 33.9014 32.7565 33.6025 32.6277 33.1219Z" fill="white" fill-opacity="0.5"/>
</svg>
