<?xml version="1.0" encoding="utf-8"?>
<!-- Generator: Adobe Illustrator 23.0.3, SVG Export Plug-In . SVG Version: 6.00 Build 0)  -->
<svg version="1.1" id="Layer_1" xmlns="http://www.w3.org/2000/svg" xmlns:xlink="http://www.w3.org/1999/xlink" x="0px" y="0px"
	 viewBox="0 0 591 653" style="enable-background:new 0 0 591 653;" xml:space="preserve">
<style type="text/css">
	.st0{fill:#003E6B;}
	.st1{fill:#FFFFFF;}
	.st2{opacity:0.4;fill:#7CB4D0;enable-background:new    ;}
	.st3{opacity:0.1;fill:#BCDEEA;enable-background:new    ;}
	.st4{opacity:0.5;fill:#7CB4D0;enable-background:new    ;}
	.st5{opacity:0.8;fill:#7CB4D0;enable-background:new    ;}
	.st6{fill:#333333;}
	.st7{fill:#FFFFFF;fill-opacity:0.1;stroke:#FFFFFF;}
	.st8{fill:#A00000;}
	.st9{opacity:0.2;fill:#3E6E7A;enable-background:new    ;}
	.st10{opacity:0.5;fill:#FFFFFF;enable-background:new    ;}
</style>
<path class="st0" d="M5,0h581c2.8,0,5,2.2,5,5v643c0,2.8-2.2,5-5,5H5c-2.8,0-5-2.2-5-5V5C0,2.2,2.2,0,5,0z"/>
<path class="st1" d="M567,103H128.5v438H567V103z"/>
<path class="st2" d="M550.1,117H147v406h403.1L550.1,117L550.1,117z"/>
<path class="st3" d="M550.1,117H147v406h403.1L550.1,117L550.1,117z"/>
<path class="st4" d="M147,117l-18.6-14v438l18.6-18V117z M550.1,523l16.9,18V103l-16.9,14V523z"/>
<path class="st2" d="M567,103H128.5v438H567V103z"/>
<path class="st5" d="M550.1,522.9H147L128.5,541H567L550.1,522.9z"/>
<path class="st6" d="M171.7,131h3.7c2.7,0,3.9-1.2,3.9-4v-2.2c0-2.7-1.2-4-3.9-4h-3.7V131z M173.5,129.4v-7h1.6
	c1.7,0,2.3,0.7,2.3,2.4v2.2c0,1.8-0.6,2.4-2.3,2.4H173.5z M181.4,131h1.7v-7.5l4.3,7.5h1.8v-10.2h-1.7v7.1l-4-7.1h-2V131z
	 M190.5,131h1.9l0.8-2.3h3.6l0.8,2.3h1.9l-3.6-10.2H194L190.5,131z M193.6,127.1l1.3-4.2l1.3,4.2H193.6z M162.5,150h6.4v-1.6h-4.6
	v-8.6h-1.8V150z M172.5,150.2c1.1,0,1.9-0.4,2.5-1.2l0.1,1h1.5v-5c0-2-1-2.9-3.1-2.9c-2.1,0-3.1,0.9-3.2,2.6h1.7
	c0-0.7,0.5-1.1,1.4-1.1c1,0,1.4,0.5,1.4,1.5v0.3h-1.6c-2.1,0-3.1,0.9-3.1,2.5C170,149.3,171,150.2,172.5,150.2L172.5,150.2z
	 M173,148.7c-0.8,0-1.2-0.4-1.2-1.1c0-0.7,0.4-1.1,1.6-1.1h1.4v1C174.4,148.3,173.8,148.7,173,148.7z M181.2,150.2
	c1.1,0,1.8-0.4,2.4-1.3l0.1,1.1h1.5v-10.9h-1.8v4c-0.6-0.7-1.3-1-2.2-1c-1.8,0-2.8,1.1-2.8,3.2v1.7
	C178.4,149.1,179.4,150.2,181.2,150.2L181.2,150.2z M181.5,148.7c-0.9,0-1.4-0.6-1.4-1.7v-1.7c0-1.2,0.5-1.7,1.4-1.7
	c0.8,0,1.5,0.5,1.9,1.5v2.2C183,148.2,182.4,148.7,181.5,148.7z M189.9,150.2c1.1,0,1.8-0.4,2.4-1.3l0.1,1.1h1.5v-10.9h-1.8v4
	c-0.6-0.7-1.3-1-2.2-1c-1.8,0-2.8,1.1-2.8,3.2v1.7C187.1,149.1,188.1,150.2,189.9,150.2L189.9,150.2z M190.2,148.7
	c-0.9,0-1.4-0.6-1.4-1.7v-1.7c0-1.2,0.5-1.7,1.4-1.7c0.8,0,1.5,0.5,1.9,1.5v2.2C191.7,148.2,191.1,148.7,190.2,148.7z M199.2,150.2
	c2,0,3.2-0.9,3.3-2.5h-1.7c-0.1,0.7-0.6,1.1-1.5,1.1c-1.2,0-1.7-0.6-1.7-1.8v-0.2h5v-1.3c0-2.1-1.2-3.3-3.4-3.3
	c-2.2,0-3.4,1.2-3.4,3.3v1.5C195.8,149,197,150.2,199.2,150.2z M197.6,145.3c0-1.3,0.5-1.8,1.6-1.8c1.1,0,1.6,0.6,1.6,1.8H197.6
	L197.6,145.3z M204.3,150h1.8v-4.5c0.2-1.2,0.9-1.8,2.1-1.8h0.4v-1.7h-0.6c-1.1,0-1.8,0.5-2.1,1.6l-0.1-1.4h-1.5V150z M259.1,148
	h1.8v-2.8l1.5-1.8l2.7,4.6h2.1l-3.5-6l3.4-4.2H265l-4.1,4.9v-4.9h-1.8V148z M270.9,147.2h1.5v-3.1h2.9v-1.5h-2.9v-3.1h-1.5v3.1H268
	v1.5h2.9V147.2z M343.5,148h1.8v-2.8l1.5-1.8l2.7,4.6h2.1l-3.5-6l3.4-4.2h-2.1l-4.1,4.9v-4.9h-1.8V148z M351.6,144.4h4.6v-1.6h-4.6
	V144.4z M423.5,148h1.9l0.8-2.3h3.6l0.8,2.3h2l-3.6-10.2h-1.9L423.5,148z M426.7,144.1l1.3-4.2l1.3,4.2H426.7z M436.3,147.2h1.5
	v-3.1h2.9v-1.5h-2.9v-3.1h-1.5v3.1h-2.9v1.5h2.9V147.2z M508.2,148h1.9l0.8-2.3h3.6l0.8,2.3h2l-3.6-10.2h-1.9L508.2,148L508.2,148z
	 M511.4,144.1l1.3-4.2l1.3,4.2H511.4z M517.7,144.4h4.7v-1.6h-4.7V144.4z"/>
<path class="st7" d="M133.5,553.5H562c2.5,0,4.5,2,4.5,4.5v49c0,2.5-2,4.5-4.5,4.5H133.5c-2.5,0-4.5-2-4.5-4.5v-49
	C129,555.5,131,553.5,133.5,553.5z"/>
<path class="st1" d="M186.7,588h1.6v-4.7h3c2.9,0,4.1-1.1,4.1-3.7s-1.2-3.8-4.1-3.8h-4.6V588z M188.3,581.8v-4.6h2.9
	c1.9,0,2.6,0.6,2.6,2.3s-0.7,2.3-2.6,2.3H188.3z M201.2,588.2c2.6,0,4-1.4,4-4.1v-1.5c0-2.7-1.4-4.1-4-4.1s-4,1.4-4,4.1v1.5
	C197.2,586.8,198.5,588.2,201.2,588.2L201.2,588.2z M201.2,586.8c-1.6,0-2.4-0.9-2.4-2.8v-1.4c0-1.9,0.8-2.8,2.4-2.8
	c1.6,0,2.4,0.9,2.4,2.8v1.4C203.6,585.9,202.8,586.8,201.2,586.8z M210.7,588.2c2.4,0,3.7-1,3.7-2.8c0-1.8-0.9-2.6-3.4-2.8
	c-1.7-0.2-2.3-0.5-2.3-1.4s0.7-1.3,2-1.3c1.3,0,2,0.5,2,1.5h1.5c0-1.9-1.2-2.9-3.5-2.9s-3.6,1-3.6,2.8c0,1.7,0.9,2.4,3.3,2.7
	c1.8,0.2,2.4,0.6,2.4,1.5c0,0.9-0.7,1.4-2.2,1.4c-1.5,0-2.3-0.5-2.3-1.6h-1.5C206.9,587.2,208.2,588.2,210.7,588.2L210.7,588.2z
	 M216.6,577h1.7v-1.8h-1.7V577z M216.7,588h1.6v-9.3h-1.6V588z M224.1,588h1.4v-1.4h-1.1c-1.1,0-1.3-0.3-1.3-1.5V580h2.3v-1.3h-2.3
	v-2.4h-1.4l-0.1,2.4H220v1.3h1.6v5.1C221.6,587.1,222.3,588,224.1,588z M227.3,577h1.7v-1.8h-1.7V577z M227.4,588h1.6v-9.3h-1.6V588
	z M233.9,588h1.7l3.3-9.3h-1.6l-2.4,7.3l-2.4-7.3h-1.7L233.9,588z M244,588.2c2.2,0,3.6-1,3.7-3h-1.5c-0.1,1-0.8,1.6-2.2,1.6
	c-1.7,0-2.4-0.8-2.4-2.6v-0.4h6.3v-1.3c0-2.6-1.4-3.9-3.9-3.9s-3.9,1.4-3.9,3.9v1.8C240,586.8,241.4,588.2,244,588.2L244,588.2z
	 M241.6,582.5c0-1.8,0.7-2.6,2.4-2.6c1.6,0,2.4,0.8,2.4,2.6H241.6L241.6,582.5z M263.4,588.2c2.2,0,3.6-1,3.7-3h-1.5
	c-0.1,1-0.8,1.6-2.2,1.6c-1.7,0-2.4-0.8-2.4-2.6v-0.4h6.3v-1.3c0-2.6-1.4-3.9-3.9-3.9c-2.5,0-3.9,1.4-3.9,3.9v1.8
	C259.3,586.8,260.7,588.2,263.4,588.2L263.4,588.2z M260.9,582.5c0-1.8,0.7-2.6,2.4-2.6c1.6,0,2.4,0.8,2.4,2.6H260.9z M269.7,588
	h1.6v-13.1h-1.6V588z M277.8,588.2c2.2,0,3.6-1,3.7-3H280c-0.1,1-0.8,1.6-2.2,1.6c-1.7,0-2.4-0.8-2.4-2.6v-0.4h6.3v-1.3
	c0-2.6-1.4-3.9-3.9-3.9c-2.5,0-3.9,1.4-3.9,3.9v1.8C273.8,586.8,275.2,588.2,277.8,588.2L277.8,588.2z M275.3,582.5
	c0-1.8,0.7-2.6,2.4-2.6c1.6,0,2.4,0.8,2.4,2.6H275.3z M287.5,588.2c2.3,0,3.6-1.2,3.7-3.4h-1.5c-0.1,1.5-0.9,2.1-2.2,2.1
	c-1.6,0-2.3-0.8-2.3-2.6v-1.8c0-1.8,0.7-2.6,2.3-2.6c1.3,0,2.1,0.6,2.2,2.1h1.5c-0.1-2.2-1.4-3.4-3.7-3.4c-2.5,0-3.9,1.4-3.9,3.9
	v1.8C283.6,586.8,285,588.2,287.5,588.2L287.5,588.2z M296.4,588h1.4v-1.4h-1.1c-1.1,0-1.3-0.3-1.3-1.5V580h2.3v-1.3h-2.3v-2.4H294
	l-0.1,2.4h-1.6v1.3h1.6v5.1C293.9,587.1,294.6,588,296.4,588L296.4,588z M299.7,588h1.6v-5.3c0.3-1.8,1.2-2.6,2.7-2.6h0.5v-1.6h-0.6
	c-1.4,0-2.2,0.6-2.7,1.9l-0.1-1.7h-1.4V588z M309.6,588.2c2.6,0,4-1.4,4-4.1v-1.5c0-2.7-1.4-4.1-4-4.1s-4,1.4-4,4.1v1.5
	C305.6,586.8,307,588.2,309.6,588.2z M309.6,586.8c-1.6,0-2.4-0.9-2.4-2.8v-1.4c0-1.9,0.8-2.8,2.4-2.8s2.4,0.9,2.4,2.8v1.4
	C312.1,585.9,311.3,586.8,309.6,586.8z M319.1,588.2c1.4,0,2.3-0.5,3.1-1.7l0.1,1.5h1.4v-13.1h-1.6v5.1c-0.8-1-1.7-1.4-3-1.4
	c-2.2,0-3.4,1.3-3.4,3.9v2C315.7,586.9,316.9,588.2,319.1,588.2L319.1,588.2z M319.3,586.8c-1.3,0-2-0.9-2-2.5v-1.9
	c0-1.7,0.8-2.5,2-2.5c1.2,0,2.1,0.8,2.8,2.1v2.7C321.4,586.1,320.5,586.8,319.3,586.8z M330.2,588.2c2.2,0,3.6-1,3.7-3h-1.5
	c-0.1,1-0.8,1.6-2.2,1.6c-1.7,0-2.4-0.8-2.4-2.6v-0.4h6.3v-1.3c0-2.6-1.4-3.9-3.9-3.9c-2.5,0-3.9,1.4-3.9,3.9v1.8
	C326.2,586.8,327.6,588.2,330.2,588.2L330.2,588.2z M327.7,582.5c0-1.8,0.7-2.6,2.4-2.6c1.6,0,2.4,0.8,2.4,2.6H327.7z"/>
<ellipse class="st8" cx="155.9" cy="582.7" rx="17.1" ry="17"/>
<path class="st1" d="M154.2,589.2h3v-4.9h4.6v-2.9h-4.6v-4.9h-3v4.9h-4.6v2.9h4.6V589.2z"/>
<path class="st7" d="M133.5,32.5H562c2.5,0,4.5,2,4.5,4.5v49c0,2.5-2,4.5-4.5,4.5H133.5c-2.5,0-4.5-2-4.5-4.5V37
	C129,34.5,131,32.5,133.5,32.5z"/>
<path class="st1" d="M186.9,67h1.6v-9.9l6,9.9h1.6V54.8h-1.6v9.3l-5.6-9.3H187L186.9,67L186.9,67z M202.8,67.2c2.2,0,3.6-1,3.7-3
	H205c-0.1,1-0.8,1.6-2.2,1.6c-1.7,0-2.4-0.8-2.4-2.6v-0.4h6.3v-1.3c0-2.6-1.4-3.9-3.9-3.9s-3.9,1.4-3.9,3.9v1.8
	C198.8,65.8,200.2,67.2,202.8,67.2L202.8,67.2z M200.4,61.5c0-1.8,0.7-2.6,2.4-2.6c1.6,0,2.4,0.8,2.4,2.6H200.4L200.4,61.5z
	 M212.6,70.5c2.6,0,4-1.2,4-3.7v-9.1h-1.4l-0.1,1.4c-0.8-1.1-1.8-1.7-3.1-1.7c-2.2,0-3.4,1.3-3.4,3.9v1.5c0,2.5,1.3,3.9,3.4,3.9
	c1.2,0,2.2-0.4,2.9-1.4v1.5c0,1.6-0.8,2.3-2.4,2.3c-1.3,0-2.2-0.4-2.3-1.5h-1.5C209,69.5,210.3,70.5,212.6,70.5z M212.3,65.3
	c-1.3,0-2-0.9-2-2.5v-1.3c0-1.7,0.8-2.5,2-2.5c1.2,0,2.1,0.8,2.7,2.1v2.3C214.4,64.6,213.4,65.3,212.3,65.3L212.3,65.3z M222,67.2
	c1.4,0,2.4-0.5,3.1-1.5l0.1,1.3h1.4v-6.1c0-2.3-1.2-3.4-3.6-3.4c-2.3,0-3.6,1-3.7,3h1.5c0.1-1.1,0.8-1.7,2.1-1.7
	c1.4,0,2.1,0.7,2.1,2.1v0.5h-2.2c-2.6,0-3.8,1-3.8,2.9C218.9,66.2,220.1,67.2,222,67.2z M222.2,65.8c-1.2,0-1.7-0.5-1.7-1.5
	c0-1,0.7-1.5,2.3-1.5h2.2v1.3C224.4,65.2,223.4,65.8,222.2,65.8z M232.1,67h1.4v-1.4h-1.1c-1.1,0-1.3-0.3-1.3-1.5V59h2.3v-1.3h-2.3
	v-2.4h-1.4l-0.1,2.4h-1.6V59h1.6v5.1C229.5,66.1,230.3,67,232.1,67z M235.2,56h1.7v-1.8h-1.7V56z M235.3,67h1.6v-9.3h-1.6V67z
	 M241.9,67h1.7l3.3-9.3h-1.6l-2.4,7.3l-2.4-7.3h-1.7L241.9,67z M251.9,67.2c2.2,0,3.6-1,3.7-3h-1.5c-0.1,1-0.8,1.6-2.2,1.6
	c-1.7,0-2.4-0.8-2.4-2.6v-0.4h6.3v-1.3c0-2.6-1.4-3.9-3.9-3.9s-3.9,1.4-3.9,3.9v1.8C247.9,65.8,249.3,67.2,251.9,67.2z M249.5,61.5
	c0-1.8,0.7-2.6,2.4-2.6c1.6,0,2.4,0.8,2.4,2.6H249.5L249.5,61.5z M271.3,67.2c2.2,0,3.6-1,3.7-3h-1.5c-0.1,1-0.8,1.6-2.2,1.6
	c-1.7,0-2.4-0.8-2.4-2.6v-0.4h6.3v-1.3c0-2.6-1.4-3.9-3.9-3.9c-2.5,0-3.9,1.4-3.9,3.9v1.8C267.3,65.8,268.7,67.2,271.3,67.2z
	 M268.9,61.5c0-1.8,0.7-2.6,2.4-2.6c1.6,0,2.4,0.8,2.4,2.6H268.9z M277.6,67h1.6V53.9h-1.6V67z M285.7,67.2c2.2,0,3.6-1,3.7-3h-1.5
	c-0.1,1-0.8,1.6-2.2,1.6c-1.7,0-2.4-0.8-2.4-2.6v-0.4h6.3v-1.3c0-2.6-1.4-3.9-3.9-3.9c-2.5,0-3.9,1.4-3.9,3.9v1.8
	C281.7,65.8,283.1,67.2,285.7,67.2z M283.3,61.5c0-1.8,0.7-2.6,2.4-2.6c1.6,0,2.4,0.8,2.4,2.6H283.3z M295.4,67.2
	c2.3,0,3.6-1.2,3.7-3.4h-1.5c-0.1,1.5-0.9,2.1-2.2,2.1c-1.6,0-2.3-0.8-2.3-2.6v-1.8c0-1.8,0.7-2.6,2.3-2.6c1.3,0,2.1,0.6,2.2,2.1
	h1.5c-0.1-2.2-1.4-3.4-3.7-3.4c-2.5,0-3.9,1.4-3.9,3.9v1.8C291.6,65.8,292.9,67.2,295.4,67.2z M304.3,67h1.4v-1.4h-1.1
	c-1.1,0-1.3-0.3-1.3-1.5V59h2.3v-1.3h-2.3v-2.4H302l-0.1,2.4h-1.6V59h1.6v5.1C301.8,66.1,302.6,67,304.3,67L304.3,67z M307.6,67h1.6
	v-5.3c0.3-1.8,1.2-2.6,2.7-2.6h0.5v-1.6h-0.6c-1.4,0-2.2,0.6-2.7,1.9l-0.1-1.7h-1.4V67z M317.6,67.2c2.6,0,4-1.4,4-4.1v-1.5
	c0-2.7-1.4-4.1-4-4.1s-4,1.4-4,4.1v1.5C313.6,65.8,314.9,67.2,317.6,67.2z M317.6,65.8c-1.6,0-2.4-0.9-2.4-2.8v-1.4
	c0-1.9,0.8-2.8,2.4-2.8s2.4,0.9,2.4,2.8v1.4C320,64.9,319.2,65.8,317.6,65.8z M327,67.2c1.4,0,2.3-0.5,3.1-1.7l0.1,1.5h1.4V53.9H330
	v5.1c-0.8-1-1.7-1.4-3-1.4c-2.2,0-3.4,1.3-3.4,3.9v2C323.6,65.9,324.9,67.2,327,67.2L327,67.2z M327.2,65.8c-1.3,0-2-0.9-2-2.5v-1.9
	c0-1.7,0.8-2.5,2-2.5c1.2,0,2.1,0.8,2.8,2.1v2.7C329.4,65.1,328.4,65.8,327.2,65.8z M338.1,67.2c2.2,0,3.6-1,3.7-3h-1.5
	c-0.1,1-0.8,1.6-2.2,1.6c-1.7,0-2.4-0.8-2.4-2.6v-0.4h6.3v-1.3c0-2.6-1.4-3.9-3.9-3.9c-2.5,0-3.9,1.4-3.9,3.9v1.8
	C334.1,65.8,335.5,67.2,338.1,67.2z M335.7,61.5c0-1.8,0.7-2.6,2.4-2.6c1.6,0,2.4,0.8,2.4,2.6H335.7z"/>
<ellipse class="st6" cx="155.9" cy="61.4" rx="17.1" ry="17"/>
<path class="st1" d="M154.2,63.2h3V63h4.6v-2.9h-4.6v-0.2h-3v0.2h-4.6V63h4.6V63.2L154.2,63.2z"/>
<path class="st9" d="M147.4,173.3h72.8V154h-72.8V173.3z"/>
<path class="st9" d="M152.2,176.5h65.5v-19.3h-65.5V176.5z"/>
<path class="st9" d="M152.2,173.3h65.5v-16.1h-65.5V173.3z"/>
<path class="st9" d="M152.2,157.2l-4.9-3.2v19.3l4.8,3.2L152.2,157.2L152.2,157.2z M217.7,176.5l2.4-3.2V154l-2.4,3.2V176.5
	L217.7,176.5z"/>
<path class="st10" d="M147.4,173.3l4.9,3.2h65.5l2.4-3.2H147.4z"/>
<path class="st9" d="M229.9,173.3h72.8V154h-72.8L229.9,173.3L229.9,173.3z"/>
<path class="st9" d="M234.7,176.5h65.5v-19.3h-65.5V176.5z"/>
<path class="st9" d="M234.7,173.3h65.5v-16.1h-65.5V173.3z M234.7,157.2l-4.9-3.2v19.3l4.8,3.2L234.7,157.2L234.7,157.2z
	 M300.2,176.5l2.4-3.2V154l-2.4,3.2V176.5L300.2,176.5z"/>
<path class="st10" d="M229.9,173.3l4.9,3.2h65.5l2.4-3.2H229.9L229.9,173.3z"/>
<path class="st9" d="M312.4,173.3h72.8V154h-72.8V173.3z"/>
<path class="st9" d="M317.2,176.5h65.5v-19.3h-65.5V176.5z"/>
<path class="st9" d="M317.2,173.3h65.5v-16.1h-65.5V173.3z"/>
<path class="st9" d="M317.2,157.2l-4.9-3.2v19.3l4.8,3.2L317.2,157.2L317.2,157.2z M382.7,176.5l2.4-3.2V154l-2.4,3.2V176.5
	L382.7,176.5z"/>
<path class="st10" d="M312.4,173.3l4.9,3.2h65.5l2.4-3.2H312.4z"/>
<path class="st9" d="M395.2,173.3H468V154h-72.8L395.2,173.3L395.2,173.3z"/>
<path class="st9" d="M400,176.5h65.5v-19.3H400V176.5z"/>
<path class="st9" d="M400,173.3h65.5v-16.1H400V173.3z"/>
<path class="st9" d="M400,157.2l-4.9-3.2v19.3l4.8,3.2L400,157.2L400,157.2z M465.5,176.5l2.4-3.2V154l-2.4,3.2V176.5L465.5,176.5z"
	/>
<path class="st10" d="M395.2,173.3l4.9,3.2h65.5l2.4-3.2H395.2L395.2,173.3z"/>
<path class="st9" d="M477.7,173.3h72.8V154h-72.8V173.3z"/>
<path class="st9" d="M482.5,176.5H548v-19.3h-65.5V176.5z"/>
<path class="st9" d="M482.5,173.3H548v-16.1h-65.5V173.3z"/>
<path class="st9" d="M482.5,157.2l-4.9-3.2v19.3l4.8,3.2L482.5,157.2L482.5,157.2z M548,176.5l2.4-3.2V154l-2.4,3.2V176.5L548,176.5
	z"/>
<path class="st10" d="M477.7,173.3l4.9,3.2H548l2.4-3.2H477.7z"/>
<path class="st1" d="M64.5,204.2c2.5,0,3.9-1.2,3.9-3.7c0-2.3-1.3-3.6-3.5-3.6c-1,0-1.8,0.3-2.4,0.8l0.2-3.2h5.2v-1.3h-6.5l-0.4,5.9
	h1.3c0.6-0.6,1.3-0.8,2.2-0.8c1.5,0,2.4,0.8,2.4,2.4c0,1.6-0.9,2.4-2.5,2.4c-1.5,0-2.3-0.6-2.4-1.7h-1.4
	C60.7,203.1,62.1,204.2,64.5,204.2z M74.1,204.2c2.5,0,3.9-1.2,3.9-3.7c0-2.3-1.3-3.6-3.5-3.6c-1,0-1.8,0.3-2.4,0.8l0.2-3.2h5.2
	v-1.3h-6.5l-0.4,5.9H72c0.6-0.6,1.3-0.8,2.2-0.8c1.5,0,2.4,0.8,2.4,2.4c0,1.6-0.9,2.4-2.5,2.4c-1.5,0-2.3-0.6-2.4-1.7h-1.4
	C70.4,203.1,71.7,204.2,74.1,204.2z M83.7,204.2c2.4,0,3.7-1.3,3.7-3.6v-4c0-2.4-1.3-3.6-3.7-3.6c-2.4,0-3.7,1.3-3.7,3.6v4
	C80,202.9,81.3,204.2,83.7,204.2L83.7,204.2z M83.7,202.9c-1.6,0-2.3-0.8-2.3-2.4v-3.8c0-1.6,0.8-2.4,2.3-2.4s2.3,0.8,2.3,2.4v3.8
	C86.1,202.1,85.3,202.9,83.7,202.9L83.7,202.9z M93.3,204.2c2.4,0,3.7-1.3,3.7-3.6v-4c0-2.4-1.3-3.6-3.7-3.6c-2.4,0-3.7,1.3-3.7,3.6
	v4C89.6,202.9,90.9,204.2,93.3,204.2z M93.3,202.9c-1.6,0-2.3-0.8-2.3-2.4v-3.8c0-1.6,0.8-2.4,2.3-2.4s2.3,0.8,2.3,2.4v3.8
	C95.7,202.1,94.9,202.9,93.3,202.9z M107.7,204.2c1.9,0,3-1.2,3-3.4V199c0-2.3-1.1-3.4-3-3.4c-1.1,0-2,0.4-2.6,1.3v-4.5h-1.4V204
	h1.2l0-1.3C105.7,203.7,106.5,204.2,107.7,204.2z M107.6,203c-1,0-1.9-0.7-2.4-1.9v-2.4c0.5-1.2,1.4-1.9,2.4-1.9
	c1.1,0,1.8,0.8,1.8,2.3v1.7C109.4,202.2,108.7,203,107.6,203z M113,206.9h1.4v-4c0.7,0.9,1.5,1.3,2.6,1.3c1.9,0,3-1.2,3-3.4V199
	c0-2.3-1.1-3.4-3-3.4c-1.2,0-2.1,0.5-2.8,1.5l0-1.3H113C113,195.7,113,206.9,113,206.9z M116.9,203c-1.1,0-1.9-0.7-2.4-1.9v-2.4
	c0.5-1.2,1.4-1.9,2.4-1.9c1.1,0,1.8,0.8,1.8,2.3v1.7C118.7,202.2,118,203,116.9,203z M66,255h1.4v-2.5h1.3v-1.3h-1.3v-7.1h-1.6
	l-5.4,7v1.4H66V255z M61.9,251.2l4-5.3v5.3H61.9z M74.1,255.2c2.4,0,3.7-1.3,3.7-3.6v-4c0-2.4-1.3-3.6-3.7-3.6
	c-2.4,0-3.7,1.3-3.7,3.6v4C70.4,253.9,71.7,255.2,74.1,255.2z M74.1,253.9c-1.6,0-2.3-0.8-2.3-2.4v-3.8c0-1.6,0.8-2.4,2.3-2.4
	s2.3,0.8,2.3,2.4v3.8C76.4,253.1,75.7,253.9,74.1,253.9z M83.7,255.2c2.4,0,3.7-1.3,3.7-3.6v-4c0-2.4-1.3-3.6-3.7-3.6
	c-2.4,0-3.7,1.3-3.7,3.6v4C80,253.9,81.3,255.2,83.7,255.2z M83.7,253.9c-1.6,0-2.3-0.8-2.3-2.4v-3.8c0-1.6,0.8-2.4,2.3-2.4
	s2.3,0.8,2.3,2.4v3.8C86.1,253.1,85.3,253.9,83.7,253.9z M93.3,255.2c2.4,0,3.7-1.3,3.7-3.6v-4c0-2.4-1.3-3.6-3.7-3.6
	c-2.4,0-3.7,1.3-3.7,3.6v4C89.6,253.9,90.9,255.2,93.3,255.2z M93.3,253.9c-1.6,0-2.3-0.8-2.3-2.4v-3.8c0-1.6,0.8-2.4,2.3-2.4
	s2.3,0.8,2.3,2.4v3.8C95.7,253.1,94.9,253.9,93.3,253.9z M107.7,255.2c1.9,0,3-1.2,3-3.4V250c0-2.3-1.1-3.4-3-3.4
	c-1.1,0-2,0.4-2.6,1.3v-4.5h-1.4V255h1.2l0-1.3C105.7,254.7,106.5,255.2,107.7,255.2z M107.6,254c-1,0-1.9-0.7-2.4-1.9v-2.4
	c0.5-1.2,1.4-1.9,2.4-1.9c1.1,0,1.8,0.8,1.8,2.3v1.7C109.4,253.2,108.7,254,107.6,254z M113,257.9h1.4v-4c0.7,0.9,1.5,1.3,2.6,1.3
	c1.9,0,3-1.2,3-3.4V250c0-2.3-1.1-3.4-3-3.4c-1.2,0-2.1,0.5-2.8,1.5l0-1.3H113C113,246.7,113,257.9,113,257.9z M116.9,254
	c-1.1,0-1.9-0.7-2.4-1.9v-2.4c0.5-1.2,1.4-1.9,2.4-1.9c1.1,0,1.8,0.8,1.8,2.3v1.7C118.7,253.2,118,254,116.9,254z M64.5,306.2
	c2.5,0,3.8-1,3.8-3.2c0-1.4-0.6-2.3-1.7-2.7v0c1-0.4,1.5-1.2,1.5-2.4c0-1.9-1.3-3-3.5-3c-2.3,0-3.7,1.2-3.7,3.2v0.2h1.4v-0.1
	c0-1.3,0.8-2,2.3-2c1.4,0,2.2,0.6,2.2,1.8c0,1.2-0.8,1.8-2.2,1.8h-1.2v1.3h1.2c1.7,0,2.4,0.6,2.4,1.9c0,1.3-0.9,1.9-2.4,1.9
	c-1.6,0-2.4-0.7-2.4-2v-0.2h-1.4v0.4C60.7,305.1,62,306.2,64.5,306.2L64.5,306.2z M74.1,306.2c2.4,0,3.7-1.3,3.7-3.6v-4
	c0-2.4-1.3-3.6-3.7-3.6c-2.4,0-3.7,1.3-3.7,3.6v4C70.4,304.9,71.7,306.2,74.1,306.2z M74.1,304.9c-1.6,0-2.3-0.8-2.3-2.4v-3.8
	c0-1.6,0.8-2.4,2.3-2.4s2.3,0.8,2.3,2.4v3.8C76.4,304.1,75.7,304.9,74.1,304.9z M83.7,306.2c2.4,0,3.7-1.3,3.7-3.6v-4
	c0-2.4-1.3-3.6-3.7-3.6c-2.4,0-3.7,1.3-3.7,3.6v4C80,304.9,81.3,306.2,83.7,306.2z M83.7,304.9c-1.6,0-2.3-0.8-2.3-2.4v-3.8
	c0-1.6,0.8-2.4,2.3-2.4s2.3,0.8,2.3,2.4v3.8C86.1,304.1,85.3,304.9,83.7,304.9z M93.3,306.2c2.4,0,3.7-1.3,3.7-3.6v-4
	c0-2.4-1.3-3.6-3.7-3.6c-2.4,0-3.7,1.3-3.7,3.6v4C89.6,304.9,90.9,306.2,93.3,306.2z M93.3,304.9c-1.6,0-2.3-0.8-2.3-2.4v-3.8
	c0-1.6,0.8-2.4,2.3-2.4s2.3,0.8,2.3,2.4v3.8C95.7,304.1,94.9,304.9,93.3,304.9z M107.7,306.2c1.9,0,3-1.2,3-3.4V301
	c0-2.3-1.1-3.4-3-3.4c-1.1,0-2,0.4-2.6,1.3v-4.5h-1.4V306h1.2l0-1.3C105.7,305.7,106.5,306.2,107.7,306.2z M107.6,305
	c-1,0-1.9-0.7-2.4-1.9v-2.4c0.5-1.2,1.4-1.9,2.4-1.9c1.1,0,1.8,0.8,1.8,2.3v1.7C109.4,304.2,108.7,305,107.6,305z M113,308.9h1.4v-4
	c0.7,0.9,1.5,1.3,2.6,1.3c1.9,0,3-1.2,3-3.4V301c0-2.3-1.1-3.4-3-3.4c-1.2,0-2.1,0.5-2.8,1.5l0-1.3H113L113,308.9L113,308.9z
	 M116.9,305c-1.1,0-1.9-0.7-2.4-1.9v-2.4c0.5-1.2,1.4-1.9,2.4-1.9c1.1,0,1.8,0.8,1.8,2.3v1.7C118.7,304.2,118,305,116.9,305z
	 M74.1,370.2c2.6,0,4-1.1,4-3.1c0-1.4-0.6-2.3-1.9-2.7v0c1-0.4,1.6-1.2,1.6-2.4c0-1.9-1.4-3-3.7-3s-3.7,1.1-3.7,3
	c0,1.2,0.5,2,1.6,2.4v0c-1.2,0.4-1.9,1.3-1.9,2.7C70.1,369.1,71.5,370.2,74.1,370.2z M74.1,363.8c-1.5,0-2.3-0.6-2.3-1.8
	c0-1.2,0.8-1.8,2.3-1.8c1.5,0,2.3,0.6,2.3,1.8C76.4,363.2,75.6,363.8,74.1,363.8z M74.1,368.9c-1.7,0-2.6-0.7-2.6-1.9
	s0.9-1.9,2.6-1.9c1.7,0,2.6,0.7,2.6,1.9S75.8,368.9,74.1,368.9z M83.7,370.2c2.4,0,3.7-1.3,3.7-3.6v-4c0-2.4-1.3-3.6-3.7-3.6
	c-2.4,0-3.7,1.3-3.7,3.6v4C80,368.9,81.3,370.2,83.7,370.2z M83.7,368.9c-1.6,0-2.3-0.8-2.3-2.4v-3.8c0-1.6,0.8-2.4,2.3-2.4
	s2.3,0.8,2.3,2.4v3.8C86.1,368.1,85.3,368.9,83.7,368.9z M93.3,370.2c2.4,0,3.7-1.3,3.7-3.6v-4c0-2.4-1.3-3.6-3.7-3.6
	c-2.4,0-3.7,1.3-3.7,3.6v4C89.6,368.9,90.9,370.2,93.3,370.2z M93.3,368.9c-1.6,0-2.3-0.8-2.3-2.4v-3.8c0-1.6,0.8-2.4,2.3-2.4
	s2.3,0.8,2.3,2.4v3.8C95.7,368.1,94.9,368.9,93.3,368.9z M107.7,370.2c1.9,0,3-1.2,3-3.4V365c0-2.3-1.1-3.4-3-3.4
	c-1.1,0-2,0.4-2.6,1.3v-4.5h-1.4V370h1.2l0-1.3C105.7,369.7,106.5,370.2,107.7,370.2z M107.6,369c-1,0-1.9-0.7-2.4-1.9v-2.4
	c0.5-1.2,1.4-1.9,2.4-1.9c1.1,0,1.8,0.8,1.8,2.3v1.7C109.4,368.2,108.7,369,107.6,369z M113,372.9h1.4v-4c0.7,0.9,1.5,1.3,2.6,1.3
	c1.9,0,3-1.2,3-3.4V365c0-2.3-1.1-3.4-3-3.4c-1.2,0-2.1,0.5-2.8,1.5l0-1.3H113L113,372.9L113,372.9z M116.9,369
	c-1.1,0-1.9-0.7-2.4-1.9v-2.4c0.5-1.2,1.4-1.9,2.4-1.9c1.1,0,1.8,0.8,1.8,2.3v1.7C118.7,368.2,118,369,116.9,369z M75.6,416H77v-2.5
	h1.3v-1.3H77v-7.1h-1.6l-5.4,7v1.4h5.6V416z M71.6,412.2l4-5.3v5.3H71.6L71.6,412.2z M83.7,416.2c2.4,0,3.7-1.3,3.7-3.6v-4
	c0-2.4-1.3-3.6-3.7-3.6c-2.4,0-3.7,1.3-3.7,3.6v4C80,414.9,81.3,416.2,83.7,416.2z M83.7,414.9c-1.6,0-2.3-0.8-2.3-2.4v-3.8
	c0-1.6,0.8-2.4,2.3-2.4s2.3,0.8,2.3,2.4v3.8C86.1,414.1,85.3,414.9,83.7,414.9z M93.3,416.2c2.4,0,3.7-1.3,3.7-3.6v-4
	c0-2.4-1.3-3.6-3.7-3.6c-2.4,0-3.7,1.3-3.7,3.6v4C89.6,414.9,90.9,416.2,93.3,416.2z M93.3,414.9c-1.6,0-2.3-0.8-2.3-2.4v-3.8
	c0-1.6,0.8-2.4,2.3-2.4s2.3,0.8,2.3,2.4v3.8C95.7,414.1,94.9,414.9,93.3,414.9z M107.7,416.2c1.9,0,3-1.2,3-3.4V411
	c0-2.3-1.1-3.4-3-3.4c-1.1,0-2,0.4-2.6,1.3v-4.5h-1.4V416h1.2l0-1.3C105.7,415.7,106.5,416.2,107.7,416.2z M107.6,415
	c-1,0-1.9-0.7-2.4-1.9v-2.4c0.5-1.2,1.4-1.9,2.4-1.9c1.1,0,1.8,0.8,1.8,2.3v1.7C109.4,414.2,108.7,415,107.6,415z M113,418.9h1.4v-4
	c0.7,0.9,1.5,1.3,2.6,1.3c1.9,0,3-1.2,3-3.4V411c0-2.3-1.1-3.4-3-3.4c-1.2,0-2.1,0.5-2.8,1.5l0-1.3H113L113,418.9L113,418.9z
	 M116.9,415c-1.1,0-1.9-0.7-2.4-1.9v-2.4c0.5-1.2,1.4-1.9,2.4-1.9c1.1,0,1.8,0.8,1.8,2.3v1.7C118.7,414.2,118,415,116.9,415z"/>
</svg>
