<svg xmlns="http://www.w3.org/2000/svg" width="206" height="96" fill="none" viewBox="0 0 206 96">
    <g clip-path="url(#a)">
        <path fill="#90B2BA" d="M17.5 22.417l-2.1-6.032L13 23.12l4.5-.703z"/>
        <path fill="#B5E1F4" d="M17.5 22.417l1.8-3.519-3.9-2.513 2.1 6.032z"/>
        <path fill="#97AFB7" d="M19.3 18.898L17 15.28l-1.6 1.105 3.9 2.513z"/>
        <path fill="#BEDEE5" d="M28 23.623l.6-7.64-9.3 2.915 8.7 4.725z"/>
        <path fill="#B5E1F4" d="M33.2 16.486l-4.7-.503-.5 7.64 5.2-7.137zM35.1 19.904l-1.9-3.418-5.2 7.137 7.1-3.72z"/>
        <path fill="#7792A0" d="M33.2 16.486l-2.8-1.106-1.9.603 4.7.503z"/>
        <path fill="#BEDEE5" d="M47 24.226l.6-2.312-3.7-2.11 3.1 4.422z"/>
        <path fill="#CBEAF4" d="M47.6 21.914l5.5-6.333-9.1 4.222 3.6 2.111z"/>
        <path fill="#AFD2DB" d="M55.6 19.904l-2.5-4.222-5.5 6.333 8-2.111z"/>
        <path fill="#91ACB7" d="M55.6 19.904l-8 2.11-.6 2.212 8.6-4.322z"/>
        <path fill="#97AFB7" d="M78.2 23.824l1.9-3.217-9.4 1.207 7.5 2.01z"/>
        <path fill="#9BBFCC" d="M78.2 24.025v-.301l-7.5-2.01 7.5 2.311z"/>
        <path fill="#97AFB7" d="M70.7 21.814l9.4-1.207-9.4 1.207z"/>
        <path fill="#BEDEE5" d="M84.7 23.02l-4.6-2.513-1.9 3.217 6.5-.704z"/>
        <path fill="#CBEAF4" d="M84.7 23.02l2.9-7.54-7.6 5.027 4.7 2.513z"/>
        <path fill="#9BBFCC" d="M89.5 16.988l-1.9-1.507-2.9 7.539 4.8-6.032z"/>
        <path fill="#BEDEE5" d="M89.3 24.427l.2-7.338-4.8 6.031 4.6 1.307z"/>
        <path fill="#97AFB7" d="M95.3 18.898l-5.8-1.91-.2 7.339 6-5.429zM87.7 15.48l1.9 1.508-1.9-1.507z"/>
        <path fill="#7792A0" d="M95.3 18.898l2-1.206-7.8-.704 5.8 1.91z"/>
        <path fill="#C5DCED" d="M103.9 21.412l-6.6-3.72-2 1.206 8.6 2.514z"/>
        <path fill="#B5E1F4" d="M112.2 20.406l-.2-1.508-8.1 2.413 8.3-.905z"/>
        <path fill="#BEDEE5" d="M112.2 20.406l.5-.502-.7-1.006.2 1.508z"/>
        <path fill="#AFD2DB" d="M112.7 19.904l6.7-2.513-7.4 1.608.7.905z"/>
        <path fill="#7792A0" d="M134.9 21.412v-.403l-4.7-1.105 4.7 1.508z"/>
        <path fill="#9BBFCC" d="M134.9 21.412l6.5.402-6.5-.805v.403z"/>
        <path fill="#7792A0" d="M141.5 21.814l1.3-2.111-7.8 1.306 6.5.805z"/>
        <path fill="#7792A0" d="M145.5 21.613l-2.8-1.81-1.3 2.111 4.1-.302z"/>
        <path fill="#9BBFCC" d="M145.5 21.613l-.7-5.027-2.1 3.217 2.8 1.81z"/>
        <path fill="#9BBFCC" d="M145.5 21.613l2.7-5.83-3.4.703.7 5.127z"/>
        <path fill="#AFD2DB" d="M153.5 20.306l-5.4-4.524-2.7 5.83 8.1-1.306z"/>
        <path fill="#CBEAF4" d="M153.6 20.708v-.402l-8 1.206 8-.804zM152.8 24.427l.7-3.619-8.1.805 7.4 2.814z"/>
        <path fill="#97AFB7" d="M156.7 20.507l-3.1.2-.7 3.62 3.8-3.82z"/>
        <path fill="#BEDEE5" d="M153.6 20.708l3.1-.201-3.1-.201v.402z"/>
        <path fill="#D2F2F7" d="M168.9 24.427l-2.9-6.936-1.1 1.81 4 5.126z"/>
        <path fill="#7894A0" d="M168.9 24.427l-.7-8.444-2.2 1.508 2.9 6.936z"/>
        <path fill="#BEDEE5" d="M168.9 24.427l3.7-.2-4.4-8.244.7 8.444z"/>
        <path fill="#97AFB7" d="M15.4 16.385L17 15.28l-1.6-4.423v5.528z"/>
        <path fill="#B5E1F4" d="M21.4 9.047l-5-1.91-1.1 3.72 6.1-1.81z"/>
        <path fill="#BEDEE5" d="M17 15.28l4.4-6.233-6.1 1.81L17 15.28z"/>
        <path fill="#7792A0" d="M21.4 9.047L18 4.021l-1.6 3.116 5 1.91z"/>
        <path fill="#B2D1ED" d="M19.3 18.898l2.1-9.85L17 15.28l2.3 3.618z"/>
        <path fill="#B5E1F4" d="M28.5 15.983l-7.1-6.936-2.1 9.851 9.2-2.915z"/>
        <path fill="#7792A0" d="M21.4 9.047l-2.2-6.634L18 4.02l3.4 5.026z"/>
        <path fill="#B5E1F4" d="M21.4 9.047l7.4-2.513-9.6-4.121 2.2 6.634z"/>
        <path fill="#7792A0" d="M28.5 15.983l.3-9.449-7.4 2.513 7.1 6.936z"/>
        <path fill="#9BBFCC" d="M30.4 15.38l-1.6-8.846-.3 9.45 1.9-.604z"/>
        <path fill="#90B2BA" d="M30.4 15.38l3.8-1.005-5.3-7.84 1.5 8.845z"/>
        <path fill="#90B2BA" d="M34.2 14.375l1.3-9.45-6.7 1.509 5.4 7.94zM36.4 5.529l-.9-.603-1.3 9.449 2.2-8.846z"/>
        <path fill="#7792A0" d="M35.5 4.926l-2-1.408-4.6 2.915 6.6-1.507z"/>
        <path fill="#8CA8BA" d="M33.2 16.486l1-2.111-3.8 1.005 2.8 1.106z"/>
        <path fill="#B5E1F4" d="M38 13.57L36.4 5.53l-2.2 8.846 3.8-.804z"/>
        <path fill="#AFD2DB" d="M38 13.57l-3.8.805-1 2.11 4.8-2.914z"/>
        <path fill="#97AFB7" d="M35.1 19.904L38 13.67l-4.8 2.815 1.9 3.418z"/>
        <path fill="#9BBFCC" d="M36.4 5.529l7-2.915-7.9 2.412.9.503z"/>
        <path fill="#7792A0" d="M43.1 19.2L38 13.57l-2.9 6.233 8-.603z"/>
        <path fill="#BEDEE5" d="M38 13.57l8.1-5.83-9.7-2.312 1.6 8.143z"/>
        <path fill="#BEDEE5" d="M45.6 12.063L46 7.84l-8 5.73 7.6-1.508z"/>
        <path fill="#7792A0" d="M46.1 7.84l-2.7-5.226-7 2.915 9.7 2.312zM43.1 19.2l2.5-7.137L38 13.57l5.1 5.629z"/>
        <path fill="#97AFB7" d="M46.2 11.761l-.1-3.92-.5 4.222.6-.302z"/>
        <path fill="#9BBFCC" d="M43.9 19.803l1.7-7.74-2.5 7.137.8.603z"/>
        <path fill="#AFD2DB" d="M46.2 11.761l.8-.703-.9-3.217.1 3.92zM53.1 15.581l-7.5-3.518-1.7 7.74 9.2-4.222z"/>
        <path fill="#BEDEE5" d="M46.1 7.84V0l-2.7 2.614 2.7 5.227z"/>
        <path fill="#7AC2CE" d="M51.7 2.312L46.1 0 46 7.84l5.7-5.528z"/>
        <path fill="#CBEAF4" d="M53.1 15.581l-6.9-3.82-.6.302 7.5 3.518z"/>
        <path fill="#CBEAF4" d="M53.1 15.581L47 11.058l-.8.703 6.9 3.82z"/>
        <path fill="#C5DCED" d="M53.1 15.581l.3-.804-6.4-3.72 6.1 4.524z"/>
        <path fill="#90B2BA" d="M47 11.058l8.6-6.635-9.5 3.418.9 3.217z"/>
        <path fill="#B5E1F4" d="M55.6 4.423l-3.8-2.111-5.6 5.428 9.4-3.317zM53.4 14.777l2.2-10.354-8.6 6.635 6.4 3.719z"/>
        <path fill="#9FB6BC" d="M59.6 8.645l-4-4.222-2.2 10.354 6.2-6.132z"/>
        <path fill="#C5DCED" d="M55.6 19.904l1.6.2-3.8-5.327 2.2 5.127z"/>
        <path fill="#D2F2F7" d="M60.6 9.851l-1-1.206-6.2 6.031 7.2-4.825z"/>
        <path fill="#C5DCED" d="M55.6 19.904l-2.2-5.127-.3.804 2.5 4.323z"/>
        <path fill="#B5E1F4" d="M57.1 20.105l3.4-10.153-7.2 4.825 3.8 5.328z"/>
        <path fill="#7792A0" d="M59 20.708L60.6 9.85l-3.5 10.254 1.9.603z"/>
        <path fill="#BEDEE5" d="M59.6 8.645l5.7-7.037-9.7 2.815 4 4.222z"/>
        <path fill="#9BBFCC" d="M61.2 21.914l-.6-12.063L59 20.708l2.2 1.206z"/>
        <path fill="#AFD2DB" d="M61.2 21.914l9.4-7.54-10-4.523.6 12.063z"/>
        <path fill="#B5E1F4" d="M66.8 7.137l-1.6-5.529-5.7 7.037 7.3-1.508z"/>
        <path fill="#BEDEE5" d="M70.6 14.375l-.5-2.413-9.6-2.11 10.1 4.523z"/>
        <path fill="#B5E1F4" d="M60.6 9.851l6.2-2.714-7.2 1.508 1 1.206z"/>
        <path fill="#C5DCED" d="M70.7 21.713v-7.338l-9.4 7.54 9.4-.202z"/>
        <path fill="#B5E1F4" d="M70.2 11.962l-3.4-4.825-6.2 2.714 9.6 2.111z"/>
        <path fill="#97AFB7" d="M66.8 7.137l17-.603-18.6-4.926 1.6 5.53z"/>
        <path fill="#AFD2DB" d="M83.8 6.534l1.4-4.423-20-.503 18.6 4.926z"/>
        <path fill="#7792A0" d="M70.2 11.962l12.2-2.211-15.6-2.614 3.4 4.825z"/>
        <path fill="#AFD2DB" d="M82.4 9.75l1.4-3.216-17 .603 15.6 2.614z"/>
        <path fill="#97AFB7" d="M70.7 21.713l9.4-1.106-9.5-6.232.1 7.338zM70.6 14.375L82.4 9.85l-12.2 2.212.4 2.312z"/>
        <path fill="#9BBFCC" d="M80.1 20.507L82.4 9.75l-11.8 4.523 9.5 6.233z"/>
        <path fill="#97AFB7" d="M85.9 13.671l-3.5-3.82-2.3 10.756 5.8-6.936z"/>
        <path fill="#CBEAF4" d="M86.6 14.174l-.7-.603-5.8 6.936 6.5-6.333z"/>
        <path fill="#97AFB7" d="M87.7 15.48l-1-1.306-6.6 6.333 7.6-5.026z"/>
        <path fill="#97AFB7" d="M87.7 15.48l-1-1.306 1 1.307z"/>
        <path fill="#B5E1F4" d="M85.9 4.825l-.7-2.714-1.4 4.423 2.1-1.709z"/>
        <path fill="#BEDEE5" d="M85.9 13.671l-2.2-7.036-1.4 3.216 3.6 3.82z"/>
        <path fill="#B2D1ED" d="M85.9 13.671l6.6-6.735-6.6-2.01v8.745z"/>
        <path fill="#90B2BA" d="M85.9 13.671V4.926l-2.1 1.709 2.1 7.036zM86.6 14.174l5.9-7.238-6.6 6.735.7.503z"/>
        <path fill="#B5E1F4" d="M92.7 7.137l-.2-.2-5.9 7.237 6.1-7.037zM85.9 4.825l7.2-2.513-7.8-.201.6 2.714z"/>
        <path fill="#BEDEE5" d="M92.5 6.936l.5-4.624-7.2 2.513 6.7 2.111z"/>
        <path fill="#B5E1F4" d="M87.6 15.48l5.1-8.343-6.1 7.137 1 1.207z"/>
        <path fill="#7792A0" d="M89.5 16.988l3.2-9.951-5.1 8.343 1.9 1.608z"/>
        <path fill="#90B2BA" d="M96.4 8.545l-3.7-1.408-3.2 9.952 6.9-8.544z"/>
        <path fill="#90B2BA" d="M97.3 17.692l-.9-9.147-6.9 8.443 7.8.704z"/>
        <path fill="#BEDEE5" d="M92.7 7.137l.3-4.825-.5 4.624.2.201z"/>
        <path fill="#9BBFCC" d="M96.4 8.544l-3.3-6.232-.3 4.825 3.6 1.407z"/>
        <path fill="#BEDEE5" d="M96.4 8.544L100 3.92l-7-1.608 3.4 6.232z"/>
        <path fill="#B5E1F4" d="M100 3.92L97.3.704 93 2.21l7 1.71zM97.3 17.692l4.3-5.93-5.2-3.217.9 9.147zM102.9 5.328L100 3.92l-3.6 4.624 6.5-3.216z"/>
        <path fill="#9BBFCC" d="M101.6 11.761l1.3-6.433-6.5 3.217 5.2 3.216z"/>
        <path fill="#BEDEE5" d="M103.9 21.412l-2.3-9.65-4.3 5.93 6.6 3.72z"/>
        <path fill="#49738C" d="M103.9 21.412l2.6-9.852-4.9.201 2.3 9.65z"/>
        <path fill="#BEDEE5" d="M107.5 7.84l-4.6-2.512-1.3 6.433 5.9-3.92z"/>
        <path fill="#BEDEE5" d="M106.5 11.56l.9-3.72-5.9 3.921 5-.2z"/>
        <path fill="#B5E1F4" d="M112 18.898l-5.5-7.438-2.6 9.851 8.1-2.413z"/>
        <path fill="#7792A0" d="M107.5 7.84l-1.8-3.015-2.8.503 4.6 2.513z"/>
        <path fill="#BEDEE5" d="M112 18.898l1.1-6.936-6.5-.502 5.4 7.438z"/>
        <path fill="#AFC5DD" d="M107.5 7.84l13.2-2.21-15-.805 1.8 3.016z"/>
        <path fill="#97AFB7" d="M120.4 6.635l.4-1.006-13.2 2.212 12.8-1.206z"/>
        <path fill="#C5DCED" d="M113.1 12.063l-5.6-4.222-.9 3.72 6.5.502z"/>
        <path fill="#CBEAF4" d="M113.1 12.063l7.3-5.428-12.9 1.206 5.6 4.222z"/>
        <path fill="#9BBFCC" d="M119.4 17.39l-6.3-5.327-1.1 6.936 7.4-1.608z"/>
        <path fill="#94B9D3" d="M119.4 17.39l.9-10.755-7.3 5.428 6.4 5.327z"/>
        <path fill="#BEDEE5" d="M128 10.454l-7.6-3.82-.9 10.756 8.5-6.936z"/>
        <path fill="#9BBFCC" d="M128 10.454l-5.3-4.724-2.3.905 7.6 3.82z"/>
        <path fill="#B5E1F4" d="M127.6 20.004l.4-9.55-8.6 6.937 8.2 2.613zM122.7 5.73l-1.9-.1-.4 1.005 2.3-.905z"/>
        <path fill="#90B2BA" d="M127.9 20.004l.1-9.45-.4 9.55.3-.1z"/>
        <path fill="#7792A0" d="M128 10.454l5.1-8.846-10.4 4.122 5.3 4.724z"/>
        <path fill="#BEDEE5" d="M130.2 11.158l-2.2-.704-.1 9.45 2.3-8.746z"/>
        <path fill="#BEDEE5" d="M130.2 19.904l-.1-8.746-2.3 8.746h2.4z"/>
        <path fill="#9BBFCC" d="M130.2 11.158l2.9-9.55-5.1 8.846 2.2.704zM135.2 10.957l-2.1-9.349-2.9 9.55 5-.2z"/>
        <path fill="#BEDEE5" d="M130.2 19.904l5-8.947-5 .201v8.746z"/>
        <path fill="#AFD2DB" d="M137.7 12.465l-2.5-1.508-.3 10.052 2.8-8.544z"/>
        <path fill="#BEDEE5" d="M134.9 21.01l.3-10.053-5 8.947 4.7 1.105z"/>
        <path fill="#7792A0" d="M135.2 10.957l9.6-7.238-11.7-2.11 2.1 9.348z"/>
        <path fill="#9BBFCC" d="M137.7 12.465l7.1-8.746-9.6 7.238 2.5 1.508z"/>
        <path fill="#BEDEE5" d="M142.7 19.703l-5-7.238-2.8 8.544 7.8-1.306z"/>
        <path fill="#B5E1F4" d="M142.7 19.703l2.1-3.217-7.1-4.021 5 7.238zM147.8 10.354l-3-6.635-7.1 8.746 10.1-2.111z"/>
        <path fill="#B5E1F4" d="M144.8 16.486l3-6.132-10.1 2.11 7.1 4.022z"/>
        <path fill="#7792A0" d="M148.2 15.782l-.4-5.428-3 6.132 3.4-.704z"/>
        <path fill="#AFD2DB" d="M147.8 10.354l2.3-6.333-5.3-.201 3 6.534z"/>
        <path fill="#97AFB7" d="M151.7 6.735l-1.6-2.714-2.3 6.333 3.9-3.619zM148.2 15.782l10.3-3.418-10.6-2.01.3 5.428z"/>
        <path fill="#9BBFCC" d="M158.4 12.364l-6.7-5.629-3.9 3.619 10.6 2.01z"/>
        <path fill="#B5E1F4" d="M151.7 6.735l-.3-1.91-1.3-.804 1.6 2.714z"/>
        <path fill="#AFD2DB" d="M153.5 20.306l4.9-7.942-10.3 3.418 5.4 4.524z"/>
        <path fill="#C5DCED" d="M156.7 20.507l1.7-8.143-4.9 7.942 3.2.2z"/>
        <path fill="#7792A0" d="M159.3 13.27l-.9-.906-1.7 8.143 2.6-7.238z"/>
        <path fill="#AFD2DB" d="M158.4 12.364l1.3-1.507-8-4.122 6.7 5.63z"/>
        <path fill="#97AFB7" d="M151.7 6.735l8 4.122-8.3-6.032.3 1.91z"/>
        <path fill="#C5DCED" d="M159.7 10.857l5.7-9.148-14 3.016 8.3 6.132z"/>
        <path fill="#9BBFCC" d="M164.9 19.3l-5.6-6.03-2.7 7.237 8.3-1.206z"/>
        <path fill="#B5E1F4" d="M164.9 19.3l1.1-1.809-6.7-4.222 5.6 6.032z"/>
        <path fill="#B5E1F4" d="M159.3 13.27l1.5-1.308-2.4.402.9.905z"/>
        <path fill="#9BBFCC" d="M160.8 11.962l-1.1-1.105-1.3 1.507 2.4-.402z"/>
        <path fill="#CBEAF4" d="M160.8 11.962l4.6-10.253-5.7 9.148 1.1 1.105z"/>
        <path fill="#B5E1F4" d="M166 17.491l-5.2-5.529-1.5 1.307 6.7 4.222z"/>
        <path fill="#AFD2DB" d="M170.3 6.333l-4.9-4.524-4.6 10.254 9.5-5.73z"/>
        <path fill="#97AFB7" d="M168.5 14.475l1.8-8.142-9.5 5.63 7.7 2.512z"/>
        <path fill="#9BBFCC" d="M166 17.491l2.5-3.016-7.7-2.513 5.2 5.53z"/>
        <path fill="#9BBFCC" d="M168.2 15.883l.3-1.408-2.5 3.016 2.2-1.608z"/>
        <path fill="#AFD2DB" d="M171.2 14.777l-.9-8.444-1.8 8.142 2.7.302z"/>
        <path fill="#D2F2F7" d="M172.6 24.226l-1.4-9.449-3 1.206 4.4 8.243z"/>
        <path fill="#BEDEE5" d="M172.6 24.226l2.9-7.941-4.4-1.508 1.5 9.45z"/>
        <path fill="#BEDEE5" d="M171.2 14.777l-2.7-.201-.3 1.407 3-1.206z"/>
        <path fill="#B5E1F4" d="M181.4 5.529l-1.1-3.62-10.1 4.424 11.2-.804z"/>
        <path fill="#7792A0" d="M181 7.439l.4-1.91-11.1.804L181 7.439z"/>
        <path fill="#7792A0" d="M171.2 14.777l4.4 1.508-5.2-9.952.8 8.444z"/>
        <path fill="#9BBFCC" d="M175.6 16.285l5.4-8.846-10.7-1.106 5.3 9.952z"/>
        <path fill="#B5E1F4" d="M177.4 16.184L181 7.44l-5.4 8.846 1.8-.1z"/>
        <path fill="#B5E1F4" d="M185.8 13.772L181 7.439l-3.6 8.745 8.4-2.412z"/>
        <path fill="#9BBFCC" d="M187.2 17.39l-1.4-3.618-8.5 2.412 9.9 1.207z"/>
        <path fill="#90B2BA" d="M186.9 13.772l-5.5-8.243-.4 1.91 5.9 6.333zM185.8 13.772h1.1l-6-6.333 4.9 6.333z"/>
        <path fill="#90B2BA" d="M186.9 13.772L192 3.82l-10.6 1.709 5.5 8.243z"/>
        <path fill="#B5E1F4" d="M192 3.82l-3-3.418-7.6 5.127 10.6-1.71z"/>
        <path fill="#D2F2F7" d="M196.4 9.349L192 3.82l-5.1 9.952 9.5-4.423z"/>
        <path fill="#B5E1F4" d="M188.2 14.978l-1.3-1.206h-1.1l2.4 1.206z"/>
        <path fill="#7792A0" d="M187.2 17.39l1-2.412-2.4-1.206 1.4 3.619z"/>
        <path fill="#90B2BA" d="M188.2 14.978l8.1-5.63-9.4 4.424 1.3 1.206z"/>
        <path fill="#B5E1F4" d="M196.4 13.169v-3.92l-8.1 5.628 8.1-1.708z"/>
        <path fill="#D2F2F7" d="M193 27.242l4.7-12.566-10.6 2.714 5.9 9.852z"/>
        <path fill="#D2F2F7" d="M197.8 14.676l-9.6.302-1 2.412 10.6-2.714z"/>
        <path fill="#C6EBF4" d="M197.8 14.676l-1.4-1.507-8.2 1.708 9.6-.2z"/>
        <path fill="#7894A0" d="M196.7 27.543l1.1-12.867-4.8 12.566 3.7.301z"/>
        <path fill="#D2F2F7" d="M198.9 26.94l-1.1-12.264-1.1 12.867 2.2-.603zM196.4 9.349l.1-.1-4.5-5.43 4.4 5.53z"/>
        <path fill="#54BCE3" d="M205.9 29.654c0 .604-.4 1.106-.9 1.307l-12.8 3.82s-.1.402-.2.905c-.3 1.106-.7 2.915-1.1 4.322-.1.402-.2.905-.3 1.106-.5 2.312-1.9 3.72-3.1 3.82-1.9.1-4.1 0-4.1 0s-5 26.136-6 44.33c-.2 4.122-4.8 6.736-11 6.736H39.6c-6.2 0-10.8-2.614-11-6.735-1-18.195-6-44.331-6-44.331s-2.2.1-4.1 0c-1.2-.1-2.7-1.608-3.1-3.82-.1-.301-.1-.703-.3-1.106-.3-1.306-.8-3.216-1.1-4.322-.1-.603-.2-.905-.2-.905L1 30.961c-.6-.2-1-.804-1-1.407.1-2.111.3-6.936.3-10.756 0-5.127 5.3-5.428 5.3-5.428h194.8s5.3.301 5.3 5.428c-.1 3.82.1 8.746.2 10.856z"/>
        <path fill="#190A0B" d="M13.7 34.68h12.1L33 88.26s-.8 8.846 16.7 7.64H39.6s-10.6.2-11-6.736c-.5-7.74-1.5-18.797-6-44.23 0 0-2 .1-4.1 0-1.5-.1-2.7-1.81-3.2-3.82l-1.6-6.433zM5.5 13.27l-1.8 8.745c-.9 4.423 1 9.147 5.1 11.158.4.2.7.301 1.1.402l-9-2.614s-1.1-.2-1-1.407c.1-1.206.3-11.56.3-11.56s.1-4.021 5.3-4.725zM191.9 34.68h-16.4l-7.1 53.58s-.7 6.534-12.4 7.64h10.1s10.6.2 11-6.736c.5-7.74 1.5-18.797 6-44.23 0 0 2 .1 4.1 0 1.5-.1 2.7-1.81 3.2-3.82.8-3.619 1.5-6.433 1.5-6.433z" opacity=".2"/>
        <path fill="#3185A6" d="M14 34.178h178l-.152 1.006H14.228L14 34.178z"/>
        <path fill="#190A0B" d="M200.1 13.27v14.575s-.7 4.624-4.5 5.73l9-2.614s1.1-.2 1-1.407c-.1-1.206-.3-11.56-.3-11.56s0-4.021-5.2-4.725z" opacity=".2"/>
        <path fill="#4898B8" d="M191.7 35c-.1 1.206-1.2 2.915-1.4 4.322H15c-.3-1.306-.8-3.216-1.1-4.322h177.8z"/>
        <path fill="#328EB0" d="M40.345 96H58l-5.718-57H26l6.62 50.131C33.123 93.027 36.434 96 40.346 96zM24.2 34.68h28.3l-1.2-21.41H23l1.2 21.41z" opacity=".2"/>
    </g>
    <defs>
        <clipPath id="a">
            <path fill="#fff" d="M0 0h206v96H0z"/>
        </clipPath>
    </defs>
</svg>
