<svg xmlns="http://www.w3.org/2000/svg" width="145" height="35" fill="none" viewBox="0 0 145 35">
    <path fill="#4CD38B" d="M8.382 16.572H4.268V35h4.114V16.572zM17.825 16.572H13.71v18.427h4.114V16.571zM27.264 16.572H23.15v18.427h4.114V16.571zM36.708 16.572h-4.114v18.427h4.114V16.571zM46.15 16.572h-4.113v18.427h4.114V16.571zM55.59 16.572h-4.114v18.427h4.114V16.571zM65.033 16.572H60.92v18.427h4.114V16.571zM74.477 16.572h-4.115v18.427h4.115V16.571zM83.916 16.572h-4.114v18.427h4.114V16.571zM93.36 16.572h-4.115v18.427h4.114V16.571zM102.803 16.572h-4.114v18.427h4.114V16.571zM112.242 16.572h-4.114v18.427h4.114V16.571zM121.685 16.572h-4.114v18.427h4.114V16.571zM131.128 16.572h-4.114v18.427h4.114V16.571zM140.571 16.572h-4.114v18.427h4.114V16.571z"/>
    <path fill="#51E094" d="M8.382 12.939H4.268v18.428h4.114V12.939zM17.825 12.939H13.71v18.428h4.114V12.939zM27.264 12.939H23.15v18.428h4.114V12.939zM36.707 12.939h-4.114v18.428h4.114V12.939zM46.15 12.939h-4.113v18.428h4.114V12.939zM55.59 12.939h-4.114v18.428h4.114V12.939zM65.033 12.939H60.92v18.428h4.114V12.939zM74.477 12.939h-4.115v18.428h4.115V12.939zM83.916 12.939h-4.114v18.428h4.114V12.939zM93.359 12.939h-4.114v18.428h4.114V12.939zM102.802 12.939h-4.114v18.428h4.114V12.939zM112.242 12.939h-4.114v18.428h4.114V12.939zM121.685 12.939h-4.114v18.428h4.114V12.939zM131.128 12.939h-4.114v18.428h4.114V12.939zM140.571 12.939h-4.114v18.428h4.114V12.939z"/>
    <path fill="#45BF80" d="M8.382 5.544H4.268v18.428h4.114V5.544zM17.825 5.543H13.71v18.428h4.114V5.543zM27.264 5.543H23.15v18.428h4.114V5.543zM36.708 5.543h-4.114v18.428h4.114V5.543zM46.15 5.543h-4.113v18.428h4.114V5.543zM55.59 5.543h-4.114v18.428h4.114V5.543zM65.033 5.543H60.92v18.428h4.114V5.543zM74.477 5.543h-4.115v18.428h4.115V5.543zM83.916 5.543h-4.114v18.428h4.114V5.543zM93.36 5.543h-4.115v18.428h4.114V5.543zM102.803 5.543h-4.114v18.428h4.114V5.543zM112.242 5.543h-4.114v18.428h4.114V5.543zM121.685 5.543h-4.114v18.428h4.114V5.543zM131.128 5.543h-4.114v18.428h4.114V5.543zM140.571 5.543h-4.114v18.428h4.114V5.543z"/>
    <path fill="#4CD38B" d="M142.8 21.305H2.039A2.03 2.03 0 0 1 0 19.282V2.023A2.03 2.03 0 0 1 2.039 0h140.758c1.127 0 2.038.905 2.038 2.023v17.259a2.026 2.026 0 0 1-2.035 2.023z"/>
    <path fill="#4CD38B" d="M142.8 21.305H2.039A2.03 2.03 0 0 1 0 19.282V2.023A2.03 2.03 0 0 1 2.039 0h140.758c1.127 0 2.038.905 2.038 2.023v17.259a2.026 2.026 0 0 1-2.035 2.023z"/>
    <path fill="#54E899" d="M142.8 10.654H2.039A2.032 2.032 0 0 1 0 8.627V2.023A2.03 2.03 0 0 1 2.039 0h140.758c1.127 0 2.038.905 2.038 2.023v6.604a2.029 2.029 0 0 1-2.035 2.027z"/>
    <path fill="#51E094" d="M144.839 5.543H0v9.11h144.839v-9.11z"/>
    <path fill="#58F4A3" d="M8.418 21.432H6.954v13.44h1.464v-13.44zM17.934 21.432h-1.83v13.44h1.83v-13.44zM27.085 21.432h-1.464v13.44h1.464v-13.44zM36.601 21.432h-1.464v13.44h1.464v-13.44zM46.118 21.432h-1.464v13.44h1.464v-13.44zM55.634 21.432H54.17v13.44h1.464v-13.44zM65.15 21.432h-1.83v13.44h1.83v-13.44zM74.3 21.432h-1.463v13.44H74.3v-13.44zM83.817 21.432h-1.464v13.44h1.464v-13.44zM93.334 21.432H91.87v13.44h1.464v-13.44zM102.85 21.432h-1.464v13.44h1.464v-13.44zM112.366 21.432h-1.83v13.44h1.83v-13.44zM121.517 21.432h-1.464v13.44h1.464v-13.44zM131.033 21.432h-1.464v13.44h1.464v-13.44zM140.549 21.432h-1.464v13.44h1.464v-13.44zM142.808 21.305h-2.504l-2.928-6.655V5.543L140.304 0h2.511c1.12 0 2.028.9 2.028 2.012v17.28a2.027 2.027 0 0 1-2.035 2.013zM2.031 21.305h2.504l2.928-6.655V5.543L4.535 0H2.028C.908 0 0 .9 0 2.012v17.28a2.02 2.02 0 0 0 2.031 2.013z" opacity=".5"/>
    <path fill="#003E6B" d="M2.595 20.092a1.47 1.47 0 0 0 1.475-1.464 1.47 1.47 0 0 0-1.475-1.464 1.47 1.47 0 0 0-1.475 1.464c0 .808.66 1.464 1.475 1.464zM142.047 4.141a1.47 1.47 0 0 0 1.475-1.464 1.47 1.47 0 0 0-1.475-1.464 1.47 1.47 0 0 0-1.475 1.464c0 .809.66 1.464 1.475 1.464zM142.046 20.092a1.47 1.47 0 0 0 1.476-1.464 1.47 1.47 0 0 0-1.476-1.464 1.47 1.47 0 0 0-1.475 1.464 1.47 1.47 0 0 0 1.475 1.464z"/>
    <path fill="#3FAF75" d="M142.662 4.007c.15-.229.237-.501.237-.792a1.467 1.467 0 0 0-2.09-1.326 1.477 1.477 0 0 1 2.713.792c0 .588-.355 1.093-.86 1.326z"/>
    <path fill="#378E60" d="M141.424 19.536c.817 0 1.475-.654 1.475-1.464 0-.28-.084-.541-.223-.763.498.236.846.734.846 1.319 0 .81-.659 1.464-1.475 1.464a1.47 1.47 0 0 1-1.252-.701c.19.09.402.145.629.145z"/>
    <path fill="#003E6B" d="M2.595 4.141A1.47 1.47 0 0 0 4.07 2.677a1.47 1.47 0 0 0-1.475-1.464A1.47 1.47 0 0 0 1.12 2.677c0 .809.66 1.464 1.475 1.464z"/>
    <path fill="#3FAF75" d="M1.98 4.007a1.472 1.472 0 0 1-.238-.792 1.468 1.468 0 0 1 2.09-1.326 1.47 1.47 0 0 0-1.237-.676c-.816 0-1.475.654-1.475 1.464 0 .592.355 1.097.86 1.33z"/>
    <path fill="#378E60" d="M3.217 19.536a1.468 1.468 0 0 1-1.475-1.464c0-.28.084-.541.223-.763a1.46 1.46 0 0 0-.845 1.319c0 .81.659 1.464 1.475 1.464.53 0 .996-.284 1.252-.701-.19.09-.403.145-.63.145z"/>
    <g fill="#B0E298" style="mix-blend-mode:color">
        <path d="M8.382 16.572H4.268V35h4.114V16.572zM17.825 16.572H13.71v18.427h4.114V16.571zM27.264 16.572H23.15v18.427h4.114V16.571zM36.708 16.572h-4.114v18.427h4.114V16.571zM46.15 16.572h-4.113v18.427h4.114V16.571zM55.59 16.572h-4.114v18.427h4.114V16.571zM65.033 16.572H60.92v18.427h4.114V16.571zM74.477 16.572h-4.115v18.427h4.115V16.571zM83.916 16.572h-4.114v18.427h4.114V16.571zM93.36 16.572h-4.115v18.427h4.114V16.571zM102.803 16.572h-4.114v18.427h4.114V16.571zM112.242 16.572h-4.114v18.427h4.114V16.571zM121.685 16.572h-4.114v18.427h4.114V16.571zM131.128 16.572h-4.114v18.427h4.114V16.571zM140.571 16.572h-4.114v18.427h4.114V16.571z"/>
    </g>
    <path fill="#B0E298" d="M142.8 21.305H2.039A2.03 2.03 0 0 1 0 19.282V2.023A2.03 2.03 0 0 1 2.039 0h140.758c1.127 0 2.038.905 2.038 2.023v17.259a2.026 2.026 0 0 1-2.035 2.023z" style="mix-blend-mode:color"/>
</svg>
