<svg id="Layer_1" data-name="Layer 1" xmlns="http://www.w3.org/2000/svg" width="60" height="44" viewBox="0 0 60 44">
  <defs>
    <style>
      .cls-1 {
        fill: #0063c3;
      }

      .cls-2 {
        fill: #fff;
      }
    </style>
  </defs>
  <title>eject</title>
  <path class="cls-1" d="M60,22S44,44,22.67,44C10.15,44,0,34.15,0,22S10.15,0,22.67,0C44,0,60,22,60,22Z"/>
  <path class="cls-2" d="M11.68,21h5.16v-1.4H13.3V17.93h2.88V16.54H13.3V15h3.42v-1.4h-5Zm8.35.13c1.81,0,2.6-.79,2.6-2.59V13.62H21v4.84c0,.88-.28,1.26-1,1.26s-1-.36-1-1.19v-.21H17.46v.21C17.46,20.33,18.24,21.11,20,21.11ZM24.09,21h5.16v-1.4H25.72V17.93H28.6V16.54H25.72V15h3.42v-1.4h-5Zm9,.13c1.88,0,2.77-.88,2.82-2.77H34.36c0,1-.38,1.38-1.25,1.38s-1.26-.45-1.26-1.62V16.51c0-1.17.35-1.62,1.26-1.62s1.21.41,1.25,1.39h1.55c0-1.91-.93-2.78-2.82-2.78s-2.86.94-2.86,3v1.65C30.23,20.17,31.14,21.11,33.09,21.11ZM38.45,21h1.62V15h2V13.62H36.48V15h2ZM20.74,33.17h1.62V27.22h2V25.8H18.77v1.42h2Zm4.48,0h1.62V25.8H25.22Zm3.25,0h1.62V30.59h1.29c1.86,0,2.65-.7,2.65-2.38s-.79-2.4-2.65-2.4H28.46v7.36Zm1.62-4v-2h1.15c.82,0,1.17.3,1.17,1s-.35,1-1.17,1H30.09Z"/>
</svg>
