<svg xmlns="http://www.w3.org/2000/svg" width="20" height="24" fill="none" viewBox="0 0 20 24">
    <g clip-path="url(#a)">
        <path fill="#8BB975" d="M14 5v19H6V5h8z"/>
        <path fill="#72A45B" d="M14 5v2H6V5h8z"/>
        <path fill="#B0E298" d="M19.92 5H.16C.08 5 0 5 0 4.878V1s0-1 1-1h18c.81 0 .97.776.995.96a.549.549 0 0 1 .005.08v3.838C20 5 20 5 19.92 5z"/>
        <path fill="#6C9F54" d="M1 2.5a.5.5 0 1 1 1 0V5H1V2.5zm4 0a.5.5 0 1 1 1 0V5H5V2.5zm4 0a.5.5 0 1 1 1 0V5H9V2.5zm4 0a.5.5 0 0 1 1 0V5h-1V2.5zm4 0a.5.5 0 0 1 1 0V5h-1V2.5zm-14 0a.5.5 0 1 1 1 0V5H3V2.5zm4 0a.5.5 0 1 1 1 0V5H7V2.5zm4 0a.5.5 0 0 1 1 0V5h-1V2.5zm4 0a.5.5 0 0 1 1 0V5h-1V2.5zm4 0a.5.5 0 0 1 1 0V5h-1V2.5z"/>
    </g>
    <defs>
        <clipPath id="a">
            <path fill="#fff" d="M0 0h20v24H0z"/>
        </clipPath>
    </defs>
</svg>
