<svg xmlns="http://www.w3.org/2000/svg" width="489" height="316" fill="none" viewBox="0 0 489 316">
    <g filter="url(#a)">
        <path fill="#CCC" d="M473 263.727H16L29.48 296H459.52L473 263.727z"/>
        <path fill="#F7F7F7" d="M16 37.818h457L459.521 24.91H29.479L16 37.82z"/>
        <path fill="#EAEAEF" d="M473 37.818H16v225.909h457V37.818z"/>
        <path fill="#F7F7F7" d="M463.277 47.5H25.723v206.545h437.554V47.5z"/>
        <path fill="#E36554" d="M463 184.302L26 89v165h437v-69.698z"/>
        <path fill="#C14534" d="M463 194.067L26 127v127h437v-59.933z"/>
        <path fill="#BFB9C3" d="M442.524 18.126l-1.621-4.4L439.282 12h-31.357v6.126h-58.919V12h-29.459v6.126h-58.919V12h-29.459v6.126H172.25V12h-29.46v6.126H83.872V12h-30.31l-3.241 1.727c-2.922 0-1.62 4.527-1.62 8.633v9.004h393.823v-10.73c0-4.107 2.939-2.508 0-2.508z"/>
        <path fill="#D7D1DB" d="M239.417 12h-8.523v6.256h8.523V12zM415.695 12h-8.524v6.256h8.524V12zM327.562 12h-8.524v6.256h8.524V12zM151.286 12h-8.523v6.256h8.523V12zM58.135 12h-8c-2.735 0-4.964 3.318-4.964 7.424v11.94h8v-11.94c0-4.106 2.213-7.423 4.964-7.423z"/>
        <path fill="#A09BA5" d="M260.268 12h-8.524v6.256h8.524V12zM83.988 12h-8.523v6.256h8.523V12zM172.119 12h-8.523v6.256h8.523V12zM348.397 12h-8.524v6.256h8.524V12zM430.866 12h8c2.735 0 4.964 3.318 4.964 7.424v11.94h-8v-11.94c0-4.106-2.213-7.424-4.964-7.424z"/>
        <mask id="b" width="138" height="72" x="54" y="92" maskUnits="userSpaceOnUse">
            <rect width="136.128" height="71" x="54.894" y="92.682" fill="#C4C4C4" rx="1"/>
        </mask>
        <g mask="url(#b)">
            <path fill="#4873E2" d="M191.021 92.682H54.894v71H191.02v-71z"/>
            <path fill="#254FBB" d="M54.894 92.682h136.128v2.84H54.894z"/>
            <path fill="#254FBB" d="M54.894 163.682v-71H57.2v68.16l-2.307 2.84z"/>
        </g>
        <path fill="#fff" d="M138.946 95.522l-81.415 68.16h52.525l81.954-68.16h-53.064zM202.508 95.522l-78.647 68.16h10.528l76.079-68.16h-7.96z" opacity=".2"/>
        <mask id="c" width="37" height="37" x="197" y="92" maskUnits="userSpaceOnUse">
            <path fill="#80CCE8" d="M197.504 95.64a2.965 2.965 0 0 1 2.971-2.958h29.71a2.965 2.965 0 0 1 2.971 2.958v29.584a2.965 2.965 0 0 1-2.971 2.958h-29.71a2.965 2.965 0 0 1-2.971-2.958V95.64z"/>
        </mask>
        <g mask="url(#c)">
            <path fill="#FAAC48" d="M197.504 95.64a2.965 2.965 0 0 1 2.971-2.958h29.71a2.965 2.965 0 0 1 2.971 2.958v29.584a2.965 2.965 0 0 1-2.971 2.958h-29.71a2.965 2.965 0 0 1-2.971-2.958V95.64z"/>
            <path fill="#FFD5A0" d="M197.504 94.161c0-.817.725-1.48 1.62-1.48.895 0 1.621.663 1.621 1.48v32.542c0 .817-.726 1.479-1.621 1.479s-1.62-.662-1.62-1.479V94.161z"/>
            <path fill="#DD871A" d="M200.475 124.955h31.196c.82 0 1.485.722 1.485 1.613s-.665 1.614-1.485 1.614h-34.167l2.971-3.227z"/>
            <path fill="#DD871A" d="M231.535 128.182c-.895 0-1.62-.662-1.62-1.479V94.161c0-.817.725-1.48 1.62-1.48.895 0 1.621.663 1.621 1.48v32.542c0 .817-.726 1.479-1.621 1.479z"/>
            <path fill="#FFD5A0" d="M197.504 94.296c0-.892.665-1.614 1.485-1.614h34.167l-2.971 3.227h-31.196c-.82 0-1.485-.722-1.485-1.614z"/>
        </g>
        <path fill="#333" fill-rule="evenodd" d="M203.445 112.881l12.039-11.323v6.426l-12.039 11.324v-6.427zm23.769 0l-11.73-11.323v6.426l11.73 11.324v-6.427z" clip-rule="evenodd"/>
        <mask id="d" width="37" height="36" x="197" y="128" maskUnits="userSpaceOnUse">
            <path fill="#80CCE8" d="M197.504 131.14a2.964 2.964 0 0 1 2.971-2.958h29.71a2.964 2.964 0 0 1 2.971 2.958v29.584a2.965 2.965 0 0 1-2.971 2.958h-29.71a2.965 2.965 0 0 1-2.971-2.958V131.14z"/>
        </mask>
        <g mask="url(#d)">
            <path fill="#FAAC48" d="M197.504 131.14a2.964 2.964 0 0 1 2.971-2.958h29.71a2.964 2.964 0 0 1 2.971 2.958v29.584a2.965 2.965 0 0 1-2.971 2.958h-29.71a2.965 2.965 0 0 1-2.971-2.958V131.14z"/>
            <path fill="#FFD5A0" d="M197.504 129.661c0-.817.725-1.479 1.62-1.479.895 0 1.621.662 1.621 1.479v32.542c0 .817-.726 1.479-1.621 1.479s-1.62-.662-1.62-1.479v-32.542z"/>
            <path fill="#DD871A" d="M200.475 160.455h31.196c.82 0 1.485.722 1.485 1.613s-.665 1.614-1.485 1.614h-34.167l2.971-3.227z"/>
            <path fill="#DD871A" d="M231.535 163.682c-.895 0-1.62-.662-1.62-1.479v-32.542c0-.817.725-1.479 1.62-1.479.895 0 1.621.662 1.621 1.479v32.542c0 .817-.726 1.479-1.621 1.479z"/>
            <path fill="#FFD5A0" d="M197.504 129.796c0-.892.665-1.614 1.485-1.614h34.167l-2.971 3.227h-31.196c-.82 0-1.485-.722-1.485-1.613z"/>
        </g>
        <path fill="#333" fill-rule="evenodd" d="M227.214 144.29l-12.039 11.324v-6.427l12.039-11.323v6.426zm-23.768 0l11.729 11.324v-6.427l-11.729-11.323v6.426z" clip-rule="evenodd"/>
        <mask id="e" width="137" height="72" x="259" y="92" maskUnits="userSpaceOnUse">
            <rect width="136.128" height="71" x="259.085" y="92.682" fill="#C4C4C4" rx="1"/>
        </mask>
        <g mask="url(#e)">
            <path fill="#4873E2" d="M395.213 92.682H259.085v71h136.128v-71z"/>
            <path fill="#254FBB" d="M259.085 92.682h136.128v2.84H259.085z"/>
            <path fill="#254FBB" d="M259.085 163.682v-71h2.307v68.16l-2.307 2.84z"/>
        </g>
        <path fill="#fff" d="M343.137 95.522l-81.415 68.16h52.525l81.955-68.16h-53.065zM406.7 95.522l-78.647 68.16h10.528l76.078-68.16H406.7z" opacity=".2"/>
        <mask id="f" width="37" height="37" x="401" y="92" maskUnits="userSpaceOnUse">
            <path fill="#80CCE8" d="M401.695 95.64a2.965 2.965 0 0 1 2.971-2.958h29.71a2.965 2.965 0 0 1 2.971 2.958v29.584a2.965 2.965 0 0 1-2.971 2.958h-29.71a2.965 2.965 0 0 1-2.971-2.958V95.64z"/>
        </mask>
        <g mask="url(#f)">
            <path fill="#FAAC48" d="M401.695 95.64a2.965 2.965 0 0 1 2.971-2.958h29.71a2.965 2.965 0 0 1 2.971 2.958v29.584a2.965 2.965 0 0 1-2.971 2.958h-29.71a2.965 2.965 0 0 1-2.971-2.958V95.64z"/>
            <path fill="#FFD5A0" d="M401.695 94.161c0-.817.726-1.48 1.621-1.48s1.62.663 1.62 1.48v32.542c0 .817-.725 1.479-1.62 1.479-.895 0-1.621-.662-1.621-1.479V94.161z"/>
            <path fill="#DD871A" d="M404.666 124.955h31.196c.82 0 1.485.722 1.485 1.613s-.665 1.614-1.485 1.614h-34.167l2.971-3.227z"/>
            <path fill="#DD871A" d="M435.727 128.182c-.895 0-1.621-.662-1.621-1.479V94.161c0-.817.726-1.48 1.621-1.48s1.621.663 1.621 1.48v32.542c0 .817-.726 1.479-1.621 1.479z"/>
            <path fill="#FFD5A0" d="M401.695 94.296c0-.892.665-1.614 1.486-1.614h34.166l-2.971 3.227h-31.195c-.821 0-1.486-.722-1.486-1.614z"/>
        </g>
        <path fill="#333" fill-rule="evenodd" d="M407.637 112.881l12.038-11.323v6.426l-12.038 11.324v-6.427zm23.768 0l-11.73-11.323v6.426l11.73 11.324v-6.427z" clip-rule="evenodd"/>
        <mask id="g" width="37" height="36" x="401" y="128" maskUnits="userSpaceOnUse">
            <path fill="#80CCE8" d="M401.695 131.14a2.964 2.964 0 0 1 2.971-2.958h29.71a2.964 2.964 0 0 1 2.971 2.958v29.584a2.965 2.965 0 0 1-2.971 2.958h-29.71a2.965 2.965 0 0 1-2.971-2.958V131.14z"/>
        </mask>
        <g mask="url(#g)">
            <path fill="#FAAC48" d="M401.695 131.14a2.964 2.964 0 0 1 2.971-2.958h29.71a2.964 2.964 0 0 1 2.971 2.958v29.584a2.965 2.965 0 0 1-2.971 2.958h-29.71a2.965 2.965 0 0 1-2.971-2.958V131.14z"/>
            <path fill="#FFD5A0" d="M401.695 129.661c0-.817.726-1.479 1.621-1.479s1.62.662 1.62 1.479v32.542c0 .817-.725 1.479-1.62 1.479-.895 0-1.621-.662-1.621-1.479v-32.542z"/>
            <path fill="#DD871A" d="M404.666 160.455h31.196c.82 0 1.485.722 1.485 1.613s-.665 1.614-1.485 1.614h-34.167l2.971-3.227z"/>
            <path fill="#DD871A" d="M435.727 163.682c-.895 0-1.621-.662-1.621-1.479v-32.542c0-.817.726-1.479 1.621-1.479s1.621.662 1.621 1.479v32.542c0 .817-.726 1.479-1.621 1.479z"/>
            <path fill="#FFD5A0" d="M401.695 129.796c0-.892.665-1.614 1.486-1.614h34.166l-2.971 3.227h-31.195c-.821 0-1.486-.722-1.486-1.613z"/>
        </g>
        <path fill="#333" fill-rule="evenodd" d="M431.405 144.29l-12.038 11.324v-6.427l12.038-11.323v6.426zm-23.768 0l11.73 11.324v-6.427l-11.73-11.323v6.426z" clip-rule="evenodd"/>
        <mask id="h" width="178" height="36" x="259" y="172" maskUnits="userSpaceOnUse">
            <rect width="178" height="36" x="259" y="172" fill="#FAAC48" rx="1"/>
        </mask>
        <g mask="url(#h)">
            <rect width="178" height="39" x="259" y="172" fill="#FAAC48" rx="1"/>
            <path fill="#FFD5A0" d="M259 173a1 1 0 0 1 1-1h176.681a1 1 0 0 1 1 1v2.521H260a1 1 0 0 1-1-1V173z"/>
            <path fill="#DD871A" d="M436.681 206.727a1 1 0 0 1-1 1H260a1 1 0 0 1-1-1v-2.52h176.681a1 1 0 0 1 1 1v1.52z"/>
            <path fill="#FFD5A0" d="M260 172a1 1 0 0 0-1 1v37.727l3.241-3.52V173a1 1 0 0 0-1-1H260z"/>
            <path fill="#DD871A" d="M436 210.727a1 1 0 0 0 1-1V172l-3.241 3.521v34.206a1 1 0 0 0 1 1H436z"/>
        </g>
        <path fill="#333" d="M334.261 196.818c2.765 0 4.156-1.21 4.156-3.649 0-2.274-1.078-3.3-3.93-3.685-2-.276-2.731-.862-2.731-2.109 0-1.265.887-1.962 2.505-1.962 1.634 0 2.417.697 2.417 2.145h1.565c0-2.439-1.321-3.649-3.93-3.649-2.661 0-4.104 1.247-4.104 3.631 0 2.145 1.008 3.117 3.721 3.502 2.174.312 2.939.935 2.939 2.274 0 1.32-.869 1.999-2.591 1.999-1.791 0-2.713-.752-2.713-2.256H330c0 2.512 1.443 3.759 4.261 3.759zM343.433 196.598h1.391v-1.393h-1.026c-1.026 0-1.287-.312-1.287-1.541v-5.207h2.209v-1.321h-2.209v-2.493h-1.373l-.122 2.493h-1.583v1.321h1.548v5.189c0 2.072.73 2.952 2.452 2.952zM349.061 196.818c1.304 0 2.313-.532 3.043-1.503l.052 1.283h1.305v-6.179c0-2.347-1.148-3.503-3.513-3.503-2.244 0-3.461 1.046-3.618 3.099h1.496c.052-1.155.8-1.705 2.069-1.705 1.392 0 2.035.678 2.035 2.145v.514h-2.156c-2.522 0-3.705 1.063-3.705 2.952 0 1.852 1.148 2.897 2.992 2.897zm.226-1.393c-1.131 0-1.687-.55-1.687-1.541 0-1.063.661-1.577 2.226-1.577h2.104v1.339c-.539 1.155-1.443 1.779-2.643 1.779zM356.156 196.598h1.531v-5.446c.295-1.815 1.113-2.604 2.574-2.604h.452v-1.595h-.609c-1.304 0-2.122.605-2.574 1.944l-.069-1.761h-1.305v9.462zM365.342 196.598h1.391v-1.393h-1.026c-1.026 0-1.287-.312-1.287-1.541v-5.207h2.209v-1.321h-2.209v-2.493h-1.374l-.122 2.493h-1.582v1.321h1.547v5.189c0 2.072.731 2.952 2.453 2.952zM55.192 73.6h2.76V88h2.64V73.6h2.76v-2.4h-8.16v2.4zm12.963 0h4.56v-2.4h-7.2V88h7.2v-2.4h-4.56v-4.92h3.624v-2.4h-3.624V73.6zm10.844-2.4h-3.672V88h2.304V76.12L79.599 88h2.496l1.824-12.048V88h2.496V71.2h-3.672l-1.8 11.928L78.999 71.2zm14.224 0h-3.888V88h2.64v-6.312h1.248c2.64 0 3.936-1.464 3.936-4.152v-2.184c0-2.688-1.296-4.152-3.936-4.152zm0 2.4c.84 0 1.296.384 1.296 1.584v2.52c0 1.2-.456 1.584-1.296 1.584h-1.248V73.6h1.248zm8.799 0h4.56v-2.4h-7.2V88h7.2v-2.4h-4.56v-4.92h3.624v-2.4h-3.624V73.6zM117.426 88c-.264-.624-.288-1.224-.288-2.04v-2.592c0-1.752-.432-3.024-1.752-3.576 1.176-.552 1.728-1.68 1.728-3.408v-1.32c0-2.592-1.176-3.864-3.912-3.864h-3.984V88h2.64v-6.84h.912c1.2 0 1.728.576 1.728 2.136v2.64c0 1.368.096 1.632.24 2.064h2.688zm-4.296-14.4c.936 0 1.344.528 1.344 1.728v1.656c0 1.344-.6 1.776-1.584 1.776h-1.032V73.6h1.272zm12.6-2.4h-3.864L119.178 88h2.424l.456-3.048h3.24l.456 3.048h2.664l-2.688-16.8zm-2.064 2.976l1.272 8.496h-2.544l1.272-8.496zm5.299-.576h2.76V88h2.64V73.6h2.76v-2.4h-8.16v2.4zm10.203-2.4v12.792c0 2.688 1.344 4.224 3.936 4.224 2.592 0 3.936-1.536 3.936-4.224V71.2h-2.496v12.96c0 1.2-.528 1.632-1.368 1.632-.84 0-1.368-.432-1.368-1.632V71.2h-2.64zM158.059 88c-.264-.624-.288-1.224-.288-2.04v-2.592c0-1.752-.432-3.024-1.752-3.576 1.176-.552 1.728-1.68 1.728-3.408v-1.32c0-2.592-1.176-3.864-3.912-3.864h-3.984V88h2.64v-6.84h.912c1.2 0 1.728.576 1.728 2.136v2.64c0 1.368.096 1.632.24 2.064h2.688zm-4.296-14.4c.936 0 1.344.528 1.344 1.728v1.656c0 1.344-.6 1.776-1.584 1.776h-1.032V73.6h1.272zm9.384 0h4.56v-2.4h-7.2V88h7.2v-2.4h-4.56v-4.92h3.624v-2.4h-3.624V73.6zM260.192 73.6h2.76V88h2.64V73.6h2.76v-2.4h-8.16v2.4zM270.515 88h2.64V71.2h-2.64V88zm9.218-16.8h-3.672V88h2.304V76.12L280.333 88h2.496l1.824-12.048V88h2.496V71.2h-3.672l-1.8 11.928-1.944-11.928zm12.976 2.4h4.56v-2.4h-7.2V88h7.2v-2.4h-4.56v-4.92h3.624v-2.4h-3.624V73.6zM308.113 88c-.264-.624-.288-1.224-.288-2.04v-2.592c0-1.752-.432-3.024-1.752-3.576 1.176-.552 1.728-1.68 1.728-3.408v-1.32c0-2.592-1.176-3.864-3.912-3.864h-3.984V88h2.64v-6.84h.912c1.2 0 1.728.576 1.728 2.136v2.64c0 1.368.096 1.632.24 2.064h2.688zm-4.296-14.4c.936 0 1.344.528 1.344 1.728v1.656c0 1.344-.6 1.776-1.584 1.776h-1.032V73.6h1.272z"/>
    </g>
    <defs>
        <filter id="a" width="489" height="316" x="0" y="0" color-interpolation-filters="sRGB" filterUnits="userSpaceOnUse">
            <feFlood flood-opacity="0" result="BackgroundImageFix"/>
            <feColorMatrix in="SourceAlpha" values="0 0 0 0 0 0 0 0 0 0 0 0 0 0 0 0 0 0 127 0"/>
            <feOffset dy="4"/>
            <feGaussianBlur stdDeviation="8"/>
            <feColorMatrix values="0 0 0 0 0 0 0 0 0 0 0 0 0 0 0 0 0 0 0.25 0"/>
            <feBlend in2="BackgroundImageFix" result="effect1_dropShadow"/>
            <feBlend in="SourceGraphic" in2="effect1_dropShadow" result="shape"/>
        </filter>
    </defs>
</svg>
