<svg width="38" height="12" viewBox="0 0 38 12" fill="none" xmlns="http://www.w3.org/2000/svg">
<path d="M0.999947 1C0.999947 0.447715 1.34315 0 3 0H35.4999C37.1568 0 36.9999 0.447715 36.9999 1V11C36.9999 11.5523 37.1568 12 35.4999 12H2.5C0.843146 12 0.999947 11.5523 0.999947 11V1Z" fill="#FAAC48"/>
<path d="M1 0.5C1 0.223858 1.22386 0 1.5 0C1.77614 0 2 0.223858 2 0.5V11.5C2 11.7761 1.77614 12 1.5 12C1.22386 12 1 11.7761 1 11.5V0.5Z" fill="#FFD5A0"/>
<path d="M1.45831 12C1.32699 12 1.20856 11.9397 1.125 11.8432C1.5 11.5 1.49998 11.5 1.49998 11.5C1.49998 11.5 1.49998 11.5 1.99998 11L36.5416 11C36.7948 11 37 11.2239 37 11.5C37 11.7761 36.7948 12 36.5416 12L1.45831 12Z" fill="#DD871A"/>
<path d="M36.5 12C36.2239 12 36 11.7761 36 11.5L36 0.499999C36 0.223857 36.2239 -9.78515e-09 36.5 -2.18557e-08C36.7761 -3.39263e-08 37 0.223857 37 0.499999L37 11.5C37 11.7761 36.7761 12 36.5 12Z" fill="#DD871A"/>
<path d="M36.5417 -1.45694e-08C36.673 -8.82909e-09 36.7914 0.0602512 36.875 0.156796C36.5 0.5 36.5 0.5 36.5 0.5C36.5 0.5 36.5 0.5 36 1L1.45836 1C1.20523 1 1.00002 0.776142 1.00002 0.5C1.00002 0.223857 1.20523 -4.66391e-07 1.45836 -4.55326e-07L36.5417 -1.45694e-08Z" fill="#FFD5A0"/>
<path d="M14.3146 8C15.1677 8 15.597 7.625 15.597 6.86932C15.597 6.16477 15.2643 5.84659 14.3843 5.72727C13.7673 5.64205 13.5419 5.46023 13.5419 5.07386C13.5419 4.68182 13.8156 4.46591 14.3146 4.46591C14.819 4.46591 15.0604 4.68182 15.0604 5.13068H15.5433C15.5433 4.375 15.1355 4 14.3307 4C13.5097 4 13.0644 4.38636 13.0644 5.125C13.0644 5.78977 13.3756 6.09091 14.2126 6.21023C14.8833 6.30682 15.1194 6.5 15.1194 6.91477C15.1194 7.32386 14.8512 7.53409 14.32 7.53409C13.7673 7.53409 13.4829 7.30114 13.4829 6.83523H13C13 7.61364 13.4454 8 14.3146 8Z" fill="#333333"/>
<path d="M17.1446 7.93182H17.5739V7.5H17.2573C16.9407 7.5 16.8602 7.40341 16.8602 7.02273V5.40909H17.5417V5H16.8602V4.22727H16.4363L16.3988 5H15.9105V5.40909H16.388V7.01705C16.388 7.65909 16.6134 7.93182 17.1446 7.93182Z" fill="#333333"/>
<path d="M18.8809 8C19.2833 8 19.5945 7.83523 19.8198 7.53409L19.8359 7.93182H20.2384V6.01705C20.2384 5.28977 19.8842 4.93182 19.1545 4.93182C18.4623 4.93182 18.0867 5.25568 18.0384 5.89205H18.4999C18.516 5.53409 18.7467 5.36364 19.1384 5.36364C19.5677 5.36364 19.7662 5.57386 19.7662 6.02841V6.1875H19.1008C18.3228 6.1875 17.958 6.51705 17.958 7.10227C17.958 7.67614 18.3121 8 18.8809 8ZM18.9506 7.56818C18.6018 7.56818 18.4301 7.39773 18.4301 7.09091C18.4301 6.76136 18.634 6.60227 19.1169 6.60227H19.7662V7.01705C19.5999 7.375 19.3208 7.56818 18.9506 7.56818Z" fill="#333333"/>
<path d="M21.0701 7.93182H21.5423V6.24432C21.6335 5.68182 21.8857 5.4375 22.3364 5.4375H22.4759V4.94318H22.2881C21.8857 4.94318 21.6335 5.13068 21.494 5.54545L21.4726 5H21.0701V7.93182Z" fill="#333333"/>
<path d="M23.9041 7.93182H24.3333V7.5H24.0168C23.7002 7.5 23.6197 7.40341 23.6197 7.02273V5.40909H24.3011V5H23.6197V4.22727H23.1958L23.1583 5H22.67V5.40909H23.1475V7.01705C23.1475 7.65909 23.3729 7.93182 23.9041 7.93182Z" fill="#333333"/>
</svg>
