<svg width="176" height="208" viewBox="0 0 176 208" fill="none" xmlns="http://www.w3.org/2000/svg">
<path d="M54.6786 104.724L52.5225 104.724L52.5225 114.425L54.6786 114.425L54.6786 104.724Z" fill="#4CD38B"/>
<path d="M59.6278 104.724L57.4717 104.724L57.4717 114.425L59.6278 114.425L59.6278 104.724Z" fill="#4CD38B"/>
<path d="M64.575 104.724L62.4189 104.724L62.4189 114.425L64.575 114.425L64.575 104.724Z" fill="#4CD38B"/>
<path d="M69.5233 104.724L67.3672 104.724L67.3672 114.425L69.5233 114.425L69.5233 104.724Z" fill="#4CD38B"/>
<path d="M74.4725 104.724L72.3164 104.724L72.3164 114.425L74.4725 114.425L74.4725 104.724Z" fill="#4CD38B"/>
<path d="M79.4198 104.724L77.2637 104.724L77.2637 114.425L79.4198 114.425L79.4198 104.724Z" fill="#4CD38B"/>
<path d="M84.369 104.724L82.2129 104.724L82.2129 114.425L84.369 114.425L84.369 104.724Z" fill="#4CD38B"/>
<path d="M89.3182 104.724L87.1621 104.724L87.1621 114.425L89.3182 114.425L89.3182 104.724Z" fill="#4CD38B"/>
<path d="M94.2655 104.724L92.1094 104.724L92.1094 114.425L94.2655 114.425L94.2655 104.724Z" fill="#4CD38B"/>
<path d="M99.2147 104.724L97.0586 104.724L97.0586 114.425L99.2147 114.425L99.2147 104.724Z" fill="#4CD38B"/>
<path d="M104.164 104.724L102.008 104.724L102.008 114.425L104.164 114.425L104.164 104.724Z" fill="#4CD38B"/>
<path d="M109.111 104.724L106.955 104.724L106.955 114.425L109.111 114.425L109.111 104.724Z" fill="#4CD38B"/>
<path d="M114.059 104.724L111.903 104.724L111.903 114.425L114.059 114.425L114.059 104.724Z" fill="#4CD38B"/>
<path d="M119.009 104.724L116.853 104.724L116.853 114.425L119.009 114.425L119.009 104.724Z" fill="#4CD38B"/>
<path d="M123.958 104.724L121.802 104.724L121.802 114.425L123.958 114.425L123.958 104.724Z" fill="#4CD38B"/>
<path d="M54.6786 102.812L52.5225 102.812L52.5225 112.512L54.6786 112.512L54.6786 102.812Z" fill="#51E094"/>
<path d="M59.6278 102.812L57.4717 102.812L57.4717 112.512L59.6278 112.512L59.6278 102.812Z" fill="#51E094"/>
<path d="M64.5751 102.812L62.4189 102.812L62.4189 112.512L64.5751 112.512L64.5751 102.812Z" fill="#51E094"/>
<path d="M69.5243 102.812L67.3682 102.812L67.3682 112.512L69.5243 112.512L69.5243 102.812Z" fill="#51E094"/>
<path d="M74.4725 102.812L72.3164 102.812L72.3164 112.512L74.4725 112.512L74.4725 102.812Z" fill="#51E094"/>
<path d="M79.4198 102.812L77.2637 102.812L77.2637 112.512L79.4198 112.512L79.4198 102.812Z" fill="#51E094"/>
<path d="M84.369 102.812L82.2129 102.812L82.2129 112.512L84.369 112.512L84.369 102.812Z" fill="#51E094"/>
<path d="M89.3182 102.812L87.1621 102.812L87.1621 112.512L89.3182 112.512L89.3182 102.812Z" fill="#51E094"/>
<path d="M94.2655 102.812L92.1094 102.812L92.1094 112.512L94.2655 112.512L94.2655 102.812Z" fill="#51E094"/>
<path d="M99.2147 102.812L97.0586 102.812L97.0586 112.512L99.2147 112.512L99.2147 102.812Z" fill="#51E094"/>
<path d="M104.164 102.812L102.008 102.812L102.008 112.512L104.164 112.512L104.164 102.812Z" fill="#51E094"/>
<path d="M109.111 102.812L106.955 102.812L106.955 112.512L109.111 112.512L109.111 102.812Z" fill="#51E094"/>
<path d="M114.059 102.812L111.903 102.812L111.903 112.512L114.059 112.512L114.059 102.812Z" fill="#51E094"/>
<path d="M119.009 102.812L116.853 102.812L116.853 112.512L119.009 112.512L119.009 102.812Z" fill="#51E094"/>
<path d="M123.958 102.812L121.802 102.812L121.802 112.512L123.958 112.512L123.958 102.812Z" fill="#51E094"/>
<path d="M54.6786 98.918L52.5225 98.918L52.5225 108.619L54.6786 108.619L54.6786 98.918Z" fill="#45BF80"/>
<path d="M59.6278 98.918L57.4717 98.918L57.4717 108.619L59.6278 108.619L59.6278 98.918Z" fill="#45BF80"/>
<path d="M64.575 98.918L62.4189 98.918L62.4189 108.619L64.575 108.619L64.575 98.918Z" fill="#45BF80"/>
<path d="M69.5233 98.918L67.3672 98.918L67.3672 108.619L69.5233 108.619L69.5233 98.918Z" fill="#45BF80"/>
<path d="M74.4725 98.918L72.3164 98.918L72.3164 108.619L74.4725 108.619L74.4725 98.918Z" fill="#45BF80"/>
<path d="M79.4198 98.918L77.2637 98.918L77.2637 108.619L79.4198 108.619L79.4198 98.918Z" fill="#45BF80"/>
<path d="M84.369 98.918L82.2129 98.918L82.2129 108.619L84.369 108.619L84.369 98.918Z" fill="#45BF80"/>
<path d="M89.3182 98.918L87.1621 98.918L87.1621 108.619L89.3182 108.619L89.3182 98.918Z" fill="#45BF80"/>
<path d="M94.2655 98.918L92.1094 98.918L92.1094 108.619L94.2655 108.619L94.2655 98.918Z" fill="#45BF80"/>
<path d="M99.2147 98.918L97.0586 98.918L97.0586 108.619L99.2147 108.619L99.2147 98.918Z" fill="#45BF80"/>
<path d="M104.164 98.918L102.008 98.918L102.008 108.619L104.164 108.619L104.164 98.918Z" fill="#45BF80"/>
<path d="M109.111 98.918L106.955 98.918L106.955 108.619L109.111 108.619L109.111 98.918Z" fill="#45BF80"/>
<path d="M114.059 98.918L111.903 98.918L111.903 108.619L114.059 108.619L114.059 98.918Z" fill="#45BF80"/>
<path d="M119.009 98.918L116.853 98.918L116.853 108.619L119.009 108.619L119.009 98.918Z" fill="#45BF80"/>
<path d="M123.958 98.918L121.802 98.918L121.802 108.619L123.958 108.619L123.958 98.918Z" fill="#45BF80"/>
<path d="M125.126 107.215L51.3546 107.215C50.7638 107.215 50.2861 106.739 50.2861 106.15L50.2861 97.0651C50.2861 96.4762 50.7638 96 51.3546 96L125.125 96C125.715 96 126.193 96.4762 126.193 97.0651L126.193 106.15C126.195 106.739 125.715 107.215 125.126 107.215Z" fill="#4CD38B"/>
<path d="M125.126 107.215L51.3546 107.215C50.7638 107.215 50.2861 106.739 50.2861 106.15L50.2861 97.0651C50.2861 96.4762 50.7638 96 51.3546 96L125.125 96C125.715 96 126.193 96.4762 126.193 97.0651L126.193 106.15C126.195 106.739 125.715 107.215 125.126 107.215Z" fill="#4CD38B"/>
<path d="M125.126 101.609L51.3546 101.609C50.7638 101.609 50.2861 101.131 50.2861 100.542L50.2861 97.0651C50.2861 96.4762 50.7638 96 51.3546 96L125.125 96C125.715 96 126.193 96.4762 126.193 97.0651L126.193 100.542C126.195 101.131 125.715 101.609 125.126 101.609Z" fill="#54E899"/>
<path d="M126.195 98.918L50.2861 98.918L50.2861 103.714L126.195 103.714L126.195 98.918Z" fill="#51E094"/>
<path opacity="0.5" d="M54.698 107.283L53.9307 107.283L53.9307 114.358L54.698 114.358L54.698 107.283Z" fill="#58F4A3"/>
<path opacity="0.5" d="M59.6857 107.283L58.7266 107.283L58.7266 114.358L59.6857 114.358L59.6857 107.283Z" fill="#58F4A3"/>
<path opacity="0.5" d="M64.4812 107.283L63.7139 107.283L63.7139 114.358L64.4812 114.358L64.4812 107.283Z" fill="#58F4A3"/>
<path opacity="0.5" d="M69.4685 107.283L68.7012 107.283L68.7012 114.358L69.4685 114.358L69.4685 107.283Z" fill="#58F4A3"/>
<path opacity="0.5" d="M74.4558 107.283L73.6885 107.283L73.6885 114.358L74.4558 114.358L74.4558 107.283Z" fill="#58F4A3"/>
<path opacity="0.5" d="M79.4431 107.283L78.6758 107.283L78.6758 114.358L79.4431 114.358L79.4431 107.283Z" fill="#58F4A3"/>
<path opacity="0.5" d="M84.4308 107.283L83.4717 107.283L83.4717 114.358L84.4308 114.358L84.4308 107.283Z" fill="#58F4A3"/>
<path opacity="0.5" d="M89.2263 107.283L88.459 107.283L88.459 114.358L89.2263 114.358L89.2263 107.283Z" fill="#58F4A3"/>
<path opacity="0.5" d="M94.2136 107.283L93.4463 107.283L93.4463 114.358L94.2136 114.358L94.2136 107.283Z" fill="#58F4A3"/>
<path opacity="0.5" d="M99.2009 107.283L98.4336 107.283L98.4336 114.358L99.2009 114.358L99.2009 107.283Z" fill="#58F4A3"/>
<path opacity="0.5" d="M104.189 107.283L103.422 107.283L103.422 114.358L104.189 114.358L104.189 107.283Z" fill="#58F4A3"/>
<path opacity="0.5" d="M109.176 107.283L108.217 107.283L108.217 114.358L109.176 114.358L109.176 107.283Z" fill="#58F4A3"/>
<path opacity="0.5" d="M113.972 107.283L113.205 107.283L113.205 114.358L113.972 114.358L113.972 107.283Z" fill="#58F4A3"/>
<path opacity="0.5" d="M118.96 107.283L118.192 107.283L118.192 114.358L118.96 114.358L118.96 107.283Z" fill="#58F4A3"/>
<path opacity="0.5" d="M123.947 107.283L123.18 107.283L123.18 114.358L123.947 114.358L123.947 107.283Z" fill="#58F4A3"/>
<path opacity="0.5" d="M125.13 107.215L123.818 107.215L122.283 103.712L122.283 98.9181L123.818 96L125.134 96C125.721 96 126.196 96.4742 126.196 97.0594L126.196 106.156C126.195 106.741 125.719 107.215 125.13 107.215Z" fill="#58F4A3"/>
<path opacity="0.5" d="M51.3508 107.215L52.6628 107.215L54.1974 103.712L54.1974 98.9181L52.6628 96L51.3488 96C50.7619 96 50.2861 96.4742 50.2861 97.0594L50.2861 106.156C50.2861 106.741 50.7619 107.215 51.3508 107.215Z" fill="#58F4A3"/>
<path d="M51.6461 106.577C52.073 106.577 52.4192 106.232 52.4192 105.806C52.4192 105.381 52.073 105.036 51.6461 105.036C51.2192 105.036 50.873 105.381 50.873 105.806C50.873 106.232 51.2192 106.577 51.6461 106.577Z" fill="#003E6B"/>
<path d="M124.731 98.18C125.158 98.18 125.504 97.8349 125.504 97.4093C125.504 96.9837 125.158 96.6387 124.731 96.6387C124.304 96.6387 123.958 96.9837 123.958 97.4093C123.958 97.8349 124.304 98.18 124.731 98.18Z" fill="#003E6B"/>
<path d="M124.731 106.577C125.158 106.577 125.504 106.232 125.504 105.806C125.504 105.381 125.158 105.036 124.731 105.036C124.304 105.036 123.958 105.381 123.958 105.806C123.958 106.232 124.304 106.577 124.731 106.577Z" fill="#003E6B"/>
<path d="M125.054 98.1093C125.132 97.9888 125.178 97.8454 125.178 97.6924C125.178 97.2659 124.833 96.9217 124.405 96.9217C124.29 96.9217 124.181 96.9485 124.083 96.9944C124.221 96.7821 124.459 96.6406 124.731 96.6406C125.159 96.6406 125.504 96.9848 125.504 97.4113C125.504 97.7211 125.318 97.9869 125.054 98.1093Z" fill="#3FAF75"/>
<path d="M124.405 106.284C124.833 106.284 125.178 105.94 125.178 105.513C125.178 105.366 125.134 105.228 125.061 105.112C125.322 105.236 125.504 105.498 125.504 105.806C125.504 106.232 125.159 106.577 124.731 106.577C124.453 106.577 124.209 106.427 124.075 106.208C124.175 106.255 124.286 106.284 124.405 106.284Z" fill="#378E60"/>
<path d="M51.6461 98.18C52.073 98.18 52.4192 97.8349 52.4192 97.4093C52.4192 96.9837 52.073 96.6387 51.6461 96.6387C51.2192 96.6387 50.873 96.9837 50.873 97.4093C50.873 97.8349 51.2192 98.18 51.6461 98.18Z" fill="#003E6B"/>
<path d="M51.3238 98.1092C51.2471 97.9887 51.1991 97.8453 51.1991 97.6923C51.1991 97.2659 51.5444 96.9217 51.9722 96.9217C52.0873 96.9217 52.1966 96.9485 52.2945 96.9944C52.1564 96.7802 51.9185 96.6387 51.6461 96.6387C51.2183 96.6387 50.873 96.9829 50.873 97.4093C50.873 97.721 51.0591 97.9868 51.3238 98.1092Z" fill="#3FAF75"/>
<path d="M51.9722 106.285C51.5444 106.285 51.1991 105.94 51.1991 105.514C51.1991 105.367 51.2433 105.229 51.3162 105.112C51.0553 105.237 50.873 105.499 50.873 105.806C50.873 106.233 51.2183 106.577 51.6461 106.577C51.9242 106.577 52.1679 106.428 52.3021 106.208C52.2024 106.256 52.0911 106.285 51.9722 106.285Z" fill="#378E60"/>
<g style="mix-blend-mode:color">
<path d="M54.6786 104.724L52.5225 104.724L52.5225 114.425L54.6786 114.425L54.6786 104.724Z" fill="#B0E298"/>
<path d="M59.6278 104.724L57.4717 104.724L57.4717 114.425L59.6278 114.425L59.6278 104.724Z" fill="#B0E298"/>
<path d="M64.5751 104.724L62.4189 104.724L62.4189 114.425L64.5751 114.425L64.5751 104.724Z" fill="#B0E298"/>
<path d="M69.5233 104.724L67.3672 104.724L67.3672 114.425L69.5233 114.425L69.5233 104.724Z" fill="#B0E298"/>
<path d="M74.4725 104.724L72.3164 104.724L72.3164 114.425L74.4725 114.425L74.4725 104.724Z" fill="#B0E298"/>
<path d="M79.4198 104.724L77.2637 104.724L77.2637 114.425L79.4198 114.425L79.4198 104.724Z" fill="#B0E298"/>
<path d="M84.369 104.724L82.2129 104.724L82.2129 114.425L84.369 114.425L84.369 104.724Z" fill="#B0E298"/>
<path d="M89.3182 104.724L87.1621 104.724L87.1621 114.425L89.3182 114.425L89.3182 104.724Z" fill="#B0E298"/>
<path d="M94.2655 104.724L92.1094 104.724L92.1094 114.425L94.2655 114.425L94.2655 104.724Z" fill="#B0E298"/>
<path d="M99.2147 104.724L97.0586 104.724L97.0586 114.425L99.2147 114.425L99.2147 104.724Z" fill="#B0E298"/>
<path d="M104.164 104.724L102.008 104.724L102.008 114.425L104.164 114.425L104.164 104.724Z" fill="#B0E298"/>
<path d="M109.111 104.724L106.955 104.724L106.955 114.425L109.111 114.425L109.111 104.724Z" fill="#B0E298"/>
<path d="M114.059 104.724L111.903 104.724L111.903 114.425L114.059 114.425L114.059 104.724Z" fill="#B0E298"/>
<path d="M119.009 104.724L116.853 104.724L116.853 114.425L119.009 114.425L119.009 104.724Z" fill="#B0E298"/>
<path d="M123.958 104.724L121.802 104.724L121.802 114.425L123.958 114.425L123.958 104.724Z" fill="#B0E298"/>
</g>
<g style="mix-blend-mode:color">
<path d="M125.126 107.215L51.3546 107.215C50.7638 107.215 50.2861 106.739 50.2861 106.15L50.2861 97.0651C50.2861 96.4762 50.7638 96 51.3546 96L125.125 96C125.715 96 126.193 96.4762 126.193 97.0651L126.193 106.15C126.195 106.739 125.715 107.215 125.126 107.215Z" fill="#B0E298"/>
</g>
<path fill-rule="evenodd" clip-rule="evenodd" d="M43.9438 102.458H48.6271L49.2125 107.261H127.268L127.853 102.458H132.049V112.161H43.9438V102.458ZM132.146 112.161H126.585L132.146 116.525V117.061H132.829L132.146 116.525V112.161ZM49.5052 112.161H43.9437V116.525L43.2607 117.061H43.9437V116.525L49.5052 112.161Z" fill="#F2F2F2" fill-opacity="0.3"/>
<path fill-rule="evenodd" clip-rule="evenodd" d="M43.9439 179L132.146 178.215L126.78 174.099L49.7981 174.099L49.7005 174.099L49.3265 174.418L43.8464 178.117L44.9801 178.117L43.9439 179Z" fill="#758CA2" fill-opacity="0.6"/>
<path d="M49.9512 174.002L44.2921 177.824L43.6092 102.067L49.3657 102.067L49.9512 106.924L49.9512 174.002Z" fill="#99A7AD" fill-opacity="0.6"/>
<path d="M126.78 174.143L132.049 178.118L132.737 104.194L127.268 101.87L126.78 107.12L126.78 174.143Z" fill="#99A7AD" fill-opacity="0.6"/>
<rect x="49.7002" y="107.064" width="1.75625" height="67.0348" fill="#F2F2F2" fill-opacity="0.5"/>
<rect x="125.023" y="107.064" width="1.75624" height="67.0348" fill="#F2F2F2" fill-opacity="0.5"/>
<path d="M105.802 107.163L49.6025 163.613V174.1H57.0178L123.658 107.163H121.218H105.802Z" fill="white" fill-opacity="0.2"/>
<path d="M126.78 108.143L60.9209 174.197H64.3358L126.78 111.475V108.143Z" fill="white" fill-opacity="0.2"/>
<mask id="path-99-inside-1" fill="white">
<path fill-rule="evenodd" clip-rule="evenodd" d="M49.7003 101.38H48.2607C45.4993 101.38 43.2607 103.619 43.2607 106.38V174C43.2607 176.761 45.4993 179 48.2607 179H127.829C130.591 179 132.829 176.761 132.829 174V106.38C132.829 103.619 130.591 101.38 127.829 101.38H126.78V102.065C126.78 104.826 124.541 107.065 121.78 107.065H54.7003C51.9389 107.065 49.7003 104.826 49.7003 102.065V101.38Z"/>
</mask>
<path fill-rule="evenodd" clip-rule="evenodd" d="M49.7003 101.38H48.2607C45.4993 101.38 43.2607 103.619 43.2607 106.38V174C43.2607 176.761 45.4993 179 48.2607 179H127.829C130.591 179 132.829 176.761 132.829 174V106.38C132.829 103.619 130.591 101.38 127.829 101.38H126.78V102.065C126.78 104.826 124.541 107.065 121.78 107.065H54.7003C51.9389 107.065 49.7003 104.826 49.7003 102.065V101.38Z" fill="#F2F2F2" fill-opacity="0.5"/>
<path d="M49.7003 101.38H56.7003V94.3804H49.7003V101.38ZM126.78 101.38V94.3804H119.78V101.38H126.78ZM48.2607 108.38H49.7003V94.3804H48.2607V108.38ZM50.2607 106.38C50.2607 107.485 49.3653 108.38 48.2607 108.38V94.3804C41.6333 94.3804 36.2607 99.753 36.2607 106.38H50.2607ZM50.2607 174V106.38H36.2607V174H50.2607ZM48.2607 172C49.3653 172 50.2607 172.895 50.2607 174H36.2607C36.2607 180.627 41.6333 186 48.2607 186V172ZM127.829 172H48.2607V186H127.829V172ZM125.829 174C125.829 172.895 126.725 172 127.829 172V186C134.457 186 139.829 180.627 139.829 174H125.829ZM125.829 106.38V174H139.829V106.38H125.829ZM127.829 108.38C126.725 108.38 125.829 107.485 125.829 106.38H139.829C139.829 99.753 134.457 94.3804 127.829 94.3804V108.38ZM126.78 108.38H127.829V94.3804H126.78V108.38ZM119.78 101.38V102.065H133.78V101.38H119.78ZM119.78 102.065C119.78 100.96 120.675 100.065 121.78 100.065V114.065C128.407 114.065 133.78 108.692 133.78 102.065H119.78ZM121.78 100.065H54.7003V114.065H121.78V100.065ZM54.7003 100.065C55.8049 100.065 56.7003 100.96 56.7003 102.065H42.7003C42.7003 108.692 48.0729 114.065 54.7003 114.065V100.065ZM56.7003 102.065V101.38H42.7003V102.065H56.7003Z" fill="#F2F2F2" mask="url(#path-99-inside-1)"/>
<path opacity="0.2" d="M52.7648 115.885H54.9482V107.995H52.7648V115.885Z" fill="#3E6E7A"/>
<path opacity="0.2" d="M52.7648 115.885H54.9482V107.995H52.7648V115.885Z" fill="#3E6E7A"/>
<path opacity="0.2" d="M52.4034 115.005H55.124V107.065H52.4034V115.005Z" fill="#3E6E7A"/>
<path opacity="0.2" d="M54.9492 115.87L55.1225 115.005V107.064L54.9492 107.93V115.87Z" fill="#3E6E7A"/>
<path opacity="0.2" d="M52.7749 107.93L52.4023 107.065V115.006L52.7749 115.871V107.93Z" fill="#3E6E7A"/>
<path opacity="0.5" d="M52.4023 114.14V114.954L52.7749 115.87H54.9497L55.123 114.954V114.14H52.4023Z" fill="#CCD4E2"/>
<path opacity="0.2" d="M102.249 115.884H104.433V107.994H102.249V115.884Z" fill="#3E6E7A"/>
<path opacity="0.2" d="M102.249 115.884H104.433V107.994H102.249V115.884Z" fill="#3E6E7A"/>
<path opacity="0.2" d="M101.88 115.005H104.601V107.065H101.88V115.005Z" fill="#3E6E7A"/>
<path opacity="0.2" d="M104.43 115.87L104.603 115.005V107.064L104.43 107.93V115.87Z" fill="#3E6E7A"/>
<path opacity="0.2" d="M102.247 107.93L101.883 107.064V115.005L102.247 115.87V107.93Z" fill="#3E6E7A"/>
<path opacity="0.5" d="M101.883 114.14V114.954L102.247 115.87H104.43L104.603 114.954V114.14H101.883Z" fill="#CCD4E2"/>
<path opacity="0.2" d="M107.174 115.884H109.357V107.995H107.174V115.884Z" fill="#3E6E7A"/>
<path opacity="0.2" d="M107.174 115.884H109.357V107.995H107.174V115.884Z" fill="#3E6E7A"/>
<path opacity="0.2" d="M106.805 115.005H109.525V107.065H106.805V115.005Z" fill="#3E6E7A"/>
<path opacity="0.2" d="M109.358 115.87L109.523 115.005V107.064L109.358 107.93V115.87Z" fill="#3E6E7A"/>
<path opacity="0.2" d="M107.175 107.93L106.812 107.064V115.005L107.175 115.87V107.93Z" fill="#3E6E7A"/>
<path opacity="0.5" d="M106.812 114.14V114.954L107.175 115.87H109.359L109.523 114.954V114.14H106.812Z" fill="#CCD4E2"/>
<path opacity="0.2" d="M123.937 107.929H121.754V115.819H123.937V107.929Z" fill="#3E6E7A"/>
<path opacity="0.2" d="M123.937 107.929H121.754V115.819H123.937V107.929Z" fill="#3E6E7A"/>
<path opacity="0.2" d="M124.302 107.065H121.581V115.006H124.302V107.065Z" fill="#3E6E7A"/>
<path opacity="0.2" d="M121.754 115.82L121.581 114.955V107.065L121.754 107.93V115.82Z" fill="#3E6E7A"/>
<path opacity="0.2" d="M123.929 107.93L124.301 107.064V114.954L123.929 115.819V107.93Z" fill="#3E6E7A"/>
<path opacity="0.5" d="M124.302 114.089V114.954L123.929 115.82H121.754L121.581 114.954V114.089H124.302Z" fill="#CCD4E2"/>
<path opacity="0.2" d="M119.013 107.929H116.829V115.819H119.013V107.929Z" fill="#3E6E7A"/>
<path opacity="0.2" d="M119.013 107.929H116.829V115.819H119.013V107.929Z" fill="#3E6E7A"/>
<path opacity="0.2" d="M119.377 107.065H116.656V115.006H119.377V107.065Z" fill="#3E6E7A"/>
<path opacity="0.2" d="M116.83 115.82L116.656 114.955V107.065L116.83 107.93V115.82Z" fill="#3E6E7A"/>
<path opacity="0.2" d="M119.013 107.93L119.377 107.064V114.954L119.013 115.819V107.93Z" fill="#3E6E7A"/>
<path opacity="0.5" d="M119.377 114.089V114.954L119.013 115.82H116.83L116.656 114.954V114.089H119.377Z" fill="#CCD4E2"/>
<path opacity="0.2" d="M114.079 107.929H111.896V115.819H114.079V107.929Z" fill="#3E6E7A"/>
<path opacity="0.2" d="M114.079 107.929H111.896V115.819H114.079V107.929Z" fill="#3E6E7A"/>
<path opacity="0.2" d="M114.451 107.065H111.73V115.006H114.451V107.065Z" fill="#3E6E7A"/>
<path opacity="0.2" d="M111.895 115.82L111.73 114.955V107.065L111.895 107.93V115.82Z" fill="#3E6E7A"/>
<path opacity="0.2" d="M114.078 107.93L114.442 107.064V114.954L114.078 115.819V107.93Z" fill="#3E6E7A"/>
<path opacity="0.5" d="M114.442 114.089V114.954L114.079 115.82H111.895L111.73 114.954V114.089H114.442Z" fill="#CCD4E2"/>
<path opacity="0.2" d="M77.3986 115.884H79.582V107.994H77.3986V115.884Z" fill="#3E6E7A"/>
<path opacity="0.2" d="M77.3986 115.884H79.582V107.994H77.3986V115.884Z" fill="#3E6E7A"/>
<path opacity="0.2" d="M77.0294 115.005H79.75V107.065H77.0294V115.005Z" fill="#3E6E7A"/>
<path opacity="0.2" d="M79.5791 115.87L79.7524 115.005V107.064L79.5791 107.93V115.87Z" fill="#3E6E7A"/>
<path opacity="0.2" d="M77.3961 107.93L77.0322 107.064V115.005L77.3961 115.87V107.93Z" fill="#3E6E7A"/>
<path opacity="0.5" d="M77.0322 114.14V114.954L77.3961 115.87H79.5795L79.7528 114.954V114.14H77.0322Z" fill="#CCD4E2"/>
<path opacity="0.2" d="M82.3234 115.884H84.5068V107.995H82.3234V115.884Z" fill="#3E6E7A"/>
<path opacity="0.2" d="M82.3234 115.884H84.5068V107.995H82.3234V115.884Z" fill="#3E6E7A"/>
<path opacity="0.2" d="M81.9542 115.005H84.6748V107.065H81.9542V115.005Z" fill="#3E6E7A"/>
<path opacity="0.2" d="M84.5078 115.87L84.6724 115.005V107.064L84.5078 107.93V115.87Z" fill="#3E6E7A"/>
<path opacity="0.2" d="M82.3248 107.93L81.9609 107.064V115.005L82.3248 115.87V107.93Z" fill="#3E6E7A"/>
<path opacity="0.5" d="M81.9609 114.14V114.954L82.3248 115.87H84.5083L84.6729 114.954V114.14H81.9609Z" fill="#CCD4E2"/>
<path opacity="0.2" d="M99.0867 107.929H96.9033V115.819H99.0867V107.929Z" fill="#3E6E7A"/>
<path opacity="0.2" d="M99.0867 107.929H96.9033V115.819H99.0867V107.929Z" fill="#3E6E7A"/>
<path opacity="0.2" d="M99.4511 107.065H96.7305V115.006H99.4511V107.065Z" fill="#3E6E7A"/>
<path opacity="0.2" d="M96.9038 115.82L96.7305 114.955V107.065L96.9038 107.93V115.82Z" fill="#3E6E7A"/>
<path opacity="0.2" d="M99.0781 107.93L99.4507 107.064V114.954L99.0781 115.819V107.93Z" fill="#3E6E7A"/>
<path opacity="0.5" d="M99.4511 114.089V114.954L99.0785 115.82H96.9038L96.7305 114.954V114.089H99.4511Z" fill="#CCD4E2"/>
<path opacity="0.2" d="M94.3856 107.929H92.2021V115.819H94.3856V107.929Z" fill="#3E6E7A"/>
<path opacity="0.2" d="M94.3856 107.929H92.2021V115.819H94.3856V107.929Z" fill="#3E6E7A"/>
<path opacity="0.2" d="M94.7499 107.065H92.0293V115.006H94.7499V107.065Z" fill="#3E6E7A"/>
<path opacity="0.2" d="M92.2026 115.82L92.0293 114.955V107.065L92.2026 107.93V115.82Z" fill="#3E6E7A"/>
<path opacity="0.2" d="M94.3857 107.93L94.7496 107.064V114.954L94.3857 115.819V107.93Z" fill="#3E6E7A"/>
<path opacity="0.5" d="M94.7499 114.089V114.954L94.386 115.82H92.2026L92.0293 114.954V114.089H94.7499Z" fill="#CCD4E2"/>
<path opacity="0.2" d="M89.2283 107.929H87.0449V115.819H89.2283V107.929Z" fill="#3E6E7A"/>
<path opacity="0.2" d="M89.2283 107.929H87.0449V115.819H89.2283V107.929Z" fill="#3E6E7A"/>
<path opacity="0.2" d="M89.6005 107.065H86.8799V115.006H89.6005V107.065Z" fill="#3E6E7A"/>
<path opacity="0.2" d="M87.0445 115.82L86.8799 114.955V107.065L87.0445 107.93V115.82Z" fill="#3E6E7A"/>
<path opacity="0.2" d="M89.2275 107.93L89.5914 107.064V114.954L89.2275 115.819V107.93Z" fill="#3E6E7A"/>
<path opacity="0.5" d="M89.5918 114.089V114.954L89.2279 115.82H87.0445L86.8799 114.954V114.089H89.5918Z" fill="#CCD4E2"/>
<path opacity="0.2" d="M57.6974 115.884H59.8809V107.994H57.6974V115.884Z" fill="#3E6E7A"/>
<path opacity="0.2" d="M57.6974 115.884H59.8809V107.994H57.6974V115.884Z" fill="#3E6E7A"/>
<path opacity="0.2" d="M57.3282 115.005H60.0488V107.065H57.3282V115.005Z" fill="#3E6E7A"/>
<path opacity="0.2" d="M59.8779 115.87L60.0512 115.005V107.064L59.8779 107.93V115.87Z" fill="#3E6E7A"/>
<path opacity="0.2" d="M57.695 107.93L57.3311 107.064V115.005L57.695 115.87V107.93Z" fill="#3E6E7A"/>
<path opacity="0.5" d="M57.3311 114.14V114.954L57.695 115.87H59.8784L60.0517 114.954V114.14H57.3311Z" fill="#CCD4E2"/>
<path opacity="0.2" d="M62.6222 115.884H64.8057V107.994H62.6222V115.884Z" fill="#3E6E7A"/>
<path opacity="0.2" d="M62.6222 115.884H64.8057V107.994H62.6222V115.884Z" fill="#3E6E7A"/>
<path opacity="0.2" d="M62.253 115.005H64.9736V107.065H62.253V115.005Z" fill="#3E6E7A"/>
<path opacity="0.2" d="M64.8066 115.87L64.9713 115.005V107.064L64.8066 107.93V115.87Z" fill="#3E6E7A"/>
<path opacity="0.2" d="M62.6237 107.93L62.2598 107.064V115.005L62.6237 115.87V107.93Z" fill="#3E6E7A"/>
<path opacity="0.5" d="M62.2598 114.14V114.954L62.6237 115.87H64.8071L64.9717 114.954V114.14H62.2598Z" fill="#CCD4E2"/>
<path opacity="0.2" d="M74.6844 107.929H72.501V115.819H74.6844V107.929Z" fill="#3E6E7A"/>
<path opacity="0.2" d="M74.6844 107.929H72.501V115.819H74.6844V107.929Z" fill="#3E6E7A"/>
<path opacity="0.2" d="M75.0487 107.065H72.3281V115.006H75.0487V107.065Z" fill="#3E6E7A"/>
<path opacity="0.2" d="M72.5014 115.82L72.3281 114.955V107.065L72.5014 107.93V115.82Z" fill="#3E6E7A"/>
<path opacity="0.2" d="M74.6846 107.93L75.0485 107.064V114.954L74.6846 115.819V107.93Z" fill="#3E6E7A"/>
<path opacity="0.5" d="M75.0487 114.089V114.954L74.6848 115.82H72.5014L72.3281 114.954V114.089H75.0487Z" fill="#CCD4E2"/>
<path opacity="0.2" d="M69.5272 107.929H67.3438V115.819H69.5272V107.929Z" fill="#3E6E7A"/>
<path opacity="0.2" d="M69.5272 107.929H67.3438V115.819H69.5272V107.929Z" fill="#3E6E7A"/>
<path opacity="0.2" d="M69.8993 107.065H67.1787V115.006H69.8993V107.065Z" fill="#3E6E7A"/>
<path opacity="0.2" d="M67.3433 115.82L67.1787 114.955V107.065L67.3433 107.93V115.82Z" fill="#3E6E7A"/>
<path opacity="0.2" d="M69.5264 107.93L69.8903 107.064V114.954L69.5264 115.819V107.93Z" fill="#3E6E7A"/>
<path opacity="0.5" d="M69.8907 114.089V114.954L69.5268 115.82H67.3433L67.1787 114.954V114.089H69.8907Z" fill="#CCD4E2"/>
<g style="mix-blend-mode:soft-light">
<path d="M43.2607 170.179H132.829V174C132.829 176.761 130.591 179 127.829 179H48.2607C45.4993 179 43.2607 176.761 43.2607 174V170.179Z" fill="white"/>
</g>
<path fill-rule="evenodd" clip-rule="evenodd" d="M53.5263 167.898H43V174C43 176.761 45.2386 179 48 179H58.5263C55.7649 179 53.5263 176.761 53.5263 174V167.898Z" fill="#E5ECF0"/>
<path fill-rule="evenodd" clip-rule="evenodd" d="M122.474 167.898H133V174C133 176.761 130.761 179 128 179H117.474C120.235 179 122.474 176.761 122.474 174V167.898Z" fill="#E5ECF0"/>
<path opacity="0.5" d="M43 121.375H133V174C133 176.761 130.761 179 128 179H48C45.2386 179 43 176.761 43 174V121.375Z" fill="#00AEEF"/>
<path d="M2.83887 3.01335C2.83887 1.44728 4.10842 0.177734 5.67448 0.177734H173.165C174.731 0.177734 176 1.44728 176 3.01335V3.01335C176 6.14549 173.461 8.68458 170.329 8.68458H8.51011C5.37797 8.68458 2.83887 6.14549 2.83887 3.01335V3.01335Z" fill="#F2F2F2" fill-opacity="0.5"/>
<path d="M5.67448 1.17773H173.165C174.178 1.17773 175 1.99957 175 3.01335C175 5.5932 172.909 7.68458 170.329 7.68458H8.51011C5.93025 7.68458 3.83887 5.5932 3.83887 3.01335C3.83887 1.99957 4.6607 1.17773 5.67448 1.17773Z" stroke="#F2F2F2" stroke-opacity="0.5" stroke-width="2"/>
<mask id="path-197-inside-2" fill="white">
<path fill-rule="evenodd" clip-rule="evenodd" d="M7.83887 0.177734C5.07744 0.177734 2.83887 2.4163 2.83887 5.17773V40.8216V86.8627C2.83887 89.6241 5.07744 91.8627 7.83887 91.8627H171C173.762 91.8627 176 89.6241 176 86.8627V79.575H156.129V79.5392C155.817 79.5629 155.501 79.575 155.183 79.575C148.389 79.575 142.882 74.0736 142.882 67.2873C142.882 60.501 148.389 54.9997 155.183 54.9997C155.501 54.9997 155.817 55.0117 156.129 55.0355V54.9997H176V5.17773C176 2.41631 173.762 0.177734 171 0.177734H7.83887ZM2.83887 40.8216H22.7098V40.7858C23.0221 40.8095 23.3377 40.8216 23.6561 40.8216C30.4498 40.8216 35.9571 35.3202 35.9571 28.5339C35.9571 21.7476 30.4498 16.2462 23.6561 16.2462C23.3377 16.2462 23.0221 16.2583 22.7098 16.282V16.2462H2.83887L2.83887 40.8216Z"/>
</mask>
<path fill-rule="evenodd" clip-rule="evenodd" d="M7.83887 0.177734C5.07744 0.177734 2.83887 2.4163 2.83887 5.17773V40.8216V86.8627C2.83887 89.6241 5.07744 91.8627 7.83887 91.8627H171C173.762 91.8627 176 89.6241 176 86.8627V79.575H156.129V79.5392C155.817 79.5629 155.501 79.575 155.183 79.575C148.389 79.575 142.882 74.0736 142.882 67.2873C142.882 60.501 148.389 54.9997 155.183 54.9997C155.501 54.9997 155.817 55.0117 156.129 55.0355V54.9997H176V5.17773C176 2.41631 173.762 0.177734 171 0.177734H7.83887ZM2.83887 40.8216H22.7098V40.7858C23.0221 40.8095 23.3377 40.8216 23.6561 40.8216C30.4498 40.8216 35.9571 35.3202 35.9571 28.5339C35.9571 21.7476 30.4498 16.2462 23.6561 16.2462C23.3377 16.2462 23.0221 16.2583 22.7098 16.282V16.2462H2.83887L2.83887 40.8216Z" fill="#F2F2F2" fill-opacity="0.5"/>
<path d="M176 79.575H178V77.575H176V79.575ZM156.129 79.575H154.129V81.575H156.129V79.575ZM156.129 79.5392H158.129V77.3815L155.978 77.5449L156.129 79.5392ZM156.129 55.0355L155.978 57.0297L158.129 57.1932V55.0355H156.129ZM156.129 54.9997V52.9997H154.129V54.9997H156.129ZM176 54.9997V56.9997H178V54.9997H176ZM22.7098 40.8216V42.8216H24.7098V40.8216H22.7098ZM22.7098 40.7858L22.8614 38.7915L20.7098 38.628V40.7858H22.7098ZM23.6561 40.8216L23.6561 38.8216H23.6561V40.8216ZM22.7098 16.282H20.7098V18.4398L22.8614 18.2763L22.7098 16.282ZM22.7098 16.2462H24.7098V14.2462H22.7098V16.2462ZM2.83887 16.2462V14.2462H0.83887L0.838869 16.2462L2.83887 16.2462ZM4.83887 5.17773C4.83887 3.52088 6.18201 2.17773 7.83887 2.17773V-1.82227C3.97288 -1.82227 0.838867 1.31173 0.838867 5.17773H4.83887ZM4.83887 40.8216V5.17773H0.838867V40.8216H4.83887ZM4.83887 86.8627V40.8216H0.838867V86.8627H4.83887ZM7.83887 89.8627C6.18201 89.8627 4.83887 88.5195 4.83887 86.8627H0.838867C0.838867 90.7287 3.97287 93.8627 7.83887 93.8627V89.8627ZM171 89.8627H7.83887V93.8627H171V89.8627ZM174 86.8627C174 88.5195 172.657 89.8627 171 89.8627V93.8627C174.866 93.8627 178 90.7287 178 86.8627H174ZM174 79.575V86.8627H178V79.575H174ZM156.129 81.575H176V77.575H156.129V81.575ZM154.129 79.5392V79.575H158.129V79.5392H154.129ZM155.183 81.575C155.552 81.575 155.918 81.561 156.281 81.5334L155.978 77.5449C155.716 77.5648 155.451 77.575 155.183 77.575V81.575ZM140.882 67.2873C140.882 75.1803 147.287 81.575 155.183 81.575V77.575C149.492 77.575 144.882 72.967 144.882 67.2873H140.882ZM155.183 52.9997C147.287 52.9997 140.882 59.3944 140.882 67.2873H144.882C144.882 61.6077 149.492 56.9997 155.183 56.9997V52.9997ZM156.281 53.0412C155.918 53.0137 155.552 52.9997 155.183 52.9997V56.9997C155.451 56.9997 155.716 57.0098 155.978 57.0297L156.281 53.0412ZM154.129 54.9997V55.0355H158.129V54.9997H154.129ZM176 52.9997H156.129V56.9997H176V52.9997ZM174 5.17773V54.9997H178V5.17773H174ZM171 2.17773C172.657 2.17773 174 3.52088 174 5.17773H178C178 1.31174 174.866 -1.82227 171 -1.82227V2.17773ZM7.83887 2.17773H171V-1.82227H7.83887V2.17773ZM2.83887 42.8216H22.7098V38.8216H2.83887V42.8216ZM24.7098 40.8216V40.7858H20.7098V40.8216H24.7098ZM22.5583 42.78C22.921 42.8076 23.2871 42.8216 23.6561 42.8216V38.8216C23.3883 38.8216 23.1233 38.8114 22.8614 38.7915L22.5583 42.78ZM23.6561 42.8216C31.5523 42.8216 37.9571 36.4268 37.9571 28.5339H33.9571C33.9571 34.2136 29.3473 38.8216 23.6561 38.8216L23.6561 42.8216ZM37.9571 28.5339C37.9571 20.641 31.5523 14.2462 23.6561 14.2462V18.2462C29.3473 18.2462 33.9571 22.8542 33.9571 28.5339H37.9571ZM23.6561 14.2462C23.2871 14.2462 22.921 14.2602 22.5583 14.2878L22.8614 18.2763C23.1233 18.2564 23.3883 18.2462 23.6561 18.2462V14.2462ZM24.7098 16.282V16.2462H20.7098V16.282H24.7098ZM22.7098 14.2462H2.83887V18.2462H22.7098V14.2462ZM0.838869 16.2462L0.838867 40.8216L4.83887 40.8216L4.83887 16.2462L0.838869 16.2462Z" fill="#F2F2F2" fill-opacity="0.5" mask="url(#path-197-inside-2)"/>
<path fill-rule="evenodd" clip-rule="evenodd" d="M2.83887 14.3558L2.83887 16.2462L22.7098 16.2462M24.6023 16.282C24.29 16.2583 23.9744 16.2462 23.6561 16.2462C23.3377 16.2462 23.0221 16.2583 22.7098 16.282M24.6023 16.282C30.9539 16.7647 35.9571 22.0656 35.9571 28.5339C35.9571 35.0022 30.9539 40.3031 24.6023 40.7858C24.29 40.8095 23.9744 40.8216 23.6561 40.8216C23.3377 40.8216 23.0221 40.8095 22.7098 40.7858V40.8216H2.83887V87.1366C2.83887 89.7468 4.95709 91.8627 7.57005 91.8627H171.269C173.882 91.8627 176 89.7468 176 87.1366V79.575H156.129V79.5392C155.817 79.5629 155.501 79.575 155.183 79.575C154.865 79.575 154.549 79.5629 154.237 79.5392C147.885 79.0566 142.882 73.7556 142.882 67.2873C142.882 60.8191 147.885 55.5181 154.237 55.0355C154.549 55.0117 154.865 54.9997 155.183 54.9997C155.501 54.9997 155.817 55.0117 156.129 55.0355V54.9997H176V4.90376C176 2.29365 173.882 0.177734 171.269 0.177734H7.57005C4.95709 0.177734 2.83887 2.29365 2.83887 4.90376L2.83887 14.3558M174.108 53.1092V4.90376C174.108 3.33769 172.837 2.06815 171.269 2.06815H7.57005C6.00227 2.06815 4.73134 3.33769 4.73134 4.90376V14.3558L24.6023 14.3558V14.3868C32 14.8732 37.8496 21.0212 37.8496 28.5339C37.8496 36.0466 32 42.1946 24.6023 42.681V42.712H4.73134V87.1366C4.73134 88.7027 6.00228 89.9723 7.57005 89.9723H171.269C172.837 89.9723 174.108 88.7027 174.108 87.1366V81.4654H154.237V81.4344C146.839 80.948 140.989 74.8 140.989 67.2873C140.989 59.7746 146.839 53.6266 154.237 53.1403V53.1092H174.108Z" fill="#F2F2F2" fill-opacity="0.5"/>
<mask id="mask0" mask-type="alpha" maskUnits="userSpaceOnUse" x="2" y="0" width="175" height="92">
<mask id="path-200-inside-3" mask-type="luminance" fill="white">
<path fill-rule="evenodd" clip-rule="evenodd" d="M7.83887 0.177734C5.07744 0.177734 2.83887 2.4163 2.83887 5.17773V40.8216V86.8627C2.83887 89.6241 5.07744 91.8627 7.83887 91.8627H171C173.762 91.8627 176 89.6241 176 86.8627V79.575H156.129V79.5392C155.817 79.5629 155.501 79.575 155.183 79.575C148.389 79.575 142.882 74.0736 142.882 67.2873C142.882 60.501 148.389 54.9997 155.183 54.9997C155.501 54.9997 155.817 55.0117 156.129 55.0355V54.9997H176V5.17773C176 2.41631 173.762 0.177734 171 0.177734H7.83887ZM2.83887 40.8216H22.7098V40.7858C23.0221 40.8095 23.3377 40.8216 23.6561 40.8216C30.4498 40.8216 35.9571 35.3202 35.9571 28.5339C35.9571 21.7476 30.4498 16.2462 23.6561 16.2462C23.3377 16.2462 23.0221 16.2583 22.7098 16.282V16.2462H2.83887L2.83887 40.8216Z"/>
</mask>
<path fill-rule="evenodd" clip-rule="evenodd" d="M7.83887 0.177734C5.07744 0.177734 2.83887 2.4163 2.83887 5.17773V40.8216V86.8627C2.83887 89.6241 5.07744 91.8627 7.83887 91.8627H171C173.762 91.8627 176 89.6241 176 86.8627V79.575H156.129V79.5392C155.817 79.5629 155.501 79.575 155.183 79.575C148.389 79.575 142.882 74.0736 142.882 67.2873C142.882 60.501 148.389 54.9997 155.183 54.9997C155.501 54.9997 155.817 55.0117 156.129 55.0355V54.9997H176V5.17773C176 2.41631 173.762 0.177734 171 0.177734H7.83887ZM2.83887 40.8216H22.7098V40.7858C23.0221 40.8095 23.3377 40.8216 23.6561 40.8216C30.4498 40.8216 35.9571 35.3202 35.9571 28.5339C35.9571 21.7476 30.4498 16.2462 23.6561 16.2462C23.3377 16.2462 23.0221 16.2583 22.7098 16.282V16.2462H2.83887L2.83887 40.8216Z" fill="#F2F2F2" fill-opacity="0.5"/>
<path d="M176 79.575H178V77.575H176V79.575ZM156.129 79.575H154.129V81.575H156.129V79.575ZM156.129 79.5392H158.129V77.3815L155.978 77.5449L156.129 79.5392ZM156.129 55.0355L155.978 57.0297L158.129 57.1932V55.0355H156.129ZM156.129 54.9997V52.9997H154.129V54.9997H156.129ZM176 54.9997V56.9997H178V54.9997H176ZM22.7098 40.8216V42.8216H24.7098V40.8216H22.7098ZM22.7098 40.7858L22.8614 38.7915L20.7098 38.628V40.7858H22.7098ZM23.6561 40.8216L23.6561 38.8216H23.6561V40.8216ZM22.7098 16.282H20.7098V18.4398L22.8614 18.2763L22.7098 16.282ZM22.7098 16.2462H24.7098V14.2462H22.7098V16.2462ZM2.83887 16.2462V14.2462H0.83887L0.838869 16.2462L2.83887 16.2462ZM4.83887 5.17773C4.83887 3.52088 6.18201 2.17773 7.83887 2.17773V-1.82227C3.97288 -1.82227 0.838867 1.31173 0.838867 5.17773H4.83887ZM4.83887 40.8216V5.17773H0.838867V40.8216H4.83887ZM4.83887 86.8627V40.8216H0.838867V86.8627H4.83887ZM7.83887 89.8627C6.18201 89.8627 4.83887 88.5195 4.83887 86.8627H0.838867C0.838867 90.7287 3.97287 93.8627 7.83887 93.8627V89.8627ZM171 89.8627H7.83887V93.8627H171V89.8627ZM174 86.8627C174 88.5195 172.657 89.8627 171 89.8627V93.8627C174.866 93.8627 178 90.7287 178 86.8627H174ZM174 79.575V86.8627H178V79.575H174ZM156.129 81.575H176V77.575H156.129V81.575ZM154.129 79.5392V79.575H158.129V79.5392H154.129ZM155.183 81.575C155.552 81.575 155.918 81.561 156.281 81.5334L155.978 77.5449C155.716 77.5648 155.451 77.575 155.183 77.575V81.575ZM140.882 67.2873C140.882 75.1803 147.287 81.575 155.183 81.575V77.575C149.492 77.575 144.882 72.967 144.882 67.2873H140.882ZM155.183 52.9997C147.287 52.9997 140.882 59.3944 140.882 67.2873H144.882C144.882 61.6077 149.492 56.9997 155.183 56.9997V52.9997ZM156.281 53.0412C155.918 53.0137 155.552 52.9997 155.183 52.9997V56.9997C155.451 56.9997 155.716 57.0098 155.978 57.0297L156.281 53.0412ZM154.129 54.9997V55.0355H158.129V54.9997H154.129ZM176 52.9997H156.129V56.9997H176V52.9997ZM174 5.17773V54.9997H178V5.17773H174ZM171 2.17773C172.657 2.17773 174 3.52088 174 5.17773H178C178 1.31174 174.866 -1.82227 171 -1.82227V2.17773ZM7.83887 2.17773H171V-1.82227H7.83887V2.17773ZM2.83887 42.8216H22.7098V38.8216H2.83887V42.8216ZM24.7098 40.8216V40.7858H20.7098V40.8216H24.7098ZM22.5583 42.78C22.921 42.8076 23.2871 42.8216 23.6561 42.8216V38.8216C23.3883 38.8216 23.1233 38.8114 22.8614 38.7915L22.5583 42.78ZM23.6561 42.8216C31.5523 42.8216 37.9571 36.4268 37.9571 28.5339H33.9571C33.9571 34.2136 29.3473 38.8216 23.6561 38.8216L23.6561 42.8216ZM37.9571 28.5339C37.9571 20.641 31.5523 14.2462 23.6561 14.2462V18.2462C29.3473 18.2462 33.9571 22.8542 33.9571 28.5339H37.9571ZM23.6561 14.2462C23.2871 14.2462 22.921 14.2602 22.5583 14.2878L22.8614 18.2763C23.1233 18.2564 23.3883 18.2462 23.6561 18.2462V14.2462ZM24.7098 16.282V16.2462H20.7098V16.282H24.7098ZM22.7098 14.2462H2.83887V18.2462H22.7098V14.2462ZM0.838869 16.2462L0.838867 40.8216L4.83887 40.8216L4.83887 16.2462L0.838869 16.2462Z" fill="#F2F2F2" fill-opacity="0.5" mask="url(#path-200-inside-3)"/>
</mask>
<g mask="url(#mask0)">
<path opacity="0.3" d="M120.172 8.68457L38.3223 89.9722H71.9137L154.709 8.68457H120.172Z" fill="white"/>
<path opacity="0.3" d="M159.441 8.68457L77.1182 89.9722H82.3225L164.645 8.68457H159.441Z" fill="white"/>
</g>
<path opacity="0.5" fill-rule="evenodd" clip-rule="evenodd" d="M5.67784 91.8628H173.162L173.094 92.8793L173.162 92.8237L165.592 207.178H141.936L139.056 191.582H39.783L36.9035 207.178H13.2476L5.67773 92.8237L5.74538 92.8795L5.67784 91.8628Z" fill="#F2F2F2"/>
<mask id="mask1" mask-type="alpha" maskUnits="userSpaceOnUse" x="5" y="91" width="169" height="117">
<path opacity="0.5" fill-rule="evenodd" clip-rule="evenodd" d="M5.67773 91.8628H173.162L172.769 93.148L173.162 92.8238L165.592 207.178H141.936L138.358 187.801H40.481L36.9035 207.178H13.2476L5.67773 92.8238L5.82749 92.9473L5.67773 91.8628Z" fill="#F2F2F2"/>
</mask>
<g mask="url(#mask1)">
<path opacity="0.3" d="M79.957 95.7065L26.9678 203.334L59.1398 208.139L114.495 95.7065H79.957Z" fill="white"/>
<path opacity="0.3" d="M119.226 95.7065L63.3984 209.1H68.6027L124.431 95.7065H119.226Z" fill="white"/>
</g>
<path d="M20.8174 91.8628H26.4948V179.354C26.4948 180.922 25.2239 182.193 23.6561 182.193V182.193C22.0883 182.193 20.8174 180.922 20.8174 179.354V91.8628Z" fill="#333333"/>
<path d="M152.345 91.8628H158.022V179.354C158.022 180.922 156.751 182.193 155.183 182.193V182.193C153.616 182.193 152.345 180.922 152.345 179.354V91.8628Z" fill="#AD210C"/>
<path opacity="0.5" fill-rule="evenodd" clip-rule="evenodd" d="M139.097 191.645L141.936 207.178H165.592L173.162 92.8238L173.086 92.8861L173.162 91.8628H5.67773L5.78073 92.9087L5.67773 92.8238L13.2476 207.178H36.9035L39.8501 191.645H139.097ZM35.5921 203.334L38.5386 187.801H140.409L143.247 203.334H163.937L170.851 98.8791L170.722 98.9858L170.964 95.7066H7.98618L8.32602 99.1579L7.98808 98.879L14.9027 203.334H35.5921Z" fill="#F2F2F2"/>
<path opacity="0.5" d="M49.0229 179.767H130.839L140.043 185.438H38.7959L49.0229 179.767Z" fill="#F2F2F2" fill-opacity="0.5"/>
<path opacity="0.3" d="M14.1943 195.646H38.7965L37.3771 203.334H15.1406L14.1943 195.646Z" fill="#F2F2F2" fill-opacity="0.5"/>
<path opacity="0.3" d="M164.646 195.646H140.043L141.463 203.334H163.699L164.646 195.646Z" fill="#F2F2F2" fill-opacity="0.5"/>
<path fill-rule="evenodd" clip-rule="evenodd" d="M26.4945 65.397H20.8171V73.5089C18.0429 74.6318 16.0859 77.3516 16.0859 80.5285V89.9723H31.2257V80.5285C31.2257 77.3516 29.2687 74.6318 26.4945 73.5089V65.397Z" fill="#444444"/>
<path opacity="0.5" fill-rule="evenodd" clip-rule="evenodd" d="M26.495 65.397H24.6025V73.848C24.6025 73.8481 24.6025 73.8481 24.6025 73.8481V73.9038H24.6649C24.8051 74.0292 24.944 74.1519 25.0812 74.2732C26.8871 75.8687 28.3875 77.1944 28.3875 80.5203V89.9723H31.2262V80.5203C31.2262 77.3469 29.2692 74.63 26.495 73.5083V65.397Z" fill="#111111"/>
<path opacity="0.2" fill-rule="evenodd" clip-rule="evenodd" d="M21.7637 65.397H22.71V73.9038H22.7073C22.7082 73.9038 22.7091 73.9038 22.71 73.9038C22.1991 74.4141 21.7324 74.8179 21.3145 75.1793C19.7975 76.4914 18.925 77.2461 18.925 80.5204V89.9725H17.0326V80.5204C17.0326 77.347 18.9895 74.6302 21.7637 73.5085V65.397Z" fill="#999999"/>
<path fill-rule="evenodd" clip-rule="evenodd" d="M158.022 65.397H152.344V73.5089C149.57 74.6318 147.613 77.3516 147.613 80.5285V89.9723H162.753V80.5285C162.753 77.3516 160.796 74.6318 158.022 73.5089V65.397Z" fill="#AD210C"/>
<path opacity="0.5" fill-rule="evenodd" clip-rule="evenodd" d="M158.022 65.397H156.13V73.848C156.13 73.8481 156.13 73.8481 156.13 73.8481V73.9038H156.192C156.332 74.0292 156.471 74.1519 156.609 74.2732C158.414 75.8687 159.915 77.1944 159.915 80.5203V89.9723H162.754V80.5203C162.754 77.3469 160.797 74.63 158.022 73.5083V65.397Z" fill="#541005"/>
<path opacity="0.5" fill-rule="evenodd" clip-rule="evenodd" d="M153.291 65.397H154.237V73.9038H154.235C154.236 73.9038 154.236 73.9038 154.237 73.9038C153.726 74.4141 153.26 74.8179 152.842 75.1793C151.325 76.4914 150.452 77.2461 150.452 80.5204V89.9725H148.56V80.5204C148.56 77.347 150.517 74.6302 153.291 73.5085V65.397Z" fill="#C48686"/>
<path d="M0 91.647C0 90.5424 0.895431 89.647 2 89.647H174C175.105 89.647 176 90.5424 176 91.647V99.8217C176 105.345 171.523 109.822 166 109.822H10C4.47715 109.822 0 105.345 0 99.8217V91.647Z" fill="#F2F2F2" fill-opacity="0.5"/>
<path d="M2 90.647H174C174.552 90.647 175 91.0947 175 91.647V99.8217C175 104.792 170.971 108.822 166 108.822H10C5.02944 108.822 1 104.792 1 99.8217V91.647C1 91.0947 1.44772 90.647 2 90.647Z" stroke="#F2F2F2" stroke-opacity="0.5" stroke-width="2"/>
</svg>
