<svg width="176" height="207" viewBox="0 0 176 207" fill="none" xmlns="http://www.w3.org/2000/svg">
<path fill-rule="evenodd" clip-rule="evenodd" d="M39.5679 100.632H44.8619L45.5237 106.005H133.757L134.418 100.632H139.161V111.487H139.271V116.37L132.984 111.487H45.8545L39.5679 116.37V111.487V100.632ZM39.5679 116.37L38.7959 116.969H39.5679V116.37ZM139.271 116.37L140.043 116.969H139.271V116.37Z" fill="#F2F2F2" fill-opacity="0.3"/>
<path fill-rule="evenodd" clip-rule="evenodd" d="M39.6843 186.598L139.264 185.727L133.205 181.152L46.2935 181.152L46.1834 181.152L45.7612 181.506L39.5741 185.618L40.8541 185.618L39.6843 186.598Z" fill="#758CA2" fill-opacity="0.6"/>
<path d="M46.1943 181.133L39.9398 185.431L39.1849 100.243L45.5473 100.243L46.1943 105.705L46.1943 181.133Z" fill="#99A7AD" fill-opacity="0.6"/>
<path d="M133.033 180.97L139.138 185.431L140.043 99.9638L133.598 99.8538L133.033 105.745L133.033 180.97Z" fill="#99A7AD" fill-opacity="0.6"/>
<path d="M46.1943 105.688H48.1414V181.152H46.1943V105.688Z" fill="#F2F2F2" fill-opacity="0.5"/>
<path d="M131.087 105.688H133.034V181.152H131.087V105.688Z" fill="#F2F2F2" fill-opacity="0.5"/>
<path d="M109.343 106.078L45.8057 169.391V181.152H54.1891L129.529 106.078H126.772H109.343Z" fill="white" fill-opacity="0.2"/>
<path d="M133.034 107.245L58.6562 181.152H62.5129L133.034 110.973V107.245Z" fill="white" fill-opacity="0.2"/>
<path fill-rule="evenodd" clip-rule="evenodd" d="M46.0751 99.4648H39.8988C39.2897 99.4648 38.7959 99.9574 38.7959 100.565V185.498C38.7959 186.106 39.2897 186.598 39.8988 186.598H138.94C139.549 186.598 140.043 186.106 140.043 185.498V100.565C140.043 99.9574 139.549 99.4648 138.94 99.4648H133.205V104.746C133.205 105.353 132.711 105.846 132.102 105.846H47.178C46.5689 105.846 46.0751 105.353 46.0751 104.746V99.4648Z" fill="#F2F2F2" fill-opacity="0.5"/>
<path fill-rule="evenodd" clip-rule="evenodd" d="M40.34 101.005V185.058H138.499V101.005H134.749V104.746C134.749 106.204 133.564 107.386 132.102 107.386H47.178C45.7161 107.386 44.531 106.204 44.531 104.746V101.005H40.34ZM39.8988 99.4648C39.2897 99.4648 38.7959 99.9574 38.7959 100.565V185.498C38.7959 186.106 39.2897 186.598 39.8988 186.598H138.94C139.549 186.598 140.043 186.106 140.043 185.498V100.565C140.043 99.9574 139.549 99.4648 138.94 99.4648H133.205V104.746C133.205 105.353 132.711 105.846 132.102 105.846H47.178C46.5689 105.846 46.0751 105.353 46.0751 104.746V99.4648H39.8988Z" fill="#F2F2F2"/>
<path opacity="0.2" d="M49.6997 115.802H52.0361V106.856H49.6997V115.802Z" fill="#3E6E7A"/>
<path opacity="0.2" d="M49.6997 115.802H52.0361V106.856H49.6997V115.802Z" fill="#3E6E7A"/>
<path opacity="0.2" d="M49.3102 114.635H52.0361V105.689H49.3102V114.635Z" fill="#3E6E7A"/>
<path opacity="0.2" d="M49.699 106.683L49.3096 105.689V114.809L49.699 115.803V106.683Z" fill="#3E6E7A"/>
<path opacity="0.5" d="M49.3096 113.857V114.773L49.6829 115.802H51.8618L52.0355 114.773V113.857H49.3096Z" fill="#CCD4E2"/>
<path opacity="0.2" d="M105.384 115.802H107.721V106.856H105.384V115.802Z" fill="#3E6E7A"/>
<path opacity="0.2" d="M105.384 115.802H107.721V106.856H105.384V115.802Z" fill="#3E6E7A"/>
<path opacity="0.2" d="M104.995 114.635H108.11V105.689H104.995V114.635Z" fill="#3E6E7A"/>
<path opacity="0.2" d="M107.721 115.802L108.11 114.808V105.688L107.721 106.682V115.802Z" fill="#3E6E7A"/>
<path opacity="0.2" d="M105.386 106.682L104.996 105.688V114.808L105.386 115.802V106.682Z" fill="#3E6E7A"/>
<path opacity="0.5" d="M104.995 113.857V114.773L105.412 115.802H107.912L108.11 114.773V113.857H104.995Z" fill="#CCD4E2"/>
<path opacity="0.2" d="M110.837 115.802H113.562V106.856H110.837V115.802Z" fill="#3E6E7A"/>
<path opacity="0.2" d="M110.837 115.802H113.562V106.856H110.837V115.802Z" fill="#3E6E7A"/>
<path opacity="0.2" d="M110.447 114.635H113.562V105.689H110.447V114.635Z" fill="#3E6E7A"/>
<path opacity="0.2" d="M110.837 106.682L110.447 105.688V114.808L110.837 115.802V106.682Z" fill="#3E6E7A"/>
<path opacity="0.5" d="M110.447 113.857V114.773L110.865 115.802H113.373L113.563 114.773V113.857H110.447Z" fill="#CCD4E2"/>
<path opacity="0.2" d="M129.919 106.855H127.582V115.802H129.919V106.855Z" fill="#3E6E7A"/>
<path opacity="0.2" d="M129.919 106.855H127.582V115.802H129.919V106.855Z" fill="#3E6E7A"/>
<path opacity="0.2" d="M130.308 105.689H127.192V114.636H130.308V105.689Z" fill="#3E6E7A"/>
<path opacity="0.2" d="M127.582 115.803L127.192 114.803V105.689L127.582 106.689V115.803Z" fill="#3E6E7A"/>
<path opacity="0.2" d="M129.919 106.688L130.308 105.688V114.803L129.919 115.802V106.688Z" fill="#3E6E7A"/>
<path opacity="0.5" d="M130.308 113.857V114.83L129.881 115.802H127.391L127.192 114.83V113.857H130.308Z" fill="#CCD4E2"/>
<path opacity="0.2" d="M124.466 106.855H121.74V115.802H124.466V106.855Z" fill="#3E6E7A"/>
<path opacity="0.2" d="M124.466 106.855H121.74V115.802H124.466V106.855Z" fill="#3E6E7A"/>
<path opacity="0.2" d="M124.856 105.689H121.74V114.636H124.856V105.689Z" fill="#3E6E7A"/>
<path opacity="0.2" d="M124.467 106.688L124.856 105.688V114.803L124.467 115.802V106.688Z" fill="#3E6E7A"/>
<path opacity="0.5" d="M124.856 113.857V114.83L124.439 115.802H121.939L121.74 114.83V113.857H124.856Z" fill="#CCD4E2"/>
<path opacity="0.2" d="M118.626 106.855H116.289V115.802H118.626V106.855Z" fill="#3E6E7A"/>
<path opacity="0.2" d="M118.626 106.855H116.289V115.802H118.626V106.855Z" fill="#3E6E7A"/>
<path opacity="0.2" d="M119.015 105.688H115.899V114.635H119.015V105.688Z" fill="#3E6E7A"/>
<path opacity="0.2" d="M116.289 115.802L115.899 114.803V105.688L116.289 106.688V115.802Z" fill="#3E6E7A"/>
<path opacity="0.2" d="M118.625 106.688L119.014 105.688V114.803L118.625 115.802V106.688Z" fill="#3E6E7A"/>
<path opacity="0.5" d="M119.015 113.857V114.83L118.597 115.802H116.089L115.899 114.83V113.857H119.015Z" fill="#CCD4E2"/>
<path opacity="0.2" d="M77.3481 115.802H79.6846V106.856H77.3481V115.802Z" fill="#3E6E7A"/>
<path opacity="0.2" d="M77.3481 115.802H79.6846V106.856H77.3481V115.802Z" fill="#3E6E7A"/>
<path opacity="0.2" d="M76.9579 114.635H80.0732V105.689H76.9579V114.635Z" fill="#3E6E7A"/>
<path opacity="0.2" d="M79.6846 115.802L80.074 114.808V105.688L79.6846 106.682V115.802Z" fill="#3E6E7A"/>
<path opacity="0.2" d="M77.3474 106.683L76.958 105.689V114.809L77.3474 115.803V106.683Z" fill="#3E6E7A"/>
<path opacity="0.5" d="M76.958 113.857V114.773L77.3747 115.802H79.8749L80.0733 114.773V113.857H76.958Z" fill="#CCD4E2"/>
<path opacity="0.2" d="M82.7995 115.803H85.5254V106.856H82.7995V115.803Z" fill="#3E6E7A"/>
<path opacity="0.2" d="M82.7995 115.803H85.5254V106.856H82.7995V115.803Z" fill="#3E6E7A"/>
<path opacity="0.2" d="M82.4101 114.636H85.5254V105.689H82.4101V114.636Z" fill="#3E6E7A"/>
<path opacity="0.2" d="M82.8005 106.684L82.4111 105.69V114.81L82.8005 115.804V106.684Z" fill="#3E6E7A"/>
<path opacity="0.5" d="M82.4102 113.858V114.773L82.8282 115.803H85.3364L85.5255 114.773V113.858H82.4102Z" fill="#CCD4E2"/>
<path opacity="0.2" d="M101.88 106.855H99.5439V115.802H101.88V106.855Z" fill="#3E6E7A"/>
<path opacity="0.2" d="M101.88 106.855H99.5439V115.802H101.88V106.855Z" fill="#3E6E7A"/>
<path opacity="0.2" d="M102.27 105.689H99.1543V114.636H102.27V105.689Z" fill="#3E6E7A"/>
<path opacity="0.2" d="M99.5437 115.803L99.1543 114.803V105.689L99.5437 106.689V115.803Z" fill="#3E6E7A"/>
<path opacity="0.2" d="M101.881 106.688L102.27 105.688V114.803L101.881 115.802V106.688Z" fill="#3E6E7A"/>
<path opacity="0.5" d="M102.27 113.857V114.83L101.843 115.802H99.3527L99.1543 114.83V113.857H102.27Z" fill="#CCD4E2"/>
<path opacity="0.2" d="M96.4293 106.855H94.0928V115.802H96.4293V106.855Z" fill="#3E6E7A"/>
<path opacity="0.2" d="M96.4293 106.855H94.0928V115.802H96.4293V106.855Z" fill="#3E6E7A"/>
<path opacity="0.2" d="M96.8184 105.689H93.7031V114.636H96.8184V105.689Z" fill="#3E6E7A"/>
<path opacity="0.2" d="M94.0925 115.803L93.7031 114.803V105.689L94.0925 106.689V115.803Z" fill="#3E6E7A"/>
<path opacity="0.2" d="M96.4287 106.688L96.8181 105.688V114.803L96.4287 115.802V106.688Z" fill="#3E6E7A"/>
<path opacity="0.5" d="M96.8184 113.857V114.83L96.4017 115.802H93.9016L93.7031 114.83V113.857H96.8184Z" fill="#CCD4E2"/>
<path opacity="0.2" d="M90.5884 106.855H88.252V115.802H90.5884V106.855Z" fill="#3E6E7A"/>
<path opacity="0.2" d="M90.5884 106.855H88.252V115.802H90.5884V106.855Z" fill="#3E6E7A"/>
<path opacity="0.2" d="M90.9776 105.688H87.8623V114.635H90.9776V105.688Z" fill="#3E6E7A"/>
<path opacity="0.2" d="M88.2517 115.802L87.8623 114.803V105.688L88.2517 106.688V115.802Z" fill="#3E6E7A"/>
<path opacity="0.2" d="M90.5879 106.688L90.9773 105.688V114.803L90.5879 115.802V106.688Z" fill="#3E6E7A"/>
<path opacity="0.5" d="M90.9766 113.857V114.83L90.5586 115.802H88.0504L87.8613 114.83V113.857H90.9766Z" fill="#CCD4E2"/>
<path opacity="0.2" d="M55.1508 115.802H57.4873V106.856H55.1508V115.802Z" fill="#3E6E7A"/>
<path opacity="0.2" d="M55.1508 115.802H57.4873V106.856H55.1508V115.802Z" fill="#3E6E7A"/>
<path opacity="0.2" d="M54.7617 114.635H57.877V105.689H54.7617V114.635Z" fill="#3E6E7A"/>
<path opacity="0.2" d="M57.4873 115.802L57.8767 114.808V105.688L57.4873 106.682V115.802Z" fill="#3E6E7A"/>
<path opacity="0.2" d="M55.1511 106.683L54.7617 105.689V114.809L55.1511 115.803V106.683Z" fill="#3E6E7A"/>
<path opacity="0.5" d="M54.7617 113.857V114.773L55.1784 115.802H57.6786L57.877 114.773V113.857H54.7617Z" fill="#CCD4E2"/>
<path opacity="0.2" d="M60.603 115.802H62.9395V106.856H60.603V115.802Z" fill="#3E6E7A"/>
<path opacity="0.2" d="M60.603 115.802H62.9395V106.856H60.603V115.802Z" fill="#3E6E7A"/>
<path opacity="0.2" d="M60.2128 114.635H63.3281V105.689H60.2128V114.635Z" fill="#3E6E7A"/>
<path opacity="0.2" d="M62.9395 115.802L63.3289 114.808V105.688L62.9395 106.682V115.802Z" fill="#3E6E7A"/>
<path opacity="0.2" d="M60.6033 106.682L60.2139 105.688V114.808L60.6033 115.802V106.682Z" fill="#3E6E7A"/>
<path opacity="0.5" d="M60.2129 113.857V114.773L60.6309 115.802H63.1391L63.3282 114.773V113.857H60.2129Z" fill="#CCD4E2"/>
<path opacity="0.2" d="M74.232 106.855H71.8955V115.802H74.232V106.855Z" fill="#3E6E7A"/>
<path opacity="0.2" d="M74.232 106.855H71.8955V115.802H74.232V106.855Z" fill="#3E6E7A"/>
<path opacity="0.2" d="M74.6212 105.688H71.5059V114.635H74.6212V105.688Z" fill="#3E6E7A"/>
<path opacity="0.2" d="M71.8953 115.802L71.5059 114.803V105.688L71.8953 106.688V115.802Z" fill="#3E6E7A"/>
<path opacity="0.2" d="M74.2324 106.688L74.6218 105.688V114.803L74.2324 115.802V106.688Z" fill="#3E6E7A"/>
<path opacity="0.5" d="M74.6212 113.857V114.83L74.2045 115.802H71.7043L71.5059 114.83V113.857H74.6212Z" fill="#CCD4E2"/>
<path opacity="0.2" d="M68.3902 106.855H66.0537V115.802H68.3902V106.855Z" fill="#3E6E7A"/>
<path opacity="0.2" d="M68.3902 106.855H66.0537V115.802H68.3902V106.855Z" fill="#3E6E7A"/>
<path opacity="0.2" d="M68.7803 105.688H65.665V114.635H68.7803V105.688Z" fill="#3E6E7A"/>
<path opacity="0.2" d="M66.0544 115.802L65.665 114.803V105.688L66.0544 106.688V115.802Z" fill="#3E6E7A"/>
<path opacity="0.2" d="M68.3906 106.688L68.78 105.688V114.803L68.3906 115.802V106.688Z" fill="#3E6E7A"/>
<path opacity="0.5" d="M68.7803 113.857V114.83L68.3623 115.802H65.8541L65.665 114.83V113.857H68.7803Z" fill="#CCD4E2"/>
<g style="mix-blend-mode:soft-light">
<path d="M38.7959 176.874H140.043V185.518C140.043 186.114 139.549 186.598 138.94 186.598H39.8988C39.2897 186.598 38.7959 186.114 38.7959 185.518V176.874Z" fill="white"/>
</g>
<path fill-rule="evenodd" clip-rule="evenodd" d="M50.5557 174.151H38.7959V185.507C38.7959 186.11 39.2843 186.598 39.8867 186.598H51.6465C51.044 186.598 50.5557 186.11 50.5557 185.507V174.151Z" fill="#E5ECF0"/>
<path fill-rule="evenodd" clip-rule="evenodd" d="M127.927 174.151H140.043V185.507C140.043 186.11 139.54 186.598 138.919 186.598H126.803C127.424 186.598 127.927 186.11 127.927 185.507V174.151Z" fill="#E5ECF0"/>
<path opacity="0.5" fill-rule="evenodd" clip-rule="evenodd" d="M5.67784 91.6851H173.162L173.094 92.7016L173.162 92.646L165.592 207H141.936L139.056 191.404H39.783L36.9035 207H13.2476L5.67773 92.646L5.74538 92.7018L5.67784 91.6851Z" fill="#F2F2F2"/>
<mask id="mask0" mask-type="alpha" maskUnits="userSpaceOnUse" x="5" y="91" width="169" height="117">
<path opacity="0.5" fill-rule="evenodd" clip-rule="evenodd" d="M5.67773 91.6851H173.162L172.769 92.9703L173.162 92.646L165.592 207H141.936L138.358 187.623H40.481L36.9035 207H13.2476L5.67773 92.646L5.82749 92.7696L5.67773 91.6851Z" fill="#F2F2F2"/>
</mask>
<g mask="url(#mask0)">
<path opacity="0.3" d="M79.957 95.5288L26.9678 203.156L59.1398 207.961L114.495 95.5288H79.957Z" fill="white"/>
<path opacity="0.3" d="M119.226 95.5288L63.3984 208.922H68.6027L124.431 95.5288H119.226Z" fill="white"/>
</g>
<path d="M20.8174 91.6851H26.4948V179.176C26.4948 180.744 25.2239 182.015 23.6561 182.015V182.015C22.0883 182.015 20.8174 180.744 20.8174 179.176V91.6851Z" fill="#333333"/>
<path d="M152.345 91.6851H158.022V179.176C158.022 180.744 156.751 182.015 155.183 182.015V182.015C153.616 182.015 152.345 180.744 152.345 179.176V91.6851Z" fill="#AD210C"/>
<path opacity="0.5" fill-rule="evenodd" clip-rule="evenodd" d="M139.097 191.467L141.936 207H165.592L173.162 92.646L173.086 92.7084L173.162 91.6851H5.67773L5.78073 92.731L5.67773 92.646L13.2476 207H36.9035L39.8501 191.467H139.097ZM35.5921 203.156L38.5386 187.623H140.409L143.247 203.156H163.937L170.851 98.7014L170.722 98.8081L170.964 95.5289H7.98618L8.32602 98.9801L7.98808 98.7013L14.9027 203.156H35.5921Z" fill="#F2F2F2"/>
<path opacity="0.5" d="M49.0229 179.589H130.839L140.043 185.261H38.7959L49.0229 179.589Z" fill="#F2F2F2" fill-opacity="0.5"/>
<path opacity="0.3" d="M14.1943 195.469H38.7965L37.3771 203.156H15.1406L14.1943 195.469Z" fill="#F2F2F2" fill-opacity="0.5"/>
<path opacity="0.3" d="M164.646 195.469H140.043L141.463 203.156H163.699L164.646 195.469Z" fill="#F2F2F2" fill-opacity="0.5"/>
<path fill-rule="evenodd" clip-rule="evenodd" d="M26.4945 65.2192H20.8171V73.3311C18.0429 74.4541 16.0859 77.1739 16.0859 80.3508V89.7946H31.2257V80.3508C31.2257 77.1739 29.2687 74.4541 26.4945 73.3311V65.2192Z" fill="#444444"/>
<path opacity="0.5" fill-rule="evenodd" clip-rule="evenodd" d="M26.495 65.2192H24.6025V73.6703C24.6025 73.6703 24.6025 73.6704 24.6025 73.6704V73.7261H24.6649C24.8051 73.8514 24.944 73.9742 25.0812 74.0954C26.8871 75.691 28.3875 77.0166 28.3875 80.3425V89.7946H31.2262V80.3425C31.2262 77.1691 29.2692 74.4523 26.495 73.3305V65.2192Z" fill="#111111"/>
<path opacity="0.2" fill-rule="evenodd" clip-rule="evenodd" d="M21.7637 65.2192H22.71V73.7261H22.7073C22.7082 73.7261 22.7091 73.7261 22.71 73.7261C22.1991 74.2364 21.7324 74.6401 21.3145 75.0015C19.7975 76.3137 18.925 77.0684 18.925 80.3427V89.7948H17.0326V80.3427C17.0326 77.1693 18.9895 74.4525 21.7637 73.3307V65.2192Z" fill="#999999"/>
<path fill-rule="evenodd" clip-rule="evenodd" d="M158.022 65.2192H152.344V73.3311C149.57 74.4541 147.613 77.1739 147.613 80.3508V89.7946H162.753V80.3508C162.753 77.1739 160.796 74.4541 158.022 73.3311V65.2192Z" fill="#AD210C"/>
<path opacity="0.5" fill-rule="evenodd" clip-rule="evenodd" d="M158.022 65.2192H156.13V73.6703C156.13 73.6703 156.13 73.6704 156.13 73.6704V73.7261H156.192C156.332 73.8514 156.471 73.9742 156.609 74.0954C158.414 75.691 159.915 77.0166 159.915 80.3425V89.7946H162.754V80.3425C162.754 77.1691 160.797 74.4523 158.022 73.3305V65.2192Z" fill="#541005"/>
<path opacity="0.5" fill-rule="evenodd" clip-rule="evenodd" d="M153.291 65.2192H154.237V73.7261H154.235C154.236 73.7261 154.236 73.7261 154.237 73.7261C153.726 74.2364 153.26 74.6401 152.842 75.0015C151.325 76.3137 150.452 77.0684 150.452 80.3427V89.7948H148.56V80.3427C148.56 77.1693 150.517 74.4525 153.291 73.3307V65.2192Z" fill="#C48686"/>
<path d="M0 91.4692C0 90.3647 0.895431 89.4692 2 89.4692H174C175.105 89.4692 176 90.3647 176 91.4692V99.6439C176 105.167 171.523 109.644 166 109.644H10C4.47715 109.644 0 105.167 0 99.6439V91.4692Z" fill="#F2F2F2" fill-opacity="0.5"/>
<path d="M2 90.4692H174C174.552 90.4692 175 90.917 175 91.4692V99.6439C175 104.615 170.971 108.644 166 108.644H10C5.02944 108.644 1 104.615 1 99.6439V91.4692C1 90.917 1.44772 90.4692 2 90.4692Z" stroke="#F2F2F2" stroke-opacity="0.5" stroke-width="2"/>
</svg>
