<svg xmlns="http://www.w3.org/2000/svg" width="176" height="207" fill="none" viewBox="0 0 176 207">
    <path fill="#4CD38B" d="M51.646 102.861H49.31v10.892h2.336v-10.892zM57.098 102.86h-2.336v10.892h2.336V102.86zM62.94 102.86h-2.337v10.892h2.337V102.86zM68.391 102.86h-2.336v10.892h2.336V102.86zM73.843 102.86h-2.337v10.892h2.337V102.86zM79.684 102.86h-2.336v10.892h2.336V102.86zM85.136 102.86h-2.337v10.892h2.337V102.86zM90.977 102.86h-2.726v10.892h2.726V102.86zM96.429 102.86h-2.337v10.892h2.337V102.86zM101.881 102.86h-2.337v10.892h2.337V102.86zM107.722 102.86h-2.726v10.892h2.726V102.86zM113.174 102.86h-2.337v10.892h2.337V102.86zM118.625 102.86h-2.336v10.892h2.336V102.86zM124.467 102.86h-2.726v10.892h2.726V102.86zM129.918 102.86h-2.336v10.892h2.336V102.86z"/>
    <path fill="#51E094" d="M51.646 100.915H49.31v10.892h2.336v-10.892zM57.098 100.915h-2.336v10.892h2.336v-10.892zM62.94 100.915h-2.337v10.892h2.337v-10.892zM68.391 100.915h-2.336v10.892h2.336v-10.892zM73.843 100.915h-2.337v10.892h2.337v-10.892zM79.684 100.915h-2.336v10.892h2.336v-10.892zM85.136 100.915h-2.337v10.892h2.337v-10.892zM90.977 100.915h-2.726v10.892h2.726v-10.892zM96.429 100.915h-2.337v10.892h2.337v-10.892zM101.881 100.915h-2.337v10.892h2.337v-10.892zM107.722 100.915h-2.726v10.892h2.726v-10.892zM113.174 100.915h-2.337v10.892h2.337v-10.892zM118.625 100.915h-2.336v10.892h2.336v-10.892zM124.467 100.915h-2.726v10.892h2.726v-10.892zM129.918 100.915h-2.336v10.892h2.336v-10.892z"/>
    <path fill="#45BF80" d="M51.646 96.249H49.31v10.891h2.336V96.249zM57.098 96.248h-2.336v10.892h2.336V96.248zM62.94 96.248h-2.337v10.892h2.337V96.248zM68.391 96.248h-2.336v10.892h2.336V96.248zM73.843 96.248h-2.337v10.892h2.337V96.248zM79.684 96.248h-2.336v10.892h2.336V96.248zM85.136 96.248h-2.337v10.892h2.337V96.248zM90.977 96.248h-2.726v10.892h2.726V96.248zM96.429 96.248h-2.337v10.892h2.337V96.248zM101.881 96.248h-2.337v10.892h2.337V96.248zM107.722 96.248h-2.726v10.892h2.726V96.248zM113.174 96.248h-2.337v10.892h2.337V96.248zM118.625 96.248h-2.336v10.892h2.336V96.248zM124.467 96.248h-2.726v10.892h2.726V96.248zM129.918 96.248h-2.336v10.892h2.336V96.248z"/>
    <path fill="#4CD38B" d="M131.051 105.583H47.79a1.193 1.193 0 0 1-1.206-1.182V94.318c0-.654.539-1.182 1.206-1.182h83.258c.667 0 1.206.528 1.206 1.182V104.4c.003.654-.539 1.182-1.203 1.182z"/>
    <path fill="#4CD38B" d="M131.051 105.583H47.79a1.193 1.193 0 0 1-1.206-1.182V94.318c0-.654.539-1.182 1.206-1.182h83.258c.667 0 1.206.528 1.206 1.182V104.4c.003.654-.539 1.182-1.203 1.182z"/>
    <path fill="#54E899" d="M131.051 99.36H47.79c-.667 0-1.206-.531-1.206-1.185v-3.857c0-.654.539-1.182 1.206-1.182h83.258c.667 0 1.206.528 1.206 1.182v3.857a1.192 1.192 0 0 1-1.203 1.184z"/>
    <path fill="#51E094" d="M132.254 96.248h-85.67v5.445h85.67v-5.445z"/>
    <path fill="#58F4A3" d="M51.646 105.972h-.779v7.78h.779v-7.78zM57.487 105.972H56.32v7.78h1.168v-7.78zM62.94 105.972H61.77v7.78h1.168v-7.78zM68.39 105.972h-.778v7.78h.779v-7.78zM73.843 105.972h-.78v7.78h.78v-7.78zM79.684 105.972h-.779v7.78h.779v-7.78zM85.135 105.972h-.778v7.78h.778v-7.78zM90.587 105.972h-.779v7.78h.78v-7.78zM96.428 105.972H95.26v7.78h1.168v-7.78zM101.88 105.972h-.779v7.78h.779v-7.78zM107.722 105.972h-1.169v7.78h1.169v-7.78zM113.173 105.972h-1.168v7.78h1.168v-7.78zM118.625 105.972h-.779v7.78h.779v-7.78zM124.077 105.972h-.779v7.78h.779v-7.78zM129.918 105.972h-.779v7.78h.779v-7.78zM131.087 105.583h-1.437l-1.679-3.888v-5.32l1.679-3.24h1.441a1.17 1.17 0 0 1 1.163 1.176v10.097a1.173 1.173 0 0 1-1.167 1.175zM47.856 105.583h1.567l1.834-3.888v-5.32l-1.834-3.24h-1.57c-.7 0-1.27.527-1.27 1.176v10.097c0 .649.57 1.175 1.273 1.175z" opacity=".5"/>
    <path fill="#003E6B" d="M48.336 105.194a.973.973 0 1 0 .002-1.945.973.973 0 0 0-.002 1.945zM130.697 95.47a.778.778 0 1 0 .002-1.556.778.778 0 0 0-.002 1.556zM130.697 105.194c.43 0 .779-.435.779-.972 0-.537-.349-.973-.779-.973-.43 0-.779.436-.779.973 0 .537.349.972.779.972z"/>
    <path fill="#3FAF75" d="M130.982 95.47a.79.79 0 0 0 .137-.442c0-.452-.378-.816-.847-.816a.854.854 0 0 0-.353.077.853.853 0 0 1 .71-.375c.469 0 .847.365.847.817 0 .328-.204.61-.494.739z"/>
    <path fill="#378E60" d="M130.278 104.806c.466 0 .842-.457.842-1.023 0-.196-.048-.379-.127-.534.284.165.483.513.483.922 0 .566-.377 1.023-.843 1.023-.303 0-.569-.198-.715-.49.109.064.23.102.36.102z"/>
    <path fill="#003E6B" d="M48.336 95.47c.538 0 .974-.348.974-.778 0-.43-.436-.778-.974-.778-.537 0-.973.348-.973.778 0 .43.436.778.973.778z"/>
    <path fill="#3FAF75" d="M47.857 95.47a.802.802 0 0 1-.137-.441c0-.451.379-.816.847-.816.126 0 .246.029.353.077a.85.85 0 0 0-.71-.376c-.469 0-.847.364-.847.815 0 .33.204.612.494.741z"/>
    <path fill="#378E60" d="M48.56 104.806c-.466 0-.842-.457-.842-1.023 0-.196.048-.379.128-.534-.285.165-.483.513-.483.922 0 .566.376 1.023.842 1.023.303 0 .57-.198.715-.49a.705.705 0 0 1-.36.102z"/>
    <g fill="#B0E298" style="mix-blend-mode:color">
        <path d="M51.646 102.861H49.31v10.892h2.336v-10.892zM57.098 102.86h-2.336v10.892h2.336V102.86zM62.94 102.86h-2.337v10.892h2.337V102.86zM68.391 102.86h-2.336v10.892h2.336V102.86zM73.843 102.86h-2.337v10.892h2.337V102.86zM79.684 102.86h-2.336v10.892h2.336V102.86zM85.136 102.86h-2.337v10.892h2.337V102.86zM90.977 102.86h-2.726v10.892h2.726V102.86zM96.429 102.86h-2.337v10.892h2.337V102.86zM101.881 102.86h-2.337v10.892h2.337V102.86zM107.722 102.86h-2.726v10.892h2.726V102.86zM113.174 102.86h-2.337v10.892h2.337V102.86zM118.625 102.86h-2.336v10.892h2.336V102.86zM124.467 102.86h-2.726v10.892h2.726V102.86zM129.918 102.86h-2.336v10.892h2.336V102.86z"/>
    </g>
    <path fill="#B0E298" d="M131.051 105.583H47.79a1.193 1.193 0 0 1-1.206-1.182V94.318c0-.654.539-1.182 1.206-1.182h83.258c.667 0 1.206.528 1.206 1.182V104.4c.003.654-.539 1.182-1.203 1.182z" style="mix-blend-mode:color"/>
    <path fill="#F2F2F2" fill-opacity=".3" fill-rule="evenodd" d="M39.568 100.632h5.294l.661 5.373h88.233l.662-5.373h4.742v10.855h.111v4.883l-6.287-4.883h-87.13l-6.286 4.883v-15.738zm0 15.738l-.772.599h.772v-.599zm99.703 0l.772.599h-.772v-.599z" clip-rule="evenodd"/>
    <path fill="#758CA2" fill-opacity=".6" fill-rule="evenodd" d="M39.684 186.598l99.58-.871-6.059-4.575H46.184l-.423.354-6.187 4.112h1.28l-1.17.98z" clip-rule="evenodd"/>
    <path fill="#99A7AD" fill-opacity=".6" d="M46.194 181.133l-6.254 4.298-.755-85.188h6.362l.647 5.462v75.428zM133.033 180.97l6.105 4.461.905-85.467-6.444-.11-.566 5.891v75.225z"/>
    <path fill="#F2F2F2" fill-opacity=".5" d="M46.194 105.688h1.947v75.464h-1.947v-75.464zM131.086 105.688h1.947v75.464h-1.947v-75.464z"/>
    <path fill="#fff" fill-opacity=".2" d="M109.342 106.078l-63.537 63.313v11.761h8.383l75.341-75.074H109.342zM133.033 107.245l-74.377 73.907h3.856l70.521-70.179v-3.728z"/>
    <path fill="#F2F2F2" fill-opacity=".5" fill-rule="evenodd" d="M46.075 99.465H39.9c-.61 0-1.103.492-1.103 1.1v84.933c0 .607.494 1.1 1.103 1.1h99.041c.609 0 1.103-.493 1.103-1.1v-84.933c0-.608-.494-1.1-1.103-1.1h-5.735v5.281c0 .607-.494 1.1-1.103 1.1H47.178c-.61 0-1.103-.493-1.103-1.1v-5.281z" clip-rule="evenodd"/>
    <path fill="#F2F2F2" fill-rule="evenodd" d="M40.34 101.005v84.053h98.159v-84.053h-3.75v3.741a2.643 2.643 0 0 1-2.647 2.64H47.178a2.644 2.644 0 0 1-2.647-2.64v-3.741H40.34zm-.441-1.54c-.61 0-1.103.492-1.103 1.1v84.933c0 .607.494 1.1 1.103 1.1h99.041c.609 0 1.103-.493 1.103-1.1v-84.933c0-.608-.494-1.1-1.103-1.1h-5.735v5.281c0 .607-.494 1.1-1.103 1.1H47.178c-.61 0-1.103-.493-1.103-1.1v-5.281H39.9z" clip-rule="evenodd"/>
    <path fill="#3E6E7A" d="M49.7 115.802h2.336v-8.947h-2.337v8.947z" opacity=".2"/>
    <path fill="#3E6E7A" d="M49.7 115.802h2.336v-8.947h-2.337v8.947z" opacity=".2"/>
    <path fill="#3E6E7A" d="M49.31 114.635h2.726v-8.947H49.31v8.947z" opacity=".2"/>
    <path fill="#3E6E7A" d="M49.7 106.683l-.39-.994v9.12l.39.994v-9.12z" opacity=".2"/>
    <path fill="#CCD4E2" d="M49.31 113.857v.916l.373 1.029h2.18l.173-1.029v-.916H49.31z" opacity=".5"/>
    <path fill="#3E6E7A" d="M105.385 115.802h2.337v-8.947h-2.337v8.947z" opacity=".2"/>
    <path fill="#3E6E7A" d="M105.385 115.802h2.337v-8.947h-2.337v8.947z" opacity=".2"/>
    <path fill="#3E6E7A" d="M104.996 114.635h3.115v-8.947h-3.115v8.947z" opacity=".2"/>
    <path fill="#3E6E7A" d="M107.722 115.802l.389-.994v-9.12l-.389.994v9.12zM105.386 106.682l-.389-.994v9.12l.389.994v-9.12z" opacity=".2"/>
    <path fill="#CCD4E2" d="M104.996 113.857v.916l.416 1.029h2.5l.199-1.029v-.916h-3.115z" opacity=".5"/>
    <path fill="#3E6E7A" d="M110.837 115.802h2.726v-8.947h-2.726v8.947z" opacity=".2"/>
    <path fill="#3E6E7A" d="M110.837 115.802h2.726v-8.947h-2.726v8.947z" opacity=".2"/>
    <path fill="#3E6E7A" d="M110.448 114.635h3.115v-8.947h-3.115v8.947z" opacity=".2"/>
    <path fill="#3E6E7A" d="M110.837 106.682l-.389-.994v9.12l.389.994v-9.12z" opacity=".2"/>
    <path fill="#CCD4E2" d="M110.447 113.857v.916l.418 1.029h2.509l.189-1.029v-.916h-3.116z" opacity=".5"/>
    <path fill="#3E6E7A" d="M129.918 106.855h-2.336v8.947h2.336v-8.947z" opacity=".2"/>
    <path fill="#3E6E7A" d="M129.918 106.855h-2.336v8.947h2.336v-8.947z" opacity=".2"/>
    <path fill="#3E6E7A" d="M130.308 105.689h-3.116v8.947h3.116v-8.947z" opacity=".2"/>
    <path fill="#3E6E7A" d="M127.582 115.803l-.39-1v-9.114l.39 1v9.114zM129.918 106.688l.39-1v9.114l-.39 1v-9.114z" opacity=".2"/>
    <path fill="#CCD4E2" d="M130.308 113.857v.973l-.427.972h-2.49l-.198-.972v-.973h3.115z" opacity=".5"/>
    <path fill="#3E6E7A" d="M124.467 106.855h-2.726v8.947h2.726v-8.947z" opacity=".2"/>
    <path fill="#3E6E7A" d="M124.467 106.855h-2.726v8.947h2.726v-8.947z" opacity=".2"/>
    <path fill="#3E6E7A" d="M124.856 105.689h-3.116v8.947h3.116v-8.947z" opacity=".2"/>
    <path fill="#3E6E7A" d="M124.466 106.688l.39-1v9.114l-.39 1v-9.114z" opacity=".2"/>
    <path fill="#CCD4E2" d="M124.856 113.857v.973l-.417.972h-2.5l-.198-.972v-.973h3.115z" opacity=".5"/>
    <path fill="#3E6E7A" d="M118.625 106.855h-2.336v8.947h2.336v-8.947z" opacity=".2"/>
    <path fill="#3E6E7A" d="M118.625 106.855h-2.336v8.947h2.336v-8.947z" opacity=".2"/>
    <path fill="#3E6E7A" d="M119.015 105.688H115.9v8.947h3.115v-8.947z" opacity=".2"/>
    <path fill="#3E6E7A" d="M116.289 115.802l-.389-1v-9.114l.389 1v9.114zM118.625 106.688l.39-1v9.114l-.39 1v-9.114z" opacity=".2"/>
    <path fill="#CCD4E2" d="M119.015 113.857v.973l-.418.972h-2.509l-.189-.972v-.973h3.116z" opacity=".5"/>
    <path fill="#3E6E7A" d="M77.348 115.802h2.336v-8.947h-2.336v8.947z" opacity=".2"/>
    <path fill="#3E6E7A" d="M77.348 115.802h2.336v-8.947h-2.336v8.947z" opacity=".2"/>
    <path fill="#3E6E7A" d="M76.958 114.635h3.115v-8.947h-3.115v8.947z" opacity=".2"/>
    <path fill="#3E6E7A" d="M79.684 115.802l.39-.994v-9.12l-.39.994v9.12zM77.348 106.683l-.39-.994v9.12l.39.994v-9.12z" opacity=".2"/>
    <path fill="#CCD4E2" d="M76.959 113.857v.916l.416 1.029h2.5l.199-1.029v-.916h-3.115z" opacity=".5"/>
    <path fill="#3E6E7A" d="M82.8 115.803h2.726v-8.947H82.8v8.947z" opacity=".2"/>
    <path fill="#3E6E7A" d="M82.8 115.803h2.726v-8.947H82.8v8.947z" opacity=".2"/>
    <path fill="#3E6E7A" d="M82.41 114.636h3.116v-8.947H82.41v8.947z" opacity=".2"/>
    <path fill="#3E6E7A" d="M82.8 106.684l-.389-.994v9.12l.39.994v-9.12z" opacity=".2"/>
    <path fill="#CCD4E2" d="M82.41 113.858v.915l.418 1.03h2.508l.19-1.03v-.915H82.41z" opacity=".5"/>
    <path fill="#3E6E7A" d="M101.881 106.855h-2.337v8.947h2.337v-8.947z" opacity=".2"/>
    <path fill="#3E6E7A" d="M101.881 106.855h-2.337v8.947h2.337v-8.947z" opacity=".2"/>
    <path fill="#3E6E7A" d="M102.27 105.689h-3.115v8.947h3.115v-8.947z" opacity=".2"/>
    <path fill="#3E6E7A" d="M99.544 115.803l-.39-1v-9.114l.39 1v9.114zM101.881 106.688l.389-1v9.114l-.389 1v-9.114z" opacity=".2"/>
    <path fill="#CCD4E2" d="M102.27 113.857v.973l-.427.972h-2.49l-.198-.972v-.973h3.115z" opacity=".5"/>
    <path fill="#3E6E7A" d="M96.43 106.855h-2.337v8.947h2.336v-8.947z" opacity=".2"/>
    <path fill="#3E6E7A" d="M96.43 106.855h-2.337v8.947h2.336v-8.947z" opacity=".2"/>
    <path fill="#3E6E7A" d="M96.819 105.689h-3.116v8.947h3.116v-8.947z" opacity=".2"/>
    <path fill="#3E6E7A" d="M94.093 115.803l-.39-1v-9.114l.39 1v9.114zM96.43 106.688l.389-1v9.114l-.39 1v-9.114z" opacity=".2"/>
    <path fill="#CCD4E2" d="M96.818 113.857v.973l-.416.972h-2.5l-.199-.972v-.973h3.115z" opacity=".5"/>
    <path fill="#3E6E7A" d="M90.588 106.855H88.25v8.947h2.337v-8.947z" opacity=".2"/>
    <path fill="#3E6E7A" d="M90.588 106.855H88.25v8.947h2.337v-8.947z" opacity=".2"/>
    <path fill="#3E6E7A" d="M90.977 105.688h-3.115v8.947h3.115v-8.947z" opacity=".2"/>
    <path fill="#3E6E7A" d="M88.251 115.802l-.389-1v-9.114l.39 1v9.114zM90.588 106.688l.389-1v9.114l-.39 1v-9.114z" opacity=".2"/>
    <path fill="#CCD4E2" d="M90.977 113.857v.973l-.418.972H88.05l-.19-.972v-.973h3.116z" opacity=".5"/>
    <path fill="#3E6E7A" d="M55.151 115.802h2.336v-8.947h-2.336v8.947z" opacity=".2"/>
    <path fill="#3E6E7A" d="M55.151 115.802h2.336v-8.947h-2.336v8.947z" opacity=".2"/>
    <path fill="#3E6E7A" d="M54.762 114.635h3.115v-8.947h-3.115v8.947z" opacity=".2"/>
    <path fill="#3E6E7A" d="M57.487 115.802l.39-.994v-9.12l-.39.994v9.12zM55.152 106.683l-.39-.994v9.12l.39.994v-9.12z" opacity=".2"/>
    <path fill="#CCD4E2" d="M54.761 113.857v.916l.417 1.029h2.5l.199-1.029v-.916H54.76z" opacity=".5"/>
    <path fill="#3E6E7A" d="M60.603 115.802h2.336v-8.947h-2.336v8.947z" opacity=".2"/>
    <path fill="#3E6E7A" d="M60.603 115.802h2.336v-8.947h-2.336v8.947z" opacity=".2"/>
    <path fill="#3E6E7A" d="M60.213 114.635h3.116v-8.947h-3.116v8.947z" opacity=".2"/>
    <path fill="#3E6E7A" d="M62.94 115.802l.389-.994v-9.12l-.39.994v9.12zM60.603 106.682l-.389-.994v9.12l.39.994v-9.12z" opacity=".2"/>
    <path fill="#CCD4E2" d="M60.214 113.857v.916l.418 1.029h2.508l.189-1.029v-.916h-3.115z" opacity=".5"/>
    <path fill="#3E6E7A" d="M74.232 106.855h-2.336v8.947h2.336v-8.947z" opacity=".2"/>
    <path fill="#3E6E7A" d="M74.232 106.855h-2.336v8.947h2.336v-8.947z" opacity=".2"/>
    <path fill="#3E6E7A" d="M74.622 105.688h-3.116v8.947h3.116v-8.947z" opacity=".2"/>
    <path fill="#3E6E7A" d="M71.896 115.802l-.39-1v-9.114l.39 1v9.114zM74.232 106.688l.39-1v9.114l-.39 1v-9.114z" opacity=".2"/>
    <path fill="#CCD4E2" d="M74.622 113.857v.973l-.417.972h-2.5l-.198-.972v-.973h3.115z" opacity=".5"/>
    <path fill="#3E6E7A" d="M68.391 106.855h-2.336v8.947h2.336v-8.947z" opacity=".2"/>
    <path fill="#3E6E7A" d="M68.391 106.855h-2.336v8.947h2.336v-8.947z" opacity=".2"/>
    <path fill="#3E6E7A" d="M68.781 105.688h-3.115v8.947h3.115v-8.947z" opacity=".2"/>
    <path fill="#3E6E7A" d="M66.055 115.802l-.39-1v-9.114l.39 1v9.114zM68.391 106.688l.39-1v9.114l-.39 1v-9.114z" opacity=".2"/>
    <path fill="#CCD4E2" d="M68.78 113.857v.973l-.417.972h-2.508l-.19-.972v-.973h3.116z" opacity=".5"/>
    <path fill="#fff" d="M38.796 176.873h101.247v8.645c0 .596-.494 1.08-1.103 1.08H39.899c-.61 0-1.103-.484-1.103-1.08v-8.645z" style="mix-blend-mode:soft-light"/>
    <path fill="#E5ECF0" fill-rule="evenodd" d="M50.555 174.151h-11.76v11.355a1.09 1.09 0 0 0 1.091 1.092h11.76a1.09 1.09 0 0 1-1.09-1.092v-11.355zM127.927 174.151h12.116v11.355c0 .604-.503 1.092-1.124 1.092h-12.116c.621 0 1.124-.488 1.124-1.092v-11.355z" clip-rule="evenodd"/>
    <path fill="#F2F2F2" fill-rule="evenodd" d="M5.678 91.685H173.16l-.067 1.016.067-.055L165.591 207h-23.656l-2.879-15.596H39.783L36.903 207H13.247L5.677 92.646l.068.056-.067-1.017z" clip-rule="evenodd" opacity=".5"/>
    <mask id="a" width="169" height="116" x="5" y="91" maskUnits="userSpaceOnUse">
        <path fill="#F2F2F2" fill-rule="evenodd" d="M5.677 91.685h167.484l-.393 1.285.393-.324L165.591 207h-23.656l-3.577-19.377H40.481L36.903 207H13.247L5.677 92.646l.15.123-.15-1.084z" clip-rule="evenodd" opacity=".5"/>
    </mask>
    <g fill="#fff" mask="url(#a)">
        <path d="M79.957 95.529l-52.99 107.627 32.173 4.805 55.355-112.432H79.957zM119.226 95.529L63.398 208.922h5.204L124.43 95.529h-5.204z" opacity=".3"/>
    </g>
    <path fill="#333" d="M20.817 91.685h5.678v87.491a2.839 2.839 0 1 1-5.678 0V91.685z"/>
    <path fill="#AD210C" d="M152.344 91.685h5.678v87.491a2.839 2.839 0 1 1-5.678 0V91.685z"/>
    <path fill="#F2F2F2" fill-rule="evenodd" d="M139.097 191.467L141.935 207h23.656l7.57-114.354-.075.062.075-1.023H5.677l.103 1.046-.103-.085L13.247 207h23.656l2.947-15.533h99.247zM35.592 203.156l2.946-15.533h101.87l2.839 15.533h20.689l6.915-104.455-.129.107.242-3.28H7.986l.34 3.452-.338-.279 6.914 104.455h20.69z" clip-rule="evenodd" opacity=".5"/>
    <path fill="#F2F2F2" fill-opacity=".5" d="M49.023 179.589h81.816l9.204 5.671H38.796l10.227-5.671z" opacity=".5"/>
    <path fill="#F2F2F2" fill-opacity=".5" d="M14.194 195.469h24.602l-1.42 7.687H15.14l-.946-7.687zM164.645 195.469h-24.602l1.419 7.687h22.237l.946-7.687z" opacity=".3"/>
    <path fill="#444" fill-rule="evenodd" d="M26.495 65.22h-5.678v8.111a7.572 7.572 0 0 0-4.73 7.02v9.444h15.139V80.35a7.572 7.572 0 0 0-4.731-7.02V65.22z" clip-rule="evenodd"/>
    <path fill="#111" fill-rule="evenodd" d="M26.495 65.22h-1.893V73.725h.063l.416.37c1.806 1.595 3.306 2.92 3.306 6.246v9.453h2.84v-9.453a7.564 7.564 0 0 0-4.732-7.011v-8.112z" clip-rule="evenodd" opacity=".5"/>
    <path fill="#999" fill-rule="evenodd" d="M21.764 65.22h.946v8.506h-.003.003c-.511.51-.978.914-1.396 1.275-1.517 1.313-2.39 2.067-2.39 5.342v9.452h-1.892v-9.452a7.564 7.564 0 0 1 4.732-7.012v-8.112z" clip-rule="evenodd" opacity=".2"/>
    <path fill="#AD210C" fill-rule="evenodd" d="M158.022 65.22h-5.678v8.111a7.573 7.573 0 0 0-4.731 7.02v9.444h15.14V80.35a7.573 7.573 0 0 0-4.731-7.02V65.22z" clip-rule="evenodd"/>
    <path fill="#541005" fill-rule="evenodd" d="M158.022 65.22h-1.893V73.725h.063l.416.37c1.806 1.595 3.306 2.92 3.306 6.246v9.453h2.839v-9.453a7.564 7.564 0 0 0-4.731-7.011v-8.112z" clip-rule="evenodd" opacity=".5"/>
    <path fill="#C48686" fill-rule="evenodd" d="M153.29 65.22h.946v8.506h-.002.002c-.51.51-.977.914-1.395 1.275-1.517 1.313-2.389 2.067-2.389 5.342v9.452h-1.893v-9.452a7.564 7.564 0 0 1 4.731-7.012v-8.112z" clip-rule="evenodd" opacity=".5"/>
    <path fill="#F2F2F2" fill-opacity=".5" d="M0 91.47a2 2 0 0 1 2-2h172a2 2 0 0 1 2 2v8.174c0 5.523-4.477 10-10 10H10c-5.523 0-10-4.477-10-10v-8.175z"/>
    <path stroke="#F2F2F2" stroke-opacity=".5" stroke-width="2" d="M1 91.47a1 1 0 0 1 1-1h172a1 1 0 0 1 1 1v8.174a9 9 0 0 1-9 9H10a9 9 0 0 1-9-9v-8.175z"/>
</svg>
