<svg width="176" height="208" viewBox="0 0 176 208" fill="none" xmlns="http://www.w3.org/2000/svg">
<path d="M2.83887 3.01335C2.83887 1.44728 4.10842 0.177734 5.67448 0.177734H173.165C174.731 0.177734 176 1.44728 176 3.01335V3.01335C176 6.14549 173.461 8.68458 170.329 8.68458H8.51011C5.37797 8.68458 2.83887 6.14549 2.83887 3.01335V3.01335Z" fill="#F2F2F2" fill-opacity="0.5"/>
<path d="M5.67448 1.17773H173.165C174.178 1.17773 175 1.99957 175 3.01335C175 5.5932 172.909 7.68458 170.329 7.68458H8.51011C5.93025 7.68458 3.83887 5.5932 3.83887 3.01335C3.83887 1.99957 4.6607 1.17773 5.67448 1.17773Z" stroke="#F2F2F2" stroke-opacity="0.5" stroke-width="2"/>
<mask id="path-3-inside-1" fill="white">
<path fill-rule="evenodd" clip-rule="evenodd" d="M7.83887 0.177734C5.07744 0.177734 2.83887 2.4163 2.83887 5.17773V40.8216V86.8627C2.83887 89.6241 5.07744 91.8627 7.83887 91.8627H171C173.762 91.8627 176 89.6241 176 86.8627V79.575H156.129V79.5392C155.817 79.5629 155.501 79.575 155.183 79.575C148.389 79.575 142.882 74.0736 142.882 67.2873C142.882 60.501 148.389 54.9997 155.183 54.9997C155.501 54.9997 155.817 55.0117 156.129 55.0355V54.9997H176V5.17773C176 2.41631 173.762 0.177734 171 0.177734H7.83887ZM2.83887 40.8216H22.7098V40.7858C23.0221 40.8095 23.3377 40.8216 23.6561 40.8216C30.4498 40.8216 35.9571 35.3202 35.9571 28.5339C35.9571 21.7476 30.4498 16.2462 23.6561 16.2462C23.3377 16.2462 23.0221 16.2583 22.7098 16.282V16.2462H2.83887L2.83887 40.8216Z"/>
</mask>
<path fill-rule="evenodd" clip-rule="evenodd" d="M7.83887 0.177734C5.07744 0.177734 2.83887 2.4163 2.83887 5.17773V40.8216V86.8627C2.83887 89.6241 5.07744 91.8627 7.83887 91.8627H171C173.762 91.8627 176 89.6241 176 86.8627V79.575H156.129V79.5392C155.817 79.5629 155.501 79.575 155.183 79.575C148.389 79.575 142.882 74.0736 142.882 67.2873C142.882 60.501 148.389 54.9997 155.183 54.9997C155.501 54.9997 155.817 55.0117 156.129 55.0355V54.9997H176V5.17773C176 2.41631 173.762 0.177734 171 0.177734H7.83887ZM2.83887 40.8216H22.7098V40.7858C23.0221 40.8095 23.3377 40.8216 23.6561 40.8216C30.4498 40.8216 35.9571 35.3202 35.9571 28.5339C35.9571 21.7476 30.4498 16.2462 23.6561 16.2462C23.3377 16.2462 23.0221 16.2583 22.7098 16.282V16.2462H2.83887L2.83887 40.8216Z" fill="#F2F2F2" fill-opacity="0.5"/>
<path d="M176 79.575H178V77.575H176V79.575ZM156.129 79.575H154.129V81.575H156.129V79.575ZM156.129 79.5392H158.129V77.3815L155.978 77.5449L156.129 79.5392ZM156.129 55.0355L155.978 57.0297L158.129 57.1932V55.0355H156.129ZM156.129 54.9997V52.9997H154.129V54.9997H156.129ZM176 54.9997V56.9997H178V54.9997H176ZM22.7098 40.8216V42.8216H24.7098V40.8216H22.7098ZM22.7098 40.7858L22.8614 38.7915L20.7098 38.628V40.7858H22.7098ZM23.6561 40.8216L23.6561 38.8216H23.6561V40.8216ZM22.7098 16.282H20.7098V18.4398L22.8614 18.2763L22.7098 16.282ZM22.7098 16.2462H24.7098V14.2462H22.7098V16.2462ZM2.83887 16.2462V14.2462H0.83887L0.838869 16.2462L2.83887 16.2462ZM4.83887 5.17773C4.83887 3.52088 6.18201 2.17773 7.83887 2.17773V-1.82227C3.97288 -1.82227 0.838867 1.31173 0.838867 5.17773H4.83887ZM4.83887 40.8216V5.17773H0.838867V40.8216H4.83887ZM4.83887 86.8627V40.8216H0.838867V86.8627H4.83887ZM7.83887 89.8627C6.18201 89.8627 4.83887 88.5195 4.83887 86.8627H0.838867C0.838867 90.7287 3.97287 93.8627 7.83887 93.8627V89.8627ZM171 89.8627H7.83887V93.8627H171V89.8627ZM174 86.8627C174 88.5195 172.657 89.8627 171 89.8627V93.8627C174.866 93.8627 178 90.7287 178 86.8627H174ZM174 79.575V86.8627H178V79.575H174ZM156.129 81.575H176V77.575H156.129V81.575ZM154.129 79.5392V79.575H158.129V79.5392H154.129ZM155.183 81.575C155.552 81.575 155.918 81.561 156.281 81.5334L155.978 77.5449C155.716 77.5648 155.451 77.575 155.183 77.575V81.575ZM140.882 67.2873C140.882 75.1803 147.287 81.575 155.183 81.575V77.575C149.492 77.575 144.882 72.967 144.882 67.2873H140.882ZM155.183 52.9997C147.287 52.9997 140.882 59.3944 140.882 67.2873H144.882C144.882 61.6077 149.492 56.9997 155.183 56.9997V52.9997ZM156.281 53.0412C155.918 53.0137 155.552 52.9997 155.183 52.9997V56.9997C155.451 56.9997 155.716 57.0098 155.978 57.0297L156.281 53.0412ZM154.129 54.9997V55.0355H158.129V54.9997H154.129ZM176 52.9997H156.129V56.9997H176V52.9997ZM174 5.17773V54.9997H178V5.17773H174ZM171 2.17773C172.657 2.17773 174 3.52088 174 5.17773H178C178 1.31174 174.866 -1.82227 171 -1.82227V2.17773ZM7.83887 2.17773H171V-1.82227H7.83887V2.17773ZM2.83887 42.8216H22.7098V38.8216H2.83887V42.8216ZM24.7098 40.8216V40.7858H20.7098V40.8216H24.7098ZM22.5583 42.78C22.921 42.8076 23.2871 42.8216 23.6561 42.8216V38.8216C23.3883 38.8216 23.1233 38.8114 22.8614 38.7915L22.5583 42.78ZM23.6561 42.8216C31.5523 42.8216 37.9571 36.4268 37.9571 28.5339H33.9571C33.9571 34.2136 29.3473 38.8216 23.6561 38.8216L23.6561 42.8216ZM37.9571 28.5339C37.9571 20.641 31.5523 14.2462 23.6561 14.2462V18.2462C29.3473 18.2462 33.9571 22.8542 33.9571 28.5339H37.9571ZM23.6561 14.2462C23.2871 14.2462 22.921 14.2602 22.5583 14.2878L22.8614 18.2763C23.1233 18.2564 23.3883 18.2462 23.6561 18.2462V14.2462ZM24.7098 16.282V16.2462H20.7098V16.282H24.7098ZM22.7098 14.2462H2.83887V18.2462H22.7098V14.2462ZM0.838869 16.2462L0.838867 40.8216L4.83887 40.8216L4.83887 16.2462L0.838869 16.2462Z" fill="#F2F2F2" fill-opacity="0.5" mask="url(#path-3-inside-1)"/>
<path fill-rule="evenodd" clip-rule="evenodd" d="M2.83887 14.3558L2.83887 16.2462L22.7098 16.2462M24.6023 16.282C24.29 16.2583 23.9744 16.2462 23.6561 16.2462C23.3377 16.2462 23.0221 16.2583 22.7098 16.282M24.6023 16.282C30.9539 16.7647 35.9571 22.0656 35.9571 28.5339C35.9571 35.0022 30.9539 40.3031 24.6023 40.7858C24.29 40.8095 23.9744 40.8216 23.6561 40.8216C23.3377 40.8216 23.0221 40.8095 22.7098 40.7858V40.8216H2.83887V87.1366C2.83887 89.7468 4.95709 91.8627 7.57005 91.8627H171.269C173.882 91.8627 176 89.7468 176 87.1366V79.575H156.129V79.5392C155.817 79.5629 155.501 79.575 155.183 79.575C154.865 79.575 154.549 79.5629 154.237 79.5392C147.885 79.0566 142.882 73.7556 142.882 67.2873C142.882 60.8191 147.885 55.5181 154.237 55.0355C154.549 55.0117 154.865 54.9997 155.183 54.9997C155.501 54.9997 155.817 55.0117 156.129 55.0355V54.9997H176V4.90376C176 2.29365 173.882 0.177734 171.269 0.177734H7.57005C4.95709 0.177734 2.83887 2.29365 2.83887 4.90376L2.83887 14.3558M174.108 53.1092V4.90376C174.108 3.33769 172.837 2.06815 171.269 2.06815H7.57005C6.00227 2.06815 4.73134 3.33769 4.73134 4.90376V14.3558L24.6023 14.3558V14.3868C32 14.8732 37.8496 21.0212 37.8496 28.5339C37.8496 36.0466 32 42.1946 24.6023 42.681V42.712H4.73134V87.1366C4.73134 88.7027 6.00228 89.9723 7.57005 89.9723H171.269C172.837 89.9723 174.108 88.7027 174.108 87.1366V81.4654H154.237V81.4344C146.839 80.948 140.989 74.8 140.989 67.2873C140.989 59.7746 146.839 53.6266 154.237 53.1403V53.1092H174.108Z" fill="#F2F2F2" fill-opacity="0.5"/>
<mask id="mask0" mask-type="alpha" maskUnits="userSpaceOnUse" x="2" y="0" width="175" height="92">
<mask id="path-6-inside-2" mask-type="luminance" fill="white">
<path fill-rule="evenodd" clip-rule="evenodd" d="M7.83887 0.177734C5.07744 0.177734 2.83887 2.4163 2.83887 5.17773V40.8216V86.8627C2.83887 89.6241 5.07744 91.8627 7.83887 91.8627H171C173.762 91.8627 176 89.6241 176 86.8627V79.575H156.129V79.5392C155.817 79.5629 155.501 79.575 155.183 79.575C148.389 79.575 142.882 74.0736 142.882 67.2873C142.882 60.501 148.389 54.9997 155.183 54.9997C155.501 54.9997 155.817 55.0117 156.129 55.0355V54.9997H176V5.17773C176 2.41631 173.762 0.177734 171 0.177734H7.83887ZM2.83887 40.8216H22.7098V40.7858C23.0221 40.8095 23.3377 40.8216 23.6561 40.8216C30.4498 40.8216 35.9571 35.3202 35.9571 28.5339C35.9571 21.7476 30.4498 16.2462 23.6561 16.2462C23.3377 16.2462 23.0221 16.2583 22.7098 16.282V16.2462H2.83887L2.83887 40.8216Z"/>
</mask>
<path fill-rule="evenodd" clip-rule="evenodd" d="M7.83887 0.177734C5.07744 0.177734 2.83887 2.4163 2.83887 5.17773V40.8216V86.8627C2.83887 89.6241 5.07744 91.8627 7.83887 91.8627H171C173.762 91.8627 176 89.6241 176 86.8627V79.575H156.129V79.5392C155.817 79.5629 155.501 79.575 155.183 79.575C148.389 79.575 142.882 74.0736 142.882 67.2873C142.882 60.501 148.389 54.9997 155.183 54.9997C155.501 54.9997 155.817 55.0117 156.129 55.0355V54.9997H176V5.17773C176 2.41631 173.762 0.177734 171 0.177734H7.83887ZM2.83887 40.8216H22.7098V40.7858C23.0221 40.8095 23.3377 40.8216 23.6561 40.8216C30.4498 40.8216 35.9571 35.3202 35.9571 28.5339C35.9571 21.7476 30.4498 16.2462 23.6561 16.2462C23.3377 16.2462 23.0221 16.2583 22.7098 16.282V16.2462H2.83887L2.83887 40.8216Z" fill="#F2F2F2" fill-opacity="0.5"/>
<path d="M176 79.575H178V77.575H176V79.575ZM156.129 79.575H154.129V81.575H156.129V79.575ZM156.129 79.5392H158.129V77.3815L155.978 77.5449L156.129 79.5392ZM156.129 55.0355L155.978 57.0297L158.129 57.1932V55.0355H156.129ZM156.129 54.9997V52.9997H154.129V54.9997H156.129ZM176 54.9997V56.9997H178V54.9997H176ZM22.7098 40.8216V42.8216H24.7098V40.8216H22.7098ZM22.7098 40.7858L22.8614 38.7915L20.7098 38.628V40.7858H22.7098ZM23.6561 40.8216L23.6561 38.8216H23.6561V40.8216ZM22.7098 16.282H20.7098V18.4398L22.8614 18.2763L22.7098 16.282ZM22.7098 16.2462H24.7098V14.2462H22.7098V16.2462ZM2.83887 16.2462V14.2462H0.83887L0.838869 16.2462L2.83887 16.2462ZM4.83887 5.17773C4.83887 3.52088 6.18201 2.17773 7.83887 2.17773V-1.82227C3.97288 -1.82227 0.838867 1.31173 0.838867 5.17773H4.83887ZM4.83887 40.8216V5.17773H0.838867V40.8216H4.83887ZM4.83887 86.8627V40.8216H0.838867V86.8627H4.83887ZM7.83887 89.8627C6.18201 89.8627 4.83887 88.5195 4.83887 86.8627H0.838867C0.838867 90.7287 3.97287 93.8627 7.83887 93.8627V89.8627ZM171 89.8627H7.83887V93.8627H171V89.8627ZM174 86.8627C174 88.5195 172.657 89.8627 171 89.8627V93.8627C174.866 93.8627 178 90.7287 178 86.8627H174ZM174 79.575V86.8627H178V79.575H174ZM156.129 81.575H176V77.575H156.129V81.575ZM154.129 79.5392V79.575H158.129V79.5392H154.129ZM155.183 81.575C155.552 81.575 155.918 81.561 156.281 81.5334L155.978 77.5449C155.716 77.5648 155.451 77.575 155.183 77.575V81.575ZM140.882 67.2873C140.882 75.1803 147.287 81.575 155.183 81.575V77.575C149.492 77.575 144.882 72.967 144.882 67.2873H140.882ZM155.183 52.9997C147.287 52.9997 140.882 59.3944 140.882 67.2873H144.882C144.882 61.6077 149.492 56.9997 155.183 56.9997V52.9997ZM156.281 53.0412C155.918 53.0137 155.552 52.9997 155.183 52.9997V56.9997C155.451 56.9997 155.716 57.0098 155.978 57.0297L156.281 53.0412ZM154.129 54.9997V55.0355H158.129V54.9997H154.129ZM176 52.9997H156.129V56.9997H176V52.9997ZM174 5.17773V54.9997H178V5.17773H174ZM171 2.17773C172.657 2.17773 174 3.52088 174 5.17773H178C178 1.31174 174.866 -1.82227 171 -1.82227V2.17773ZM7.83887 2.17773H171V-1.82227H7.83887V2.17773ZM2.83887 42.8216H22.7098V38.8216H2.83887V42.8216ZM24.7098 40.8216V40.7858H20.7098V40.8216H24.7098ZM22.5583 42.78C22.921 42.8076 23.2871 42.8216 23.6561 42.8216V38.8216C23.3883 38.8216 23.1233 38.8114 22.8614 38.7915L22.5583 42.78ZM23.6561 42.8216C31.5523 42.8216 37.9571 36.4268 37.9571 28.5339H33.9571C33.9571 34.2136 29.3473 38.8216 23.6561 38.8216L23.6561 42.8216ZM37.9571 28.5339C37.9571 20.641 31.5523 14.2462 23.6561 14.2462V18.2462C29.3473 18.2462 33.9571 22.8542 33.9571 28.5339H37.9571ZM23.6561 14.2462C23.2871 14.2462 22.921 14.2602 22.5583 14.2878L22.8614 18.2763C23.1233 18.2564 23.3883 18.2462 23.6561 18.2462V14.2462ZM24.7098 16.282V16.2462H20.7098V16.282H24.7098ZM22.7098 14.2462H2.83887V18.2462H22.7098V14.2462ZM0.838869 16.2462L0.838867 40.8216L4.83887 40.8216L4.83887 16.2462L0.838869 16.2462Z" fill="#F2F2F2" fill-opacity="0.5" mask="url(#path-6-inside-2)"/>
</mask>
<g mask="url(#mask0)">
<path opacity="0.3" d="M120.172 8.68457L38.3223 89.9722H71.9137L154.709 8.68457H120.172Z" fill="white"/>
<path opacity="0.3" d="M159.441 8.68457L77.1182 89.9722H82.3225L164.645 8.68457H159.441Z" fill="white"/>
</g>
<path opacity="0.5" fill-rule="evenodd" clip-rule="evenodd" d="M5.67784 91.8628H173.162L173.094 92.8793L173.162 92.8237L165.592 207.178H141.936L139.056 191.582H39.783L36.9035 207.178H13.2476L5.67773 92.8237L5.74538 92.8795L5.67784 91.8628Z" fill="#F2F2F2"/>
<mask id="mask1" mask-type="alpha" maskUnits="userSpaceOnUse" x="5" y="91" width="169" height="117">
<path opacity="0.5" fill-rule="evenodd" clip-rule="evenodd" d="M5.67773 91.8628H173.162L172.769 93.148L173.162 92.8238L165.592 207.178H141.936L138.358 187.801H40.481L36.9035 207.178H13.2476L5.67773 92.8238L5.82749 92.9473L5.67773 91.8628Z" fill="#F2F2F2"/>
</mask>
<g mask="url(#mask1)">
<path opacity="0.3" d="M79.957 95.7065L26.9678 203.334L59.1398 208.139L114.495 95.7065H79.957Z" fill="white"/>
<path opacity="0.3" d="M119.226 95.7065L63.3984 209.1H68.6027L124.431 95.7065H119.226Z" fill="white"/>
</g>
<path d="M20.8174 91.8628H26.4948V179.354C26.4948 180.922 25.2239 182.193 23.6561 182.193V182.193C22.0883 182.193 20.8174 180.922 20.8174 179.354V91.8628Z" fill="#333333"/>
<path d="M152.345 91.8628H158.022V179.354C158.022 180.922 156.751 182.193 155.183 182.193V182.193C153.616 182.193 152.345 180.922 152.345 179.354V91.8628Z" fill="#AD210C"/>
<path opacity="0.5" fill-rule="evenodd" clip-rule="evenodd" d="M139.097 191.645L141.936 207.178H165.592L173.162 92.8238L173.086 92.8861L173.162 91.8628H5.67773L5.78073 92.9087L5.67773 92.8238L13.2476 207.178H36.9035L39.8501 191.645H139.097ZM35.5921 203.334L38.5386 187.801H140.409L143.247 203.334H163.937L170.851 98.8791L170.722 98.9858L170.964 95.7066H7.98618L8.32602 99.1579L7.98808 98.879L14.9027 203.334H35.5921Z" fill="#F2F2F2"/>
<path opacity="0.5" d="M49.0229 179.767H130.839L140.043 185.438H38.7959L49.0229 179.767Z" fill="#F2F2F2" fill-opacity="0.5"/>
<path opacity="0.3" d="M14.1943 195.646H38.7965L37.3771 203.334H15.1406L14.1943 195.646Z" fill="#F2F2F2" fill-opacity="0.5"/>
<path opacity="0.3" d="M164.646 195.646H140.043L141.463 203.334H163.699L164.646 195.646Z" fill="#F2F2F2" fill-opacity="0.5"/>
<path fill-rule="evenodd" clip-rule="evenodd" d="M26.4945 65.397H20.8171V73.5089C18.0429 74.6318 16.0859 77.3516 16.0859 80.5285V89.9723H31.2257V80.5285C31.2257 77.3516 29.2687 74.6318 26.4945 73.5089V65.397Z" fill="#444444"/>
<path opacity="0.5" fill-rule="evenodd" clip-rule="evenodd" d="M26.495 65.397H24.6025V73.848C24.6025 73.8481 24.6025 73.8481 24.6025 73.8481V73.9038H24.6649C24.8051 74.0292 24.944 74.1519 25.0812 74.2732C26.8871 75.8687 28.3875 77.1944 28.3875 80.5203V89.9723H31.2262V80.5203C31.2262 77.3469 29.2692 74.63 26.495 73.5083V65.397Z" fill="#111111"/>
<path opacity="0.2" fill-rule="evenodd" clip-rule="evenodd" d="M21.7637 65.397H22.71V73.9038H22.7073C22.7082 73.9038 22.7091 73.9038 22.71 73.9038C22.1991 74.4141 21.7324 74.8179 21.3145 75.1793C19.7975 76.4914 18.925 77.2461 18.925 80.5204V89.9725H17.0326V80.5204C17.0326 77.347 18.9895 74.6302 21.7637 73.5085V65.397Z" fill="#999999"/>
<path fill-rule="evenodd" clip-rule="evenodd" d="M158.022 65.397H152.344V73.5089C149.57 74.6318 147.613 77.3516 147.613 80.5285V89.9723H162.753V80.5285C162.753 77.3516 160.796 74.6318 158.022 73.5089V65.397Z" fill="#AD210C"/>
<path opacity="0.5" fill-rule="evenodd" clip-rule="evenodd" d="M158.022 65.397H156.13V73.848C156.13 73.8481 156.13 73.8481 156.13 73.8481V73.9038H156.192C156.332 74.0292 156.471 74.1519 156.609 74.2732C158.414 75.8687 159.915 77.1944 159.915 80.5203V89.9723H162.754V80.5203C162.754 77.3469 160.797 74.63 158.022 73.5083V65.397Z" fill="#541005"/>
<path opacity="0.5" fill-rule="evenodd" clip-rule="evenodd" d="M153.291 65.397H154.237V73.9038H154.235C154.236 73.9038 154.236 73.9038 154.237 73.9038C153.726 74.4141 153.26 74.8179 152.842 75.1793C151.325 76.4914 150.452 77.2461 150.452 80.5204V89.9725H148.56V80.5204C148.56 77.347 150.517 74.6302 153.291 73.5085V65.397Z" fill="#C48686"/>
<path opacity="0.6" fill-rule="evenodd" clip-rule="evenodd" d="M10 110.178H169L166.736 169.178H168.62L163.699 203.205H142.882L136.004 184.178H42.8392L35.9573 203.205H15.1401L10.5981 172.013L12.3761 172.107L10 110.178Z" fill="#4FB7F2"/>
<path d="M0 91.647C0 90.5424 0.895431 89.647 2 89.647H174C175.105 89.647 176 90.5424 176 91.647V99.8217C176 105.345 171.523 109.822 166 109.822H10C4.47715 109.822 0 105.345 0 99.8217V91.647Z" fill="#F2F2F2" fill-opacity="0.5"/>
<path d="M2 90.647H174C174.552 90.647 175 91.0947 175 91.647V99.8217C175 104.792 170.971 108.822 166 108.822H10C5.02944 108.822 1 104.792 1 99.8217V91.647C1 91.0947 1.44772 90.647 2 90.647Z" stroke="#F2F2F2" stroke-opacity="0.5" stroke-width="2"/>
</svg>
