<svg xmlns="http://www.w3.org/2000/svg" width="187" height="100" fill="none" viewBox="0 0 187 100">
    <path fill="#868CA6" d="M152.041 85.58c-.889 0-2.246-.326-2.994-.559-.749-.233-1.357-2.935-1.357-2.935-1.965-7.64-4.624-18.882-4.684-25.66-.012-1.342 0-27.426 0-27.426H161.057v27.427c0 7-3.122 18.02-5.087 25.66 0 0-.608 2.701-1.357 2.934-.748.233-2.105.56-2.993.56"/>
    <path fill="#C0C3D2" d="M151.986 84.641c-.795 0-2.011-.28-2.666-.512-.655-.187-1.217-2.656-1.217-2.656-1.777-6.848-3.58-16.945-4.095-22.954V30.426h16.046s.281 24.925 0 28.093c-.514 6.01-2.735 16.06-4.513 22.908 0 0-.561 2.422-1.216 2.655-.655.187-1.871.513-2.666.513" opacity=".7"/>
    <path fill="#868CA6" d="M141 29h23.066v2H141z"/>
    <path fill="#fff" d="M143.006 37.427h18.051v16h-18.051z"/>
    <path fill="#000" fill-opacity=".1" d="M156.043 31h5.014v26.509c0 2.946-2.006 12.273-2.006 12.273s-3.792 14.512-4.011 14.727c-.219.215-3.009.49-3.009.49l4.012-27.49V31z"/>
    <path fill="#868CA6" d="M138.994 26h26.074v2h-26.074z"/>
    <path fill="#577898" d="M144.008 28h16.046v1h-16.046z"/>
    <path fill="#868CA6" fill-rule="evenodd" d="M167.749 27.123c.251.422.328.903.328 1.377s-.077.955-.328 1.377a2.05 2.05 0 0 1-1.075.872c-.391.146-.822.2-1.23.226-.407.025-.872.025-1.356.025h-.023v-2c.512 0 .916 0 1.254-.021.344-.022.54-.061.651-.103a.405.405 0 0 0 .05-.022l.007-.004a1.332 1.332 0 0 0 .044-.35c0-.134-.011-.224-.024-.282a.326.326 0 0 0-.02-.068l-.007-.004a.402.402 0 0 0-.05-.022c-.111-.042-.307-.081-.651-.102a21.545 21.545 0 0 0-1.254-.022v-2h.023c.484 0 .949 0 1.356.025.408.026.839.08 1.23.226a2.05 2.05 0 0 1 1.075.872z" clip-rule="evenodd"/>
    <path fill="#333" d="M146.155 50h1.332v-2.744l1.82-1.918L152.296 50h1.554l-3.625-5.628 3.581-3.892h-1.643l-4.676 5.054V40.48h-1.332V50z"/>
    <path fill="#333" d="M155.62 48.258h1.155v-2.052h2.048v-1.064h-2.048V43.09h-1.155v2.052h-2.048v1.064h2.048v2.052z"/>
    <path fill="#868CA6" d="M35.04 85.58c-.888 0-2.245-.326-2.993-.559-.749-.233-1.357-2.935-1.357-2.935-1.964-7.64-4.624-18.882-4.684-25.66-.012-1.342 0-27.426 0-27.426H44.057v27.427c0 7-3.122 18.02-5.087 25.66 0 0-.608 2.701-1.356 2.934-.749.233-2.105.56-2.994.56"/>
    <path fill="#C0C3D2" d="M34.986 84.641c-.795 0-2.011-.28-2.666-.512-.655-.187-1.216-2.656-1.216-2.656-1.778-6.848-3.58-16.945-4.095-22.954V30.426h16.045s.28 24.925 0 28.093c-.514 6.01-2.735 16.06-4.513 22.908 0 0-.561 2.422-1.216 2.655-.655.187-1.871.513-2.666.513" opacity=".7"/>
    <path fill="#868CA6" d="M24 29h23.066v2H24z"/>
    <path fill="#fff" d="M26.006 37.427h18.051v16H26.006z"/>
    <path fill="#000" fill-opacity=".1" d="M39.043 31h5.014v26.509c0 2.946-2.006 12.273-2.006 12.273S38.26 84.294 38.04 84.509c-.22.215-3.008.49-3.008.49l4.01-27.49V31z"/>
    <path fill="#868CA6" d="M21.994 26h26.074v2H21.994z"/>
    <path fill="#577898" d="M27.009 28h16.046v1H27.009z"/>
    <path fill="#868CA6" fill-rule="evenodd" d="M50.749 27.123c.25.422.328.903.328 1.377s-.077.955-.328 1.377c-.265.446-.658.716-1.075.872-.39.146-.822.2-1.23.226-.407.025-.872.025-1.356.025h-.022v-2c.51 0 .915 0 1.253-.021.344-.022.54-.061.65-.103a.394.394 0 0 0 .051-.022l.007-.004a1.353 1.353 0 0 0 .044-.35c0-.134-.011-.224-.024-.282a.42.42 0 0 0-.02-.068.39.39 0 0 0-.057-.026c-.11-.042-.307-.081-.65-.103A21.551 21.551 0 0 0 47.065 28v-2h.022c.484 0 .949 0 1.356.025.408.026.84.08 1.23.226.417.156.81.426 1.075.872z" clip-rule="evenodd"/>
    <path fill="#333" d="M29.155 50h1.332v-2.744l1.82-1.918L35.297 50h1.553l-3.625-5.628 3.581-3.892h-1.643l-4.676 5.054V40.48h-1.332V50z"/>
    <path fill="#333" d="M39.79 46.206h2.034v-1.064h-5.252v1.064h3.218z"/>
    <path fill="#868CA6" d="M67.04 85.58c-.888 0-2.245-.326-2.993-.559-.749-.233-1.357-2.935-1.357-2.935-1.964-7.64-4.624-18.882-4.684-25.66-.012-1.342 0-27.426 0-27.426H76.057v27.427c0 7-3.122 18.02-5.087 25.66 0 0-.608 2.701-1.356 2.934-.749.233-2.106.56-2.994.56"/>
    <path fill="#C0C3D2" d="M66.986 84.641c-.795 0-2.011-.28-2.666-.512-.655-.187-1.216-2.656-1.216-2.656-1.778-6.848-3.581-16.945-4.096-22.954V30.426h16.046s.28 24.925 0 28.093c-.514 6.01-2.735 16.06-4.513 22.908 0 0-.561 2.422-1.216 2.655-.655.187-1.871.513-2.666.513" opacity=".7"/>
    <path fill="#868CA6" d="M56 29h23.066v2H56z"/>
    <path fill="#fff" d="M58.006 37.427h18.051v16H58.006z"/>
    <path fill="#000" fill-opacity=".1" d="M71.043 31h5.014v26.509c0 2.946-2.006 12.273-2.006 12.273S70.26 84.294 70.04 84.509c-.22.215-3.009.49-3.009.49l4.012-27.49V31z"/>
    <path fill="#868CA6" d="M53.994 26h26.074v2H53.994z"/>
    <path fill="#577898" d="M59.008 28h16.046v1H59.008z"/>
    <path fill="#868CA6" fill-rule="evenodd" d="M82.749 27.123c.25.422.328.903.328 1.377s-.077.955-.328 1.377c-.265.446-.658.716-1.075.872-.39.146-.822.2-1.23.226-.407.025-.872.025-1.356.025h-.022v-2c.51 0 .915 0 1.253-.021.344-.022.54-.061.65-.103a.39.39 0 0 0 .051-.022l.007-.004.004-.009a.405.405 0 0 0 .016-.059c.013-.058.024-.148.024-.282a1.35 1.35 0 0 0-.024-.282.407.407 0 0 0-.02-.068.388.388 0 0 0-.057-.026c-.11-.042-.307-.081-.65-.103A21.553 21.553 0 0 0 79.065 28v-2h.022c.484 0 .949 0 1.356.025.408.026.84.08 1.23.226.417.156.81.426 1.075.872z" clip-rule="evenodd"/>
    <path fill="#000" d="M60.171 49.52h1.376l.918-2.436h4.055l.917 2.436h1.421L65.188 40H63.84l-3.67 9.52zm2.723-3.584l1.598-4.326 1.599 4.326h-3.197zM71.135 47.778h1.155v-2.052h2.048v-1.064H72.29V42.61h-1.155v2.052h-2.048v1.064h2.048v2.052z"/>
    <path fill="#868CA6" d="M118.041 85.58c-.889 0-2.246-.326-2.994-.559-.749-.233-1.357-2.935-1.357-2.935-1.964-7.64-4.624-18.882-4.684-25.66-.012-1.342 0-27.426 0-27.426H127.057v27.427c0 7-3.122 18.02-5.087 25.66 0 0-.608 2.701-1.357 2.934-.748.233-2.105.56-2.993.56"/>
    <path fill="#C0C3D2" d="M117.986 84.641c-.795 0-2.011-.28-2.666-.512-.655-.187-1.216-2.656-1.216-2.656-1.778-6.848-3.581-16.945-4.096-22.954V30.426h16.046s.281 24.925 0 28.093c-.514 6.01-2.735 16.06-4.513 22.908 0 0-.561 2.422-1.216 2.655-.655.187-1.871.513-2.666.513" opacity=".7"/>
    <path fill="#868CA6" d="M107 29h23.066v2H107z"/>
    <path fill="#fff" d="M109.006 37.427h18.051v16h-18.051z"/>
    <path fill="#000" fill-opacity=".1" d="M122.043 31h5.014v26.509c0 2.946-2.006 12.273-2.006 12.273s-3.792 14.512-4.011 14.727c-.219.215-3.009.49-3.009.49l4.012-27.49V31z"/>
    <path fill="#868CA6" d="M104.994 26h26.074v2h-26.074z"/>
    <path fill="#577898" d="M110.008 28h16.046v1h-16.046z"/>
    <path fill="#868CA6" fill-rule="evenodd" d="M133.749 27.123c.251.422.328.903.328 1.377s-.077.955-.328 1.377c-.265.446-.658.716-1.075.872-.391.146-.822.2-1.23.226-.407.025-.872.025-1.356.025h-.022v-2c.511 0 .915 0 1.253-.021.344-.022.54-.061.651-.103a.405.405 0 0 0 .05-.022l.007-.004a1.332 1.332 0 0 0 .044-.35c0-.134-.011-.224-.024-.282a.326.326 0 0 0-.02-.068l-.007-.004a.402.402 0 0 0-.05-.022c-.111-.042-.307-.081-.651-.102a21.526 21.526 0 0 0-1.253-.022v-2h.022c.484 0 .949 0 1.356.025.408.026.839.08 1.23.226.417.156.81.426 1.075.872z" clip-rule="evenodd"/>
    <path fill="#000" d="M111.228 49.52h1.376l.918-2.436h4.055l.917 2.436h1.421l-3.67-9.52h-1.347l-3.67 9.52zm2.723-3.584l1.598-4.326 1.599 4.326h-3.197zM123.193 45.726h2.203v-1.064h-5.252v1.064h3.049z"/>
    <path fill="#B2B2B2" d="M5.244 97.486V58.67l1.228-1.403h56.461S38.876 58.67 28.565 58.67c-10.31 0-15.547 25.877-17.183 38.816H5.244zM181.755 97.486V58.67l-1.227-1.403h-56.461s24.057 1.403 34.367 1.403c10.311 0 15.548 25.877 17.184 38.816h6.137z"/>
    <path fill="#fff" d="M90 16.522a4.5 4.5 0 0 1 9 0v39.74h-9v-39.74z"/>
    <path fill="#fff" d="M0 57.257a2 2 0 0 1 2-2h183a2 2 0 0 1 2 2v1.016H0v-1.016z"/>
    <path fill="#B2B2B2" fill-rule="evenodd" d="M187 58.273H0l2.77 2.011H26V59h18v1.284h14V59h18v1.284h33V59h18v1.284h16V59h18v1.284h23.229l2.771-2.01z" clip-rule="evenodd"/>
    <path fill="#fff" d="M0 100V58.273l1.311-1.508h60.311s-25.698 1.508-36.71 1.508C13.897 58.273 8.303 86.091 6.555 100H0zM187 100V58.273l-1.311-1.508h-60.311s25.697 1.508 36.711 1.508c11.013 0 16.607 27.818 18.355 41.727H187z"/>
</svg>
