<svg xmlns="http://www.w3.org/2000/svg" width="37" height="87" fill="none" viewBox="0 0 37 87">
    <path fill="#C5C5CF" d="M23.323 28.278s2.333 0 2.892-.605c.56-.56.887-2.003.887-2.003l.746.558s-.42 1.77-1.353 2.283c-.98.513-2.659.42-2.659.42l-.513-.653z"/>
    <path fill="#C5C5CF" d="M24.161 30.421h-.653l.233-3.307c.793.046 1.633-.047 1.866-.187.14-.14.42-.838.466-1.304l3.312.559c-.093.559-.513 2.469-1.772 3.4-.98.7-2.52.84-3.452.84zM11.01 85.58c-.887 0-2.24-.325-2.986-.558-.746-.233-1.353-2.935-1.353-2.935-1.959-7.64-3.125-18.775-3.731-25.437-.327-3.54-.467-28.838-.467-28.838H19.126s-.14 25.297-.467 28.838c-.606 6.662-1.772 17.796-3.732 25.437 0 0-.606 2.702-1.352 2.935-.747.233-2.1.559-2.986.559"/>
    <path fill="#3A190E" d="M11.008 86h-.326c-1.493-.093-3.172-.606-3.359-.652-1.073-.326-2.612-1.212-3.451-5.078-1.726-6.662-2.8-16.352-3.406-23.34C.14 53.715 0 33.076 0 30.746v-5.544h21.69v3.355c0 2.562-.14 25.11-.42 28.371-.606 6.989-1.726 16.679-3.451 23.434-.84 3.773-2.38 4.659-3.452 4.985-.234.093-1.866.559-3.359.652zm-.513-6.709c.14 0 .233.047.327.047.093 0 .233-.047.326-.047.047-.186.094-.326.14-.465 1.306-5.078 2.426-12.812 3.265-22.409.187-2.003.327-14.675.373-24.458H6.67c.047 6.988.187 22.082.373 24.458.607 6.709 1.633 16.026 3.266 22.315.093.14.14.373.186.56z" opacity=".2"/>
    <path fill="#B5BFD8" d="M11.007 82.692c-.793 0-2.006-.28-2.659-.512-.653-.186-1.213-2.656-1.213-2.656C5.363 72.677 4.29 62.66 3.777 56.65c-.28-3.214-.42-25.949-.42-25.949v-2.19H18.33s-.14 24.925-.42 28.093c-.513 6.01-1.585 16.026-3.358 22.874 0 0-.56 2.422-1.213 2.655-.653.187-1.866.513-2.659.513" opacity=".7"/>
    <path fill="#0D48B6" d="M11.008 82.692c-.793 0-2.006-.28-2.659-.512-.653-.186-1.212-2.656-1.212-2.656C5.364 72.677 4.29 62.66 3.778 56.65h14.134c-.513 6.01-1.586 16.026-3.359 22.875 0 0-.56 2.422-1.213 2.655-.653.186-1.865.512-2.658.512"/>
    <path fill="#3A190E" d="M14.601 27.812h4.525s-.14 25.018-.42 28.419c-.56 6.336-1.866 18.635-3.778 25.902 0 0-.653 2.702-1.353 2.935-.7.233-2.145.56-2.985.56 0 0 5.364-12.672 4.105-57.024" opacity=".2"/>
    <path fill="#A15124" d="M8.303 82.18s2.38-1.072 4.991 0c.047 0-2.192 1.165-4.99 0z" opacity=".4"/>
    <path fill="#9CDAF7" d="M18.284 56.65h-.514v.326h.514v-.326z"/>
    <path d="M24.346 4.74h9.516v15.541h-9.516zM32.406 2.392h2.687v1.565h-2.687z"/>
    <path fill="#C5C5CF" d="M36.895.512l-8.863 26.183-1.54-.56L35.356 0l1.54.512zM20.29 29.49h-1.166v1.49h1.166v-1.49z"/>
    <path fill="#A15124" d="M18.473 26.275H3.126v6.662h15.347v-6.662z" opacity=".2"/>
    <path fill="#C5C5CF" d="M24.07 28.977s-.56.42-1.82.466c-.933.047-1.726.093-2.099.14H.84v-1.957H20.15l2.052-.046c0 .046 1.353-.14 1.866 1.397z"/>
    <path fill="#A15124" d="M6.997 29.583H4.292v1.351h2.705v-1.351zM12.221 29.583H9.516v1.351h2.705v-1.351zM16.98 29.583h-2.705v1.351h2.706v-1.351z" opacity=".2"/>
    <path fill="#C5C5CF" d="M6.532 29.583H3.827v1.165h2.705v-1.165zM11.802 29.583H9.097v1.165h2.705v-1.165zM16.51 29.583h-2.705v1.165h2.706v-1.165z"/>
    <path fill="#C5C5CF" d="M22.203 27.626s1.353-.186 1.866 1.351c0 0-.56.42-1.819.466-.933.047-1.726.093-2.099.14H.84s19.777-.466 21.363-1.957z"/>
    <path fill="#E8E8EA" d="M10.777 27.626H8.77v1.957h2.006v-1.957z" opacity=".7"/>
    <path fill="#E8E8EA" d="M18.564 42.907s-.373-.746-.373-.047c-.046 2.842-.093 5.637-.14 9.504-.046 3.354-.466 11.367-2.705 23.76 0 0 .187.326.373.046 0 0 1.446-7.873 2.24-15.886.092-.792.372-4.24.419-5.032.047-.792.093-4.938.14-5.777 0-.885.093-5.031.046-6.568z" opacity=".5"/>
    <path d="M24.346 6.417h8.396v13.864h-8.396z"/>
    <path fill="#E8E8EA" d="M28.547 4.321l-5.088 13.965 3.156 1.147 5.088-13.965-3.156-1.147z" opacity=".7"/>
    <path fill="#C5C5CF" d="M26.493 26.136L35.355 0l.84.28-8.816 26.182-.886-.326z"/>
    <path fill="#fff" d="M13.806 33.776H7.089v.699h6.717v-.7zM13.806 45.609H7.089v.699h6.717v-.7zM13.806 58.28H7.089v.7h6.717v-.7zM13.806 74.493H7.089v.699h6.717v-.699z" opacity=".2"/>
    <g opacity=".2">
        <path fill="#fff" d="M8.956 37.364v-1.398h-.56v-.326h.233c.094 0 .14-.047.187-.093l.14-.14c.047-.046.047-.14.093-.186h.327v2.143h-.42zM10.589 36.897v.466c0 .047 0 .14-.047.187-.046.046-.046.093-.093.14-.047.046-.093.092-.14.092-.047.047-.14.047-.187.047v-.233c.047 0 .047 0 .094-.046.046 0 .046-.047.093-.047 0-.047.047-.047.047-.093v-.093h-.234v-.466h.467v.046zM11.429 35.546l-.094.513c.047-.047.14-.093.187-.14.046 0 .14-.047.233-.047s.187 0 .28.047c.093.047.14.093.187.14.046.046.093.14.14.233a.59.59 0 0 1 .046.28c0 .092 0 .232-.046.325-.047.093-.094.187-.187.233-.093.093-.14.14-.233.186-.094.047-.187.047-.327.047-.093 0-.186 0-.28-.047-.093-.046-.186-.093-.233-.14-.093-.046-.14-.139-.187-.232-.046-.093-.046-.187-.093-.28h.42c0 .093.047.187.093.233.047.047.14.093.233.093.047 0 .094 0 .14-.046.047-.047.094-.047.14-.093.047-.047.047-.093.094-.14 0-.047.046-.093.046-.14 0-.046 0-.093-.046-.14 0-.046-.047-.093-.094-.14-.046-.046-.093-.046-.14-.093-.046 0-.093-.046-.14-.046-.093 0-.14 0-.186.046l-.14.14h-.373l.233-1.211h1.213v.373h-.886v.046z" opacity=".2"/>
    </g>
    <g opacity=".2">
        <path fill="#fff" d="M8.956 49.196v-1.398h-.56v-.326h.233c.094 0 .14-.046.187-.093l.14-.14c.047-.046.047-.14.093-.186h.327v2.143h-.42zM10.59 48.73v.466c0 .047 0 .14-.047.187-.047.046-.047.093-.093.14-.047.046-.094.092-.14.092-.047.047-.14.047-.187.047v-.233c.047 0 .047 0 .093-.047.047 0 .047-.046.094-.046 0-.047.046-.047.046-.093v-.093h-.233v-.466h.466v.046zM10.868 47.612c.047-.14.093-.28.187-.326.093-.093.14-.14.233-.187.093-.046.187-.046.326-.046.094 0 .234 0 .327.047.093.046.187.093.233.186a.75.75 0 0 1 .187.326c.046.14.046.326.046.512 0 .233 0 .42-.046.56-.047.14-.093.279-.187.326a.819.819 0 0 1-.233.186c-.093.047-.187.047-.327.047-.093 0-.186 0-.326-.047-.093-.047-.187-.093-.233-.186a.75.75 0 0 1-.187-.326c-.046-.14-.046-.327-.046-.56 0-.233 0-.372.046-.512zm.373.745c0 .094 0 .187.047.233.047.047.047.14.093.187.047.046.094.093.187.093s.14-.047.187-.093a.354.354 0 0 0 .093-.187c0-.046.046-.186.046-.233v-.233-.14-.186c0-.046 0-.093-.046-.186 0-.047-.047-.093-.047-.14-.046-.046-.046-.093-.093-.093-.047-.046-.094-.046-.14-.046-.047 0-.093 0-.14.046-.047.047-.093.047-.093.093-.047.047-.047.093-.047.14 0 .047-.047.093-.047.186v.559z" opacity=".2"/>
    </g>
    <g opacity=".2">
        <path fill="#fff" d="M8.301 76.403c.047-.14.094-.28.187-.326a.817.817 0 0 1 .233-.186c.094-.047.187-.047.327-.047.093 0 .233 0 .326.047.094.046.187.093.233.186.094.093.14.187.187.326.047.14.047.326.047.513 0 .233 0 .42-.047.559-.047.14-.093.28-.187.326a.819.819 0 0 1-.233.186c-.093.047-.186.047-.326.047-.094 0-.187 0-.327-.047-.093-.046-.186-.093-.233-.186a.75.75 0 0 1-.187-.326c-.046-.14-.046-.326-.046-.56 0-.186 0-.372.046-.512zm.374.746c0 .093 0 .186.046.233 0 .093.047.14.094.186.046.047.093.093.186.093s.14-.046.187-.093a.353.353 0 0 0 .093-.186c0-.094.047-.187.047-.233v-.233-.14-.186c0-.047 0-.094-.047-.187 0-.046-.047-.093-.047-.14-.046-.046-.046-.093-.093-.093-.047-.046-.093-.046-.14-.046-.047 0-.093 0-.14.046-.046.047-.093.047-.093.094-.047.046-.047.093-.047.14 0 .046-.046.093-.046.186v.559zM10.589 77.521v.466c0 .047 0 .14-.047.187-.047.046-.047.093-.093.14-.047.046-.094.092-.14.092-.047.047-.14.047-.187.047v-.233c.047 0 .047 0 .094-.046.046 0 .046-.047.093-.047 0-.047.046-.047.046-.093v-.094h-.233v-.465h.467v.046zM11.52 78.034v-1.398h-.56v-.326h.233c.093 0 .14-.047.187-.093l.14-.14c.046-.046.046-.14.093-.186h.326v2.143h-.42z" opacity=".2"/>
    </g>
    <path fill="#0D48B6" d="M11.008 82.692c-.793 0-2.005-.28-2.658-.512-.653-.187-1.213-2.656-1.213-2.656C6.3 76 6 74.5 5.3 70h11.1c-.9 5.5-1.2 7-1.847 9.524 0 0-.56 2.423-1.212 2.656-.653.186-1.866.512-2.66.512"/>
</svg>
