<svg xmlns="http://www.w3.org/2000/svg" width="37" height="87" fill="none" viewBox="0 0 37 87">
    <path fill="#C5C5CF" d="M26.038 27.611a.612.612 0 0 1-.858.255l-2.306-1.356c.397-.693.688-1.49.667-1.762-.063-.189-.567-.753-.965-1.003l.804-1.107c.652-.897 1.94-1.111 2.619-.235.381.493.713 1.083.828 1.728.19 1.193-.372 2.64-.789 3.48zM13.07 83.579c-.89 0-2.25-.328-3-.562-.749-.234-1.358-2.949-1.358-2.949-1.968-7.676-3.14-18.862-3.75-25.555-.327-3.558-.468-28.973-.468-28.973h16.73s-.14 25.415-.468 28.973c-.61 6.693-1.781 17.88-3.75 25.555 0 0-.608 2.715-1.358 2.95-.75.233-2.11.56-3 .56"/>
    <path fill="#3A190E" d="M13.07 84h-.329c-1.5-.094-3.187-.609-3.374-.655-1.078-.328-2.624-1.217-3.468-5.102-1.734-6.693-2.812-16.429-3.421-23.45-.328-3.23-.469-23.964-.469-26.304v-5.57h21.792v3.37c0 2.574-.14 25.228-.422 28.504-.609 7.021-1.734 16.757-3.468 23.544-.843 3.79-2.39 4.68-3.468 5.008-.234.093-1.874.561-3.374.655zm-.516-6.74c.14 0 .234.047.328.047s.234-.047.328-.047c.047-.187.093-.328.14-.468 1.313-5.102 2.437-12.872 3.28-22.514.188-2.012.329-14.743.376-24.572H8.71c.047 7.02.187 22.185.375 24.573.609 6.74 1.64 16.1 3.28 22.42.094.14.14.374.188.561z" opacity=".2"/>
    <path fill="#B5BFD8" d="M13.068 80.677c-.797 0-2.015-.281-2.671-.515-.656-.187-1.219-2.668-1.219-2.668-1.78-6.88-2.858-16.944-3.374-22.981-.281-3.23-.422-26.071-.422-26.071v-2.2h15.043s-.14 25.041-.421 28.224c-.516 6.038-1.594 16.1-3.374 22.981 0 0-.563 2.434-1.219 2.668-.656.187-1.874.515-2.671.515" opacity=".7"/>
    <path fill="#0D48B6" d="M13.07 80.677c-.797 0-2.016-.281-2.672-.515-.656-.187-1.219-2.668-1.219-2.668-1.78-6.88-2.858-16.944-3.374-22.982h14.2c-.515 6.038-1.593 16.102-3.374 22.982 0 0-.563 2.434-1.219 2.668-.656.187-1.874.515-2.67.515"/>
    <path fill="#0D48B6" d="M13.07 80.677c-.797 0-2.016-.281-2.672-.515-.656-.187-1.218-2.668-1.218-2.668-.841-3.54-1.143-5.048-1.846-9.569h11.152c-.904 5.526-1.206 7.033-1.855 9.57 0 0-.563 2.433-1.219 2.667-.656.187-1.874.515-2.67.515"/>
    <path fill="#3A190E" d="M16.68 25.54h4.545s-.14 25.135-.422 28.551c-.562 6.366-1.875 18.723-3.796 26.024 0 0-.656 2.715-1.359 2.949-.703.234-2.156.562-3 .562 0 0 5.39-12.732 4.125-57.29" opacity=".2"/>
    <path fill="#A15124" d="M10.352 80.162s2.39-1.077 5.014 0c.047 0-2.203 1.17-5.014 0z" opacity=".4"/>
    <path fill="#9CDAF7" d="M20.378 54.512h-.515v.328h.515v-.328z"/>
    <path d="M26.469 2.359h9.56v15.614h-9.56zM34.567 0h2.699v1.573h-2.699z"/>
    <path fill="#C5C5CF" d="M22.395 27.225h-1.172v1.497h1.172v-1.497z"/>
    <path fill="#A15124" d="M20.568 23.995H5.15v6.693h15.418v-6.693z" opacity=".2"/>
    <path fill="#C5C5CF" d="M26.191 26.71s-.562.421-1.827.468c-.938.047-1.734.094-2.11.14H2.854v-1.965h19.402l2.062-.047c0 .047 1.359-.14 1.874 1.404z"/>
    <path fill="#A15124" d="M9.04 27.319H6.322v1.357H9.04V27.32zM14.288 27.319H11.57v1.357h2.718V27.32zM19.07 27.319H16.35v1.357h2.718V27.32z" opacity=".2"/>
    <path fill="#C5C5CF" d="M8.572 27.319H5.854v1.17h2.718v-1.17zM13.867 27.319h-2.718v1.17h2.718v-1.17zM18.598 27.319H15.88v1.17h2.718v-1.17zM24.317 25.353s1.359-.188 1.874 1.357c0 0-.562.421-1.827.468-.938.047-1.734.094-2.11.14H2.854s19.87-.468 21.464-1.965z"/>
    <path fill="#E8E8EA" d="M12.836 25.352h-2.015v1.966h2.015v-1.966z" opacity=".7"/>
    <path fill="#E8E8EA" d="M20.66 40.705s-.374-.75-.374-.047c-.047 2.855-.094 5.663-.14 9.548-.048 3.37-.47 11.42-2.719 23.871 0 0 .188.328.375.047 0 0 1.453-7.91 2.25-15.96.093-.796.374-4.26.421-5.056.047-.795.094-4.961.14-5.804 0-.889.095-5.055.048-6.6z" opacity=".5"/>
    <g opacity=".2">
        <path fill="#fff" d="M11.007 35.136v-1.404h-.562v-.328h.234c.094 0 .14-.047.188-.094l.14-.14c.047-.047.047-.14.094-.187h.328v2.153h-.422zM12.648 34.667v.468c0 .047 0 .14-.047.187-.047.047-.047.094-.094.14-.047.048-.094.094-.14.094-.047.047-.141.047-.188.047v-.234c.047 0 .047 0 .094-.047.047 0 .047-.046.094-.046 0-.047.046-.047.046-.094v-.094h-.234v-.468h.469v.047zM13.492 33.31l-.094.515c.047-.047.14-.094.187-.14.047 0 .14-.048.234-.048s.188 0 .282.047c.093.047.14.094.187.14.047.047.094.141.14.235a.593.593 0 0 1 .048.28c0 .094 0 .235-.047.328-.047.094-.094.187-.188.234-.093.094-.14.14-.234.187-.094.047-.188.047-.328.047-.094 0-.188 0-.281-.047a1.022 1.022 0 0 1-.235-.14c-.093-.047-.14-.14-.187-.234-.047-.094-.047-.187-.094-.28h.422c0 .093.047.186.094.233.047.047.14.094.234.094.047 0 .094 0 .14-.047.047-.047.094-.047.141-.094.047-.046.047-.093.094-.14 0-.047.047-.094.047-.14 0-.047 0-.094-.047-.14 0-.048-.047-.095-.094-.141-.047-.047-.094-.047-.14-.094-.047 0-.094-.047-.141-.047-.094 0-.14 0-.187.047l-.141.14h-.375l.234-1.216h1.219v.374h-.89v.047z" opacity=".2"/>
    </g>
    <g opacity=".2">
        <path fill="#fff" d="M11.007 47.023V45.62h-.562v-.328h.234c.094 0 .14-.046.188-.093l.14-.14c.047-.047.047-.14.094-.188h.328v2.153h-.422zM12.649 46.555v.468c0 .047 0 .14-.047.188-.047.046-.047.093-.094.14-.047.047-.094.094-.14.094-.048.047-.141.047-.188.047v-.235c.047 0 .047 0 .094-.046.046 0 .046-.047.093-.047 0-.047.047-.047.047-.094v-.093h-.234v-.468h.469v.046zM12.928 45.432c.047-.14.094-.28.188-.328.094-.093.14-.14.234-.187.094-.047.188-.047.328-.047.094 0 .235 0 .328.047.094.047.188.094.235.187.093.094.14.188.187.328.047.14.047.328.047.515 0 .234 0 .421-.047.561-.047.14-.094.281-.187.328-.094.094-.14.14-.235.187-.093.047-.187.047-.328.047-.093 0-.187 0-.328-.047-.093-.047-.187-.093-.234-.187a.754.754 0 0 1-.188-.328c-.046-.14-.046-.327-.046-.561 0-.234 0-.375.046-.515zm.375.749c0 .094 0 .187.047.234.047.047.047.14.094.187.047.047.094.094.187.094.094 0 .141-.047.188-.094a.354.354 0 0 0 .094-.187c0-.047.046-.187.046-.234v-.234-.14-.188c0-.047 0-.093-.046-.187 0-.047-.047-.094-.047-.14-.047-.047-.047-.094-.094-.094-.047-.047-.094-.047-.14-.047-.047 0-.094 0-.141.047-.047.047-.094.047-.094.093-.047.047-.047.094-.047.141 0 .047-.047.094-.047.187v.562z" opacity=".2"/>
    </g>
    <path fill="#BFC0CF" d="M0 22.714h26.122v2.009H0z"/>
</svg>
