<svg xmlns="http://www.w3.org/2000/svg" width="100" height="109" fill="none" viewBox="0 0 100 109">
    <g filter="url(#a)">
        <path fill="#C5C5CF" d="M62.916 39.874a.609.609 0 0 1-.853.254l-2.296-1.35c.395-.69.685-1.483.664-1.754-.063-.188-.564-.75-.96-.998l.8-1.102c.649-.893 1.93-1.106 2.606-.234.38.49.71 1.078.825 1.72.19 1.188-.37 2.628-.786 3.464zM50.01 95.58c-.887 0-2.24-.326-2.986-.558-.746-.233-1.353-2.935-1.353-2.935-1.959-7.64-3.125-18.775-3.731-25.437-.327-3.54-.467-28.838-.467-28.838H58.126s-.14 25.297-.467 28.838c-.606 6.662-1.773 17.796-3.732 25.437 0 0-.606 2.702-1.352 2.935-.747.232-2.1.559-2.986.559"/>
        <path fill="#3A190E" d="M50.008 96h-.326c-1.493-.093-3.172-.606-3.359-.652-1.073-.326-2.612-1.212-3.452-5.078-1.725-6.662-2.798-16.352-3.404-23.34C39.14 63.715 39 43.077 39 40.747v-5.543h21.69v3.354c0 2.562-.14 25.11-.42 28.372-.606 6.988-1.726 16.678-3.452 23.433-.84 3.773-2.378 4.659-3.451 4.985-.233.093-1.866.559-3.359.652zm-.513-6.709c.14 0 .233.047.327.047.093 0 .233-.047.326-.047.047-.186.093-.326.14-.465 1.306-5.078 2.426-12.812 3.265-22.409.187-2.003.327-14.675.373-24.458H45.67c.047 6.988.187 22.082.373 24.458.607 6.709 1.633 16.026 3.266 22.315.093.14.14.373.186.56z" opacity=".2"/>
        <path fill="#B5BFD8" d="M50.007 92.692c-.793 0-2.005-.28-2.658-.512-.654-.187-1.213-2.656-1.213-2.656-1.773-6.848-2.846-16.864-3.359-22.874-.28-3.215-.42-25.95-.42-25.95v-2.189h14.974s-.14 24.924-.42 28.092c-.513 6.01-1.586 16.026-3.359 22.875 0 0-.56 2.422-1.212 2.655-.654.187-1.866.513-2.66.513" opacity=".7"/>
        <path fill="#D35454" d="M50.008 92.692c-.793 0-2.005-.28-2.659-.512-.652-.187-1.212-2.656-1.212-2.656-1.773-6.848-2.846-16.864-3.359-22.874h14.134c-.513 6.01-1.586 16.026-3.359 22.874 0 0-.56 2.423-1.212 2.656-.654.186-1.866.512-2.66.512"/>
        <path fill="#3A190E" d="M53.601 37.813h4.525s-.14 25.017-.42 28.418c-.56 6.336-1.866 18.635-3.778 25.902 0 0-.653 2.702-1.353 2.935-.7.233-2.146.56-2.985.56 0 0 5.364-12.672 4.105-57.023" opacity=".2"/>
        <path fill="#A15124" d="M47.303 92.18s2.38-1.072 4.991 0c.047 0-2.192 1.164-4.99 0z" opacity=".4"/>
        <path fill="#9CDAF7" d="M57.284 66.65h-.514v.326h.514v-.326z"/>
        <path d="M63.346 14.74h9.516v15.541h-9.516zM71.406 12.392h2.687v1.565h-2.687z"/>
        <path fill="#C5C5CF" d="M59.29 39.49h-1.166v1.49h1.166v-1.49z"/>
        <path fill="#A15124" d="M57.473 36.275H42.127v6.662h15.346v-6.662z" opacity=".2"/>
        <path fill="#C5C5CF" d="M63.07 38.977s-.56.42-1.82.466c-.933.047-1.726.093-2.1.14H39.84v-1.957h19.31l2.053-.046c0 .046 1.353-.14 1.866 1.397z"/>
        <path fill="#A15124" d="M45.997 39.583h-2.705v1.35h2.705v-1.35zM51.221 39.583h-2.705v1.35h2.705v-1.35zM55.98 39.583h-2.705v1.35h2.705v-1.35z" opacity=".2"/>
        <path fill="#C5C5CF" d="M45.532 39.583h-2.705v1.164h2.705v-1.164zM50.802 39.583h-2.705v1.164h2.705v-1.164zM55.511 39.583h-2.705v1.164h2.705v-1.164zM61.203 37.626s1.353-.186 1.866 1.351c0 0-.56.42-1.819.466-.933.047-1.726.093-2.1.14H39.84s19.777-.466 21.363-1.957z"/>
        <path fill="#E8E8EA" d="M49.777 37.626H47.77v1.957h2.006v-1.957z" opacity=".7"/>
        <path fill="#E8E8EA" d="M57.564 52.907s-.373-.746-.373-.047c-.047 2.842-.093 5.637-.14 9.504-.047 3.354-.466 11.367-2.705 23.76 0 0 .186.325.373.046 0 0 1.446-7.873 2.239-15.886.093-.792.373-4.24.42-5.032.046-.792.093-4.938.14-5.777 0-.885.093-5.031.046-6.568z" opacity=".5"/>
        <path fill="#fff" d="M52.806 43.775h-6.717v.7h6.717v-.7zM52.806 55.609h-6.717v.699h6.717v-.7zM52.806 68.28h-6.717v.7h6.717v-.7zM52.806 84.493h-6.717v.699h6.717v-.7z" opacity=".2"/>
        <g opacity=".2">
            <path fill="#fff" d="M47.956 47.363v-1.397h-.56v-.327h.233c.093 0 .14-.046.187-.093l.14-.14c.046-.046.046-.14.093-.186h.327v2.143h-.42zM49.589 46.897v.466c0 .046 0 .14-.047.186-.047.047-.047.093-.093.14-.047.046-.094.093-.14.093-.047.046-.14.046-.187.046v-.233c.047 0 .047 0 .093-.046.047 0 .047-.047.094-.047 0-.046.046-.046.046-.093v-.093h-.233v-.466h.467v.047zM50.428 45.546l-.093.512c.047-.046.14-.093.187-.14.046 0 .14-.046.233-.046s.186 0 .28.046c.093.047.14.094.186.14.047.047.093.14.14.233a.591.591 0 0 1 .047.28c0 .093 0 .233-.047.326s-.093.186-.186.233c-.094.093-.14.14-.234.186-.093.047-.186.047-.326.047-.093 0-.187 0-.28-.047-.093-.047-.187-.093-.233-.14-.094-.046-.14-.14-.187-.233-.047-.093-.047-.186-.093-.28h.42c0 .094.046.187.093.234.047.046.14.093.233.093.047 0 .093 0 .14-.047.047-.046.093-.046.14-.093.047-.046.047-.093.093-.14 0-.046.047-.093.047-.14 0-.046 0-.093-.047-.14 0-.046-.046-.092-.093-.139-.047-.046-.093-.046-.14-.093-.047 0-.093-.047-.14-.047-.093 0-.14 0-.186.047l-.14.14h-.374l.234-1.212h1.212v.373h-.886v.047z" opacity=".2"/>
        </g>
        <g opacity=".2">
            <path fill="#fff" d="M47.956 59.196v-1.398h-.56v-.326h.233c.093 0 .14-.047.187-.093l.14-.14c.046-.046.046-.14.093-.186h.327v2.143h-.42zM49.589 58.73v.466c0 .047 0 .14-.047.186-.046.047-.046.094-.093.14-.047.047-.093.093-.14.093-.046.047-.14.047-.186.047v-.233c.046 0 .046 0 .093-.047.047 0 .047-.046.093-.046 0-.047.047-.047.047-.093v-.093h-.233v-.466h.466v.046zM49.868 57.612c.047-.14.093-.28.186-.326a.82.82 0 0 1 .234-.187c.093-.046.186-.046.326-.046.094 0 .233 0 .327.046.093.047.186.094.233.187a.75.75 0 0 1 .187.326c.046.14.046.326.046.512 0 .233 0 .42-.046.56-.047.139-.094.279-.187.325-.093.094-.14.14-.233.187-.094.046-.187.046-.327.046-.093 0-.186 0-.326-.046-.093-.047-.187-.093-.233-.187a.752.752 0 0 1-.187-.326c-.047-.14-.047-.326-.047-.559 0-.233 0-.373.047-.512zm.373.745c0 .093 0 .187.047.233.046.047.046.14.093.186.047.047.093.094.187.094.093 0 .14-.047.186-.093a.354.354 0 0 0 .093-.187c0-.047.047-.186.047-.233v-.233-.14-.186c0-.047 0-.093-.047-.186 0-.047-.046-.093-.046-.14-.047-.047-.047-.093-.093-.093-.047-.047-.094-.047-.14-.047-.047 0-.094 0-.14.047-.047.046-.094.046-.094.093-.046.047-.046.093-.046.14 0 .046-.047.093-.047.186v.559z" opacity=".2"/>
        </g>
        <g opacity=".2">
            <path fill="#fff" d="M47.301 70.424c.047-.14.094-.28.187-.326.093-.094.14-.14.233-.187.094-.046.187-.046.327-.046.093 0 .233 0 .326.046.094.047.187.093.234.187.093.093.14.186.186.326.047.14.047.326.047.512 0 .233 0 .42-.047.56-.046.14-.093.279-.186.325-.094.094-.14.14-.234.187-.093.046-.186.046-.326.046-.093 0-.187 0-.327-.046-.093-.047-.186-.093-.233-.187a.751.751 0 0 1-.187-.326c-.046-.14-.046-.326-.046-.559 0-.186 0-.372.046-.512zm.374.745c0 .093 0 .187.046.233.047.047.047.14.094.186.046.047.093.094.186.094s.14-.047.187-.094a.354.354 0 0 0 .093-.186c0-.046.047-.186.047-.233v-.233-.14-.186c0-.046 0-.093-.047-.186 0-.047-.047-.093-.047-.14-.046-.047-.046-.093-.093-.093-.047-.047-.093-.047-.14-.047-.046 0-.093 0-.14.047-.046.046-.093.046-.093.093-.047.047-.047.093-.047.14 0 .046-.046.093-.046.186v.559zM49.589 71.542v.466c0 .046 0 .14-.047.186-.046.046-.046.093-.093.14-.047.046-.093.093-.14.093-.046.046-.14.046-.186.046v-.233c.046 0 .046 0 .093-.046.047 0 .047-.047.093-.047 0-.046.047-.046.047-.093v-.093h-.233v-.466h.466v.047zM50.427 70.237l-.093.513c.046-.047.14-.094.186-.14.047 0 .14-.047.234-.047.093 0 .186 0 .28.047.093.046.14.093.186.14.047.046.093.14.14.233a.591.591 0 0 1 .047.28c0 .092 0 .232-.047.325s-.093.187-.187.233c-.093.093-.14.14-.233.186-.093.047-.186.047-.326.047-.093 0-.187 0-.28-.047a1.018 1.018 0 0 1-.233-.14c-.094-.046-.14-.14-.187-.232-.047-.093-.047-.187-.093-.28h.42c0 .093.046.187.093.233.046.047.14.093.233.093.047 0 .093 0 .14-.046.047-.047.093-.047.14-.093.047-.047.047-.094.093-.14 0-.047.047-.093.047-.14 0-.046 0-.093-.047-.14 0-.046-.046-.093-.093-.14-.047-.046-.093-.046-.14-.093-.047 0-.093-.046-.14-.046-.093 0-.14 0-.187.046l-.14.14h-.373l.234-1.211h1.212v.373h-.886v.046z" opacity=".2"/>
        </g>
        <g opacity=".2">
            <path fill="#fff" d="M47.301 86.403c.047-.14.094-.28.187-.326.093-.093.14-.14.233-.187.094-.046.187-.046.327-.046.093 0 .233 0 .326.046.094.047.187.094.234.187.093.093.14.186.186.326.047.14.047.326.047.512 0 .233 0 .42-.047.56-.046.14-.093.279-.186.325-.094.094-.14.14-.234.187-.093.046-.186.046-.326.046-.093 0-.187 0-.327-.046-.093-.047-.186-.093-.233-.187a.751.751 0 0 1-.187-.326c-.046-.14-.046-.326-.046-.559 0-.186 0-.372.046-.512zm.374.745c0 .093 0 .187.046.233 0 .093.047.14.094.186.046.047.093.094.186.094s.14-.047.187-.094a.354.354 0 0 0 .093-.186c0-.093.047-.186.047-.233v-.233-.14-.186c0-.046 0-.093-.047-.186 0-.047-.047-.093-.047-.14-.046-.047-.046-.093-.093-.093-.047-.047-.093-.047-.14-.047-.046 0-.093 0-.14.047-.046.046-.093.046-.093.093-.047.047-.047.093-.047.14 0 .046-.046.093-.046.186v.559zM49.589 87.52v.467c0 .046 0 .14-.047.186-.046.046-.046.093-.093.14-.047.046-.093.093-.14.093-.046.046-.14.046-.186.046v-.233c.046 0 .046 0 .093-.046.047 0 .047-.047.093-.047 0-.046.047-.046.047-.093v-.093h-.233v-.466h.466v.047zM50.52 88.034v-1.398h-.56v-.326h.233c.093 0 .14-.047.187-.093l.14-.14c.046-.047.046-.14.093-.186h.327v2.143h-.42z" opacity=".2"/>
        </g>
        <path fill="#00AEEF" d="M4 98h92v3H4z"/>
        <path fill="#99DFF9" d="M6 96h88l2 2H4l2-2z"/>
        <path fill="#008BC0" d="M94 64H57.8v-1h-16v1H6l-2-2h92l-2 2z"/>
        <path fill="#00AEEF" d="M4 59h92v3H4zM6 63h2v34H6zM91 63h2v34h-2z"/>
        <ellipse cx="50.5" cy="96.5" fill="#000" fill-opacity=".3" rx="8.5" ry=".5"/>
        <ellipse cx="76.5" cy="96.5" fill="#000" fill-opacity=".3" rx="8.5" ry=".5"/>
        <ellipse cx="25.5" cy="96.5" fill="#000" fill-opacity=".3" rx="8.5" ry=".5"/>
        <ellipse cx="25.5" cy="63.5" fill="#000" fill-opacity=".3" rx="8.5" ry=".5"/>
        <ellipse cx="76.5" cy="63.5" fill="#000" fill-opacity=".3" rx="8.5" ry=".5"/>
        <path fill="#BFC0CF" d="M37 35h26v2H37z"/>
    </g>
    <defs>
        <filter id="a" width="100" height="109" x="0" y="0" color-interpolation-filters="sRGB" filterUnits="userSpaceOnUse">
            <feFlood flood-opacity="0" result="BackgroundImageFix"/>
            <feColorMatrix in="SourceAlpha" values="0 0 0 0 0 0 0 0 0 0 0 0 0 0 0 0 0 0 127 0"/>
            <feOffset dy="4"/>
            <feGaussianBlur stdDeviation="2"/>
            <feColorMatrix values="0 0 0 0 0 0 0 0 0 0 0 0 0 0 0 0 0 0 0.25 0"/>
            <feBlend in2="BackgroundImageFix" result="effect1_dropShadow"/>
            <feBlend in="SourceGraphic" in2="effect1_dropShadow" result="shape"/>
        </filter>
    </defs>
</svg>
