<svg xmlns="http://www.w3.org/2000/svg" width="98" height="106" fill="none" viewBox="0 0 98 106">
    <g filter="url(#a)">
        <path fill="#C5C5CF" d="M61.916 39.874a.609.609 0 0 1-.853.254l-2.295-1.35c.394-.69.684-1.483.663-1.754-.063-.187-.564-.749-.96-.998l.8-1.102c.649-.892 1.93-1.106 2.606-.234.38.49.71 1.078.825 1.72.19 1.188-.37 2.629-.785 3.464zM49.01 95.58c-.887 0-2.24-.326-2.986-.558-.746-.233-1.353-2.935-1.353-2.935-1.959-7.64-3.125-18.775-3.731-25.437-.327-3.54-.467-28.838-.467-28.838H57.126s-.14 25.297-.467 28.838c-.606 6.662-1.773 17.796-3.732 25.437 0 0-.606 2.702-1.352 2.935-.747.232-2.1.559-2.986.559"/>
        <path fill="#3A190E" d="M49.008 96h-.326c-1.493-.093-3.172-.606-3.359-.652-1.073-.326-2.612-1.212-3.452-5.078-1.725-6.662-2.798-16.352-3.404-23.34C38.14 63.715 38 43.077 38 40.747v-5.543h21.69v3.354c0 2.562-.14 25.11-.42 28.372-.606 6.988-1.726 16.678-3.452 23.433-.84 3.773-2.378 4.659-3.451 4.985-.233.093-1.866.559-3.359.652zm-.513-6.709c.14 0 .233.047.327.047.093 0 .233-.047.326-.047.047-.186.093-.326.14-.465 1.306-5.078 2.426-12.812 3.265-22.409.187-2.003.327-14.675.373-24.458H44.67c.047 6.988.187 22.082.373 24.458.607 6.709 1.633 16.026 3.266 22.315.093.14.14.373.186.56z" opacity=".2"/>
        <path fill="#B5BFD8" d="M49.007 92.692c-.793 0-2.006-.28-2.659-.512-.653-.187-1.213-2.656-1.213-2.656-1.772-6.848-2.845-16.864-3.358-22.874-.28-3.215-.42-25.949-.42-25.949v-2.19H56.33s-.14 24.924-.42 28.092c-.513 6.01-1.585 16.026-3.358 22.875 0 0-.56 2.422-1.213 2.655-.653.187-1.866.513-2.658.513" opacity=".7"/>
        <path fill="#3A190E" d="M52.601 37.813h4.525s-.14 25.017-.42 28.418c-.56 6.336-1.866 18.635-3.778 25.902 0 0-.653 2.702-1.353 2.935-.7.233-2.146.56-2.985.56 0 0 5.364-12.672 4.105-57.023" opacity=".2"/>
        <path fill="#A15124" d="M46.303 92.18s2.38-1.072 4.991 0c.047 0-2.192 1.164-4.99 0z" opacity=".4"/>
        <path fill="#9CDAF7" d="M56.283 66.65h-.513v.326h.513v-.326z"/>
        <path d="M62.346 14.74h9.516v15.541h-9.516zM70.406 12.392h2.687v1.565h-2.687z"/>
        <path fill="#C5C5CF" d="M58.29 39.49h-1.166v1.49h1.166v-1.49z"/>
        <path fill="#A15124" d="M56.472 36.275H41.126v6.662h15.346v-6.662z" opacity=".2"/>
        <path fill="#C5C5CF" d="M62.07 38.977s-.56.42-1.82.466c-.933.047-1.726.093-2.1.14H38.84v-1.957h19.31l2.053-.046c0 .046 1.353-.14 1.866 1.397z"/>
        <path fill="#A15124" d="M44.998 39.583h-2.706v1.35h2.706v-1.35zM50.221 39.583h-2.705v1.35h2.705v-1.35zM54.98 39.583h-2.705v1.35h2.706v-1.35z" opacity=".2"/>
        <path fill="#C5C5CF" d="M44.532 39.583h-2.705v1.165h2.705v-1.165zM49.802 39.583h-2.705v1.165h2.705v-1.165zM54.51 39.583h-2.704v1.165h2.705v-1.165zM60.203 37.626s1.353-.186 1.866 1.351c0 0-.56.42-1.819.466-.933.047-1.726.093-2.1.14H38.84s19.777-.466 21.363-1.957z"/>
        <path fill="#E8E8EA" d="M48.777 37.626H46.77v1.957h2.006v-1.957z" opacity=".7"/>
        <path fill="#E8E8EA" d="M56.564 52.907s-.373-.746-.373-.047c-.046 2.842-.093 5.637-.14 9.504-.046 3.354-.466 11.367-2.705 23.76 0 0 .187.326.373.046 0 0 1.446-7.873 2.239-15.886.093-.792.373-4.24.42-5.032.047-.792.093-4.938.14-5.776 0-.886.093-5.032.046-6.57z" opacity=".5"/>
        <g opacity=".2">
            <path fill="#fff" d="M46.956 47.364v-1.398h-.56v-.326h.233c.094 0 .14-.047.187-.093l.14-.14c.047-.046.047-.14.093-.186h.327v2.143h-.42zM48.589 46.897v.466c0 .047 0 .14-.047.187-.047.046-.047.093-.093.14-.047.046-.093.092-.14.092-.047.047-.14.047-.187.047v-.233c.047 0 .047 0 .093-.046.047 0 .047-.047.094-.047 0-.047.047-.047.047-.093v-.093h-.234v-.466h.467v.046zM49.428 45.546l-.093.513c.047-.047.14-.094.187-.14.047 0 .14-.047.233-.047s.187 0 .28.047c.093.046.14.093.187.14.046.046.093.14.14.233a.59.59 0 0 1 .046.279c0 .093 0 .233-.047.326-.046.093-.093.187-.186.233a.818.818 0 0 1-.233.186c-.094.047-.187.047-.327.047-.093 0-.187 0-.28-.047-.093-.046-.186-.093-.233-.14-.093-.046-.14-.14-.187-.232-.046-.093-.046-.187-.093-.28h.42c0 .093.047.187.093.233.047.047.14.093.233.093.047 0 .094 0 .14-.046.047-.047.094-.047.14-.093.047-.047.047-.094.094-.14 0-.047.046-.093.046-.14 0-.047 0-.093-.046-.14 0-.046-.047-.093-.094-.14-.046-.046-.093-.046-.14-.093-.046 0-.093-.046-.14-.046-.093 0-.14 0-.186.046l-.14.14h-.373l.233-1.211h1.213v.372h-.886v.047z" opacity=".2"/>
        </g>
        <g opacity=".2">
            <path fill="#fff" d="M46.956 59.196v-1.398h-.56v-.326h.233c.094 0 .14-.046.187-.093l.14-.14c.047-.046.047-.14.093-.186h.327v2.143h-.42zM48.59 58.73v.466c0 .047 0 .14-.047.186-.047.047-.047.094-.093.14-.047.047-.094.093-.14.093-.047.047-.14.047-.187.047v-.233c.047 0 .047 0 .093-.047.047 0 .047-.046.094-.046 0-.047.046-.047.046-.093v-.093h-.233v-.466h.467v.046zM48.868 57.612c.047-.14.093-.28.187-.326.093-.093.14-.14.233-.187.093-.046.187-.046.326-.046.094 0 .234 0 .327.047.093.046.186.093.233.186a.75.75 0 0 1 .187.326c.046.14.046.326.046.512 0 .233 0 .42-.046.56-.047.14-.093.279-.187.326a.82.82 0 0 1-.233.186c-.093.047-.187.047-.327.047-.093 0-.186 0-.326-.047-.093-.047-.187-.093-.233-.186a.752.752 0 0 1-.187-.326c-.047-.14-.047-.327-.047-.56 0-.233 0-.372.047-.512zm.373.745c0 .093 0 .187.047.233.047.047.047.14.093.187.047.046.093.093.187.093.093 0 .14-.047.186-.093a.353.353 0 0 0 .094-.187c0-.046.046-.186.046-.233v-.233-.14-.186c0-.046 0-.093-.046-.186 0-.047-.047-.093-.047-.14-.047-.046-.047-.093-.093-.093-.047-.047-.094-.047-.14-.047-.047 0-.093 0-.14.047-.047.047-.093.047-.093.093-.047.047-.047.093-.047.14 0 .046-.047.093-.047.186v.559z" opacity=".2"/>
        </g>
        <path fill="#00AEEF" d="M3 98h92v3H3z"/>
        <path fill="#99DFF9" d="M5 96h88l2 2H3l2-2z"/>
        <path fill="#008BC0" d="M93 64H56.8v-1h-16v1H5l-2-2h92l-2 2z"/>
        <path fill="#00AEEF" d="M3 59h92v3H3zM5 63h2v34H5zM90 63h2v34h-2z"/>
        <ellipse cx="49.5" cy="96.5" fill="#000" fill-opacity=".3" rx="8.5" ry=".5"/>
        <ellipse cx="75.5" cy="96.5" fill="#000" fill-opacity=".3" rx="8.5" ry=".5"/>
        <ellipse cx="24.5" cy="96.5" fill="#000" fill-opacity=".3" rx="8.5" ry=".5"/>
        <ellipse cx="24.5" cy="63.5" fill="#000" fill-opacity=".3" rx="8.5" ry=".5"/>
        <ellipse cx="75.5" cy="63.5" fill="#000" fill-opacity=".3" rx="8.5" ry=".5"/>
        <path fill="#BFC0CF" d="M36 35h26v2H36z"/>
    </g>
    <defs>
        <filter id="a" width="98" height="107" x="0" y="-1" color-interpolation-filters="sRGB" filterUnits="userSpaceOnUse">
            <feFlood flood-opacity="0" result="BackgroundImageFix"/>
            <feColorMatrix in="SourceAlpha" values="0 0 0 0 0 0 0 0 0 0 0 0 0 0 0 0 0 0 127 0"/>
            <feOffset dy="2"/>
            <feGaussianBlur stdDeviation="1.5"/>
            <feColorMatrix values="0 0 0 0 0 0 0 0 0 0 0 0 0 0 0 0 0 0 0.1 0"/>
            <feBlend in2="BackgroundImageFix" result="effect1_dropShadow"/>
            <feBlend in="SourceGraphic" in2="effect1_dropShadow" result="shape"/>
        </filter>
    </defs>
</svg>
