<svg width="70" height="64" viewBox="0 0 70 64" fill="none" xmlns="http://www.w3.org/2000/svg">
<path fill-rule="evenodd" clip-rule="evenodd" d="M0.734128 4.98047H4.37671L4.83203 8.68337H65.5417L65.9971 4.98047H69.2602V12.4618H0.734128V4.98047ZM69.336 12.462H65.0104L69.336 15.8272V16.2404H69.8672L69.336 15.8272V12.462ZM5.05966 12.462H0.734091V15.8272L0.202881 16.2404H0.734091V15.8272L5.05966 12.462Z" fill="#F2F2F2" fill-opacity="0.3"/>
<path fill-rule="evenodd" clip-rule="evenodd" d="M0.7342 64L69.3362 63.3954L65.1624 60.2215L5.28746 60.2215L5.21154 60.2215L4.92065 60.467L0.65834 63.3199L1.54011 63.3199L0.7342 64Z" fill="#758CA2" fill-opacity="0.6"/>
<path d="M5.40673 60.1461L1.00528 63.0933L0.474064 4.67809L4.95141 4.67809L5.40673 8.42336L5.40673 60.1461Z" fill="#99A7AD" fill-opacity="0.6"/>
<path d="M65.1621 60.2549L69.26 63.3198L69.7953 6.31845L65.5415 4.52681L65.1621 8.57436L65.1621 60.2549Z" fill="#99A7AD" fill-opacity="0.6"/>
<rect x="5.21143" y="8.53223" width="1.36597" height="51.6895" fill="#F2F2F2" fill-opacity="0.5"/>
<rect x="63.7964" y="8.53223" width="1.36597" height="51.6895" fill="#F2F2F2" fill-opacity="0.5"/>
<path d="M48.8465 8.60791L5.1355 52.1359V60.2218H10.9029L62.7338 8.60791H60.8367H48.8465Z" fill="white" fill-opacity="0.2"/>
<path d="M65.1623 9.36328L13.9385 60.2971H16.5945L65.1623 11.9326V9.36328Z" fill="white" fill-opacity="0.2"/>
<mask id="path-9-inside-1" fill="white">
<path fill-rule="evenodd" clip-rule="evenodd" d="M5.21393 4.14893H5.20288C2.44146 4.14893 0.202881 6.3875 0.202881 9.14893V58.9999C0.202881 61.7613 2.44146 63.9999 5.20289 63.9999H64.8673C67.6287 63.9999 69.8673 61.7613 69.8673 58.9999V9.14893C69.8673 6.48562 67.785 4.30867 65.1596 4.15733C65.0756 6.5877 63.079 8.53219 60.6282 8.53219H9.74564C7.29199 8.53219 5.29353 6.58322 5.21393 4.14893Z"/>
</mask>
<path fill-rule="evenodd" clip-rule="evenodd" d="M5.21393 4.14893H5.20288C2.44146 4.14893 0.202881 6.3875 0.202881 9.14893V58.9999C0.202881 61.7613 2.44146 63.9999 5.20289 63.9999H64.8673C67.6287 63.9999 69.8673 61.7613 69.8673 58.9999V9.14893C69.8673 6.48562 67.785 4.30867 65.1596 4.15733C65.0756 6.5877 63.079 8.53219 60.6282 8.53219H9.74564C7.29199 8.53219 5.29353 6.58322 5.21393 4.14893Z" fill="#F2F2F2" fill-opacity="0.5"/>
<path d="M5.21393 4.14893L12.2102 3.92014L11.9888 -2.85107H5.21393V4.14893ZM65.1596 4.15733L65.5624 -2.83107L58.4109 -3.24331L58.1637 3.91575L65.1596 4.15733ZM5.20288 11.1489H5.21393V-2.85107H5.20288V11.1489ZM7.20288 9.14893C7.20288 10.2535 6.30745 11.1489 5.20288 11.1489V-2.85107C-1.42454 -2.85107 -6.79712 2.52152 -6.79712 9.14893H7.20288ZM7.20288 58.9999V9.14893H-6.79712V58.9999H7.20288ZM5.20289 56.9999C6.30744 56.9999 7.20288 57.8953 7.20288 58.9999H-6.79712C-6.79712 65.6273 -1.42452 70.9999 5.20289 70.9999V56.9999ZM64.8673 56.9999H5.20289V70.9999H64.8673V56.9999ZM62.8673 58.9999C62.8673 57.8953 63.7627 56.9999 64.8673 56.9999V70.9999C71.4947 70.9999 76.8673 65.6273 76.8673 58.9999H62.8673ZM62.8673 9.14893V58.9999H76.8673V9.14893H62.8673ZM64.7567 11.1457C63.7003 11.0848 62.8673 10.2167 62.8673 9.14893H76.8673C76.8673 2.75457 71.8696 -2.4675 65.5624 -2.83107L64.7567 11.1457ZM58.1637 3.91575C58.2095 2.58955 59.2939 1.53219 60.6282 1.53219V15.5322C66.8641 15.5322 71.9418 10.5859 72.1554 4.3989L58.1637 3.91575ZM60.6282 1.53219H9.74564V15.5322H60.6282V1.53219ZM9.74564 1.53219C11.0814 1.53219 12.1668 2.59196 12.2102 3.92014L-1.78233 4.37771C-1.57969 10.5745 3.50262 15.5322 9.74564 15.5322V1.53219Z" fill="#F2F2F2" mask="url(#path-9-inside-1)"/>
<path opacity="0.2" d="M7.59475 15.3335L9.29297 15.3335V9.24988H7.59475V15.3335Z" fill="#3E6E7A"/>
<path opacity="0.2" d="M7.59475 15.3335L9.29297 15.3335V9.24988H7.59475V15.3335Z" fill="#3E6E7A"/>
<path opacity="0.2" d="M7.31414 14.6553L9.43018 14.6553V8.53241L7.31414 8.53241V14.6553Z" fill="#3E6E7A"/>
<path opacity="0.2" d="M9.29419 15.3223L9.42897 14.6551V8.53223L9.29419 9.19946V15.3223Z" fill="#3E6E7A"/>
<path opacity="0.2" d="M7.60276 9.19995L7.31299 8.53271V14.6556L7.60276 15.3228V9.19995Z" fill="#3E6E7A"/>
<path opacity="0.5" d="M7.31299 13.9878V14.6158L7.60276 15.3223H9.29424L9.42902 14.6158V13.9878H7.31299Z" fill="#CCD4E2"/>
<path opacity="0.2" d="M46.0828 15.3325L47.781 15.3325V9.2489H46.0828V15.3325Z" fill="#3E6E7A"/>
<path opacity="0.2" d="M46.0828 15.3325L47.781 15.3325V9.2489H46.0828V15.3325Z" fill="#3E6E7A"/>
<path opacity="0.2" d="M45.7953 14.6553L47.9114 14.6553V8.53241L45.7953 8.53241V14.6553Z" fill="#3E6E7A"/>
<path opacity="0.2" d="M47.7786 15.3223L47.9134 14.6551V8.53223L47.7786 9.19946V15.3223Z" fill="#3E6E7A"/>
<path opacity="0.2" d="M46.0804 9.19946L45.7974 8.53223V14.6551L46.0804 15.3223V9.19946Z" fill="#3E6E7A"/>
<path opacity="0.5" d="M45.7976 13.9878V14.6158L46.0806 15.3223H47.7789L47.9136 14.6158V13.9878H45.7976Z" fill="#CCD4E2"/>
<path opacity="0.2" d="M49.9136 15.333L51.6118 15.333V9.24939H49.9136V15.333Z" fill="#3E6E7A"/>
<path opacity="0.2" d="M49.9136 15.333L51.6118 15.333V9.24939H49.9136V15.333Z" fill="#3E6E7A"/>
<path opacity="0.2" d="M49.6262 14.6553L51.7422 14.6553V8.53241L49.6262 8.53241V14.6553Z" fill="#3E6E7A"/>
<path opacity="0.2" d="M51.6125 15.3223L51.7406 14.6551V8.53223L51.6125 9.19946V15.3223Z" fill="#3E6E7A"/>
<path opacity="0.2" d="M49.9144 9.19946L49.6313 8.53223V14.6551L49.9144 15.3223V9.19946Z" fill="#3E6E7A"/>
<path opacity="0.5" d="M49.6313 13.9878V14.6158L49.9144 15.3223H51.6126L51.7407 14.6158V13.9878H49.6313Z" fill="#CCD4E2"/>
<path opacity="0.2" d="M62.9519 9.19922H61.2537V15.2828H62.9519V9.19922Z" fill="#3E6E7A"/>
<path opacity="0.2" d="M62.9519 9.19922H61.2537V15.2828H62.9519V9.19922Z" fill="#3E6E7A"/>
<path opacity="0.2" d="M63.2349 8.53271H61.1189V14.6556H63.2349V8.53271Z" fill="#3E6E7A"/>
<path opacity="0.2" d="M61.2537 15.2836L61.1189 14.6163V8.53271L61.2537 9.19995V15.2836Z" fill="#3E6E7A"/>
<path opacity="0.2" d="M62.9451 9.19946L63.2348 8.53223V14.6158L62.9451 15.2831V9.19946Z" fill="#3E6E7A"/>
<path opacity="0.5" d="M63.2349 13.9487V14.616L62.9452 15.2832H61.2537L61.1189 14.616V13.9487H63.2349Z" fill="#CCD4E2"/>
<path opacity="0.2" d="M59.1208 9.19922H57.4226V15.2828H59.1208V9.19922Z" fill="#3E6E7A"/>
<path opacity="0.2" d="M59.1208 9.19922H57.4226V15.2828H59.1208V9.19922Z" fill="#3E6E7A"/>
<path opacity="0.2" d="M59.4041 8.53271H57.2881V14.6556H59.4041V8.53271Z" fill="#3E6E7A"/>
<path opacity="0.2" d="M57.4229 15.2836L57.2881 14.6163V8.53271L57.4229 9.19995V15.2836Z" fill="#3E6E7A"/>
<path opacity="0.2" d="M59.1211 9.19946L59.4041 8.53223V14.6158L59.1211 15.2831V9.19946Z" fill="#3E6E7A"/>
<path opacity="0.5" d="M59.4039 13.9487V14.616L59.1208 15.2832H57.4226L57.2878 14.616V13.9487H59.4039Z" fill="#CCD4E2"/>
<path opacity="0.2" d="M55.2834 9.19922H53.5852V15.2828H55.2834V9.19922Z" fill="#3E6E7A"/>
<path opacity="0.2" d="M55.2834 9.19922H53.5852V15.2828H55.2834V9.19922Z" fill="#3E6E7A"/>
<path opacity="0.2" d="M55.5731 8.53271H53.457V14.6556H55.5731V8.53271Z" fill="#3E6E7A"/>
<path opacity="0.2" d="M53.5851 15.2836L53.457 14.6163V8.53271L53.5851 9.19995V15.2836Z" fill="#3E6E7A"/>
<path opacity="0.2" d="M55.2834 9.19946L55.5665 8.53223V14.6158L55.2834 15.2831V9.19946Z" fill="#3E6E7A"/>
<path opacity="0.5" d="M55.5663 13.9487V14.616L55.2833 15.2832H53.5851L53.457 14.616V13.9487H55.5663Z" fill="#CCD4E2"/>
<path opacity="0.2" d="M26.7547 15.3325L28.4529 15.3325V9.2489H26.7547V15.3325Z" fill="#3E6E7A"/>
<path opacity="0.2" d="M26.7547 15.3325L28.4529 15.3325V9.2489H26.7547V15.3325Z" fill="#3E6E7A"/>
<path opacity="0.2" d="M26.4672 14.6553L28.5833 14.6553V8.53241L26.4672 8.53241V14.6553Z" fill="#3E6E7A"/>
<path opacity="0.2" d="M28.4504 15.3223L28.5852 14.6551V8.53223L28.4504 9.19946V15.3223Z" fill="#3E6E7A"/>
<path opacity="0.2" d="M26.7525 9.19946L26.4695 8.53223V14.6551L26.7525 15.3223V9.19946Z" fill="#3E6E7A"/>
<path opacity="0.5" d="M26.4695 13.9878V14.6158L26.7525 15.3223H28.4507L28.5855 14.6158V13.9878H26.4695Z" fill="#CCD4E2"/>
<path opacity="0.2" d="M30.5855 15.333L32.2837 15.333V9.24939H30.5855V15.333Z" fill="#3E6E7A"/>
<path opacity="0.2" d="M30.5855 15.333L32.2837 15.333V9.24939H30.5855V15.333Z" fill="#3E6E7A"/>
<path opacity="0.2" d="M30.2983 14.6553L32.4143 14.6553V8.53241L30.2983 8.53241V14.6553Z" fill="#3E6E7A"/>
<path opacity="0.2" d="M32.2844 15.3223L32.4125 14.6551V8.53223L32.2844 9.19946V15.3223Z" fill="#3E6E7A"/>
<path opacity="0.2" d="M30.5863 9.19946L30.3032 8.53223V14.6551L30.5863 15.3223V9.19946Z" fill="#3E6E7A"/>
<path opacity="0.5" d="M30.3032 13.9878V14.6158L30.5863 15.3223H32.2845L32.4125 14.6158V13.9878H30.3032Z" fill="#CCD4E2"/>
<path opacity="0.2" d="M43.6235 9.19922H41.9253V15.2828H43.6235V9.19922Z" fill="#3E6E7A"/>
<path opacity="0.2" d="M43.6235 9.19922H41.9253V15.2828H43.6235V9.19922Z" fill="#3E6E7A"/>
<path opacity="0.2" d="M43.9066 8.53271H41.7905V14.6556H43.9066V8.53271Z" fill="#3E6E7A"/>
<path opacity="0.2" d="M41.9253 15.2836L41.7905 14.6163V8.53271L41.9253 9.19995V15.2836Z" fill="#3E6E7A"/>
<path opacity="0.2" d="M43.6167 9.19946L43.9065 8.53223V14.6158L43.6167 15.2831V9.19946Z" fill="#3E6E7A"/>
<path opacity="0.5" d="M43.9066 13.9487V14.616L43.6168 15.2832H41.9253L41.7905 14.616V13.9487H43.9066Z" fill="#CCD4E2"/>
<path opacity="0.2" d="M39.9668 9.19922H38.2686V15.2828H39.9668V9.19922Z" fill="#3E6E7A"/>
<path opacity="0.2" d="M39.9668 9.19922H38.2686V15.2828H39.9668V9.19922Z" fill="#3E6E7A"/>
<path opacity="0.2" d="M40.2498 8.53271H38.1338V14.6556H40.2498V8.53271Z" fill="#3E6E7A"/>
<path opacity="0.2" d="M38.2686 15.2836L38.1338 14.6163V8.53271L38.2686 9.19995V15.2836Z" fill="#3E6E7A"/>
<path opacity="0.2" d="M39.9668 9.19946L40.2498 8.53223V14.6158L39.9668 15.2831V9.19946Z" fill="#3E6E7A"/>
<path opacity="0.5" d="M40.2498 13.9487V14.616L39.9668 15.2832H38.2686L38.1338 14.616V13.9487H40.2498Z" fill="#CCD4E2"/>
<path opacity="0.2" d="M35.9551 9.19922H34.2568V15.2828H35.9551V9.19922Z" fill="#3E6E7A"/>
<path opacity="0.2" d="M35.9551 9.19922H34.2568V15.2828H35.9551V9.19922Z" fill="#3E6E7A"/>
<path opacity="0.2" d="M36.2449 8.53271H34.1289V14.6556H36.2449V8.53271Z" fill="#3E6E7A"/>
<path opacity="0.2" d="M34.2569 15.2836L34.1289 14.6163V8.53271L34.2569 9.19995V15.2836Z" fill="#3E6E7A"/>
<path opacity="0.2" d="M35.9551 9.19946L36.2381 8.53223V14.6158L35.9551 15.2831V9.19946Z" fill="#3E6E7A"/>
<path opacity="0.5" d="M36.2382 13.9487V14.616L35.9552 15.2832H34.2569L34.1289 14.616V13.9487H36.2382Z" fill="#CCD4E2"/>
<path opacity="0.2" d="M11.4312 15.3325L13.1294 15.3325V9.2489H11.4312V15.3325Z" fill="#3E6E7A"/>
<path opacity="0.2" d="M11.4312 15.3325L13.1294 15.3325V9.2489H11.4312V15.3325Z" fill="#3E6E7A"/>
<path opacity="0.2" d="M11.1437 14.6553L13.2598 14.6553V8.53241L11.1437 8.53241V14.6553Z" fill="#3E6E7A"/>
<path opacity="0.2" d="M13.127 15.3223L13.2617 14.6551V8.53223L13.127 9.19946V15.3223Z" fill="#3E6E7A"/>
<path opacity="0.2" d="M11.429 9.19946L11.146 8.53223V14.6551L11.429 15.3223V9.19946Z" fill="#3E6E7A"/>
<path opacity="0.5" d="M11.146 13.9878V14.6158L11.429 15.3223H13.1273L13.262 14.6158V13.9878H11.146Z" fill="#CCD4E2"/>
<path opacity="0.2" d="M15.2622 15.3325L16.9604 15.3325V9.2489H15.2622V15.3325Z" fill="#3E6E7A"/>
<path opacity="0.2" d="M15.2622 15.3325L16.9604 15.3325V9.2489H15.2622V15.3325Z" fill="#3E6E7A"/>
<path opacity="0.2" d="M14.9748 14.6553L17.0908 14.6553V8.53241L14.9748 8.53241V14.6553Z" fill="#3E6E7A"/>
<path opacity="0.2" d="M16.9614 15.3223L17.0895 14.6551V8.53223L16.9614 9.19946V15.3223Z" fill="#3E6E7A"/>
<path opacity="0.2" d="M15.263 9.19946L14.98 8.53223V14.6551L15.263 15.3223V9.19946Z" fill="#3E6E7A"/>
<path opacity="0.5" d="M14.98 13.9878V14.6158L15.263 15.3223H16.9612L17.0893 14.6158V13.9878H14.98Z" fill="#CCD4E2"/>
<path opacity="0.2" d="M24.6433 9.19922H22.9451V15.2828H24.6433V9.19922Z" fill="#3E6E7A"/>
<path opacity="0.2" d="M24.6433 9.19922H22.9451V15.2828H24.6433V9.19922Z" fill="#3E6E7A"/>
<path opacity="0.2" d="M24.9266 8.53271H22.8105V14.6556H24.9266V8.53271Z" fill="#3E6E7A"/>
<path opacity="0.2" d="M22.9453 15.2836L22.8105 14.6163V8.53271L22.9453 9.19995V15.2836Z" fill="#3E6E7A"/>
<path opacity="0.2" d="M24.6436 9.19946L24.9266 8.53223V14.6158L24.6436 15.2831V9.19946Z" fill="#3E6E7A"/>
<path opacity="0.5" d="M24.9266 13.9487V14.616L24.6435 15.2832H22.9453L22.8105 14.616V13.9487H24.9266Z" fill="#CCD4E2"/>
<path opacity="0.2" d="M20.6318 9.19922H18.9336V15.2828H20.6318V9.19922Z" fill="#3E6E7A"/>
<path opacity="0.2" d="M20.6318 9.19922H18.9336V15.2828H20.6318V9.19922Z" fill="#3E6E7A"/>
<path opacity="0.2" d="M20.9217 8.53271H18.8057V14.6556H20.9217V8.53271Z" fill="#3E6E7A"/>
<path opacity="0.2" d="M18.9337 15.2836L18.8057 14.6163V8.53271L18.9337 9.19995V15.2836Z" fill="#3E6E7A"/>
<path opacity="0.2" d="M20.6321 9.19946L20.9151 8.53223V14.6158L20.6321 15.2831V9.19946Z" fill="#3E6E7A"/>
<path opacity="0.5" d="M20.915 13.9487V14.616L20.6319 15.2832H18.9337L18.8057 14.616V13.9487H20.915Z" fill="#CCD4E2"/>
<g style="mix-blend-mode:soft-light">
<path d="M0.202881 57.1987H69.8673V59C69.8673 61.7614 67.6287 64 64.8673 64H5.20289C2.44146 64 0.202881 61.7614 0.202881 59V57.1987Z" fill="white"/>
</g>
<path fill-rule="evenodd" clip-rule="evenodd" d="M8.18714 55.4395H0V59C0 61.7614 2.23858 64 5 64H13.1871C10.4257 64 8.18714 61.7614 8.18714 59V55.4395Z" fill="#E5ECF0"/>
<path fill-rule="evenodd" clip-rule="evenodd" d="M61.8129 55.4395H70V59C70 61.7614 67.7614 64 65 64H56.8129C59.5743 64 61.8129 61.7614 61.8129 59V55.4395Z" fill="#E5ECF0"/>
<path opacity="0.5" d="M0 19.5669H70V59C70 61.7614 67.7615 64 65 64H5C2.23858 64 0 61.7614 0 59V19.5669Z" fill="#00AEEF"/>
</svg>
