<svg xmlns="http://www.w3.org/2000/svg" width="176" height="207" fill="none" viewBox="0 0 176 207">
    <path fill="#F2F2F2" fill-rule="evenodd" d="M5.678 91.685H173.16l-.067 1.016.067-.055L165.591 207h-23.656l-2.879-15.596H39.783L36.903 207H13.247L5.677 92.646l.068.056-.067-1.017z" clip-rule="evenodd" opacity=".5"/>
    <mask id="a" width="169" height="116" x="5" y="91" maskUnits="userSpaceOnUse">
        <path fill="#F2F2F2" fill-rule="evenodd" d="M5.677 91.685h167.484l-.393 1.285.393-.324L165.591 207h-23.656l-3.577-19.377H40.481L36.903 207H13.247L5.677 92.646l.15.123-.15-1.084z" clip-rule="evenodd" opacity=".5"/>
    </mask>
    <g fill="#fff" mask="url(#a)">
        <path d="M79.957 95.529l-52.99 107.627 32.173 4.805 55.355-112.432H79.957zM119.226 95.529L63.398 208.922h5.204L124.43 95.529h-5.204z" opacity=".3"/>
    </g>
    <path fill="#333" d="M20.817 91.685h5.678v87.491a2.839 2.839 0 1 1-5.678 0V91.685z"/>
    <path fill="#AD210C" d="M152.344 91.685h5.678v87.491a2.839 2.839 0 1 1-5.678 0V91.685z"/>
    <path fill="#F2F2F2" fill-rule="evenodd" d="M139.097 191.467L141.935 207h23.656l7.57-114.354-.075.062.075-1.023H5.677l.103 1.046-.103-.085L13.247 207h23.656l2.947-15.533h99.247zM35.592 203.156l2.946-15.533h101.87l2.839 15.533h20.689l6.915-104.455-.129.107.242-3.28H7.986l.34 3.452-.338-.279 6.914 104.455h20.69z" clip-rule="evenodd" opacity=".5"/>
    <path fill="#F2F2F2" fill-opacity=".5" d="M49.023 179.589h81.816l9.204 5.671H38.796l10.227-5.671z" opacity=".5"/>
    <path fill="#F2F2F2" fill-opacity=".5" d="M14.194 195.469h24.602l-1.42 7.687H15.14l-.946-7.687zM164.645 195.469h-24.602l1.419 7.687h22.237l.946-7.687z" opacity=".3"/>
    <path fill="#444" fill-rule="evenodd" d="M26.495 65.22h-5.678v8.111a7.572 7.572 0 0 0-4.73 7.02v9.444h15.139V80.35a7.572 7.572 0 0 0-4.731-7.02V65.22z" clip-rule="evenodd"/>
    <path fill="#111" fill-rule="evenodd" d="M26.495 65.22h-1.893V73.725h.063l.416.37c1.806 1.595 3.306 2.92 3.306 6.246v9.453h2.84v-9.453a7.564 7.564 0 0 0-4.732-7.011v-8.112z" clip-rule="evenodd" opacity=".5"/>
    <path fill="#999" fill-rule="evenodd" d="M21.764 65.22h.946v8.506h-.003.003c-.511.51-.978.914-1.396 1.275-1.517 1.313-2.39 2.067-2.39 5.342v9.452h-1.892v-9.452a7.564 7.564 0 0 1 4.732-7.012v-8.112z" clip-rule="evenodd" opacity=".2"/>
    <path fill="#AD210C" fill-rule="evenodd" d="M158.022 65.22h-5.678v8.111a7.573 7.573 0 0 0-4.731 7.02v9.444h15.14V80.35a7.573 7.573 0 0 0-4.731-7.02V65.22z" clip-rule="evenodd"/>
    <path fill="#541005" fill-rule="evenodd" d="M158.022 65.22h-1.893V73.725h.063l.416.37c1.806 1.595 3.306 2.92 3.306 6.246v9.453h2.839v-9.453a7.564 7.564 0 0 0-4.731-7.011v-8.112z" clip-rule="evenodd" opacity=".5"/>
    <path fill="#C48686" fill-rule="evenodd" d="M153.29 65.22h.946v8.506h-.002.002c-.51.51-.977.914-1.395 1.275-1.517 1.313-2.389 2.067-2.389 5.342v9.452h-1.893v-9.452a7.564 7.564 0 0 1 4.731-7.012v-8.112z" clip-rule="evenodd" opacity=".5"/>
    <path fill="#F2F2F2" fill-opacity=".5" d="M0 91.47a2 2 0 0 1 2-2h172a2 2 0 0 1 2 2v8.174c0 5.523-4.477 10-10 10H10c-5.523 0-10-4.477-10-10v-8.175z"/>
    <path stroke="#F2F2F2" stroke-opacity=".5" stroke-width="2" d="M1 91.47a1 1 0 0 1 1-1h172a1 1 0 0 1 1 1v8.174a9 9 0 0 1-9 9H10a9 9 0 0 1-9-9v-8.175z"/>
</svg>
