<svg width="176" height="207" viewBox="0 0 176 207" fill="none" xmlns="http://www.w3.org/2000/svg">
<path opacity="0.5" fill-rule="evenodd" clip-rule="evenodd" d="M5.67735 91.6851H173.161L173.094 92.7016L173.161 92.646L165.591 207H141.935L139.056 191.404H39.7825L36.9031 207H13.2471L5.67725 92.646L5.74489 92.7018L5.67735 91.6851Z" fill="#F2F2F2"/>
<mask id="mask0" mask-type="alpha" maskUnits="userSpaceOnUse" x="5" y="91" width="169" height="117">
<path opacity="0.5" fill-rule="evenodd" clip-rule="evenodd" d="M5.67725 91.6851H173.161L172.768 92.9703L173.161 92.646L165.591 207H141.935L138.358 187.623H40.4805L36.9031 207H13.2471L5.67725 92.646L5.827 92.7696L5.67725 91.6851Z" fill="#F2F2F2"/>
</mask>
<g mask="url(#mask0)">
<path opacity="0.3" d="M79.957 95.5288L26.9678 203.156L59.1398 207.961L114.495 95.5288H79.957Z" fill="white"/>
<path opacity="0.3" d="M119.225 95.5288L63.3975 208.922H68.6018L124.43 95.5288H119.225Z" fill="white"/>
</g>
<path d="M20.8169 91.6851H26.4943V179.176C26.4943 180.744 25.2234 182.015 23.6556 182.015V182.015C22.0878 182.015 20.8169 180.744 20.8169 179.176V91.6851Z" fill="#333333"/>
<path d="M152.344 91.6851H158.021V179.176C158.021 180.744 156.75 182.015 155.182 182.015V182.015C153.615 182.015 152.344 180.744 152.344 179.176V91.6851Z" fill="#AD210C"/>
<path opacity="0.5" fill-rule="evenodd" clip-rule="evenodd" d="M139.097 191.467L141.935 207H165.591L173.161 92.646L173.086 92.7084L173.161 91.6851H5.67725L5.78024 92.731L5.67725 92.646L13.2471 207H36.9031L39.8496 191.467H139.097ZM35.5916 203.156L38.5381 187.623H140.408L143.247 203.156H163.936L170.851 98.7014L170.721 98.8081L170.964 95.5289H7.98569L8.32553 98.9801L7.98759 98.7013L14.9022 203.156H35.5916Z" fill="#F2F2F2"/>
<path opacity="0.5" d="M49.0224 179.589H130.838L140.043 185.261H38.7954L49.0224 179.589Z" fill="#F2F2F2" fill-opacity="0.5"/>
<path opacity="0.3" d="M14.1934 195.469H38.7955L37.3762 203.156H15.1396L14.1934 195.469Z" fill="#F2F2F2" fill-opacity="0.5"/>
<path opacity="0.3" d="M164.645 195.469H140.043L141.462 203.156H163.699L164.645 195.469Z" fill="#F2F2F2" fill-opacity="0.5"/>
<path fill-rule="evenodd" clip-rule="evenodd" d="M26.4945 65.2192H20.8171V73.3311C18.0429 74.4541 16.0859 77.1739 16.0859 80.3508V89.7946H31.2257V80.3508C31.2257 77.1739 29.2687 74.4541 26.4945 73.3311V65.2192Z" fill="#444444"/>
<path opacity="0.5" fill-rule="evenodd" clip-rule="evenodd" d="M26.495 65.2192H24.6025V73.6703C24.6025 73.6703 24.6025 73.6704 24.6025 73.6704V73.7261H24.6649C24.8051 73.8514 24.944 73.9742 25.0812 74.0954C26.8871 75.691 28.3875 77.0166 28.3875 80.3425V89.7946H31.2262V80.3425C31.2262 77.1691 29.2692 74.4523 26.495 73.3305V65.2192Z" fill="#111111"/>
<path opacity="0.2" fill-rule="evenodd" clip-rule="evenodd" d="M21.7632 65.2192H22.7095V73.7261H22.7068C22.7077 73.7261 22.7086 73.7261 22.7095 73.7261C22.1986 74.2364 21.7319 74.6401 21.314 75.0015C19.797 76.3137 18.9245 77.0684 18.9245 80.3427V89.7948H17.0321V80.3427C17.0321 77.1693 18.989 74.4525 21.7632 73.3307V65.2192Z" fill="#999999"/>
<path fill-rule="evenodd" clip-rule="evenodd" d="M158.021 65.2192H152.344V73.3311C149.57 74.4541 147.613 77.1739 147.613 80.3508V89.7946H162.753V80.3508C162.753 77.1739 160.796 74.4541 158.021 73.3311V65.2192Z" fill="#AD210C"/>
<path opacity="0.5" fill-rule="evenodd" clip-rule="evenodd" d="M158.021 65.2192H156.129V73.6703C156.129 73.6703 156.129 73.6704 156.129 73.6704V73.7261H156.191C156.331 73.8514 156.47 73.9742 156.608 74.0954C158.413 75.691 159.914 77.0166 159.914 80.3425V89.7946H162.753V80.3425C162.753 77.1691 160.796 74.4523 158.021 73.3305V65.2192Z" fill="#541005"/>
<path opacity="0.5" fill-rule="evenodd" clip-rule="evenodd" d="M153.29 65.2192H154.236V73.7261H154.234C154.235 73.7261 154.235 73.7261 154.236 73.7261C153.725 74.2364 153.259 74.6401 152.841 75.0015C151.324 76.3137 150.451 77.0684 150.451 80.3427V89.7948H148.559V80.3427C148.559 77.1693 150.516 74.4525 153.29 73.3307V65.2192Z" fill="#C48686"/>
<path opacity="0.6" fill-rule="evenodd" clip-rule="evenodd" d="M10 110H169L166.736 169H168.62L163.699 203.027H142.882L136.004 184H42.8392L35.9573 203.027H15.1401L10.5981 171.836L12.3761 171.929L10 110Z" fill="#4FB7F2"/>
<path d="M0 91.4692C0 90.3647 0.895431 89.4692 2 89.4692H174C175.105 89.4692 176 90.3647 176 91.4692V99.6439C176 105.167 171.523 109.644 166 109.644H10C4.47715 109.644 0 105.167 0 99.6439V91.4692Z" fill="#F2F2F2" fill-opacity="0.5"/>
<path d="M2 90.4692H174C174.552 90.4692 175 90.917 175 91.4692V99.6439C175 104.615 170.971 108.644 166 108.644H10C5.02944 108.644 1 104.615 1 99.6439V91.4692C1 90.917 1.44772 90.4692 2 90.4692Z" stroke="#F2F2F2" stroke-opacity="0.5" stroke-width="2"/>
</svg>
