<svg xmlns="http://www.w3.org/2000/svg" width="205" height="32" fill="none" viewBox="0 0 205 32">
    <path fill="#006F98" d="M203 3s2 1 2 2.897V29h-1l-1-26z"/>
    <path fill="#006388" d="M3 29l5.883 1L205 29s0 3-5.883 3H6.922C3 32 3 29 3 29z"/>
    <rect width="201" height="28" x="3" y="3" fill="#008EC2" rx="2"/>
    <path fill="#11536B" d="M199.198 26h3.868v1h-3.868z"/>
    <path fill="#006388" d="M0 26l5.802 1 195.33-1s0 3-5.802 3H3.868C0 29 0 26 0 26z"/>
    <path fill="#006F98" d="M200 0s3 1 3 3v23h-1V6l-2-6z"/>
    <rect width="202" height="28" fill="#00AEEF" rx="2"/>
    <mask id="a" width="18" height="18" x="8" y="5" maskUnits="userSpaceOnUse">
        <circle cx="17" cy="14" r="9" fill="#009BD4"/>
    </mask>
    <g mask="url(#a)">
        <circle cx="17" cy="14" r="9" fill="#006F98"/>
        <circle cx="18" cy="15" r="9" fill="#008EC2"/>
    </g>
    <mask id="b" width="18" height="18" x="43" y="5" maskUnits="userSpaceOnUse">
        <circle cx="52" cy="14" r="9" fill="#009BD4"/>
    </mask>
    <g mask="url(#b)">
        <circle cx="52" cy="14" r="9" fill="#006F98"/>
        <circle cx="53" cy="15" r="9" fill="#008EC2"/>
    </g>
    <mask id="c" width="18" height="18" x="77" y="5" maskUnits="userSpaceOnUse">
        <circle cx="86" cy="14" r="9" fill="#009BD4"/>
    </mask>
    <g mask="url(#c)">
        <circle cx="86" cy="14" r="9" fill="#006F98"/>
        <circle cx="87" cy="15" r="9" fill="#008EC2"/>
    </g>
    <mask id="d" width="18" height="18" x="111" y="5" maskUnits="userSpaceOnUse">
        <circle cx="120" cy="14" r="9" fill="#009BD4"/>
    </mask>
    <g mask="url(#d)">
        <circle cx="120" cy="14" r="9" fill="#006F98"/>
        <circle cx="121" cy="15" r="9" fill="#008EC2"/>
    </g>
    <path fill="#006F98" d="M203 6l1 1v20l-1-1V6z"/>
    <mask id="e" width="18" height="18" x="145" y="5" maskUnits="userSpaceOnUse">
        <circle cx="154" cy="14" r="9" fill="#009BD4"/>
    </mask>
    <g mask="url(#e)">
        <circle cx="154" cy="14" r="9" fill="#006F98"/>
        <circle cx="155" cy="15" r="9" fill="#008EC2"/>
    </g>
    <mask id="f" width="18" height="18" x="176" y="5" maskUnits="userSpaceOnUse">
        <circle cx="185" cy="14" r="9" fill="#009BD4"/>
    </mask>
    <g mask="url(#f)">
        <circle cx="185" cy="14" r="9" fill="#006F98"/>
        <circle cx="186" cy="15" r="9" fill="#008EC2"/>
    </g>
</svg>
