<svg width="205" height="32" viewBox="0 0 205 32" fill="none" xmlns="http://www.w3.org/2000/svg">
<path d="M203 3C203 3 205 4 205 5.89655C205 7.7931 205 29 205 29H204L203 3Z" fill="#006F98"/>
<path d="M3 29L8.8835 30L205 29C205 29 205 32 199.117 32C193.233 32 10.8447 32 6.92233 32C3 32 3 29 3 29Z" fill="#006388"/>
<rect x="3" y="3" width="201" height="28" rx="2" fill="#008EC2"/>
<rect x="199.198" y="26" width="3.86787" height="1" fill="#11536B"/>
<path d="M0 26L5.80189 27L201.132 26C201.132 26 201.132 29 195.33 29C189.528 29 7.73585 29 3.86792 29C0 29 0 26 0 26Z" fill="#006388"/>
<path d="M200 0C200 0 203 1 203 3C203 5 203 26 203 26H202V6L200 0Z" fill="#006F98"/>
<rect width="202" height="28" rx="2" fill="#00AEEF"/>
<mask id="mask0" mask-type="alpha" maskUnits="userSpaceOnUse" x="8" y="5" width="18" height="18">
<circle cx="17" cy="14" r="9" fill="#009BD4"/>
</mask>
<g mask="url(#mask0)">
<circle cx="17" cy="14" r="9" fill="#006F98"/>
<circle cx="18" cy="15" r="9" fill="#008EC2"/>
</g>
<mask id="mask1" mask-type="alpha" maskUnits="userSpaceOnUse" x="43" y="5" width="18" height="18">
<circle cx="52" cy="14" r="9" fill="#009BD4"/>
</mask>
<g mask="url(#mask1)">
<circle cx="52" cy="14" r="9" fill="#006F98"/>
<circle cx="53" cy="15" r="9" fill="#008EC2"/>
</g>
<mask id="mask2" mask-type="alpha" maskUnits="userSpaceOnUse" x="77" y="5" width="18" height="18">
<circle cx="86" cy="14" r="9" fill="#009BD4"/>
</mask>
<g mask="url(#mask2)">
<circle cx="86" cy="14" r="9" fill="#006F98"/>
<circle cx="87" cy="15" r="9" fill="#008EC2"/>
</g>
<mask id="mask3" mask-type="alpha" maskUnits="userSpaceOnUse" x="111" y="5" width="18" height="18">
<circle cx="120" cy="14" r="9" fill="#009BD4"/>
</mask>
<g mask="url(#mask3)">
<circle cx="120" cy="14" r="9" fill="#006F98"/>
<circle cx="121" cy="15" r="9" fill="#008EC2"/>
</g>
<path d="M203 6L204 7V27L203 26V6Z" fill="#006F98"/>
<mask id="mask4" mask-type="alpha" maskUnits="userSpaceOnUse" x="145" y="5" width="18" height="18">
<circle cx="154" cy="14" r="9" fill="#009BD4"/>
</mask>
<g mask="url(#mask4)">
<circle cx="154" cy="14" r="9" fill="#006F98"/>
<circle cx="155" cy="15" r="9" fill="#008EC2"/>
</g>
<mask id="mask5" mask-type="alpha" maskUnits="userSpaceOnUse" x="176" y="5" width="18" height="18">
<circle cx="185" cy="14" r="9" fill="#009BD4"/>
</mask>
<g mask="url(#mask5)">
<circle cx="185" cy="14" r="9" fill="#006F98"/>
<circle cx="186" cy="15" r="9" fill="#008EC2"/>
</g>
</svg>
