<svg width="138" height="32" viewBox="0 0 138 32" fill="none" xmlns="http://www.w3.org/2000/svg">
<path d="M136 3C136 3 138 4 138 5.89655C138 7.7931 138 29 138 29H137L136 3Z" fill="#006F98"/>
<path d="M3 29L6.93204 30L138 29C138 29 138 32 134.068 32C130.136 32 8.24272 32 5.62136 32C3 32 3 29 3 29Z" fill="#006388"/>
<rect x="3" y="3" width="134" height="28" rx="2" fill="#008EC2"/>
<rect x="134.094" y="26" width="2.60376" height="1" fill="#11536B"/>
<path d="M0 26L3.90566 27L135.396 26C135.396 26 135.396 29 131.491 29C127.585 29 5.20755 29 2.60377 29C0 29 0 26 0 26Z" fill="#006388"/>
<path d="M133 0C133 0 136 1 136 3C136 5 136 26 136 26H135V6L133 0Z" fill="#006F98"/>
<rect width="135" height="28" rx="2" fill="#00AEEF"/>
<mask id="mask0" mask-type="alpha" maskUnits="userSpaceOnUse" x="8" y="5" width="18" height="18">
<circle cx="17" cy="14" r="9" fill="#009BD4"/>
</mask>
<g mask="url(#mask0)">
<circle cx="17" cy="14" r="9" fill="#006F98"/>
<circle cx="18" cy="15" r="9" fill="#008EC2"/>
</g>
<mask id="mask1" mask-type="alpha" maskUnits="userSpaceOnUse" x="43" y="5" width="18" height="18">
<circle cx="52" cy="14" r="9" fill="#009BD4"/>
</mask>
<g mask="url(#mask1)">
<circle cx="52" cy="14" r="9" fill="#006F98"/>
<circle cx="53" cy="15" r="9" fill="#008EC2"/>
</g>
<mask id="mask2" mask-type="alpha" maskUnits="userSpaceOnUse" x="77" y="5" width="18" height="18">
<circle cx="86" cy="14" r="9" fill="#009BD4"/>
</mask>
<g mask="url(#mask2)">
<circle cx="86" cy="14" r="9" fill="#006F98"/>
<circle cx="87" cy="15" r="9" fill="#008EC2"/>
</g>
<mask id="mask3" mask-type="alpha" maskUnits="userSpaceOnUse" x="111" y="5" width="18" height="18">
<circle cx="120" cy="14" r="9" fill="#009BD4"/>
</mask>
<g mask="url(#mask3)">
<circle cx="120" cy="14" r="9" fill="#006F98"/>
<circle cx="121" cy="15" r="9" fill="#008EC2"/>
</g>
<path d="M136 6L137 7V27L136 26V6Z" fill="#006F98"/>
</svg>
