<svg width="106" height="32" viewBox="0 0 106 32" fill="none" xmlns="http://www.w3.org/2000/svg">
<path d="M104 3C104 3 106 4 106 5.89655C106 7.7931 106 29 106 29H105L104 3Z" fill="#006F98"/>
<path d="M3 29L6 30L106 29C106 29 106 32 103 32C100 32 7 32 5 32C3 32 3 29 3 29Z" fill="#006388"/>
<rect x="3" y="3" width="102" height="28" rx="2" fill="#008EC2"/>
<rect x="103" y="26" width="2" height="1" fill="#11536B"/>
<path d="M0 26L3 27L104 26C104 26 104 29 101 29C98 29 4 29 2 29C0 29 0 26 0 26Z" fill="#006388"/>
<path d="M101 0C101 0 104 1 104 3C104 5 104 26 104 26H103V6L101 0Z" fill="#006F98"/>
<rect width="103" height="28" rx="2" fill="#00AEEF"/>
<mask id="mask0" mask-type="alpha" maskUnits="userSpaceOnUse" x="8" y="5" width="18" height="18">
<circle cx="17" cy="14" r="9" fill="#009BD4"/>
</mask>
<g mask="url(#mask0)">
<circle cx="17" cy="14" r="9" fill="#006F98"/>
<circle cx="18" cy="15" r="9" fill="#008EC2"/>
</g>
<mask id="mask1" mask-type="alpha" maskUnits="userSpaceOnUse" x="43" y="5" width="18" height="18">
<circle cx="52" cy="14" r="9" fill="#009BD4"/>
</mask>
<g mask="url(#mask1)">
<circle cx="52" cy="14" r="9" fill="#006F98"/>
<circle cx="53" cy="15" r="9" fill="#008EC2"/>
</g>
<mask id="mask2" mask-type="alpha" maskUnits="userSpaceOnUse" x="77" y="5" width="18" height="18">
<circle cx="86" cy="14" r="9" fill="#009BD4"/>
</mask>
<g mask="url(#mask2)">
<circle cx="86" cy="14" r="9" fill="#006F98"/>
<circle cx="87" cy="15" r="9" fill="#008EC2"/>
</g>
<path d="M104 6L105 7V27L104 26V6Z" fill="#006F98"/>
</svg>
