<svg width="660" height="359" viewBox="0 0 660 359" fill="none" xmlns="http://www.w3.org/2000/svg">
<g clip-path="url(#clip0)">
<path d="M387.747 265.864H10.9639C6.94388 265.864 3.65479 269.142 3.65479 273.148V288.445C3.65479 292.451 6.94388 295.729 10.9639 295.729H33.2566C34.353 295.729 35.4493 295.364 36.1802 295L59.9348 284.074C61.0312 283.71 61.7621 283.346 62.8584 283.346H325.986C326.717 283.346 327.813 283.346 328.544 283.71L356.684 294.636C357.415 295 358.511 295 359.242 295H387.382C391.402 295 394.691 291.722 394.691 287.716V272.42C395.057 269.142 391.767 265.864 387.747 265.864Z" fill="#9FE1D5"/>
<path d="M162.627 153.728H159.704C150.202 153.728 142.527 146.08 142.527 136.611V76.8826H162.627V153.728V153.728Z" fill="#7CBEB3"/>
<g filter="url(#filter0_d)">
<path d="M388.642 276.79H13.0737C5.68421 276.79 0 272.434 0 266.931V199.753C0 194.709 5.11579 190.582 11.9368 190.123C80.7158 185.309 75.1579 182.099 161.842 182.099C246.253 182.099 322.705 185.309 390.063 190.123C396.884 190.582 402 194.709 402 199.753V266.931C402 272.434 396.032 276.79 388.642 276.79Z" fill="#F0F8FA"/>
</g>
<path d="M388.642 211.235H13.0737C5.68421 211.235 0 210.397 0 209.339V196.42C0 195.45 5.11579 194.656 11.9368 194.568C80.7158 193.642 75.1579 193.025 161.842 193.025C246.253 193.025 322.705 193.642 390.063 194.568C396.884 194.656 402 195.45 402 196.42V209.339C402 210.397 396.032 211.235 388.642 211.235Z" fill="#E2EBED"/>
<path d="M401.972 194.896C402.459 199.967 396.612 203.951 388.33 203.951H13.6681C5.87282 203.951 -0.460857 199.604 0.0263498 194.896C8.79607 133.323 17.0786 103.986 25.8483 42.4133C27.3099 32.272 37.5412 23.5793 52.6446 19.233C53.6191 18.8708 55.0807 18.5083 56.0551 18.5083C90.6468 9.45356 143.265 -0.687708 208.064 0.0366748C266.528 0.761058 313.787 9.81575 345.943 18.5083C346.917 18.8705 348.379 19.2329 349.353 19.5951C364.457 23.5792 374.201 32.6341 375.663 42.7754L401.972 194.896Z" fill="white"/>
<path d="M203.252 16.8142C238.524 17.1072 267.036 21.7939 286.436 25.8949C267.036 18.8647 238.23 11.5415 203.252 10.9557C164.158 10.3698 132.413 18.5717 111.543 25.8949C132.413 21.501 164.158 16.5213 203.252 16.8142Z" fill="#F2F2F2"/>
<path d="M299.673 36.5896C273.425 30.7775 239.886 25.4939 201 25.4939C162.114 25.4939 128.575 30.7775 102.327 36.5896C102.327 66.7067 102.327 97.352 102.327 127.469H299.673V36.5896Z" fill="#003F52"/>
<path d="M296.018 36.4197V123.827H102.327C102.327 125.92 102.327 125.376 102.327 127.469H299.673V37.4662C298.214 37.4662 297.476 36.9429 296.018 36.4197Z" fill="black"/>
<g opacity="0.6">
<path opacity="0.2" d="M208.289 123.827H143.002L169.245 25.4939H233.891L208.289 123.827Z" fill="white"/>
<path opacity="0.2" d="M134.681 123.827H120.6L146.202 25.4939H160.284L134.681 123.827Z" fill="white"/>
</g>
<path d="M236.732 193.079H237.894L239.78 187.584L241.665 193.079H242.828L245.503 185.377H244.088L242.257 191.047L240.372 185.355H239.231L237.346 191.047L235.515 185.377H234.057L236.732 193.079Z" fill="black"/>
<path d="M245.244 193.025H246.625L247.414 191.178H251.043L251.822 193.025H253.247L249.87 185.322H248.62L245.244 193.025ZM247.908 189.987L249.223 186.928L250.55 189.987H247.908Z" fill="black"/>
<path d="M255.464 193.025H256.823V186.622H259.257V185.377H253.03V186.622H255.464V193.025Z" fill="black"/>
<path d="M142.896 193.025H144.277L145.067 191.178H148.696L149.474 193.025H150.899L147.523 185.322H146.273L142.896 193.025ZM145.56 189.987L146.876 186.928L148.202 189.987H145.56Z" fill="black"/>
<path d="M152.216 193.025H153.542V187.562L155.943 191.146H155.987L158.41 187.54V193.025H159.758V185.377H158.322L155.987 188.993L153.652 185.377H152.216V193.025Z" fill="black"/>
<path d="M161.734 193.025H163.082V190.566H164.606C166.295 190.566 167.676 189.671 167.676 187.955V187.933C167.676 186.393 166.547 185.377 164.76 185.377H161.734V193.025ZM163.082 189.354V186.6H164.65C165.659 186.6 166.306 187.07 166.306 187.966V187.988C166.306 188.786 165.67 189.354 164.65 189.354H163.082Z" fill="black"/>
<path d="M53.1014 193.024H54.4609V186.622H56.8948V185.376H50.6675V186.622H53.1014V193.024Z" fill="black"/>
<path d="M58.4016 193.024H59.7502V185.376H58.4016V193.024Z" fill="black"/>
<path d="M61.8046 193.024H63.1312V187.561L65.5322 191.145H65.5761L67.999 187.54V193.024H69.3476V185.376H67.9113L65.5761 188.993L63.2408 185.376H61.8046V193.024Z" fill="black"/>
<path d="M71.3228 193.024H77.0677V191.823H72.6713V189.768H76.5196V188.567H72.6713V186.578H77.0129V185.376H71.3228V193.024Z" fill="black"/>
<path d="M315.055 193.079H316.239L319.43 185.377H317.971L315.669 191.255L313.356 185.377H311.865L315.055 193.079Z" fill="black"/>
<path d="M323.936 193.156C326.293 193.156 327.96 191.353 327.96 189.201V189.179C327.96 187.027 326.315 185.246 323.958 185.246C321.601 185.246 319.934 187.048 319.934 189.201V189.223C319.934 191.375 321.579 193.156 323.936 193.156ZM323.958 191.921C322.434 191.921 321.349 190.687 321.349 189.201V189.179C321.349 187.693 322.412 186.48 323.936 186.48C325.46 186.48 326.545 187.715 326.545 189.201V189.223C326.545 190.709 325.482 191.921 323.958 191.921Z" fill="black"/>
<path d="M329.589 193.025H334.972V191.801H330.938V185.377H329.589V193.025Z" fill="black"/>
<path d="M337.171 193.025H338.53V186.622H340.964V185.377H334.737V186.622H337.171V193.025Z" fill="black"/>
<path d="M340.751 193.025H342.133L342.922 191.178H346.551L347.33 193.025H348.755L345.378 185.322H344.128L340.751 193.025ZM343.416 189.987L344.731 186.928L346.058 189.987H343.416Z" fill="black"/>
<path d="M353.24 193.156C354.599 193.156 355.685 192.61 356.441 191.965V188.753H353.174V189.922H355.136V191.353C354.665 191.703 354.007 191.932 353.284 191.932C351.716 191.932 350.674 190.774 350.674 189.201V189.179C350.674 187.715 351.749 186.48 353.163 186.48C354.139 186.48 354.72 186.797 355.312 187.3L356.167 186.284C355.378 185.617 354.555 185.246 353.218 185.246C350.904 185.246 349.26 187.059 349.26 189.201V189.223C349.26 191.452 350.839 193.156 353.24 193.156Z" fill="black"/>
<path d="M358.197 193.025H363.942V191.823H359.546V189.769H363.394V188.567H359.546V186.579H363.887V185.377H358.197V193.025Z" fill="black"/>
<path d="M268.61 266.472C282.065 266.472 292.973 255.601 292.973 242.192C292.973 228.783 282.065 217.912 268.61 217.912C255.154 217.912 244.246 228.783 244.246 242.192C244.246 255.601 255.154 266.472 268.61 266.472Z" fill="black"/>
<path fill-rule="evenodd" clip-rule="evenodd" d="M268.609 220.946C256.836 220.946 247.291 230.458 247.291 242.191C247.291 253.924 256.836 263.436 268.609 263.436C280.383 263.436 289.927 253.924 289.927 242.191C289.927 230.458 280.383 220.946 268.609 220.946ZM241.2 242.191C241.2 227.106 253.472 214.876 268.609 214.876C283.747 214.876 296.018 227.106 296.018 242.191C296.018 257.277 283.747 269.506 268.609 269.506C253.472 269.506 241.2 257.277 241.2 242.191Z" fill="#C1272D"/>
<path d="M133.391 266.471C146.847 266.471 157.754 255.601 157.754 242.191C157.754 228.782 146.847 217.911 133.391 217.911C119.935 217.911 109.027 228.782 109.027 242.191C109.027 255.601 119.935 266.471 133.391 266.471Z" fill="black"/>
<path fill-rule="evenodd" clip-rule="evenodd" d="M133.391 220.946C121.617 220.946 112.073 230.458 112.073 242.191C112.073 253.924 121.617 263.436 133.391 263.436C145.165 263.436 154.709 253.924 154.709 242.191C154.709 230.458 145.165 220.946 133.391 220.946ZM105.982 242.191C105.982 227.106 118.253 214.876 133.391 214.876C148.529 214.876 160.8 227.106 160.8 242.191C160.8 257.277 148.529 269.506 133.391 269.506C118.253 269.506 105.982 257.277 105.982 242.191Z" fill="#444444"/>
<path fill-rule="evenodd" clip-rule="evenodd" d="M191.405 250.205L200.629 234.533L209.852 250.205H191.405ZM199.999 233.446C200.281 232.967 200.976 232.967 201.258 233.446L211.119 250.2C211.405 250.686 211.054 251.296 210.49 251.296H190.767C190.203 251.296 189.852 250.686 190.138 250.2L199.999 233.446ZM199.715 238.743H201.541L199.35 243.473L202.271 241.836L200.628 248.022L201.541 247.476L199.715 249.841L199.35 246.93L199.898 247.658L200.628 243.473L197.89 245.111L199.715 238.743Z" fill="black"/>
<circle cx="133" cy="242" r="13" fill="#2E2E2E"/>
<path d="M133.5 242.5C133.167 271.833 162.1 330.5 280.5 330.5C398.9 330.5 627.667 312.667 659 310" stroke="#444444" stroke-width="14" stroke-linecap="round"/>
</g>
<defs>
<filter id="filter0_d" x="-4" y="182.099" width="410" height="102.691" filterUnits="userSpaceOnUse" color-interpolation-filters="sRGB">
<feFlood flood-opacity="0" result="BackgroundImageFix"/>
<feColorMatrix in="SourceAlpha" type="matrix" values="0 0 0 0 0 0 0 0 0 0 0 0 0 0 0 0 0 0 127 0"/>
<feOffset dy="4"/>
<feGaussianBlur stdDeviation="2"/>
<feColorMatrix type="matrix" values="0 0 0 0 0 0 0 0 0 0 0 0 0 0 0 0 0 0 0.25 0"/>
<feBlend mode="normal" in2="BackgroundImageFix" result="effect1_dropShadow"/>
<feBlend mode="normal" in="SourceGraphic" in2="effect1_dropShadow" result="shape"/>
</filter>
<clipPath id="clip0">
<rect width="660" height="359" fill="white"/>
</clipPath>
</defs>
</svg>
