<svg width="64" height="132" viewBox="0 0 64 132" fill="none" xmlns="http://www.w3.org/2000/svg">
<path d="M22.459 5C22.459 2.23858 24.6976 0 27.459 0H36.459C39.2204 0 41.459 2.23858 41.459 5V35C41.459 36.6569 40.1158 38 38.459 38H25.459C23.8021 38 22.459 36.6569 22.459 35V5Z" fill="#99B2C4"/>
<rect x="28.459" y="38" width="7" height="19" fill="#99B2C4"/>
<circle cx="31.959" cy="11.2029" r="4.5" transform="rotate(-90 31.959 11.2029)" fill="#668BA6"/>
<circle cx="31.959" cy="10.5" r="4.5" transform="rotate(-90 31.959 10.5)" fill="#DDDDDD"/>
<path fill-rule="evenodd" clip-rule="evenodd" d="M29.4148 10.6641L29.6736 11.63L31.6054 11.1124L32.1231 13.0442L33.089 12.7854L32.5714 10.8536L34.5032 10.3359L34.2444 9.37L32.3125 9.88764L31.7949 7.95579L30.829 8.21461L31.3466 10.1465L29.4148 10.6641Z" fill="#999999"/>
<circle cx="31.959" cy="26.2029" r="4.5" transform="rotate(-90 31.959 26.2029)" fill="#668BA6"/>
<circle cx="31.959" cy="25.5" r="4.5" transform="rotate(-90 31.959 25.5)" fill="#DDDDDD"/>
<path fill-rule="evenodd" clip-rule="evenodd" d="M31.1423 23.0849L30.2763 23.5849L31.2763 25.317L29.5442 26.317L30.0442 27.183L31.7763 26.183L32.7763 27.915L33.6423 27.415L32.6423 25.683L34.3743 24.683L33.8743 23.817L32.1423 24.817L31.1423 23.0849Z" fill="#999999"/>
<path d="M28.459 42C28.459 38.8 26.2923 38.3333 24.959 38L28.959 37L31.459 40C30.6257 42.3333 28.459 45.2 28.459 42Z" fill="#99B2C4"/>
<path d="M35.459 42C35.459 38.8 37.6257 38.3333 38.959 38L34.959 37L32.459 40C33.2923 42.3333 35.459 45.2 35.459 42Z" fill="#99B2C4"/>
<path d="M37.459 0V0C39.6681 0 41.459 1.79086 41.459 4V35C41.459 36.6569 40.1158 38 38.459 38H37.459V0Z" fill="#668BA6"/>
<rect x="33.459" y="38" width="2" height="19" fill="#668BA6"/>
<path d="M38.9589 38C36.5873 38.7905 35.4589 40 35.4589 42H33.459V37C33.459 35.5 37.4591 36 37.4591 34C39.0399 34.2819 40.7292 37.4099 38.9589 38Z" fill="#668BA6"/>
<path opacity="0.3" d="M23.459 4C23.459 3 24.459 2 24.459 2V4V35V37C24.459 37 23.459 36 23.459 35C23.459 34 23.459 5 23.459 4Z" fill="white"/>
<path fill-rule="evenodd" clip-rule="evenodd" d="M51.6735 112.711C55.6621 106.264 57.89 97.4023 57.1663 87.6709C56.4427 77.9394 52.9286 69.5051 48.0302 63.7186C43.1286 57.9282 37.0772 55.0076 31.0557 55.4554C25.0342 55.9031 19.4813 59.6867 15.4901 66.1384C11.5015 72.5858 9.2736 81.4471 9.99727 91.1786C10.7209 100.91 14.2351 109.344 19.1334 115.131C24.035 120.921 30.0864 123.842 36.1079 123.394C42.1294 122.946 47.6823 119.163 51.6735 112.711ZM36.4045 127.383C51.633 126.251 62.7143 108.338 61.1553 87.3742C59.5964 66.4104 45.9875 50.3339 30.7591 51.4664C15.5306 52.5988 4.44933 70.5114 6.00828 91.4752C7.56724 112.439 21.1761 128.516 36.4045 127.383Z" fill="#AD210C"/>
<path fill-rule="evenodd" clip-rule="evenodd" d="M45.0104 117.498C50.0056 111.795 53.6616 103.421 54.5494 93.7028C55.4372 83.985 53.3591 75.0873 49.48 68.5736C45.5982 62.0554 40.1099 58.1787 34.0969 57.6293C28.0838 57.08 21.9839 59.8981 16.9853 65.6049C11.99 71.3079 8.33405 79.6817 7.44624 89.3996C6.55844 99.1175 8.63651 108.015 12.5157 114.529C16.3975 121.047 21.8857 124.924 27.8988 125.473C33.9119 126.022 40.0117 123.204 45.0104 117.498ZM27.5349 129.457C42.742 130.846 56.6203 115.001 58.5328 94.0668C60.4453 73.1322 49.6679 55.0352 34.4608 53.6459C19.2536 52.2566 5.37537 68.1012 3.46283 89.0357C1.5503 109.97 12.3277 128.067 27.5349 129.457Z" fill="black"/>
</svg>
