<svg width="64" height="132" viewBox="0 0 64 132" fill="none" xmlns="http://www.w3.org/2000/svg">
<path d="M22.459 5C22.459 2.23858 24.6976 0 27.459 0H36.459C39.2204 0 41.459 2.23858 41.459 5V35C41.459 36.6569 40.1158 38 38.459 38H25.459C23.8021 38 22.459 36.6569 22.459 35V5Z" fill="#99B2C4"/>
<rect x="28.459" y="38" width="7" height="19" fill="#99B2C4"/>
<circle cx="31.959" cy="11.2029" r="4.5" transform="rotate(-90 31.959 11.2029)" fill="#668BA6"/>
<circle cx="31.959" cy="10.5" r="4.5" transform="rotate(-90 31.959 10.5)" fill="#DDDDDD"/>
<path fill-rule="evenodd" clip-rule="evenodd" d="M29.4148 10.6641L29.6736 11.63L31.6054 11.1124L32.1231 13.0442L33.089 12.7854L32.5714 10.8536L34.5032 10.3359L34.2444 9.37L32.3125 9.88764L31.7949 7.95579L30.829 8.21461L31.3466 10.1465L29.4148 10.6641Z" fill="#999999"/>
<circle cx="31.959" cy="26.2029" r="4.5" transform="rotate(-90 31.959 26.2029)" fill="#668BA6"/>
<circle cx="31.959" cy="25.5" r="4.5" transform="rotate(-90 31.959 25.5)" fill="#DDDDDD"/>
<path fill-rule="evenodd" clip-rule="evenodd" d="M31.1423 23.0849L30.2763 23.5849L31.2763 25.317L29.5442 26.317L30.0442 27.183L31.7763 26.183L32.7763 27.915L33.6423 27.415L32.6423 25.683L34.3743 24.683L33.8743 23.817L32.1423 24.817L31.1423 23.0849Z" fill="#999999"/>
<path d="M28.459 42C28.459 38.8 26.2923 38.3333 24.959 38L28.959 37L31.459 40C30.6257 42.3333 28.459 45.2 28.459 42Z" fill="#99B2C4"/>
<path d="M35.459 42C35.459 38.8 37.6257 38.3333 38.959 38L34.959 37L32.459 40C33.2923 42.3333 35.459 45.2 35.459 42Z" fill="#99B2C4"/>
<path d="M37.459 0V0C39.6681 0 41.459 1.79086 41.459 4V35C41.459 36.6569 40.1158 38 38.459 38H37.459V0Z" fill="#668BA6"/>
<rect x="33.459" y="38" width="2" height="19" fill="#668BA6"/>
<path d="M38.9589 38C36.5873 38.7905 35.4589 40 35.4589 42H33.459V37C33.459 35.5 37.4591 36 37.4591 34C39.0399 34.2819 40.7292 37.4099 38.9589 38Z" fill="#668BA6"/>
<path opacity="0.3" d="M23.459 4C23.459 3 24.459 2 24.459 2V4V35V37C24.459 37 23.459 36 23.459 35C23.459 34 23.459 5 23.459 4Z" fill="white"/>
</svg>
