<svg width="161" height="296" viewBox="0 0 161 296" fill="none" xmlns="http://www.w3.org/2000/svg">
<g filter="url(#filter0_d)">
<path d="M73.6911 275.456C69.7711 275.456 63.7881 274.019 60.4871 272.992C57.1871 271.966 54.5051 260.058 54.5051 260.058C45.8401 226.387 34.1121 176.844 33.8451 146.977C33.7921 141.058 33.8441 26.1069 33.8441 26.1069H113.456V146.977C113.456 177.826 99.6851 226.387 91.0211 260.058C91.0211 260.058 88.3391 271.966 85.0381 272.992C81.7371 274.019 75.7541 275.456 71.8341 275.456" fill="#868CA6"/>
<path opacity="0.7" d="M73.4516 271.318C69.9436 271.318 64.5796 270.086 61.6916 269.06C58.8036 268.238 56.3276 257.357 56.3276 257.357C48.4886 227.177 40.5366 182.682 38.2676 156.197V32.395H109.034C109.034 32.395 110.272 142.236 109.034 156.197C106.764 182.682 96.9696 226.971 89.1306 257.152C89.1306 257.152 86.6546 267.828 83.7666 268.854C80.8786 269.676 75.5146 271.113 72.0066 271.113" fill="#C0C3D2"/>
<path d="M24.998 26.1069H126.724V34.9209H24.998V26.1069Z" fill="#868CA6"/>
<path opacity="0.7" d="M73.4516 271.318C69.9436 271.318 64.5796 270.086 61.6916 269.059C58.8036 268.238 56.3276 257.357 56.3276 257.357C48.4886 227.176 40.5366 182.682 38.2676 156.197V140.688H109.034V156.197C106.764 182.682 96.9696 226.971 89.1306 257.151C89.1306 257.151 86.6546 267.828 83.7666 268.854C80.8786 269.675 75.5146 271.112 72.0066 271.112" fill="#00AEEF"/>
<path d="M33.8457 63.2439H113.458V133.756H33.8457V63.2439Z" fill="white"/>
<path d="M73.6501 120.535C85.8633 120.535 95.7641 110.67 95.7641 98.5001C95.7641 86.3305 85.8633 76.4651 73.6501 76.4651C61.4369 76.4651 51.5361 86.3305 51.5361 98.5001C51.5361 110.67 61.4369 120.535 73.6501 120.535Z" fill="#9771C8"/>
<path d="M91.3424 34.9209H113.456V151.746C113.456 164.726 104.61 205.832 104.61 205.832C104.61 205.832 87.8864 269.788 86.9194 270.734C85.9514 271.681 73.6504 272.898 73.6504 272.898L91.3424 151.746V34.9209Z" fill="black" fill-opacity="0.1"/>
<path d="M16.1533 12.886H131.147V21.7H16.1533V12.886Z" fill="#868CA6"/>
<path d="M38.2676 21.7H109.034V26.1069H38.2676V21.7Z" fill="#577898"/>
<path fill-rule="evenodd" clip-rule="evenodd" d="M142.97 17.835C144.077 19.696 144.417 21.815 144.417 23.903C144.417 25.991 144.077 28.11 142.97 29.972C141.8 31.939 140.07 33.126 138.23 33.814C136.507 34.457 134.606 34.697 132.806 34.809C131.009 34.921 128.958 34.921 126.826 34.921H126.725V26.107C128.98 26.107 130.763 26.105 132.255 26.012C133.772 25.917 134.635 25.744 135.124 25.561C135.21 25.5293 135.294 25.4909 135.375 25.446C135.414 25.3496 135.444 25.2498 135.465 25.148C135.521 24.892 135.571 24.493 135.571 23.903C135.571 23.313 135.521 22.915 135.465 22.659C135.444 22.5568 135.414 22.4567 135.375 22.36C135.294 22.3151 135.21 22.2766 135.124 22.245C134.635 22.063 133.772 21.889 132.255 21.794C130.763 21.701 128.98 21.7 126.725 21.7V12.886H126.825C128.958 12.886 131.009 12.886 132.806 12.998C134.606 13.11 136.507 13.349 138.23 13.993C140.07 14.68 141.8 15.867 142.97 17.835V17.835Z" fill="#868CA6"/>
</g>
<path d="M64.1787 158.304C64.1787 162.17 61.0447 165.304 57.1787 165.304C53.3127 165.304 50.1787 162.17 50.1787 158.304C50.1787 154.438 53.3127 151.304 57.1787 151.304C61.0447 151.304 64.1787 154.438 64.1787 158.304Z" stroke="#309DCB" stroke-width="4"/>
<path d="M93.1787 169.304C93.1787 173.17 90.0447 176.304 86.1787 176.304C82.3127 176.304 79.1787 173.17 79.1787 169.304C79.1787 165.438 82.3127 162.304 86.1787 162.304C90.0447 162.304 93.1787 165.438 93.1787 169.304Z" stroke="#309DCB" stroke-width="4"/>
<path d="M70.1787 187.304C70.1787 191.17 67.0447 194.304 63.1787 194.304C59.3127 194.304 56.1787 191.17 56.1787 187.304C56.1787 183.438 59.3127 180.304 63.1787 180.304C67.0447 180.304 70.1787 183.438 70.1787 187.304Z" stroke="#309DCB" stroke-width="4"/>
<path d="M88.1787 210.304C88.1787 214.17 85.0447 217.304 81.1787 217.304C77.3127 217.304 74.1787 214.17 74.1787 210.304C74.1787 206.438 77.3127 203.304 81.1787 203.304C85.0447 203.304 88.1787 206.438 88.1787 210.304Z" stroke="#309DCB" stroke-width="4"/>
<path d="M70.1787 230.304C70.1787 234.17 67.0447 237.304 63.1787 237.304C59.3127 237.304 56.1787 234.17 56.1787 230.304C56.1787 226.438 59.3127 223.304 63.1787 223.304C67.0447 223.304 70.1787 226.438 70.1787 230.304Z" stroke="#309DCB" stroke-width="4"/>
<path d="M81.1787 258.304C81.1787 262.17 78.0447 265.304 74.1787 265.304C70.3127 265.304 67.1787 262.17 67.1787 258.304C67.1787 254.438 70.3127 251.304 74.1787 251.304C78.0447 251.304 81.1787 254.438 81.1787 258.304Z" stroke="#309DCB" stroke-width="4"/>
<defs>
<filter id="filter0_d" x="0.15332" y="0.885986" width="160.263" height="294.57" filterUnits="userSpaceOnUse" color-interpolation-filters="sRGB">
<feFlood flood-opacity="0" result="BackgroundImageFix"/>
<feColorMatrix in="SourceAlpha" type="matrix" values="0 0 0 0 0 0 0 0 0 0 0 0 0 0 0 0 0 0 127 0"/>
<feOffset dy="4"/>
<feGaussianBlur stdDeviation="8"/>
<feColorMatrix type="matrix" values="0 0 0 0 0 0 0 0 0 0 0 0 0 0 0 0 0 0 0.25 0"/>
<feBlend mode="normal" in2="BackgroundImageFix" result="effect1_dropShadow"/>
<feBlend mode="normal" in="SourceGraphic" in2="effect1_dropShadow" result="shape"/>
</filter>
</defs>
</svg>
