<svg width="161" height="296" viewBox="0 0 161 296" fill="none" xmlns="http://www.w3.org/2000/svg">
<g filter="url(#filter0_d)">
<path d="M74.0895 275.152C70.1695 275.152 64.1865 273.715 60.8855 272.688C57.5855 271.662 54.9035 259.754 54.9035 259.754C46.2385 226.083 34.5105 176.54 34.2435 146.673C34.1905 140.754 34.2425 25.803 34.2425 25.803H113.855V146.673C113.855 177.522 100.084 226.083 91.4195 259.754C91.4195 259.754 88.7375 271.662 85.4365 272.688C82.1355 273.715 76.1526 275.152 72.2326 275.152" fill="#868CA6"/>
<path opacity="0.7" d="M73.85 271.014C70.342 271.014 64.978 269.782 62.09 268.756C59.202 267.934 56.726 257.053 56.726 257.053C48.887 226.873 40.935 182.378 38.666 155.893V32.0911H109.432C109.432 32.0911 110.67 141.932 109.432 155.893C107.162 182.378 97.368 226.667 89.529 256.848C89.529 256.848 87.053 267.524 84.165 268.55C81.277 269.372 75.913 270.809 72.405 270.809" fill="#C0C3D2"/>
<path d="M25.3965 25.803H127.122V34.617H25.3965V25.803Z" fill="#868CA6"/>
<path opacity="0.7" d="M73.85 271.014C70.342 271.014 64.978 269.782 62.09 268.755C59.202 267.934 56.726 257.053 56.726 257.053C48.887 226.872 40.935 182.378 38.666 155.893V140.384H109.432V155.893C107.162 182.378 97.368 226.667 89.529 256.847C89.529 256.847 87.053 267.524 84.165 268.55C81.277 269.371 75.913 270.808 72.405 270.808" fill="#00AEEF"/>
<path d="M34.2441 62.9399H113.856V133.452H34.2441V62.9399Z" fill="white"/>
<path d="M74.0486 120.231C86.2618 120.231 96.1626 110.366 96.1626 98.1961C96.1626 86.0265 86.2618 76.1611 74.0486 76.1611C61.8353 76.1611 51.9346 86.0265 51.9346 98.1961C51.9346 110.366 61.8353 120.231 74.0486 120.231Z" fill="#9771C8"/>
<path d="M91.7408 34.6169H113.855V151.442C113.855 164.422 105.009 205.528 105.009 205.528C105.009 205.528 88.2848 269.484 87.3178 270.43C86.3498 271.377 74.0488 272.594 74.0488 272.594L91.7408 151.442V34.6169Z" fill="black" fill-opacity="0.1"/>
<path d="M16.5518 12.582H131.546V21.396H16.5518V12.582Z" fill="#868CA6"/>
<path d="M38.666 21.396H109.432V25.803H38.666V21.396Z" fill="#577898"/>
<path fill-rule="evenodd" clip-rule="evenodd" d="M143.368 17.531C144.475 19.392 144.815 21.511 144.815 23.599C144.815 25.687 144.475 27.806 143.368 29.668C142.198 31.635 140.468 32.822 138.628 33.51C136.905 34.153 135.004 34.393 133.204 34.505C131.407 34.617 129.356 34.617 127.224 34.617H127.123V25.803C129.378 25.803 131.161 25.801 132.653 25.708C134.17 25.613 135.033 25.44 135.522 25.257C135.609 25.2254 135.693 25.1869 135.773 25.142C135.812 25.0456 135.842 24.9459 135.863 24.844C135.919 24.588 135.969 24.189 135.969 23.599C135.969 23.009 135.919 22.611 135.863 22.355C135.842 22.2529 135.812 22.1528 135.773 22.056C135.693 22.0111 135.609 21.9727 135.522 21.941C135.033 21.759 134.17 21.585 132.653 21.49C131.161 21.397 129.378 21.396 127.123 21.396V12.582H127.223C129.356 12.582 131.407 12.582 133.204 12.694C135.004 12.806 136.905 13.045 138.628 13.689C140.468 14.376 142.198 15.563 143.368 17.531V17.531Z" fill="#868CA6"/>
</g>
<defs>
<filter id="filter0_d" x="0.551758" y="0.582031" width="160.263" height="294.57" filterUnits="userSpaceOnUse" color-interpolation-filters="sRGB">
<feFlood flood-opacity="0" result="BackgroundImageFix"/>
<feColorMatrix in="SourceAlpha" type="matrix" values="0 0 0 0 0 0 0 0 0 0 0 0 0 0 0 0 0 0 127 0"/>
<feOffset dy="4"/>
<feGaussianBlur stdDeviation="8"/>
<feColorMatrix type="matrix" values="0 0 0 0 0 0 0 0 0 0 0 0 0 0 0 0 0 0 0.25 0"/>
<feBlend mode="normal" in2="BackgroundImageFix" result="effect1_dropShadow"/>
<feBlend mode="normal" in="SourceGraphic" in2="effect1_dropShadow" result="shape"/>
</filter>
</defs>
</svg>
