<svg width="162" height="296" viewBox="0 0 162 296" fill="none" xmlns="http://www.w3.org/2000/svg">
<g filter="url(#filter0_d)">
<path d="M74.3903 275.014C70.4703 275.014 64.4873 273.577 61.1863 272.55C57.8863 271.524 55.2043 259.616 55.2043 259.616C46.5393 225.945 34.8113 176.402 34.5443 146.535C34.4913 140.616 34.5433 25.665 34.5433 25.665H114.155V146.535C114.155 177.384 100.384 225.945 91.7203 259.616C91.7203 259.616 89.0383 271.524 85.7373 272.55C82.4363 273.577 76.4533 275.014 72.5333 275.014" fill="#868CA6"/>
<path opacity="0.7" d="M74.1508 270.876C70.6428 270.876 65.2788 269.644 62.3908 268.618C59.5028 267.796 57.0268 256.915 57.0268 256.915C49.1878 226.735 41.2358 182.24 38.9668 155.755V31.9531H109.733C109.733 31.9531 110.971 141.794 109.733 155.755C107.463 182.24 97.6688 226.529 89.8298 256.71C89.8298 256.71 87.3538 267.386 84.4658 268.412C81.5778 269.234 76.2138 270.671 72.7058 270.671" fill="#C0C3D2"/>
<path d="M25.6973 25.665H127.423V34.479H25.6973V25.665Z" fill="#868CA6"/>
<path opacity="0.7" d="M74.1508 270.876C70.6428 270.876 65.2788 269.644 62.3908 268.617C59.5028 267.796 57.0268 256.915 57.0268 256.915C49.1878 226.734 41.2358 182.24 38.9668 155.755V140.246H109.733V155.755C107.463 182.24 97.6688 226.529 89.8298 256.709C89.8298 256.709 87.3538 267.386 84.4658 268.412C81.5778 269.233 76.2138 270.67 72.7058 270.67" fill="#00AEEF"/>
<path d="M34.5449 62.802H114.157V133.314H34.5449V62.802Z" fill="white"/>
<path d="M74.3493 120.093C86.5626 120.093 96.4633 110.228 96.4633 98.0582C96.4633 85.8886 86.5626 76.0232 74.3493 76.0232C62.1361 76.0232 52.2354 85.8886 52.2354 98.0582C52.2354 110.228 62.1361 120.093 74.3493 120.093Z" fill="#9771C8"/>
<path d="M92.0416 34.479H114.156V151.304C114.156 164.284 105.31 205.39 105.31 205.39C105.31 205.39 88.5856 269.346 87.6186 270.292C86.6506 271.239 74.3496 272.456 74.3496 272.456L92.0416 151.304V34.479Z" fill="black" fill-opacity="0.1"/>
<path d="M16.8525 12.4441H131.847V21.2581H16.8525V12.4441Z" fill="#868CA6"/>
<path d="M38.9668 21.2581H109.733V25.6651H38.9668V21.2581Z" fill="#577898"/>
<path fill-rule="evenodd" clip-rule="evenodd" d="M143.669 17.3931C144.776 19.2541 145.116 21.3731 145.116 23.4611C145.116 25.5491 144.776 27.6681 143.669 29.5301C142.499 31.4971 140.769 32.6841 138.929 33.3721C137.206 34.0151 135.305 34.2551 133.505 34.3671C131.708 34.4791 129.657 34.4791 127.525 34.4791H127.424V25.6651C129.679 25.6651 131.462 25.6631 132.954 25.5701C134.471 25.4751 135.334 25.3021 135.823 25.1191C135.909 25.0874 135.993 25.049 136.074 25.0041C136.113 24.9077 136.143 24.808 136.164 24.7061C136.22 24.4501 136.27 24.0511 136.27 23.4611C136.27 22.8711 136.22 22.4731 136.164 22.2171C136.143 22.1149 136.113 22.0148 136.074 21.9181C135.993 21.8732 135.909 21.8347 135.823 21.8031C135.334 21.6211 134.471 21.4471 132.954 21.3521C131.462 21.2591 129.679 21.2581 127.424 21.2581V12.4441H127.524C129.657 12.4441 131.708 12.4441 133.505 12.5561C135.305 12.6681 137.206 12.9071 138.929 13.5511C140.769 14.2381 142.499 15.4251 143.669 17.3931V17.3931Z" fill="#868CA6"/>
</g>
<path d="M44.8779 148.862H72.8779V158.862H44.8779V148.862ZM76.8779 161.862H104.878V171.862H76.8779V161.862ZM49.8779 179.862H77.8779V189.862H49.8779V179.862ZM58.8779 199.862H86.8779V209.862H58.8779V199.862ZM65.8779 219.862H93.8779V229.862H65.8779V219.862ZM59.8779 240.862H87.8779V250.862H59.8779V240.862Z" fill="#309DCB"/>
<defs>
<filter id="filter0_d" x="0.852539" y="0.444092" width="160.263" height="294.57" filterUnits="userSpaceOnUse" color-interpolation-filters="sRGB">
<feFlood flood-opacity="0" result="BackgroundImageFix"/>
<feColorMatrix in="SourceAlpha" type="matrix" values="0 0 0 0 0 0 0 0 0 0 0 0 0 0 0 0 0 0 127 0"/>
<feOffset dy="4"/>
<feGaussianBlur stdDeviation="8"/>
<feColorMatrix type="matrix" values="0 0 0 0 0 0 0 0 0 0 0 0 0 0 0 0 0 0 0.25 0"/>
<feBlend mode="normal" in2="BackgroundImageFix" result="effect1_dropShadow"/>
<feBlend mode="normal" in="SourceGraphic" in2="effect1_dropShadow" result="shape"/>
</filter>
</defs>
</svg>
