<svg width="557" height="394" viewBox="0 0 557 394" fill="none" xmlns="http://www.w3.org/2000/svg">
<rect x="0.5" y="0.5" width="556" height="393" rx="4.5" fill="white" stroke="#668BA6"/>
<path d="M90.152 42.276H92.816V38.244C93.446 38.91 94.238 39.216 95.246 39.216C97.388 39.216 98.594 37.884 98.594 35.346V33.24C98.594 30.702 97.388 29.388 95.246 29.388C94.058 29.388 93.194 29.802 92.492 30.738L92.42 29.604H90.152V42.276ZM94.634 37.056C93.788 37.056 93.194 36.57 92.816 35.616V32.97C93.194 32.034 93.788 31.548 94.616 31.548C95.48 31.548 95.93 32.052 95.93 33.258V35.346C95.93 36.57 95.48 37.056 94.634 37.056ZM100.774 39H103.474V35.76L104.914 33.924L107.704 39H110.782L106.786 31.782L110.728 26.76H107.632L103.474 32.106V26.76H100.774V39ZM110.657 39H113.393L114.167 36.534H118.019L118.793 39H121.655L117.551 26.76H114.761L110.657 39ZM114.833 34.284L116.093 29.82L117.353 34.284H114.833ZM123.045 39H125.601V30.756L130.047 39H132.621V26.76H130.065V34.482L125.907 26.76H123.045V39ZM134.559 34.806H140.265V32.502H134.559V34.806ZM142.205 39H144.905V34.482H146.363L148.793 39H151.871L149.225 34.23C150.755 33.78 151.403 32.628 151.403 30.63C151.403 27.894 150.215 26.76 147.209 26.76H142.205V39ZM144.905 32.178V29.064H146.921C148.235 29.064 148.703 29.514 148.703 30.63C148.703 31.728 148.235 32.178 146.921 32.178H144.905ZM160.746 39.216C161.934 39.216 162.798 38.802 163.5 37.866L163.572 39H165.84V25.86H163.176V30.36C162.546 29.694 161.754 29.388 160.746 29.388C158.604 29.388 157.398 30.72 157.398 33.258V35.364C157.398 37.902 158.604 39.216 160.746 39.216ZM161.376 37.056C160.512 37.056 160.062 36.552 160.062 35.346V33.258C160.062 32.034 160.512 31.548 161.358 31.548C162.204 31.548 162.798 32.034 163.176 32.988V35.634C162.798 36.57 162.204 37.056 161.376 37.056ZM168.074 28.272H170.882V26.004H168.074V28.272ZM168.146 39H170.81V29.604H168.146V39ZM176.955 42.492C179.835 42.492 181.239 41.322 181.239 38.748V29.604H178.971L178.899 30.738C178.197 29.802 177.333 29.388 176.145 29.388C174.003 29.388 172.797 30.702 172.797 33.24V34.77C172.797 37.308 174.003 38.64 176.145 38.64C177.153 38.64 177.945 38.334 178.575 37.668V38.748C178.575 39.954 178.089 40.404 176.919 40.404C175.983 40.404 175.533 40.116 175.461 39.396H172.959C173.067 41.592 174.453 42.492 176.955 42.492ZM176.757 36.48C175.911 36.48 175.461 35.994 175.461 34.77V33.258C175.461 32.052 175.911 31.548 176.775 31.548C177.603 31.548 178.197 32.034 178.575 32.97V35.04C178.197 35.994 177.603 36.48 176.757 36.48ZM187.487 39.216C190.025 39.216 191.411 38.154 191.519 36.12H188.981C188.927 36.768 188.405 37.128 187.505 37.128C186.353 37.128 185.867 36.534 185.867 35.31V35.13H191.573V33.42C191.573 30.81 190.133 29.388 187.379 29.388C184.643 29.388 183.203 30.774 183.203 33.384V35.22C183.203 37.866 184.643 39.216 187.487 39.216ZM185.867 33.258C185.867 31.998 186.335 31.476 187.469 31.476C188.585 31.476 189.053 31.998 189.053 33.258H185.867ZM196.931 39.216C199.595 39.216 200.891 38.226 200.891 36.174C200.891 34.356 199.973 33.474 197.597 33.204C196.229 33.042 195.743 32.772 195.743 32.16C195.743 31.62 196.139 31.314 196.931 31.314C197.795 31.314 198.155 31.638 198.155 32.376H200.693C200.693 30.432 199.433 29.388 196.949 29.388C194.483 29.388 193.115 30.45 193.115 32.484C193.115 34.266 194.033 35.058 196.355 35.328C197.759 35.49 198.263 35.778 198.263 36.444C198.263 37.02 197.831 37.29 196.949 37.29C195.923 37.29 195.491 36.93 195.491 36.12H192.953C192.953 38.208 194.213 39.216 196.931 39.216ZM205.695 39H207.657V36.912H206.613C205.839 36.912 205.623 36.66 205.623 35.778V31.62H207.567V29.604H205.623V27.264H203.157L203.013 29.604H201.591V31.62H202.959V35.94C202.959 38.1 203.769 39 205.695 39ZM209.031 28.272H211.839V26.004H209.031V28.272ZM209.103 39H211.767V29.604H209.103V39ZM218.002 39.216C220.846 39.216 222.268 37.866 222.268 35.166V33.438C222.268 30.738 220.846 29.388 218.002 29.388C215.158 29.388 213.736 30.738 213.736 33.438V35.166C213.736 37.866 215.158 39.216 218.002 39.216ZM218.002 37.056C216.868 37.056 216.4 36.48 216.4 35.112V33.492C216.4 32.124 216.868 31.548 218.002 31.548C219.136 31.548 219.604 32.124 219.604 33.492V35.112C219.604 36.48 219.136 37.056 218.002 37.056ZM224.238 39H226.902V32.934C227.298 32.106 227.856 31.692 228.558 31.692C229.278 31.692 229.602 32.124 229.602 33.006V39H232.266V32.772C232.266 30.54 231.258 29.388 229.314 29.388C228.162 29.388 227.298 29.802 226.578 30.738L226.506 29.604H224.238V39ZM239.26 39H241.924V31.62H243.958V29.604H241.924V29.046C241.924 28.218 242.194 27.912 242.914 27.912H244.03V25.86H242.014C240.16 25.86 239.26 26.85 239.26 28.92V29.604H237.82V31.62H239.26V39ZM245.244 39H247.908V33.744C248.16 32.43 248.826 31.908 250.212 31.908H250.716V29.424H250.014C248.718 29.424 247.98 30.018 247.62 31.35L247.512 29.604H245.244V39ZM254.441 39.216C255.683 39.216 256.619 38.748 257.267 37.83L257.357 39H259.607V32.952C259.607 30.504 258.383 29.388 255.719 29.388C253.127 29.388 251.867 30.45 251.723 32.538H254.297C254.333 31.89 254.693 31.476 255.611 31.476C256.565 31.476 256.943 31.944 256.943 32.916V33.222H255.215C252.713 33.222 251.471 34.32 251.471 36.3C251.471 38.172 252.587 39.216 254.441 39.216ZM255.251 37.128C254.495 37.128 254.099 36.768 254.099 36.084C254.099 35.4 254.495 34.986 255.701 34.986H256.943V36.066C256.565 36.768 256.007 37.128 255.251 37.128ZM265.619 42.492C268.499 42.492 269.903 41.322 269.903 38.748V29.604H267.635L267.563 30.738C266.861 29.802 265.997 29.388 264.809 29.388C262.667 29.388 261.461 30.702 261.461 33.24V34.77C261.461 37.308 262.667 38.64 264.809 38.64C265.817 38.64 266.609 38.334 267.239 37.668V38.748C267.239 39.954 266.753 40.404 265.583 40.404C264.647 40.404 264.197 40.116 264.125 39.396H261.623C261.731 41.592 263.117 42.492 265.619 42.492ZM265.421 36.48C264.575 36.48 264.125 35.994 264.125 34.77V33.258C264.125 32.052 264.575 31.548 265.439 31.548C266.267 31.548 266.861 32.034 267.239 32.97V35.04C266.861 35.994 266.267 36.48 265.421 36.48ZM272.209 39H274.873V32.97C275.287 32.07 275.809 31.692 276.439 31.692C277.087 31.692 277.465 32.07 277.465 32.898V39H280.129V32.97C280.561 32.07 281.065 31.692 281.713 31.692C282.361 31.692 282.721 32.07 282.721 32.898V39H285.385V32.61C285.385 30.504 284.323 29.388 282.415 29.388C281.317 29.388 280.453 29.766 279.733 30.72C279.265 29.838 278.419 29.388 277.213 29.388C276.061 29.388 275.233 29.802 274.549 30.756L274.477 29.604H272.209V39ZM291.567 39.216C294.105 39.216 295.491 38.154 295.599 36.12H293.061C293.007 36.768 292.485 37.128 291.585 37.128C290.433 37.128 289.947 36.534 289.947 35.31V35.13H295.653V33.42C295.653 30.81 294.213 29.388 291.459 29.388C288.723 29.388 287.283 30.774 287.283 33.384V35.22C287.283 37.866 288.723 39.216 291.567 39.216ZM289.947 33.258C289.947 31.998 290.415 31.476 291.549 31.476C292.665 31.476 293.133 31.998 293.133 33.258H289.947ZM297.574 39H300.238V32.934C300.634 32.106 301.192 31.692 301.894 31.692C302.614 31.692 302.938 32.124 302.938 33.006V39H305.602V32.772C305.602 30.54 304.594 29.388 302.65 29.388C301.498 29.388 300.634 29.802 299.914 30.738L299.842 29.604H297.574V39ZM310.9 39H312.862V36.912H311.818C311.044 36.912 310.828 36.66 310.828 35.778V31.62H312.772V29.604H310.828V27.264H308.362L308.218 29.604H306.796V31.62H308.164V35.94C308.164 38.1 308.974 39 310.9 39ZM317.868 39.216C320.532 39.216 321.828 38.226 321.828 36.174C321.828 34.356 320.91 33.474 318.534 33.204C317.166 33.042 316.68 32.772 316.68 32.16C316.68 31.62 317.076 31.314 317.868 31.314C318.732 31.314 319.092 31.638 319.092 32.376H321.63C321.63 30.432 320.37 29.388 317.886 29.388C315.42 29.388 314.052 30.45 314.052 32.484C314.052 34.266 314.97 35.058 317.292 35.328C318.696 35.49 319.2 35.778 319.2 36.444C319.2 37.02 318.768 37.29 317.886 37.29C316.86 37.29 316.428 36.93 316.428 36.12H313.89C313.89 38.208 315.15 39.216 317.868 39.216ZM323.715 32.772H326.505V29.982H323.715V32.772ZM323.715 39H326.505V36.21H323.715V39Z" fill="#003E6B"/>
<path d="M90.152 239.276H92.816V235.244C93.446 235.91 94.238 236.216 95.246 236.216C97.388 236.216 98.594 234.884 98.594 232.346V230.24C98.594 227.702 97.388 226.388 95.246 226.388C94.058 226.388 93.194 226.802 92.492 227.738L92.42 226.604H90.152V239.276ZM94.634 234.056C93.788 234.056 93.194 233.57 92.816 232.616V229.97C93.194 229.034 93.788 228.548 94.616 228.548C95.48 228.548 95.93 229.052 95.93 230.258V232.346C95.93 233.57 95.48 234.056 94.634 234.056ZM99.4598 236H102.196L102.97 233.534H106.822L107.596 236H110.458L106.354 223.76H103.564L99.4598 236ZM103.636 231.284L104.896 226.82L106.156 231.284H103.636ZM111.848 236H114.548V231.482H116.006L118.436 236H121.514L118.868 231.23C120.398 230.78 121.046 229.628 121.046 227.63C121.046 224.894 119.858 223.76 116.852 223.76H111.848V236ZM114.548 229.178V226.064H116.564C117.878 226.064 118.346 226.514 118.346 227.63C118.346 228.728 117.878 229.178 116.564 229.178H114.548ZM121.925 236H124.661L125.435 233.534H129.287L130.061 236H132.923L128.819 223.76H126.029L121.925 236ZM126.101 231.284L127.361 226.82L128.621 231.284H126.101ZM141.463 236.216C142.651 236.216 143.515 235.802 144.217 234.866L144.289 236H146.557V222.86H143.893V227.36C143.263 226.694 142.471 226.388 141.463 226.388C139.321 226.388 138.115 227.72 138.115 230.258V232.364C138.115 234.902 139.321 236.216 141.463 236.216ZM142.093 234.056C141.229 234.056 140.779 233.552 140.779 232.346V230.258C140.779 229.034 141.229 228.548 142.075 228.548C142.921 228.548 143.515 229.034 143.893 229.988V232.634C143.515 233.57 142.921 234.056 142.093 234.056ZM148.791 225.272H151.599V223.004H148.791V225.272ZM148.863 236H151.527V226.604H148.863V236ZM157.672 239.492C160.552 239.492 161.956 238.322 161.956 235.748V226.604H159.688L159.616 227.738C158.914 226.802 158.05 226.388 156.862 226.388C154.72 226.388 153.514 227.702 153.514 230.24V231.77C153.514 234.308 154.72 235.64 156.862 235.64C157.87 235.64 158.662 235.334 159.292 234.668V235.748C159.292 236.954 158.806 237.404 157.636 237.404C156.7 237.404 156.25 237.116 156.178 236.396H153.676C153.784 238.592 155.17 239.492 157.672 239.492ZM157.474 233.48C156.628 233.48 156.178 232.994 156.178 231.77V230.258C156.178 229.052 156.628 228.548 157.492 228.548C158.32 228.548 158.914 229.034 159.292 229.97V232.04C158.914 232.994 158.32 233.48 157.474 233.48ZM168.203 236.216C170.741 236.216 172.127 235.154 172.235 233.12H169.697C169.643 233.768 169.121 234.128 168.221 234.128C167.069 234.128 166.583 233.534 166.583 232.31V232.13H172.289V230.42C172.289 227.81 170.849 226.388 168.095 226.388C165.359 226.388 163.919 227.774 163.919 230.384V232.22C163.919 234.866 165.359 236.216 168.203 236.216ZM166.583 230.258C166.583 228.998 167.051 228.476 168.185 228.476C169.301 228.476 169.769 228.998 169.769 230.258H166.583ZM177.647 236.216C180.311 236.216 181.607 235.226 181.607 233.174C181.607 231.356 180.689 230.474 178.313 230.204C176.945 230.042 176.459 229.772 176.459 229.16C176.459 228.62 176.855 228.314 177.647 228.314C178.511 228.314 178.871 228.638 178.871 229.376H181.409C181.409 227.432 180.149 226.388 177.665 226.388C175.199 226.388 173.831 227.45 173.831 229.484C173.831 231.266 174.749 232.058 177.071 232.328C178.475 232.49 178.979 232.778 178.979 233.444C178.979 234.02 178.547 234.29 177.665 234.29C176.639 234.29 176.207 233.93 176.207 233.12H173.669C173.669 235.208 174.929 236.216 177.647 236.216ZM186.412 236H188.374V233.912H187.33C186.556 233.912 186.34 233.66 186.34 232.778V228.62H188.284V226.604H186.34V224.264H183.874L183.73 226.604H182.308V228.62H183.676V232.94C183.676 235.1 184.486 236 186.412 236ZM189.748 225.272H192.556V223.004H189.748V225.272ZM189.82 236H192.484V226.604H189.82V236ZM198.719 236.216C201.563 236.216 202.985 234.866 202.985 232.166V230.438C202.985 227.738 201.563 226.388 198.719 226.388C195.875 226.388 194.453 227.738 194.453 230.438V232.166C194.453 234.866 195.875 236.216 198.719 236.216ZM198.719 234.056C197.585 234.056 197.117 233.48 197.117 232.112V230.492C197.117 229.124 197.585 228.548 198.719 228.548C199.853 228.548 200.321 229.124 200.321 230.492V232.112C200.321 233.48 199.853 234.056 198.719 234.056ZM204.955 236H207.619V229.934C208.015 229.106 208.573 228.692 209.275 228.692C209.995 228.692 210.319 229.124 210.319 230.006V236H212.983V229.772C212.983 227.54 211.975 226.388 210.031 226.388C208.879 226.388 208.015 226.802 207.295 227.738L207.223 226.604H204.955V236ZM219.977 236H222.641V228.62H224.675V226.604H222.641V226.046C222.641 225.218 222.911 224.912 223.631 224.912H224.747V222.86H222.731C220.877 222.86 219.977 223.85 219.977 225.92V226.604H218.537V228.62H219.977V236ZM225.961 236H228.625V230.744C228.877 229.43 229.543 228.908 230.929 228.908H231.433V226.424H230.731C229.435 226.424 228.697 227.018 228.337 228.35L228.229 226.604H225.961V236ZM235.158 236.216C236.4 236.216 237.336 235.748 237.984 234.83L238.074 236H240.324V229.952C240.324 227.504 239.1 226.388 236.436 226.388C233.844 226.388 232.584 227.45 232.44 229.538H235.014C235.05 228.89 235.41 228.476 236.328 228.476C237.282 228.476 237.66 228.944 237.66 229.916V230.222H235.932C233.43 230.222 232.188 231.32 232.188 233.3C232.188 235.172 233.304 236.216 235.158 236.216ZM235.968 234.128C235.212 234.128 234.816 233.768 234.816 233.084C234.816 232.4 235.212 231.986 236.418 231.986H237.66V233.066C237.282 233.768 236.724 234.128 235.968 234.128ZM246.336 239.492C249.216 239.492 250.62 238.322 250.62 235.748V226.604H248.352L248.28 227.738C247.578 226.802 246.714 226.388 245.526 226.388C243.384 226.388 242.178 227.702 242.178 230.24V231.77C242.178 234.308 243.384 235.64 245.526 235.64C246.534 235.64 247.326 235.334 247.956 234.668V235.748C247.956 236.954 247.47 237.404 246.3 237.404C245.364 237.404 244.914 237.116 244.842 236.396H242.34C242.448 238.592 243.834 239.492 246.336 239.492ZM246.138 233.48C245.292 233.48 244.842 232.994 244.842 231.77V230.258C244.842 229.052 245.292 228.548 246.156 228.548C246.984 228.548 247.578 229.034 247.956 229.97V232.04C247.578 232.994 246.984 233.48 246.138 233.48ZM252.925 236H255.589V229.97C256.003 229.07 256.525 228.692 257.155 228.692C257.803 228.692 258.181 229.07 258.181 229.898V236H260.845V229.97C261.277 229.07 261.781 228.692 262.429 228.692C263.077 228.692 263.437 229.07 263.437 229.898V236H266.101V229.61C266.101 227.504 265.039 226.388 263.131 226.388C262.033 226.388 261.169 226.766 260.449 227.72C259.981 226.838 259.135 226.388 257.929 226.388C256.777 226.388 255.949 226.802 255.265 227.756L255.193 226.604H252.925V236ZM272.283 236.216C274.821 236.216 276.207 235.154 276.315 233.12H273.777C273.723 233.768 273.201 234.128 272.301 234.128C271.149 234.128 270.663 233.534 270.663 232.31V232.13H276.369V230.42C276.369 227.81 274.929 226.388 272.175 226.388C269.439 226.388 267.999 227.774 267.999 230.384V232.22C267.999 234.866 269.439 236.216 272.283 236.216ZM270.663 230.258C270.663 228.998 271.131 228.476 272.265 228.476C273.381 228.476 273.849 228.998 273.849 230.258H270.663ZM278.291 236H280.955V229.934C281.351 229.106 281.909 228.692 282.611 228.692C283.331 228.692 283.655 229.124 283.655 230.006V236H286.319V229.772C286.319 227.54 285.311 226.388 283.367 226.388C282.215 226.388 281.351 226.802 280.631 227.738L280.559 226.604H278.291V236ZM291.617 236H293.579V233.912H292.535C291.761 233.912 291.545 233.66 291.545 232.778V228.62H293.489V226.604H291.545V224.264H289.079L288.935 226.604H287.513V228.62H288.881V232.94C288.881 235.1 289.691 236 291.617 236ZM298.585 236.216C301.249 236.216 302.545 235.226 302.545 233.174C302.545 231.356 301.627 230.474 299.251 230.204C297.883 230.042 297.397 229.772 297.397 229.16C297.397 228.62 297.793 228.314 298.585 228.314C299.449 228.314 299.809 228.638 299.809 229.376H302.347C302.347 227.432 301.087 226.388 298.603 226.388C296.137 226.388 294.769 227.45 294.769 229.484C294.769 231.266 295.687 232.058 298.009 232.328C299.413 232.49 299.917 232.778 299.917 233.444C299.917 234.02 299.485 234.29 298.603 234.29C297.577 234.29 297.145 233.93 297.145 233.12H294.607C294.607 235.208 295.867 236.216 298.585 236.216ZM304.431 229.772H307.221V226.982H304.431V229.772ZM304.431 236H307.221V233.21H304.431V236Z" fill="#003E6B"/>
<line x1="89" y1="286" x2="179" y2="286" stroke="#C5C5C5" stroke-width="10"/>
<path d="M193.184 277.192C195.872 277.192 197.216 275.8 197.216 273.032V271.112H193.488V272.44H195.808V273.032C195.808 275.016 195.008 275.88 193.2 275.88C191.312 275.88 190.448 274.936 190.448 272.904V270.216C190.448 268.216 191.312 267.24 193.104 267.24C194.768 267.24 195.616 268.072 195.696 269.48H197.104C197.008 267.16 195.552 265.928 193.12 265.928C190.448 265.928 189.008 267.416 189.008 270.136V272.984C189.008 275.736 190.448 277.192 193.184 277.192ZM193.072 291.192C195.632 291.192 196.944 289.944 197.04 287.432H195.632C195.552 289.096 194.736 289.88 193.072 289.88C191.248 289.88 190.448 288.952 190.448 286.856V284.264C190.448 282.168 191.248 281.24 193.072 281.24C194.736 281.24 195.552 282.024 195.632 283.704H197.04C196.944 281.176 195.632 279.928 193.072 279.928C190.336 279.928 189.008 281.368 189.008 284.232V286.888C189.008 289.752 190.336 291.192 193.072 291.192ZM203.119 291.192C205.679 291.192 206.991 289.944 207.087 287.432H205.679C205.599 289.096 204.783 289.88 203.119 289.88C201.295 289.88 200.495 288.952 200.495 286.856V284.264C200.495 282.168 201.295 281.24 203.119 281.24C204.783 281.24 205.599 282.024 205.679 283.704H207.087C206.991 281.176 205.679 279.928 203.119 279.928C200.383 279.928 199.055 281.368 199.055 284.232V286.888C199.055 289.752 200.383 291.192 203.119 291.192ZM211.25 291H212.69V281.448H215.906V280.12H208.034V281.448H211.25V291ZM215.113 291H216.601L217.593 288.216H221.977L222.969 291H224.505L220.537 280.12H219.081L215.113 291ZM218.057 286.904L219.785 281.96L221.513 286.904H218.057ZM229.653 291.192C232.341 291.192 233.685 289.8 233.685 287.032V285.112H229.957V286.44H232.277V287.032C232.277 289.016 231.477 289.88 229.669 289.88C227.781 289.88 226.917 288.936 226.917 286.904V284.216C226.917 282.216 227.781 281.24 229.573 281.24C231.237 281.24 232.085 282.072 232.165 283.48H233.573C233.477 281.16 232.021 279.928 229.589 279.928C226.917 279.928 225.477 281.416 225.477 284.136V286.984C225.477 289.736 226.917 291.192 229.653 291.192ZM189.472 305H194C196.4 305 197.504 304.04 197.504 301.992C197.504 300.552 196.96 299.704 195.712 299.32V299.288C196.704 298.92 197.136 298.152 197.136 296.936C197.136 295 196.016 294.12 193.68 294.12H189.472V305ZM190.912 298.792V295.432H193.568C195.088 295.432 195.712 295.912 195.712 297.128C195.712 298.328 195.104 298.792 193.584 298.792H190.912ZM190.912 303.688V300.104H193.616C195.392 300.104 196.064 300.6 196.064 301.896C196.064 303.16 195.424 303.688 193.792 303.688H190.912ZM201.972 305.192C203.172 305.192 204.1 304.728 204.772 303.88L204.82 305H206.02V299.608C206.02 297.56 204.964 296.552 202.788 296.552C200.724 296.552 199.604 297.464 199.46 299.256H200.836C200.884 298.248 201.572 297.768 202.74 297.768C204.02 297.768 204.612 298.36 204.612 299.64V300.088H202.628C200.308 300.088 199.22 301.016 199.22 302.664C199.22 304.28 200.276 305.192 201.972 305.192ZM202.18 303.976C201.14 303.976 200.628 303.496 200.628 302.632C200.628 301.704 201.236 301.256 202.676 301.256H204.612V302.424C204.116 303.432 203.284 303.976 202.18 303.976ZM208.5 305H209.908V299.672C210.516 298.392 211.204 297.848 212.084 297.848C212.948 297.848 213.428 298.376 213.428 299.48V305H214.836V299.592C215.444 298.392 216.148 297.848 217.012 297.848C217.876 297.848 218.356 298.376 218.356 299.48V305H219.764V299.368C219.764 297.544 218.852 296.552 217.204 296.552C216.148 296.552 215.3 296.968 214.612 297.992C214.276 297.048 213.492 296.552 212.34 296.552C211.22 296.552 210.404 297.016 209.748 298.04L209.7 296.744H208.5V305ZM222.441 305H223.881V300.104H229.145V305H230.585V294.12H229.145V298.76H223.881V294.12H222.441V305ZM233.535 305H234.975V294.12H233.535V305Z" fill="#003E6B"/>
<path d="M33.894 277H35.382L36.374 274.216H40.758L41.75 277H43.286L39.318 266.12H37.862L33.894 277ZM36.838 272.904L38.566 267.96L40.294 272.904H36.838ZM48.434 277.192C51.122 277.192 52.466 275.8 52.466 273.032V271.112H48.738V272.44H51.058V273.032C51.058 275.016 50.258 275.88 48.45 275.88C46.562 275.88 45.698 274.936 45.698 272.904V270.216C45.698 268.216 46.562 267.24 48.354 267.24C50.018 267.24 50.866 268.072 50.946 269.48H52.354C52.258 267.16 50.802 265.928 48.37 265.928C45.698 265.928 44.258 267.416 44.258 270.136V272.984C44.258 275.736 45.698 277.192 48.434 277.192ZM58.5251 277.192C61.0851 277.192 62.3971 275.944 62.4931 273.432H61.0851C61.0051 275.096 60.1891 275.88 58.5251 275.88C56.7011 275.88 55.9011 274.952 55.9011 272.856V270.264C55.9011 268.168 56.7011 267.24 58.5251 267.24C60.1891 267.24 61.0051 268.024 61.0851 269.704H62.4931C62.3971 267.176 61.0851 265.928 58.5251 265.928C55.7891 265.928 54.4611 267.368 54.4611 270.232V272.888C54.4611 275.752 55.7891 277.192 58.5251 277.192ZM66.6561 277H68.0961V267.448H71.3121V266.12H63.4401V267.448H66.6561V277ZM75.2343 277H76.6743V267.448H79.8903V266.12H72.0183V267.448H75.2343V277ZM70.4565 291H71.9445L72.9365 288.216H77.3205L78.3125 291H79.8485L75.8805 280.12H74.4245L70.4565 291ZM73.4005 286.904L75.1285 281.96L76.8565 286.904H73.4005ZM34.7064 305H36.1464V300.104H41.4104V305H42.8504V294.12H41.4104V298.76H36.1464V294.12H34.7064V305ZM45.5921 295.256H47.1281V293.688H45.5921V295.256ZM45.6561 305H47.0641V296.744H45.6561V305ZM49.7186 305H51.1266V299.64C51.7186 298.424 52.4706 297.848 53.4466 297.848C54.4226 297.848 54.9026 298.408 54.9026 299.704V305H56.3106V299.576C56.3106 297.592 55.4466 296.552 53.7186 296.552C52.5666 296.552 51.6866 297.016 50.9666 298.04L50.9186 296.744H49.7186V305ZM61.4676 305.192C62.6676 305.192 63.5476 304.728 64.2516 303.688L64.2996 305H65.4996V293.32H64.0916V297.832C63.4196 296.952 62.5716 296.552 61.4676 296.552C59.5476 296.552 58.4276 297.736 58.4276 299.992V301.752C58.4276 304.008 59.5476 305.192 61.4676 305.192ZM61.6436 303.96C60.5076 303.96 59.8356 303.176 59.8356 301.704V300.04C59.8356 298.568 60.5076 297.784 61.6436 297.784C62.6996 297.784 63.5476 298.472 64.0916 299.656V302.088C63.5476 303.272 62.6996 303.96 61.6436 303.96ZM68.3001 305H69.7401V294.12H68.3001V305ZM72.6908 305H74.1308V294.12H72.6908V305ZM77.0814 305H78.5214V294.12H77.0814V305Z" fill="#003E6B"/>
<line x1="89" y1="88" x2="224.468" y2="88" stroke="#E52826" stroke-width="10"/>
<line x1="224.468" y1="88" x2="253.436" y2="88" stroke="#C5C5C5" stroke-width="10"/>
<line x1="253.436" y1="88" x2="302" y2="88" stroke="#008D36" stroke-width="10"/>
<path d="M33.894 79H35.382L36.374 76.216H40.758L41.75 79H43.286L39.318 68.12H37.862L33.894 79ZM36.838 74.904L38.566 69.96L40.294 74.904H36.838ZM48.434 79.192C51.122 79.192 52.466 77.8 52.466 75.032V73.112H48.738V74.44H51.058V75.032C51.058 77.016 50.258 77.88 48.45 77.88C46.562 77.88 45.698 76.936 45.698 74.904V72.216C45.698 70.216 46.562 69.24 48.354 69.24C50.018 69.24 50.866 70.072 50.946 71.48H52.354C52.258 69.16 50.802 67.928 48.37 67.928C45.698 67.928 44.258 69.416 44.258 72.136V74.984C44.258 77.736 45.698 79.192 48.434 79.192ZM58.5251 79.192C61.0851 79.192 62.3971 77.944 62.4931 75.432H61.0851C61.0051 77.096 60.1891 77.88 58.5251 77.88C56.7011 77.88 55.9011 76.952 55.9011 74.856V72.264C55.9011 70.168 56.7011 69.24 58.5251 69.24C60.1891 69.24 61.0051 70.024 61.0851 71.704H62.4931C62.3971 69.176 61.0851 67.928 58.5251 67.928C55.7891 67.928 54.4611 69.368 54.4611 72.232V74.888C54.4611 77.752 55.7891 79.192 58.5251 79.192ZM66.6561 79H68.0961V69.448H71.3121V68.12H63.4401V69.448H66.6561V79ZM75.2343 79H76.6743V69.448H79.8903V68.12H72.0183V69.448H75.2343V79ZM70.4565 93H71.9445L72.9365 90.216H77.3205L78.3125 93H79.8485L75.8805 82.12H74.4245L70.4565 93ZM73.4005 88.904L75.1285 83.96L76.8565 88.904H73.4005ZM34.7064 107H36.1464V102.104H41.4104V107H42.8504V96.12H41.4104V100.76H36.1464V96.12H34.7064V107ZM45.5921 97.256H47.1281V95.688H45.5921V97.256ZM45.6561 107H47.0641V98.744H45.6561V107ZM49.7186 107H51.1266V101.64C51.7186 100.424 52.4706 99.848 53.4466 99.848C54.4226 99.848 54.9026 100.408 54.9026 101.704V107H56.3106V101.576C56.3106 99.592 55.4466 98.552 53.7186 98.552C52.5666 98.552 51.6866 99.016 50.9666 100.04L50.9186 98.744H49.7186V107ZM61.4676 107.192C62.6676 107.192 63.5476 106.728 64.2516 105.688L64.2996 107H65.4996V95.32H64.0916V99.832C63.4196 98.952 62.5716 98.552 61.4676 98.552C59.5476 98.552 58.4276 99.736 58.4276 101.992V103.752C58.4276 106.008 59.5476 107.192 61.4676 107.192ZM61.6436 105.96C60.5076 105.96 59.8356 105.176 59.8356 103.704V102.04C59.8356 100.568 60.5076 99.784 61.6436 99.784C62.6996 99.784 63.5476 100.472 64.0916 101.656V104.088C63.5476 105.272 62.6996 105.96 61.6436 105.96ZM68.3001 107H69.7401V96.12H68.3001V107ZM72.6908 107H74.1308V96.12H72.6908V107ZM77.0814 107H78.5214V96.12H77.0814V107Z" fill="#003E6B"/>
<path d="M315.184 79.192C317.872 79.192 319.216 77.8 319.216 75.032V73.112H315.488V74.44H317.808V75.032C317.808 77.016 317.008 77.88 315.2 77.88C313.312 77.88 312.448 76.936 312.448 74.904V72.216C312.448 70.216 313.312 69.24 315.104 69.24C316.768 69.24 317.616 70.072 317.696 71.48H319.104C319.008 69.16 317.552 67.928 315.12 67.928C312.448 67.928 311.008 69.416 311.008 72.136V74.984C311.008 77.736 312.448 79.192 315.184 79.192ZM315.072 93.192C317.632 93.192 318.944 91.944 319.04 89.432H317.632C317.552 91.096 316.736 91.88 315.072 91.88C313.248 91.88 312.448 90.952 312.448 88.856V86.264C312.448 84.168 313.248 83.24 315.072 83.24C316.736 83.24 317.552 84.024 317.632 85.704H319.04C318.944 83.176 317.632 81.928 315.072 81.928C312.336 81.928 311.008 83.368 311.008 86.232V88.888C311.008 91.752 312.336 93.192 315.072 93.192ZM325.119 93.192C327.679 93.192 328.991 91.944 329.087 89.432H327.679C327.599 91.096 326.783 91.88 325.119 91.88C323.295 91.88 322.495 90.952 322.495 88.856V86.264C322.495 84.168 323.295 83.24 325.119 83.24C326.783 83.24 327.599 84.024 327.679 85.704H329.087C328.991 83.176 327.679 81.928 325.119 81.928C322.383 81.928 321.055 83.368 321.055 86.232V88.888C321.055 91.752 322.383 93.192 325.119 93.192ZM333.25 93H334.69V83.448H337.906V82.12H330.034V83.448H333.25V93ZM337.113 93H338.601L339.593 90.216H343.977L344.969 93H346.505L342.537 82.12H341.081L337.113 93ZM340.057 88.904L341.785 83.96L343.513 88.904H340.057ZM351.653 93.192C354.341 93.192 355.685 91.8 355.685 89.032V87.112H351.957V88.44H354.277V89.032C354.277 91.016 353.477 91.88 351.669 91.88C349.781 91.88 348.917 90.936 348.917 88.904V86.216C348.917 84.216 349.781 83.24 351.573 83.24C353.237 83.24 354.085 84.072 354.165 85.48H355.573C355.477 83.16 354.021 81.928 351.589 81.928C348.917 81.928 347.477 83.416 347.477 86.136V88.984C347.477 91.736 348.917 93.192 351.653 93.192ZM311.472 107H316C318.4 107 319.504 106.04 319.504 103.992C319.504 102.552 318.96 101.704 317.712 101.32V101.288C318.704 100.92 319.136 100.152 319.136 98.936C319.136 97 318.016 96.12 315.68 96.12H311.472V107ZM312.912 100.792V97.432H315.568C317.088 97.432 317.712 97.912 317.712 99.128C317.712 100.328 317.104 100.792 315.584 100.792H312.912ZM312.912 105.688V102.104H315.616C317.392 102.104 318.064 102.6 318.064 103.896C318.064 105.16 317.424 105.688 315.792 105.688H312.912ZM323.972 107.192C325.172 107.192 326.1 106.728 326.772 105.88L326.82 107H328.02V101.608C328.02 99.56 326.964 98.552 324.788 98.552C322.724 98.552 321.604 99.464 321.46 101.256H322.836C322.884 100.248 323.572 99.768 324.74 99.768C326.02 99.768 326.612 100.36 326.612 101.64V102.088H324.628C322.308 102.088 321.22 103.016 321.22 104.664C321.22 106.28 322.276 107.192 323.972 107.192ZM324.18 105.976C323.14 105.976 322.628 105.496 322.628 104.632C322.628 103.704 323.236 103.256 324.676 103.256H326.612V104.424C326.116 105.432 325.284 105.976 324.18 105.976ZM330.5 107H331.908V101.672C332.516 100.392 333.204 99.848 334.084 99.848C334.948 99.848 335.428 100.376 335.428 101.48V107H336.836V101.592C337.444 100.392 338.148 99.848 339.012 99.848C339.876 99.848 340.356 100.376 340.356 101.48V107H341.764V101.368C341.764 99.544 340.852 98.552 339.204 98.552C338.148 98.552 337.3 98.968 336.612 99.992C336.276 99.048 335.492 98.552 334.34 98.552C333.22 98.552 332.404 99.016 331.748 100.04L331.7 98.744H330.5V107ZM344.441 107H345.881V102.104H351.145V107H352.585V96.12H351.145V100.76H345.881V96.12H344.441V107ZM355.535 107H356.975V96.12H355.535V107Z" fill="#003E6B"/>
<path d="M148.666 77H149.81L150.499 73.087C150.954 71.852 151.682 71.293 152.761 71.293H153.073L153.268 70.162H152.774C151.812 70.162 151.149 70.565 150.668 71.475L150.824 70.292H149.849L148.666 77ZM153.637 77H154.781L155.795 71.228H157.537L157.693 70.292H155.964L156.094 69.564C156.237 68.745 156.575 68.472 157.264 68.472H158.07L158.239 67.51H157.121C155.873 67.51 155.197 68.134 154.95 69.564L154.82 70.292H153.585L153.429 71.228H154.651L153.637 77ZM157.327 79.366H158.471L159.056 76.051C159.485 76.805 160.135 77.156 161.071 77.156C162.657 77.156 163.645 76.168 163.957 74.387L164.204 72.97C164.256 72.697 164.282 72.437 164.282 72.19C164.282 70.89 163.554 70.136 162.176 70.136C161.24 70.136 160.473 70.487 159.771 71.293L159.914 70.292H158.939L157.327 79.366ZM160.993 76.155C160.148 76.155 159.576 75.622 159.303 74.673L159.654 72.697C160.291 71.709 161.097 71.137 161.955 71.137C162.722 71.137 163.125 71.592 163.125 72.359C163.125 72.554 163.099 72.749 163.06 72.957L162.826 74.283C162.618 75.453 161.968 76.155 160.993 76.155Z" fill="#003E6B"/>
<path d="M261.499 80.366H262.643L263.228 77.051C263.657 77.805 264.307 78.156 265.243 78.156C266.829 78.156 267.817 77.168 268.129 75.387L268.376 73.97C268.428 73.697 268.454 73.437 268.454 73.19C268.454 71.89 267.726 71.136 266.348 71.136C265.412 71.136 264.645 71.487 263.943 72.293L264.086 71.292H263.111L261.499 80.366ZM265.165 77.155C264.32 77.155 263.748 76.622 263.475 75.673L263.826 73.697C264.463 72.709 265.269 72.137 266.127 72.137C266.894 72.137 267.297 72.592 267.297 73.359C267.297 73.554 267.271 73.749 267.232 73.957L266.998 75.283C266.79 76.453 266.14 77.155 265.165 77.155ZM269.611 78H273.329C275.409 78 276.618 76.96 276.618 75.166C276.618 74.217 276.28 73.658 275.474 73.398V73.372C276.501 73.008 277.021 72.241 277.021 71.097C277.021 69.732 276.28 69.16 274.538 69.16H271.171L269.611 78ZM271.665 72.956L272.159 70.226H274.33C275.461 70.226 275.851 70.499 275.851 71.292C275.851 72.358 275.136 72.956 273.81 72.956H271.665ZM270.963 76.934L271.483 74.022H273.693C275.019 74.022 275.461 74.308 275.461 75.153C275.461 76.284 274.655 76.934 273.277 76.934H270.963ZM276.81 78H278.058L279.267 75.738H282.816L283.232 78H284.441L282.764 69.16H281.581L276.81 78ZM279.826 74.672L281.932 70.655L282.634 74.672H279.826ZM285.76 78H288.867C291.207 78 292.338 76.973 292.754 74.62L293.105 72.631C293.17 72.254 293.209 71.916 293.209 71.578C293.209 69.914 292.221 69.16 290.31 69.16H287.32L285.76 78ZM287.112 76.934L288.308 70.226H290.076C291.441 70.226 292.026 70.668 292.026 71.773C292.026 72.007 292 72.28 291.948 72.579L291.597 74.568C291.311 76.193 290.492 76.934 288.841 76.934H287.112Z" fill="#003E6B"/>
<line x1="89" y1="152" x2="258.376" y2="152" stroke="#C5C5C5" stroke-width="10"/>
<line x1="412.833" y1="152" x2="469" y2="152" stroke="#C5C5C5" stroke-width="10"/>
<line x1="258.376" y1="152" x2="412.834" y2="152" stroke="#F8AF3E" stroke-width="10"/>
<path d="M478.144 143H479.632L480.624 140.216H485.008L486 143H487.536L483.568 132.12H482.112L478.144 143ZM481.088 138.904L482.816 133.96L484.544 138.904H481.088ZM481.328 157H482.768V147.448H485.984V146.12H478.112V147.448H481.328V157ZM489.906 157H491.346V147.448H494.562V146.12H486.69V147.448H489.906V157ZM499.588 157.192C502.148 157.192 503.46 155.944 503.556 153.432H502.148C502.068 155.096 501.252 155.88 499.588 155.88C497.764 155.88 496.964 154.952 496.964 152.856V150.264C496.964 148.168 497.764 147.24 499.588 147.24C501.252 147.24 502.068 148.024 502.148 149.704H503.556C503.46 147.176 502.148 145.928 499.588 145.928C496.852 145.928 495.524 147.368 495.524 150.232V152.888C495.524 155.752 496.852 157.192 499.588 157.192ZM509.747 157.192C512.435 157.192 513.779 155.8 513.779 153.032V151.112H510.051V152.44H512.371V153.032C512.371 155.016 511.571 155.88 509.763 155.88C507.875 155.88 507.011 154.936 507.011 152.904V150.216C507.011 148.216 507.875 147.24 509.667 147.24C511.331 147.24 512.179 148.072 512.259 149.48H513.667C513.571 147.16 512.115 145.928 509.683 145.928C507.011 145.928 505.571 147.416 505.571 150.136V152.984C505.571 155.736 507.011 157.192 509.747 157.192ZM514.738 157H516.226L517.218 154.216H521.602L522.594 157H524.13L520.162 146.12H518.706L514.738 157ZM517.682 152.904L519.41 147.96L521.138 152.904H517.682ZM479.472 171H480.912V166.104H486.176V171H487.616V160.12H486.176V164.76H480.912V160.12H479.472V171ZM490.358 161.256H491.894V159.688H490.358V161.256ZM490.422 171H491.83V162.744H490.422V171ZM494.484 171H495.892V165.64C496.484 164.424 497.236 163.848 498.212 163.848C499.188 163.848 499.668 164.408 499.668 165.704V171H501.076V165.576C501.076 163.592 500.212 162.552 498.484 162.552C497.332 162.552 496.452 163.016 495.732 164.04L495.684 162.744H494.484V171ZM506.233 171.192C507.433 171.192 508.313 170.728 509.017 169.688L509.065 171H510.265V159.32H508.857V163.832C508.185 162.952 507.337 162.552 506.233 162.552C504.313 162.552 503.193 163.736 503.193 165.992V167.752C503.193 170.008 504.313 171.192 506.233 171.192ZM506.409 169.96C505.273 169.96 504.601 169.176 504.601 167.704V166.04C504.601 164.568 505.273 163.784 506.409 163.784C507.465 163.784 508.313 164.472 508.857 165.656V168.088C508.313 169.272 507.465 169.96 506.409 169.96ZM513.066 171H514.506V160.12H513.066V171ZM517.456 171H518.896V160.12H517.456V171ZM521.847 171H523.287V160.12H521.847V171Z" fill="#003E6B"/>
<path d="M38.6996 147.192C41.3876 147.192 42.7316 145.8 42.7316 143.032V141.112H39.0036V142.44H41.3236V143.032C41.3236 145.016 40.5236 145.88 38.7156 145.88C36.8276 145.88 35.9636 144.936 35.9636 142.904V140.216C35.9636 138.216 36.8276 137.24 38.6196 137.24C40.2836 137.24 41.1316 138.072 41.2116 139.48H42.6196C42.5236 137.16 41.0676 135.928 38.6356 135.928C35.9636 135.928 34.5236 137.416 34.5236 140.136V142.984C34.5236 145.736 35.9636 147.192 38.6996 147.192ZM43.6909 147H45.1789L46.1709 144.216H50.5549L51.5469 147H53.0829L49.1149 136.12H47.6589L43.6909 147ZM46.6349 142.904L48.3629 137.96L50.0909 142.904H46.6349ZM55.5155 147H56.9555V137.448H60.1715V136.12H52.2995V137.448H55.5155V147ZM65.197 147.192C67.757 147.192 69.069 145.944 69.165 143.432H67.757C67.677 145.096 66.861 145.88 65.197 145.88C63.373 145.88 62.573 144.952 62.573 142.856V140.264C62.573 138.168 63.373 137.24 65.197 137.24C66.861 137.24 67.677 138.024 67.757 139.704H69.165C69.069 137.176 67.757 135.928 65.197 135.928C62.461 135.928 61.133 137.368 61.133 140.232V142.888C61.133 145.752 62.461 147.192 65.197 147.192ZM75.2439 147.192C77.8039 147.192 79.1159 145.944 79.2119 143.432H77.8039C77.7239 145.096 76.9079 145.88 75.2439 145.88C73.4199 145.88 72.6199 144.952 72.6199 142.856V140.264C72.6199 138.168 73.4199 137.24 75.2439 137.24C76.9079 137.24 77.7239 138.024 77.8039 139.704H79.2119C79.1159 137.176 77.8039 135.928 75.2439 135.928C72.5079 135.928 71.1799 137.368 71.1799 140.232V142.888C71.1799 145.752 72.5079 147.192 75.2439 147.192ZM75.0121 161.192C77.7001 161.192 79.0441 159.8 79.0441 157.032V155.112H75.3161V156.44H77.6361V157.032C77.6361 159.016 76.8361 159.88 75.0281 159.88C73.1401 159.88 72.2761 158.936 72.2761 156.904V154.216C72.2761 152.216 73.1401 151.24 74.9321 151.24C76.5961 151.24 77.4441 152.072 77.5241 153.48H78.9321C78.8361 151.16 77.3801 149.928 74.9481 149.928C72.2761 149.928 70.8361 151.416 70.8361 154.136V156.984C70.8361 159.736 72.2761 161.192 75.0121 161.192ZM33.0189 175H37.5469C39.9469 175 41.0509 174.04 41.0509 171.992C41.0509 170.552 40.5069 169.704 39.2589 169.32V169.288C40.2509 168.92 40.6829 168.152 40.6829 166.936C40.6829 165 39.5629 164.12 37.2269 164.12H33.0189V175ZM34.4589 168.792V165.432H37.1149C38.6349 165.432 39.2589 165.912 39.2589 167.128C39.2589 168.328 38.6509 168.792 37.1309 168.792H34.4589ZM34.4589 173.688V170.104H37.1629C38.9389 170.104 39.6109 170.6 39.6109 171.896C39.6109 173.16 38.9709 173.688 37.3389 173.688H34.4589ZM45.5185 175.192C46.7185 175.192 47.6465 174.728 48.3185 173.88L48.3665 175H49.5665V169.608C49.5665 167.56 48.5105 166.552 46.3345 166.552C44.2705 166.552 43.1505 167.464 43.0065 169.256H44.3825C44.4305 168.248 45.1185 167.768 46.2865 167.768C47.5665 167.768 48.1585 168.36 48.1585 169.64V170.088H46.1745C43.8545 170.088 42.7665 171.016 42.7665 172.664C42.7665 174.28 43.8225 175.192 45.5185 175.192ZM45.7265 173.976C44.6865 173.976 44.1745 173.496 44.1745 172.632C44.1745 171.704 44.7825 171.256 46.2225 171.256H48.1585V172.424C47.6625 173.432 46.8305 173.976 45.7265 173.976ZM52.0468 175H53.4548V169.672C54.0628 168.392 54.7508 167.848 55.6308 167.848C56.4948 167.848 56.9748 168.376 56.9748 169.48V175H58.3828V169.592C58.9908 168.392 59.6948 167.848 60.5588 167.848C61.4228 167.848 61.9028 168.376 61.9028 169.48V175H63.3108V169.368C63.3108 167.544 62.3988 166.552 60.7508 166.552C59.6948 166.552 58.8468 166.968 58.1588 167.992C57.8228 167.048 57.0388 166.552 55.8868 166.552C54.7668 166.552 53.9508 167.016 53.2948 168.04L53.2468 166.744H52.0468V175ZM65.9876 175H67.4276V170.104H72.6916V175H74.1316V164.12H72.6916V168.76H67.4276V164.12H65.9876V175ZM77.0814 175H78.5214V164.12H77.0814V175Z" fill="#003E6B"/>
<path d="M321.217 139H322.361L322.699 137.089L324.116 135.828L325.65 139H326.924L325 135.035L328.068 132.292H326.586L322.972 135.555L324.038 129.51H322.894L321.217 139ZM329.917 139.156C330.801 139.156 331.594 138.857 332.296 138.129L332.179 139H333.154L333.921 134.658C333.96 134.424 333.973 134.19 333.973 134.021C333.973 132.799 333.258 132.136 331.646 132.136C330.034 132.136 329.007 132.799 328.643 134.333H329.761C329.93 133.54 330.593 133.124 331.555 133.124C332.413 133.124 332.816 133.449 332.816 134.177C332.816 134.307 332.803 134.489 332.777 134.645L332.712 135.009H331.035C329.137 135.009 327.928 135.828 327.928 137.375C327.928 138.584 328.682 139.156 329.917 139.156ZM330.125 138.168C329.397 138.168 329.072 137.895 329.072 137.31C329.072 136.413 329.8 135.958 330.97 135.958H332.543L332.387 136.842C331.828 137.7 331.074 138.168 330.125 138.168ZM335.156 139H336.3L337.067 134.671C337.717 133.683 338.432 133.189 339.251 133.189C339.888 133.189 340.174 133.475 340.174 134.112C340.174 134.281 340.161 134.502 340.122 134.723L339.368 139H340.512L341.279 134.658C341.331 134.372 341.344 134.125 341.344 133.891C341.344 132.747 340.746 132.136 339.537 132.136C338.64 132.136 337.886 132.487 337.171 133.293L337.314 132.292H336.339L335.156 139ZM342.687 139H343.857L344.494 135.412H346.509L347.978 139H349.239L347.731 135.321C349.265 135.022 350.084 133.969 350.084 132.292C350.084 130.758 349.395 130.16 347.588 130.16H344.247L342.687 139ZM344.676 134.346L345.235 131.226H347.367C348.55 131.226 348.914 131.512 348.914 132.383C348.914 133.631 348.173 134.346 346.769 134.346H344.676Z" fill="#003E6B"/>
<line x1="89" y1="349" x2="108.307" y2="349" stroke="#C5C5C5" stroke-width="10"/>
<line x1="108.307" y1="349" x2="202.21" y2="349" stroke="#1399F1" stroke-width="10"/>
<line x1="202.21" y1="349" x2="231.171" y2="349" stroke="#C5C5C5" stroke-width="10"/>
<line x1="297.868" y1="349" x2="333.85" y2="349" stroke="#C5C5C5" stroke-width="10"/>
<line x1="410.201" y1="349" x2="469" y2="349" stroke="#C5C5C5" stroke-width="10"/>
<line x1="231.171" y1="349" x2="297.868" y2="349" stroke="#333332" stroke-width="10"/>
<line x1="333.85" y1="349" x2="410.201" y2="349" stroke="#115F92" stroke-width="10"/>
<path d="M478.144 340H479.632L480.624 337.216H485.008L486 340H487.536L483.568 329.12H482.112L478.144 340ZM481.088 335.904L482.816 330.96L484.544 335.904H481.088ZM481.328 354H482.768V344.448H485.984V343.12H478.112V344.448H481.328V354ZM489.906 354H491.346V344.448H494.562V343.12H486.69V344.448H489.906V354ZM499.588 354.192C502.148 354.192 503.46 352.944 503.556 350.432H502.148C502.068 352.096 501.252 352.88 499.588 352.88C497.764 352.88 496.964 351.952 496.964 349.856V347.264C496.964 345.168 497.764 344.24 499.588 344.24C501.252 344.24 502.068 345.024 502.148 346.704H503.556C503.46 344.176 502.148 342.928 499.588 342.928C496.852 342.928 495.524 344.368 495.524 347.232V349.888C495.524 352.752 496.852 354.192 499.588 354.192ZM509.747 354.192C512.435 354.192 513.779 352.8 513.779 350.032V348.112H510.051V349.44H512.371V350.032C512.371 352.016 511.571 352.88 509.763 352.88C507.875 352.88 507.011 351.936 507.011 349.904V347.216C507.011 345.216 507.875 344.24 509.667 344.24C511.331 344.24 512.179 345.072 512.259 346.48H513.667C513.571 344.16 512.115 342.928 509.683 342.928C507.011 342.928 505.571 344.416 505.571 347.136V349.984C505.571 352.736 507.011 354.192 509.747 354.192ZM514.738 354H516.226L517.218 351.216H521.602L522.594 354H524.13L520.162 343.12H518.706L514.738 354ZM517.682 349.904L519.41 344.96L521.138 349.904H517.682ZM479.472 368H480.912V363.104H486.176V368H487.616V357.12H486.176V361.76H480.912V357.12H479.472V368ZM490.358 358.256H491.894V356.688H490.358V358.256ZM490.422 368H491.83V359.744H490.422V368ZM494.484 368H495.892V362.64C496.484 361.424 497.236 360.848 498.212 360.848C499.188 360.848 499.668 361.408 499.668 362.704V368H501.076V362.576C501.076 360.592 500.212 359.552 498.484 359.552C497.332 359.552 496.452 360.016 495.732 361.04L495.684 359.744H494.484V368ZM506.233 368.192C507.433 368.192 508.313 367.728 509.017 366.688L509.065 368H510.265V356.32H508.857V360.832C508.185 359.952 507.337 359.552 506.233 359.552C504.313 359.552 503.193 360.736 503.193 362.992V364.752C503.193 367.008 504.313 368.192 506.233 368.192ZM506.409 366.96C505.273 366.96 504.601 366.176 504.601 364.704V363.04C504.601 361.568 505.273 360.784 506.409 360.784C507.465 360.784 508.313 361.472 508.857 362.656V365.088C508.313 366.272 507.465 366.96 506.409 366.96ZM513.066 368H514.506V357.12H513.066V368ZM517.456 368H518.896V357.12H517.456V368ZM521.847 368H523.287V357.12H521.847V368Z" fill="#003E6B"/>
<path d="M38.6996 343.192C41.3876 343.192 42.7316 341.8 42.7316 339.032V337.112H39.0036V338.44H41.3236V339.032C41.3236 341.016 40.5236 341.88 38.7156 341.88C36.8276 341.88 35.9636 340.936 35.9636 338.904V336.216C35.9636 334.216 36.8276 333.24 38.6196 333.24C40.2836 333.24 41.1316 334.072 41.2116 335.48H42.6196C42.5236 333.16 41.0676 331.928 38.6356 331.928C35.9636 331.928 34.5236 333.416 34.5236 336.136V338.984C34.5236 341.736 35.9636 343.192 38.6996 343.192ZM43.6909 343H45.1789L46.1709 340.216H50.5549L51.5469 343H53.0829L49.1149 332.12H47.6589L43.6909 343ZM46.6349 338.904L48.3629 333.96L50.0909 338.904H46.6349ZM55.5155 343H56.9555V333.448H60.1715V332.12H52.2995V333.448H55.5155V343ZM65.197 343.192C67.757 343.192 69.069 341.944 69.165 339.432H67.757C67.677 341.096 66.861 341.88 65.197 341.88C63.373 341.88 62.573 340.952 62.573 338.856V336.264C62.573 334.168 63.373 333.24 65.197 333.24C66.861 333.24 67.677 334.024 67.757 335.704H69.165C69.069 333.176 67.757 331.928 65.197 331.928C62.461 331.928 61.133 333.368 61.133 336.232V338.888C61.133 341.752 62.461 343.192 65.197 343.192ZM75.2439 343.192C77.8039 343.192 79.1159 341.944 79.2119 339.432H77.8039C77.7239 341.096 76.9079 341.88 75.2439 341.88C73.4199 341.88 72.6199 340.952 72.6199 338.856V336.264C72.6199 334.168 73.4199 333.24 75.2439 333.24C76.9079 333.24 77.7239 334.024 77.8039 335.704H79.2119C79.1159 333.176 77.8039 331.928 75.2439 331.928C72.5079 331.928 71.1799 333.368 71.1799 336.232V338.888C71.1799 341.752 72.5079 343.192 75.2439 343.192ZM75.0121 357.192C77.7001 357.192 79.0441 355.8 79.0441 353.032V351.112H75.3161V352.44H77.6361V353.032C77.6361 355.016 76.8361 355.88 75.0281 355.88C73.1401 355.88 72.2761 354.936 72.2761 352.904V350.216C72.2761 348.216 73.1401 347.24 74.9321 347.24C76.5961 347.24 77.4441 348.072 77.5241 349.48H78.9321C78.8361 347.16 77.3801 345.928 74.9481 345.928C72.2761 345.928 70.8361 347.416 70.8361 350.136V352.984C70.8361 355.736 72.2761 357.192 75.0121 357.192ZM33.0189 371H37.5469C39.9469 371 41.0509 370.04 41.0509 367.992C41.0509 366.552 40.5069 365.704 39.2589 365.32V365.288C40.2509 364.92 40.6829 364.152 40.6829 362.936C40.6829 361 39.5629 360.12 37.2269 360.12H33.0189V371ZM34.4589 364.792V361.432H37.1149C38.6349 361.432 39.2589 361.912 39.2589 363.128C39.2589 364.328 38.6509 364.792 37.1309 364.792H34.4589ZM34.4589 369.688V366.104H37.1629C38.9389 366.104 39.6109 366.6 39.6109 367.896C39.6109 369.16 38.9709 369.688 37.3389 369.688H34.4589ZM45.5185 371.192C46.7185 371.192 47.6465 370.728 48.3185 369.88L48.3665 371H49.5665V365.608C49.5665 363.56 48.5105 362.552 46.3345 362.552C44.2705 362.552 43.1505 363.464 43.0065 365.256H44.3825C44.4305 364.248 45.1185 363.768 46.2865 363.768C47.5665 363.768 48.1585 364.36 48.1585 365.64V366.088H46.1745C43.8545 366.088 42.7665 367.016 42.7665 368.664C42.7665 370.28 43.8225 371.192 45.5185 371.192ZM45.7265 369.976C44.6865 369.976 44.1745 369.496 44.1745 368.632C44.1745 367.704 44.7825 367.256 46.2225 367.256H48.1585V368.424C47.6625 369.432 46.8305 369.976 45.7265 369.976ZM52.0468 371H53.4548V365.672C54.0628 364.392 54.7508 363.848 55.6308 363.848C56.4948 363.848 56.9748 364.376 56.9748 365.48V371H58.3828V365.592C58.9908 364.392 59.6948 363.848 60.5588 363.848C61.4228 363.848 61.9028 364.376 61.9028 365.48V371H63.3108V365.368C63.3108 363.544 62.3988 362.552 60.7508 362.552C59.6948 362.552 58.8468 362.968 58.1588 363.992C57.8228 363.048 57.0388 362.552 55.8868 362.552C54.7668 362.552 53.9508 363.016 53.2948 364.04L53.2468 362.744H52.0468V371ZM65.9876 371H67.4276V366.104H72.6916V371H74.1316V360.12H72.6916V364.76H67.4276V360.12H65.9876V371ZM77.0814 371H78.5214V360.12H77.0814V371Z" fill="#003E6B"/>
<path d="M143.464 339.156C144.348 339.156 145.141 338.857 145.843 338.129L145.726 339H146.701L147.468 334.658C147.507 334.424 147.52 334.19 147.52 334.021C147.52 332.799 146.805 332.136 145.193 332.136C143.581 332.136 142.554 332.799 142.19 334.333H143.308C143.477 333.54 144.14 333.124 145.102 333.124C145.96 333.124 146.363 333.449 146.363 334.177C146.363 334.307 146.35 334.489 146.324 334.645L146.259 335.009H144.582C142.684 335.009 141.475 335.828 141.475 337.375C141.475 338.584 142.229 339.156 143.464 339.156ZM143.672 338.168C142.944 338.168 142.619 337.895 142.619 337.31C142.619 336.413 143.347 335.958 144.517 335.958H146.09L145.934 336.842C145.375 337.7 144.621 338.168 143.672 338.168ZM148.703 339H149.847L150.536 335.087C150.991 333.852 151.719 333.293 152.798 333.293H153.11L153.305 332.162H152.811C151.849 332.162 151.186 332.565 150.705 333.475L150.861 332.292H149.886L148.703 339ZM155.08 339.156C155.964 339.156 156.757 338.857 157.459 338.129L157.342 339H158.317L159.084 334.658C159.123 334.424 159.136 334.19 159.136 334.021C159.136 332.799 158.421 332.136 156.809 332.136C155.197 332.136 154.17 332.799 153.806 334.333H154.924C155.093 333.54 155.756 333.124 156.718 333.124C157.576 333.124 157.979 333.449 157.979 334.177C157.979 334.307 157.966 334.489 157.94 334.645L157.875 335.009H156.198C154.3 335.009 153.091 335.828 153.091 337.375C153.091 338.584 153.845 339.156 155.08 339.156ZM155.288 338.168C154.56 338.168 154.235 337.895 154.235 337.31C154.235 336.413 154.963 335.958 156.133 335.958H157.706L157.55 336.842C156.991 337.7 156.237 338.168 155.288 338.168ZM163.414 339.156C165.455 339.156 166.651 338.168 167.093 336.101H165.936C165.637 337.427 164.844 338.09 163.466 338.09C162.296 338.09 161.737 337.609 161.737 336.491C161.737 336.244 161.763 335.945 161.815 335.646L162.179 333.579C162.478 331.863 163.284 331.07 164.792 331.07C165.962 331.07 166.521 331.538 166.521 332.578C166.521 332.734 166.508 332.903 166.482 333.072H167.626C167.665 332.838 167.678 332.63 167.678 332.37C167.678 330.823 166.729 330.004 164.87 330.004C162.634 330.004 161.438 331.187 161.035 333.462L160.658 335.594C160.593 335.958 160.554 336.283 160.554 336.621C160.554 338.285 161.503 339.156 163.414 339.156Z" fill="#003E6B"/>
<path d="M259.97 339.156C261.829 339.156 262.96 338.194 263.311 336.218L263.506 335.113C263.558 334.814 263.584 334.606 263.584 334.359C263.584 332.903 262.726 332.136 261.062 332.136C259.203 332.136 258.072 333.098 257.721 335.074L257.526 336.179C257.474 336.478 257.448 336.686 257.448 336.933C257.448 338.389 258.306 339.156 259.97 339.156ZM260.035 338.155C259.086 338.155 258.605 337.726 258.605 336.829C258.605 336.621 258.631 336.413 258.67 336.192L258.852 335.152C259.086 333.826 259.775 333.137 260.997 333.137C261.946 333.137 262.427 333.566 262.427 334.463C262.427 334.671 262.401 334.879 262.362 335.1L262.18 336.14C261.946 337.466 261.257 338.155 260.035 338.155ZM264.645 339H265.789L266.478 335.087C266.933 333.852 267.661 333.293 268.74 333.293H269.052L269.247 332.162H268.753C267.791 332.162 267.128 332.565 266.647 333.475L266.803 332.292H265.828L264.645 339ZM270.643 331.083H271.891L272.112 329.809H270.864L270.643 331.083ZM269.304 339H270.448L271.631 332.292H270.487L269.304 339Z" fill="#003E6B"/>
<path d="M356.776 339.156C357.66 339.156 358.453 338.857 359.155 338.129L359.038 339H360.013L360.78 334.658C360.819 334.424 360.832 334.19 360.832 334.021C360.832 332.799 360.117 332.136 358.505 332.136C356.893 332.136 355.866 332.799 355.502 334.333H356.62C356.789 333.54 357.452 333.124 358.414 333.124C359.272 333.124 359.675 333.449 359.675 334.177C359.675 334.307 359.662 334.489 359.636 334.645L359.571 335.009H357.894C355.996 335.009 354.787 335.828 354.787 337.375C354.787 338.584 355.541 339.156 356.776 339.156ZM356.984 338.168C356.256 338.168 355.931 337.895 355.931 337.31C355.931 336.413 356.659 335.958 357.829 335.958H359.402L359.246 336.842C358.687 337.7 357.933 338.168 356.984 338.168ZM362.015 339H363.159L363.926 334.684C364.602 333.657 365.252 333.189 365.98 333.189C366.552 333.189 366.851 333.462 366.851 334.06C366.851 334.19 366.838 334.346 366.812 334.502L366.019 339H367.163L367.93 334.632C368.606 333.657 369.269 333.189 369.997 333.189C370.556 333.189 370.855 333.462 370.855 334.06C370.855 334.19 370.842 334.346 370.816 334.502L370.023 339H371.167L371.973 334.437C372.012 334.216 372.012 334.021 372.012 333.865C372.012 332.734 371.388 332.136 370.218 332.136C369.386 332.136 368.658 332.448 367.969 333.28C367.787 332.552 367.215 332.136 366.266 332.136C365.395 332.136 364.693 332.487 364.043 333.28L364.173 332.292H363.198L362.015 339ZM372.796 341.366H373.94L374.525 338.051C374.954 338.805 375.604 339.156 376.54 339.156C378.126 339.156 379.114 338.168 379.426 336.387L379.673 334.97C379.725 334.697 379.751 334.437 379.751 334.19C379.751 332.89 379.023 332.136 377.645 332.136C376.709 332.136 375.942 332.487 375.24 333.293L375.383 332.292H374.408L372.796 341.366ZM376.462 338.155C375.617 338.155 375.045 337.622 374.772 336.673L375.123 334.697C375.76 333.709 376.566 333.137 377.424 333.137C378.191 333.137 378.594 333.592 378.594 334.359C378.594 334.554 378.568 334.749 378.529 334.957L378.295 336.283C378.087 337.453 377.437 338.155 376.462 338.155ZM380.909 339H382.079L382.716 335.412H384.731L386.2 339H387.461L385.953 335.321C387.487 335.022 388.306 333.969 388.306 332.292C388.306 330.758 387.617 330.16 385.81 330.16H382.469L380.909 339ZM382.898 334.346L383.457 331.226H385.589C386.772 331.226 387.136 331.512 387.136 332.383C387.136 333.631 386.395 334.346 384.991 334.346H382.898Z" fill="#003E6B"/>
</svg>
