<svg width="39" height="86" viewBox="0 0 39 86" fill="none" xmlns="http://www.w3.org/2000/svg">
<path d="M13.0408 85.5805C12.152 85.5805 10.7954 85.2544 10.0469 85.0215C9.29848 84.7885 8.69036 82.0865 8.69036 82.0865C6.72567 74.4462 4.0664 63.2041 4.00582 56.427C3.99383 55.0839 4.0058 29 4.0058 29H5.51004H22.0573V56.427C22.0573 63.427 18.9349 74.4462 16.9702 82.0865C16.9702 82.0865 16.362 84.7885 15.6136 85.0215C14.8651 85.2544 13.5086 85.5805 12.6198 85.5805" fill="#868CA6"/>
<path opacity="0.7" d="M12.9863 84.6415C12.191 84.6415 10.9748 84.362 10.3199 84.1291C9.66498 83.9427 9.10364 81.4736 9.10364 81.4736C7.32606 74.6253 5.52311 64.5288 5.00855 58.5191C5.00854 55.427 5.00854 32.6166 5.00854 32.6166V30.427H21.0543C21.0543 30.427 21.335 55.3512 21.0543 58.5191C20.5397 64.5288 18.319 74.5787 16.5414 81.427C16.5414 81.427 15.9801 83.8495 15.3252 84.0825C14.6703 84.2688 13.454 84.5949 12.6588 84.5949" fill="#C0C3D2"/>
<rect x="2" y="29" width="23.0657" height="2" fill="#868CA6"/>
<rect x="4.00574" y="37.427" width="18.0515" height="16" fill="white"/>
<path d="M17.0429 31H22.0572C22.0572 31 22.0572 54.5636 22.0572 57.5091C22.0572 60.4545 20.0515 69.7818 20.0515 69.7818C20.0515 69.7818 16.2595 84.2943 16.0401 84.5091C15.8207 84.7239 13.0315 85 13.0315 85L17.0429 57.5091V31Z" fill="black" fill-opacity="0.1"/>
<rect opacity="0.5" x="35.2509" y="6.47754" width="16" height="3.6703" transform="rotate(108.892 35.2509 6.47754)" fill="#AFB3C5"/>
<path fill-rule="evenodd" clip-rule="evenodd" d="M30.4982 27.0635L38.854 2.64758L36.9617 2L28.5432 26.5994L28.5761 26.6106C28.1739 27.3836 27.5439 27.9824 26.8605 28.3925C26.1473 28.8204 25.4483 29 25 29V31C25.885 31 26.936 30.6796 27.8895 30.1075C28.8558 29.5277 29.7949 28.6462 30.3944 27.4472C30.4562 27.3236 30.49 27.1933 30.4982 27.0635Z" fill="#868CA6"/>
<rect x="7" y="40" width="12" height="2" fill="#3E3E3E"/>
<rect x="7" y="44" width="12" height="2" fill="#3E3E3E"/>
<rect x="7" y="48" width="12" height="2" fill="#3E3E3E"/>
</svg>
