<svg xmlns="http://www.w3.org/2000/svg" width="591" height="720" fill="none" viewBox="0 0 591 720">
    <rect width="591" height="720" fill="url(#a)" rx="5"/>
    <circle cx="132.5" cy="122.5" r="58.5" stroke="#C5C5C5" stroke-width="10" filter="url(#b)"/>
    <g stroke-width="10" filter="url(#c)">
        <circle cx="290.5" cy="122.5" r="58.5" stroke="#C5C5C5"/>
        <path stroke="#008D36" d="M349 122.5c0-17.27-7.483-32.792-19.384-43.5"/>
        <path stroke="#E52826" d="M259 171.723c-16.237-10.396-27-28.593-27-49.304 0-22.97 13.238-42.846 32.5-52.419"/>
    </g>
    <g stroke-width="10" filter="url(#d)">
        <circle cx="459.5" cy="122.5" r="58.5" stroke="#C5C5C5"/>
        <path stroke="#E52826" d="M429.5 72c-17.071 10.217-28.5 28.89-28.5 50.232 0 32.309 26.191 58.5 58.5 58.5 19.848 0 37.388-9.884 47.964-25"/>
        <path stroke="#008D36" d="M518 122.5c0-32.309-25.691-58.5-58-58.5"/>
    </g>
    <g stroke-width="10" filter="url(#e)">
        <circle cx="132.5" cy="283.5" r="58.5" stroke="#C5C5C5"/>
        <path stroke="#333332" d="M132.376 225c-2.025 0-4.027.103-6 .304C106.764 227.302 90.018 238.988 81 255.5"/>
        <path stroke="#115F92" d="M74 289c2.772 29.73 27.791 53 58.245 53 2.369 0 4.705-.141 7-.414"/>
        <path stroke="#1399F1" d="M191 282.646c0-22.368-12.554-40.803-31-50.646"/>
    </g>
    <g stroke-width="10" filter="url(#f)">
        <circle cx="290.5" cy="283.5" r="58.5" stroke="#C5C5C5"/>
        <path stroke="#F8AF3E" d="M254.5 329.615C240.804 318.908 232 302.232 232 283.5c0-32.309 26.191-58.5 58.5-58.5 25.658 0 47.457 16.518 55.345 39.5"/>
    </g>
    <g stroke-width="10" filter="url(#g)">
        <circle cx="459.5" cy="283.5" r="58.5" stroke="#C5C5C5"/>
        <path stroke="#333332" d="M401.542 291.5a59.136 59.136 0 0 1-.542-8 58.25 58.25 0 0 1 12.781-36.5"/>
        <path stroke="#1399F1" d="M442 227.821A58.487 58.487 0 0 1 460 225c14.215 0 27.363 5.57 37.5 14"/>
        <path stroke="#115F92" d="M470.43 340.87a58.804 58.804 0 0 1-11.5 1.13c-21.133 0-39.149-11.206-49.43-28"/>
        <path stroke="#008D36" d="M509 252.5c4.368 7.135 7.536 14.779 8.5 23.5"/>
        <path stroke="#E52826" d="M518 283c0 17.083-7.322 32.805-19 43.5"/>
    </g>
    <g stroke-width="10" filter="url(#h)">
        <circle cx="132.5" cy="444.5" r="58.5" stroke="#C5C5C5"/>
        <path stroke="#E52826" d="M149.5 500.5c9.533-3.08 19.496-9.361 26.188-16.5"/>
        <path stroke="#008D36" d="M181.5 476.5c4.913-7.178 7.768-15.508 9.076-24.5"/>
        <path stroke="#F8AF3E" d="M96.5 490.615C82.804 479.908 74 463.232 74 444.5c0-32.309 26.191-58.5 58.5-58.5 25.658 0 47.457 16.518 55.345 39.5"/>
    </g>
    <g stroke-width="10" filter="url(#i)">
        <circle cx="132.5" cy="605.5" r="58.5" stroke="#C5C5C5"/>
        <path stroke="#F8AF3E" d="M106.5 553.081C87.238 562.653 74 582.531 74 605.5c0 2.026.103 4.027.304 6m65.196 52.085c23.29-2.777 42.379-19.237 49-41.113"/>
    </g>
    <g stroke-width="10" filter="url(#j)">
        <circle cx="290.5" cy="444.5" r="58.5" stroke="#C5C5C5"/>
        <path stroke="#115F92" d="M249 485.5c9.018 8.96 20.941 15.501 34.231 17.086"/>
        <path stroke="#1399F1" d="M343.5 469.5c3.589-7.581 5.5-16.056 5.5-25 0-3.409-.44-6.751-1-10"/>
        <path stroke="#333332" d="M308 500.338c9.959-3.119 18.773-8.828 25.651-16.338"/>
        <path stroke="#1399F1" d="M305 387.811c11.868 3.026 22.285 9.681 30 18.714"/>
        <path stroke="#115F92" d="M237.362 420c-3.442 7.453-5.362 15.752-5.362 24.5a58.31 58.31 0 0 0 4.695 23"/>
        <path stroke="#333332" d="M279.104 387.13c-12.648 2.521-23.826 9.121-32.104 18.37"/>
    </g>
    <g stroke-width="10" filter="url(#k)">
        <circle cx="459.5" cy="444.5" r="58.5" stroke="#C5C5C5"/>
        <path stroke="#F8AF3E" d="M484.5 391.596c-7.581-3.589-16.056-5.596-25-5.596-22.165 0-41.451 12.327-51.376 30.5"/>
        <path stroke="#1399F1" d="M515 463.043a58.433 58.433 0 0 0 3-18.543 58.296 58.296 0 0 0-5-23.7"/>
        <path stroke="#115F92" d="M429 494.43c8.881 5.436 19.325 8.57 30.5 8.57 4.29 0 8.473-.462 12.5-1.339"/>
        <path stroke="#333332" d="M490 494.43A58.8 58.8 0 0 0 510.028 474"/>
    </g>
    <path fill="#fff" d="M108.44 129h2.844c.18-4.014 1.566-6.948 4.536-9.828v-2.412h-9v2.34h6.246c-2.88 2.52-4.446 5.814-4.626 9.9zm13.621.216c3.042 0 4.572-1.404 4.572-4.266 0-2.646-1.314-4.068-3.744-4.068-.936 0-1.728.216-2.376.72l.162-2.556h5.4v-2.286h-7.614l-.45 7.056h2.322c.45-.45 1.044-.738 1.818-.738 1.188 0 1.818.666 1.818 1.944s-.63 1.944-1.926 1.944c-1.116 0-1.782-.504-1.836-1.386h-2.556c.018 2.412 1.566 3.636 4.41 3.636zm11.695-.216h2.664v-2.502h1.26v-2.178h-1.26v-7.56h-2.844l-5.526 7.398v2.34h5.706V129zm-3.15-4.68l3.15-4.374v4.374h-3.15zm13.8 4.896c2.142 0 3.348-1.314 3.348-3.852v-2.106c0-2.538-1.206-3.87-3.348-3.87-1.008 0-1.8.306-2.43.972v-4.5h-2.664V129h2.268l.072-1.134c.702.936 1.566 1.35 2.754 1.35zm-.63-2.16c-.828 0-1.422-.486-1.8-1.422v-2.646c.378-.954.972-1.44 1.818-1.44.846 0 1.296.486 1.296 1.71v2.088c0 1.206-.45 1.71-1.314 1.71zm5.96 5.22h2.664v-4.032c.63.666 1.422.972 2.43.972 2.142 0 3.348-1.332 3.348-3.87v-2.106c0-2.538-1.206-3.852-3.348-3.852-1.188 0-2.052.414-2.754 1.35l-.072-1.134h-2.268v12.672zm4.482-5.22c-.846 0-1.44-.486-1.818-1.44v-2.646c.378-.936.972-1.422 1.8-1.422.864 0 1.314.504 1.314 1.71v2.088c0 1.224-.45 1.71-1.296 1.71zM258.161 129h8.514v-2.286h-2.916v-9.954h-2.538c-.702 1.098-1.71 1.548-3.42 1.584v2.07c1.098-.018 2.25-.072 3.294-.378v6.678h-2.934V129zm10.722 0h8.514v-2.286h-2.916v-9.954h-2.538c-.702 1.098-1.71 1.548-3.42 1.584v2.07c1.098-.018 2.25-.072 3.294-.378v6.678h-2.934V129zm14.395.216c3.078 0 4.68-1.26 4.68-3.6 0-1.458-.63-2.466-1.872-2.97v-.036c1.062-.486 1.584-1.368 1.584-2.646 0-2.196-1.566-3.42-4.374-3.42-2.826 0-4.392 1.224-4.392 3.438 0 1.26.522 2.142 1.566 2.628v.036c-1.242.504-1.872 1.512-1.872 2.97 0 2.34 1.602 3.6 4.68 3.6zm0-7.524c-1.116 0-1.764-.504-1.764-1.494 0-.972.612-1.44 1.764-1.44 1.152 0 1.764.468 1.764 1.44 0 .99-.648 1.494-1.764 1.494zm-.018 5.31c-1.368 0-2.016-.468-2.016-1.512 0-1.08.702-1.584 2.016-1.584 1.332 0 2.034.504 2.034 1.584 0 1.044-.666 1.512-2.034 1.512zM294.955 129h2.664v-2.502h1.26v-2.178h-1.26v-7.56h-2.844l-5.526 7.398v2.34h5.706V129zm-3.15-4.68l3.15-4.374v4.374h-3.15zm18.125 4.896c2.142 0 3.348-1.314 3.348-3.852v-2.106c0-2.538-1.206-3.87-3.348-3.87-1.008 0-1.8.306-2.43.972v-4.5h-2.664V129h2.268l.072-1.134c.702.936 1.566 1.35 2.754 1.35zm-.63-2.16c-.828 0-1.422-.486-1.8-1.422v-2.646c.378-.954.972-1.44 1.818-1.44.846 0 1.296.486 1.296 1.71v2.088c0 1.206-.45 1.71-1.314 1.71zm5.959 5.22h2.664v-4.032c.63.666 1.422.972 2.43.972 2.142 0 3.348-1.332 3.348-3.87v-2.106c0-2.538-1.206-3.852-3.348-3.852-1.188 0-2.052.414-2.754 1.35l-.072-1.134h-2.268v12.672zm4.482-5.22c-.846 0-1.44-.486-1.818-1.44v-2.646c.378-.936.972-1.422 1.8-1.422.864 0 1.314.504 1.314 1.71v2.088c0 1.224-.45 1.71-1.296 1.71zM427.161 129h8.514v-2.286h-2.916v-9.954h-2.538c-.702 1.098-1.71 1.548-3.42 1.584v2.07c1.098-.018 2.25-.072 3.294-.378v6.678h-2.934V129zm14.502.216c2.97 0 4.428-1.44 4.428-4.176 0-2.556-1.278-3.942-3.6-3.942-1.098 0-1.944.306-2.628.99v-1.206c0-1.386.594-2.088 1.854-2.088 1.134 0 1.656.576 1.728 1.314h2.556c-.072-2.268-1.422-3.564-4.248-3.564-2.988 0-4.554 1.44-4.554 4.23v4.302c0 2.736 1.548 4.14 4.464 4.14zm.018-2.25c-1.206 0-1.818-.684-1.818-1.998v-.27c.396-.9 1.044-1.35 1.962-1.35 1.08 0 1.602.612 1.602 1.764 0 1.188-.558 1.854-1.746 1.854zm6.925 2.034h8.514v-2.286h-2.916v-9.954h-2.538c-.702 1.098-1.71 1.548-3.42 1.584v2.07c1.098-.018 2.25-.072 3.294-.378v6.678h-2.934V129zm15.349 0h2.664v-2.502h1.26v-2.178h-1.26v-7.56h-2.844l-5.526 7.398v2.34h5.706V129zm-3.15-4.68l3.15-4.374v4.374h-3.15zm18.125 4.896c2.142 0 3.348-1.314 3.348-3.852v-2.106c0-2.538-1.206-3.87-3.348-3.87-1.008 0-1.8.306-2.43.972v-4.5h-2.664V129h2.268l.072-1.134c.702.936 1.566 1.35 2.754 1.35zm-.63-2.16c-.828 0-1.422-.486-1.8-1.422v-2.646c.378-.954.972-1.44 1.818-1.44.846 0 1.296.486 1.296 1.71v2.088c0 1.206-.45 1.71-1.314 1.71zm5.959 5.22h2.664v-4.032c.63.666 1.422.972 2.43.972 2.142 0 3.348-1.332 3.348-3.87v-2.106c0-2.538-1.206-3.852-3.348-3.852-1.188 0-2.052.414-2.754 1.35l-.072-1.134h-2.268v12.672zm4.482-5.22c-.846 0-1.44-.486-1.818-1.44v-2.646c.378-.936.972-1.422 1.8-1.422.864 0 1.314.504 1.314 1.71v2.088c0 1.224-.45 1.71-1.296 1.71zM111.671 282.276h2.664v-4.032c.63.666 1.422.972 2.43.972 2.142 0 3.348-1.332 3.348-3.87v-2.106c0-2.538-1.206-3.852-3.348-3.852-1.188 0-2.052.414-2.754 1.35l-.072-1.134h-2.268v12.672zm4.482-5.22c-.846 0-1.44-.486-1.818-1.44v-2.646c.378-.936.972-1.422 1.8-1.422.864 0 1.314.504 1.314 1.71v2.088c0 1.224-.45 1.71-1.296 1.71zm4.825 1.944h2.736l.774-2.466h3.852l.774 2.466h2.862l-4.104-12.24h-2.79L120.978 279zm4.176-4.716l1.26-4.464 1.26 4.464h-2.52zm8.213 4.716h2.7v-4.518h1.458l2.43 4.518h3.078l-2.646-4.77c1.53-.45 2.178-1.602 2.178-3.6 0-2.736-1.188-3.87-4.194-3.87h-5.004V279zm2.7-6.822v-3.114h2.016c1.314 0 1.782.45 1.782 1.566 0 1.098-.468 1.548-1.782 1.548h-2.016zm7.376 6.822h2.736l.774-2.466h3.852l.774 2.466h2.862l-4.104-12.24h-2.79L143.443 279zm4.176-4.716l1.26-4.464 1.26 4.464h-2.52zM104.787 301h2.664v-2.502h1.26v-2.178h-1.26v-7.56h-2.844l-5.526 7.398v2.34h5.706V301zm-3.15-4.68l3.15-4.374v4.374h-3.15zm12.918 4.896c3.078 0 4.68-1.26 4.68-3.6 0-1.458-.63-2.466-1.872-2.97v-.036c1.062-.486 1.584-1.368 1.584-2.646 0-2.196-1.566-3.42-4.374-3.42-2.826 0-4.392 1.224-4.392 3.438 0 1.26.522 2.142 1.566 2.628v.036c-1.242.504-1.872 1.512-1.872 2.97 0 2.34 1.602 3.6 4.68 3.6zm0-7.524c-1.116 0-1.764-.504-1.764-1.494 0-.972.612-1.44 1.764-1.44 1.152 0 1.764.468 1.764 1.44 0 .99-.648 1.494-1.764 1.494zm-.018 5.31c-1.368 0-2.016-.468-2.016-1.512 0-1.08.702-1.584 2.016-1.584 1.332 0 2.034.504 2.034 1.584 0 1.044-.666 1.512-2.034 1.512zm7.825 1.998h2.844c.18-4.014 1.566-6.948 4.536-9.828v-2.412h-9v2.34h6.246c-2.88 2.52-4.446 5.814-4.626 9.9zm9.139 0h8.874v-2.286h-6.192c.162-.738.792-1.206 2.448-1.944 2.682-1.206 3.744-2.502 3.744-4.536 0-2.34-1.494-3.69-4.338-3.69-2.808 0-4.338 1.332-4.338 3.87v.576h2.52v-.342c0-1.26.594-1.854 1.8-1.854 1.17 0 1.71.576 1.71 1.458 0 1.026-.612 1.638-2.448 2.502-2.736 1.278-3.78 2.664-3.78 4.986V301zm20.429.216c2.142 0 3.348-1.314 3.348-3.852v-2.106c0-2.538-1.206-3.87-3.348-3.87-1.008 0-1.8.306-2.43.972v-4.5h-2.664V301h2.268l.072-1.134c.702.936 1.566 1.35 2.754 1.35zm-.63-2.16c-.828 0-1.422-.486-1.8-1.422v-2.646c.378-.954.972-1.44 1.818-1.44.846 0 1.296.486 1.296 1.71v2.088c0 1.206-.45 1.71-1.314 1.71zm5.959 5.22h2.664v-4.032c.63.666 1.422.972 2.43.972 2.142 0 3.348-1.332 3.348-3.87v-2.106c0-2.538-1.206-3.852-3.348-3.852-1.188 0-2.052.414-2.754 1.35l-.072-1.134h-2.268v12.672zm4.482-5.22c-.846 0-1.44-.486-1.818-1.44v-2.646c.378-.936.972-1.422 1.8-1.422.864 0 1.314.504 1.314 1.71v2.088c0 1.224-.45 1.71-1.296 1.71zM261.815 290.216c3.042 0 4.572-1.404 4.572-4.266 0-2.646-1.314-4.068-3.744-4.068-.936 0-1.728.216-2.376.72l.162-2.556h5.4v-2.286h-7.614l-.45 7.056h2.322c.45-.45 1.044-.738 1.818-.738 1.188 0 1.818.666 1.818 1.944s-.63 1.944-1.926 1.944c-1.116 0-1.782-.504-1.836-1.386h-2.556c.018 2.412 1.566 3.636 4.41 3.636zm10.74 0c2.898 0 4.428-1.422 4.428-4.122v-4.428c0-2.718-1.53-4.122-4.428-4.122-2.898 0-4.428 1.404-4.428 4.122v4.428c0 2.7 1.53 4.122 4.428 4.122zm0-2.25c-1.242 0-1.764-.594-1.764-1.98v-4.212c0-1.386.522-1.98 1.764-1.98s1.764.594 1.764 1.98v4.212c0 1.386-.522 1.98-1.764 1.98zm10.723 2.25c3.078 0 4.68-1.26 4.68-3.6 0-1.458-.63-2.466-1.872-2.97v-.036c1.062-.486 1.584-1.368 1.584-2.646 0-2.196-1.566-3.42-4.374-3.42-2.826 0-4.392 1.224-4.392 3.438 0 1.26.522 2.142 1.566 2.628v.036c-1.242.504-1.872 1.512-1.872 2.97 0 2.34 1.602 3.6 4.68 3.6zm0-7.524c-1.116 0-1.764-.504-1.764-1.494 0-.972.612-1.44 1.764-1.44 1.152 0 1.764.468 1.764 1.44 0 .99-.648 1.494-1.764 1.494zm-.018 5.31c-1.368 0-2.016-.468-2.016-1.512 0-1.08.702-1.584 2.016-1.584 1.332 0 2.034.504 2.034 1.584 0 1.044-.666 1.512-2.034 1.512zm6.241 1.998h8.874v-2.286h-6.192c.162-.738.792-1.206 2.448-1.944 2.682-1.206 3.744-2.502 3.744-4.536 0-2.34-1.494-3.69-4.338-3.69-2.808 0-4.338 1.332-4.338 3.87v.576h2.52v-.342c0-1.26.594-1.854 1.8-1.854 1.17 0 1.71.576 1.71 1.458 0 1.026-.612 1.638-2.448 2.502-2.736 1.278-3.78 2.664-3.78 4.986V290zm20.429.216c2.142 0 3.348-1.314 3.348-3.852v-2.106c0-2.538-1.206-3.87-3.348-3.87-1.008 0-1.8.306-2.43.972v-4.5h-2.664V290h2.268l.072-1.134c.702.936 1.566 1.35 2.754 1.35zm-.63-2.16c-.828 0-1.422-.486-1.8-1.422v-2.646c.378-.954.972-1.44 1.818-1.44.846 0 1.296.486 1.296 1.71v2.088c0 1.206-.45 1.71-1.314 1.71zm5.959 5.22h2.664v-4.032c.63.666 1.422.972 2.43.972 2.142 0 3.348-1.332 3.348-3.87v-2.106c0-2.538-1.206-3.852-3.348-3.852-1.188 0-2.052.414-2.754 1.35l-.072-1.134h-2.268v12.672zm4.482-5.22c-.846 0-1.44-.486-1.818-1.44v-2.646c.378-.936.972-1.422 1.8-1.422.864 0 1.314.504 1.314 1.71v2.088c0 1.224-.45 1.71-1.296 1.71zM429.618 282.276h2.664v-4.032c.63.666 1.422.972 2.43.972 2.142 0 3.348-1.332 3.348-3.87v-2.106c0-2.538-1.206-3.852-3.348-3.852-1.188 0-2.052.414-2.754 1.35l-.072-1.134h-2.268v12.672zm4.482-5.22c-.846 0-1.44-.486-1.818-1.44v-2.646c.378-.936.972-1.422 1.8-1.422.864 0 1.314.504 1.314 1.71v2.088c0 1.224-.45 1.71-1.296 1.71zm4.826 1.944h2.736l.774-2.466h3.852l.774 2.466h2.862l-4.104-12.24h-2.79L438.926 279zm4.176-4.716l1.26-4.464 1.26 4.464h-2.52zm8.212 4.716h2.7v-4.518h1.458l2.43 4.518h3.078l-2.646-4.77c1.53-.45 2.178-1.602 2.178-3.6 0-2.736-1.188-3.87-4.194-3.87h-5.004V279zm2.7-6.822v-3.114h2.016c1.314 0 1.782.45 1.782 1.566 0 1.098-.468 1.548-1.782 1.548h-2.016zM461.39 279h2.736l.774-2.466h3.852l.774 2.466h2.862l-4.104-12.24h-2.79L461.39 279zm4.176-4.716l1.26-4.464 1.26 4.464h-2.52zm7.281.522h5.706v-2.304h-5.706v2.304zm7.647 4.194h2.7v-4.518h1.458l2.43 4.518h3.078l-2.646-4.77c1.53-.45 2.178-1.602 2.178-3.6 0-2.736-1.188-3.87-4.194-3.87h-5.004V279zm2.7-6.822v-3.114h2.016c1.314 0 1.782.45 1.782 1.566 0 1.098-.468 1.548-1.782 1.548h-2.016zm-52.379 29.038c3.042 0 4.572-1.404 4.572-4.266 0-2.646-1.314-4.068-3.744-4.068-.936 0-1.728.216-2.376.72l.162-2.556h5.4v-2.286h-7.614l-.45 7.056h2.322c.45-.45 1.044-.738 1.818-.738 1.188 0 1.818.666 1.818 1.944s-.63 1.944-1.926 1.944c-1.116 0-1.782-.504-1.836-1.386h-2.556c.018 2.412 1.566 3.636 4.41 3.636zm10.758 0c2.988 0 4.5-1.188 4.5-3.636 0-1.476-.558-2.448-1.818-2.934v-.036c1.044-.486 1.53-1.368 1.53-2.646 0-2.232-1.476-3.42-4.212-3.42-2.826 0-4.302 1.278-4.302 3.69v.378h2.538v-.234c0-1.026.576-1.584 1.71-1.584 1.08 0 1.638.486 1.638 1.476 0 1.026-.594 1.44-1.854 1.44h-1.116v2.232h1.17c1.44 0 2.052.468 2.052 1.512 0 1.062-.666 1.512-1.836 1.512-1.296 0-1.908-.54-1.908-1.62v-.288h-2.574v.63c0 2.34 1.512 3.528 4.482 3.528zm10.705 0c2.898 0 4.428-1.422 4.428-4.122v-4.428c0-2.718-1.53-4.122-4.428-4.122-2.898 0-4.428 1.404-4.428 4.122v4.428c0 2.7 1.53 4.122 4.428 4.122zm0-2.25c-1.242 0-1.764-.594-1.764-1.98v-4.212c0-1.386.522-1.98 1.764-1.98s1.764.594 1.764 1.98v4.212c0 1.386-.522 1.98-1.764 1.98zm6.223 2.034h8.874v-2.286h-6.192c.162-.738.792-1.206 2.448-1.944 2.682-1.206 3.744-2.502 3.744-4.536 0-2.34-1.494-3.69-4.338-3.69-2.808 0-4.338 1.332-4.338 3.87v.576h2.52v-.342c0-1.26.594-1.854 1.8-1.854 1.17 0 1.71.576 1.71 1.458 0 1.026-.612 1.638-2.448 2.502-2.736 1.278-3.78 2.664-3.78 4.986V301zm20.429.216c2.142 0 3.348-1.314 3.348-3.852v-2.106c0-2.538-1.206-3.87-3.348-3.87-1.008 0-1.8.306-2.43.972v-4.5h-2.664V301h2.268l.072-1.134c.702.936 1.566 1.35 2.754 1.35zm-.63-2.16c-.828 0-1.422-.486-1.8-1.422v-2.646c.378-.954.972-1.44 1.818-1.44.846 0 1.296.486 1.296 1.71v2.088c0 1.206-.45 1.71-1.314 1.71zm5.959 5.22h2.664v-4.032c.63.666 1.422.972 2.43.972 2.142 0 3.348-1.332 3.348-3.87v-2.106c0-2.538-1.206-3.852-3.348-3.852-1.188 0-2.052.414-2.754 1.35l-.072-1.134h-2.268v12.672zm4.482-5.22c-.846 0-1.44-.486-1.818-1.44v-2.646c.378-.936.972-1.422 1.8-1.422.864 0 1.314.504 1.314 1.71v2.088c0 1.224-.45 1.71-1.296 1.71zM102.029 443.276h2.664v-4.032c.63.666 1.422.972 2.43.972 2.142 0 3.348-1.332 3.348-3.87v-2.106c0-2.538-1.206-3.852-3.348-3.852-1.188 0-2.052.414-2.754 1.35l-.072-1.134h-2.268v12.672zm4.482-5.22c-.846 0-1.44-.486-1.818-1.44v-2.646c.378-.936.972-1.422 1.8-1.422.864 0 1.314.504 1.314 1.71v2.088c0 1.224-.45 1.71-1.296 1.71zm6.14 1.944h2.7v-3.24l1.44-1.836 2.79 5.076h3.078l-3.996-7.218 3.942-5.022h-3.096l-4.158 5.346v-5.346h-2.7V440zm9.883 0h2.736l.774-2.466h3.852l.774 2.466h2.862l-4.104-12.24h-2.79L122.534 440zm4.176-4.716l1.26-4.464 1.26 4.464h-2.52zm8.212 4.716h2.556v-8.244l4.446 8.244h2.574v-12.24h-2.556v7.722l-4.158-7.722h-2.862V440zm11.514-4.194h5.706v-2.304h-5.706v2.304zm7.646 4.194h2.7v-4.518h1.458l2.43 4.518h3.078l-2.646-4.77c1.53-.45 2.178-1.602 2.178-3.6 0-2.736-1.188-3.87-4.194-3.87h-5.004V440zm2.7-6.822v-3.114h2.016c1.314 0 1.782.45 1.782 1.566 0 1.098-.468 1.548-1.782 1.548h-2.016zm-52.967 29.038c3.042 0 4.572-1.404 4.572-4.266 0-2.646-1.314-4.068-3.744-4.068-.936 0-1.728.216-2.376.72l.162-2.556h5.4v-2.286h-7.614l-.45 7.056h2.322c.45-.45 1.044-.738 1.818-.738 1.188 0 1.818.666 1.818 1.944s-.63 1.944-1.926 1.944c-1.116 0-1.782-.504-1.836-1.386h-2.556c.018 2.412 1.566 3.636 4.41 3.636zm10.722 0c3.042 0 4.572-1.404 4.572-4.266 0-2.646-1.314-4.068-3.744-4.068-.936 0-1.728.216-2.376.72l.162-2.556h5.4v-2.286h-7.614l-.45 7.056h2.322c.45-.45 1.044-.738 1.818-.738 1.188 0 1.818.666 1.818 1.944s-.63 1.944-1.926 1.944c-1.116 0-1.782-.504-1.836-1.386h-2.556c.018 2.412 1.566 3.636 4.41 3.636zm7.069-.216h8.514v-2.286h-2.916v-9.954h-2.538c-.702 1.098-1.71 1.548-3.42 1.584v2.07c1.098-.018 2.25-.072 3.294-.378v6.678h-2.934V462zm9.895 0h8.874v-2.286h-6.192c.162-.738.792-1.206 2.448-1.944 2.682-1.206 3.744-2.502 3.744-4.536 0-2.34-1.494-3.69-4.338-3.69-2.808 0-4.338 1.332-4.338 3.87v.576h2.52v-.342c0-1.26.594-1.854 1.8-1.854 1.17 0 1.71.576 1.71 1.458 0 1.026-.612 1.638-2.448 2.502-2.736 1.278-3.78 2.664-3.78 4.986V462zm20.429.216c2.142 0 3.348-1.314 3.348-3.852v-2.106c0-2.538-1.206-3.87-3.348-3.87-1.008 0-1.8.306-2.43.972v-4.5h-2.664V462h2.268l.072-1.134c.702.936 1.566 1.35 2.754 1.35zm-.63-2.16c-.828 0-1.422-.486-1.8-1.422v-2.646c.378-.954.972-1.44 1.818-1.44.846 0 1.296.486 1.296 1.71v2.088c0 1.206-.45 1.71-1.314 1.71zm5.959 5.22h2.664v-4.032c.63.666 1.422.972 2.43.972 2.142 0 3.348-1.332 3.348-3.87v-2.106c0-2.538-1.206-3.852-3.348-3.852-1.188 0-2.052.414-2.754 1.35l-.072-1.134h-2.268v12.672zm4.482-5.22c-.846 0-1.44-.486-1.818-1.44v-2.646c.378-.936.972-1.422 1.8-1.422.864 0 1.314.504 1.314 1.71v2.088c0 1.224-.45 1.71-1.296 1.71zM103.635 612.216c2.988 0 4.554-1.44 4.554-4.23v-4.302c0-2.736-1.548-4.14-4.464-4.14-2.97 0-4.428 1.44-4.428 4.176 0 2.556 1.278 3.942 3.6 3.942 1.098 0 1.944-.306 2.628-.99v1.206c0 1.386-.594 2.088-1.854 2.088-1.134 0-1.656-.576-1.728-1.314h-2.556c.072 2.268 1.422 3.564 4.248 3.564zm-.072-6.804c-1.08 0-1.602-.612-1.602-1.764 0-1.188.558-1.854 1.746-1.854 1.206 0 1.818.684 1.818 1.998v.27c-.396.9-1.044 1.35-1.962 1.35zM115.509 612h2.664v-2.502h1.26v-2.178h-1.26v-7.56h-2.844l-5.526 7.398v2.34h5.706V612zm-3.15-4.68l3.15-4.374v4.374h-3.15zm9.247 4.68h8.514v-2.286h-2.916v-9.954h-2.538c-.702 1.098-1.71 1.548-3.42 1.584v2.07c1.098-.018 2.25-.072 3.294-.378v6.678h-2.934V612zm14.395.216c2.898 0 4.428-1.422 4.428-4.122v-4.428c0-2.718-1.53-4.122-4.428-4.122-2.898 0-4.428 1.404-4.428 4.122v4.428c0 2.7 1.53 4.122 4.428 4.122zm0-2.25c-1.242 0-1.764-.594-1.764-1.98v-4.212c0-1.386.522-1.98 1.764-1.98s1.764.594 1.764 1.98v4.212c0 1.386-.522 1.98-1.764 1.98zm15.929 2.25c2.142 0 3.348-1.314 3.348-3.852v-2.106c0-2.538-1.206-3.87-3.348-3.87-1.008 0-1.8.306-2.43.972v-4.5h-2.664V612h2.268l.072-1.134c.702.936 1.566 1.35 2.754 1.35zm-.63-2.16c-.828 0-1.422-.486-1.8-1.422v-2.646c.378-.954.972-1.44 1.818-1.44.846 0 1.296.486 1.296 1.71v2.088c0 1.206-.45 1.71-1.314 1.71zm5.959 5.22h2.664v-4.032c.63.666 1.422.972 2.43.972 2.142 0 3.348-1.332 3.348-3.87v-2.106c0-2.538-1.206-3.852-3.348-3.852-1.188 0-2.052.414-2.754 1.35l-.072-1.134h-2.268v12.672zm4.482-5.22c-.846 0-1.44-.486-1.818-1.44v-2.646c.378-.936.972-1.422 1.8-1.422.864 0 1.314.504 1.314 1.71v2.088c0 1.224-.45 1.71-1.296 1.71zM261.833 451.216c3.078 0 4.68-1.26 4.68-3.6 0-1.458-.63-2.466-1.872-2.97v-.036c1.062-.486 1.584-1.368 1.584-2.646 0-2.196-1.566-3.42-4.374-3.42-2.826 0-4.392 1.224-4.392 3.438 0 1.26.522 2.142 1.566 2.628v.036c-1.242.504-1.872 1.512-1.872 2.97 0 2.34 1.602 3.6 4.68 3.6zm0-7.524c-1.116 0-1.764-.504-1.764-1.494 0-.972.612-1.44 1.764-1.44 1.152 0 1.764.468 1.764 1.44 0 .99-.648 1.494-1.764 1.494zm-.018 5.31c-1.368 0-2.016-.468-2.016-1.512 0-1.08.702-1.584 2.016-1.584 1.332 0 2.034.504 2.034 1.584 0 1.044-.666 1.512-2.034 1.512zm10.542 2.214c2.988 0 4.554-1.44 4.554-4.23v-4.302c0-2.736-1.548-4.14-4.464-4.14-2.97 0-4.428 1.44-4.428 4.176 0 2.556 1.278 3.942 3.6 3.942 1.098 0 1.944-.306 2.628-.99v1.206c0 1.386-.594 2.088-1.854 2.088-1.134 0-1.656-.576-1.728-1.314h-2.556c.072 2.268 1.422 3.564 4.248 3.564zm-.072-6.804c-1.08 0-1.602-.612-1.602-1.764 0-1.188.558-1.854 1.746-1.854 1.206 0 1.818.684 1.818 1.998v.27c-.396.9-1.044 1.35-1.962 1.35zm10.795 6.804c2.988 0 4.554-1.44 4.554-4.23v-4.302c0-2.736-1.548-4.14-4.464-4.14-2.97 0-4.428 1.44-4.428 4.176 0 2.556 1.278 3.942 3.6 3.942 1.098 0 1.944-.306 2.628-.99v1.206c0 1.386-.594 2.088-1.854 2.088-1.134 0-1.656-.576-1.728-1.314h-2.556c.072 2.268 1.422 3.564 4.248 3.564zm-.072-6.804c-1.08 0-1.602-.612-1.602-1.764 0-1.188.558-1.854 1.746-1.854 1.206 0 1.818.684 1.818 1.998v.27c-.396.9-1.044 1.35-1.962 1.35zm10.993 6.804c2.898 0 4.428-1.422 4.428-4.122v-4.428c0-2.718-1.53-4.122-4.428-4.122-2.898 0-4.428 1.404-4.428 4.122v4.428c0 2.7 1.53 4.122 4.428 4.122zm0-2.25c-1.242 0-1.764-.594-1.764-1.98v-4.212c0-1.386.522-1.98 1.764-1.98s1.764.594 1.764 1.98v4.212c0 1.386-.522 1.98-1.764 1.98zm15.929 2.25c2.142 0 3.348-1.314 3.348-3.852v-2.106c0-2.538-1.206-3.87-3.348-3.87-1.008 0-1.8.306-2.43.972v-4.5h-2.664V451h2.268l.072-1.134c.702.936 1.566 1.35 2.754 1.35zm-.63-2.16c-.828 0-1.422-.486-1.8-1.422v-2.646c.378-.954.972-1.44 1.818-1.44.846 0 1.296.486 1.296 1.71v2.088c0 1.206-.45 1.71-1.314 1.71zm5.959 5.22h2.664v-4.032c.63.666 1.422.972 2.43.972 2.142 0 3.348-1.332 3.348-3.87v-2.106c0-2.538-1.206-3.852-3.348-3.852-1.188 0-2.052.414-2.754 1.35l-.072-1.134h-2.268v12.672zm4.482-5.22c-.846 0-1.44-.486-1.818-1.44v-2.646c.378-.936.972-1.422 1.8-1.422.864 0 1.314.504 1.314 1.71v2.088c0 1.224-.45 1.71-1.296 1.71zM430.635 451.216c2.988 0 4.554-1.44 4.554-4.23v-4.302c0-2.736-1.548-4.14-4.464-4.14-2.97 0-4.428 1.44-4.428 4.176 0 2.556 1.278 3.942 3.6 3.942 1.098 0 1.944-.306 2.628-.99v1.206c0 1.386-.594 2.088-1.854 2.088-1.134 0-1.656-.576-1.728-1.314h-2.556c.072 2.268 1.422 3.564 4.248 3.564zm-.072-6.804c-1.08 0-1.602-.612-1.602-1.764 0-1.188.558-1.854 1.746-1.854 1.206 0 1.818.684 1.818 1.998v.27c-.396.9-1.044 1.35-1.962 1.35zm6.492 6.588h8.874v-2.286h-6.192c.162-.738.792-1.206 2.448-1.944 2.682-1.206 3.744-2.502 3.744-4.536 0-2.34-1.494-3.69-4.338-3.69-2.808 0-4.338 1.332-4.338 3.87v.576h2.52v-.342c0-1.26.594-1.854 1.8-1.854 1.17 0 1.71.576 1.71 1.458 0 1.026-.612 1.638-2.448 2.502-2.736 1.278-3.78 2.664-3.78 4.986V451zm15.223.216c2.898 0 4.428-1.422 4.428-4.122v-4.428c0-2.718-1.53-4.122-4.428-4.122-2.898 0-4.428 1.404-4.428 4.122v4.428c0 2.7 1.53 4.122 4.428 4.122zm0-2.25c-1.242 0-1.764-.594-1.764-1.98v-4.212c0-1.386.522-1.98 1.764-1.98s1.764.594 1.764 1.98v4.212c0 1.386-.522 1.98-1.764 1.98zm10.723 2.25c2.898 0 4.428-1.422 4.428-4.122v-4.428c0-2.718-1.53-4.122-4.428-4.122-2.898 0-4.428 1.404-4.428 4.122v4.428c0 2.7 1.53 4.122 4.428 4.122zm0-2.25c-1.242 0-1.764-.594-1.764-1.98v-4.212c0-1.386.522-1.98 1.764-1.98s1.764.594 1.764 1.98v4.212c0 1.386-.522 1.98-1.764 1.98zm15.929 2.25c2.142 0 3.348-1.314 3.348-3.852v-2.106c0-2.538-1.206-3.87-3.348-3.87-1.008 0-1.8.306-2.43.972v-4.5h-2.664V451h2.268l.072-1.134c.702.936 1.566 1.35 2.754 1.35zm-.63-2.16c-.828 0-1.422-.486-1.8-1.422v-2.646c.378-.954.972-1.44 1.818-1.44.846 0 1.296.486 1.296 1.71v2.088c0 1.206-.45 1.71-1.314 1.71zm5.959 5.22h2.664v-4.032c.63.666 1.422.972 2.43.972 2.142 0 3.348-1.332 3.348-3.87v-2.106c0-2.538-1.206-3.852-3.348-3.852-1.188 0-2.052.414-2.754 1.35l-.072-1.134h-2.268v12.672zm4.482-5.22c-.846 0-1.44-.486-1.818-1.44v-2.646c.378-.936.972-1.422 1.8-1.422.864 0 1.314.504 1.314 1.71v2.088c0 1.224-.45 1.71-1.296 1.71z"/>
    <defs>
        <filter id="b" width="143" height="143" x="61" y="55" color-interpolation-filters="sRGB" filterUnits="userSpaceOnUse">
            <feFlood flood-opacity="0" result="BackgroundImageFix"/>
            <feColorMatrix in="SourceAlpha" values="0 0 0 0 0 0 0 0 0 0 0 0 0 0 0 0 0 0 127 0"/>
            <feOffset dy="4"/>
            <feGaussianBlur stdDeviation="4"/>
            <feColorMatrix values="0 0 0 0 0 0 0 0 0 0 0 0 0 0 0 0 0 0 0.25 0"/>
            <feBlend in2="BackgroundImageFix" result="effect1_dropShadow"/>
            <feBlend in="SourceGraphic" in2="effect1_dropShadow" result="shape"/>
        </filter>
        <filter id="c" width="143" height="143" x="219" y="55" color-interpolation-filters="sRGB" filterUnits="userSpaceOnUse">
            <feFlood flood-opacity="0" result="BackgroundImageFix"/>
            <feColorMatrix in="SourceAlpha" values="0 0 0 0 0 0 0 0 0 0 0 0 0 0 0 0 0 0 127 0"/>
            <feOffset dy="4"/>
            <feGaussianBlur stdDeviation="4"/>
            <feColorMatrix values="0 0 0 0 0 0 0 0 0 0 0 0 0 0 0 0 0 0 0.25 0"/>
            <feBlend in2="BackgroundImageFix" result="effect1_dropShadow"/>
            <feBlend in="SourceGraphic" in2="effect1_dropShadow" result="shape"/>
        </filter>
        <filter id="d" width="143" height="143" x="388" y="55" color-interpolation-filters="sRGB" filterUnits="userSpaceOnUse">
            <feFlood flood-opacity="0" result="BackgroundImageFix"/>
            <feColorMatrix in="SourceAlpha" values="0 0 0 0 0 0 0 0 0 0 0 0 0 0 0 0 0 0 127 0"/>
            <feOffset dy="4"/>
            <feGaussianBlur stdDeviation="4"/>
            <feColorMatrix values="0 0 0 0 0 0 0 0 0 0 0 0 0 0 0 0 0 0 0.25 0"/>
            <feBlend in2="BackgroundImageFix" result="effect1_dropShadow"/>
            <feBlend in="SourceGraphic" in2="effect1_dropShadow" result="shape"/>
        </filter>
        <filter id="e" width="143" height="143" x="61" y="216" color-interpolation-filters="sRGB" filterUnits="userSpaceOnUse">
            <feFlood flood-opacity="0" result="BackgroundImageFix"/>
            <feColorMatrix in="SourceAlpha" values="0 0 0 0 0 0 0 0 0 0 0 0 0 0 0 0 0 0 127 0"/>
            <feOffset dy="4"/>
            <feGaussianBlur stdDeviation="4"/>
            <feColorMatrix values="0 0 0 0 0 0 0 0 0 0 0 0 0 0 0 0 0 0 0.25 0"/>
            <feBlend in2="BackgroundImageFix" result="effect1_dropShadow"/>
            <feBlend in="SourceGraphic" in2="effect1_dropShadow" result="shape"/>
        </filter>
        <filter id="f" width="143" height="143" x="219" y="216" color-interpolation-filters="sRGB" filterUnits="userSpaceOnUse">
            <feFlood flood-opacity="0" result="BackgroundImageFix"/>
            <feColorMatrix in="SourceAlpha" values="0 0 0 0 0 0 0 0 0 0 0 0 0 0 0 0 0 0 127 0"/>
            <feOffset dy="4"/>
            <feGaussianBlur stdDeviation="4"/>
            <feColorMatrix values="0 0 0 0 0 0 0 0 0 0 0 0 0 0 0 0 0 0 0.25 0"/>
            <feBlend in2="BackgroundImageFix" result="effect1_dropShadow"/>
            <feBlend in="SourceGraphic" in2="effect1_dropShadow" result="shape"/>
        </filter>
        <filter id="g" width="143" height="143" x="388" y="216" color-interpolation-filters="sRGB" filterUnits="userSpaceOnUse">
            <feFlood flood-opacity="0" result="BackgroundImageFix"/>
            <feColorMatrix in="SourceAlpha" values="0 0 0 0 0 0 0 0 0 0 0 0 0 0 0 0 0 0 127 0"/>
            <feOffset dy="4"/>
            <feGaussianBlur stdDeviation="4"/>
            <feColorMatrix values="0 0 0 0 0 0 0 0 0 0 0 0 0 0 0 0 0 0 0.25 0"/>
            <feBlend in2="BackgroundImageFix" result="effect1_dropShadow"/>
            <feBlend in="SourceGraphic" in2="effect1_dropShadow" result="shape"/>
        </filter>
        <filter id="h" width="143" height="143" x="61" y="377" color-interpolation-filters="sRGB" filterUnits="userSpaceOnUse">
            <feFlood flood-opacity="0" result="BackgroundImageFix"/>
            <feColorMatrix in="SourceAlpha" values="0 0 0 0 0 0 0 0 0 0 0 0 0 0 0 0 0 0 127 0"/>
            <feOffset dy="4"/>
            <feGaussianBlur stdDeviation="4"/>
            <feColorMatrix values="0 0 0 0 0 0 0 0 0 0 0 0 0 0 0 0 0 0 0.25 0"/>
            <feBlend in2="BackgroundImageFix" result="effect1_dropShadow"/>
            <feBlend in="SourceGraphic" in2="effect1_dropShadow" result="shape"/>
        </filter>
        <filter id="i" width="143" height="143" x="61" y="538" color-interpolation-filters="sRGB" filterUnits="userSpaceOnUse">
            <feFlood flood-opacity="0" result="BackgroundImageFix"/>
            <feColorMatrix in="SourceAlpha" values="0 0 0 0 0 0 0 0 0 0 0 0 0 0 0 0 0 0 127 0"/>
            <feOffset dy="4"/>
            <feGaussianBlur stdDeviation="4"/>
            <feColorMatrix values="0 0 0 0 0 0 0 0 0 0 0 0 0 0 0 0 0 0 0.25 0"/>
            <feBlend in2="BackgroundImageFix" result="effect1_dropShadow"/>
            <feBlend in="SourceGraphic" in2="effect1_dropShadow" result="shape"/>
        </filter>
        <filter id="j" width="143" height="143" x="219" y="377" color-interpolation-filters="sRGB" filterUnits="userSpaceOnUse">
            <feFlood flood-opacity="0" result="BackgroundImageFix"/>
            <feColorMatrix in="SourceAlpha" values="0 0 0 0 0 0 0 0 0 0 0 0 0 0 0 0 0 0 127 0"/>
            <feOffset dy="4"/>
            <feGaussianBlur stdDeviation="4"/>
            <feColorMatrix values="0 0 0 0 0 0 0 0 0 0 0 0 0 0 0 0 0 0 0.25 0"/>
            <feBlend in2="BackgroundImageFix" result="effect1_dropShadow"/>
            <feBlend in="SourceGraphic" in2="effect1_dropShadow" result="shape"/>
        </filter>
        <filter id="k" width="143" height="143" x="388" y="377" color-interpolation-filters="sRGB" filterUnits="userSpaceOnUse">
            <feFlood flood-opacity="0" result="BackgroundImageFix"/>
            <feColorMatrix in="SourceAlpha" values="0 0 0 0 0 0 0 0 0 0 0 0 0 0 0 0 0 0 127 0"/>
            <feOffset dy="4"/>
            <feGaussianBlur stdDeviation="4"/>
            <feColorMatrix values="0 0 0 0 0 0 0 0 0 0 0 0 0 0 0 0 0 0 0.25 0"/>
            <feBlend in2="BackgroundImageFix" result="effect1_dropShadow"/>
            <feBlend in="SourceGraphic" in2="effect1_dropShadow" result="shape"/>
        </filter>
        <linearGradient id="a" x1="295.5" x2="295.5" y2="720" gradientUnits="userSpaceOnUse">
            <stop stop-color="#014C91"/>
            <stop offset="1" stop-color="#003257"/>
        </linearGradient>
    </defs>
</svg>
