<svg xmlns="http://www.w3.org/2000/svg" width="20" height="61" fill="none" viewBox="0 0 20 61">
    <path fill="#868CA6" d="M10.04 60.252c-.889 0-2.245-.326-2.994-.559-.748-.233-1.356-2.935-1.356-2.935-1.965-7.64-4.624-18.882-4.685-25.66-.012-1.342 0-27.426 0-27.426h18.052v27.427c0 7-3.123 18.02-5.087 25.66 0 0-.608 2.701-1.357 2.934-.748.233-2.105.56-2.994.56"/>
    <path fill="#C0C3D2" d="M9.894 59.672c-.787 0-1.99-.289-2.639-.53-.648-.192-1.203-2.742-1.203-2.742C4.293 49.326 2.509 38.897 2 32.69V3.671h15.877s.277 25.745 0 29.017c-.51 6.208-2.707 16.589-4.466 23.663 0 0-.555 2.502-1.203 2.742-.648.193-1.851.53-2.638.53" opacity=".7"/>
    <path fill="#000" fill-opacity=".1" d="M14 3.672h5v27.49c0 3.055-2 12.728-2 12.728s-3.781 15.05-4 15.273c-.219.223-3 .509-3 .509l4-28.51V3.673z"/>
    <path fill="#9DA1B1" d="M0 2.672h20v1H0z"/>
</svg>
