<svg xmlns="http://www.w3.org/2000/svg" width="20" height="61" fill="none" viewBox="0 0 20 61">
    <path fill="#868CA6" d="M10.04 60.252c-.889 0-2.245-.326-2.994-.559-.748-.233-1.356-2.935-1.356-2.935-1.965-7.64-4.624-18.882-4.685-25.66-.012-1.342 0-27.426 0-27.426h18.052v27.427c0 7-3.123 18.02-5.087 25.66 0 0-.608 2.701-1.357 2.934-.748.233-2.105.56-2.994.56"/>
    <path fill="#C0C3D2" d="M9.986 59.313c-.795 0-2.012-.28-2.666-.512-.655-.186-1.217-2.656-1.217-2.656-1.777-6.848-3.58-16.944-4.095-22.954V5.098h16.046s.28 24.925 0 28.093c-.515 6.01-2.735 16.06-4.513 22.908 0 0-.561 2.422-1.216 2.655-.655.187-1.871.513-2.667.513" opacity=".7"/>
    <path fill="#000" fill-opacity=".1" d="M14.042 5.672h5.015V32.18c0 2.945-2.006 12.273-2.006 12.273S13.259 58.966 13.04 59.18c-.22.215-3.009.49-3.009.49l4.011-27.49V5.671z"/>
    <path fill="#E08F53" d="M20 5.275v.996a.29.29 0 0 1-.269.289H.267A.289.289 0 0 1 0 6.27v-.996c0-.16.13-.29.287-.29h.079V.665c0-.133.095-.244.22-.268V.273C.586.123.71 0 .858 0h18.284a.272.272 0 0 1 .272.273v.124c.124.025.22.136.22.268v4.32h.079a.288.288 0 0 1 .287.29z"/>
    <path fill="#FAA262" d="M7.503 6.27v-.995c0-.16.129-.29.287-.29h.079V.665c0-.133.095-.244.22-.268V.273c0-.15.122-.273.272-.273H.858a.273.273 0 0 0-.272.273v.124a.275.275 0 0 0-.22.268v4.32H.287a.289.289 0 0 0-.287.29v.996c0 .153.118.28.268.289H7.79h-.02a.29.29 0 0 1-.267-.29z"/>
    <path fill="#E08F53" d="M1.53.503h-.465V4.97h.465V.503zM2.497.503h-.465V4.97h.465V.503zM3.465.503h-.466V4.97h.466V.503zM4.43.503h-.465V4.97h.465V.503zM5.397.503h-.465V4.97h.465V.503zM6.365.503H5.9V4.97h.466V.503zM7.33.503h-.464V4.97h.465V.503z"/>
    <path fill="#B5672D" d="M8.298.503h-.465V4.97h.465V.503zM9.265.503H8.8V4.97h.465V.503zM10.232.503h-.465V4.97h.465V.503zM11.2.503h-.466V4.97h.465V.503zM12.167.503h-.466V4.97h.466V.503zM13.133.503h-.465V4.97h.465V.503zM14.1.503h-.465V4.97h.466V.503zM15.068.503h-.466V4.97h.466V.503zM16.034.503h-.465V4.97h.465V.503zM17.001.503h-.466V4.97h.466V.503zM17.967.503h-.465V4.97h.465V.503zM18.934.503h-.465V4.97h.465V.503z"/>
</svg>
