<svg width="38" height="55" viewBox="0 0 38 55" fill="none" xmlns="http://www.w3.org/2000/svg">
<path d="M37.0235 11.5822V52.0193C37.0235 53.1137 36.1298 54.0065 35.0386 54.0065H1.99563C1.48914 54.0065 1.02567 53.8146 0.673674 53.4994C0.669763 53.4955 0.665852 53.4915 0.661941 53.4876L0.527008 53.3525C0.525052 53.3506 0.523097 53.3467 0.521141 53.3447C0.202386 52.9923 0.0107422 52.5263 0.0107422 52.0173V12.3439C0.0107422 11.2494 1.84082 9.59497 2.93202 9.59497H35.0366C36.1298 9.59302 37.0235 10.4877 37.0235 11.5822Z" fill="#0D48B6"/>
<path d="M14.1955 9.56641H10C4.47715 9.56641 0 14.0436 0 19.5664V49.0044C0 51.7658 2.23858 54.0044 5 54.0044H14.1955V9.56641Z" fill="#0D48B6"/>
<path d="M14.3504 16.3533H2.66211V51.3221H14.3504V16.3533Z" fill="#FFB127"/>
<path d="M34.4985 16.3533H30.2041V51.3221H34.4985V16.3533Z" fill="#EA6A00"/>
<path d="M35.5785 16.3557H34.499V51.2656H35.5785V16.3557Z" fill="#E3ECEF"/>
<path d="M2.66263 16.3562H1.4541V51.2661H2.66263V16.3562Z" fill="#E3ECEF"/>
<path d="M30.2042 16.3557H14.3506V51.2656H30.2042V16.3557Z" fill="#E3ECEF"/>
<path d="M14.3504 16.3557H2.66211V51.2656H14.3504V16.3557Z" fill="#F2F6F7"/>
<path d="M34.4995 16.3557H30.2051V51.2656H34.4995V16.3557Z" fill="#C9DADF"/>
<path d="M4 8H33V10H4V8Z" fill="#0D48B6"/>
</svg>
