<svg width="38" height="55" viewBox="0 0 38 55" fill="none" xmlns="http://www.w3.org/2000/svg">
<path d="M37.0231 11.5822V52.0193C37.0231 53.1137 36.1294 54.0065 35.0382 54.0065H1.99526C1.48877 54.0065 1.02531 53.8146 0.673308 53.4994C0.669397 53.4955 0.665486 53.4915 0.661575 53.4876L0.526642 53.3525C0.524686 53.3506 0.522731 53.3467 0.520775 53.3447C0.20202 52.9923 0.010376 52.5263 0.010376 52.0173V12.3439C0.010376 11.2494 1.84045 9.59497 2.93165 9.59497H35.0363C36.1294 9.59302 37.0231 10.4877 37.0231 11.5822Z" fill="#0D48B6"/>
<path d="M14.1955 9.56641H10C4.47715 9.56641 0 14.0436 0 19.5664V49.0044C0 51.7658 2.23858 54.0044 5 54.0044H14.1955V9.56641Z" fill="#0D48B6"/>
<path d="M14.3506 16.3533H2.66223V51.3221H14.3506V16.3533Z" fill="#FFB127"/>
<path d="M34.4985 16.3533H30.2041V51.3221H34.4985V16.3533Z" fill="#EA6A00"/>
<path d="M35.578 16.3557H34.4985V51.2656H35.578V16.3557Z" fill="#E3ECEF"/>
<path d="M2.66214 16.3562H1.45361V51.2661H2.66214V16.3562Z" fill="#E3ECEF"/>
<path d="M30.2041 16.3557H14.3505V51.2656H30.2041V16.3557Z" fill="#E3ECEF"/>
<path d="M14.3504 16.3557H2.66211V51.2656H14.3504V16.3557Z" fill="#F2F6F7"/>
<path d="M34.4986 16.3557H30.2042V51.2656H34.4986V16.3557Z" fill="#C9DADF"/>
<path d="M4 8H33V10H4V8Z" fill="#0D48B6"/>
<path d="M33.0198 7.69114V9.14437C33.0198 9.36685 32.8467 9.55082 32.6298 9.56508C32.62 9.56651 32.6115 9.56651 32.6017 9.56651H4.42847C4.41862 9.56651 4.41017 9.56651 4.40031 9.56508C4.18349 9.55082 4.01172 9.36685 4.01172 9.14437V7.69114C4.01172 7.45868 4.19898 7.269 4.42847 7.269H4.54252V0.969771C4.54252 0.775817 4.6805 0.613238 4.86212 0.57901V0.397891C4.86212 0.179693 5.03953 0 5.25635 0H31.7752C31.8766 0 31.9695 0.0399318 32.0399 0.104108C32.0512 0.114091 32.061 0.124074 32.0709 0.135483C32.0737 0.138335 32.0765 0.141187 32.0793 0.145466C32.1356 0.21392 32.1694 0.30234 32.1694 0.397891V0.57901C32.3497 0.614664 32.489 0.777243 32.489 0.969771V7.269H32.6031C32.8326 7.26758 33.0198 7.45725 33.0198 7.69114Z" fill="#DAE2E5"/>
<path d="M14.8118 9.14295V7.69114C14.8118 7.45868 14.9976 7.269 15.2254 7.269H15.3386V0.969771C15.3386 0.775817 15.4755 0.613238 15.6557 0.57901V0.397891C15.6557 0.179693 15.8318 0 16.047 0H5.24697C5.03178 0 4.85571 0.178267 4.85571 0.397891V0.57901C4.67685 0.614664 4.53852 0.777243 4.53852 0.969771V7.269H4.42533C4.19756 7.269 4.01172 7.45868 4.01172 7.69114V9.14437C4.01172 9.36685 4.18219 9.55082 4.39738 9.56508C4.40717 9.56651 4.41555 9.56651 4.42533 9.56651H15.2254C15.2156 9.56651 15.2072 9.56651 15.1974 9.56508C14.9822 9.54939 14.8118 9.36542 14.8118 9.14295Z" fill="#F2F6F7"/>
<path d="M6.23259 0.711914H5.55823V7.1505H6.23259V0.711914Z" fill="#BECFD3"/>
<path d="M7.63481 0.711914H6.96045V7.1505H7.63481V0.711914Z" fill="#BECFD3"/>
<path d="M9.03844 0.711914H8.36267V7.1505H9.03844V0.711914Z" fill="#BECFD3"/>
<path d="M10.4393 0.711914H9.76489V7.1505H10.4393V0.711914Z" fill="#BECFD3"/>
<path d="M11.8415 0.711914H11.1671V7.1505H11.8415V0.711914Z" fill="#BECFD3"/>
<path d="M13.2452 0.711914H12.5695V7.1505H13.2452V0.711914Z" fill="#BECFD3"/>
<path d="M14.646 0.711914H13.9717V7.1505H14.646V0.711914Z" fill="#BECFD3"/>
<path d="M16.0481 0.711914H15.3738V7.1505H16.0481V0.711914Z" fill="#BECFD3"/>
<path d="M17.4504 0.711914H16.776V7.1505H17.4504V0.711914Z" fill="#BECFD3"/>
<path d="M18.8526 0.711914H18.1782V7.1505H18.8526V0.711914Z" fill="#BECFD3"/>
<path d="M20.2563 0.711914H19.5819V7.1505H20.2563V0.711914Z" fill="#BECFD3"/>
<path d="M21.6599 0.711914H20.9841V7.1505H21.6599V0.711914Z" fill="#BECFD3"/>
<path d="M23.0607 0.711914H22.3864V7.1505H23.0607V0.711914Z" fill="#BECFD3"/>
<path d="M24.4643 0.711914H23.7886V7.1505H24.4643V0.711914Z" fill="#BECFD3"/>
<path d="M25.8666 0.711914H25.1908V7.1505H25.8666V0.711914Z" fill="#BECFD3"/>
<path d="M27.2687 0.711914H26.5929V7.1505H27.2687V0.711914Z" fill="#BECFD3"/>
<path d="M28.671 0.711914H27.9952V7.1505H28.671V0.711914Z" fill="#BECFD3"/>
<path d="M30.0718 0.711914H29.3975V7.1505H30.0718V0.711914Z" fill="#BECFD3"/>
<path d="M31.4739 0.711914H30.7996V7.1505H31.4739V0.711914Z" fill="#BECFD3"/>
</svg>
