<svg xmlns="http://www.w3.org/2000/svg" width="39" height="86" fill="none" viewBox="0 0 39 86">
    <path fill="#868CA6" d="M13.04 85.58c-.888 0-2.245-.326-2.993-.558-.749-.234-1.357-2.936-1.357-2.936-1.965-7.64-4.624-18.882-4.685-25.659-.012-1.343 0-27.427 0-27.427h18.052v27.427c0 7-3.123 18.02-5.087 25.66 0 0-.608 2.701-1.357 2.934-.748.233-2.105.56-2.994.56"/>
    <path fill="#C0C3D2" d="M12.986 84.641c-.795 0-2.011-.279-2.666-.512-.655-.186-1.216-2.655-1.216-2.655-1.778-6.849-3.58-16.945-4.095-22.955V30.427h16.046s.28 24.924 0 28.092c-.515 6.01-2.736 16.06-4.513 22.908 0 0-.562 2.422-1.217 2.655-.654.187-1.87.513-2.666.513" opacity=".7"/>
    <path fill="#868CA6" d="M2 29h23.066v2H2z"/>
    <path fill="#fff" d="M4.006 37.427h18.052v16H4.006z"/>
    <path fill="#000" fill-opacity=".1" d="M17.043 31h5.014v26.51c0 2.945-2.006 12.272-2.006 12.272S16.26 84.294 16.04 84.509c-.22.215-3.009.491-3.009.491l4.012-27.49V31z"/>
    <path fill="#AFB3C5" d="M35.25 6.477l-5.18 15.138-3.472-1.188 5.18-15.138z" opacity=".5"/>
    <path fill="#868CA6" fill-rule="evenodd" d="M30.498 27.064l8.356-24.416L36.962 2l-8.419 24.6.033.01c-.402.774-1.032 1.372-1.716 1.782-.713.428-1.412.608-1.86.608v2c.885 0 1.936-.32 2.89-.892.966-.58 1.905-1.462 2.504-2.66a.997.997 0 0 0 .104-.384z" clip-rule="evenodd"/>
    <path fill="#000" d="M7.403 49.746c1.323 0 1.98-.612 1.98-1.845v-4.545h-.675l-.036.72c-.387-.567-.882-.828-1.548-.828-1.08 0-1.71.666-1.71 1.935v.729c0 1.269.63 1.935 1.71 1.935.621 0 1.09-.225 1.467-.711v.765c0 .81-.378 1.16-1.206 1.16-.648 0-1.089-.215-1.134-.755h-.738c.063.954.711 1.44 1.89 1.44zm-.18-2.592c-.639 0-1.017-.441-1.017-1.27v-.674c0-.828.378-1.27 1.017-1.27.585 0 1.062.379 1.368 1.036v1.143c-.306.657-.783 1.035-1.368 1.035zM10.959 48h.81v-1.764l1.107-1.233L14.694 48h.945l-2.205-3.618 2.178-2.502h-1l-2.843 3.249v-3.25h-.81V48zM18.043 47.523h.702V45.56H20.6v-.684h-1.854v-1.962h-.702v1.962H16.19v.684h1.854v1.962z"/>
</svg>
