<svg xmlns="http://www.w3.org/2000/svg" width="39" height="86" fill="none" viewBox="0 0 39 86">
    <path fill="#868CA6" d="M13.04 85.58c-.888 0-2.245-.326-2.993-.558-.749-.234-1.357-2.936-1.357-2.936-1.965-7.64-4.624-18.882-4.685-25.659-.012-1.343 0-27.427 0-27.427h18.052v27.427c0 7-3.123 18.02-5.087 25.66 0 0-.608 2.701-1.357 2.934-.748.233-2.105.56-2.994.56"/>
    <path fill="#C0C3D2" d="M12.986 84.641c-.795 0-2.011-.279-2.666-.512-.655-.186-1.216-2.655-1.216-2.655-1.778-6.849-3.58-16.945-4.095-22.955V30.427h16.046s.28 24.924 0 28.092c-.515 6.01-2.736 16.06-4.513 22.908 0 0-.562 2.422-1.217 2.655-.654.187-1.87.513-2.666.513" opacity=".7"/>
    <path fill="#868CA6" d="M2 29h23.066v2H2z"/>
    <path fill="#fff" d="M4.006 37.427h18.052v16H4.006z"/>
    <path fill="#000" fill-opacity=".1" d="M17.043 31h5.014v26.51c0 2.945-2.006 12.272-2.006 12.272S16.26 84.294 16.04 84.509c-.22.215-3.009.491-3.009.491l4.012-27.49V31z"/>
    <path fill="#AFB3C5" d="M35.25 6.477l-5.18 15.138-3.472-1.188 5.18-15.138z" opacity=".5"/>
    <path fill="#868CA6" fill-rule="evenodd" d="M30.498 27.064l8.356-24.416L36.962 2l-8.419 24.6.033.01c-.402.774-1.032 1.372-1.716 1.782-.713.428-1.412.608-1.86.608v2c.885 0 1.936-.32 2.89-.892.966-.58 1.905-1.462 2.504-2.66a.997.997 0 0 0 .104-.384z" clip-rule="evenodd"/>
    <path fill="#000" d="M7.193 48.552c1.176 0 1.76-.544 1.76-1.64v-4.04h-.6l-.032.64c-.344-.504-.784-.736-1.376-.736-.96 0-1.52.592-1.52 1.72v.648c0 1.128.56 1.72 1.52 1.72.552 0 .968-.2 1.304-.632v.68c0 .72-.336 1.032-1.072 1.032-.576 0-.968-.192-1.008-.672h-.656c.056.848.632 1.28 1.68 1.28zm-.16-2.304c-.568 0-.904-.392-.904-1.128v-.6c0-.736.336-1.128.904-1.128.52 0 .944.336 1.216.92v1.016c-.272.584-.696.92-1.216.92zM10.353 47h3.344v-.664h-2.624V41.56h-.72V47zM14.486 47h.72v-5.44h-.72V47zM18.537 47.096c1.344 0 2.016-.696 2.016-2.08v-.96H18.69v.664h1.16v.296c0 .992-.4 1.424-1.304 1.424-.944 0-1.376-.472-1.376-1.488v-1.344c0-1 .432-1.488 1.328-1.488.832 0 1.256.416 1.296 1.12h.704c-.048-1.16-.776-1.776-1.992-1.776-1.336 0-2.056.744-2.056 2.104v1.424c0 1.376.72 2.104 2.088 2.104z"/>
</svg>
