<svg xmlns="http://www.w3.org/2000/svg" width="39" height="86" fill="none" viewBox="0 0 39 86">
    <path fill="#868CA6" d="M13.04 85.58c-.888 0-2.245-.326-2.993-.558-.749-.234-1.357-2.936-1.357-2.936-1.965-7.64-4.624-18.882-4.685-25.659-.012-1.343 0-27.427 0-27.427h18.052v27.427c0 7-3.123 18.02-5.087 25.66 0 0-.608 2.701-1.357 2.934-.748.233-2.105.56-2.994.56"/>
    <path fill="#C0C3D2" d="M12.986 84.641c-.795 0-2.011-.279-2.666-.512-.655-.186-1.216-2.655-1.216-2.655-1.778-6.849-3.58-16.945-4.095-22.955V30.427h16.046s.28 24.924 0 28.092c-.515 6.01-2.736 16.06-4.513 22.908 0 0-.562 2.422-1.217 2.655-.654.187-1.87.513-2.666.513" opacity=".7"/>
    <path fill="#868CA6" d="M2 29h23.066v2H2z"/>
    <path fill="#99DFF9" d="M12.986 84.641c-.795 0-2.011-.28-2.666-.512-.655-.186-1.216-2.656-1.216-2.656-1.778-6.848-3.58-16.944-4.095-22.954V55h16.046v3.519c-.515 6.01-2.736 16.06-4.513 22.908 0 0-.562 2.422-1.217 2.655-.654.187-1.87.513-2.666.513" opacity=".7"/>
    <path fill="#fff" d="M4.006 37.427h18.052v16H4.006z"/>
    <path fill="#000" fill-opacity=".1" d="M17.043 31h5.014v26.51c0 2.945-2.006 12.272-2.006 12.272S16.26 84.294 16.04 84.509c-.22.215-3.009.491-3.009.491l4.012-27.49V31z"/>
    <path fill="#AFB3C5" d="M35.25 6.477l-5.18 15.138-3.472-1.188 5.18-15.138z" opacity=".5"/>
    <path fill="#868CA6" fill-rule="evenodd" d="M30.498 27.064l8.356-24.416L36.962 2l-8.419 24.6.033.01c-.402.774-1.032 1.372-1.716 1.782-.713.428-1.412.608-1.86.608v2c.885 0 1.936-.32 2.89-.892.966-.58 1.905-1.462 2.504-2.66a.997.997 0 0 0 .104-.384z" clip-rule="evenodd"/>
    <path fill="#000" d="M5.543 49h5.016v-.996H6.623V40.84h-1.08V49zM11.742 49h1.08v-8.16h-1.08V49zM17.82 49.144c2.015 0 3.023-1.044 3.023-3.12v-1.44h-2.796v.996h1.74v.444c0 1.488-.6 2.136-1.956 2.136-1.416 0-2.064-.708-2.064-2.232v-2.016c0-1.5.648-2.232 1.992-2.232 1.248 0 1.884.624 1.944 1.68h1.056c-.072-1.74-1.164-2.664-2.988-2.664-2.004 0-3.084 1.116-3.084 3.156v2.136c0 2.064 1.08 3.156 3.132 3.156z"/>
</svg>
