<svg xmlns="http://www.w3.org/2000/svg" width="39" height="86" fill="none" viewBox="0 0 39 86">
    <path fill="#868CA6" d="M13.04 85.58c-.888 0-2.245-.326-2.993-.558-.749-.234-1.357-2.936-1.357-2.936-1.964-7.64-4.624-18.882-4.684-25.659-.012-1.343 0-27.427 0-27.427H22.057v27.427c0 7-3.122 18.02-5.087 25.66 0 0-.608 2.701-1.356 2.934-.749.233-2.105.56-2.994.56"/>
    <path fill="#C0C3D2" d="M12.986 84.641c-.795 0-2.011-.279-2.666-.512-.655-.186-1.216-2.655-1.216-2.655-1.778-6.849-3.58-16.945-4.095-22.955V30.427h16.045s.281 24.924 0 28.092c-.514 6.01-2.735 16.06-4.513 22.908 0 0-.56 2.422-1.216 2.655-.655.187-1.871.513-2.666.513" opacity=".7"/>
    <path fill="#868CA6" d="M2 29h23.066v2H2z"/>
    <path fill="#fff" d="M4.006 37.427h18.052v16H4.006z"/>
    <ellipse cx="13.031" cy="45.427" fill="#9771C8" rx="5.014" ry="5"/>
    <path fill="#000" fill-opacity=".1" d="M17.043 31h5.014v26.51c0 2.945-2.005 12.272-2.005 12.272s-3.793 14.512-4.012 14.727c-.22.215-3.008.491-3.008.491l4.01-27.49V31z"/>
</svg>
