<svg width="171" height="155" viewBox="0 0 171 155" fill="none" xmlns="http://www.w3.org/2000/svg">
<path fill-rule="evenodd" clip-rule="evenodd" d="M1.79328 9.39844H10.6916L11.8039 18.4821H160.109L161.221 9.39844H169.193V27.7512H169.378V36.0065L158.811 27.7512H12.36L1.79327 36.0065L1.79328 27.7512V9.39844ZM1.79327 36.0065L0.495605 37.0203H1.79327V36.0065ZM169.378 36.0065L170.676 37.0203H169.378V36.0065Z" fill="#F2F2F2" fill-opacity="0.3"/>
<path fill-rule="evenodd" clip-rule="evenodd" d="M1.7932 154.182L169.378 152.699L159.182 144.912L12.916 144.912L12.7307 144.912L12.0207 145.514L1.60779 152.513L3.76195 152.513L1.7932 154.182Z" fill="#758CA2" fill-opacity="0.6"/>
<path d="M13.2075 144.727L2.4554 151.957L2.00024 9.18164L12.0952 8.65726L13.2075 17.8449L13.2075 144.727Z" fill="#99A7AD" fill-opacity="0.6"/>
<path d="M159.182 144.995L169.193 152.513L170.5 12.6816L160.109 8.2865L159.182 18.2157L159.182 144.995Z" fill="#99A7AD" fill-opacity="0.6"/>
<rect x="12.731" y="18.1118" width="3.33686" height="126.801" fill="#F2F2F2" fill-opacity="0.5"/>
<rect x="155.845" y="18.1118" width="3.33686" height="126.801" fill="#F2F2F2" fill-opacity="0.5"/>
<path d="M119.325 18.2969L12.5454 125.077V144.912H26.6344L153.25 18.2969H148.615H119.325Z" fill="white" fill-opacity="0.2"/>
<path d="M159.182 20.1509L34.0498 145.098H40.5382L159.182 26.4538V20.1509Z" fill="white" fill-opacity="0.2"/>
<mask id="path-9-inside-1" fill="white">
<path fill-rule="evenodd" clip-rule="evenodd" d="M12.7308 7.35938H5.49561C2.73418 7.35938 0.495605 9.59794 0.495605 12.3594V149.181C0.495605 151.943 2.73418 154.181 5.4956 154.181H165.676C168.437 154.181 170.676 151.943 170.676 149.181V12.3594C170.676 9.59795 168.437 7.35938 165.676 7.35938H159.182V13.1117C159.182 15.8732 156.943 18.1117 154.182 18.1117H17.7308C14.9694 18.1117 12.7308 15.8731 12.7308 13.1117V7.35938Z"/>
</mask>
<path fill-rule="evenodd" clip-rule="evenodd" d="M12.7308 7.35938H5.49561C2.73418 7.35938 0.495605 9.59794 0.495605 12.3594V149.181C0.495605 151.943 2.73418 154.181 5.4956 154.181H165.676C168.437 154.181 170.676 151.943 170.676 149.181V12.3594C170.676 9.59795 168.437 7.35938 165.676 7.35938H159.182V13.1117C159.182 15.8732 156.943 18.1117 154.182 18.1117H17.7308C14.9694 18.1117 12.7308 15.8731 12.7308 13.1117V7.35938Z" fill="#F2F2F2" fill-opacity="0.5"/>
<path d="M12.7308 7.35938H19.7308V0.359375H12.7308V7.35938ZM159.182 7.35938V0.359375H152.182V7.35938H159.182ZM5.49561 14.3594H12.7308V0.359375H5.49561V14.3594ZM7.49561 12.3594C7.49561 13.464 6.60015 14.3594 5.49561 14.3594V0.359375C-1.13179 0.359375 -6.50439 5.73192 -6.50439 12.3594H7.49561ZM7.49561 149.181V12.3594H-6.50439V149.181H7.49561ZM5.4956 147.181C6.60017 147.181 7.49561 148.077 7.49561 149.181H-6.50439C-6.50439 155.809 -1.13182 161.181 5.4956 161.181V147.181ZM165.676 147.181H5.4956V161.181H165.676V147.181ZM163.676 149.181C163.676 148.077 164.571 147.181 165.676 147.181V161.181C172.303 161.181 177.676 155.809 177.676 149.181H163.676ZM163.676 12.3594V149.181H177.676V12.3594H163.676ZM165.676 14.3594C164.571 14.3594 163.676 13.4639 163.676 12.3594H177.676C177.676 5.73196 172.303 0.359375 165.676 0.359375V14.3594ZM159.182 14.3594H165.676V0.359375H159.182V14.3594ZM152.182 7.35938V13.1117H166.182V7.35938H152.182ZM152.182 13.1117C152.182 12.0072 153.077 11.1117 154.182 11.1117V25.1117C160.809 25.1117 166.182 19.7391 166.182 13.1117H152.182ZM154.182 11.1117H17.7308V25.1117H154.182V11.1117ZM17.7308 11.1117C18.8354 11.1117 19.7308 12.0072 19.7308 13.1117H5.73078C5.73078 19.7391 11.1034 25.1117 17.7308 25.1117V11.1117ZM19.7308 13.1117V7.35938H5.73078V13.1117H19.7308Z" fill="#F2F2F2" mask="url(#path-9-inside-1)"/>
<path opacity="0.2" d="M19.3423 34.7964H39.3789V19.8725L19.3423 19.8725V34.7964Z" fill="#3E6E7A"/>
<path opacity="0.2" d="M19.3423 34.7964H39.3789V19.8725L19.3423 19.8725V34.7964Z" fill="#3E6E7A"/>
<path opacity="0.2" d="M40.8689 33.1328L17.877 33.1328V18.1126L40.8689 18.1126V33.1328Z" fill="#3E6E7A"/>
<path opacity="0.2" d="M39.3931 34.7688L40.8575 33.132V18.1118L39.3931 19.7486V34.7688Z" fill="#3E6E7A"/>
<path opacity="0.2" d="M17.877 18.0569L19.3414 19.6937V34.7139L17.877 33.0771V18.0569Z" fill="#3E6E7A"/>
<path opacity="0.5" d="M17.8647 31.4951V33.0356L19.425 34.7687H39.3922L40.8567 33.0356V31.4951H17.8647Z" fill="#CCD4E2"/>
<g style="mix-blend-mode:soft-light">
<path d="M0.495117 137.497H170.675V149.181C170.675 151.943 168.437 154.181 165.675 154.181H5.49511C2.73369 154.181 0.495117 151.943 0.495117 149.181V137.497Z" fill="white"/>
</g>
<path fill-rule="evenodd" clip-rule="evenodd" d="M20 133.182H0V149.182C0 151.943 2.23857 154.182 5 154.182H25C22.2386 154.182 20 151.943 20 149.182V133.182Z" fill="#E5ECF0"/>
<path fill-rule="evenodd" clip-rule="evenodd" d="M151 133.182H171V149.182C171 151.943 168.761 154.182 166 154.182H146C148.761 154.182 151 151.943 151 149.182V133.182Z" fill="#E5ECF0"/>
<path opacity="0.2" d="M131.474 34.8521H151.51V19.9282L131.474 19.9282V34.8521Z" fill="#3E6E7A"/>
<path opacity="0.2" d="M131.474 34.8521H151.51V19.9282L131.474 19.9282V34.8521Z" fill="#3E6E7A"/>
<path opacity="0.2" d="M153 33.1885L130.008 33.1885V18.1683L153 18.1683V33.1885Z" fill="#3E6E7A"/>
<path opacity="0.2" d="M151.524 34.8245L152.989 33.1876V18.1675L151.524 19.8043V34.8245Z" fill="#3E6E7A"/>
<path opacity="0.2" d="M130.008 18.1126L131.473 19.7494V34.7695L130.008 33.1327V18.1126Z" fill="#3E6E7A"/>
<path opacity="0.5" d="M129.996 31.5508V33.0913L131.556 34.8244H151.524L152.988 33.0913V31.5508H129.996Z" fill="#CCD4E2"/>
<path opacity="0.2" d="M103.44 34.8521H123.477V19.9282L103.44 19.9282V34.8521Z" fill="#3E6E7A"/>
<path opacity="0.2" d="M103.44 34.8521H123.477V19.9282L103.44 19.9282V34.8521Z" fill="#3E6E7A"/>
<path opacity="0.2" d="M124.967 33.1885L101.975 33.1885V18.1683L124.967 18.1683V33.1885Z" fill="#3E6E7A"/>
<path opacity="0.2" d="M123.491 34.8245L124.956 33.1876V18.1675L123.491 19.8043V34.8245Z" fill="#3E6E7A"/>
<path opacity="0.2" d="M101.975 18.1126L103.44 19.7494V34.7695L101.975 33.1327V18.1126Z" fill="#3E6E7A"/>
<path opacity="0.5" d="M101.963 31.5508V33.0913L103.523 34.8244H123.49L124.955 33.0913V31.5508H101.963Z" fill="#CCD4E2"/>
<path opacity="0.2" d="M75.4077 34.8521H95.4443V19.9282L75.4077 19.9282V34.8521Z" fill="#3E6E7A"/>
<path opacity="0.2" d="M75.4077 34.8521H95.4443V19.9282L75.4077 19.9282V34.8521Z" fill="#3E6E7A"/>
<path opacity="0.2" d="M96.9343 33.1885L73.9424 33.1885V18.1683L96.9343 18.1683V33.1885Z" fill="#3E6E7A"/>
<path opacity="0.2" d="M95.4585 34.8245L96.9229 33.1876V18.1675L95.4585 19.8043V34.8245Z" fill="#3E6E7A"/>
<path opacity="0.2" d="M73.9424 18.1126L75.4068 19.7494V34.7695L73.9424 33.1327V18.1126Z" fill="#3E6E7A"/>
<path opacity="0.5" d="M73.9302 31.5508V33.0913L75.4904 34.8244H95.4576L96.9221 33.0913V31.5508H73.9302Z" fill="#CCD4E2"/>
<path opacity="0.2" d="M47.375 34.8521H67.4116V19.9282L47.375 19.9282V34.8521Z" fill="#3E6E7A"/>
<path opacity="0.2" d="M47.375 34.8521H67.4116V19.9282L47.375 19.9282V34.8521Z" fill="#3E6E7A"/>
<path opacity="0.2" d="M68.9016 33.1885L45.9097 33.1885V18.1683L68.9016 18.1683V33.1885Z" fill="#3E6E7A"/>
<path opacity="0.2" d="M67.4258 34.8245L68.8902 33.1876V18.1675L67.4258 19.8043V34.8245Z" fill="#3E6E7A"/>
<path opacity="0.2" d="M45.9097 18.1126L47.3741 19.7494V34.7695L45.9097 33.1327V18.1126Z" fill="#3E6E7A"/>
<path opacity="0.5" d="M45.8975 31.5508V33.0913L47.4577 34.8244H67.4249L68.8894 33.0913V31.5508H45.8975Z" fill="#CCD4E2"/>
</svg>
