<svg width="499" height="589" viewBox="0 0 499 589" fill="none" xmlns="http://www.w3.org/2000/svg">
<path d="M499 0L0 0L0 589L499 589L499 0Z" fill="white"/>
<path opacity="0.4" d="M479.779 18.8762L21.1252 18.8762L21.1252 564.81L479.779 564.81L479.779 18.8762Z" fill="#7CB4D0"/>
<path opacity="0.1" d="M479.779 18.8762L21.1252 18.8762L21.1252 564.81L479.779 564.81L479.779 18.8762Z" fill="#BCDEEA"/>
<path opacity="0.5" d="M21.1247 18.8759L0 0L0 589L21.1247 564.81L21.1247 18.8759Z" fill="#7CB4D0"/>
<path opacity="0.5" d="M479.778 564.81L499 589L499 0L479.778 18.8759L479.778 564.81Z" fill="#7CB4D0"/>
<path opacity="0.4" d="M499 0L0 0L0 589L499 589L499 0Z" fill="#7CB4D0"/>
<path opacity="0.8" d="M479.778 564.625L21.1247 564.625L0 588.999L499 588.999L479.778 564.625Z" fill="#7CB4D0"/>
<path opacity="0.2" d="M49.0659 74.8203H97.0247V46.4149H49.0659V74.8203Z" fill="#3E6E7A"/>
<path opacity="0.2" d="M49.0659 74.8203H97.0247V46.4149H49.0659V74.8203Z" fill="#3E6E7A"/>
<path opacity="0.2" d="M41.1417 71.6565H100.9V43.0678H41.1417V71.6565Z" fill="#3E6E7A"/>
<path opacity="0.2" d="M97.0601 74.7695L100.866 71.6541V43.0654L97.0601 46.1809V74.7695Z" fill="#3E6E7A"/>
<path opacity="0.2" d="M49.2914 46.1809L41.1079 43.0654L41.1079 71.6541L49.2914 74.7695L49.2914 46.1809Z" fill="#3E6E7A"/>
<path opacity="0.5" d="M41.1079 71.4717L49.2914 74.7699L97.0599 74.7699L100.866 71.4712L41.1079 71.4717Z" fill="white"/>
<path opacity="0.2" d="M122.818 74.8203H170.777V46.4149H122.818V74.8203Z" fill="#3E6E7A"/>
<path opacity="0.2" d="M122.818 74.8203H170.777V46.4149H122.818V74.8203Z" fill="#3E6E7A"/>
<path opacity="0.2" d="M114.703 71.6565H174.461V43.0678H114.703V71.6565Z" fill="#3E6E7A"/>
<path opacity="0.2" d="M170.711 74.7695L174.517 71.6541V43.0654L170.711 46.1809V74.7695Z" fill="#3E6E7A"/>
<path opacity="0.2" d="M122.755 46.1809L114.762 43.0654V71.6541L122.755 74.7695V46.1809Z" fill="#3E6E7A"/>
<path opacity="0.5" d="M114.76 71.4712L122.753 74.7699L170.712 74.7699L174.518 71.4712L114.76 71.4712Z" fill="white"/>
<path opacity="0.2" d="M196.378 74.8203H244.337V46.4149H196.378V74.8203Z" fill="#3E6E7A"/>
<path opacity="0.2" d="M196.378 74.8203H244.337V46.4149H196.378V74.8203Z" fill="#3E6E7A"/>
<path opacity="0.2" d="M188.263 71.6565H248.021V43.0678H188.263V71.6565Z" fill="#3E6E7A"/>
<path opacity="0.2" d="M244.362 74.7695L247.978 71.6541V43.0654L244.362 46.1809V74.7695Z" fill="#3E6E7A"/>
<path opacity="0.2" d="M196.406 46.1809L188.413 43.0654V71.6541L196.406 74.7695V46.1809Z" fill="#3E6E7A"/>
<path opacity="0.5" d="M188.41 71.4712L196.403 74.7699L244.362 74.7699L247.978 71.4712L188.41 71.4712Z" fill="white"/>
<path opacity="0.2" d="M460.937 44.7151L412.979 44.7151V73.1205H460.937V44.7151Z" fill="#3E6E7A"/>
<path opacity="0.2" d="M460.937 44.7151L412.979 44.7151V73.1205H460.937V44.7151Z" fill="#3E6E7A"/>
<path opacity="0.2" d="M468.931 41.5996L409.173 41.5996V70.1883L468.931 70.1883V41.5996Z" fill="#3E6E7A"/>
<path opacity="0.2" d="M412.979 73.1205L409.173 70.005V41.5996L412.979 44.715V73.1205Z" fill="#3E6E7A"/>
<path opacity="0.2" d="M460.747 44.715L468.93 41.5996V70.005L460.747 73.1205V44.715Z" fill="#3E6E7A"/>
<path opacity="0.5" d="M468.931 70.0052L460.747 73.1208L412.979 73.1208L409.173 70.0054L468.931 70.0052Z" fill="white"/>
<path opacity="0.2" d="M387.286 44.7151L339.328 44.7151V73.1205H387.286V44.7151Z" fill="#3E6E7A"/>
<path opacity="0.2" d="M387.286 44.7151L339.328 44.7151V73.1205H387.286V44.7151Z" fill="#3E6E7A"/>
<path opacity="0.2" d="M395.28 41.5996L335.522 41.5996V70.1883L395.28 70.1883V41.5996Z" fill="#3E6E7A"/>
<path opacity="0.2" d="M339.328 73.1205L335.522 70.005V41.5996L339.328 44.715V73.1205Z" fill="#3E6E7A"/>
<path opacity="0.2" d="M387.287 44.715L395.28 41.5996V70.005L387.287 73.1205V44.715Z" fill="#3E6E7A"/>
<path opacity="0.5" d="M395.28 70.0052L387.287 73.1208L339.328 73.1208L335.522 70.0054L395.28 70.0052Z" fill="white"/>
<path opacity="0.2" d="M313.636 44.7151L265.677 44.7151V73.1205H313.636V44.7151Z" fill="#3E6E7A"/>
<path opacity="0.2" d="M313.636 44.7151L265.677 44.7151V73.1205H313.636V44.7151Z" fill="#3E6E7A"/>
<path opacity="0.2" d="M321.819 41.5996L262.061 41.5996V70.1883L321.819 70.1883V41.5996Z" fill="#3E6E7A"/>
<path opacity="0.2" d="M265.677 73.1205L262.061 70.005V41.5996L265.677 44.715V73.1205Z" fill="#3E6E7A"/>
<path opacity="0.2" d="M313.635 44.715L321.628 41.5996V70.005L313.635 73.1205V44.715Z" fill="#3E6E7A"/>
<path opacity="0.5" d="M321.628 70.0052L313.635 73.1208L265.677 73.1208L262.061 70.0054L321.628 70.0052Z" fill="white"/>
</svg>
