<svg width="171" height="155" viewBox="0 0 171 155" fill="none" xmlns="http://www.w3.org/2000/svg">
<path d="M156.039 21.2149L15.8729 21.2149C14.7503 21.2149 13.8428 20.3142 13.8428 19.2001L13.8428 2.01478C13.8428 0.900682 14.7503 -1.25802e-10 15.8729 -2.81412e-10L156.036 -1.9711e-08C157.158 -1.98666e-08 158.066 0.900682 158.066 2.01478L158.066 19.2001C158.069 20.3142 157.158 21.2149 156.039 21.2149Z" fill="#4CD38B"/>
<path d="M41 17L18 17L18 35L41 35L41 17Z" fill="#4CD38B"/>
<path d="M41 13.0005L18 13.0005L18 31.0005L41 31.0005L41 13.0005Z" fill="#51E094"/>
<path d="M41 6L18 6L18 24L41 24L41 6Z" fill="#45BF80"/>
<path opacity="0.5" d="M22.2254 21.3413L20.7676 21.3413L20.7676 34.7249L22.2254 34.7249L22.2254 21.3413Z" fill="#58F4A3"/>
<g style="mix-blend-mode:color">
<path d="M41 17L18 17L18 35L41 35L41 17Z" fill="#B0E298"/>
</g>
<path d="M69 17L46 17L46 35L69 35L69 17Z" fill="#4CD38B"/>
<path d="M69 13.0005L46 13.0005L46 31.0005L69 31.0005L69 13.0005Z" fill="#51E094"/>
<path d="M69 6L46 6L46 24L69 24L69 6Z" fill="#45BF80"/>
<path opacity="0.5" d="M50.2254 21.3413L48.7676 21.3413L48.7676 34.7249L50.2254 34.7249L50.2254 21.3413Z" fill="#58F4A3"/>
<g style="mix-blend-mode:color">
<path d="M69 17L46 17L46 35L69 35L69 17Z" fill="#B0E298"/>
</g>
<path d="M97 17L74 17L74 35L97 35L97 17Z" fill="#4CD38B"/>
<path d="M97 13.0005L74 13.0005L74 31.0005L97 31.0005L97 13.0005Z" fill="#51E094"/>
<path d="M97 6L74 6L74 24L97 24L97 6Z" fill="#45BF80"/>
<path opacity="0.5" d="M78.2254 21.3413L76.7676 21.3413L76.7676 34.7249L78.2254 34.7249L78.2254 21.3413Z" fill="#58F4A3"/>
<g style="mix-blend-mode:color">
<path d="M97 17L74 17L74 35L97 35L97 17Z" fill="#B0E298"/>
</g>
<path d="M125 17L102 17L102 35L125 35L125 17Z" fill="#4CD38B"/>
<path d="M125 13.0005L102 13.0005L102 31.0005L125 31.0005L125 13.0005Z" fill="#51E094"/>
<path d="M125 6L102 6L102 24L125 24L125 6Z" fill="#45BF80"/>
<path opacity="0.5" d="M106.225 21.3413L104.768 21.3413L104.768 34.7249L106.225 34.7249L106.225 21.3413Z" fill="#58F4A3"/>
<g style="mix-blend-mode:color">
<path d="M125 17L102 17L102 35L125 35L125 17Z" fill="#B0E298"/>
</g>
<path d="M153 17L130 17L130 35L153 35L153 17Z" fill="#4CD38B"/>
<path d="M153 13.0005L130 13.0005L130 31.0005L153 31.0005L153 13.0005Z" fill="#51E094"/>
<path d="M153 6L130 6L130 24L153 24L153 6Z" fill="#45BF80"/>
<path opacity="0.5" d="M134.225 21.3413L132.768 21.3413L132.768 34.7249L134.225 34.7249L134.225 21.3413Z" fill="#58F4A3"/>
<g style="mix-blend-mode:color">
<path d="M153 17L130 17L130 35L153 35L153 17Z" fill="#B0E298"/>
</g>
<path d="M156.039 21.2149L15.8729 21.2149C14.7503 21.2149 13.8428 20.3142 13.8428 19.2001L13.8428 2.01478C13.8428 0.900682 14.7503 -1.25802e-10 15.8729 -2.81412e-10L156.036 -1.9711e-08C157.158 -1.98666e-08 158.066 0.900682 158.066 2.01478L158.066 19.2001C158.069 20.3142 157.158 21.2149 156.039 21.2149Z" fill="#4CD38B"/>
<path d="M156.039 10.6092L15.8729 10.6092C14.7503 10.6092 13.8428 9.70494 13.8428 8.59084L13.8428 2.01478C13.8428 0.900682 14.7503 -1.25802e-10 15.8729 -2.81412e-10L156.036 -1.9711e-08C157.158 -1.98666e-08 158.066 0.900682 158.066 2.01478L158.066 8.59084C158.069 9.70494 157.158 10.6092 156.039 10.6092Z" fill="#54E899"/>
<path d="M158.069 5.52002L13.8428 5.52002L13.8428 14.5919L158.069 14.5919L158.069 5.52002Z" fill="#51E094"/>
<path opacity="0.5" d="M156.047 21.2149L153.554 21.2149L150.638 14.5882L150.638 5.51984L153.554 -4.04181e-10L156.054 -7.50767e-10C157.169 -9.05366e-10 158.073 0.897065 158.073 2.00393L158.073 19.2109C158.07 20.3178 157.166 21.2149 156.047 21.2149Z" fill="#58F4A3"/>
<path opacity="0.5" d="M15.8656 21.2149L18.3585 21.2149L21.2742 14.5882L21.2742 5.51984L18.3585 -6.25977e-10L15.8619 -2.79896e-10C14.7467 -1.25297e-10 13.8428 0.897065 13.8428 2.00393L13.8428 19.2109C13.8428 20.3178 14.7467 21.2149 15.8656 21.2149Z" fill="#58F4A3"/>
<path d="M16.4268 20.0068C17.238 20.0068 17.8956 19.3541 17.8956 18.549C17.8956 17.744 17.238 17.0913 16.4268 17.0913C15.6156 17.0913 14.958 17.744 14.958 18.549C14.958 19.3541 15.6156 20.0068 16.4268 20.0068Z" fill="#003E6B"/>
<path d="M155.289 4.12347C156.1 4.12347 156.758 3.47082 156.758 2.66574C156.758 1.86066 156.1 1.20801 155.289 1.20801C154.478 1.20801 153.82 1.86066 153.82 2.66574C153.82 3.47082 154.478 4.12347 155.289 4.12347Z" fill="#003E6B"/>
<path d="M155.289 20.0068C156.1 20.0068 156.757 19.3541 156.757 18.549C156.757 17.744 156.1 17.0913 155.289 17.0913C154.477 17.0913 153.82 17.744 153.82 18.549C153.82 19.3541 154.477 20.0068 155.289 20.0068Z" fill="#003E6B"/>
<path d="M155.901 3.98992C156.05 3.76204 156.138 3.49075 156.138 3.20137C156.138 2.39474 155.482 1.74364 154.669 1.74364C154.45 1.74364 154.243 1.79428 154.057 1.8811C154.319 1.47959 154.771 1.21191 155.289 1.21191C156.101 1.21191 156.757 1.86301 156.757 2.66964C156.757 3.25563 156.404 3.75842 155.901 3.98992Z" fill="#3FAF75"/>
<path d="M154.669 19.4532C155.482 19.4532 156.138 18.8021 156.138 17.9955C156.138 17.7169 156.054 17.4565 155.915 17.2358C156.411 17.471 156.757 17.9665 156.757 18.5489C156.757 19.3555 156.101 20.0066 155.288 20.0066C154.76 20.0066 154.297 19.7245 154.042 19.3085C154.232 19.3989 154.443 19.4532 154.669 19.4532Z" fill="#378E60"/>
<path d="M16.4268 4.12347C17.238 4.12347 17.8956 3.47082 17.8956 2.66574C17.8956 1.86066 17.238 1.20801 16.4268 1.20801C15.6156 1.20801 14.958 1.86066 14.958 2.66574C14.958 3.47082 15.6156 4.12347 16.4268 4.12347Z" fill="#003E6B"/>
<path d="M15.8145 3.98963C15.6687 3.76175 15.5776 3.49046 15.5776 3.20108C15.5776 2.39445 16.2336 1.74335 17.0464 1.74335C17.2651 1.74335 17.4728 1.79399 17.6587 1.88081C17.3963 1.47568 16.9444 1.20801 16.4268 1.20801C15.614 1.20801 14.958 1.8591 14.958 2.66574C14.958 3.25534 15.3115 3.75813 15.8145 3.98963Z" fill="#3FAF75"/>
<path d="M17.0464 19.4532C16.2336 19.4532 15.5776 18.8021 15.5776 17.9955C15.5776 17.7169 15.6614 17.4565 15.7999 17.2358C15.3043 17.471 14.958 17.9665 14.958 18.5489C14.958 19.3555 15.614 20.0066 16.4268 20.0066C16.9553 20.0066 17.4182 19.7245 17.6733 19.3085C17.4838 19.3989 17.2724 19.4532 17.0464 19.4532Z" fill="#378E60"/>
<g style="mix-blend-mode:color">
<path d="M156.039 21.2149L15.8729 21.2149C14.7503 21.2149 13.8428 20.3142 13.8428 19.2001L13.8428 2.01478C13.8428 0.900682 14.7503 -1.25802e-10 15.8729 -2.81412e-10L156.036 -1.9711e-08C157.158 -1.98666e-08 158.066 0.900682 158.066 2.01478L158.066 19.2001C158.069 20.3142 157.158 21.2149 156.039 21.2149Z" fill="#B0E298"/>
</g>
<path fill-rule="evenodd" clip-rule="evenodd" d="M1.79303 9.39844H10.6913L11.8036 18.4821H160.109L161.221 9.39844H169.192V27.7512L169.378 27.7512V36.0065L158.811 27.7512H12.3598L1.79303 36.0065L1.79303 27.7512V9.39844ZM1.79303 36.0065L0.495361 37.0203H1.79303V36.0065ZM169.378 36.0065L170.676 37.0203H169.378V36.0065Z" fill="#F2F2F2" fill-opacity="0.3"/>
<path fill-rule="evenodd" clip-rule="evenodd" d="M1.7932 154.182L169.378 152.699L159.182 144.912L12.916 144.912L12.7307 144.912L12.0207 145.514L1.60779 152.513L3.76195 152.513L1.7932 154.182Z" fill="#758CA2" fill-opacity="0.6"/>
<path d="M13.2073 144.727L2.45516 151.957L2 9.18164L12.095 8.65726L13.2073 17.8449L13.2073 144.727Z" fill="#99A7AD" fill-opacity="0.6"/>
<path d="M159.182 144.995L169.193 152.513L170.5 12.6816L160.109 8.2865L159.182 18.2157L159.182 144.995Z" fill="#99A7AD" fill-opacity="0.6"/>
<rect x="12.7305" y="18.1118" width="3.33686" height="126.801" fill="#F2F2F2" fill-opacity="0.5"/>
<rect x="155.845" y="18.1118" width="3.33686" height="126.801" fill="#F2F2F2" fill-opacity="0.5"/>
<path d="M119.325 18.2969L12.5452 125.077V144.912H26.6341L153.25 18.2969H148.615H119.325Z" fill="white" fill-opacity="0.2"/>
<path d="M159.182 20.1509L34.0493 145.098H40.5377L159.182 26.4538V20.1509Z" fill="white" fill-opacity="0.2"/>
<mask id="path-49-inside-1" fill="white">
<path fill-rule="evenodd" clip-rule="evenodd" d="M12.7305 7.35938H5.49536C2.73394 7.35938 0.495361 9.59794 0.495361 12.3594V149.181C0.495361 151.943 2.73393 154.181 5.49536 154.181H165.675C168.437 154.181 170.675 151.943 170.675 149.181V12.3594C170.675 9.59795 168.437 7.35938 165.675 7.35938H159.182V13.1117C159.182 15.8732 156.943 18.1117 154.182 18.1117H17.7305C14.9691 18.1117 12.7305 15.8731 12.7305 13.1117V7.35938Z"/>
</mask>
<path fill-rule="evenodd" clip-rule="evenodd" d="M12.7305 7.35938H5.49536C2.73394 7.35938 0.495361 9.59794 0.495361 12.3594V149.181C0.495361 151.943 2.73393 154.181 5.49536 154.181H165.675C168.437 154.181 170.675 151.943 170.675 149.181V12.3594C170.675 9.59795 168.437 7.35938 165.675 7.35938H159.182V13.1117C159.182 15.8732 156.943 18.1117 154.182 18.1117H17.7305C14.9691 18.1117 12.7305 15.8731 12.7305 13.1117V7.35938Z" fill="#F2F2F2" fill-opacity="0.5"/>
<path d="M12.7305 7.35938H19.7305V0.359375H12.7305V7.35938ZM159.182 7.35938V0.359375H152.182V7.35938H159.182ZM5.49536 14.3594H12.7305V0.359375H5.49536V14.3594ZM7.49536 12.3594C7.49536 13.464 6.59991 14.3594 5.49536 14.3594V0.359375C-1.13203 0.359375 -6.50464 5.73192 -6.50464 12.3594H7.49536ZM7.49536 149.181V12.3594H-6.50464V149.181H7.49536ZM5.49536 147.181C6.59994 147.181 7.49536 148.077 7.49536 149.181H-6.50464C-6.50464 155.809 -1.13208 161.181 5.49536 161.181V147.181ZM165.675 147.181H5.49536V161.181H165.675V147.181ZM163.675 149.181C163.675 148.077 164.571 147.181 165.675 147.181V161.181C172.303 161.181 177.675 155.809 177.675 149.181H163.675ZM163.675 12.3594V149.181H177.675V12.3594H163.675ZM165.675 14.3594C164.571 14.3594 163.675 13.4639 163.675 12.3594H177.675C177.675 5.73196 172.303 0.359375 165.675 0.359375V14.3594ZM159.182 14.3594H165.675V0.359375H159.182V14.3594ZM152.182 7.35938V13.1117H166.182V7.35938H152.182ZM152.182 13.1117C152.182 12.0072 153.077 11.1117 154.182 11.1117V25.1117C160.809 25.1117 166.182 19.7391 166.182 13.1117H152.182ZM154.182 11.1117H17.7305V25.1117H154.182V11.1117ZM17.7305 11.1117C18.8351 11.1117 19.7305 12.0072 19.7305 13.1117H5.73054C5.73054 19.7391 11.1031 25.1117 17.7305 25.1117V11.1117ZM19.7305 13.1117V7.35938H5.73054V13.1117H19.7305Z" fill="#F2F2F2" mask="url(#path-49-inside-1)"/>
<path opacity="0.2" d="M19.342 34.7964H39.3787V19.8725L19.342 19.8725V34.7964Z" fill="#3E6E7A"/>
<path opacity="0.2" d="M19.342 34.7964H39.3787V19.8725L19.342 19.8725V34.7964Z" fill="#3E6E7A"/>
<path opacity="0.2" d="M40.8686 33.1328L17.8767 33.1328V18.1126L40.8686 18.1126V33.1328Z" fill="#3E6E7A"/>
<path opacity="0.2" d="M39.3928 34.7688L40.8573 33.132V18.1118L39.3928 19.7486V34.7688Z" fill="#3E6E7A"/>
<path opacity="0.2" d="M17.8767 18.0569L19.3412 19.6937V34.7139L17.8767 33.0771V18.0569Z" fill="#3E6E7A"/>
<path opacity="0.5" d="M17.8645 31.4951V33.0356L19.4247 34.7687H39.392L40.8564 33.0356V31.4951H17.8645Z" fill="#CCD4E2"/>
<g style="mix-blend-mode:soft-light">
<path d="M0.495361 137.497H170.675V149.181C170.675 151.943 168.437 154.181 165.675 154.181H5.49536C2.73393 154.181 0.495361 151.943 0.495361 149.181V137.497Z" fill="white"/>
</g>
<path fill-rule="evenodd" clip-rule="evenodd" d="M20 133.182H0V149.182C0 151.943 2.23857 154.182 5 154.182H25C22.2386 154.182 20 151.943 20 149.182V133.182Z" fill="#E5ECF0"/>
<path fill-rule="evenodd" clip-rule="evenodd" d="M151 133.182H171V149.182C171 151.943 168.761 154.182 166 154.182H146C148.761 154.182 151 151.943 151 149.182V133.182Z" fill="#E5ECF0"/>
<path opacity="0.2" d="M131.474 34.8521H151.51V19.9282L131.474 19.9282V34.8521Z" fill="#3E6E7A"/>
<path opacity="0.2" d="M131.474 34.8521H151.51V19.9282L131.474 19.9282V34.8521Z" fill="#3E6E7A"/>
<path opacity="0.2" d="M153 33.1885L130.008 33.1885V18.1683L153 18.1683V33.1885Z" fill="#3E6E7A"/>
<path opacity="0.2" d="M151.524 34.8245L152.989 33.1876V18.1675L151.524 19.8043V34.8245Z" fill="#3E6E7A"/>
<path opacity="0.2" d="M130.008 18.1126L131.473 19.7494V34.7695L130.008 33.1327V18.1126Z" fill="#3E6E7A"/>
<path opacity="0.5" d="M129.996 31.5508V33.0913L131.556 34.8244H151.524L152.988 33.0913V31.5508H129.996Z" fill="#CCD4E2"/>
<path opacity="0.2" d="M103.44 34.8521H123.477V19.9282L103.44 19.9282V34.8521Z" fill="#3E6E7A"/>
<path opacity="0.2" d="M103.44 34.8521H123.477V19.9282L103.44 19.9282V34.8521Z" fill="#3E6E7A"/>
<path opacity="0.2" d="M124.967 33.1885L101.975 33.1885V18.1683L124.967 18.1683V33.1885Z" fill="#3E6E7A"/>
<path opacity="0.2" d="M123.491 34.8245L124.956 33.1876V18.1675L123.491 19.8043V34.8245Z" fill="#3E6E7A"/>
<path opacity="0.2" d="M101.975 18.1126L103.44 19.7494V34.7695L101.975 33.1327V18.1126Z" fill="#3E6E7A"/>
<path opacity="0.5" d="M101.963 31.5508V33.0913L103.523 34.8244H123.49L124.955 33.0913V31.5508H101.963Z" fill="#CCD4E2"/>
<path opacity="0.2" d="M75.4077 34.8521H95.4443V19.9282L75.4077 19.9282V34.8521Z" fill="#3E6E7A"/>
<path opacity="0.2" d="M75.4077 34.8521H95.4443V19.9282L75.4077 19.9282V34.8521Z" fill="#3E6E7A"/>
<path opacity="0.2" d="M96.9343 33.1885L73.9424 33.1885V18.1683L96.9343 18.1683V33.1885Z" fill="#3E6E7A"/>
<path opacity="0.2" d="M95.4585 34.8245L96.9229 33.1876V18.1675L95.4585 19.8043V34.8245Z" fill="#3E6E7A"/>
<path opacity="0.2" d="M73.9424 18.1126L75.4068 19.7494V34.7695L73.9424 33.1327V18.1126Z" fill="#3E6E7A"/>
<path opacity="0.5" d="M73.9302 31.5508V33.0913L75.4904 34.8244H95.4576L96.9221 33.0913V31.5508H73.9302Z" fill="#CCD4E2"/>
<path opacity="0.2" d="M47.375 34.8521H67.4116V19.9282L47.375 19.9282V34.8521Z" fill="#3E6E7A"/>
<path opacity="0.2" d="M47.375 34.8521H67.4116V19.9282L47.375 19.9282V34.8521Z" fill="#3E6E7A"/>
<path opacity="0.2" d="M68.9016 33.1885L45.9097 33.1885V18.1683L68.9016 18.1683V33.1885Z" fill="#3E6E7A"/>
<path opacity="0.2" d="M67.4258 34.8245L68.8902 33.1876V18.1675L67.4258 19.8043V34.8245Z" fill="#3E6E7A"/>
<path opacity="0.2" d="M45.9097 18.1126L47.3741 19.7494V34.7695L45.9097 33.1327V18.1126Z" fill="#3E6E7A"/>
<path opacity="0.5" d="M45.8975 31.5508V33.0913L47.4577 34.8244H67.4249L68.8894 33.0913V31.5508H45.8975Z" fill="#CCD4E2"/>
</svg>
