<svg xmlns="http://www.w3.org/2000/svg" width="141" height="116" fill="none" viewBox="0 0 141 116">
    <path fill="#CCC" d="M141 106H0l4.159 10H136.84L141 106z"/>
    <path fill="#F7F7F7" d="M0 36h141l-4.159-4H4.159L0 36z"/>
    <path fill="#EAEAEF" d="M141 36H0v70h141V36z"/>
    <path fill="#F7F7F7" d="M138 39H3v64h135V39z"/>
    <path fill="#E36554" d="M138 78.5L3 45v58h135V78.5z"/>
    <path fill="#C14534" d="M138 82L3 58.5V103h135V82z"/>
    <path fill="#BFB9C3" d="M131.597 29.898l-.5-1.363-.5-.535h-9.675v1.898h-18.178V28h-9.09v1.898H75.477V28h-9.09v1.898H48.209V28H39.12v1.898H20.941V28H11.59l-1 .535c-.902 0-.5 1.403-.5 2.675V34h121.507v-3.325c0-1.272.907-.777 0-.777z"/>
    <path fill="#D7D1DB" d="M68.932 28h-2.63v1.939h2.63V28zM123.319 28h-2.629v1.939h2.629V28zM96.127 28h-2.63v1.939h2.63V28zM41.74 28h-2.63v1.939h2.63V28zM13 28h-2.468C9.688 28 9 29.03 9 30.3V34h2.468v-3.7c0-1.271.683-2.3 1.532-2.3z"/>
    <path fill="#A09BA5" d="M75.365 28h-2.63v1.939h2.63V28zM20.977 28h-2.63v1.939h2.63V28zM48.168 28h-2.63v1.939h2.63V28zM102.556 28h-2.63v1.939h2.63V28zM128 28h2.468c.844 0 1.532 1.028 1.532 2.3V34h-2.468v-3.7c0-1.272-.683-2.3-1.532-2.3z"/>
    <mask id="a" width="42" height="22" x="12" y="53" maskUnits="userSpaceOnUse">
        <rect width="42" height="22" x="12" y="53" fill="#C4C4C4" rx="1"/>
    </mask>
    <g mask="url(#a)">
        <path fill="#4873E2" d="M54 53H12v22h42V53z"/>
        <path fill="#254FBB" d="M12 53h42v.88H12z"/>
        <path fill="#254FBB" d="M12 75V53h.712v21.12L12 75z"/>
    </g>
    <path fill="#fff" d="M37.933 53.88L12.813 75H29.02l25.286-21.12H37.933zM57.544 53.88L33.28 75h3.248L60 53.88h-2.456z" opacity=".2"/>
    <mask id="b" width="11" height="11" x="56" y="53" maskUnits="userSpaceOnUse">
        <path fill="#80CCE8" d="M56 53.917c0-.507.41-.917.917-.917h9.166c.507 0 .917.41.917.917v9.166c0 .507-.41.917-.917.917h-9.166a.917.917 0 0 1-.917-.917v-9.166z"/>
    </mask>
    <g mask="url(#b)">
        <path fill="#FAAC48" d="M56 53.917c0-.507.41-.917.917-.917h9.166c.507 0 .917.41.917.917v9.166c0 .507-.41.917-.917.917h-9.166a.917.917 0 0 1-.917-.917v-9.166z"/>
        <path fill="#FFD5A0" d="M56 53.458c0-.253.224-.458.5-.458s.5.205.5.458v10.084c0 .253-.224.458-.5.458s-.5-.205-.5-.458V53.458z"/>
        <path fill="#DD871A" d="M56.917 63h9.625c.253 0 .458.224.458.5s-.205.5-.458.5H56l.917-1z"/>
        <path fill="#DD871A" d="M66.5 64c-.276 0-.5-.205-.5-.458V53.458c0-.253.224-.458.5-.458s.5.205.5.458v10.084c0 .253-.224.458-.5.458z"/>
        <path fill="#FFD5A0" d="M56 53.5c0-.276.205-.5.458-.5H67l-.917 1h-9.625c-.253 0-.458-.224-.458-.5z"/>
    </g>
    <path fill="#333" fill-rule="evenodd" d="M57.833 59.259l3.715-3.509v1.991l-3.715 3.509v-1.991zm7.334 0l-3.62-3.509v1.991l3.62 3.509v-1.991z" clip-rule="evenodd"/>
    <mask id="c" width="11" height="11" x="56" y="64" maskUnits="userSpaceOnUse">
        <path fill="#80CCE8" d="M56 64.917c0-.507.41-.917.917-.917h9.166c.507 0 .917.41.917.917v9.166c0 .507-.41.917-.917.917h-9.166a.917.917 0 0 1-.917-.917v-9.166z"/>
    </mask>
    <g mask="url(#c)">
        <path fill="#FAAC48" d="M56 64.917c0-.507.41-.917.917-.917h9.166c.507 0 .917.41.917.917v9.166c0 .507-.41.917-.917.917h-9.166a.917.917 0 0 1-.917-.917v-9.166z"/>
        <path fill="#FFD5A0" d="M56 64.458c0-.253.224-.458.5-.458s.5.205.5.458v10.084c0 .253-.224.458-.5.458s-.5-.205-.5-.458V64.458z"/>
        <path fill="#DD871A" d="M56.917 74h9.625c.253 0 .458.224.458.5s-.205.5-.458.5H56l.917-1z"/>
        <path fill="#DD871A" d="M66.5 75c-.276 0-.5-.205-.5-.458V64.458c0-.253.224-.458.5-.458s.5.205.5.458v10.084c0 .253-.224.458-.5.458z"/>
        <path fill="#FFD5A0" d="M56 64.5c0-.276.205-.5.458-.5H67l-.917 1h-9.625c-.253 0-.458-.224-.458-.5z"/>
    </g>
    <path fill="#333" fill-rule="evenodd" d="M65.167 68.991L61.452 72.5v-1.991L65.167 67v1.991zm-7.334 0l3.62 3.509v-1.991L57.832 67v1.991z" clip-rule="evenodd"/>
    <mask id="d" width="42" height="22" x="75" y="53" maskUnits="userSpaceOnUse">
        <rect width="42" height="22" x="75" y="53" fill="#C4C4C4" rx="1"/>
    </mask>
    <g mask="url(#d)">
        <path fill="#4873E2" d="M117 53H75v22h42V53z"/>
        <path fill="#254FBB" d="M75 53h42v.88H75z"/>
        <path fill="#254FBB" d="M75 75V53h.712v21.12L75 75z"/>
    </g>
    <path fill="#fff" d="M100.933 53.88L75.813 75H92.02l25.286-21.12h-16.372zM120.544 53.88L96.279 75h3.248L123 53.88h-2.456z" opacity=".2"/>
    <mask id="e" width="11" height="11" x="119" y="53" maskUnits="userSpaceOnUse">
        <path fill="#80CCE8" d="M119 53.917c0-.507.41-.917.917-.917h9.166c.507 0 .917.41.917.917v9.166c0 .507-.41.917-.917.917h-9.166a.916.916 0 0 1-.917-.917v-9.166z"/>
    </mask>
    <g mask="url(#e)">
        <path fill="#FAAC48" d="M119 53.917c0-.507.41-.917.917-.917h9.166c.507 0 .917.41.917.917v9.166c0 .507-.41.917-.917.917h-9.166a.916.916 0 0 1-.917-.917v-9.166z"/>
        <path fill="#FFD5A0" d="M119 53.458c0-.253.224-.458.5-.458s.5.205.5.458v10.084c0 .253-.224.458-.5.458s-.5-.205-.5-.458V53.458z"/>
        <path fill="#DD871A" d="M119.917 63h9.625c.253 0 .458.224.458.5s-.205.5-.458.5H119l.917-1z"/>
        <path fill="#DD871A" d="M129.5 64c-.276 0-.5-.205-.5-.458V53.458c0-.253.224-.458.5-.458s.5.205.5.458v10.084c0 .253-.224.458-.5.458z"/>
        <path fill="#FFD5A0" d="M119 53.5c0-.276.205-.5.458-.5H130l-.917 1h-9.625c-.253 0-.458-.224-.458-.5z"/>
    </g>
    <path fill="#333" fill-rule="evenodd" d="M120.833 59.259l3.715-3.509v1.991l-3.715 3.509v-1.991zm7.334 0l-3.619-3.509v1.991l3.619 3.509v-1.991z" clip-rule="evenodd"/>
    <mask id="f" width="11" height="11" x="119" y="64" maskUnits="userSpaceOnUse">
        <path fill="#80CCE8" d="M119 64.917c0-.507.41-.917.917-.917h9.166c.507 0 .917.41.917.917v9.166c0 .507-.41.917-.917.917h-9.166a.916.916 0 0 1-.917-.917v-9.166z"/>
    </mask>
    <g mask="url(#f)">
        <path fill="#FAAC48" d="M119 64.917c0-.507.41-.917.917-.917h9.166c.507 0 .917.41.917.917v9.166c0 .507-.41.917-.917.917h-9.166a.916.916 0 0 1-.917-.917v-9.166z"/>
        <path fill="#FFD5A0" d="M119 64.458c0-.253.224-.458.5-.458s.5.205.5.458v10.084c0 .253-.224.458-.5.458s-.5-.205-.5-.458V64.458z"/>
        <path fill="#DD871A" d="M119.917 74h9.625c.253 0 .458.224.458.5s-.205.5-.458.5H119l.917-1z"/>
        <path fill="#DD871A" d="M129.5 75c-.276 0-.5-.205-.5-.458V64.458c0-.253.224-.458.5-.458s.5.205.5.458v10.084c0 .253-.224.458-.5.458z"/>
        <path fill="#FFD5A0" d="M119 64.5c0-.276.205-.5.458-.5H130l-.917 1h-9.625c-.253 0-.458-.224-.458-.5z"/>
    </g>
    <path fill="#333" fill-rule="evenodd" d="M128.167 68.991l-3.715 3.509v-1.991L128.167 67v1.991zm-7.334 0l3.619 3.509v-1.991L120.833 67v1.991z" clip-rule="evenodd"/>
    <mask id="g" width="36" height="12" x="53" y="82" maskUnits="userSpaceOnUse">
        <rect width="36" height="12" x="53" y="82" fill="#FAAC48" rx="1"/>
    </mask>
    <g mask="url(#g)">
        <rect width="36" height="12" x="53" y="82" fill="#FAAC48" rx="1"/>
        <path fill="#FFD5A0" d="M53 82.546c0-.302.244-.546.545-.546H88a1 1 0 0 1 1 1v.09H53.545a.545.545 0 0 1-.545-.544z"/>
        <path fill="#DD871A" d="M89 93.454a.545.545 0 0 1-.546.546H54a1 1 0 0 1-1-1v-.09h35.454c.302 0 .546.243.546.544z"/>
        <path fill="#FFD5A0" d="M53.5 82a.5.5 0 0 0-.5.5V94l1-1.09V82.5a.5.5 0 0 0-.5-.5z"/>
        <path fill="#DD871A" d="M88.5 94a.5.5 0 0 0 .5-.5V82l-1 1.09V93.5a.5.5 0 0 0 .5.5z"/>
    </g>
    <path fill="#333" d="M66.315 90c.853 0 1.282-.375 1.282-1.13 0-.705-.333-1.023-1.213-1.143-.617-.085-.842-.267-.842-.653 0-.392.274-.608.773-.608.504 0 .745.216.745.665h.483c0-.756-.408-1.131-1.212-1.131-.821 0-1.267.386-1.267 1.125 0 .665.312.966 1.149 1.085.67.097.906.29.906.705 0 .409-.268.62-.799.62-.553 0-.837-.234-.837-.7H65c0 .779.445 1.165 1.315 1.165zM69.145 89.932h.429V89.5h-.317c-.316 0-.397-.097-.397-.477v-1.614h.682V87h-.682v-.773h-.424L68.4 87h-.489v.41h.478v1.607c0 .642.225.915.757.915zM70.88 90c.403 0 .715-.165.94-.466l.016.398h.402v-1.915c0-.727-.354-1.085-1.084-1.085-.692 0-1.067.324-1.116.96h.462c.016-.358.247-.528.638-.528.43 0 .628.21.628.664v.16h-.665c-.778 0-1.143.329-1.143.914 0 .574.354.898.923.898zm.07-.432c-.348 0-.52-.17-.52-.477 0-.33.204-.489.687-.489h.65v.415c-.167.358-.446.551-.816.551zM73.07 89.932h.472v-1.688c.091-.562.344-.806.794-.806h.14v-.495h-.188c-.402 0-.654.188-.794.603L73.473 87h-.403v2.932zM75.904 89.932h.43V89.5h-.317c-.317 0-.397-.097-.397-.477v-1.614h.681V87h-.681v-.773h-.424l-.038.773h-.488v.41h.477v1.607c0 .642.226.915.757.915z"/>
</svg>
