<svg width="132" height="104" viewBox="0 0 132 104" fill="none" xmlns="http://www.w3.org/2000/svg">
<mask id="mask0" mask-type="alpha" maskUnits="userSpaceOnUse" x="0" y="0" width="132" height="104">
<path d="M0.5 5C0.5 2.51472 2.51472 0.5 5 0.5H131.5V103.5H5C2.51472 103.5 0.5 101.485 0.5 99V5Z" fill="#003E6B" stroke="#668BA6"/>
</mask>
<g mask="url(#mask0)">
<g clip-path="url(#clip0)">
<rect width="205" height="132" fill="#336589"/>
<path opacity="0.3" d="M102.02 84.5829L70.1989 68.4033L-14.7114 122.709L20.7878 141.612L102.02 84.5829Z" fill="#C4C4C4"/>
<path opacity="0.1" d="M66.2012 -20.8252L221.31 46.136L210.437 104.767L113.533 61.1942L102.02 84.5826L70.3587 68.5632L66.2012 -20.8252Z" fill="#AAAAAA"/>
<path opacity="0.2" d="M102.02 84.2624L114.333 60.874L37.8452 111.976L36.9383 112.617L18.709 143.214L102.02 84.2624Z" fill="#D0D0D0"/>
<path d="M114.173 61.1943L38.0576 111.976L38.6972 112.136L84.5904 133.442L220.031 144.816L212.356 105.728L114.173 61.1943Z" fill="#C4C4C4" fill-opacity="0.3"/>
<path d="M66.5212 -17.6211L70.359 68.4032L-0.159738 113.418L-8.95459 115.981V23.0682L66.5212 -17.6211Z" fill="white" fill-opacity="0.1"/>
<path d="M208.198 41.0094L89.8674 -11.2139L34.5398 -0.96144L-3.83768 20.5046L-6.39618 26.2716L-11.5132 32.3589" stroke="#F2F2F2" stroke-opacity="0.3" stroke-width="6"/>
<path opacity="0.4" d="M224.189 111.928L113.89 60.6885L41.0632 111.289L40.936 111.204L130.21 152.74L158.018 152.826H224.189V111.928Z" fill="#B2D3DC"/>
<path opacity="0.8" d="M160.226 152.783L40.936 96.1165L113.89 45.4951L224.189 96.7344V152.783H160.226Z" fill="#B2D3DC"/>
<path opacity="0.2" d="M224.189 111.927L113.89 60.6882V45.4951L224.189 96.7344V111.927Z" fill="#B2D3DC"/>
<path opacity="0.5" d="M130.324 152.825L40.936 111.335V96.1162L159.906 152.665L130.324 152.825Z" fill="#B2D3DC"/>
<path opacity="0.5" d="M93.7051 63.2767L113.853 49.3398V62.7962L93.7051 76.7331V63.2767Z" fill="#376B79"/>
<path opacity="0.6" d="M120.57 52.2233L113.854 49.3398V62.7962L120.57 65.6797V52.2233Z" fill="#2E5D6B"/>
<path opacity="0.7" d="M120.57 65.6794L113.854 62.7959L93.5454 76.893L100.102 79.7765L120.57 65.6794Z" fill="#2E5D6B"/>
<path opacity="0.5" d="M70.6787 79.6166L90.8269 65.6797V79.136L70.6787 93.0729V79.6166Z" fill="#376B79"/>
<path opacity="0.6" d="M97.5432 68.5632L90.8271 65.6797V79.136L97.5432 82.0195V68.5632Z" fill="#2E5D6B"/>
<path opacity="0.7" d="M97.543 82.0192L90.8269 79.1357L70.6787 93.0726L77.075 96.1163L97.543 82.0192Z" fill="#2E5D6B"/>
<path opacity="0.5" d="M47.9717 95.3158L68.1199 81.3789V94.8352L47.9717 108.932V95.3158Z" fill="#376B79"/>
<path opacity="0.6" d="M74.8362 84.2624L68.1201 81.3789V94.8352L74.8362 97.7187V84.2624Z" fill="#2E5D6B"/>
<path opacity="0.7" d="M74.836 97.7185L68.1199 94.835L47.9717 108.932L54.3679 111.816L74.836 97.7185Z" fill="#2E5D6B"/>
<path d="M216.833 85.8646L68.76 18.583L-5.43652 58.9519V137.127L23.5065 135.044C23.5065 135.044 36.6189 112.937 36.9387 112.617C37.2585 112.297 37.8981 111.816 38.3778 111.976C38.8576 112.136 87.629 135.044 87.629 135.044L210.757 137.127L216.833 85.8646Z" fill="#00AEEF" fill-opacity="0.3"/>
<path d="M168.541 135.205L-4.47724 59.2725L-9.91406 135.205H23.3465C23.3465 135.205 36.4588 113.578 36.7786 112.777C37.0984 111.976 38.0579 111.816 38.6975 112.137C39.3371 112.457 82.6717 132.641 82.6717 132.641L168.541 135.205Z" fill="#00AEEF" fill-opacity="0.3"/>
</g>
<path d="M447 -330H-337V299.729H447V-330Z" fill="url(#paint0_linear)"/>
<path d="M-312.974 92.3486V263.058H-202.872V143.568H346.726V263.058H353.426V92.3486H-312.974Z" fill="#668BA6"/>
<path d="M352.997 91.7197H-324.524V103.618H352.997V91.7197Z" fill="#99B2C4"/>
<g opacity="0.2">
<g opacity="0.2">
<path opacity="0.2" d="M109.281 103.619H-238.895V110.946H109.281V103.619Z" fill="#7D7D7D"/>
</g>
</g>
<path d="M352.997 81.5723H-313.854L-324.524 91.7195H352.997V81.5723Z" fill="#B0C3D0"/>
</g>
<path d="M43.9536 60.7147C43.5472 60.7147 42.927 60.5671 42.5848 60.4618C42.2426 60.3564 41.9645 59.1341 41.9645 59.1341C41.0663 55.6778 39.8504 50.5922 39.8228 47.5264C39.8173 46.9188 39.8227 35.1191 39.8227 35.1191H40.5105H48.076V47.5264C48.076 50.693 46.6484 55.6778 45.7501 59.1341C45.7501 59.1341 45.4721 60.3564 45.1299 60.4618C44.7877 60.5671 44.1675 60.7147 43.7611 60.7147" fill="#868CA6"/>
<path opacity="0.7" d="M43.9287 60.2899C43.5651 60.2899 43.009 60.1634 42.7096 60.058C42.4102 59.9737 42.1536 58.8568 42.1536 58.8568C41.3408 55.7588 40.5165 51.1914 40.2813 48.4728C40.2812 47.074 40.2812 36.7552 40.2812 36.7552V35.7646H47.6174C47.6174 35.7646 47.7458 47.0397 47.6174 48.4728C47.3822 51.1914 46.3669 55.7377 45.5541 58.8357C45.5541 58.8357 45.2975 59.9316 44.9981 60.037C44.6986 60.1213 44.1426 60.2688 43.779 60.2688" fill="#C0C3D2"/>
<rect x="38.9058" y="35.1191" width="10.5458" height="0.904746" fill="#868CA6"/>
<rect x="39.8228" y="38.9307" width="8.25323" height="7.23798" fill="white"/>
<path d="M45.7833 36.0234H48.0758C48.0758 36.0234 48.0758 46.683 48.0758 48.0154C48.0758 49.3479 47.1588 53.5673 47.1588 53.5673C47.1588 53.5673 45.4251 60.1324 45.3248 60.2295C45.2245 60.3267 43.9492 60.4516 43.9492 60.4516L45.7833 48.0154V36.0234Z" fill="black" fill-opacity="0.1"/>
<rect opacity="0.5" width="7.24612" height="1.67623" transform="matrix(-0.326881 0.945066 -0.947174 -0.320722 54.1079 24.9297)" fill="#AFB3C5"/>
<path fill-rule="evenodd" clip-rule="evenodd" d="M51.9352 34.2424L55.7555 23.1972L54.8904 22.9043L51.0414 34.0324L51.0564 34.0375C50.8725 34.3871 50.5845 34.6581 50.272 34.8436C49.9459 35.0371 49.6263 35.1184 49.4214 35.1184V36.0231C49.826 36.0231 50.3065 35.8782 50.7425 35.6194C51.1843 35.3571 51.6136 34.9583 51.8877 34.4159C51.916 34.36 51.9315 34.3011 51.9352 34.2424Z" fill="#868CA6"/>
<path d="M58.5424 60.7147C58.1361 60.7147 57.5158 60.5671 57.1737 60.4618C56.8315 60.3564 56.5534 59.1341 56.5534 59.1341C55.6551 55.6778 54.4393 50.5922 54.4116 47.5264C54.4061 46.9188 54.4116 35.1191 54.4116 35.1191H55.0994H62.6648V47.5264C62.6648 50.693 61.2373 55.6778 60.339 59.1341C60.339 59.1341 60.0609 60.3564 59.7188 60.4618C59.3766 60.5671 58.7563 60.7147 58.35 60.7147" fill="#868CA6"/>
<path opacity="0.7" d="M58.5176 60.2899C58.154 60.2899 57.5979 60.1634 57.2985 60.058C56.9991 59.9737 56.7424 58.8568 56.7424 58.8568C55.9297 55.7588 55.1054 51.1914 54.8701 48.4728C54.8701 47.074 54.8701 36.7552 54.8701 36.7552V35.7646H62.2063C62.2063 35.7646 62.3346 47.0397 62.2063 48.4728C61.9711 51.1914 60.9557 55.7377 60.143 58.8357C60.143 58.8357 59.8864 59.9316 59.5869 60.037C59.2875 60.1213 58.7314 60.2688 58.3679 60.2688" fill="#C0C3D2"/>
<rect x="53.4946" y="35.1191" width="10.5458" height="0.904746" fill="#868CA6"/>
<rect x="54.4116" y="38.9307" width="8.25323" height="7.23798" fill="white"/>
<path d="M60.3721 36.0234H62.6647C62.6647 36.0234 62.6647 46.683 62.6647 48.0154C62.6647 49.3479 61.7477 53.5673 61.7477 53.5673C61.7477 53.5673 60.0139 60.1324 59.9136 60.2295C59.8133 60.3267 58.5381 60.4516 58.5381 60.4516L60.3721 48.0154V36.0234Z" fill="black" fill-opacity="0.1"/>
<rect opacity="0.5" width="7.24612" height="1.67623" transform="matrix(-0.326881 0.945066 -0.947174 -0.320722 68.6968 24.9297)" fill="#AFB3C5"/>
<path fill-rule="evenodd" clip-rule="evenodd" d="M66.5241 34.2424L70.3444 23.1972L69.4792 22.9043L65.6302 34.0324L65.6453 34.0375C65.4614 34.3871 65.1734 34.6581 64.8609 34.8436C64.5348 35.0371 64.2152 35.1184 64.0103 35.1184V36.0231C64.4149 36.0231 64.8954 35.8782 65.3313 35.6194C65.7731 35.3571 66.2025 34.9583 66.4766 34.4159C66.5049 34.36 66.5203 34.3011 66.5241 34.2424Z" fill="#868CA6"/>
<path d="M73.1318 60.7147C72.7254 60.7147 72.1052 60.5671 71.763 60.4618C71.4208 60.3564 71.1428 59.1341 71.1428 59.1341C70.2445 55.6778 69.0287 50.5922 69.001 47.5264C68.9955 46.9188 69.001 35.1191 69.001 35.1191H69.6887H77.2542V47.5264C77.2542 50.693 75.8266 55.6778 74.9283 59.1341C74.9283 59.1341 74.6503 60.3564 74.3081 60.4618C73.9659 60.5671 73.3457 60.7147 72.9393 60.7147" fill="#868CA6"/>
<path opacity="0.7" d="M73.1069 60.2899C72.7433 60.2899 72.1873 60.1634 71.8878 60.058C71.5884 59.9737 71.3318 58.8568 71.3318 58.8568C70.5191 55.7588 69.6947 51.1914 69.4595 48.4728C69.4595 47.074 69.4595 36.7552 69.4595 36.7552V35.7646H76.7957C76.7957 35.7646 76.924 47.0397 76.7957 48.4728C76.5604 51.1914 75.5451 55.7377 74.7324 58.8357C74.7324 58.8357 74.4757 59.9316 74.1763 60.037C73.8769 60.1213 73.3208 60.2688 72.9572 60.2688" fill="#C0C3D2"/>
<rect x="68.084" y="35.1191" width="10.5458" height="0.904746" fill="#868CA6"/>
<rect x="69.001" y="38.9307" width="8.25323" height="7.23798" fill="white"/>
<path d="M74.9615 36.0234H77.2541C77.2541 36.0234 77.2541 46.683 77.2541 48.0154C77.2541 49.3479 76.337 53.5673 76.337 53.5673C76.337 53.5673 74.6033 60.1324 74.503 60.2295C74.4027 60.3267 73.1274 60.4516 73.1274 60.4516L74.9615 48.0154V36.0234Z" fill="black" fill-opacity="0.1"/>
<rect opacity="0.5" width="7.24612" height="1.67623" transform="matrix(-0.326881 0.945066 -0.947174 -0.320722 83.2861 24.9297)" fill="#AFB3C5"/>
<path fill-rule="evenodd" clip-rule="evenodd" d="M81.1134 34.2424L84.9337 23.1972L84.0686 22.9043L80.2196 34.0324L80.2346 34.0375C80.0507 34.3871 79.7627 34.6581 79.4502 34.8436C79.1242 35.0371 78.8046 35.1184 78.5996 35.1184V36.0231C79.0043 36.0231 79.4848 35.8782 79.9207 35.6194C80.3625 35.3571 80.7919 34.9583 81.066 34.4159C81.0942 34.36 81.1097 34.3011 81.1134 34.2424Z" fill="#868CA6"/>
<path d="M87.7207 60.7147C87.3143 60.7147 86.6941 60.5671 86.3519 60.4618C86.0097 60.3564 85.7316 59.1341 85.7316 59.1341C84.8334 55.6778 83.6175 50.5922 83.5898 47.5264C83.5844 46.9188 83.5898 35.1191 83.5898 35.1191H84.2776H91.8431V47.5264C91.8431 50.693 90.4155 55.6778 89.5172 59.1341C89.5172 59.1341 89.2392 60.3564 88.897 60.4618C88.5548 60.5671 87.9345 60.7147 87.5282 60.7147" fill="#868CA6"/>
<path opacity="0.7" d="M87.6958 60.2899C87.3322 60.2899 86.7761 60.1634 86.4767 60.058C86.1773 59.9737 85.9206 58.8568 85.9206 58.8568C85.1079 55.7588 84.2836 51.1914 84.0483 48.4728C84.0483 47.074 84.0483 36.7552 84.0483 36.7552V35.7646H91.3845C91.3845 35.7646 91.5129 47.0397 91.3845 48.4728C91.1493 51.1914 90.134 55.7377 89.3212 58.8357C89.3212 58.8357 89.0646 59.9316 88.7652 60.037C88.4657 60.1213 87.9097 60.2688 87.5461 60.2688" fill="#C0C3D2"/>
<rect x="82.6729" y="35.1191" width="10.5458" height="0.904746" fill="#868CA6"/>
<rect x="83.5898" y="38.9307" width="8.25323" height="7.23798" fill="white"/>
<path d="M89.5504 36.0234H91.8429C91.8429 36.0234 91.8429 46.683 91.8429 48.0154C91.8429 49.3479 90.9259 53.5673 90.9259 53.5673C90.9259 53.5673 89.1921 60.1324 89.0918 60.2295C88.9915 60.3267 87.7163 60.4516 87.7163 60.4516L89.5504 48.0154V36.0234Z" fill="black" fill-opacity="0.1"/>
<rect opacity="0.5" width="7.24612" height="1.67623" transform="matrix(-0.326881 0.945066 -0.947174 -0.320722 97.875 24.9297)" fill="#AFB3C5"/>
<path fill-rule="evenodd" clip-rule="evenodd" d="M95.7023 34.2424L99.5226 23.1972L98.6575 22.9043L94.8084 34.0324L94.8235 34.0375C94.6396 34.3871 94.3516 34.6581 94.0391 34.8436C93.713 35.0371 93.3934 35.1184 93.1885 35.1184V36.0231C93.5931 36.0231 94.0736 35.8782 94.5096 35.6194C94.9514 35.3571 95.3807 34.9583 95.6548 34.4159C95.6831 34.36 95.6986 34.3011 95.7023 34.2424Z" fill="#868CA6"/>
<circle cx="46" cy="32" r="1" fill="#CCD8E1"/>
<circle cx="42" cy="29" r="1" fill="#CCD8E1"/>
<circle cx="45.5" cy="26.5" r="0.5" fill="#CCD8E1"/>
<circle cx="57" cy="32" r="1" fill="#CCD8E1"/>
<circle cx="62" cy="30" r="1" fill="#CCD8E1"/>
<circle cx="58.5" cy="27.5" r="0.5" fill="#CCD8E1"/>
<circle cx="73" cy="32" r="1" fill="#CCD8E1"/>
<circle cx="91" cy="33" r="1" fill="#CCD8E1"/>
<circle cx="86" cy="31" r="1" fill="#CCD8E1"/>
<circle cx="76" cy="28" r="1" fill="#CCD8E1"/>
<circle cx="73.5" cy="25.5" r="0.5" fill="#CCD8E1"/>
<circle cx="90.5" cy="28.5" r="0.5" fill="#CCD8E1"/>
<path d="M103.5 84.6592H28.1934L30.4145 90.0001H101.279L103.5 84.6592Z" fill="#CCCCCC"/>
<path d="M28.1934 47.2721H103.5L101.279 45.1357H30.4145L28.1934 47.2721Z" fill="#F7F7F7"/>
<path d="M103.5 47.2734H28.1934V84.6599H103.5V47.2734Z" fill="#EAEAEF"/>
<path d="M101.898 48.875H29.7954V83.0569H101.898V48.875Z" fill="#F7F7F7"/>
<path d="M101.898 69.9712L29.7954 52.0791V83.0564H101.898V69.9712Z" fill="#E36554"/>
<path d="M101.898 71.8402L29.7954 59.2891V83.0562H101.898V71.8402Z" fill="#C14534"/>
<path d="M98.4777 44.0138L98.2106 43.2858L97.9435 43H97.6765H97.1423H92.7763V44.0138H83.0674V43H78.2129V44.0138H68.5039V43H63.6494V44.0138H53.9405V43H49.086V44.0138H39.377V43H37.0531H36.2519H35.7178H34.9166H34.3825L33.8484 43.2858C33.3668 43.2858 33.5813 44.035 33.5813 44.7145L33.5814 46.2046H98.4777V44.4288C98.4777 43.7493 98.962 44.0138 98.4777 44.0138Z" fill="#BFB9C3"/>
<path d="M65.009 43H63.6045V44.0354H65.009V43Z" fill="#D7D1DB"/>
<path d="M94.0569 43H92.6523V44.0354H94.0569V43Z" fill="#D7D1DB"/>
<path d="M79.5339 43H78.1294V44.0354H79.5339V43Z" fill="#D7D1DB"/>
<path d="M50.4861 43H49.0815V44.0354H50.4861V43Z" fill="#D7D1DB"/>
<path d="M35.1364 43.001H33.8181C33.3674 43.001 33 43.55 33 44.2295V46.2055H34.3183V44.2295C34.3183 43.55 34.683 43.001 35.1364 43.001Z" fill="#D7D1DB"/>
<path d="M68.4455 43H67.041V44.0354H68.4455V43Z" fill="#A09BA5"/>
<path d="M39.3967 43.001H37.9922V44.0363H39.3967V43.001Z" fill="#A09BA5"/>
<path d="M53.9202 43H52.5156V44.0354H53.9202V43Z" fill="#A09BA5"/>
<path d="M82.967 43H81.5625V44.0354H82.967V43Z" fill="#A09BA5"/>
<path d="M96.5571 43H97.8754C98.3261 43 98.6935 43.549 98.6935 44.2285V46.2046H97.3752V44.2285C97.3752 43.549 97.0105 43 96.5571 43Z" fill="#A09BA5"/>
<mask id="mask1" mask-type="alpha" maskUnits="userSpaceOnUse" x="54" y="56" width="24" height="13">
<rect x="54.8979" y="56.3525" width="22.4319" height="11.75" rx="1" fill="#C4C4C4"/>
</mask>
<g mask="url(#mask1)">
<path d="M77.3303 56.3525H54.8984V68.1026H77.3303V56.3525Z" fill="#4873E2"/>
<rect x="54.8979" y="56.3545" width="22.4319" height="0.470001" fill="#254FBB"/>
<path d="M54.8979 68.1016L54.8979 56.3515L55.2782 56.3515L55.2782 67.6316L54.8979 68.1016Z" fill="#254FBB"/>
</g>
<path opacity="0.2" d="M68.7485 56.8223L55.3325 68.1023H63.9879L77.4928 56.8223H68.7485Z" fill="white"/>
<path opacity="0.2" d="M79.2231 56.8223L66.2632 68.1024H67.9981L80.5347 56.8223H79.2231Z" fill="white"/>
<mask id="mask2" mask-type="alpha" maskUnits="userSpaceOnUse" x="78" y="56" width="7" height="7">
<path d="M78.3979 56.8421C78.3979 56.5717 78.6171 56.3525 78.8875 56.3525H83.7834C84.0538 56.3525 84.273 56.5717 84.273 56.8421V61.738C84.273 62.0084 84.0538 62.2276 83.7834 62.2276H78.8875C78.6171 62.2276 78.3979 62.0084 78.3979 61.738V56.8421Z" fill="#80CCE8"/>
</mask>
<g mask="url(#mask2)">
<path d="M78.3979 56.8421C78.3979 56.5717 78.6171 56.3525 78.8875 56.3525H83.7834C84.0538 56.3525 84.273 56.5717 84.273 56.8421V61.738C84.273 62.0084 84.0538 62.2276 83.7834 62.2276H78.8875C78.6171 62.2276 78.3979 62.0084 78.3979 61.738V56.8421Z" fill="#FAAC48"/>
<path d="M78.3979 56.5973C78.3979 56.4621 78.5175 56.3525 78.665 56.3525C78.8125 56.3525 78.932 56.4621 78.932 56.5973V61.9828C78.932 62.118 78.8125 62.2276 78.665 62.2276C78.5175 62.2276 78.3979 62.118 78.3979 61.9828V56.5973Z" fill="#FFD5A0"/>
<path d="M78.8875 61.6934H84.0282C84.1634 61.6934 84.273 61.8129 84.273 61.9604C84.273 62.1079 84.1634 62.2275 84.0282 62.2275H78.3979L78.8875 61.6934Z" fill="#DD871A"/>
<path d="M84.0058 62.2275C83.8583 62.2275 83.7388 62.1179 83.7388 61.9827L83.7388 56.5973C83.7388 56.4621 83.8583 56.3525 84.0058 56.3525C84.1533 56.3525 84.2729 56.4621 84.2729 56.5973L84.2729 61.9827C84.2729 62.1179 84.1533 62.2275 84.0058 62.2275Z" fill="#DD871A"/>
<path d="M78.3979 56.6196C78.3979 56.4721 78.5075 56.3525 78.6427 56.3525H84.273L83.7834 56.8866H78.6427C78.5075 56.8866 78.3979 56.7671 78.3979 56.6196Z" fill="#FFD5A0"/>
</g>
<path fill-rule="evenodd" clip-rule="evenodd" d="M79.377 59.6952L81.3607 57.8213V58.8849L79.377 60.7588V59.6952ZM83.2936 59.6952L81.3607 57.8213V58.8849L83.2936 60.7588V59.6952Z" fill="#333333"/>
<mask id="mask3" mask-type="alpha" maskUnits="userSpaceOnUse" x="78" y="62" width="7" height="7">
<path d="M78.3979 62.7171C78.3979 62.4467 78.6171 62.2275 78.8875 62.2275H83.7834C84.0538 62.2275 84.273 62.4467 84.273 62.7171V67.613C84.273 67.8834 84.0538 68.1026 83.7834 68.1026H78.8875C78.6171 68.1026 78.3979 67.8834 78.3979 67.613V62.7171Z" fill="#80CCE8"/>
</mask>
<g mask="url(#mask3)">
<path d="M78.3979 62.7171C78.3979 62.4467 78.6171 62.2275 78.8875 62.2275H83.7834C84.0538 62.2275 84.273 62.4467 84.273 62.7171V67.613C84.273 67.8834 84.0538 68.1026 83.7834 68.1026H78.8875C78.6171 68.1026 78.3979 67.8834 78.3979 67.613V62.7171Z" fill="#FAAC48"/>
<path d="M78.3979 62.4723C78.3979 62.3371 78.5175 62.2275 78.665 62.2275C78.8125 62.2275 78.932 62.3371 78.932 62.4723V67.8578C78.932 67.993 78.8125 68.1026 78.665 68.1026C78.5175 68.1026 78.3979 67.993 78.3979 67.8578V62.4723Z" fill="#FFD5A0"/>
<path d="M78.8875 67.5684H84.0282C84.1634 67.5684 84.273 67.6879 84.273 67.8354C84.273 67.9829 84.1634 68.1025 84.0282 68.1025H78.3979L78.8875 67.5684Z" fill="#DD871A"/>
<path d="M84.0058 68.1016C83.8583 68.1016 83.7388 67.992 83.7388 67.8568L83.7388 62.4713C83.7388 62.3361 83.8583 62.2265 84.0058 62.2265C84.1533 62.2265 84.2729 62.3361 84.2729 62.4713L84.2729 67.8568C84.2729 67.992 84.1533 68.1016 84.0058 68.1016Z" fill="#DD871A"/>
<path d="M78.3979 62.4946C78.3979 62.3471 78.5075 62.2275 78.6427 62.2275H84.273L83.7834 62.7616H78.6427C78.5075 62.7616 78.3979 62.6421 78.3979 62.4946Z" fill="#FFD5A0"/>
</g>
<path fill-rule="evenodd" clip-rule="evenodd" d="M83.2939 64.8917L81.3102 66.7656L81.3102 65.702L83.2939 63.8281L83.2939 64.8917ZM79.3773 64.8917L81.3102 66.7656L81.3102 65.702L79.3773 63.8281L79.3773 64.8917Z" fill="#333333"/>
<mask id="mask4" mask-type="alpha" maskUnits="userSpaceOnUse" x="56" y="71" width="20" height="8">
<rect x="56.5005" y="71.8398" width="19.2273" height="6.4091" rx="1" fill="#FAAC48"/>
</mask>
<g mask="url(#mask4)">
<rect x="56.5005" y="71.8398" width="19.2273" height="6.4091" rx="1" fill="#FAAC48"/>
<path d="M56.5005 72.1312C56.5005 71.9703 56.6309 71.8398 56.7918 71.8398H75.1452C75.4669 71.8398 75.7278 72.1007 75.7278 72.4225H56.7918C56.6309 72.4225 56.5005 72.2921 56.5005 72.1312Z" fill="#FFD5A0"/>
<path d="M75.7275 77.9577C75.7275 78.1186 75.5971 78.249 75.4362 78.249L57.0829 78.249C56.7611 78.249 56.5002 77.9882 56.5002 77.6664L75.4362 77.6664C75.5971 77.6664 75.7275 77.7968 75.7275 77.9577Z" fill="#DD871A"/>
<path d="M56.7675 71.8398C56.62 71.8398 56.5005 71.9594 56.5005 72.1069L56.5005 78.2489L57.0346 77.6663L57.0346 72.1069C57.0346 71.9594 56.915 71.8398 56.7675 71.8398Z" fill="#FFD5A0"/>
<path d="M75.4605 78.249C75.608 78.249 75.7275 78.1295 75.7275 77.982L75.7275 71.8399L75.1934 72.4226L75.1934 77.982C75.1934 78.1295 75.313 78.249 75.4605 78.249Z" fill="#DD871A"/>
</g>
<path d="M63.6118 76.1129C64.0674 76.1129 64.2967 75.9126 64.2967 75.509C64.2967 75.1328 64.119 74.9628 63.649 74.8991C63.3195 74.8536 63.1991 74.7565 63.1991 74.5501C63.1991 74.3407 63.3453 74.2254 63.6118 74.2254C63.8812 74.2254 64.0101 74.3407 64.0101 74.5805H64.268C64.268 74.1768 64.0502 73.9766 63.6204 73.9766C63.1819 73.9766 62.9441 74.1829 62.9441 74.5774C62.9441 74.9325 63.1103 75.0933 63.5573 75.157C63.9155 75.2086 64.0416 75.3118 64.0416 75.5333C64.0416 75.7518 63.8984 75.8641 63.6146 75.8641C63.3195 75.8641 63.1676 75.7397 63.1676 75.4908H62.9097C62.9097 75.9066 63.1475 76.1129 63.6118 76.1129Z" fill="#333333"/>
<path d="M65.1233 76.0765H65.3525V75.8459H65.1834C65.0144 75.8459 64.9714 75.7943 64.9714 75.591V74.7291H65.3353V74.5107H64.9714V74.0979H64.745L64.7249 74.5107H64.4641V74.7291H64.7192V75.5879C64.7192 75.9309 64.8396 76.0765 65.1233 76.0765Z" fill="#333333"/>
<path d="M66.0506 76.1129C66.2655 76.1129 66.4317 76.0249 66.5521 75.8641L66.5607 76.0765H66.7756V75.0539C66.7756 74.6654 66.5865 74.4742 66.1967 74.4742C65.8271 74.4742 65.6265 74.6472 65.6007 74.9871H65.8471C65.8557 74.7959 65.9789 74.7049 66.1881 74.7049C66.4174 74.7049 66.5234 74.8172 66.5234 75.0599V75.1449H66.1681C65.7525 75.1449 65.5577 75.3209 65.5577 75.6335C65.5577 75.94 65.7468 76.1129 66.0506 76.1129ZM66.0878 75.8823C65.9016 75.8823 65.8099 75.7913 65.8099 75.6274C65.8099 75.4514 65.9188 75.3664 66.1767 75.3664H66.5234V75.5879C66.4346 75.7791 66.2856 75.8823 66.0878 75.8823Z" fill="#333333"/>
<path d="M67.2199 76.0765H67.472V75.1752C67.5208 74.8748 67.6555 74.7443 67.8962 74.7443H67.9707V74.4803H67.8704C67.6555 74.4803 67.5208 74.5805 67.4463 74.802L67.4348 74.5107H67.2199V76.0765Z" fill="#333333"/>
<path d="M68.7335 76.0765H68.9627V75.8459H68.7936C68.6246 75.8459 68.5816 75.7943 68.5816 75.591V74.7291H68.9455V74.5107H68.5816V74.0979H68.3552L68.3351 74.5107H68.0743V74.7291H68.3294V75.5879C68.3294 75.9309 68.4497 76.0765 68.7335 76.0765Z" fill="#333333"/>
<defs>
<linearGradient id="paint0_linear" x1="55" y1="-330" x2="55" y2="299.729" gradientUnits="userSpaceOnUse">
<stop stop-color="#005C8C"/>
<stop offset="1" stop-color="#003754"/>
</linearGradient>
<clipPath id="clip0">
<rect width="205" height="132" fill="white"/>
</clipPath>
</defs>
</svg>
