<svg xmlns="http://www.w3.org/2000/svg" width="132" height="100" fill="none" viewBox="0 0 132 100">
    <mask id="a" width="132" height="100" x="0" y="0" maskUnits="userSpaceOnUse">
        <path fill="#003E6B" stroke="#668BA6" d="M.5 5A4.5 4.5 0 0 1 5 .5h126.5v99H5A4.5 4.5 0 0 1 .5 95V5z"/>
    </mask>
    <g mask="url(#a)">
        <g clip-path="url(#b)">
            <path fill="#336589" d="M-139-96h500.076v322H-139z"/>
            <path fill="#C4C4C4" d="M109.868 110.33L32.243 70.862l-207.13 132.473 86.597 46.112L109.868 110.33z" opacity=".3"/>
            <path fill="#AAA" d="M22.491-146.801L400.864 16.544l-26.525 143.024L137.953 53.277l-28.085 57.053-77.235-39.078L22.491-146.8z" opacity=".1"/>
            <path fill="#D0D0D0" d="M109.868 109.549l30.035-57.054L-46.68 177.153l-2.213 1.563-44.468 74.638 203.229-143.805z" opacity=".2"/>
            <path fill="#C4C4C4" fill-opacity=".3" d="M139.513 53.277L-46.162 177.153l1.56.391L67.35 229.517l330.393 27.745-18.724-95.349L139.513 53.277z"/>
            <path fill="#fff" fill-opacity=".1" d="M23.271-138.986l9.362 209.847L-139.39 180.67l-21.454 6.252v-226.65l184.115-99.258z"/>
            <path stroke="#F2F2F2" stroke-opacity=".3" stroke-width="6" d="M368.878 4.039L80.222-123.354l-134.965 25.01-93.618 52.363-6.242 14.068-12.482 14.85"/>
            <path fill="#B2D3DC" d="M407.885 177.035L138.822 52.042-38.83 175.478l-.31-.208 217.773 101.323 67.835.208h161.417v-99.766z" opacity=".4"/>
            <path fill="#B2D3DC" d="M251.855 276.697L-39.141 138.466 138.822 14.98l269.063 124.993v136.724h-156.03z" opacity=".8"/>
            <path fill="#376B79" d="M89.584 58.357l49.149-33.998v32.825L89.584 91.182V58.357z" opacity=".5"/>
            <path fill="#2E5D6B" d="M155.117 64.218l-16.383-7.034-49.54 34.389 15.993 7.034 49.93-34.389z" opacity=".7"/>
            <path fill="#376B79" d="M33.413 98.216l49.15-33.998v32.825l-49.15 33.998V98.216z" opacity=".5"/>
            <path fill="#2E5D6B" d="M98.946 71.252l-16.383-7.034v32.825l16.383 7.034V71.252z" opacity=".6"/>
            <path fill="#2E5D6B" d="M98.946 104.077l-16.383-7.034-49.15 33.998 15.603 7.425 49.93-34.389z" opacity=".7"/>
            <path fill="#00AEEF" fill-opacity=".3" d="M389.941 113.456L28.731-50.67l-180.994 98.476v190.699l70.604-5.08s31.986-53.927 32.766-54.709c.78-.782 2.34-1.954 3.51-1.563 1.171.391 120.144 56.272 120.144 56.272l300.357 5.08 14.823-125.049z"/>
            <path fill="#00AEEF" fill-opacity=".3" d="M272.139 233.816L-149.922 48.587l-13.263 185.229h81.136s31.986-52.755 32.766-54.709c.78-1.954 3.12-2.345 4.681-1.563 1.56.781 107.27 50.019 107.27 50.019l209.471 6.253z"/>
        </g>
        <g clip-path="url(#c)">
            <path fill="#F7EFC7" fill-rule="evenodd" d="M53.66-70h24.68l-1.372 47.547h-1.505L74.226 2.719H72.75L68.742 109.01l-5.484-.009L59.25 2.719h-1.477L56.54-22.453h-1.508L53.661-70z" clip-rule="evenodd" opacity=".8"/>
            <path fill="#F7EFC7" d="M52.531-25.175l27.421-.154-.59 27.973-25.94.145-.89-27.964z" opacity=".8"/>
            <path fill="#F7EFC7" d="M58.15-.034l16.453-.092-4.897 109.107-5.485.03L58.151-.034z" opacity=".8"/>
            <path fill="#F7EFC7" d="M64.63 109.004L59.16-67.166l-5.484.03-1.387 176.163 12.34-.023zM67.371 108.988l5.5-176.23 5.484-.032 1.356 176.262H67.37z"/>
            <path fill="#333" fill-rule="evenodd" d="M79.712-64.406l-27.422.003.031 2.87 27.39-.08v-2.793zM52.964-22.378l24.261-.139-.069 2.795-24.595.14.403-2.796zm5.476 25.14l15.904-.09-.04 2.795-16.123.092.259-2.796z" clip-rule="evenodd" opacity=".2"/>
            <path fill="#E00000" d="M70.387 11.11h-8.775L64.63 109h2.742l3.016-97.89z" opacity=".7"/>
        </g>
        <path fill="#A0C4CE" d="M33 98.136l15.603 7.034v32.825L43.5 135.5V109L33 105.17v-7.034z" opacity=".5"/>
        <path fill="#8DC8D9" d="M48.603 106.17L99 71.5V104l-50.397 34.995V106.17z" opacity=".5"/>
        <path fill="url(#d)" d="M148-18H-21v136h169V-18z"/>
        <path stroke="#FAAC48" stroke-width="2" d="M38.615 78.352a7.935 7.935 0 0 0-4.187-6.989v-49.94c0-2.09-1.701-3.777-3.79-3.777a3.783 3.783 0 0 0-3.79 3.777v49.943a7.936 7.936 0 0 0-4.178 6.986c0 4.389 3.572 7.943 7.972 7.943 4.398 0 7.973-3.554 7.973-7.943z"/>
        <path fill="#A41034" d="M33.428 71.989V39.702h-5.58V71.99c-2.46 1.072-4.178 3.517-4.178 6.361 0 3.833 3.121 6.943 6.972 6.943 3.85 0 6.973-3.11 6.973-6.943 0-2.846-1.723-5.293-4.187-6.363z"/>
        <path stroke="#FBFBFB" stroke-linecap="round" stroke-width="2" d="M27.852 69.7h5.577-5.577zM27.852 63.7h5.577-5.577zM27.852 57.702h5.577-5.577zM27.852 51.702h5.577-5.577zM27.852 45.702h5.577-5.577zM27.852 39.702h5.577-5.577zM27.852 33.702h5.577-5.577zM27.852 27.702h5.577-5.577zM27.854 21.701h5.576-5.576z"/>
        <path fill="#fff" d="M66.43 57.448v-2.145c0-2.613-.78-4.641-2.652-5.694 1.755-.975 2.652-2.808 2.652-5.499v-.858c0-4.368-2.379-6.864-6.708-6.864-4.329 0-6.708 2.496-6.708 6.864v.858c0 2.691.858 4.524 2.652 5.499-1.872 1.053-2.652 3.081-2.652 5.694v2.145c0 4.368 2.379 6.864 6.708 6.864 4.329 0 6.708-2.496 6.708-6.864zm-9.126-.117v-2.535c0-2.145.897-3.081 2.418-3.081 1.521 0 2.418.936 2.418 3.081v2.535c-.039 2.418-1.053 3.081-2.418 3.081-1.365 0-2.418-.663-2.418-3.081zm0-13.923c0-2.457 1.053-3.12 2.418-3.12 1.365 0 2.418.663 2.418 3.12v1.521c0 2.184-1.053 2.886-2.418 2.886-1.404 0-2.418-.702-2.418-2.886v-1.521zm17.658-.429c0-1.95.858-2.691 2.223-2.691 1.365 0 2.223.741 2.223 2.691v14.742c0 1.95-.858 2.691-2.223 2.691-1.365 0-2.223-.741-2.223-2.691V42.979zm-4.29 14.469c0 4.368 2.3 6.864 6.513 6.864 4.212 0 6.513-2.496 6.513-6.864V43.252c0-4.368-2.301-6.864-6.513-6.864s-6.513 2.496-6.513 6.864v14.196zM87.51 40.249a3.845 3.845 0 0 0 3.86 3.861 3.845 3.845 0 0 0 3.862-3.861 3.845 3.845 0 0 0-3.861-3.861 3.845 3.845 0 0 0-3.861 3.861zm1.95 0c0-1.053.858-1.911 1.91-1.911 1.054 0 1.912.858 1.912 1.911a1.914 1.914 0 0 1-1.911 1.911 1.914 1.914 0 0 1-1.911-1.911zm14.189.351h7.059v-3.9h-11.35V64h4.291V52.729h5.538v-3.9h-5.538V40.6z"/>
    </g>
    <defs>
        <linearGradient id="d" x1="63.5" x2="63.5" y1="-18" y2="118" gradientUnits="userSpaceOnUse">
            <stop stop-color="#005C8C"/>
            <stop offset="1" stop-color="#003754"/>
        </linearGradient>
        <clipPath id="b">
            <path fill="#fff" d="M0 0h500.076v322H0z" transform="translate(-139 -96)"/>
        </clipPath>
        <clipPath id="c">
            <path fill="#fff" d="M0 0h27.421v179H0z" transform="translate(52.29 -70)"/>
        </clipPath>
    </defs>
</svg>
