<svg width="133" height="105" viewBox="0 0 133 105" fill="none" xmlns="http://www.w3.org/2000/svg">
<mask id="mask0" mask-type="alpha" maskUnits="userSpaceOnUse" x="0" y="0" width="133" height="105">
<path d="M5.32471 1.31836H131.825V104.318H5.32471C2.83943 104.318 0.824707 102.304 0.824707 99.8184V5.81836C0.824707 3.33308 2.83943 1.31836 5.32471 1.31836Z" fill="#003E6B" stroke="#668BA6"/>
</mask>
<g mask="url(#mask0)">
<g clip-path="url(#clip0)">
<rect width="205" height="132" transform="translate(0.324707 0.818359)" fill="#336589"/>
<path opacity="0.3" d="M102.345 85.4013L70.5236 69.2217L-14.3867 123.527L21.1125 142.43L102.345 85.4013Z" fill="#C4C4C4"/>
<path opacity="0.1" d="M66.5259 -20.0068L221.635 46.9543L210.761 105.585L113.858 62.0126L102.345 85.4009L70.6834 69.3815L66.5259 -20.0068Z" fill="#AAAAAA"/>
<path opacity="0.2" d="M102.345 85.0807L114.658 61.6924L38.17 112.794L37.263 113.435L19.0337 144.032L102.345 85.0807Z" fill="#D0D0D0"/>
<path d="M114.498 62.0127L38.3823 112.794L39.0219 112.954L84.9151 134.26L220.356 145.634L212.68 106.547L114.498 62.0127Z" fill="#C4C4C4" fill-opacity="0.3"/>
<path d="M66.8459 -16.8027L70.6837 69.2215L0.164969 114.236L-8.62988 116.799V23.8866L66.8459 -16.8027Z" fill="white" fill-opacity="0.1"/>
<path d="M208.523 41.8278L90.1922 -10.3955L34.8646 -0.143081L-3.51297 21.3229L-6.07147 27.0899L-11.1885 33.1773" stroke="#F2F2F2" stroke-opacity="0.3" stroke-width="6"/>
<path opacity="0.4" d="M224.513 112.746L114.214 61.5068L41.3879 112.108L41.2607 112.023L130.534 153.559L158.342 153.644H224.513V112.746Z" fill="#B2D3DC"/>
<path opacity="0.8" d="M160.551 153.601L41.2607 96.9348L114.214 46.3135L224.513 97.5528V153.601H160.551Z" fill="#B2D3DC"/>
<path opacity="0.2" d="M224.514 112.746L114.214 61.5065V46.3135L224.514 97.5528V112.746Z" fill="#B2D3DC"/>
<path opacity="0.5" d="M130.648 153.643L41.2607 112.153V96.9346L160.231 153.483L130.648 153.643Z" fill="#B2D3DC"/>
<path opacity="0.5" d="M94.0298 64.0951L114.178 50.1582V63.6145L94.0298 77.5514V64.0951Z" fill="#376B79"/>
<path opacity="0.6" d="M120.894 53.0417L114.178 50.1582V63.6145L120.894 66.498V53.0417Z" fill="#2E5D6B"/>
<path opacity="0.7" d="M120.894 66.4978L114.178 63.6143L93.8701 77.7114L100.426 80.5948L120.894 66.4978Z" fill="#2E5D6B"/>
<path opacity="0.5" d="M71.0034 80.4349L91.1516 66.498V79.9544L71.0034 93.8913V80.4349Z" fill="#376B79"/>
<path opacity="0.6" d="M97.8679 69.3815L91.1519 66.498V79.9544L97.8679 82.8379V69.3815Z" fill="#2E5D6B"/>
<path opacity="0.7" d="M97.8677 82.8376L91.1516 79.9541L71.0034 93.891L77.3997 96.9347L97.8677 82.8376Z" fill="#2E5D6B"/>
<path opacity="0.5" d="M48.2964 96.1342L68.4446 82.1973V95.6536L48.2964 109.751V96.1342Z" fill="#376B79"/>
<path opacity="0.6" d="M75.1609 85.0808L68.4448 82.1973V95.6536L75.1609 98.5371V85.0808Z" fill="#2E5D6B"/>
<path opacity="0.7" d="M75.1607 98.5368L68.4446 95.6533L48.2964 109.75L54.6926 112.634L75.1607 98.5368Z" fill="#2E5D6B"/>
<path d="M217.158 86.6829L69.0848 19.4014L-5.11182 59.7703V137.945L23.8312 135.863C23.8312 135.863 36.9436 113.756 37.2634 113.435C37.5832 113.115 38.2228 112.634 38.7025 112.795C39.1823 112.955 87.9537 135.863 87.9537 135.863L211.082 137.945L217.158 86.6829Z" fill="#00AEEF" fill-opacity="0.3"/>
<path d="M168.866 136.023L-4.15254 60.0908L-9.58936 136.023H23.6712C23.6712 136.023 36.7835 114.397 37.1033 113.596C37.4231 112.795 38.3826 112.635 39.0222 112.955C39.6618 113.275 82.9965 133.46 82.9965 133.46L168.866 136.023Z" fill="#00AEEF" fill-opacity="0.3"/>
</g>
<path d="M447.325 -329.182H-336.675V300.547H447.325V-329.182Z" fill="url(#paint0_linear)"/>
<path d="M-312.649 93.167V263.877H-202.547V144.386H347.051V263.877H353.751V93.167H-312.649Z" fill="#668BA6"/>
<path d="M353.322 92.5381H-324.199V104.437H353.322V92.5381Z" fill="#99B2C4"/>
<g opacity="0.2">
<g opacity="0.2">
<path opacity="0.2" d="M109.606 104.438H-238.57V111.765H109.606V104.438Z" fill="#7D7D7D"/>
</g>
</g>
<path d="M353.322 82.3906H-313.53L-324.199 92.5379H353.322V82.3906Z" fill="#B0C3D0"/>
</g>
<path d="M44.2783 61.533C43.8719 61.533 43.2517 61.3855 42.9095 61.2801C42.5673 61.1748 42.2893 59.9524 42.2893 59.9524C41.391 56.4961 40.1752 51.4105 40.1475 48.3447C40.142 47.7372 40.1474 35.9375 40.1474 35.9375H40.8352H48.4007V48.3447C48.4007 51.5114 46.9731 56.4961 46.0748 59.9524C46.0748 59.9524 45.7968 61.1748 45.4546 61.2801C45.1124 61.3855 44.4922 61.533 44.0858 61.533" fill="#868CA6"/>
<path opacity="0.7" d="M44.2534 61.1082C43.8898 61.1082 43.3338 60.9818 43.0343 60.8764C42.7349 60.7921 42.4783 59.6751 42.4783 59.6751C41.6655 56.5771 40.8412 52.0098 40.606 49.2911C40.606 47.8923 40.606 37.5735 40.606 37.5735V36.583H47.9422C47.9422 36.583 48.0705 47.858 47.9422 49.2911C47.7069 52.0098 46.6916 56.5561 45.8788 59.6541C45.8788 59.6541 45.6222 60.7499 45.3228 60.8553C45.0234 60.9396 44.4673 61.0871 44.1037 61.0871" fill="#C0C3D2"/>
<rect x="39.2305" y="35.9375" width="10.5458" height="0.904746" fill="#868CA6"/>
<rect x="40.1475" y="39.749" width="8.25323" height="7.23798" fill="white"/>
<path d="M46.108 36.8418H48.4005C48.4005 36.8418 48.4005 47.5014 48.4005 48.8338C48.4005 50.1662 47.4835 54.3857 47.4835 54.3857C47.4835 54.3857 45.7498 60.9507 45.6495 61.0479C45.5492 61.1451 44.2739 61.27 44.2739 61.27L46.108 48.8338V36.8418Z" fill="black" fill-opacity="0.1"/>
<rect opacity="0.5" width="7.24612" height="1.67623" transform="matrix(-0.326881 0.945066 -0.947174 -0.320722 54.4326 25.748)" fill="#AFB3C5"/>
<path fill-rule="evenodd" clip-rule="evenodd" d="M52.2599 35.0607L56.0802 24.0156L55.2151 23.7227L51.3661 34.8508L51.3811 34.8558C51.1972 35.2055 50.9092 35.4764 50.5967 35.6619C50.2707 35.8555 49.9511 35.9367 49.7461 35.9367V36.8415C50.1507 36.8415 50.6313 36.6965 51.0672 36.4377C51.509 36.1755 51.9384 35.7767 52.2125 35.2343C52.2407 35.1784 52.2562 35.1194 52.2599 35.0607Z" fill="#868CA6"/>
<path d="M58.8672 61.533C58.4608 61.533 57.8406 61.3855 57.4984 61.2801C57.1562 61.1748 56.8781 59.9524 56.8781 59.9524C55.9799 56.4961 54.764 51.4105 54.7363 48.3447C54.7308 47.7372 54.7363 35.9375 54.7363 35.9375H55.4241H62.9895V48.3447C62.9895 51.5114 61.562 56.4961 60.6637 59.9524C60.6637 59.9524 60.3857 61.1748 60.0435 61.2801C59.7013 61.3855 59.081 61.533 58.6747 61.533" fill="#868CA6"/>
<path opacity="0.7" d="M58.8423 61.1082C58.4787 61.1082 57.9226 60.9818 57.6232 60.8764C57.3238 60.7921 57.0671 59.6751 57.0671 59.6751C56.2544 56.5771 55.4301 52.0098 55.1948 49.2911C55.1948 47.8923 55.1948 37.5735 55.1948 37.5735V36.583H62.531C62.531 36.583 62.6593 47.858 62.531 49.2911C62.2958 52.0098 61.2804 56.5561 60.4677 59.6541C60.4677 59.6541 60.2111 60.7499 59.9116 60.8553C59.6122 60.9396 59.0562 61.0871 58.6926 61.0871" fill="#C0C3D2"/>
<rect x="53.8193" y="35.9375" width="10.5458" height="0.904746" fill="#868CA6"/>
<rect x="54.7363" y="39.749" width="8.25323" height="7.23798" fill="white"/>
<path d="M60.6968 36.8418H62.9894C62.9894 36.8418 62.9894 47.5014 62.9894 48.8338C62.9894 50.1662 62.0724 54.3857 62.0724 54.3857C62.0724 54.3857 60.3386 60.9507 60.2383 61.0479C60.138 61.1451 58.8628 61.27 58.8628 61.27L60.6968 48.8338V36.8418Z" fill="black" fill-opacity="0.1"/>
<rect opacity="0.5" width="7.24612" height="1.67623" transform="matrix(-0.326881 0.945066 -0.947174 -0.320722 69.0215 25.748)" fill="#AFB3C5"/>
<path fill-rule="evenodd" clip-rule="evenodd" d="M66.8488 35.0607L70.6691 24.0156L69.8039 23.7227L65.9549 34.8508L65.97 34.8558C65.7861 35.2055 65.4981 35.4764 65.1856 35.6619C64.8595 35.8555 64.5399 35.9367 64.335 35.9367V36.8415C64.7396 36.8415 65.2201 36.6965 65.6561 36.4377C66.0978 36.1755 66.5272 35.7767 66.8013 35.2343C66.8296 35.1784 66.845 35.1194 66.8488 35.0607Z" fill="#868CA6"/>
<path d="M73.4565 61.533C73.0501 61.533 72.4299 61.3855 72.0877 61.2801C71.7455 61.1748 71.4675 59.9524 71.4675 59.9524C70.5692 56.4961 69.3534 51.4105 69.3257 48.3447C69.3202 47.7372 69.3257 35.9375 69.3257 35.9375H70.0134H77.5789V48.3447C77.5789 51.5114 76.1513 56.4961 75.253 59.9524C75.253 59.9524 74.975 61.1748 74.6328 61.2801C74.2906 61.3855 73.6704 61.533 73.264 61.533" fill="#868CA6"/>
<path opacity="0.7" d="M73.4316 61.1082C73.068 61.1082 72.512 60.9818 72.2126 60.8764C71.9131 60.7921 71.6565 59.6751 71.6565 59.6751C70.8438 56.5771 70.0194 52.0098 69.7842 49.2911C69.7842 47.8923 69.7842 37.5735 69.7842 37.5735V36.583H77.1204C77.1204 36.583 77.2487 47.858 77.1204 49.2911C76.8851 52.0098 75.8698 56.5561 75.0571 59.6541C75.0571 59.6541 74.8004 60.7499 74.501 60.8553C74.2016 60.9396 73.6455 61.0871 73.2819 61.0871" fill="#C0C3D2"/>
<rect x="68.4087" y="35.9375" width="10.5458" height="0.904746" fill="#868CA6"/>
<rect x="69.3257" y="39.749" width="8.25323" height="7.23798" fill="white"/>
<path d="M75.2862 36.8418H77.5788C77.5788 36.8418 77.5788 47.5014 77.5788 48.8338C77.5788 50.1662 76.6617 54.3857 76.6617 54.3857C76.6617 54.3857 74.928 60.9507 74.8277 61.0479C74.7274 61.1451 73.4521 61.27 73.4521 61.27L75.2862 48.8338V36.8418Z" fill="black" fill-opacity="0.1"/>
<rect opacity="0.5" width="7.24612" height="1.67623" transform="matrix(-0.326881 0.945066 -0.947174 -0.320722 83.6108 25.748)" fill="#AFB3C5"/>
<path fill-rule="evenodd" clip-rule="evenodd" d="M81.4381 35.0607L85.2584 24.0156L84.3933 23.7227L80.5443 34.8508L80.5593 34.8558C80.3754 35.2055 80.0874 35.4764 79.7749 35.6619C79.4489 35.8555 79.1293 35.9367 78.9243 35.9367V36.8415C79.329 36.8415 79.8095 36.6965 80.2454 36.4377C80.6872 36.1755 81.1166 35.7767 81.3907 35.2343C81.4189 35.1784 81.4344 35.1194 81.4381 35.0607Z" fill="#868CA6"/>
<path d="M88.0454 61.533C87.639 61.533 87.0188 61.3855 86.6766 61.2801C86.3344 61.1748 86.0563 59.9524 86.0563 59.9524C85.1581 56.4961 83.9422 51.4105 83.9145 48.3447C83.9091 47.7372 83.9145 35.9375 83.9145 35.9375H84.6023H92.1678V48.3447C92.1678 51.5114 90.7402 56.4961 89.8419 59.9524C89.8419 59.9524 89.5639 61.1748 89.2217 61.2801C88.8795 61.3855 88.2592 61.533 87.8529 61.533" fill="#868CA6"/>
<path opacity="0.7" d="M88.0205 61.1082C87.6569 61.1082 87.1008 60.9818 86.8014 60.8764C86.502 60.7921 86.2453 59.6751 86.2453 59.6751C85.4326 56.5771 84.6083 52.0098 84.373 49.2911C84.373 47.8923 84.373 37.5735 84.373 37.5735V36.583H91.7092C91.7092 36.583 91.8376 47.858 91.7092 49.2911C91.474 52.0098 90.4587 56.5561 89.6459 59.6541C89.6459 59.6541 89.3893 60.7499 89.0899 60.8553C88.7904 60.9396 88.2344 61.0871 87.8708 61.0871" fill="#C0C3D2"/>
<rect x="82.9976" y="35.9375" width="10.5458" height="0.904746" fill="#868CA6"/>
<rect x="83.9146" y="39.749" width="8.25323" height="7.23798" fill="white"/>
<path d="M89.8751 36.8418H92.1676C92.1676 36.8418 92.1676 47.5014 92.1676 48.8338C92.1676 50.1662 91.2506 54.3857 91.2506 54.3857C91.2506 54.3857 89.5169 60.9507 89.4166 61.0479C89.3162 61.1451 88.041 61.27 88.041 61.27L89.8751 48.8338V36.8418Z" fill="black" fill-opacity="0.1"/>
<rect opacity="0.5" width="7.24612" height="1.67623" transform="matrix(-0.326881 0.945066 -0.947174 -0.320722 98.1997 25.748)" fill="#AFB3C5"/>
<path fill-rule="evenodd" clip-rule="evenodd" d="M96.027 35.0607L99.8473 24.0156L98.9822 23.7227L95.1332 34.8508L95.1482 34.8558C94.9643 35.2055 94.6763 35.4764 94.3638 35.6619C94.0377 35.8555 93.7181 35.9367 93.5132 35.9367V36.8415C93.9178 36.8415 94.3983 36.6965 94.8343 36.4377C95.2761 36.1755 95.7054 35.7767 95.9795 35.2343C96.0078 35.1784 96.0233 35.1194 96.027 35.0607Z" fill="#868CA6"/>
<circle cx="46.3247" cy="32.8184" r="1" fill="#CCD8E1"/>
<circle cx="42.3247" cy="29.8184" r="1" fill="#CCD8E1"/>
<circle cx="45.8247" cy="27.3184" r="0.5" fill="#CCD8E1"/>
<circle cx="57.3247" cy="32.8184" r="1" fill="#CCD8E1"/>
<circle cx="62.3247" cy="30.8184" r="1" fill="#CCD8E1"/>
<circle cx="58.8247" cy="28.3184" r="0.5" fill="#CCD8E1"/>
<circle cx="73.3247" cy="32.8184" r="1" fill="#CCD8E1"/>
<circle cx="91.3247" cy="33.8184" r="1" fill="#CCD8E1"/>
<circle cx="86.3247" cy="31.8184" r="1" fill="#CCD8E1"/>
<circle cx="76.3247" cy="28.8184" r="1" fill="#CCD8E1"/>
<circle cx="73.8247" cy="26.3184" r="0.5" fill="#CCD8E1"/>
<circle cx="90.8247" cy="29.3184" r="0.5" fill="#CCD8E1"/>
<path d="M103.825 85.4775H28.5181L30.7392 90.8185H101.604L103.825 85.4775Z" fill="#CCCCCC"/>
<path d="M28.5181 48.0905H103.825L101.604 45.9541H30.7392L28.5181 48.0905Z" fill="#F7F7F7"/>
<path d="M103.825 48.0918H28.5181V85.4782H103.825V48.0918Z" fill="#EAEAEF"/>
<path d="M102.223 49.6934H30.1201V83.8753H102.223V49.6934Z" fill="#F7F7F7"/>
<path d="M102.223 70.7895L30.1201 52.8975V83.8748H102.223V70.7895Z" fill="#E36554"/>
<path d="M102.223 72.6586L30.1201 60.1074V83.8745H102.223V72.6586Z" fill="#C14534"/>
<path d="M98.8024 44.8322L98.5353 44.1041L98.2682 43.8184H98.0012H97.4671H93.101V44.8322H83.3921V43.8184H78.5376V44.8322H68.8286V43.8184H63.9741V44.8322H54.2652V43.8184H49.4107V44.8322H39.7017V43.8184H37.3778H36.5766H36.0425H35.2413H34.7072L34.1731 44.1041C33.6915 44.1041 33.906 44.8534 33.906 45.5329L33.9061 47.0229H98.8024V45.2471C98.8024 44.5676 99.2867 44.8322 98.8024 44.8322Z" fill="#BFB9C3"/>
<path d="M65.3337 43.8184H63.9292V44.8537H65.3337V43.8184Z" fill="#D7D1DB"/>
<path d="M94.3816 43.8184H92.9771V44.8537H94.3816V43.8184Z" fill="#D7D1DB"/>
<path d="M79.8586 43.8184H78.4541V44.8537H79.8586V43.8184Z" fill="#D7D1DB"/>
<path d="M50.8108 43.8184H49.4062V44.8537H50.8108V43.8184Z" fill="#D7D1DB"/>
<path d="M35.4611 43.8193H34.1428C33.6921 43.8193 33.3247 44.3684 33.3247 45.0479V47.0239H34.643V45.0479C34.643 44.3684 35.0077 43.8193 35.4611 43.8193Z" fill="#D7D1DB"/>
<path d="M68.7702 43.8184H67.3657V44.8537H68.7702V43.8184Z" fill="#A09BA5"/>
<path d="M39.7214 43.8193H38.3169V44.8547H39.7214V43.8193Z" fill="#A09BA5"/>
<path d="M54.2449 43.8184H52.8403V44.8537H54.2449V43.8184Z" fill="#A09BA5"/>
<path d="M83.2917 43.8184H81.8872V44.8537H83.2917V43.8184Z" fill="#A09BA5"/>
<path d="M96.8818 43.8184H98.2001C98.6509 43.8184 99.0182 44.3674 99.0182 45.0469V47.0229H97.6999V45.0469C97.6999 44.3674 97.3352 43.8184 96.8818 43.8184Z" fill="#A09BA5"/>
<mask id="mask1" mask-type="alpha" maskUnits="userSpaceOnUse" x="55" y="57" width="23" height="12">
<rect x="55.2227" y="57.1709" width="22.4319" height="11.75" rx="1" fill="#C4C4C4"/>
</mask>
<g mask="url(#mask1)">
<path d="M77.655 57.1709H55.2231V68.9209H77.655V57.1709Z" fill="#4873E2"/>
<rect x="55.2227" y="57.1729" width="22.4319" height="0.470001" fill="#254FBB"/>
<path d="M55.2227 68.9199L55.2227 57.1699L55.6029 57.1699L55.6029 68.4499L55.2227 68.9199Z" fill="#254FBB"/>
</g>
<path opacity="0.2" d="M69.0732 57.6406L55.6572 68.9207H64.3126L77.8175 57.6406H69.0732Z" fill="white"/>
<path opacity="0.2" d="M79.5478 57.6406L66.5879 68.9207H68.3228L80.8594 57.6406H79.5478Z" fill="white"/>
<mask id="mask2" mask-type="alpha" maskUnits="userSpaceOnUse" x="78" y="57" width="7" height="7">
<path d="M78.7227 57.6605C78.7227 57.3901 78.9419 57.1709 79.2122 57.1709H84.1081C84.3785 57.1709 84.5977 57.3901 84.5977 57.6605V62.5563C84.5977 62.8267 84.3785 63.0459 84.1081 63.0459H79.2122C78.9419 63.0459 78.7227 62.8267 78.7227 62.5563V57.6605Z" fill="#80CCE8"/>
</mask>
<g mask="url(#mask2)">
<path d="M78.7227 57.6605C78.7227 57.3901 78.9419 57.1709 79.2122 57.1709H84.1081C84.3785 57.1709 84.5977 57.3901 84.5977 57.6605V62.5563C84.5977 62.8267 84.3785 63.0459 84.1081 63.0459H79.2122C78.9419 63.0459 78.7227 62.8267 78.7227 62.5563V57.6605Z" fill="#FAAC48"/>
<path d="M78.7227 57.4157C78.7227 57.2805 78.8422 57.1709 78.9897 57.1709V57.1709C79.1372 57.1709 79.2567 57.2805 79.2567 57.4157V62.8011C79.2567 62.9363 79.1372 63.0459 78.9897 63.0459V63.0459C78.8422 63.0459 78.7227 62.9363 78.7227 62.8011V57.4157Z" fill="#FFD5A0"/>
<path d="M79.2122 62.5117H84.3529C84.4881 62.5117 84.5977 62.6313 84.5977 62.7788V62.7788C84.5977 62.9263 84.4881 63.0458 84.3529 63.0458H78.7227L79.2122 62.5117Z" fill="#DD871A"/>
<path d="M84.3305 63.0459C84.183 63.0459 84.0635 62.9363 84.0635 62.8011L84.0635 57.4157C84.0635 57.2805 84.183 57.1709 84.3305 57.1709C84.478 57.1709 84.5976 57.2805 84.5976 57.4157L84.5976 62.8011C84.5976 62.9363 84.478 63.0459 84.3305 63.0459Z" fill="#DD871A"/>
<path d="M78.7227 57.4379C78.7227 57.2905 78.8323 57.1709 78.9674 57.1709H84.5977L84.1081 57.705H78.9674C78.8323 57.705 78.7227 57.5854 78.7227 57.4379V57.4379Z" fill="#FFD5A0"/>
</g>
<path fill-rule="evenodd" clip-rule="evenodd" d="M79.7017 60.5136L81.6855 58.6396V59.7032L79.7017 61.5772V60.5136ZM83.6183 60.5136L81.6855 58.6396V59.7032L83.6183 61.5772V60.5136Z" fill="#333333"/>
<mask id="mask3" mask-type="alpha" maskUnits="userSpaceOnUse" x="78" y="63" width="7" height="6">
<path d="M78.7227 63.5355C78.7227 63.2651 78.9419 63.0459 79.2122 63.0459H84.1081C84.3785 63.0459 84.5977 63.2651 84.5977 63.5355V68.4313C84.5977 68.7017 84.3785 68.9209 84.1081 68.9209H79.2122C78.9419 68.9209 78.7227 68.7017 78.7227 68.4313V63.5355Z" fill="#80CCE8"/>
</mask>
<g mask="url(#mask3)">
<path d="M78.7227 63.5355C78.7227 63.2651 78.9419 63.0459 79.2122 63.0459H84.1081C84.3785 63.0459 84.5977 63.2651 84.5977 63.5355V68.4313C84.5977 68.7017 84.3785 68.9209 84.1081 68.9209H79.2122C78.9419 68.9209 78.7227 68.7017 78.7227 68.4313V63.5355Z" fill="#FAAC48"/>
<path d="M78.7227 63.2907C78.7227 63.1555 78.8422 63.0459 78.9897 63.0459V63.0459C79.1372 63.0459 79.2567 63.1555 79.2567 63.2907V68.6761C79.2567 68.8113 79.1372 68.9209 78.9897 68.9209V68.9209C78.8422 68.9209 78.7227 68.8113 78.7227 68.6761V63.2907Z" fill="#FFD5A0"/>
<path d="M79.2122 68.3867H84.3529C84.4881 68.3867 84.5977 68.5063 84.5977 68.6538V68.6538C84.5977 68.8013 84.4881 68.9208 84.3529 68.9208H78.7227L79.2122 68.3867Z" fill="#DD871A"/>
<path d="M84.3305 68.9199C84.183 68.9199 84.0635 68.8103 84.0635 68.6751L84.0635 63.2897C84.0635 63.1545 84.183 63.0449 84.3305 63.0449V63.0449C84.478 63.0449 84.5976 63.1545 84.5976 63.2897L84.5976 68.6751C84.5976 68.8103 84.478 68.9199 84.3305 68.9199V68.9199Z" fill="#DD871A"/>
<path d="M78.7227 63.3129C78.7227 63.1655 78.8323 63.0459 78.9674 63.0459H84.5977L84.1081 63.58H78.9674C78.8323 63.58 78.7227 63.4604 78.7227 63.3129V63.3129Z" fill="#FFD5A0"/>
</g>
<path fill-rule="evenodd" clip-rule="evenodd" d="M83.6187 65.7101L81.6349 67.584L81.6349 66.5204L83.6187 64.6465L83.6187 65.7101ZM79.702 65.7101L81.6349 67.584L81.6349 66.5204L79.702 64.6465L79.702 65.7101Z" fill="#333333"/>
<mask id="mask4" mask-type="alpha" maskUnits="userSpaceOnUse" x="56" y="72" width="21" height="8">
<rect x="56.8252" y="72.6582" width="19.2273" height="6.4091" rx="1" fill="#FAAC48"/>
</mask>
<g mask="url(#mask4)">
<rect x="56.8252" y="72.6582" width="19.2273" height="6.4091" rx="1" fill="#FAAC48"/>
<path d="M56.8252 72.9495C56.8252 72.7886 56.9556 72.6582 57.1165 72.6582H75.4699C75.7917 72.6582 76.0525 72.9191 76.0525 73.2408V73.2408H57.1165C56.9556 73.2408 56.8252 73.1104 56.8252 72.9495V72.9495Z" fill="#FFD5A0"/>
<path d="M76.0522 78.7761C76.0522 78.937 75.9218 79.0674 75.7609 79.0674L57.4076 79.0674C57.0858 79.0674 56.8249 78.8065 56.8249 78.4847V78.4847L75.7609 78.4847C75.9218 78.4847 76.0522 78.6152 76.0522 78.7761V78.7761Z" fill="#DD871A"/>
<path d="M57.0922 72.6582C56.9448 72.6582 56.8252 72.7778 56.8252 72.9252L56.8252 79.0673L57.3593 78.4847L57.3593 72.9252C57.3593 72.7778 57.2397 72.6582 57.0922 72.6582V72.6582Z" fill="#FFD5A0"/>
<path d="M75.7852 79.0674C75.9327 79.0674 76.0522 78.9478 76.0522 78.8003L76.0522 72.6583L75.5182 73.2409L75.5182 78.8003C75.5182 78.9478 75.6377 79.0674 75.7852 79.0674V79.0674Z" fill="#DD871A"/>
</g>
<path d="M63.9365 76.9313C64.3921 76.9313 64.6214 76.731 64.6214 76.3274C64.6214 75.9511 64.4437 75.7812 63.9737 75.7174C63.6442 75.6719 63.5238 75.5748 63.5238 75.3685C63.5238 75.1591 63.67 75.0438 63.9365 75.0438C64.2059 75.0438 64.3348 75.1591 64.3348 75.3988H64.5927C64.5927 74.9952 64.3749 74.7949 63.9451 74.7949C63.5066 74.7949 63.2688 75.0013 63.2688 75.3958C63.2688 75.7508 63.435 75.9117 63.882 75.9754C64.2403 76.027 64.3663 76.1302 64.3663 76.3517C64.3663 76.5702 64.2231 76.6825 63.9394 76.6825C63.6442 76.6825 63.4923 76.558 63.4923 76.3092H63.2344C63.2344 76.7249 63.4722 76.9313 63.9365 76.9313Z" fill="#333333"/>
<path d="M65.448 76.8949H65.6772V76.6642H65.5082C65.3391 76.6642 65.2961 76.6127 65.2961 76.4093V75.5475H65.66V75.329H65.2961V74.9163H65.0697L65.0496 75.329H64.7888V75.5475H65.0439V76.4063C65.0439 76.7492 65.1643 76.8949 65.448 76.8949Z" fill="#333333"/>
<path d="M66.3753 76.9313C66.5902 76.9313 66.7564 76.8433 66.8768 76.6825L66.8854 76.8949H67.1003V75.8722C67.1003 75.4838 66.9112 75.2926 66.5214 75.2926C66.1518 75.2926 65.9512 75.4656 65.9254 75.8054H66.1718C66.1804 75.6143 66.3036 75.5232 66.5128 75.5232C66.7421 75.5232 66.8481 75.6355 66.8481 75.8783V75.9632H66.4928C66.0773 75.9632 65.8824 76.1393 65.8824 76.4518C65.8824 76.7583 66.0715 76.9313 66.3753 76.9313ZM66.4125 76.7007C66.2263 76.7007 66.1346 76.6096 66.1346 76.4458C66.1346 76.2697 66.2435 76.1848 66.5014 76.1848H66.8481V76.4063C66.7593 76.5975 66.6103 76.7007 66.4125 76.7007Z" fill="#333333"/>
<path d="M67.5446 76.8949H67.7968V75.9936C67.8455 75.6932 67.9802 75.5627 68.2209 75.5627H68.2954V75.2987H68.1951C67.9802 75.2987 67.8455 75.3988 67.771 75.6203L67.7595 75.329H67.5446V76.8949Z" fill="#333333"/>
<path d="M69.0582 76.8949H69.2874V76.6642H69.1183C68.9493 76.6642 68.9063 76.6127 68.9063 76.4093V75.5475H69.2702V75.329H68.9063V74.9163H68.6799L68.6598 75.329H68.399V75.5475H68.6541V76.4063C68.6541 76.7492 68.7744 76.8949 69.0582 76.8949Z" fill="#333333"/>
<defs>
<linearGradient id="paint0_linear" x1="55.3247" y1="-329.182" x2="55.3247" y2="300.547" gradientUnits="userSpaceOnUse">
<stop stop-color="#005C8C"/>
<stop offset="1" stop-color="#003754"/>
</linearGradient>
<clipPath id="clip0">
<rect width="205" height="132" fill="white" transform="translate(0.324707 0.818359)"/>
</clipPath>
</defs>
</svg>
