<svg width="133" height="102" viewBox="0 0 133 102" fill="none" xmlns="http://www.w3.org/2000/svg">
<g clip-path="url(#clip0)">
<mask id="mask0" mask-type="alpha" maskUnits="userSpaceOnUse" x="0" y="0" width="135" height="102">
<path d="M5.43799 0.5H133.969V101.5H5.43799C2.95271 101.5 0.937988 99.4853 0.937988 97V5C0.937988 2.51472 2.95271 0.5 5.43799 0.5Z" fill="#003E6B" stroke="#668BA6"/>
</mask>
<g mask="url(#mask0)">
<path d="M454.315 -323.653H-341.747V293.966H454.315V-323.653Z" fill="url(#paint0_linear)"/>
<path d="M-317.351 90.5723V257.999H-205.555V140.806H352.498V257.999H359.301V90.5723H-317.351Z" fill="#668BA6"/>
<path d="M358.866 89.9561H-329.079V101.626H358.866V89.9561Z" fill="#99B2C4"/>
<g opacity="0.2">
<g opacity="0.2">
<path opacity="0.2" d="M111.4 101.626H-242.132V108.812H111.4V101.626Z" fill="#7D7D7D"/>
</g>
</g>
<path d="M358.866 80.0029H-318.245L-329.079 89.9551H358.866V80.0029Z" fill="#B0C3D0"/>
</g>
<path fill-rule="evenodd" clip-rule="evenodd" d="M40.1311 30.25H43.002L43.3609 33.131H91.2103L91.5691 30.25H94.141V36.0709H94.2009V38.6892L90.7916 36.0709H43.5404L40.1311 38.6892V36.0709V30.25ZM40.1311 38.6892L39.7124 39.0107H40.1311V38.6892ZM94.2009 38.6892L94.6195 39.0107H94.2009V38.6892Z" fill="#F2F2F2" fill-opacity="0.3"/>
<path fill-rule="evenodd" clip-rule="evenodd" d="M40.1946 76.3477L94.1973 75.8804L90.9117 73.4274L43.7788 73.4274L43.7191 73.4274L43.4901 73.6171L40.1349 75.822L40.829 75.822L40.1946 76.3477Z" fill="#758CA2" fill-opacity="0.6"/>
<path d="M43.7251 73.417L40.3332 75.7217L39.9238 30.041L43.3742 30.041L43.7251 32.9698L43.7251 73.417Z" fill="#99A7AD" fill-opacity="0.6"/>
<path d="M90.8179 73.3294L94.1286 75.7217L94.6191 29.8914L91.1244 29.8324L90.8179 32.9916L90.8179 73.3294Z" fill="#99A7AD" fill-opacity="0.6"/>
<path d="M43.7251 32.9619H44.781V73.428H43.7251V32.9619Z" fill="#F2F2F2" fill-opacity="0.5"/>
<path d="M89.7622 32.9619H90.8181V73.428H89.7622V32.9619Z" fill="#F2F2F2" fill-opacity="0.5"/>
<path d="M77.9704 33.1699L43.5137 67.1206V73.4274H48.0601L88.9176 33.1699H87.4221H77.9704Z" fill="white" fill-opacity="0.2"/>
<path d="M90.818 33.7959L50.4824 73.4276H52.5739L90.818 35.7951V33.7959Z" fill="white" fill-opacity="0.2"/>
<path fill-rule="evenodd" clip-rule="evenodd" d="M43.66 29.624H40.3105C39.9802 29.624 39.7124 29.8882 39.7124 30.214V75.7577C39.7124 76.0836 39.9802 76.3477 40.3105 76.3477H94.0214C94.3518 76.3477 94.6195 76.0836 94.6195 75.7577V30.214C94.6195 29.8882 94.3518 29.624 94.0214 29.624H90.9112V32.4558C90.9112 32.7816 90.6434 33.0457 90.3131 33.0457H44.2581C43.9278 33.0457 43.66 32.7816 43.66 32.4558V29.624Z" fill="#F2F2F2" fill-opacity="0.5"/>
<path fill-rule="evenodd" clip-rule="evenodd" d="M40.5498 30.4499V75.5218H93.7822V30.4499H91.7486V32.4558C91.7486 33.2377 91.1059 33.8716 90.3131 33.8716H44.2581C43.4653 33.8716 42.8226 33.2377 42.8226 32.4558V30.4499H40.5498ZM40.3105 29.624C39.9802 29.624 39.7124 29.8882 39.7124 30.214V75.7577C39.7124 76.0836 39.9802 76.3477 40.3105 76.3477H94.0214C94.3518 76.3477 94.6195 76.0836 94.6195 75.7577V30.214C94.6195 29.8882 94.3518 29.624 94.0214 29.624H90.9112V32.4558C90.9112 32.7816 90.6434 33.0457 90.3131 33.0457H44.2581C43.9278 33.0457 43.66 32.7816 43.66 32.4558V29.624H40.3105Z" fill="#F2F2F2"/>
<path opacity="0.2" d="M45.6255 38.3848H46.8926V33.5873H45.6255V38.3848Z" fill="#3E6E7A"/>
<path opacity="0.2" d="M45.6255 38.3848H46.8926V33.5873H45.6255V38.3848Z" fill="#3E6E7A"/>
<path opacity="0.2" d="M45.4143 37.7588H46.8926V32.9613H45.4143V37.7588Z" fill="#3E6E7A"/>
<path opacity="0.2" d="M45.6252 33.4948L45.4141 32.9619V37.8523L45.6252 38.3852V33.4948Z" fill="#3E6E7A"/>
<path opacity="0.5" d="M45.4141 37.3418V37.8326L45.6165 38.3847H46.7982L46.8923 37.8326V37.3418H45.4141Z" fill="#CCD4E2"/>
<path opacity="0.2" d="M75.8242 38.3848H77.0913V33.5873H75.8242V38.3848Z" fill="#3E6E7A"/>
<path opacity="0.2" d="M75.8242 38.3848H77.0913V33.5873H75.8242V38.3848Z" fill="#3E6E7A"/>
<path opacity="0.2" d="M75.6128 37.7588H77.3022V32.9613H75.6128V37.7588Z" fill="#3E6E7A"/>
<path opacity="0.2" d="M77.0913 38.3842L77.3025 37.8513V32.9609L77.0913 33.4939V38.3842Z" fill="#3E6E7A"/>
<path opacity="0.2" d="M75.8245 33.4948L75.6133 32.9619V37.8523L75.8245 38.3852V33.4948Z" fill="#3E6E7A"/>
<path opacity="0.5" d="M75.6128 37.3418V37.8326L75.8388 38.3847H77.1946L77.3022 37.8326V37.3418H75.6128Z" fill="#CCD4E2"/>
<path opacity="0.2" d="M78.7805 38.3848H80.2588V33.5873H78.7805V38.3848Z" fill="#3E6E7A"/>
<path opacity="0.2" d="M78.7805 38.3848H80.2588V33.5873H78.7805V38.3848Z" fill="#3E6E7A"/>
<path opacity="0.2" d="M78.5693 37.7588H80.2588V32.9613H78.5693V37.7588Z" fill="#3E6E7A"/>
<path opacity="0.2" d="M78.781 33.4948L78.5698 32.9619V37.8523L78.781 38.3852V33.4948Z" fill="#3E6E7A"/>
<path opacity="0.5" d="M78.5693 37.3418V37.8326L78.796 38.3847H80.1562L80.2588 37.8326V37.3418H78.5693Z" fill="#CCD4E2"/>
<path opacity="0.2" d="M89.1289 33.5869H87.8618V38.3845H89.1289V33.5869Z" fill="#3E6E7A"/>
<path opacity="0.2" d="M89.1289 33.5869H87.8618V38.3845H89.1289V33.5869Z" fill="#3E6E7A"/>
<path opacity="0.2" d="M89.3398 32.9619H87.6504V37.7594H89.3398V32.9619Z" fill="#3E6E7A"/>
<path opacity="0.2" d="M87.8616 38.3852L87.6504 37.8492V32.9619L87.8616 33.4979V38.3852Z" fill="#3E6E7A"/>
<path opacity="0.2" d="M89.1289 33.497L89.3401 32.9609V37.8482L89.1289 38.3842V33.497Z" fill="#3E6E7A"/>
<path opacity="0.5" d="M89.3398 37.3418V37.8633L89.1085 38.3847H87.758L87.6504 37.8633V37.3418H89.3398Z" fill="#CCD4E2"/>
<path opacity="0.2" d="M86.1721 33.5869H84.6938V38.3845H86.1721V33.5869Z" fill="#3E6E7A"/>
<path opacity="0.2" d="M86.1721 33.5869H84.6938V38.3845H86.1721V33.5869Z" fill="#3E6E7A"/>
<path opacity="0.2" d="M86.3833 32.9619H84.6938V37.7594H86.3833V32.9619Z" fill="#3E6E7A"/>
<path opacity="0.2" d="M86.1724 33.497L86.3835 32.9609V37.8482L86.1724 38.3842V33.497Z" fill="#3E6E7A"/>
<path opacity="0.5" d="M86.3833 37.3408V37.8623L86.1573 38.3838H84.8015L84.6938 37.8623V37.3408H86.3833Z" fill="#CCD4E2"/>
<path opacity="0.2" d="M83.0044 33.5869H81.7373V38.3845H83.0044V33.5869Z" fill="#3E6E7A"/>
<path opacity="0.2" d="M83.0044 33.5869H81.7373V38.3845H83.0044V33.5869Z" fill="#3E6E7A"/>
<path opacity="0.2" d="M83.2158 32.9609H81.5264V37.7585H83.2158V32.9609Z" fill="#3E6E7A"/>
<path opacity="0.2" d="M81.7375 38.3842L81.5264 37.8482V32.9609L81.7375 33.497V38.3842Z" fill="#3E6E7A"/>
<path opacity="0.2" d="M83.0044 33.497L83.2156 32.9609V37.8482L83.0044 38.3842V33.497Z" fill="#3E6E7A"/>
<path opacity="0.5" d="M83.2153 37.3418V37.8633L82.9886 38.3847H81.6284L81.5259 37.8633V37.3418H83.2153Z" fill="#CCD4E2"/>
<path opacity="0.2" d="M60.6196 38.3848H61.8867V33.5873H60.6196V38.3848Z" fill="#3E6E7A"/>
<path opacity="0.2" d="M60.6196 38.3848H61.8867V33.5873H60.6196V38.3848Z" fill="#3E6E7A"/>
<path opacity="0.2" d="M60.4082 37.7588H62.0977V32.9613H60.4082V37.7588Z" fill="#3E6E7A"/>
<path opacity="0.2" d="M61.8867 38.3842L62.0979 37.8513V32.9609L61.8867 33.4939V38.3842Z" fill="#3E6E7A"/>
<path opacity="0.2" d="M60.6194 33.4948L60.4082 32.9619V37.8523L60.6194 38.3852V33.4948Z" fill="#3E6E7A"/>
<path opacity="0.5" d="M60.4082 37.3418V37.8326L60.6342 38.3847H61.99L62.0976 37.8326V37.3418H60.4082Z" fill="#CCD4E2"/>
<path opacity="0.2" d="M63.5759 38.3848H65.0542V33.5873H63.5759V38.3848Z" fill="#3E6E7A"/>
<path opacity="0.2" d="M63.5759 38.3848H65.0542V33.5873H63.5759V38.3848Z" fill="#3E6E7A"/>
<path opacity="0.2" d="M63.3647 37.7588H65.0542V32.9613H63.3647V37.7588Z" fill="#3E6E7A"/>
<path opacity="0.2" d="M63.5764 33.4948L63.3652 32.9619V37.8523L63.5764 38.3852V33.4948Z" fill="#3E6E7A"/>
<path opacity="0.5" d="M63.3647 37.3418V37.8326L63.5914 38.3847H64.9516L65.0542 37.8326V37.3418H63.3647Z" fill="#CCD4E2"/>
<path opacity="0.2" d="M73.9238 33.5869H72.6567V38.3845H73.9238V33.5869Z" fill="#3E6E7A"/>
<path opacity="0.2" d="M73.9238 33.5869H72.6567V38.3845H73.9238V33.5869Z" fill="#3E6E7A"/>
<path opacity="0.2" d="M74.1348 32.9619H72.4453V37.7594H74.1348V32.9619Z" fill="#3E6E7A"/>
<path opacity="0.2" d="M72.6565 38.3852L72.4453 37.8492V32.9619L72.6565 33.4979V38.3852Z" fill="#3E6E7A"/>
<path opacity="0.2" d="M73.9238 33.497L74.135 32.9609V37.8482L73.9238 38.3842V33.497Z" fill="#3E6E7A"/>
<path opacity="0.5" d="M74.1348 37.3418V37.8633L73.9034 38.3847H72.5529L72.4453 37.8633V37.3418H74.1348Z" fill="#CCD4E2"/>
<path opacity="0.2" d="M70.9668 33.5869H69.6997V38.3845H70.9668V33.5869Z" fill="#3E6E7A"/>
<path opacity="0.2" d="M70.9668 33.5869H69.6997V38.3845H70.9668V33.5869Z" fill="#3E6E7A"/>
<path opacity="0.2" d="M71.1782 32.9619H69.4888V37.7594H71.1782V32.9619Z" fill="#3E6E7A"/>
<path opacity="0.2" d="M69.6999 38.3852L69.4888 37.8492V32.9619L69.6999 33.4979V38.3852Z" fill="#3E6E7A"/>
<path opacity="0.2" d="M70.9673 33.497L71.1785 32.9609V37.8482L70.9673 38.3842V33.497Z" fill="#3E6E7A"/>
<path opacity="0.5" d="M71.1782 37.3418V37.8633L70.9522 38.3847H69.5964L69.4888 37.8633V37.3418H71.1782Z" fill="#CCD4E2"/>
<path opacity="0.2" d="M67.7993 33.5869H66.5322V38.3845H67.7993V33.5869Z" fill="#3E6E7A"/>
<path opacity="0.2" d="M67.7993 33.5869H66.5322V38.3845H67.7993V33.5869Z" fill="#3E6E7A"/>
<path opacity="0.2" d="M68.0107 32.9609H66.3213V37.7585H68.0107V32.9609Z" fill="#3E6E7A"/>
<path opacity="0.2" d="M66.5325 38.3842L66.3213 37.8482V32.9609L66.5325 33.497V38.3842Z" fill="#3E6E7A"/>
<path opacity="0.2" d="M67.7993 33.497L68.0105 32.9609V37.8482L67.7993 38.3842V33.497Z" fill="#3E6E7A"/>
<path opacity="0.5" d="M68.0102 37.3418V37.8633L67.7835 38.3847H66.4234L66.3208 37.8633V37.3418H68.0102Z" fill="#CCD4E2"/>
<path opacity="0.2" d="M48.5815 38.3848H49.8486V33.5873H48.5815V38.3848Z" fill="#3E6E7A"/>
<path opacity="0.2" d="M48.5815 38.3848H49.8486V33.5873H48.5815V38.3848Z" fill="#3E6E7A"/>
<path opacity="0.2" d="M48.3706 37.7588H50.0601V32.9613H48.3706V37.7588Z" fill="#3E6E7A"/>
<path opacity="0.2" d="M49.8486 38.3842L50.0598 37.8513V32.9609L49.8486 33.4939V38.3842Z" fill="#3E6E7A"/>
<path opacity="0.2" d="M48.5818 33.4939L48.3706 32.9609V37.8513L48.5818 38.3842V33.4939Z" fill="#3E6E7A"/>
<path opacity="0.5" d="M48.3706 37.3418V37.8326L48.5966 38.3847H49.9524L50.0601 37.8326V37.3418H48.3706Z" fill="#CCD4E2"/>
<path opacity="0.2" d="M51.5386 38.3848H52.8057V33.5873H51.5386V38.3848Z" fill="#3E6E7A"/>
<path opacity="0.2" d="M51.5386 38.3848H52.8057V33.5873H51.5386V38.3848Z" fill="#3E6E7A"/>
<path opacity="0.2" d="M51.3271 37.7588H53.0166V32.9613H51.3271V37.7588Z" fill="#3E6E7A"/>
<path opacity="0.2" d="M52.8057 38.3842L53.0168 37.8513V32.9609L52.8057 33.4939V38.3842Z" fill="#3E6E7A"/>
<path opacity="0.2" d="M51.5388 33.4948L51.3276 32.9619V37.8523L51.5388 38.3852V33.4948Z" fill="#3E6E7A"/>
<path opacity="0.5" d="M51.3271 37.3418V37.8326L51.5538 38.3847H52.914L53.0166 37.8326V37.3418H51.3271Z" fill="#CCD4E2"/>
<path opacity="0.2" d="M58.9297 33.5869H57.6626V38.3845H58.9297V33.5869Z" fill="#3E6E7A"/>
<path opacity="0.2" d="M58.9297 33.5869H57.6626V38.3845H58.9297V33.5869Z" fill="#3E6E7A"/>
<path opacity="0.2" d="M59.1406 32.9609H57.4512V37.7585H59.1406V32.9609Z" fill="#3E6E7A"/>
<path opacity="0.2" d="M57.6624 38.3842L57.4512 37.8482V32.9609L57.6624 33.497V38.3842Z" fill="#3E6E7A"/>
<path opacity="0.2" d="M58.9297 33.497L59.1409 32.9609V37.8482L58.9297 38.3842V33.497Z" fill="#3E6E7A"/>
<path opacity="0.5" d="M59.1406 37.3418V37.8633L58.9146 38.3847H57.5588L57.4512 37.8633V37.3418H59.1406Z" fill="#CCD4E2"/>
<path opacity="0.2" d="M55.7617 33.5869H54.4946V38.3845H55.7617V33.5869Z" fill="#3E6E7A"/>
<path opacity="0.2" d="M55.7617 33.5869H54.4946V38.3845H55.7617V33.5869Z" fill="#3E6E7A"/>
<path opacity="0.2" d="M55.9731 32.9609H54.2837V37.7585H55.9731V32.9609Z" fill="#3E6E7A"/>
<path opacity="0.2" d="M54.4949 38.3842L54.2837 37.8482V32.9609L54.4949 33.497V38.3842Z" fill="#3E6E7A"/>
<path opacity="0.2" d="M55.7617 33.497L55.9729 32.9609V37.8482L55.7617 38.3842V33.497Z" fill="#3E6E7A"/>
<path opacity="0.5" d="M55.9731 37.3418V37.8633L55.7464 38.3847H54.3862L54.2837 37.8633V37.3418H55.9731Z" fill="#CCD4E2"/>
<g style="mix-blend-mode:soft-light">
<path d="M39.7124 71.1328H94.6195V75.7681C94.6195 76.0881 94.3518 76.3475 94.0214 76.3475H40.3105C39.9802 76.3475 39.7124 76.0881 39.7124 75.7681V71.1328Z" fill="white"/>
</g>
<path fill-rule="evenodd" clip-rule="evenodd" d="M46.0898 69.6729H39.7124V75.7621C39.7124 76.0855 39.9773 76.3477 40.304 76.3477H46.6814C46.3547 76.3477 46.0898 76.0855 46.0898 75.7621V69.6729Z" fill="#E5ECF0"/>
<path fill-rule="evenodd" clip-rule="evenodd" d="M88.049 69.6729H94.6196V75.7621C94.6196 76.0855 94.3467 76.3477 94.0101 76.3477H87.4395C87.7761 76.3477 88.049 76.0855 88.049 75.7621V69.6729Z" fill="#E5ECF0"/>
<path opacity="0.5" fill-rule="evenodd" clip-rule="evenodd" d="M21.7521 25.4521H112.58L112.543 25.9973L112.58 25.9675L108.475 87.2878H95.6458L94.0842 78.9248H40.2475L38.6859 87.2878H25.8572L21.752 25.9675L21.7887 25.9974L21.7521 25.4521Z" fill="#F2F2F2"/>
<mask id="mask1" mask-type="alpha" maskUnits="userSpaceOnUse" x="21" y="25" width="92" height="63">
<path opacity="0.5" fill-rule="evenodd" clip-rule="evenodd" d="M21.752 25.4521H112.58L112.367 26.1414L112.58 25.9675L108.475 87.2878H95.6458L93.7057 76.8974H40.626L38.6859 87.2878H25.8572L21.752 25.9675L21.8332 26.0338L21.752 25.4521Z" fill="#F2F2F2"/>
</mask>
<g mask="url(#mask1)">
<path opacity="0.3" d="M62.0343 27.5137L33.2979 85.2269L50.745 87.8034L80.7644 27.5137H62.0343Z" fill="white"/>
<path opacity="0.3" d="M83.3301 27.5137L53.0542 88.3187H55.8765L86.1525 27.5137H83.3301Z" fill="white"/>
</g>
<path d="M29.9624 25.4521H33.0413V72.3506C33.0413 73.2008 32.3521 73.89 31.5019 73.89V73.89C30.6516 73.89 29.9624 73.2008 29.9624 72.3506V25.4521Z" fill="#333333"/>
<path d="M101.291 25.4521H104.369V72.3506C104.369 73.2008 103.68 73.89 102.83 73.89V73.89C101.98 73.89 101.291 73.2008 101.291 72.3506V25.4521Z" fill="#AD210C"/>
<path opacity="0.5" fill-rule="evenodd" clip-rule="evenodd" d="M94.1063 78.9585L95.6457 87.2878H108.475L112.58 25.9674L112.539 26.0009L112.58 25.4521H21.752L21.8078 26.013L21.752 25.9674L25.8572 87.2878H38.6859L40.2839 78.9585H94.1063ZM37.9747 85.2266L39.5727 76.8974H94.8175L96.357 85.2266H107.577L111.327 29.2145L111.257 29.2717L111.388 27.5133H23.0038L23.1881 29.364L23.0049 29.2145L26.7547 85.2266H37.9747Z" fill="#F2F2F2"/>
<path opacity="0.5" d="M45.2586 72.5889H89.628L94.6196 75.63H39.7124L45.2586 72.5889Z" fill="#F2F2F2" fill-opacity="0.5"/>
<path opacity="0.3" d="M26.3701 81.1045H39.712L38.9423 85.2269H26.8833L26.3701 81.1045Z" fill="#F2F2F2" fill-opacity="0.5"/>
<path opacity="0.3" d="M107.961 81.1045H94.6195L95.3892 85.2269H107.448L107.961 81.1045Z" fill="#F2F2F2" fill-opacity="0.5"/>
<path fill-rule="evenodd" clip-rule="evenodd" d="M33.0413 11.2607H29.9624V15.6141C28.4578 16.223 27.3965 17.698 27.3965 19.4209V24.439H35.6069V19.4209C35.6069 17.6981 34.5457 16.2232 33.0413 15.6142V11.2607Z" fill="#444444"/>
<path opacity="0.5" fill-rule="evenodd" clip-rule="evenodd" d="M33.041 11.2607H32.0146V15.7926C32.0146 15.7926 32.0146 15.7927 32.0146 15.7927V15.8224H32.0483C32.1244 15.8897 32.1998 15.9556 32.2743 16.0206C33.2536 16.8762 34.0673 17.587 34.0673 19.3705V24.439H35.6067V19.3705C35.6067 17.6688 34.5454 16.212 33.041 15.6104V11.2607Z" fill="#111111"/>
<path opacity="0.2" fill-rule="evenodd" clip-rule="evenodd" d="M30.4756 11.2607H30.9888V15.8224H30.9849C30.9862 15.8224 30.9875 15.8224 30.9888 15.8224C30.7117 16.096 30.4586 16.3125 30.232 16.5063C29.4093 17.21 28.9362 17.6147 28.9362 19.3704V24.4389H27.9099V19.3704C27.9099 17.6688 28.9711 16.2119 30.4756 15.6104V11.2607Z" fill="#999999"/>
<path fill-rule="evenodd" clip-rule="evenodd" d="M104.369 11.2607H101.291V15.6141C99.786 16.223 98.7246 17.698 98.7246 19.4209V24.439H106.935V19.4209C106.935 17.6981 105.874 16.2232 104.369 15.6142V11.2607Z" fill="#AD210C"/>
<path opacity="0.5" fill-rule="evenodd" clip-rule="evenodd" d="M104.37 11.2607H103.343V15.7926C103.343 15.7926 103.343 15.7927 103.343 15.7927V15.8224H103.377C103.453 15.8897 103.528 15.9556 103.603 16.0206C104.582 16.8762 105.396 17.587 105.396 19.3705V24.439H106.935V19.3705C106.935 17.6688 105.874 16.212 104.37 15.6104V11.2607Z" fill="#541005"/>
<path opacity="0.5" fill-rule="evenodd" clip-rule="evenodd" d="M101.804 11.2607H102.317V15.8224H102.313C102.314 15.8224 102.316 15.8224 102.317 15.8224C102.04 16.096 101.787 16.3125 101.56 16.5063C100.737 17.21 100.264 17.6147 100.264 19.3704V24.4389H99.238V19.3704C99.238 17.6688 100.299 16.2119 101.804 15.6104V11.2607Z" fill="#C48686"/>
<path opacity="0.6" fill-rule="evenodd" clip-rule="evenodd" d="M24.0962 35.2734H110.323L109.091 67.4473H110.117L107.448 85.6939H96.1591L92.4288 75.4908H41.905L38.173 85.6936H26.8837L24.4205 68.9676L25.3881 69.0179L24.0962 35.2734Z" fill="#4FB7F2"/>
<path d="M18.6733 26.0677C18.6733 25.0719 19.4806 24.2646 20.4764 24.2646H112.316C113.312 24.2646 114.119 25.0719 114.119 26.0677V26.0677C114.119 31.0467 110.083 35.083 105.104 35.083H27.6886C22.7096 35.083 18.6733 31.0467 18.6733 26.0677V26.0677Z" fill="#F2F2F2" fill-opacity="0.5"/>
<path d="M20.4764 25.2646H112.316C112.76 25.2646 113.119 25.6242 113.119 26.0677C113.119 30.4944 109.531 34.083 105.104 34.083H27.6886C23.2619 34.083 19.6733 30.4944 19.6733 26.0677C19.6733 25.6242 20.0329 25.2646 20.4764 25.2646Z" stroke="#F2F2F2" stroke-opacity="0.5" stroke-width="2"/>
</g>
<defs>
<linearGradient id="paint0_linear" x1="56.2842" y1="-323.653" x2="56.2842" y2="293.966" gradientUnits="userSpaceOnUse">
<stop stop-color="#005C8C"/>
<stop offset="1" stop-color="#003754"/>
</linearGradient>
<clipPath id="clip0">
<rect width="132" height="102" fill="white" transform="translate(0.437988)"/>
</clipPath>
</defs>
</svg>
