<svg width="133" height="103" viewBox="0 0 133 103" fill="none" xmlns="http://www.w3.org/2000/svg">
<mask id="mask0" mask-type="alpha" maskUnits="userSpaceOnUse" x="0" y="0" width="133" height="103">
<path d="M5.32471 1.1377H131.825V102.138H5.32471C2.83943 102.138 0.824707 100.123 0.824707 97.6377V5.6377C0.824707 3.15242 2.83943 1.1377 5.32471 1.1377Z" fill="#003E6B" stroke="#668BA6"/>
</mask>
<g mask="url(#mask0)">
<path d="M447.325 -323.016H-336.675V294.603H447.325V-323.016Z" fill="url(#paint0_linear)"/>
<path d="M-312.649 91.21V258.637H-202.547V141.444H347.051V258.637H353.751V91.21H-312.649Z" fill="#668BA6"/>
<path d="M353.322 90.5938H-324.199V102.264H353.322V90.5938Z" fill="#99B2C4"/>
<g opacity="0.2">
<g opacity="0.2">
<path opacity="0.2" d="M109.606 102.264H-238.57V109.45H109.606V102.264Z" fill="#7D7D7D"/>
</g>
</g>
<path d="M353.322 80.6406H-313.53L-324.199 90.5928H353.322V80.6406Z" fill="#B0C3D0"/>
</g>
<path fill-rule="evenodd" clip-rule="evenodd" d="M25.2053 14.999H29.5764L30.1228 19.4536H102.974L103.521 14.999H107.437V23.9989H107.528V28.0472L102.337 23.999H30.3959L25.2053 28.0472V23.999H25.2053V14.999ZM25.2053 28.0472L24.5679 28.5444H25.2053V28.0472ZM107.528 28.0472L108.165 28.5444H107.528V28.0472Z" fill="#F2F2F2" fill-opacity="0.3"/>
<path fill-rule="evenodd" clip-rule="evenodd" d="M25.205 86L107.527 85.2727L102.519 81.4545L30.5778 81.4545L30.2261 81.752L25.1141 85.1822L26.1716 85.1822L25.205 86Z" fill="#758CA2" fill-opacity="0.6"/>
<path d="M30.8125 81.3637L25.5307 84.9092L24.8933 14.6366L30.2661 14.6366L30.8125 19.1421L30.8125 81.3637Z" fill="#99A7AD" fill-opacity="0.6"/>
<path d="M102.52 81.4946L107.437 85.1816L108.079 16.6098L102.975 14.4545L102.52 19.3237L102.52 81.4946Z" fill="#99A7AD" fill-opacity="0.6"/>
<rect x="30.5781" y="19.2725" width="1.63916" height="62.1817" fill="#F2F2F2" fill-opacity="0.5"/>
<rect x="100.88" y="19.2725" width="1.63917" height="62.1817" fill="#F2F2F2" fill-opacity="0.5"/>
<path d="M82.9405 19.3633L30.4873 71.7268V81.4541H37.4082L99.6053 19.3633H97.3287H82.9405Z" fill="white" fill-opacity="0.2"/>
<path d="M102.519 20.2725L41.0503 81.545H44.2376L102.519 23.3634V20.2725Z" fill="white" fill-opacity="0.2"/>
<mask id="path-15-inside-1" fill="white">
<path fill-rule="evenodd" clip-rule="evenodd" d="M30.5783 14H29.5679C26.8064 14 24.5679 16.2386 24.5679 19V80.9998C24.5679 83.7613 26.8065 85.9998 29.5679 85.9998H103.165C105.927 85.9998 108.165 83.7613 108.165 80.9998V19C108.165 16.2386 105.927 14 103.165 14H102.519V14.2725C102.519 17.0339 100.281 19.2725 97.5193 19.2725H35.5783C32.8168 19.2725 30.5783 17.0339 30.5783 14.2725V14Z"/>
</mask>
<path fill-rule="evenodd" clip-rule="evenodd" d="M30.5783 14H29.5679C26.8064 14 24.5679 16.2386 24.5679 19V80.9998C24.5679 83.7613 26.8065 85.9998 29.5679 85.9998H103.165C105.927 85.9998 108.165 83.7613 108.165 80.9998V19C108.165 16.2386 105.927 14 103.165 14H102.519V14.2725C102.519 17.0339 100.281 19.2725 97.5193 19.2725H35.5783C32.8168 19.2725 30.5783 17.0339 30.5783 14.2725V14Z" fill="#F2F2F2" fill-opacity="0.5"/>
<path d="M30.5783 14H37.5783V7H30.5783V14ZM102.519 14V7H95.5193V14H102.519ZM29.5679 21H30.5783V7H29.5679V21ZM31.5679 19C31.5679 20.1046 30.6724 21 29.5679 21V7C22.9404 7 17.5679 12.3726 17.5679 19H31.5679ZM31.5679 80.9998V19H17.5679V80.9998H31.5679ZM29.5679 78.9998C30.6724 78.9998 31.5679 79.8953 31.5679 80.9998H17.5679C17.5679 87.6273 22.9405 92.9998 29.5679 92.9998V78.9998ZM103.165 78.9998H29.5679V92.9998H103.165V78.9998ZM101.165 80.9998C101.165 79.8953 102.061 78.9998 103.165 78.9998V92.9998C109.793 92.9998 115.165 87.6272 115.165 80.9998H101.165ZM101.165 19V80.9998H115.165V19H101.165ZM103.165 21C102.061 21 101.165 20.1046 101.165 19H115.165C115.165 12.3726 109.793 7 103.165 7V21ZM102.519 21H103.165V7H102.519V21ZM95.5193 14V14.2725H109.519V14H95.5193ZM95.5193 14.2725C95.5193 13.1679 96.4147 12.2725 97.5193 12.2725V26.2725C104.147 26.2725 109.519 20.8999 109.519 14.2725H95.5193ZM97.5193 12.2725H35.5783V26.2725H97.5193V12.2725ZM35.5783 12.2725C36.6828 12.2725 37.5783 13.1679 37.5783 14.2725H23.5783C23.5783 20.8999 28.9509 26.2725 35.5783 26.2725V12.2725ZM37.5783 14.2725V14H23.5783V14.2725H37.5783Z" fill="#F2F2F2" mask="url(#path-15-inside-1)"/>
<path opacity="0.2" d="M33.4382 27.4541H35.4761V20.1356H33.4382V27.4541Z" fill="#3E6E7A"/>
<path opacity="0.2" d="M33.4382 27.4541H35.4761V20.1356H33.4382V27.4541Z" fill="#3E6E7A"/>
<path opacity="0.2" d="M33.1014 26.6387L35.6406 26.6387V19.273H33.1014V26.6387Z" fill="#3E6E7A"/>
<path opacity="0.2" d="M35.4775 27.4409L35.6393 26.6382V19.2725L35.4775 20.0751V27.4409Z" fill="#3E6E7A"/>
<path opacity="0.2" d="M33.4478 20.0761L33.1001 19.2734V26.6392L33.4478 27.4418V20.0761Z" fill="#3E6E7A"/>
<path opacity="0.5" d="M33.1001 25.8359V26.5914L33.4478 27.4413H35.4776L35.6393 26.5914V25.8359H33.1001Z" fill="#CCD4E2"/>
<path opacity="0.2" d="M79.6238 27.4531H81.6616V20.1346H79.6238V27.4531Z" fill="#3E6E7A"/>
<path opacity="0.2" d="M79.6238 27.4531H81.6616V20.1346H79.6238V27.4531Z" fill="#3E6E7A"/>
<path opacity="0.2" d="M79.2786 26.6387L81.8179 26.6387V19.273H79.2786V26.6387Z" fill="#3E6E7A"/>
<path opacity="0.2" d="M81.6587 27.4409L81.8204 26.6382V19.2725L81.6587 20.0751V27.4409Z" fill="#3E6E7A"/>
<path opacity="0.2" d="M79.6209 20.0751L79.2812 19.2725V26.6382L79.6209 27.4409V20.0751Z" fill="#3E6E7A"/>
<path opacity="0.5" d="M79.2817 25.8359V26.5914L79.6214 27.4413H81.6592L81.821 26.5914V25.8359H79.2817Z" fill="#CCD4E2"/>
<path opacity="0.2" d="M84.2204 27.4541H86.2583V20.1356H84.2204V27.4541Z" fill="#3E6E7A"/>
<path opacity="0.2" d="M84.2204 27.4541H86.2583V20.1356H84.2204V27.4541Z" fill="#3E6E7A"/>
<path opacity="0.2" d="M83.8758 26.6387L86.415 26.6387V19.273H83.8758V26.6387Z" fill="#3E6E7A"/>
<path opacity="0.2" d="M86.2598 27.4409L86.4134 26.6382V19.2725L86.2598 20.0751V27.4409Z" fill="#3E6E7A"/>
<path opacity="0.2" d="M84.2229 20.0751L83.8833 19.2725V26.6382L84.2229 27.4409V20.0751Z" fill="#3E6E7A"/>
<path opacity="0.5" d="M83.8823 25.8359V26.5914L84.222 27.4413H86.2598L86.4135 26.5914V25.8359H83.8823Z" fill="#CCD4E2"/>
<path opacity="0.2" d="M99.8665 20.0742H97.8286V27.3927H99.8665V20.0742Z" fill="#3E6E7A"/>
<path opacity="0.2" d="M99.8665 20.0742H97.8286V27.3927H99.8665V20.0742Z" fill="#3E6E7A"/>
<path opacity="0.2" d="M100.206 19.2734H97.667V26.6392H100.206V19.2734Z" fill="#3E6E7A"/>
<path opacity="0.2" d="M97.8287 27.3946L97.667 26.5919V19.2734L97.8287 20.0761V27.3946Z" fill="#3E6E7A"/>
<path opacity="0.2" d="M99.8584 20.0751L100.206 19.2725V26.591L99.8584 27.3936V20.0751Z" fill="#3E6E7A"/>
<path opacity="0.5" d="M100.206 25.7881V26.5908L99.8585 27.3934H97.8287L97.667 26.5908V25.7881H100.206Z" fill="#CCD4E2"/>
<path opacity="0.2" d="M95.2698 20.0742H93.2319V27.3927H95.2698V20.0742Z" fill="#3E6E7A"/>
<path opacity="0.2" d="M95.2698 20.0742H93.2319V27.3927H95.2698V20.0742Z" fill="#3E6E7A"/>
<path opacity="0.2" d="M95.61 19.2734H93.0708V26.6392H95.61V19.2734Z" fill="#3E6E7A"/>
<path opacity="0.2" d="M93.2325 27.3946L93.0708 26.5919V19.2734L93.2325 20.0761V27.3946Z" fill="#3E6E7A"/>
<path opacity="0.2" d="M95.27 20.0751L95.6097 19.2725V26.591L95.27 27.3936V20.0751Z" fill="#3E6E7A"/>
<path opacity="0.5" d="M95.6095 25.7881V26.5908L95.2699 27.3934H93.232L93.0703 26.5908V25.7881H95.6095Z" fill="#CCD4E2"/>
<path opacity="0.2" d="M90.6648 20.0742H88.627V27.3927H90.6648V20.0742Z" fill="#3E6E7A"/>
<path opacity="0.2" d="M90.6648 20.0742H88.627V27.3927H90.6648V20.0742Z" fill="#3E6E7A"/>
<path opacity="0.2" d="M91.0124 19.2734H88.4731V26.6392H91.0124V19.2734Z" fill="#3E6E7A"/>
<path opacity="0.2" d="M88.6268 27.3946L88.4731 26.5919V19.2734L88.6268 20.0761V27.3946Z" fill="#3E6E7A"/>
<path opacity="0.2" d="M90.6646 20.0751L91.0042 19.2725V26.591L90.6646 27.3936V20.0751Z" fill="#3E6E7A"/>
<path opacity="0.5" d="M91.0043 25.7881V26.5908L90.6647 27.3934H88.6268L88.4731 26.5908V25.7881H91.0043Z" fill="#CCD4E2"/>
<path opacity="0.2" d="M56.4294 27.4531H58.4673V20.1346H56.4294V27.4531Z" fill="#3E6E7A"/>
<path opacity="0.2" d="M56.4294 27.4531H58.4673V20.1346H56.4294V27.4531Z" fill="#3E6E7A"/>
<path opacity="0.2" d="M56.0848 26.6387L58.624 26.6387V19.273H56.0848V26.6387Z" fill="#3E6E7A"/>
<path opacity="0.2" d="M58.4648 27.4409L58.6266 26.6382V19.2725L58.4648 20.0751V27.4409Z" fill="#3E6E7A"/>
<path opacity="0.2" d="M56.4275 20.0751L56.0879 19.2725V26.6382L56.4275 27.4409V20.0751Z" fill="#3E6E7A"/>
<path opacity="0.5" d="M56.0879 25.8359V26.5914L56.4275 27.4413H58.4654L58.6271 26.5914V25.8359H56.0879Z" fill="#CCD4E2"/>
<path opacity="0.2" d="M61.0271 27.4531H63.0649V20.1346H61.0271V27.4531Z" fill="#3E6E7A"/>
<path opacity="0.2" d="M61.0271 27.4531H63.0649V20.1346H61.0271V27.4531Z" fill="#3E6E7A"/>
<path opacity="0.2" d="M60.6824 26.6387L63.2217 26.6387V19.273H60.6824V26.6387Z" fill="#3E6E7A"/>
<path opacity="0.2" d="M63.0659 27.4409L63.2196 26.6382V19.2725L63.0659 20.0751V27.4409Z" fill="#3E6E7A"/>
<path opacity="0.2" d="M61.0281 20.0751L60.6885 19.2725V26.6382L61.0281 27.4409V20.0751Z" fill="#3E6E7A"/>
<path opacity="0.5" d="M60.6885 25.8359V26.5914L61.0281 27.4413H63.066L63.2196 26.5914V25.8359H60.6885Z" fill="#CCD4E2"/>
<path opacity="0.2" d="M76.6726 20.0742H74.6348V27.3927H76.6726V20.0742Z" fill="#3E6E7A"/>
<path opacity="0.2" d="M76.6726 20.0742H74.6348V27.3927H76.6726V20.0742Z" fill="#3E6E7A"/>
<path opacity="0.2" d="M77.0124 19.2734H74.4731V26.6392H77.0124V19.2734Z" fill="#3E6E7A"/>
<path opacity="0.2" d="M74.6349 27.3946L74.4731 26.5919V19.2734L74.6349 20.0761V27.3946Z" fill="#3E6E7A"/>
<path opacity="0.2" d="M76.6646 20.0751L77.0123 19.2725V26.591L76.6646 27.3936V20.0751Z" fill="#3E6E7A"/>
<path opacity="0.5" d="M77.0124 25.7881V26.5908L76.6647 27.3934H74.6349L74.4731 26.5908V25.7881H77.0124Z" fill="#CCD4E2"/>
<path opacity="0.2" d="M72.2844 20.0742H70.2466V27.3927H72.2844V20.0742Z" fill="#3E6E7A"/>
<path opacity="0.2" d="M72.2844 20.0742H70.2466V27.3927H72.2844V20.0742Z" fill="#3E6E7A"/>
<path opacity="0.2" d="M72.6242 19.2734H70.085V26.6392H72.6242V19.2734Z" fill="#3E6E7A"/>
<path opacity="0.2" d="M70.2467 27.3946L70.085 26.5919V19.2734L70.2467 20.0761V27.3946Z" fill="#3E6E7A"/>
<path opacity="0.2" d="M72.2847 20.0751L72.6243 19.2725V26.591L72.2847 27.3936V20.0751Z" fill="#3E6E7A"/>
<path opacity="0.5" d="M72.6242 25.7881V26.5908L72.2846 27.3934H70.2467L70.085 26.5908V25.7881H72.6242Z" fill="#CCD4E2"/>
<path opacity="0.2" d="M67.4705 20.0742H65.4326V27.3927H67.4705V20.0742Z" fill="#3E6E7A"/>
<path opacity="0.2" d="M67.4705 20.0742H65.4326V27.3927H67.4705V20.0742Z" fill="#3E6E7A"/>
<path opacity="0.2" d="M67.8185 19.2734H65.2793V26.6392H67.8185V19.2734Z" fill="#3E6E7A"/>
<path opacity="0.2" d="M65.4329 27.3946L65.2793 26.5919V19.2734L65.4329 20.0761V27.3946Z" fill="#3E6E7A"/>
<path opacity="0.2" d="M67.4707 20.0751L67.8103 19.2725V26.591L67.4707 27.3936V20.0751Z" fill="#3E6E7A"/>
<path opacity="0.5" d="M67.8105 25.7881V26.5908L67.4708 27.3934H65.4329L65.2793 26.5908V25.7881H67.8105Z" fill="#CCD4E2"/>
<path opacity="0.2" d="M38.0417 27.4531H40.0796V20.1346H38.0417V27.4531Z" fill="#3E6E7A"/>
<path opacity="0.2" d="M38.0417 27.4531H40.0796V20.1346H38.0417V27.4531Z" fill="#3E6E7A"/>
<path opacity="0.2" d="M37.6966 26.6387L40.2358 26.6387V19.273H37.6966V26.6387Z" fill="#3E6E7A"/>
<path opacity="0.2" d="M40.0767 27.4409L40.2384 26.6382V19.2725L40.0767 20.0751V27.4409Z" fill="#3E6E7A"/>
<path opacity="0.2" d="M38.0394 20.0751L37.6997 19.2725V26.6382L38.0394 27.4408V20.0751Z" fill="#3E6E7A"/>
<path opacity="0.5" d="M37.6992 25.8359V26.5914L38.0389 27.4413H40.0767L40.2385 26.5914V25.8359H37.6992Z" fill="#CCD4E2"/>
<path opacity="0.2" d="M42.6389 27.4531H44.6768V20.1346H42.6389V27.4531Z" fill="#3E6E7A"/>
<path opacity="0.2" d="M42.6389 27.4531H44.6768V20.1346H42.6389V27.4531Z" fill="#3E6E7A"/>
<path opacity="0.2" d="M42.2938 26.6387L44.833 26.6387V19.273H42.2938V26.6387Z" fill="#3E6E7A"/>
<path opacity="0.2" d="M44.6777 27.4409L44.8314 26.6382V19.2725L44.6777 20.0751V27.4409Z" fill="#3E6E7A"/>
<path opacity="0.2" d="M42.6404 20.0751L42.3008 19.2725V26.6382L42.6404 27.4409V20.0751Z" fill="#3E6E7A"/>
<path opacity="0.5" d="M42.3003 25.8359V26.5914L42.6399 27.4413H44.6778L44.8314 26.5914V25.8359H42.3003Z" fill="#CCD4E2"/>
<path opacity="0.2" d="M53.8963 20.0742H51.8584V27.3927H53.8963V20.0742Z" fill="#3E6E7A"/>
<path opacity="0.2" d="M53.8963 20.0742H51.8584V27.3927H53.8963V20.0742Z" fill="#3E6E7A"/>
<path opacity="0.2" d="M54.236 19.2734H51.6968V26.6392H54.236V19.2734Z" fill="#3E6E7A"/>
<path opacity="0.2" d="M51.8585 27.3946L51.6968 26.5919V19.2734L51.8585 20.0761V27.3946Z" fill="#3E6E7A"/>
<path opacity="0.2" d="M53.896 20.0751L54.2356 19.2725V26.591L53.896 27.3936V20.0751Z" fill="#3E6E7A"/>
<path opacity="0.5" d="M54.236 25.7881V26.5908L53.8964 27.3934H51.8585L51.6968 26.5908V25.7881H54.236Z" fill="#CCD4E2"/>
<path opacity="0.2" d="M49.0828 20.0742H47.0449V27.3927H49.0828V20.0742Z" fill="#3E6E7A"/>
<path opacity="0.2" d="M49.0828 20.0742H47.0449V27.3927H49.0828V20.0742Z" fill="#3E6E7A"/>
<path opacity="0.2" d="M49.4303 19.2734H46.8911V26.6392H49.4303V19.2734Z" fill="#3E6E7A"/>
<path opacity="0.2" d="M47.0448 27.3946L46.8911 26.5919V19.2734L47.0448 20.0761V27.3946Z" fill="#3E6E7A"/>
<path opacity="0.2" d="M49.0825 20.0751L49.4222 19.2725V26.591L49.0825 27.3936V20.0751Z" fill="#3E6E7A"/>
<path opacity="0.5" d="M49.4223 25.7881V26.5908L49.0826 27.3934H47.0448L46.8911 26.5908V25.7881H49.4223Z" fill="#CCD4E2"/>
<g style="mix-blend-mode:soft-light">
<path d="M24.5679 77.8184H108.165V81.0002C108.165 83.7616 105.927 86.0002 103.165 86.0002H29.5679C26.8065 86.0002 24.5679 83.7616 24.5679 81.0002V77.8184Z" fill="white"/>
</g>
<path fill-rule="evenodd" clip-rule="evenodd" d="M34.1493 75.7012H24.3247V80.9993C24.3247 83.7608 26.5633 85.9993 29.3247 85.9993H39.1493C36.3879 85.9993 34.1493 83.7608 34.1493 80.9993V75.7012Z" fill="#E5ECF0"/>
<path fill-rule="evenodd" clip-rule="evenodd" d="M98.5001 75.7012H108.325V80.9993C108.325 83.7608 106.086 85.9993 103.325 85.9993H93.5001C96.2615 85.9993 98.5001 83.7608 98.5001 80.9993V75.7012Z" fill="#E5ECF0"/>
<defs>
<linearGradient id="paint0_linear" x1="55.3247" y1="-323.016" x2="55.3247" y2="294.603" gradientUnits="userSpaceOnUse">
<stop stop-color="#005C8C"/>
<stop offset="1" stop-color="#003754"/>
</linearGradient>
</defs>
</svg>
