<svg width="132" height="102" viewBox="0 0 132 102" fill="none" xmlns="http://www.w3.org/2000/svg">
<g clip-path="url(#clip0)">
<mask id="mask0" mask-type="alpha" maskUnits="userSpaceOnUse" x="0" y="0" width="135" height="102">
<path d="M5 0.5H133.531V101.5H5C2.51472 101.5 0.5 99.4853 0.5 97V5C0.5 2.51472 2.51472 0.5 5 0.5Z" fill="#003E6B" stroke="#668BA6"/>
</mask>
<g mask="url(#mask0)">
<path d="M453.877 -323.653H-342.185V293.966H453.877V-323.653Z" fill="url(#paint0_linear)"/>
<path d="M-317.789 90.5723V257.999H-205.993V140.806H352.06V257.999H358.863V90.5723H-317.789Z" fill="#668BA6"/>
<path d="M358.428 89.9561H-329.517V101.626H358.428V89.9561Z" fill="#99B2C4"/>
<g opacity="0.2">
<g opacity="0.2">
<path opacity="0.2" d="M110.962 101.626H-242.57V108.812H110.962V101.626Z" fill="#7D7D7D"/>
</g>
</g>
<path d="M358.428 80.0029H-318.683L-329.517 89.9551H358.428V80.0029Z" fill="#B0C3D0"/>
</g>
<path fill-rule="evenodd" clip-rule="evenodd" d="M40.408 30.25H43.2053L43.555 33.131H90.1781L90.5277 30.25H93.0337V36.0709H93.092V38.6892L89.7701 36.0709H43.7298L40.408 38.6892V36.0709V30.25ZM40.408 38.6892L40 39.0107H40.408V38.6892ZM93.092 38.6892L93.5 39.0107H93.092V38.6892Z" fill="#F2F2F2" fill-opacity="0.3"/>
<path fill-rule="evenodd" clip-rule="evenodd" d="M40.4697 76.3477L93.0884 75.8804L89.887 73.4274L43.9621 73.4274L43.9039 73.4274L43.6808 73.6171L40.4115 75.822L41.0879 75.822L40.4697 76.3477Z" fill="#758CA2" fill-opacity="0.6"/>
<path d="M43.9097 73.417L40.6047 75.7217L40.2058 30.041L43.5678 30.041L43.9097 32.9698L43.9097 73.417Z" fill="#99A7AD" fill-opacity="0.6"/>
<path d="M89.7959 73.3294L93.0218 75.7217L93.4997 29.8914L90.0946 29.8324L89.7959 32.9916L89.7959 73.3294Z" fill="#99A7AD" fill-opacity="0.6"/>
<path d="M43.9097 32.9619H44.9385V73.428H43.9097V32.9619Z" fill="#F2F2F2" fill-opacity="0.5"/>
<path d="M88.7671 32.9619H89.7959V73.428H88.7671V32.9619Z" fill="#F2F2F2" fill-opacity="0.5"/>
<path d="M77.2773 33.1699L43.7036 67.1206V73.4274H48.1335L87.9439 33.1699H86.4867H77.2773Z" fill="white" fill-opacity="0.2"/>
<path d="M89.796 33.7959L50.4941 73.4276H52.532L89.796 35.7951V33.7959Z" fill="white" fill-opacity="0.2"/>
<path fill-rule="evenodd" clip-rule="evenodd" d="M43.8464 29.624H40.5828C40.2609 29.624 40 29.8882 40 30.214V75.7577C40 76.0836 40.2609 76.3477 40.5828 76.3477H92.9172C93.239 76.3477 93.4999 76.0836 93.4999 75.7577V30.214C93.4999 29.8882 93.239 29.624 92.9172 29.624H89.8867V32.4558C89.8867 32.7816 89.6257 33.0457 89.3039 33.0457H44.4292C44.1073 33.0457 43.8464 32.7816 43.8464 32.4558V29.624Z" fill="#F2F2F2" fill-opacity="0.5"/>
<path fill-rule="evenodd" clip-rule="evenodd" d="M40.8159 30.4499V75.5218H92.684V30.4499H90.7026V32.4558C90.7026 33.2377 90.0763 33.8716 89.3039 33.8716H44.4292C43.6567 33.8716 43.0305 33.2377 43.0305 32.4558V30.4499H40.8159ZM40.5828 29.624C40.2609 29.624 40 29.8882 40 30.214V75.7577C40 76.0836 40.2609 76.3477 40.5828 76.3477H92.9172C93.239 76.3477 93.4999 76.0836 93.4999 75.7577V30.214C93.4999 29.8882 93.239 29.624 92.9172 29.624H89.8867V32.4558C89.8867 32.7816 89.6257 33.0457 89.3039 33.0457H44.4292C44.1073 33.0457 43.8464 32.7816 43.8464 32.4558V29.624H40.5828Z" fill="#F2F2F2"/>
<path opacity="0.2" d="M45.7615 38.3848H46.9961V33.5873H45.7615V38.3848Z" fill="#3E6E7A"/>
<path opacity="0.2" d="M45.7615 38.3848H46.9961V33.5873H45.7615V38.3848Z" fill="#3E6E7A"/>
<path opacity="0.2" d="M45.5557 37.7588H46.9961V32.9613H45.5557V37.7588Z" fill="#3E6E7A"/>
<path opacity="0.2" d="M45.7614 33.4948L45.5557 32.9619V37.8523L45.7614 38.3852V33.4948Z" fill="#3E6E7A"/>
<path opacity="0.5" d="M45.5557 37.3418V37.8326L45.7529 38.3847H46.9043L46.996 37.8326V37.3418H45.5557Z" fill="#CCD4E2"/>
<path opacity="0.2" d="M75.1863 38.3848H76.4209V33.5873H75.1863V38.3848Z" fill="#3E6E7A"/>
<path opacity="0.2" d="M75.1863 38.3848H76.4209V33.5873H75.1863V38.3848Z" fill="#3E6E7A"/>
<path opacity="0.2" d="M74.9803 37.7588H76.6265V32.9613H74.9803V37.7588Z" fill="#3E6E7A"/>
<path opacity="0.2" d="M76.4209 38.3842L76.6267 37.8513V32.9609L76.4209 33.4939V38.3842Z" fill="#3E6E7A"/>
<path opacity="0.2" d="M75.1872 33.4948L74.9814 32.9619V37.8523L75.1872 38.3852V33.4948Z" fill="#3E6E7A"/>
<path opacity="0.5" d="M74.9805 37.3418V37.8326L75.2007 38.3847H76.5218L76.6266 37.8326V37.3418H74.9805Z" fill="#CCD4E2"/>
<path opacity="0.2" d="M78.0669 38.3848H79.5073V33.5873H78.0669V38.3848Z" fill="#3E6E7A"/>
<path opacity="0.2" d="M78.0669 38.3848H79.5073V33.5873H78.0669V38.3848Z" fill="#3E6E7A"/>
<path opacity="0.2" d="M77.8612 37.7588H79.5073V32.9613H77.8612V37.7588Z" fill="#3E6E7A"/>
<path opacity="0.2" d="M78.0671 33.4948L77.8613 32.9619V37.8523L78.0671 38.3852V33.4948Z" fill="#3E6E7A"/>
<path opacity="0.5" d="M77.8613 37.3418V37.8326L78.0822 38.3847H79.4075L79.5075 37.8326V37.3418H77.8613Z" fill="#CCD4E2"/>
<path opacity="0.2" d="M88.1497 33.5869H86.915V38.3845H88.1497V33.5869Z" fill="#3E6E7A"/>
<path opacity="0.2" d="M88.1497 33.5869H86.915V38.3845H88.1497V33.5869Z" fill="#3E6E7A"/>
<path opacity="0.2" d="M88.3556 32.9619H86.7095V37.7594H88.3556V32.9619Z" fill="#3E6E7A"/>
<path opacity="0.2" d="M86.9152 38.3852L86.7095 37.8492V32.9619L86.9152 33.4979V38.3852Z" fill="#3E6E7A"/>
<path opacity="0.2" d="M88.1499 33.497L88.3557 32.9609V37.8482L88.1499 38.3842V33.497Z" fill="#3E6E7A"/>
<path opacity="0.5" d="M88.3556 37.3418V37.8633L88.1302 38.3847H86.8143L86.7095 37.8633V37.3418H88.3556Z" fill="#CCD4E2"/>
<path opacity="0.2" d="M85.269 33.5869H83.8286V38.3845H85.269V33.5869Z" fill="#3E6E7A"/>
<path opacity="0.2" d="M85.269 33.5869H83.8286V38.3845H85.269V33.5869Z" fill="#3E6E7A"/>
<path opacity="0.2" d="M85.4748 32.9619H83.8286V37.7594H85.4748V32.9619Z" fill="#3E6E7A"/>
<path opacity="0.2" d="M85.269 33.497L85.4748 32.9609V37.8482L85.269 38.3842V33.497Z" fill="#3E6E7A"/>
<path opacity="0.5" d="M85.4748 37.3408V37.8623L85.2546 38.3838H83.9335L83.8286 37.8623V37.3408H85.4748Z" fill="#CCD4E2"/>
<path opacity="0.2" d="M82.1828 33.5869H80.9482V38.3845H82.1828V33.5869Z" fill="#3E6E7A"/>
<path opacity="0.2" d="M82.1828 33.5869H80.9482V38.3845H82.1828V33.5869Z" fill="#3E6E7A"/>
<path opacity="0.2" d="M82.3888 32.9609H80.7427V37.7585H82.3888V32.9609Z" fill="#3E6E7A"/>
<path opacity="0.2" d="M80.9484 38.3842L80.7427 37.8482V32.9609L80.9484 33.497V38.3842Z" fill="#3E6E7A"/>
<path opacity="0.2" d="M82.1831 33.497L82.3889 32.9609V37.8482L82.1831 38.3842V33.497Z" fill="#3E6E7A"/>
<path opacity="0.5" d="M82.3883 37.3418V37.8633L82.1675 38.3847H80.8421L80.7422 37.8633V37.3418H82.3883Z" fill="#CCD4E2"/>
<path opacity="0.2" d="M60.3713 38.3848H61.606V33.5873H60.3713V38.3848Z" fill="#3E6E7A"/>
<path opacity="0.2" d="M60.3713 38.3848H61.606V33.5873H60.3713V38.3848Z" fill="#3E6E7A"/>
<path opacity="0.2" d="M60.1654 37.7588H61.8115V32.9613H60.1654V37.7588Z" fill="#3E6E7A"/>
<path opacity="0.2" d="M61.606 38.3842L61.8117 37.8513V32.9609L61.606 33.4939V38.3842Z" fill="#3E6E7A"/>
<path opacity="0.2" d="M60.3713 33.4948L60.1655 32.9619V37.8523L60.3713 38.3852V33.4948Z" fill="#3E6E7A"/>
<path opacity="0.5" d="M60.1655 37.3418V37.8326L60.3857 38.3847H61.7068L61.8117 37.8326V37.3418H60.1655Z" fill="#CCD4E2"/>
<path opacity="0.2" d="M63.252 38.3848H64.6924V33.5873H63.252V38.3848Z" fill="#3E6E7A"/>
<path opacity="0.2" d="M63.252 38.3848H64.6924V33.5873H63.252V38.3848Z" fill="#3E6E7A"/>
<path opacity="0.2" d="M63.0462 37.7588H64.6924V32.9613H63.0462V37.7588Z" fill="#3E6E7A"/>
<path opacity="0.2" d="M63.2522 33.4948L63.0464 32.9619V37.8523L63.2522 38.3852V33.4948Z" fill="#3E6E7A"/>
<path opacity="0.5" d="M63.0464 37.3418V37.8326L63.2673 38.3847H64.5926L64.6925 37.8326V37.3418H63.0464Z" fill="#CCD4E2"/>
<path opacity="0.2" d="M73.3347 33.5869H72.1001V38.3845H73.3347V33.5869Z" fill="#3E6E7A"/>
<path opacity="0.2" d="M73.3347 33.5869H72.1001V38.3845H73.3347V33.5869Z" fill="#3E6E7A"/>
<path opacity="0.2" d="M73.5402 32.9619H71.894V37.7594H73.5402V32.9619Z" fill="#3E6E7A"/>
<path opacity="0.2" d="M72.0998 38.3852L71.894 37.8492V32.9619L72.0998 33.4979V38.3852Z" fill="#3E6E7A"/>
<path opacity="0.2" d="M73.3345 33.497L73.5402 32.9609V37.8482L73.3345 38.3842V33.497Z" fill="#3E6E7A"/>
<path opacity="0.5" d="M73.5402 37.3418V37.8633L73.3148 38.3847H71.9989L71.894 37.8633V37.3418H73.5402Z" fill="#CCD4E2"/>
<path opacity="0.2" d="M70.4539 33.5869H69.2192V38.3845H70.4539V33.5869Z" fill="#3E6E7A"/>
<path opacity="0.2" d="M70.4539 33.5869H69.2192V38.3845H70.4539V33.5869Z" fill="#3E6E7A"/>
<path opacity="0.2" d="M70.6598 32.9619H69.0137V37.7594H70.6598V32.9619Z" fill="#3E6E7A"/>
<path opacity="0.2" d="M69.2194 38.3852L69.0137 37.8492V32.9619L69.2194 33.4979V38.3852Z" fill="#3E6E7A"/>
<path opacity="0.2" d="M70.4536 33.497L70.6594 32.9609V37.8482L70.4536 38.3842V33.497Z" fill="#3E6E7A"/>
<path opacity="0.5" d="M70.6598 37.3418V37.8633L70.4396 38.3847H69.1185L69.0137 37.8633V37.3418H70.6598Z" fill="#CCD4E2"/>
<path opacity="0.2" d="M67.3674 33.5869H66.1328V38.3845H67.3674V33.5869Z" fill="#3E6E7A"/>
<path opacity="0.2" d="M67.3674 33.5869H66.1328V38.3845H67.3674V33.5869Z" fill="#3E6E7A"/>
<path opacity="0.2" d="M67.5734 32.9609H65.9272V37.7585H67.5734V32.9609Z" fill="#3E6E7A"/>
<path opacity="0.2" d="M66.133 38.3842L65.9272 37.8482V32.9609L66.133 33.497V38.3842Z" fill="#3E6E7A"/>
<path opacity="0.2" d="M67.3672 33.497L67.573 32.9609V37.8482L67.3672 38.3842V33.497Z" fill="#3E6E7A"/>
<path opacity="0.5" d="M67.5729 37.3418V37.8633L67.352 38.3847H66.0267L65.9268 37.8633V37.3418H67.5729Z" fill="#CCD4E2"/>
<path opacity="0.2" d="M48.6419 38.3848H49.8765V33.5873H48.6419V38.3848Z" fill="#3E6E7A"/>
<path opacity="0.2" d="M48.6419 38.3848H49.8765V33.5873H48.6419V38.3848Z" fill="#3E6E7A"/>
<path opacity="0.2" d="M48.4364 37.7588H50.0825V32.9613H48.4364V37.7588Z" fill="#3E6E7A"/>
<path opacity="0.2" d="M49.8765 38.3842L50.0822 37.8513V32.9609L49.8765 33.4939V38.3842Z" fill="#3E6E7A"/>
<path opacity="0.2" d="M48.6423 33.4939L48.4365 32.9609V37.8513L48.6423 38.3842V33.4939Z" fill="#3E6E7A"/>
<path opacity="0.5" d="M48.4365 37.3418V37.8326L48.6567 38.3847H49.9778L50.0827 37.8326V37.3418H48.4365Z" fill="#CCD4E2"/>
<path opacity="0.2" d="M51.5232 38.3848H52.7578V33.5873H51.5232V38.3848Z" fill="#3E6E7A"/>
<path opacity="0.2" d="M51.5232 38.3848H52.7578V33.5873H51.5232V38.3848Z" fill="#3E6E7A"/>
<path opacity="0.2" d="M51.3172 37.7588H52.9634V32.9613H51.3172V37.7588Z" fill="#3E6E7A"/>
<path opacity="0.2" d="M52.7578 38.3842L52.9636 37.8513V32.9609L52.7578 33.4939V38.3842Z" fill="#3E6E7A"/>
<path opacity="0.2" d="M51.5236 33.4948L51.3179 32.9619V37.8523L51.5236 38.3852V33.4948Z" fill="#3E6E7A"/>
<path opacity="0.5" d="M51.3174 37.3418V37.8326L51.5383 38.3847H52.8636L52.9635 37.8326V37.3418H51.3174Z" fill="#CCD4E2"/>
<path opacity="0.2" d="M58.7248 33.5869H57.4902V38.3845H58.7248V33.5869Z" fill="#3E6E7A"/>
<path opacity="0.2" d="M58.7248 33.5869H57.4902V38.3845H58.7248V33.5869Z" fill="#3E6E7A"/>
<path opacity="0.2" d="M58.9303 32.9609H57.2842V37.7585H58.9303V32.9609Z" fill="#3E6E7A"/>
<path opacity="0.2" d="M57.49 38.3842L57.2842 37.8482V32.9609L57.49 33.497V38.3842Z" fill="#3E6E7A"/>
<path opacity="0.2" d="M58.7246 33.497L58.9304 32.9609V37.8482L58.7246 38.3842V33.497Z" fill="#3E6E7A"/>
<path opacity="0.5" d="M58.9303 37.3418V37.8633L58.7101 38.3847H57.389L57.2842 37.8633V37.3418H58.9303Z" fill="#CCD4E2"/>
<path opacity="0.2" d="M55.6384 33.5869H54.4038V38.3845H55.6384V33.5869Z" fill="#3E6E7A"/>
<path opacity="0.2" d="M55.6384 33.5869H54.4038V38.3845H55.6384V33.5869Z" fill="#3E6E7A"/>
<path opacity="0.2" d="M55.8444 32.9609H54.1982V37.7585H55.8444V32.9609Z" fill="#3E6E7A"/>
<path opacity="0.2" d="M54.404 38.3842L54.1982 37.8482V32.9609L54.404 33.497V38.3842Z" fill="#3E6E7A"/>
<path opacity="0.2" d="M55.6382 33.497L55.844 32.9609V37.8482L55.6382 38.3842V33.497Z" fill="#3E6E7A"/>
<path opacity="0.5" d="M55.8444 37.3418V37.8633L55.6235 38.3847H54.2982L54.1982 37.8633V37.3418H55.8444Z" fill="#CCD4E2"/>
<g style="mix-blend-mode:soft-light">
<path d="M40 71.1328H93.5V75.7681C93.5 76.0881 93.239 76.3475 92.9172 76.3475H40.5828C40.2609 76.3475 40 76.0881 40 75.7681V71.1328Z" fill="white"/>
</g>
<path fill-rule="evenodd" clip-rule="evenodd" d="M46.214 69.6729H40V75.7621C40 76.0855 40.2581 76.3476 40.5764 76.3476H46.7904C46.472 76.3476 46.214 76.0855 46.214 75.7621V69.6729Z" fill="#E5ECF0"/>
<path fill-rule="evenodd" clip-rule="evenodd" d="M87.0977 69.6729H93.5V75.7621C93.5 76.0855 93.2341 76.3476 92.9061 76.3476H86.5038C86.8318 76.3476 87.0977 76.0855 87.0977 75.7621V69.6729Z" fill="#E5ECF0"/>
<path opacity="0.5" fill-rule="evenodd" clip-rule="evenodd" d="M22.5001 25.4521H111L110.964 25.9973L111 25.9675L107 87.2878H94.5L92.9785 78.9248H40.5215L39 87.2878H26.5L22.5 25.9675L22.5358 25.9974L22.5001 25.4521Z" fill="#F2F2F2"/>
<mask id="mask1" mask-type="alpha" maskUnits="userSpaceOnUse" x="22" y="25" width="89" height="63">
<path opacity="0.5" fill-rule="evenodd" clip-rule="evenodd" d="M22.5 25.4521H111L110.792 26.1414L111 25.9675L107 87.2878H94.5L92.6097 76.8974H40.8904L39 87.2878H26.5L22.5 25.9675L22.5791 26.0338L22.5 25.4521Z" fill="#F2F2F2"/>
</mask>
<g mask="url(#mask1)">
<path opacity="0.3" d="M61.75 27.5137L33.75 85.2269L50.75 87.8034L80 27.5137H61.75Z" fill="white"/>
<path opacity="0.3" d="M82.5 27.5137L53 88.3187H55.75L85.25 27.5137H82.5Z" fill="white"/>
</g>
<path d="M30.5 25.4521H33.5V72.39C33.5 73.2185 32.8284 73.89 32 73.89V73.89C31.1716 73.89 30.5 73.2185 30.5 72.39V25.4521Z" fill="#333333"/>
<path d="M100 25.4521H103V72.39C103 73.2185 102.328 73.89 101.5 73.89V73.89C100.672 73.89 100 73.2185 100 72.39V25.4521Z" fill="#AD210C"/>
<path opacity="0.5" fill-rule="evenodd" clip-rule="evenodd" d="M93 78.9585L94.5 87.2878H107L111 25.9674L110.96 26.0009L111 25.4521H22.5L22.5544 26.013L22.5 25.9674L26.5 87.2878H39L40.557 78.9585H93ZM38.307 85.2266L39.864 76.8974H93.693L95.193 85.2266H106.125L109.779 29.2145L109.711 29.2717L109.839 27.5133H23.7198L23.8994 29.364L23.7208 29.2145L27.3745 85.2266H38.307Z" fill="#F2F2F2"/>
<path opacity="0.5" d="M45.404 72.5889H88.6364L93.5 75.63H40L45.404 72.5889Z" fill="#F2F2F2" fill-opacity="0.5"/>
<path opacity="0.3" d="M27 81.1045H40L39.25 85.2269H27.5L27 81.1045Z" fill="#F2F2F2" fill-opacity="0.5"/>
<path opacity="0.3" d="M106.5 81.1045H93.5L94.25 85.2269H106L106.5 81.1045Z" fill="#F2F2F2" fill-opacity="0.5"/>
<path fill-rule="evenodd" clip-rule="evenodd" d="M33.5001 11.2607H30.5001V15.6064C29.0341 16.1998 28 17.637 28 19.3157V24.439H36V19.3157C36 17.6371 34.966 16.1999 33.5001 15.6065V11.2607Z" fill="#444444"/>
<path opacity="0.5" fill-rule="evenodd" clip-rule="evenodd" d="M33.5 11.2607H32.5V15.7926C32.5 15.7926 32.5 15.7927 32.5 15.7927V15.8224H32.5328C32.6069 15.8897 32.6804 15.9556 32.753 16.0206C33.7072 16.8762 34.5 17.587 34.5 19.3705V24.439H36V19.3705C36 17.6688 34.9659 16.212 33.5 15.6104V11.2607Z" fill="#111111"/>
<path opacity="0.2" fill-rule="evenodd" clip-rule="evenodd" d="M31 11.2607H31.5V15.8224H31.4962C31.4975 15.8224 31.4987 15.8224 31.5 15.8224C31.2301 16.096 30.9834 16.3125 30.7626 16.5063C29.961 17.21 29.5 17.6147 29.5 19.3704V24.4389H28.5V19.3704C28.5 17.6688 29.5341 16.2119 31 15.6104V11.2607Z" fill="#999999"/>
<path fill-rule="evenodd" clip-rule="evenodd" d="M103 11.2607H100V15.6065C98.5341 16.1999 97.5 17.637 97.5 19.3157V24.439H105.5V19.3157C105.5 17.637 104.466 16.1998 103 15.6065V11.2607Z" fill="#AD210C"/>
<path opacity="0.5" fill-rule="evenodd" clip-rule="evenodd" d="M103 11.2607H102V15.7926C102 15.7926 102 15.7927 102 15.7927V15.8224H102.033C102.107 15.8897 102.18 15.9556 102.253 16.0206C103.207 16.8762 104 17.587 104 19.3705V24.439H105.5V19.3705C105.5 17.6688 104.466 16.212 103 15.6104V11.2607Z" fill="#541005"/>
<path opacity="0.5" fill-rule="evenodd" clip-rule="evenodd" d="M100.5 11.2607H101V15.8224H100.996C100.997 15.8224 100.999 15.8224 101 15.8224C100.73 16.096 100.483 16.3125 100.263 16.5063C99.461 17.21 99 17.6147 99 19.3704V24.4389H98V19.3704C98 17.6688 99.0341 16.2119 100.5 15.6104V11.2607Z" fill="#C48686"/>
<path opacity="0.6" fill-rule="evenodd" clip-rule="evenodd" d="M24.7842 35.2734H108.801L107.601 67.4473H108.6L106 85.6939H95.0002L91.3655 75.4908H42.1366L38.5002 85.6936H27.5002L25.1002 68.9676L26.043 69.0179L24.7842 35.2734Z" fill="#4FB7F2"/>
<path d="M19.5 26.0677C19.5 25.0719 20.3073 24.2646 21.3031 24.2646H110.697C111.693 24.2646 112.5 25.0719 112.5 26.0677V26.0677C112.5 31.0467 108.464 35.083 103.485 35.083H28.5153C23.5363 35.083 19.5 31.0467 19.5 26.0677V26.0677Z" fill="#F2F2F2" fill-opacity="0.5"/>
<path d="M21.3031 25.2646H110.697C111.14 25.2646 111.5 25.6242 111.5 26.0677C111.5 30.4944 107.911 34.083 103.485 34.083H28.5153C24.0886 34.083 20.5 30.4944 20.5 26.0677C20.5 25.6242 20.8595 25.2646 21.3031 25.2646Z" stroke="#F2F2F2" stroke-opacity="0.5" stroke-width="2"/>
<ellipse cx="34.7347" cy="75.7705" rx="1.26545" ry="1.28419" fill="white" fill-opacity="0.8"/>
<ellipse cx="105.5" cy="64.627" rx="1.26545" ry="1.28419" fill="white" fill-opacity="0.8"/>
<ellipse cx="103.266" cy="77.6328" rx="1.26545" ry="1.28419" fill="white" fill-opacity="0.8"/>
<ellipse cx="28.7342" cy="77.6328" rx="1.26545" ry="1.28419" fill="white" fill-opacity="0.8"/>
<ellipse cx="96.7347" cy="68.3887" rx="1.26545" ry="1.28419" fill="white" fill-opacity="0.8"/>
<ellipse cx="37.2655" cy="69.8496" rx="1.26546" ry="1.28419" fill="white" fill-opacity="0.8"/>
<ellipse cx="98.0003" cy="74.4375" rx="1.26545" ry="1.28419" fill="white" fill-opacity="0.8"/>
</g>
<defs>
<linearGradient id="paint0_linear" x1="55.8462" y1="-323.653" x2="55.8462" y2="293.966" gradientUnits="userSpaceOnUse">
<stop stop-color="#005C8C"/>
<stop offset="1" stop-color="#003754"/>
</linearGradient>
<clipPath id="clip0">
<rect width="132" height="102" fill="white"/>
</clipPath>
</defs>
</svg>
