<svg width="314" height="264" viewBox="0 0 314 264" fill="none" xmlns="http://www.w3.org/2000/svg">
<path d="M314 263.997L314 0L0.000986814 -1.37253e-05L0.000975275 263.997L314 263.997Z" fill="white"/>
<path opacity="0.4" d="M303.937 253.826L303.937 11.1777L12.8971 11.1777L12.897 253.833L303.937 253.833L303.937 253.826Z" fill="#7CB4D0"/>
<path opacity="0.1" d="M303.937 253.826L303.937 11.1777L12.8971 11.1777L12.897 253.833L303.937 253.833L303.937 253.826Z" fill="#BCDEEA"/>
<path opacity="0.5" d="M303.939 11.1749L314 0L0.000986814 -1.37253e-05L12.8986 11.1749L303.939 11.1749ZM12.8986 253.827L0.000975275 264L314 264L303.939 253.834L12.8986 253.834L12.8986 253.827Z" fill="#7CB4D0"/>
<path opacity="0.4" d="M314 263.997L314 0L0.000986814 -1.37253e-05L0.000975275 263.997L314 263.997Z" fill="#7CB4D0"/>
<path opacity="0.8" d="M12.9951 253.827L12.9951 11.1784L-0.000387061 -5.68052e-07L-0.000398601 263.997L12.9951 253.83L12.9951 253.827Z" fill="#7CB4D0"/>
<path opacity="0.2" d="M278.125 19.3975L278.125 56.5067L291.978 56.5067L291.978 19.3975L278.125 19.3975Z" fill="#3E6E7A"/>
<path opacity="0.2" d="M280.434 19.3975L280.434 56.5067L291.978 56.5067L291.978 19.3975L280.431 19.3975L280.434 19.3975Z" fill="#3E6E7A"/>
<path opacity="0.2" d="M291.98 19.3993L294.29 16.6499L280.436 16.6499L278.127 19.3491L291.98 19.3993V19.3993ZM278.127 56.5066L280.436 57.8813L294.29 57.8813L291.98 56.5066L278.127 56.5066Z" fill="#3E6E7A"/>
<path opacity="0.5" d="M280.435 16.6499L278.125 19.3993L278.125 56.5066L280.435 57.8813L280.435 16.6499Z" fill="white"/>
<path opacity="0.2" d="M280.436 16.6499L280.436 57.8813L294.29 57.8813L294.29 16.6499L280.436 16.6499V16.6499Z" fill="#3E6E7A"/>
<path opacity="0.2" d="M280.436 64.6338L280.436 105.143L294.29 105.143L294.29 64.6338L280.436 64.6338V64.6338Z" fill="#3E6E7A"/>
<path opacity="0.2" d="M278.125 67.334L278.125 103.796L291.978 103.796L291.978 67.334L278.125 67.334Z" fill="#3E6E7A"/>
<path opacity="0.2" d="M280.436 67.3333L280.436 103.796L291.98 103.796L291.98 67.3333L280.433 67.3333L280.436 67.3333ZM291.98 67.3333L294.29 64.6338L280.436 64.6338L278.127 67.2859L291.98 67.3333V67.3333ZM278.127 103.796L280.436 105.144L294.29 105.144L291.98 103.796L278.127 103.796Z" fill="#3E6E7A"/>
<path opacity="0.5" d="M280.435 64.6338L278.125 67.3333L278.125 103.796L280.435 105.146L280.435 64.6338Z" fill="white"/>
<path opacity="0.2" d="M280.436 111.899L280.436 152.412L294.29 152.412L294.29 111.899L280.436 111.899V111.899Z" fill="#3E6E7A"/>
<path opacity="0.2" d="M278.125 114.599L278.125 151.061L291.978 151.061L291.978 114.599L278.125 114.599Z" fill="#3E6E7A"/>
<path opacity="0.2" d="M280.434 114.599L280.434 151.061L291.978 151.061L291.978 114.599L280.431 114.599L280.434 114.599Z" fill="#3E6E7A"/>
<path opacity="0.2" d="M291.98 114.598L294.29 111.899L280.436 111.899L278.127 114.551L291.98 114.598V114.598ZM278.127 151.061L280.436 152.412L294.29 152.412L291.98 151.061L278.127 151.061Z" fill="#3E6E7A"/>
<path opacity="0.5" d="M280.435 111.898L278.125 114.598L278.125 151.06L280.435 152.411L280.435 111.898Z" fill="white"/>
<path opacity="0.2" d="M280.436 159.163L280.436 199.672L294.29 199.672L294.29 159.163L280.436 159.163V159.163Z" fill="#3E6E7A"/>
<path opacity="0.2" d="M278.125 161.863L278.125 198.325L291.978 198.325L291.978 161.863L278.125 161.863Z" fill="#3E6E7A"/>
<path opacity="0.2" d="M280.436 161.863L280.436 198.325L291.98 198.325L291.98 161.863L280.433 161.863L280.436 161.863ZM291.98 161.863L294.29 159.163L280.436 159.163L278.127 161.815L291.98 161.863V161.863ZM278.127 198.325L280.436 199.674L294.29 199.674L291.98 198.325L278.127 198.325Z" fill="#3E6E7A"/>
<path opacity="0.5" d="M280.435 159.163L278.125 161.862L278.125 198.325L280.435 199.675L280.435 159.163Z" fill="white"/>
<path opacity="0.2" d="M280.436 206.428L280.436 246.941L294.29 246.941L294.29 206.428L280.436 206.428V206.428Z" fill="#3E6E7A"/>
<path opacity="0.2" d="M278.125 209.128L278.125 245.591L291.978 245.591L291.978 209.128L278.125 209.128Z" fill="#3E6E7A"/>
<path opacity="0.2" d="M280.434 209.128L280.434 245.591L291.978 245.591L291.978 209.128L280.431 209.128L280.434 209.128Z" fill="#3E6E7A"/>
<path opacity="0.2" d="M291.98 209.128L294.29 206.428L280.436 206.428L278.127 209.08L291.98 209.128V209.128ZM278.127 245.59L280.436 246.941L294.29 246.941L291.98 245.59L278.127 245.59Z" fill="#3E6E7A"/>
<path opacity="0.5" d="M280.435 206.428L278.125 209.128L278.125 245.59L280.435 246.941L280.435 206.428Z" fill="white"/>
</svg>
