<?xml version="1.0" encoding="utf-8"?>
<!-- Generator: Adobe Illustrator 21.0.0, SVG Export Plug-In . SVG Version: 6.00 Build 0)  -->
<svg version="1.1" id="Layer_1" xmlns="http://www.w3.org/2000/svg" xmlns:xlink="http://www.w3.org/1999/xlink" x="0px" y="0px"
	 viewBox="0 0 744 396" style="enable-background:new 0 0 744 396;" xml:space="preserve">
<style type="text/css">
	.st0{fill:#FFFFFF;filter:url(#Adobe_OpacityMaskFilter);}
	.st1{mask:url(#a);fill:#F2F2F2;fill-opacity:0.5;stroke:#F2F2F2;stroke-width:14;}
	.st2{fill:#F2F2F2;fill-opacity:0.3;}
	.st3{fill:#99A7AD;fill-opacity:0.6;}
	.st4{opacity:0.7;fill:#F2F2F2;enable-background:new    ;}
	.st5{fill:#F2F2F2;fill-opacity:0.5;}
	.st6{fill:#FFFFFF;fill-opacity:0.2;}
	.st7{fill:#444444;}
	.st8{fill:#333333;}
	.st9{fill:#AD210C;}
	.st10{fill:#981B08;}
	.st11{fill:#FFFFFF;}
	.st12{font-family:'MyriadPro-Regular';}
	.st13{font-size:72px;}
</style>
<defs>
	<filter id="Adobe_OpacityMaskFilter" filterUnits="userSpaceOnUse" x="-7" y="-7" width="758" height="410">
		<feColorMatrix  type="matrix" values="1 0 0 0 0  0 1 0 0 0  0 0 1 0 0  0 0 0 1 0"/>
	</filter>
</defs>
<mask maskUnits="userSpaceOnUse" x="-7" y="-7" width="758" height="410" id="a">
	<path class="st0" d="M5,0h734c2.8,0,5,2.2,5,5v386c0,2.8-2.2,5-5,5H5c-2.8,0-5-2.2-5-5V5C0,2.2,2.2,0,5,0z"/>
</mask>
<path class="st1" d="M5,0h734c2.8,0,5,2.2,5,5v386c0,2.8-2.2,5-5,5H5c-2.8,0-5-2.2-5-5V5C0,2.2,2.2,0,5,0z"/>
<path class="st2" d="M3,4h741l-17,25h-1l-16,25H602l-32-25H175l-32,25H35L19,29L3,4z M744,396H3l17-25h552l32-25h108l16,25L744,396z
	 M20,371l16-25h108l32,25H20z"/>
<path class="st3" d="M713,49l24-45v384l-24-42V49z M32,348L6,393L7,8l27,46L32,348z M176,370.2L143.5,345V54L176,28.3V370.2z
	 M571,371.2l31-24.2V54l-31-24.7V371.2z"/>
<path class="st4" d="M744,115c0,2.8-2.2,5-5,5h-54c-33.7,0-61-27.3-61-61V5c0-2.8,2.2-5,5-5h110c2.8,0,5,2.2,5,5V115z M0,281
	c0-2.8,2.2-5,5-5h54c33.7,0,61,27.3,61,61v54c0,2.8-2.2,5-5,5H5c-2.8,0-5-2.2-5-5V281z"/>
<path class="st5" d="M176,29h9v342h-9V29z M562,29h9v342h-9V29z"/>
<path class="st6" d="M463.5,29.5l-288,288V371h38L555,29.5H463.5z M571,34.5l-337.5,337H251l320-320V34.5z"/>
<circle class="st7" cx="57" cy="338" r="46"/>
<path class="st8" d="M103,338c0,25.4-20.6,46-46,46v-49v-43C82.4,292,103,312.6,103,338z"/>
<circle class="st9" cx="684" cy="60" r="46"/>
<path class="st10" d="M730,60c0,25.4-20.6,46-46,46V57V14C709.4,14,730,34.6,730,60z"/>
<text transform="matrix(1 0 0 1 663.6501 79.317)" class="st11 st12 st13">+</text>
<text transform="matrix(1 0 0 1 46.1298 355.6758)" class="st11 st12 st13">-</text>
</svg>
