<svg xmlns="http://www.w3.org/2000/svg" width="194" height="151" fill="none" viewBox="0 0 194 151">
    <path fill="#909599" d="M13.439 62.51C18.43 48.97 33.107 42.158 47.248 45.28c36.858 8.136 64.71 8.103 101.353.21 14.719-3.17 29.853 4.452 34.309 18.778 6.394 20.558 13.562 47.683 10.257 57.064-5.58 15.839-185.796 16.951-192.216 0C-2.94 111.055 5.886 83.004 13.44 62.51z"/>
    <path fill="#EAEAEC" d="M13.439 49.355c4.991-13.541 19.668-20.352 33.809-17.23 36.858 8.136 64.71 8.103 101.353.21 14.719-3.17 29.853 4.452 34.309 18.778 6.394 20.558 13.562 47.683 10.257 57.064-5.58 15.839-185.796 16.951-192.216 0C-2.94 97.9 5.886 69.849 13.44 49.355z"/>
    <path fill="#0063C3" fill-rule="evenodd" d="M133.674 49.078c-8.751 2.42-21.689 3.953-36.125 3.953s-27.374-1.532-36.126-3.953c4.224 3.838 18.797 6.668 36.126 6.668 17.328 0 31.901-2.83 36.125-6.668z" clip-rule="evenodd"/>
    <path fill="#909599" fill-rule="evenodd" d="M193.587 120.375c-23.083 9.56-57.776 15.64-96.568 15.64-38.794 0-73.487-6.08-96.57-15.641C9.462 137.84 49.272 151 97.02 151c47.745 0 87.555-13.16 96.568-30.625z" clip-rule="evenodd" style="mix-blend-mode:lighten"/>
    <path fill="#909599" fill-rule="evenodd" d="M174.146 119.449c-18.436 7.636-46.145 12.492-77.127 12.492-30.984 0-58.693-4.856-77.129-12.492 7.198 13.949 38.994 24.46 77.128 24.46s69.929-10.51 77.128-24.46z" clip-rule="evenodd" style="mix-blend-mode:lighten"/>
    <path fill="#EAEAEC" fill-rule="evenodd" d="M193.587 107.323c-23.083 9.56-57.776 15.641-96.568 15.641-38.794 0-73.487-6.081-96.57-15.642 9.013 17.466 48.823 30.626 96.57 30.626 47.745 0 87.555-13.16 96.568-30.625z" clip-rule="evenodd" style="mix-blend-mode:lighten"/>
    <path fill="#EAEAEC" fill-rule="evenodd" d="M181.924 103.006c-20.296 8.405-50.798 13.751-84.905 13.751-34.108 0-64.611-5.346-84.906-13.752 7.924 15.356 42.926 26.927 84.905 26.927s76.981-11.57 84.906-26.926z" clip-rule="evenodd" style="mix-blend-mode:lighten"/>
    <path fill="#00AEEF" fill-rule="evenodd" d="M32.2 18.199C36.932 4.566 51.65-2.131 65.87.602c21.931 4.213 39.959 4.232 61.733.19 14.804-2.75 29.979 4.736 34.179 19.139 4.066 13.945 7.695 29.625 5.592 35.594-.217.617-.793 1.204-1.689 1.76-9.009 11.587-36.773 20.027-69.627 20.027-33.504 0-61.715-8.777-70.14-20.719-.353-.345-.602-.7-.741-1.068a7.634 7.634 0 0 1-.076-.209 15.035 15.035 0 0 1-.335-.613l.167.069c-1.927-7.046 2.526-22.913 7.267-36.573z" clip-rule="evenodd"/>
    <path fill="#BFDCF8" fill-opacity=".2" fill-rule="evenodd" d="M146.923 24.283C134.839 28.389 116.678 31 96.37 31c-20.308 0-38.47-2.612-50.553-6.719 4.718 7.503 25.558 13.155 50.553 13.155 24.994 0 45.834-5.652 50.553-13.154z" clip-rule="evenodd" style="mix-blend-mode:lighten"/>
    <path fill="#0E5671" d="M104.814 16.483c-.317.947-1.057 1.684-2.113 2.42-1.901 1.263-4.86 2.21-7.923 2.21-2.958 0-5.915-.842-7.922-2.21-1.057-.736-1.796-1.473-2.113-2.42-.95-2.63 3.592-4.944 10.035-4.944 6.55 0 10.986 2.314 10.036 4.944z" opacity=".7"/>
    <path fill="#094860" d="M102.806 18.903c-1.901 1.263-4.86 2.21-7.923 2.21-2.957 0-5.915-.842-7.922-2.21 1.796-.947 4.648-1.578 7.922-1.578 3.275 0 6.022.631 7.923 1.578z" opacity=".7"/>
    <path fill="#D0D2D3" d="M104.886 15.505v-6.11c.638-2.527-3.722-4.845-10.103-4.845-6.38 0-10.74 2.212-10.103 4.846h-.106v6.847c0 .21 0 .421.106.527.957 2.633 5.424 4.635 10.103 4.635 4.68 0 9.146-2.002 10.103-4.635a2.552 2.552 0 0 0 0-1.264z" opacity=".8"/>
    <path fill="#D0D2D3" d="M104.992 8.028h-.213c-.957-1.896-4.785-3.371-9.996-3.371s-9.04 1.475-9.997 3.37h-.425c-.957 0-1.808.527-1.808 1.16 0 .631.745 1.158 1.808 1.158.213 0 .532 0 .744-.105 1.383 2.317 5.53 3.897 9.784 3.897 4.148 0 8.295-1.58 9.678-3.897.212 0 .319.105.531.105.958 0 1.808-.527 1.808-1.159-.106-.632-.957-1.158-1.914-1.158z" opacity=".7"/>
    <path fill="#4D9E90" d="M83 93.8a2.8 2.8 0 0 1 2.8-2.8h22.4a2.8 2.8 0 0 1 2.8 2.8v22.4a2.8 2.8 0 0 1-2.8 2.8H85.8a2.8 2.8 0 0 1-2.8-2.8V93.8z"/>
    <path fill="#317E71" fill-rule="evenodd" d="M83 93.8v22.4c0 2.8 2.8 2.8 2.8 2.8V93.8H111s0-2.8-2.8-2.8H85.8c-.972 0-1.607.338-2.021.778-.441.415-.779 1.05-.779 2.022z" clip-rule="evenodd"/>
    <path fill="#317E71" fill-rule="evenodd" d="M111 93.8v22.4c0 .972-.338 1.607-.779 2.021-.414.441-1.049.779-2.021.779H85.8c-1.4 0-1.96-.7-1.96-.7l1.96-2.1h22.4V93.8l2.1-1.96s.7.56.7 1.96z" clip-rule="evenodd"/>
    <path fill="#111" d="M95.653 99.646c.598-.862 2.095-.862 2.694 0l4.042 5.815c.599.862-.15 1.939-1.347 1.939h-8.084c-1.198 0-1.946-1.077-1.347-1.939l4.042-5.815z"/>
    <rect width="12" height="2" x="91" y="109" fill="#111" rx="1"/>
    <path fill="#92D6CA" d="M83 93.8a2.8 2.8 0 0 1 2.8-2.8h22.4a2.8 2.8 0 0 1 2.8 2.8v22.4a2.8 2.8 0 0 1-2.8 2.8H85.8a2.8 2.8 0 0 1-2.8-2.8V93.8z"/>
    <path fill="#D2FFF7" fill-rule="evenodd" d="M83 93.8v22.4c0 2.8 2.8 2.8 2.8 2.8V93.8H111s0-2.8-2.8-2.8H85.8c-.972 0-1.607.338-2.021.778-.441.415-.779 1.05-.779 2.022z" clip-rule="evenodd"/>
    <path fill="#4D9E90" fill-rule="evenodd" d="M111 93.8v22.4c0 .972-.338 1.607-.779 2.021-.414.441-1.049.779-2.021.779H85.8c-1.4 0-1.96-.7-1.96-.7l1.96-2.1h22.4V93.8l2.1-1.96s.7.56.7 1.96z" clip-rule="evenodd"/>
    <path fill="#111" d="M95.653 99.646c.598-.862 2.095-.862 2.694 0l4.042 5.815c.599.862-.15 1.939-1.347 1.939h-8.084c-1.198 0-1.946-1.077-1.347-1.939l4.042-5.815z"/>
    <rect width="12" height="2" x="91" y="109" fill="#111" rx="1"/>
</svg>
