<svg width="45" height="52" viewBox="0 0 45 52" fill="none" xmlns="http://www.w3.org/2000/svg">
<path d="M22.5 0L45 13V39L22.5 52L0 39V13L22.5 0Z" fill="#FAAC48"/>
<path d="M22.5 0L45 13V39L22.5 52L0 39V13L22.5 0Z" fill="#FAAC48"/>
<path d="M22.5 0V13V39V52L0 39V13L22.5 0Z" fill="#CF8C35"/>
<path d="M22.976 32.04C22.88 31.624 22.848 31.208 22.848 30.792C22.848 26.696 27.008 25.8 27.008 19.976C27.008 16.392 25.248 14.344 21.824 14.344C18.4 14.344 16.64 16.392 16.64 19.976V22.184H19.968V19.752C19.968 18.152 20.608 17.544 21.728 17.544C22.848 17.544 23.488 18.152 23.488 19.752C23.488 25.32 19.648 25.768 19.648 30.664C19.648 31.24 19.712 31.656 19.84 32.04H22.976ZM19.68 33.608V37H23.072V33.608H19.68Z" fill="white"/>
</svg>
