<svg xmlns="http://www.w3.org/2000/svg" width="30" height="277" fill="none" viewBox="0 0 30 277">
    <g filter="url(#a)">
        <path fill="#99B2C4" d="M17.571 192.671h-5.089c-.268 0-.482-.254-.482-.571v-7.429h6v7.429c0 .317-.214.571-.429.571z"/>
        <path fill="#E5ECF0" d="M7 122.671h8v45h-4s-.571-28.8-4-45zM23 122.671h-8v45h4s.571-28.8 4-45z"/>
        <path fill="#E5ECF0" d="M11 127.671a4 4 0 0 1 8 0v59a2 2 0 0 1-2 2h-4a2 2 0 0 1-2-2v-59z"/>
        <path fill="#CCD8E1" fill-rule="evenodd" d="M25 106.671H5v16c0 1.105 4.477 2 10 2s10-.895 10-2v-16z" clip-rule="evenodd"/>
        <path fill="#F5F7F9" fill-rule="evenodd" d="M26.997 109.625V27.671c0-1.407-.754-2.093-1.988-2.696L20.62 22.83l-5.553-2.614-6.17 2.95-3.84 1.809C3.754 25.578 3 26.785 3 28.192v81.479c0 1.105 5.373 2 12 2s12-.895 12-2a.339.339 0 0 0-.003-.046z" clip-rule="evenodd"/>
        <mask id="b" width="24" height="92" x="3" y="20" maskUnits="userSpaceOnUse">
            <path fill="#F5F7F9" fill-rule="evenodd" d="M26.997 109.625V27.671c0-1.407-.754-2.093-1.988-2.696L20.62 22.83l-5.553-2.614-6.17 2.95-3.84 1.809C3.754 25.578 3 26.785 3 28.192v81.479c0 1.105 5.373 2 12 2s12-.895 12-2a.339.339 0 0 0-.003-.046z" clip-rule="evenodd"/>
        </mask>
        <g fill="#E5ECF0" mask="url(#b)">
            <path d="M3 24.671h6v87H3zM21 24.671h6v87h-6z"/>
        </g>
        <path fill="#F5F7F9" d="M15.067 20.62c2.575 0 4.662-.811 4.662-1.81 0-1-2.087-1.81-4.662-1.81-2.575 0-4.662.81-4.662 1.81 0 .999 2.087 1.81 4.662 1.81z"/>
        <path fill="#B0E298" d="M23.842 21.69c-1.371-2.144-3.497-3.752-5.897-4.423-.48.336-1.576.537-2.948.537-1.303 0-2.33-.201-2.88-.47-2.4.738-4.593 2.212-5.964 4.424-.48.804-.686 1.81-.686 2.748v9.181c0 .738.686 1.274 1.44 1.207a45.415 45.415 0 0 1 7.884-.67c3.154 0 5.897.268 8.297.67.754.134 1.44-.402 1.44-1.207v-9.315c0-.939-.206-1.877-.686-2.681z"/>
        <path fill="#8BB975" d="M6.431 23.232c.96-1.273 2.332-2.211 3.771-2.948a13.62 13.62 0 0 1 2.332-.805c.822-.2 1.645-.268 2.468-.268 1.645 0 3.36.335 4.8 1.073 1.507.67 2.81 1.675 3.77 2.948-1.371-.87-2.742-1.541-4.182-2.01-.755-.201-1.44-.402-2.194-.536a12.91 12.91 0 0 0-2.263-.201c-1.508 0-3.017.268-4.456.67-1.303.536-2.743 1.206-4.046 2.077z"/>
        <path fill="#B0E298" d="M19 55.671h-8v27.912h8V55.67z"/>
        <path fill="#FBF9DE" d="M17.328 61.304H12.77V77.53h4.558V61.304z"/>
        <path fill="#A49448" d="M17.328 61.304H12.77v.337h4.558v-.337zM17.328 77.278H12.77v.336h4.558v-.336zM17.328 71.981H12.77v.336h4.558v-.336zM17.328 66.6H12.77v.337h4.558V66.6z"/>
        <path fill="#101620" d="M15.118 62.91c.303 0 .543.083.72.25.18.166.27.388.27.666 0 .21-.068.44-.201.686-.133.247-.366.574-.7.98H16.3v.533h-2.063v-.064c.24-.286.446-.543.618-.77.173-.23.307-.419.401-.569.094-.15.161-.28.2-.385a.93.93 0 0 0 .06-.328.485.485 0 0 0-.142-.354.452.452 0 0 0-.34-.146c-.24 0-.488.133-.746.397v-.604c.271-.195.549-.292.831-.292zM15.282 68.178c.322 0 .578.14.766.42.19.281.285.664.285 1.15 0 .49-.094.877-.28 1.16-.187.284-.443.425-.766.425a.897.897 0 0 1-.78-.42c-.19-.282-.284-.667-.284-1.156 0-.488.095-.872.284-1.154.19-.283.449-.425.775-.425zm-.467 1.596c0 .704.156 1.055.467 1.055.304 0 .456-.37.456-1.11 0-.691-.153-1.037-.46-1.037-.309 0-.463.364-.463 1.092z"/>
        <path fill="#DB0300" d="M15.288 73.417c.322 0 .578.14.766.42.19.281.285.664.285 1.15 0 .49-.094.877-.28 1.16-.187.284-.443.425-.766.425a.897.897 0 0 1-.78-.42c-.19-.282-.284-.667-.284-1.156 0-.487.095-.872.284-1.154.19-.283.448-.425.775-.425zm-.467 1.596c0 .703.156 1.055.467 1.055.304 0 .456-.37.456-1.11 0-.691-.153-1.037-.46-1.037-.309 0-.463.364-.463 1.092z"/>
        <path fill="#8BB975" d="M24.461 24.707v8.98c0 .738-.617 1.274-1.44 1.14-.754-.134-1.577-.201-2.468-.335V23.098c1.097.402 1.714.737 2.674 1.14.754.2.754.2 1.234.469zM5.537 24.709v8.98c0 .738.617 1.274 1.44 1.14.754-.134 1.577-.201 2.468-.335V23.1c-1.097.402-1.714.737-2.674 1.14-.754.2-.754.2-1.234.469z"/>
        <g filter="url(#c)">
            <path fill="#FEF9E1" d="M16 251h-2l-2.166-39.45h6.333L16.001 251z" opacity=".5"/>
            <g fill="#FEF9E1" opacity=".7">
                <path d="M12.834 211.55h-1L14.001 251h.166l-1.333-39.45zM17.166 211.55L15.832 251H16l2.167-39.45h-1z" opacity=".7"/>
            </g>
            <path fill="#FEF9E1" d="M18 213.074l.167-1.016h-6.333v1.016h6.167z" opacity=".7"/>
            <path fill="#FEF9E1" d="M18.334 212.735h-6.667l-.5-8.973h7.5l-.333 8.973z" opacity=".7"/>
            <path fill="#FEF9E1" d="M13 212.735h-1.332l-.5-8.973H12.5l.5 8.973zM17 212.735h1.332l.5-8.973H17.5l-.5 8.973z" opacity=".7"/>
            <path fill="#FEF9E1" d="M18.5 204.354l.167-1.354H11v1.354h7.5z" opacity=".7"/>
            <path fill="#FEF9E1" d="M19.168 204.27h-8.334l-.5-16.931h9.167l-.333 16.931z" opacity=".7"/>
            <path fill="#FEF9E1" d="M12.5 204.27h-1.666l-.5-16.931H12l.5 16.931zM17.334 204.27H19l.5-16.931h-1.666l-.5 16.931z" opacity=".7"/>
            <path fill="#FEF9E1" d="M19.501 189.54l.167-1.693h-9.334v1.693h9.167z" opacity=".7"/>
            <path fill="#FEF9E1" d="M20 187H10v2.032h10V187z" opacity=".7"/>
            <path fill="#EDE3B6" d="M12.5 203l-1-15h1v15zM17.5 203v-15h1l-1 15z"/>
            <path fill="#CCB450" d="M18.8 204.5h-7.6l.1 1h7.4l.1-1zM18.1 213H12l.1 1H18l.1-1z" opacity=".3"/>
            <path fill="#ED3431" d="M16.5 229.5h-3l1 21.5h1l1-21.5z"/>
        </g>
    </g>
    <defs>
        <filter id="a" width="30" height="283" x="0" y="-1" color-interpolation-filters="sRGB" filterUnits="userSpaceOnUse">
            <feFlood flood-opacity="0" result="BackgroundImageFix"/>
            <feColorMatrix in="SourceAlpha" values="0 0 0 0 0 0 0 0 0 0 0 0 0 0 0 0 0 0 127 0"/>
            <feOffset dy="2"/>
            <feGaussianBlur stdDeviation="1.5"/>
            <feColorMatrix values="0 0 0 0 0 0 0 0 0 0 0 0 0 0 0 0 0 0 0.25 0"/>
            <feBlend in2="BackgroundImageFix" result="effect1_dropShadow"/>
            <feBlend in="SourceGraphic" in2="effect1_dropShadow" result="shape"/>
        </filter>
        <filter id="c" width="16" height="70" x="7" y="186" color-interpolation-filters="sRGB" filterUnits="userSpaceOnUse">
            <feFlood flood-opacity="0" result="BackgroundImageFix"/>
            <feColorMatrix in="SourceAlpha" values="0 0 0 0 0 0 0 0 0 0 0 0 0 0 0 0 0 0 127 0"/>
            <feOffset dy="2"/>
            <feGaussianBlur stdDeviation="1.5"/>
            <feColorMatrix values="0 0 0 0 0 0 0 0 0 0 0 0 0 0 0 0 0 0 0.25 0"/>
            <feBlend in2="BackgroundImageFix" result="effect1_dropShadow"/>
            <feBlend in="SourceGraphic" in2="effect1_dropShadow" result="shape"/>
        </filter>
    </defs>
</svg>
