<svg xmlns="http://www.w3.org/2000/svg" width="557" height="924" fill="none" viewBox="0 0 557 924">
    <g clip-path="url(#a)">
        <path fill="#fff" d="M0 0h557v924H0z"/>
        <rect width="557" height="924" fill="url(#b)" rx="5"/>
        <path fill="#fff" d="M21.382 33.216c2.988 0 4.5-1.188 4.5-3.636 0-1.476-.558-2.448-1.818-2.934v-.036c1.044-.486 1.53-1.368 1.53-2.646 0-2.232-1.476-3.42-4.212-3.42-2.826 0-4.302 1.278-4.302 3.69v.378h2.538v-.234c0-1.026.576-1.584 1.71-1.584 1.08 0 1.638.486 1.638 1.476 0 1.026-.594 1.44-1.854 1.44h-1.116v2.232h1.17c1.44 0 2.052.468 2.052 1.512 0 1.062-.666 1.512-1.836 1.512-1.296 0-1.908-.54-1.908-1.62v-.288H16.9v.63c0 2.34 1.512 3.528 4.482 3.528zM27.965 33h2.79v-2.79h-2.79V33zm9.705 0h2.7v-4.284h2.142c3.096 0 4.41-1.17 4.41-3.96 0-2.808-1.314-3.996-4.41-3.996H37.67V33zm2.7-6.588v-3.348h1.908c1.368 0 1.944.504 1.944 1.674s-.576 1.674-1.944 1.674H40.37zM52.7 33.216c2.844 0 4.266-1.35 4.266-4.05v-1.728c0-2.7-1.422-4.05-4.266-4.05-2.844 0-4.266 1.35-4.266 4.05v1.728c0 2.7 1.422 4.05 4.266 4.05zm0-2.16c-1.134 0-1.602-.576-1.602-1.944v-1.62c0-1.368.468-1.944 1.602-1.944 1.134 0 1.602.576 1.602 1.944v1.62c0 1.368-.468 1.944-1.602 1.944zm9.655 2.16c2.664 0 3.96-.99 3.96-3.042 0-1.818-.918-2.7-3.294-2.97-1.368-.162-1.854-.432-1.854-1.044 0-.54.396-.846 1.188-.846.864 0 1.224.324 1.224 1.062h2.538c0-1.944-1.26-2.988-3.744-2.988-2.466 0-3.834 1.062-3.834 3.096 0 1.782.918 2.574 3.24 2.844 1.404.162 1.908.45 1.908 1.116 0 .576-.432.846-1.314.846-1.026 0-1.458-.36-1.458-1.17h-2.538c0 2.088 1.26 3.096 3.978 3.096zm9.07 0c2.665 0 3.96-.99 3.96-3.042 0-1.818-.917-2.7-3.293-2.97-1.368-.162-1.854-.432-1.854-1.044 0-.54.396-.846 1.188-.846.864 0 1.224.324 1.224 1.062h2.538c0-1.944-1.26-2.988-3.744-2.988-2.466 0-3.834 1.062-3.834 3.096 0 1.782.918 2.574 3.24 2.844 1.404.162 1.908.45 1.908 1.116 0 .576-.432.846-1.314.846-1.026 0-1.458-.36-1.458-1.17h-2.538c0 2.088 1.26 3.096 3.978 3.096zm5.615-10.944h2.808v-2.268h-2.808v2.268zM77.111 33h2.664v-9.396h-2.664V33zm10.069.216c2.142 0 3.348-1.314 3.348-3.852v-2.106c0-2.538-1.206-3.87-3.348-3.87-1.008 0-1.8.306-2.43.972v-4.5h-2.664V33h2.268l.072-1.134c.702.936 1.566 1.35 2.754 1.35zm-.63-2.16c-.828 0-1.422-.486-1.8-1.422v-2.646c.378-.954.972-1.44 1.818-1.44.846 0 1.296.486 1.296 1.71v2.088c0 1.206-.45 1.71-1.314 1.71zM92.51 33h2.663V19.86H92.51V33zm8.916.216c2.538 0 3.924-1.062 4.032-3.096h-2.538c-.054.648-.576 1.008-1.476 1.008-1.152 0-1.638-.594-1.638-1.818v-.18h5.706v-1.71c0-2.61-1.44-4.032-4.194-4.032-2.736 0-4.176 1.386-4.176 3.996v1.836c0 2.646 1.44 3.996 4.284 3.996zm-1.62-5.958c0-1.26.468-1.782 1.602-1.782 1.116 0 1.584.522 1.584 1.782h-3.186zM111.955 33h2.7v-4.518h1.458l2.43 4.518h3.078l-2.646-4.77c1.53-.45 2.178-1.602 2.178-3.6 0-2.736-1.188-3.87-4.194-3.87h-5.004V33zm2.7-6.822v-3.114h2.016c1.314 0 1.782.45 1.782 1.566 0 1.098-.468 1.548-1.782 1.548h-2.016zm12.505 7.038c2.538 0 3.924-1.062 4.032-3.096h-2.538c-.054.648-.576 1.008-1.476 1.008-1.152 0-1.638-.594-1.638-1.818v-.18h5.706v-1.71c0-2.61-1.44-4.032-4.194-4.032-2.736 0-4.176 1.386-4.176 3.996v1.836c0 2.646 1.44 3.996 4.284 3.996zm-1.62-5.958c0-1.26.468-1.782 1.602-1.782 1.116 0 1.584.522 1.584 1.782h-3.186zm11.407 5.958c2.628 0 3.978-1.242 4.014-3.798h-2.538c-.036 1.08-.432 1.638-1.44 1.638s-1.476-.558-1.476-1.836v-1.818c0-1.296.468-1.854 1.476-1.854s1.386.558 1.44 1.638h2.538c-.036-2.556-1.386-3.798-4.014-3.798-2.718 0-4.104 1.35-4.104 3.996v1.836c0 2.646 1.386 3.996 4.104 3.996zm9.83 0c2.844 0 4.266-1.35 4.266-4.05v-1.728c0-2.7-1.422-4.05-4.266-4.05-2.844 0-4.266 1.35-4.266 4.05v1.728c0 2.7 1.422 4.05 4.266 4.05zm0-2.16c-1.134 0-1.602-.576-1.602-1.944v-1.62c0-1.368.468-1.944 1.602-1.944 1.134 0 1.602.576 1.602 1.944v1.62c0 1.368-.468 1.944-1.602 1.944zM153.013 33h2.664v-6.03c.414-.9.936-1.278 1.566-1.278.648 0 1.026.378 1.026 1.206V33h2.664v-6.03c.432-.9.936-1.278 1.584-1.278s1.008.378 1.008 1.206V33h2.664v-6.39c0-2.106-1.062-3.222-2.97-3.222-1.098 0-1.962.378-2.682 1.332-.468-.882-1.314-1.332-2.52-1.332-1.152 0-1.98.414-2.664 1.368l-.072-1.152h-2.268V33zm20.51.216c2.142 0 3.348-1.314 3.348-3.852v-2.106c0-2.538-1.206-3.87-3.348-3.87-1.008 0-1.8.306-2.43.972v-4.5h-2.664V33h2.268l.072-1.134c.702.936 1.566 1.35 2.754 1.35zm-.63-2.16c-.828 0-1.422-.486-1.8-1.422v-2.646c.378-.954.972-1.44 1.818-1.44.846 0 1.296.486 1.296 1.71v2.088c0 1.206-.45 1.71-1.314 1.71zm5.888-8.784h2.808v-2.268h-2.808v2.268zM178.853 33h2.664v-9.396h-2.664V33zm4.975 0h2.664v-6.066c.396-.828.954-1.242 1.656-1.242.72 0 1.044.432 1.044 1.314V33h2.664v-6.228c0-2.232-1.008-3.384-2.952-3.384-1.152 0-2.016.414-2.736 1.35l-.072-1.134h-2.268V33zm12.677.216c1.242 0 2.178-.468 2.826-1.386l.09 1.17h2.25v-6.048c0-2.448-1.224-3.564-3.888-3.564-2.592 0-3.852 1.062-3.996 3.15h2.574c.036-.648.396-1.062 1.314-1.062.954 0 1.332.468 1.332 1.44v.306h-1.728c-2.502 0-3.744 1.098-3.744 3.078 0 1.872 1.116 2.916 2.97 2.916zm.81-2.088c-.756 0-1.152-.36-1.152-1.044s.396-1.098 1.602-1.098h1.242v1.08c-.378.702-.936 1.062-1.692 1.062zM203.849 33h2.664v-6.066c.396-.828.954-1.242 1.656-1.242.72 0 1.044.432 1.044 1.314V33h2.664v-6.228c0-2.232-1.008-3.384-2.952-3.384-1.152 0-2.016.414-2.736 1.35l-.072-1.134h-2.268V33zm13.327 0h1.962v-2.088h-1.044c-.774 0-.99-.252-.99-1.134V25.62h1.944v-2.016h-1.944v-2.34h-2.466l-.144 2.34h-1.422v2.016h1.368v4.32c0 2.16.81 3.06 2.736 3.06zm7.93 0h2.7v-4.284h2.142c3.096 0 4.41-1.17 4.41-3.96 0-2.808-1.314-3.996-4.41-3.996h-4.842V33zm2.7-6.588v-3.348h1.908c1.368 0 1.944.504 1.944 1.674s-.576 1.674-1.944 1.674h-1.908zM236.088 33h2.664V19.86h-2.664V33zm7.386.216c1.242 0 2.178-.468 2.826-1.386l.09 1.17h2.25v-6.048c0-2.448-1.224-3.564-3.888-3.564-2.592 0-3.852 1.062-3.996 3.15h2.574c.036-.648.396-1.062 1.314-1.062.954 0 1.332.468 1.332 1.44v.306h-1.728c-2.502 0-3.744 1.098-3.744 3.078 0 1.872 1.116 2.916 2.97 2.916zm.81-2.088c-.756 0-1.152-.36-1.152-1.044s.396-1.098 1.602-1.098h1.242v1.08c-.378.702-.936 1.062-1.692 1.062zm9.918 2.088c2.664 0 3.96-.99 3.96-3.042 0-1.818-.918-2.7-3.294-2.97-1.368-.162-1.854-.432-1.854-1.044 0-.54.396-.846 1.188-.846.864 0 1.224.324 1.224 1.062h2.538c0-1.944-1.26-2.988-3.744-2.988-2.466 0-3.834 1.062-3.834 3.096 0 1.782.918 2.574 3.24 2.844 1.404.162 1.908.45 1.908 1.116 0 .576-.432.846-1.314.846-1.026 0-1.458-.36-1.458-1.17h-2.538c0 2.088 1.26 3.096 3.978 3.096zm5.686-.216h2.664v-6.03c.414-.9.936-1.278 1.566-1.278.648 0 1.026.378 1.026 1.206V33h2.664v-6.03c.432-.9.936-1.278 1.584-1.278s1.008.378 1.008 1.206V33h2.664v-6.39c0-2.106-1.062-3.222-2.97-3.222-1.098 0-1.962.378-2.682 1.332-.468-.882-1.314-1.332-2.52-1.332-1.152 0-1.98.414-2.664 1.368l-.072-1.152h-2.268V33zm15.344-10.728h2.808v-2.268h-2.808v2.268zM275.304 33h2.664v-9.396h-2.664V33zm7.999.216c1.188 0 2.052-.414 2.754-1.35l.072 1.134h2.268V19.86h-2.664v4.5c-.63-.666-1.422-.972-2.43-.972-2.142 0-3.348 1.332-3.348 3.87v2.106c0 2.538 1.206 3.852 3.348 3.852zm.63-2.16c-.864 0-1.314-.504-1.314-1.71v-2.088c0-1.224.45-1.71 1.296-1.71.846 0 1.44.486 1.818 1.44v2.646c-.378.936-.972 1.422-1.8 1.422zm10.154 2.16c2.664 0 3.96-.99 3.96-3.042 0-1.818-.918-2.7-3.294-2.97-1.368-.162-1.854-.432-1.854-1.044 0-.54.396-.846 1.188-.846.864 0 1.224.324 1.224 1.062h2.538c0-1.944-1.26-2.988-3.744-2.988-2.466 0-3.834 1.062-3.834 3.096 0 1.782.918 2.574 3.24 2.844 1.404.162 1.908.45 1.908 1.116 0 .576-.432.846-1.314.846-1.026 0-1.458-.36-1.458-1.17h-2.538c0 2.088 1.26 3.096 3.978 3.096z"/>
        <circle cx="201.5" cy="135.5" r="58.5" stroke="#C5C5C5" stroke-width="10" filter="url(#c)"/>
        <path fill="#fff" d="M197.831 142h8.514v-2.286h-2.916v-9.954h-2.538c-.702 1.098-1.71 1.548-3.42 1.584v2.07c1.098-.018 2.25-.072 3.294-.378v6.678h-2.934V142z"/>
        <g stroke-width="10" filter="url(#d)">
            <circle cx="199.5" cy="308.5" r="58.5" stroke="#C5C5C5"/>
            <path stroke="#E52826" d="M169.5 258c-17.071 10.217-28.5 28.89-28.5 50.232 0 32.309 26.191 58.5 58.5 58.5 19.848 0 37.388-9.884 47.964-25"/>
            <path stroke="#008D36" d="M258 308.5c0-32.309-25.691-58.5-58-58.5"/>
        </g>
        <path fill="#fff" d="M199.521 315.216c2.988 0 4.5-1.188 4.5-3.636 0-1.476-.558-2.448-1.818-2.934v-.036c1.044-.486 1.53-1.368 1.53-2.646 0-2.232-1.476-3.42-4.212-3.42-2.826 0-4.302 1.278-4.302 3.69v.378h2.538v-.234c0-1.026.576-1.584 1.71-1.584 1.08 0 1.638.486 1.638 1.476 0 1.026-.594 1.44-1.854 1.44h-1.116v2.232h1.17c1.44 0 2.052.468 2.052 1.512 0 1.062-.666 1.512-1.836 1.512-1.296 0-1.908-.54-1.908-1.62v-.288h-2.574v.63c0 2.34 1.512 3.528 4.482 3.528z"/>
        <g stroke-width="10" filter="url(#e)">
            <circle cx="201.5" cy="481.5" r="58.5" stroke="#C5C5C5"/>
            <path stroke="#F8AF3E" d="M165.5 527.615C151.804 516.908 143 500.232 143 481.5c0-32.309 26.191-58.5 58.5-58.5 25.658 0 47.457 16.518 55.345 39.5"/>
        </g>
        <path fill="#fff" d="M201.485 488.216c3.042 0 4.572-1.404 4.572-4.266 0-2.646-1.314-4.068-3.744-4.068-.936 0-1.728.216-2.376.72l.162-2.556h5.4v-2.286h-7.614l-.45 7.056h2.322c.45-.45 1.044-.738 1.818-.738 1.188 0 1.818.666 1.818 1.944s-.63 1.944-1.926 1.944c-1.116 0-1.782-.504-1.836-1.386h-2.556c.018 2.412 1.566 3.636 4.41 3.636z"/>
        <g stroke-width="10" filter="url(#f)">
            <circle cx="356.5" cy="819.5" r="58.5" stroke="#C5C5C5"/>
            <path stroke="#F8AF3E" d="M330.5 767.08c-19.262 9.573-32.5 29.45-32.5 52.419 0 2.026.103 4.028.304 6m65.196 52.086c23.29-2.777 42.379-19.237 49-41.113"/>
        </g>
        <path fill="#fff" d="M347.469 826h8.514v-2.286h-2.916v-9.954h-2.538c-.702 1.098-1.71 1.548-3.42 1.584v2.07c1.098-.018 2.25-.072 3.294-.378v6.678h-2.934V826zm14.395.216c2.898 0 4.428-1.422 4.428-4.122v-4.428c0-2.718-1.53-4.122-4.428-4.122-2.898 0-4.428 1.404-4.428 4.122v4.428c0 2.7 1.53 4.122 4.428 4.122zm0-2.25c-1.242 0-1.764-.594-1.764-1.98v-4.212c0-1.386.522-1.98 1.764-1.98s1.764.594 1.764 1.98v4.212c0 1.386-.522 1.98-1.764 1.98z"/>
        <g stroke-width="10" filter="url(#g)">
            <circle cx="357.5" cy="654.5" r="58.5" stroke="#C5C5C5"/>
            <path stroke="#115F92" d="M316 695.5c9.018 8.96 20.941 15.501 34.231 17.086"/>
            <path stroke="#1399F1" d="M410.5 679.5c3.589-7.581 5.5-16.056 5.5-25 0-3.409-.44-6.751-1-10"/>
            <path stroke="#333332" d="M375 710.338c9.959-3.119 18.773-8.828 25.651-16.338"/>
            <path stroke="#1399F1" d="M372 597.811c11.868 3.026 22.285 9.681 30 18.713"/>
            <path stroke="#115F92" d="M304.362 630c-3.442 7.453-5.362 15.752-5.362 24.5a58.31 58.31 0 0 0 4.695 23"/>
            <path stroke="#333332" d="M346.104 597.131c-12.648 2.521-23.826 9.121-32.104 18.37"/>
        </g>
        <path fill="#fff" d="M357.503 661.216c3.078 0 4.68-1.26 4.68-3.6 0-1.458-.63-2.466-1.872-2.97v-.036c1.062-.486 1.584-1.368 1.584-2.646 0-2.196-1.566-3.42-4.374-3.42-2.826 0-4.392 1.224-4.392 3.438 0 1.26.522 2.142 1.566 2.628v.036c-1.242.504-1.872 1.512-1.872 2.97 0 2.34 1.602 3.6 4.68 3.6zm0-7.524c-1.116 0-1.764-.504-1.764-1.494 0-.972.612-1.44 1.764-1.44 1.152 0 1.764.468 1.764 1.44 0 .99-.648 1.494-1.764 1.494zm-.018 5.31c-1.368 0-2.016-.468-2.016-1.512 0-1.08.702-1.584 2.016-1.584 1.332 0 2.034.504 2.034 1.584 0 1.044-.666 1.512-2.034 1.512z"/>
        <g stroke-width="10" filter="url(#h)">
            <circle cx="201.5" cy="819.5" r="58.5" stroke="#C5C5C5"/>
            <path stroke="#F8AF3E" d="M226.5 766.596c-7.581-3.589-16.056-5.596-25-5.596-22.165 0-41.451 12.327-51.376 30.5"/>
            <path stroke="#1399F1" d="M257 838.043a58.439 58.439 0 0 0 3-18.544 58.3 58.3 0 0 0-5-23.7"/>
            <path stroke="#115F92" d="M171 869.43c8.881 5.436 19.325 8.57 30.5 8.57 4.29 0 8.473-.462 12.5-1.339"/>
            <path stroke="#333332" d="M232 869.43A58.8 58.8 0 0 0 252.028 849"/>
        </g>
        <path fill="#fff" d="M201.305 826.216c2.988 0 4.554-1.44 4.554-4.23v-4.302c0-2.736-1.548-4.14-4.464-4.14-2.97 0-4.428 1.44-4.428 4.176 0 2.556 1.278 3.942 3.6 3.942 1.098 0 1.944-.306 2.628-.99v1.206c0 1.386-.594 2.088-1.854 2.088-1.134 0-1.656-.576-1.728-1.314h-2.556c.072 2.268 1.422 3.564 4.248 3.564zm-.072-6.804c-1.08 0-1.602-.612-1.602-1.764 0-1.188.558-1.854 1.746-1.854 1.206 0 1.818.684 1.818 1.998v.27c-.396.9-1.044 1.35-1.962 1.35z"/>
        <g stroke-width="10" filter="url(#i)">
            <circle cx="357.5" cy="308.5" r="58.5" stroke="#C5C5C5"/>
            <path stroke="#333332" d="M357.376 250c-2.025 0-4.027.103-6 .304-19.612 1.998-36.358 13.684-45.376 30.196"/>
            <path stroke="#115F92" d="M299 314c2.772 29.73 27.791 53 58.245 53 2.369 0 4.705-.141 7-.414"/>
            <path stroke="#1399F1" d="M416 307.646c0-22.368-12.554-40.803-31-50.646"/>
        </g>
        <path fill="#fff" d="M358.457 315h2.664v-2.502h1.26v-2.178h-1.26v-7.56h-2.844l-5.526 7.398v2.34h5.706V315zm-3.15-4.68l3.15-4.374v4.374h-3.15z"/>
        <g stroke-width="10" filter="url(#j)">
            <circle cx="356.5" cy="135.5" r="58.5" stroke="#C5C5C5"/>
            <path stroke="#008D36" d="M415 135.5c0-17.27-7.483-32.792-19.384-43.5"/>
            <path stroke="#E52826" d="M325 184.723c-16.237-10.396-27-28.593-27-49.304 0-22.969 13.238-42.846 32.5-52.419"/>
        </g>
        <path fill="#fff" d="M352.003 142h8.874v-2.286h-6.192c.162-.738.792-1.206 2.448-1.944 2.682-1.206 3.744-2.502 3.744-4.536 0-2.34-1.494-3.69-4.338-3.69-2.808 0-4.338 1.332-4.338 3.87v.576h2.52v-.342c0-1.26.594-1.854 1.8-1.854 1.17 0 1.71.576 1.71 1.458 0 1.026-.612 1.638-2.448 2.502-2.736 1.278-3.78 2.664-3.78 4.986V142z"/>
        <g stroke-width="10" filter="url(#k)">
            <circle cx="201.5" cy="654.5" r="58.5" stroke="#C5C5C5"/>
            <path stroke="#E52826" d="M218.5 710.5c9.533-3.08 19.496-9.361 26.188-16.5"/>
            <path stroke="#008D36" d="M250.5 686.5c4.913-7.178 7.768-15.508 9.076-24.5"/>
            <path stroke="#F8AF3E" d="M165.5 700.615C151.804 689.908 143 673.232 143 654.5c0-32.309 26.191-58.5 58.5-58.5 25.658 0 47.457 16.518 55.345 39.5"/>
        </g>
        <path fill="#fff" d="M198.587 661h2.844c.18-4.014 1.566-6.948 4.536-9.828v-2.412h-9v2.34h6.246c-2.88 2.52-4.446 5.814-4.626 9.9z"/>
        <g stroke-width="10" filter="url(#l)">
            <circle cx="357.5" cy="481.5" r="58.5" stroke="#C5C5C5"/>
            <path stroke="#333332" d="M299.542 489.5a59.136 59.136 0 0 1-.542-8 58.25 58.25 0 0 1 12.781-36.5"/>
            <path stroke="#1399F1" d="M340 425.821A58.487 58.487 0 0 1 358 423c14.215 0 27.363 5.57 37.5 14"/>
            <path stroke="#115F92" d="M368.43 538.87a58.804 58.804 0 0 1-11.5 1.13c-21.133 0-39.149-11.206-49.43-28"/>
            <path stroke="#008D36" d="M407 450.5c4.368 7.135 7.536 14.779 8.5 23.5"/>
            <path stroke="#E52826" d="M416 481c0 17.083-7.322 32.805-19 43.5"/>
        </g>
        <path fill="#fff" d="M357.611 488.216c2.97 0 4.428-1.44 4.428-4.176 0-2.556-1.278-3.942-3.6-3.942-1.098 0-1.944.306-2.628.99v-1.206c0-1.386.594-2.088 1.854-2.088 1.134 0 1.656.576 1.728 1.314h2.556c-.072-2.268-1.422-3.564-4.248-3.564-2.988 0-4.554 1.44-4.554 4.23v4.302c0 2.736 1.548 4.14 4.464 4.14zm.018-2.25c-1.206 0-1.818-.684-1.818-1.998v-.27c.396-.9 1.044-1.35 1.962-1.35 1.08 0 1.602.612 1.602 1.764 0 1.188-.558 1.854-1.746 1.854z"/>
        <g filter="url(#m)">
            <mask id="n" width="36" height="66" x="51" y="63" fill="#000" maskUnits="userSpaceOnUse">
                <path fill="#fff" d="M51 63h36v66H51z"/>
                <path fill-rule="evenodd" d="M83.083 68.5c0-.474-.077-.955-.328-1.377-.266-.446-.658-.716-1.075-.872-.39-.146-.822-.2-1.23-.226a11.52 11.52 0 0 0-.376-.016V66H54v2h5.014v1h-3.008v2h2.005c-.003 6.13-.01 24.311 0 25.427.061 6.777 2.72 18.019 4.685 25.659 0 0 .608 2.703 1.357 2.935.691.216 1.902.51 2.783.554a3.833 3.833 0 0 1-.21.006h.42a3.83 3.83 0 0 1-.21-.006c.881-.044 2.092-.338 2.783-.554.749-.232 1.357-2.935 1.357-2.935.23-.894.476-1.834.73-2.809 1.596-6.107 3.545-13.564 4.161-19.457.121-.933.196-1.741.196-2.31V71h3.031c.484 0 .949 0 1.356-.025.408-.026.84-.08 1.23-.226.417-.156.81-.426 1.075-.872.25-.422.328-.903.328-1.377zm-4.011.5c.51 0 .915 0 1.253-.022.344-.02.54-.06.65-.102a.402.402 0 0 0 .051-.022l.007-.004.003-.009a.425.425 0 0 0 .017-.059c.013-.058.024-.148.024-.282 0-.134-.011-.224-.024-.282a.425.425 0 0 0-.017-.06l-.003-.008-.007-.004a.402.402 0 0 0-.05-.022c-.111-.042-.307-.081-.65-.102-.338-.022-.74-.022-1.248-.022H75.06v1h4.011z" clip-rule="evenodd"/>
            </mask>
            <path fill="#003E6B" d="M82.755 67.123l2.579-1.533-2.58 1.533zm-1.075-.872l-1.05 2.81 1.05-2.81zm-1.23-.226l-.186 2.995.186-2.995zm-.376-.016h-3v2.915l2.914.084.086-3zm0-.009h3v-3h-3v3zm-.936 0v3-3zm-.044 0v3-3zM54 66v-3h-3v3h3zm0 2h-3v3h3v-3zm5.014 0h3v-3h-3v3zm0 1v3h3v-3h-3zm-3.008 0v-3h-3v3h3zm0 2h-3v3h3v-3zm2.005 0l3 .001V68h-3v3zm0 25.427l-3 .027 3-.027zm4.685 25.659l2.927-.658-.01-.045-.011-.044-2.906.747zm1.357 2.935l-.892 2.865.892-2.865zm5.566 0l.892 2.865-.892-2.865zm1.357-2.935l-2.906-.747-.01.044-.01.045 2.926.658zm.73-2.809l-2.902-.758 2.902.758zm4.161-19.457l-2.975-.386-.005.037-.004.037 2.984.312zm.196-2.31h3-3zm0-26.51v-3h-3v3h3zm3.008 0l.069-3h-.068v3zm0 0l-.068 3h.068v-3zm.023 0v-3 3zm1.356-.025l.187 2.994-.187-2.994zm1.23-.226l-1.05-2.81 1.05 2.81zm1.075-.872l-2.58-1.533 2.58 1.533zm-2.43-.898l.187 2.994-.187-2.995zm.65-.103l-1.05-2.81 1.05 2.81zm.051-.022l1.427 2.639.026-.014.026-.015-1.479-2.61zm.007-.004l1.48 2.61.905-.513.393-.965-2.778-1.132zm.003-.009l2.779 1.133.013-.034.013-.034-2.805-1.065zm.017-.059l-2.93-.64 2.93.64zm0-.564l2.931-.64-2.93.64zm-.017-.06l2.805-1.064-.013-.034-.014-.034-2.778 1.133zm-.003-.008l2.778-1.133-.393-.963-.906-.514-1.48 2.61zm-.007-.004l1.48-2.61-.026-.014-.027-.015-1.427 2.639zm-.05-.022l-1.051 2.81 1.05-2.81zm-.65-.102l-.187 2.994.186-2.995zM79.077 68v-3 3zm-4.018 0v-3h-3v3h3zm0 1h-3v3h3v-3zm5.116-.344a.785.785 0 0 1-.094-.224c-.006-.028 0-.011 0 .068h6c0-.77-.12-1.852-.748-2.91l-5.158 3.066zm.453.405a.772.772 0 0 1-.197-.115 1.059 1.059 0 0 1-.256-.29l5.158-3.066c-.687-1.155-1.692-1.808-2.603-2.149l-2.102 5.62zm-.365-.041c.141.008.24.02.309.031.07.012.082.02.056.01l2.102-5.62c-.807-.302-1.589-.378-2.094-.41l-.373 5.989zm-.276-.012c.105.003.196.007.276.012l.373-5.989c-.162-.01-.322-.017-.477-.02l-.172 5.997zM77.074 66v.009h6V66h-6zm2.064 3h.936v-6h-.936v6zm-.044 0h.044v-6h-.044v6zm0 0v-6 6zm-.022 0h.022v-6h-.022v6zM54 69h25.072v-6H54v6zm3-1v-2h-6v2h6zm2.014-3H54v6h5.014v-6zm3 4v-1h-6v1h6zm-4.003 3h1.003v-6h-1.003v6zm-2.005 0h2.005v-6h-2.005v6zm3-1v-2h-6v2h6zm-.995-3h-2.005v6h2.005v-6zm3 28.4c-.01-1.097-.003-19.252 0-25.399l-6-.002c-.003 6.114-.01 24.32 0 25.455l6-.054zm4.59 24.939c-1.988-7.732-4.533-18.599-4.59-24.939l-6 .054c.065 7.214 2.839 18.832 4.78 26.38l5.81-1.495zm-.657.818c.61.19.948.537 1.046.643.118.129.16.213.144.185a3.645 3.645 0 0 1-.207-.506 10.714 10.714 0 0 1-.288-.985l-.015-.06-.002-.01c0-.001 0-.001 0 0v.003l-2.926.659-2.927.66v.001l.001.001.001.005.003.011.008.035.027.113a17.182 17.182 0 0 0 .452 1.542c.147.422.362.976.654 1.491.146.257.36.591.654.912.274.298.795.781 1.592 1.029l1.783-5.729zm2.04.422a6.914 6.914 0 0 1-.987-.151c-.41-.087-.796-.191-1.053-.271l-1.783 5.729c.786.244 2.275.623 3.527.685l.296-5.992zm-.296 0l-.063.002v6c.123 0 .243-.004.36-.01l-.297-5.992zm-.063 6.002h.421v-6h-.42v6zm.421-6l-.062-.002-.296 5.992c.115.006.236.01.358.01v-6zm1.682-.424c-.257.08-.643.184-1.052.271-.427.091-.775.14-.988.151l.296 5.992c1.251-.062 2.741-.441 3.527-.685l-1.783-5.729zm2.248-.071l-2.927-.659v-.001-.001-.001c.001-.001.001-.001 0 0a3.64 3.64 0 0 1-.512 1.561c-.016.028.027-.056.145-.185a2.376 2.376 0 0 1 1.046-.643l1.783 5.729a3.642 3.642 0 0 0 1.592-1.029c.295-.321.508-.655.654-.912a9.262 9.262 0 0 0 .654-1.491 16.828 16.828 0 0 0 .48-1.655l.007-.035.003-.011v-.005l.001-.001v-.001l-2.926-.66zm-2.172-3.567c-.255.973-.502 1.919-.734 2.82l5.811 1.495c.228-.888.473-1.822.728-2.798l-5.805-1.517zm4.08-19.01c-.588 5.618-2.466 12.833-4.08 19.01l5.805 1.517c1.578-6.037 3.598-13.737 4.242-19.905l-5.968-.623zm.179-2c0 .367-.053 1.016-.171 1.925l5.95.771c.124-.957.221-1.924.221-2.696h-6zm0-26.509v26.51h6V71h-6zm6.008-3h-3.008v6h3.008v-6zm.069 0l-.137 6 .137-6zm-.046 0h-.023v6h.023v-6zm1.17-.02c-.296.019-.66.02-1.17.02v6c.458 0 1.024.001 1.543-.031l-.373-5.989zm.365-.041c.026-.01.013-.002-.056.01-.07.011-.168.023-.31.031l.374 5.989c.505-.032 1.287-.108 2.094-.41l-2.102-5.62zm-.453.405c.068-.115.16-.215.256-.29a.772.772 0 0 1 .197-.115l2.102 5.62c.91-.34 1.916-.994 2.603-2.15l-5.158-3.065zm-.093.156c0 .08-.007.096-.001.068a.786.786 0 0 1 .094-.224l5.158 3.066c.628-1.058.749-2.14.749-2.91h-6zM79.072 72v-6 6zm0 0c.48 0 .988 0 1.44-.027l-.373-5.989c-.226.014-.526.016-1.067.016v6zm1.44-.027c.436-.028.984-.089 1.514-.287l-2.101-5.62a2.101 2.101 0 0 1 .317-.09c.023-.004-.005.002-.103.008l.373 5.989zm1.514-.287c.14-.052.283-.115.427-.193L79.6 66.215c.124-.067.235-.115.326-.149l2.102 5.62zm.48-.222l.006-.004-2.959-5.22-.006.004 2.958 5.22zm1.305-1.482l.004-.008-5.557-2.265-.003.009 5.556 2.264zm.03-.076c.062-.162.108-.325.143-.484l-5.862-1.28c.022-.102.057-.226.11-.366l5.609 2.13zm.143-.484c.069-.315.093-.627.093-.922h-6c0-.027.002-.158.045-.358l5.862 1.28zm.093-.922c0-.295-.024-.607-.093-.922l-5.862 1.28c-.043-.2-.045-.33-.045-.358h6zm-.093-.922a3.41 3.41 0 0 0-.143-.484l-5.61 2.13a2.584 2.584 0 0 1-.109-.367l5.862-1.28zm-.17-.552l-.003-.009-5.556 2.265.003.01 5.556-2.266zm-1.301-1.486l-.007-.004-2.96 5.22.007.004 2.96-5.22zm-.06-.033a3.407 3.407 0 0 0-.427-.193l-2.101 5.62a2.599 2.599 0 0 1-.326-.15l2.854-5.277zm-.427-.193c-.53-.198-1.078-.26-1.514-.287l-.373 5.989c.098.006.126.012.103.008a2.101 2.101 0 0 1-.317-.09l2.102-5.62zm-1.514-.287C80.062 65 79.557 65 79.078 65v6c.537 0 .837.002 1.06.016l.374-5.989zM79.078 65h-.002-.001-.003v6h.005v-6zm-.007 0H75.06v6h4.011v-6zm-7.011 3v1h6v-1h-6zm3 4h1.003v-6H75.06v6zm1.003 0h3.008v-6h-3.008v6z" mask="url(#n)"/>
        </g>
        <path fill="#868CA6" d="M67.04 125.581c-.888 0-2.245-.327-2.993-.56-.748-.232-1.357-2.935-1.357-2.935-1.964-7.64-4.624-18.882-4.684-25.659-.012-1.343 0-27.427 0-27.427H76.057v27.427c0 7-3.122 18.019-5.087 25.659 0 0-.608 2.703-1.356 2.935-.749.233-2.105.56-2.994.56"/>
        <path fill="#C0C3D2" d="M66.987 124.642c-.796 0-2.012-.279-2.667-.512-.655-.187-1.216-2.656-1.216-2.656-1.778-6.848-3.58-16.944-4.095-22.954V70.427h16.046s.28 24.925 0 28.093c-.515 6.01-2.736 16.059-4.513 22.908 0 0-.562 2.422-1.217 2.655-.654.187-1.87.513-2.666.513" opacity=".7"/>
        <path fill="#868CA6" d="M56 69h23.066v2H56z"/>
        <path fill="#fff" d="M58.006 77.428h18.052v16H58.006z"/>
        <path fill="#000" fill-opacity=".1" d="M71.043 71h5.014v26.51c0 2.945-2.006 12.272-2.006 12.272s-3.792 14.512-4.011 14.727c-.22.215-3.009.491-3.009.491l4.012-27.49V71z"/>
        <path fill="#868CA6" d="M53.994 66h26.074v2H53.994z"/>
        <path fill="#577898" d="M59.008 68h16.046v1H59.008z"/>
        <path fill="#868CA6" fill-rule="evenodd" d="M82.749 67.123c.25.422.328.903.328 1.377s-.077.955-.328 1.377c-.266.446-.658.716-1.075.872-.39.146-.822.2-1.23.226-.407.025-.872.025-1.356.025h-.023v-2c.512 0 .916 0 1.254-.022.344-.02.54-.06.65-.102a.406.406 0 0 0 .058-.026 1.351 1.351 0 0 0 .044-.35c0-.134-.011-.224-.024-.282a.425.425 0 0 0-.02-.068.406.406 0 0 0-.057-.026c-.111-.042-.307-.081-.65-.102A21.551 21.551 0 0 0 79.064 68v-2h.023c.484 0 .949 0 1.356.025.408.026.84.08 1.23.226.417.156.81.426 1.075.872z" clip-rule="evenodd"/>
        <path fill="#000" d="M61.193 88.553c1.176 0 1.76-.544 1.76-1.64v-4.04h-.6l-.032.64c-.344-.504-.784-.736-1.376-.736-.96 0-1.52.592-1.52 1.72v.648c0 1.128.56 1.72 1.52 1.72.552 0 .968-.2 1.304-.632v.68c0 .72-.336 1.032-1.072 1.032-.576 0-.968-.192-1.008-.672h-.656c.056.848.632 1.28 1.68 1.28zm-.16-2.304c-.568 0-.904-.392-.904-1.128v-.6c0-.736.336-1.128.904-1.128.52 0 .944.336 1.216.92v1.016c-.272.584-.696.92-1.216.92zM64.353 87h3.344v-.663h-2.624V81.56h-.72V87zM68.486 87h.72v-5.44h-.72V87zM72.537 87.097c1.344 0 2.016-.696 2.016-2.08v-.96H72.69v.664h1.16v.296c0 .992-.4 1.424-1.304 1.424-.944 0-1.376-.472-1.376-1.488v-1.344c0-1 .432-1.488 1.328-1.488.832 0 1.256.416 1.296 1.12h.704c-.048-1.16-.776-1.776-1.992-1.776-1.336 0-2.056.744-2.056 2.104v1.424c0 1.376.72 2.104 2.088 2.104z"/>
        <rect width="43" height="22" x="46" y="134" fill="#003E6B" rx="5"/>
        <path fill="#fff" d="M56.501 151.91c2.31 0 3.45-.99 3.45-3.105v-7.59h-1.53l-.06 1.065c-.615-.855-1.38-1.245-2.43-1.245-1.8 0-2.82 1.095-2.82 3.21v1.245c0 2.115 1.02 3.225 2.82 3.225.93 0 1.635-.3 2.22-.975v1.065c0 1.17-.51 1.65-1.68 1.65-.915 0-1.455-.3-1.53-1.035h-1.68c.09 1.71 1.215 2.49 3.24 2.49zm-.225-4.695c-.87 0-1.365-.555-1.365-1.74v-1.2c0-1.17.495-1.74 1.38-1.74.825 0 1.455.51 1.86 1.44v1.785c-.405.945-1.035 1.455-1.875 1.455zM62.292 149h6.42v-1.635h-4.59V138.8h-1.83V149zm7.764 0h1.83v-10.2h-1.83V149zm7.921.18c2.61 0 3.885-1.29 3.885-3.96v-1.875h-3.675v1.605h1.905v.255c0 1.665-.615 2.37-2.085 2.37-1.53 0-2.19-.765-2.19-2.505v-2.34c0-1.74.645-2.505 2.115-2.505 1.35 0 1.995.615 2.07 1.74h1.755c-.09-2.205-1.47-3.345-3.84-3.345-2.595 0-3.93 1.365-3.93 4.005v2.55c0 2.655 1.335 4.005 3.99 4.005z"/>
    </g>
    <defs>
        <filter id="c" width="143" height="143" x="130" y="68" color-interpolation-filters="sRGB" filterUnits="userSpaceOnUse">
            <feFlood flood-opacity="0" result="BackgroundImageFix"/>
            <feColorMatrix in="SourceAlpha" values="0 0 0 0 0 0 0 0 0 0 0 0 0 0 0 0 0 0 127 0"/>
            <feOffset dy="4"/>
            <feGaussianBlur stdDeviation="4"/>
            <feColorMatrix values="0 0 0 0 0 0 0 0 0 0 0 0 0 0 0 0 0 0 0.25 0"/>
            <feBlend in2="BackgroundImageFix" result="effect1_dropShadow"/>
            <feBlend in="SourceGraphic" in2="effect1_dropShadow" result="shape"/>
        </filter>
        <filter id="d" width="143" height="143" x="128" y="241" color-interpolation-filters="sRGB" filterUnits="userSpaceOnUse">
            <feFlood flood-opacity="0" result="BackgroundImageFix"/>
            <feColorMatrix in="SourceAlpha" values="0 0 0 0 0 0 0 0 0 0 0 0 0 0 0 0 0 0 127 0"/>
            <feOffset dy="4"/>
            <feGaussianBlur stdDeviation="4"/>
            <feColorMatrix values="0 0 0 0 0 0 0 0 0 0 0 0 0 0 0 0 0 0 0.25 0"/>
            <feBlend in2="BackgroundImageFix" result="effect1_dropShadow"/>
            <feBlend in="SourceGraphic" in2="effect1_dropShadow" result="shape"/>
        </filter>
        <filter id="e" width="143" height="143" x="130" y="414" color-interpolation-filters="sRGB" filterUnits="userSpaceOnUse">
            <feFlood flood-opacity="0" result="BackgroundImageFix"/>
            <feColorMatrix in="SourceAlpha" values="0 0 0 0 0 0 0 0 0 0 0 0 0 0 0 0 0 0 127 0"/>
            <feOffset dy="4"/>
            <feGaussianBlur stdDeviation="4"/>
            <feColorMatrix values="0 0 0 0 0 0 0 0 0 0 0 0 0 0 0 0 0 0 0.25 0"/>
            <feBlend in2="BackgroundImageFix" result="effect1_dropShadow"/>
            <feBlend in="SourceGraphic" in2="effect1_dropShadow" result="shape"/>
        </filter>
        <filter id="f" width="143" height="143" x="285" y="752" color-interpolation-filters="sRGB" filterUnits="userSpaceOnUse">
            <feFlood flood-opacity="0" result="BackgroundImageFix"/>
            <feColorMatrix in="SourceAlpha" values="0 0 0 0 0 0 0 0 0 0 0 0 0 0 0 0 0 0 127 0"/>
            <feOffset dy="4"/>
            <feGaussianBlur stdDeviation="4"/>
            <feColorMatrix values="0 0 0 0 0 0 0 0 0 0 0 0 0 0 0 0 0 0 0.25 0"/>
            <feBlend in2="BackgroundImageFix" result="effect1_dropShadow"/>
            <feBlend in="SourceGraphic" in2="effect1_dropShadow" result="shape"/>
        </filter>
        <filter id="g" width="143" height="143" x="286" y="587" color-interpolation-filters="sRGB" filterUnits="userSpaceOnUse">
            <feFlood flood-opacity="0" result="BackgroundImageFix"/>
            <feColorMatrix in="SourceAlpha" values="0 0 0 0 0 0 0 0 0 0 0 0 0 0 0 0 0 0 127 0"/>
            <feOffset dy="4"/>
            <feGaussianBlur stdDeviation="4"/>
            <feColorMatrix values="0 0 0 0 0 0 0 0 0 0 0 0 0 0 0 0 0 0 0.25 0"/>
            <feBlend in2="BackgroundImageFix" result="effect1_dropShadow"/>
            <feBlend in="SourceGraphic" in2="effect1_dropShadow" result="shape"/>
        </filter>
        <filter id="h" width="143" height="143.001" x="130" y="752" color-interpolation-filters="sRGB" filterUnits="userSpaceOnUse">
            <feFlood flood-opacity="0" result="BackgroundImageFix"/>
            <feColorMatrix in="SourceAlpha" values="0 0 0 0 0 0 0 0 0 0 0 0 0 0 0 0 0 0 127 0"/>
            <feOffset dy="4"/>
            <feGaussianBlur stdDeviation="4"/>
            <feColorMatrix values="0 0 0 0 0 0 0 0 0 0 0 0 0 0 0 0 0 0 0.25 0"/>
            <feBlend in2="BackgroundImageFix" result="effect1_dropShadow"/>
            <feBlend in="SourceGraphic" in2="effect1_dropShadow" result="shape"/>
        </filter>
        <filter id="i" width="143" height="143" x="286" y="241" color-interpolation-filters="sRGB" filterUnits="userSpaceOnUse">
            <feFlood flood-opacity="0" result="BackgroundImageFix"/>
            <feColorMatrix in="SourceAlpha" values="0 0 0 0 0 0 0 0 0 0 0 0 0 0 0 0 0 0 127 0"/>
            <feOffset dy="4"/>
            <feGaussianBlur stdDeviation="4"/>
            <feColorMatrix values="0 0 0 0 0 0 0 0 0 0 0 0 0 0 0 0 0 0 0.25 0"/>
            <feBlend in2="BackgroundImageFix" result="effect1_dropShadow"/>
            <feBlend in="SourceGraphic" in2="effect1_dropShadow" result="shape"/>
        </filter>
        <filter id="j" width="143" height="143" x="285" y="68" color-interpolation-filters="sRGB" filterUnits="userSpaceOnUse">
            <feFlood flood-opacity="0" result="BackgroundImageFix"/>
            <feColorMatrix in="SourceAlpha" values="0 0 0 0 0 0 0 0 0 0 0 0 0 0 0 0 0 0 127 0"/>
            <feOffset dy="4"/>
            <feGaussianBlur stdDeviation="4"/>
            <feColorMatrix values="0 0 0 0 0 0 0 0 0 0 0 0 0 0 0 0 0 0 0.25 0"/>
            <feBlend in2="BackgroundImageFix" result="effect1_dropShadow"/>
            <feBlend in="SourceGraphic" in2="effect1_dropShadow" result="shape"/>
        </filter>
        <filter id="k" width="143" height="143" x="130" y="587" color-interpolation-filters="sRGB" filterUnits="userSpaceOnUse">
            <feFlood flood-opacity="0" result="BackgroundImageFix"/>
            <feColorMatrix in="SourceAlpha" values="0 0 0 0 0 0 0 0 0 0 0 0 0 0 0 0 0 0 127 0"/>
            <feOffset dy="4"/>
            <feGaussianBlur stdDeviation="4"/>
            <feColorMatrix values="0 0 0 0 0 0 0 0 0 0 0 0 0 0 0 0 0 0 0.25 0"/>
            <feBlend in2="BackgroundImageFix" result="effect1_dropShadow"/>
            <feBlend in="SourceGraphic" in2="effect1_dropShadow" result="shape"/>
        </filter>
        <filter id="l" width="143" height="143" x="286" y="414" color-interpolation-filters="sRGB" filterUnits="userSpaceOnUse">
            <feFlood flood-opacity="0" result="BackgroundImageFix"/>
            <feColorMatrix in="SourceAlpha" values="0 0 0 0 0 0 0 0 0 0 0 0 0 0 0 0 0 0 127 0"/>
            <feOffset dy="4"/>
            <feGaussianBlur stdDeviation="4"/>
            <feColorMatrix values="0 0 0 0 0 0 0 0 0 0 0 0 0 0 0 0 0 0 0.25 0"/>
            <feBlend in2="BackgroundImageFix" result="effect1_dropShadow"/>
            <feBlend in="SourceGraphic" in2="effect1_dropShadow" result="shape"/>
        </filter>
        <filter id="m" width="51.083" height="81.581" x="43" y="55" color-interpolation-filters="sRGB" filterUnits="userSpaceOnUse">
            <feFlood flood-opacity="0" result="BackgroundImageFix"/>
            <feColorMatrix in="SourceAlpha" values="0 0 0 0 0 0 0 0 0 0 0 0 0 0 0 0 0 0 127 0"/>
            <feOffset/>
            <feGaussianBlur stdDeviation="4"/>
            <feColorMatrix values="0 0 0 0 0 0 0 0 0 0.243137 0 0 0 0 0.419608 0 0 0 1 0"/>
            <feBlend in2="BackgroundImageFix" result="effect1_dropShadow"/>
            <feBlend in="SourceGraphic" in2="effect1_dropShadow" result="shape"/>
        </filter>
        <linearGradient id="b" x1="278.5" x2="278.5" y2="924" gradientUnits="userSpaceOnUse">
            <stop stop-color="#0063C3"/>
            <stop offset="1" stop-color="#003E6B"/>
        </linearGradient>
        <clipPath id="a">
            <path fill="#fff" d="M0 0h557v924H0z"/>
        </clipPath>
    </defs>
</svg>
