<svg width="525" height="652" viewBox="0 0 525 652" fill="none" xmlns="http://www.w3.org/2000/svg">
<path d="M440.17 9.14404H445.186V8.14804H441.25V0.984043H440.17V9.14404ZM448.233 9.28804C449.133 9.28804 449.829 8.94004 450.333 8.30404L450.369 9.14404H451.269V5.10004C451.269 3.56404 450.477 2.80804 448.845 2.80804C447.297 2.80804 446.457 3.49204 446.349 4.83604H447.381C447.417 4.08004 447.933 3.72004 448.809 3.72004C449.769 3.72004 450.213 4.16404 450.213 5.12404V5.46004H448.725C446.985 5.46004 446.169 6.15604 446.169 7.39204C446.169 8.60404 446.961 9.28804 448.233 9.28804ZM448.389 8.37604C447.609 8.37604 447.225 8.01604 447.225 7.36804C447.225 6.67204 447.681 6.33604 448.761 6.33604H450.213V7.21204C449.841 7.96804 449.217 8.37604 448.389 8.37604ZM453.129 9.14404H454.185V5.12404C454.629 4.21204 455.193 3.78004 455.925 3.78004C456.657 3.78004 457.017 4.20004 457.017 5.17204V9.14404H458.073V5.07604C458.073 3.58804 457.425 2.80804 456.129 2.80804C455.265 2.80804 454.605 3.15604 454.065 3.92404L454.029 2.95204H453.129V9.14404ZM462.349 9.28804C463.837 9.28804 464.761 8.61604 464.845 7.29604H463.825C463.753 7.96804 463.261 8.37604 462.325 8.37604C461.221 8.37604 460.717 7.82404 460.717 6.61204V6.33604H464.893V5.43604C464.893 3.73204 463.969 2.80804 462.277 2.80804C460.585 2.80804 459.661 3.73204 459.661 5.43604V6.66004C459.661 8.36404 460.609 9.28804 462.349 9.28804ZM460.717 5.46004C460.717 4.27204 461.209 3.72004 462.301 3.72004C463.381 3.72004 463.873 4.27204 463.873 5.46004H460.717ZM472.435 9.28804C474.283 9.28804 475.243 8.31604 475.243 6.56404C475.243 4.86004 474.331 3.96004 472.747 3.96004C471.847 3.96004 471.139 4.24804 470.635 4.83604V3.68404C470.635 2.42404 471.235 1.80004 472.471 1.80004C473.479 1.80004 474.031 2.22004 474.103 3.04804H475.135C475.075 1.60804 474.139 0.840043 472.459 0.840043C470.587 0.840043 469.579 1.81204 469.579 3.62404V6.51604C469.579 8.34004 470.611 9.28804 472.435 9.28804ZM472.435 8.32804C471.259 8.32804 470.635 7.72804 470.635 6.49204V6.21604C470.983 5.35204 471.631 4.92004 472.555 4.92004C473.635 4.92004 474.175 5.49604 474.175 6.58804C474.175 7.71604 473.611 8.32804 472.435 8.32804Z" fill="white"/>
<path d="M525 16H0V652H525V16Z" fill="white"/>
<path opacity="0.4" d="M504.777 36.3818H22.2256V625.879H504.777V36.3818Z" fill="#7CB4D0"/>
<path opacity="0.1" d="M504.777 36.3818H22.2256V625.879H504.777V36.3818Z" fill="#BCDEEA"/>
<path opacity="0.5" d="M22.2254 36.3821L0 16V652L22.2254 625.879V36.3821Z" fill="#7CB4D0"/>
<path opacity="0.5" d="M504.777 625.879L525 652V16L504.777 36.3821V625.879Z" fill="#7CB4D0"/>
<path opacity="0.4" d="M525 16H0V652H525V16Z" fill="#7CB4D0"/>
<path opacity="0.8" d="M504.777 625.681H22.2254L0 652H525L504.777 625.681Z" fill="#7CB4D0"/>
<path d="M53.5098 9.00009H58.5258V8.00409H54.5898V0.840088H53.5098V9.00009Z" fill="white"/>
<path d="M61.572 9.14409C62.472 9.14409 63.168 8.79609 63.672 8.16009L63.708 9.00009H64.608V4.95609C64.608 3.42009 63.816 2.66409 62.184 2.66409C60.636 2.66409 59.796 3.34809 59.688 4.69209H60.72C60.756 3.93609 61.272 3.57609 62.148 3.57609C63.108 3.57609 63.552 4.02009 63.552 4.98009V5.31609H62.064C60.324 5.31609 59.508 6.01209 59.508 7.24809C59.508 8.46009 60.3 9.14409 61.572 9.14409ZM61.728 8.23209C60.948 8.23209 60.564 7.87209 60.564 7.22409C60.564 6.52809 61.02 6.19209 62.1 6.19209H63.552V7.06809C63.18 7.82409 62.556 8.23209 61.728 8.23209Z" fill="white"/>
<path d="M66.4682 9.00009H67.5242V4.98009C67.9682 4.06809 68.5322 3.63609 69.2642 3.63609C69.9962 3.63609 70.3562 4.05609 70.3562 5.02809V9.00009H71.4122V4.93209C71.4122 3.44409 70.7642 2.66409 69.4682 2.66409C68.6042 2.66409 67.9442 3.01209 67.4042 3.78009L67.3682 2.80809H66.4682V9.00009Z" fill="white"/>
<path d="M75.6879 9.14409C77.1759 9.14409 78.0999 8.47209 78.1839 7.15209H77.1639C77.0919 7.82409 76.5999 8.23209 75.6639 8.23209C74.5599 8.23209 74.0559 7.68009 74.0559 6.46809V6.19209H78.2319V5.29209C78.2319 3.58809 77.3079 2.66409 75.6159 2.66409C73.9239 2.66409 72.9999 3.58809 72.9999 5.29209V6.51609C72.9999 8.22009 73.9479 9.14409 75.6879 9.14409ZM74.0559 5.31609C74.0559 4.12809 74.5479 3.57609 75.6399 3.57609C76.7199 3.57609 77.2119 4.12809 77.2119 5.31609H74.0559Z" fill="white"/>
<path d="M83.5542 9.00009H88.6182V8.00409H86.6142V0.840088H85.6062C85.0662 1.53609 84.3462 1.84809 83.3142 1.88409V2.82009C84.1182 2.79609 84.8862 2.70009 85.5582 2.23209V8.00409H83.5542V9.00009Z" fill="white"/>
<path d="M130.51 9.00005H135.526V8.00405H131.59V0.840045H130.51V9.00005Z" fill="white"/>
<path d="M138.572 9.14404C139.472 9.14404 140.168 8.79605 140.672 8.16005L140.708 9.00005H141.608V4.95605C141.608 3.42004 140.816 2.66405 139.184 2.66405C137.636 2.66405 136.796 3.34804 136.688 4.69204H137.72C137.756 3.93604 138.272 3.57605 139.148 3.57605C140.108 3.57605 140.552 4.02005 140.552 4.98005V5.31605H139.064C137.324 5.31605 136.508 6.01205 136.508 7.24805C136.508 8.46005 137.3 9.14404 138.572 9.14404ZM138.728 8.23205C137.948 8.23205 137.564 7.87205 137.564 7.22405C137.564 6.52805 138.02 6.19204 139.1 6.19204H140.552V7.06805C140.18 7.82405 139.556 8.23205 138.728 8.23205Z" fill="white"/>
<path d="M143.468 9.00005H144.524V4.98005C144.968 4.06805 145.532 3.63604 146.264 3.63604C146.996 3.63604 147.356 4.05605 147.356 5.02805V9.00005H148.412V4.93204C148.412 3.44404 147.764 2.66405 146.468 2.66405C145.604 2.66405 144.944 3.01205 144.404 3.78005L144.368 2.80804H143.468V9.00005Z" fill="white"/>
<path d="M152.688 9.14404C154.176 9.14404 155.1 8.47204 155.184 7.15204H154.164C154.092 7.82404 153.6 8.23205 152.664 8.23205C151.56 8.23205 151.056 7.68004 151.056 6.46804V6.19204H155.232V5.29205C155.232 3.58804 154.308 2.66405 152.616 2.66405C150.924 2.66405 150 3.58804 150 5.29205V6.51605C150 8.22005 150.948 9.14404 152.688 9.14404ZM151.056 5.31605C151.056 4.12805 151.548 3.57605 152.64 3.57605C153.72 3.57605 154.212 4.12805 154.212 5.31605H151.056Z" fill="white"/>
<path d="M159.858 9.00005H165.462V8.00405H160.902C160.95 7.12805 161.49 6.60004 162.99 5.92804C164.802 5.11204 165.486 4.32005 165.486 3.02404C165.486 1.59604 164.55 0.696045 162.774 0.696045C160.998 0.696045 159.978 1.57205 159.978 3.18005V3.45605H161.01V3.28805C161.01 2.19605 161.622 1.65604 162.762 1.65604C163.89 1.65604 164.43 2.19605 164.43 3.04805C164.43 3.90005 163.926 4.44004 162.486 5.10004C160.578 5.97604 159.858 6.87604 159.858 8.38804V9.00005Z" fill="white"/>
<path d="M207.51 9.00005H212.526V8.00405H208.59V0.840045H207.51V9.00005Z" fill="white"/>
<path d="M215.572 9.14404C216.472 9.14404 217.168 8.79605 217.672 8.16005L217.708 9.00005H218.608V4.95605C218.608 3.42004 217.816 2.66405 216.184 2.66405C214.636 2.66405 213.796 3.34804 213.688 4.69204H214.72C214.756 3.93604 215.272 3.57605 216.148 3.57605C217.108 3.57605 217.552 4.02005 217.552 4.98005V5.31605H216.064C214.324 5.31605 213.508 6.01205 213.508 7.24805C213.508 8.46005 214.3 9.14404 215.572 9.14404ZM215.728 8.23205C214.948 8.23205 214.564 7.87205 214.564 7.22405C214.564 6.52805 215.02 6.19204 216.1 6.19204H217.552V7.06805C217.18 7.82405 216.556 8.23205 215.728 8.23205Z" fill="white"/>
<path d="M220.468 9.00005H221.524V4.98005C221.968 4.06805 222.532 3.63604 223.264 3.63604C223.996 3.63604 224.356 4.05605 224.356 5.02805V9.00005H225.412V4.93204C225.412 3.44404 224.764 2.66405 223.468 2.66405C222.604 2.66405 221.944 3.01205 221.404 3.78005L221.368 2.80804H220.468V9.00005Z" fill="white"/>
<path d="M229.688 9.14404C231.176 9.14404 232.1 8.47204 232.184 7.15204H231.164C231.092 7.82404 230.6 8.23205 229.664 8.23205C228.56 8.23205 228.056 7.68004 228.056 6.46804V6.19204H232.232V5.29205C232.232 3.58804 231.308 2.66405 229.616 2.66405C227.924 2.66405 227 3.58804 227 5.29205V6.51605C227 8.22005 227.948 9.14404 229.688 9.14404ZM228.056 5.31605C228.056 4.12805 228.548 3.57605 229.64 3.57605C230.72 3.57605 231.212 4.12805 231.212 5.31605H228.056Z" fill="white"/>
<path d="M239.702 9.14404C241.55 9.14404 242.57 8.36404 242.57 6.76804C242.57 5.73604 242.15 5.07604 241.262 4.77604V4.75205C241.994 4.44004 242.366 3.82805 242.366 2.94005C242.366 1.50005 241.394 0.696045 239.714 0.696045C237.962 0.696045 236.954 1.56005 236.954 3.06004V3.24005H237.974V3.13205C237.974 2.18405 238.574 1.65604 239.678 1.65604C240.734 1.65604 241.322 2.13604 241.322 3.03605C241.322 3.91204 240.758 4.35605 239.69 4.35605H238.778V5.31605H239.678C240.938 5.31605 241.514 5.79605 241.514 6.73205C241.514 7.72805 240.866 8.18405 239.702 8.18405C238.478 8.18405 237.866 7.68005 237.866 6.69605V6.54005H236.834V6.84005C236.834 8.34005 237.83 9.14404 239.702 9.14404Z" fill="white"/>
<path d="M284.51 9.00009H289.526V8.00409H285.59V0.840088H284.51V9.00009Z" fill="white"/>
<path d="M292.572 9.14409C293.472 9.14409 294.168 8.79609 294.672 8.16009L294.708 9.00009H295.608V4.95609C295.608 3.42009 294.816 2.66409 293.184 2.66409C291.636 2.66409 290.796 3.34809 290.688 4.69209H291.72C291.756 3.93609 292.272 3.57609 293.148 3.57609C294.108 3.57609 294.552 4.02009 294.552 4.98009V5.31609H293.064C291.324 5.31609 290.508 6.01209 290.508 7.24809C290.508 8.46009 291.3 9.14409 292.572 9.14409ZM292.728 8.23209C291.948 8.23209 291.564 7.87209 291.564 7.22409C291.564 6.52809 292.02 6.19209 293.1 6.19209H294.552V7.06809C294.18 7.82409 293.556 8.23209 292.728 8.23209Z" fill="white"/>
<path d="M297.468 9.00009H298.524V4.98009C298.968 4.06809 299.532 3.63609 300.264 3.63609C300.996 3.63609 301.356 4.05609 301.356 5.02809V9.00009H302.412V4.93209C302.412 3.44409 301.764 2.66409 300.468 2.66409C299.604 2.66409 298.944 3.01209 298.404 3.78009L298.368 2.80809H297.468V9.00009Z" fill="white"/>
<path d="M306.688 9.14409C308.176 9.14409 309.1 8.47209 309.184 7.15209H308.164C308.092 7.82409 307.6 8.23209 306.664 8.23209C305.56 8.23209 305.056 7.68009 305.056 6.46809V6.19209H309.232V5.29209C309.232 3.58809 308.308 2.66409 306.616 2.66409C304.924 2.66409 304 3.58809 304 5.29209V6.51609C304 8.22009 304.948 9.14409 306.688 9.14409ZM305.056 5.31609C305.056 4.12809 305.548 3.57609 306.64 3.57609C307.72 3.57609 308.212 4.12809 308.212 5.31609H305.056Z" fill="white"/>
<path d="M317.782 9.00009H318.838V7.12809H319.798V6.16809H318.838V0.840088H317.638L313.582 6.10809V7.12809H317.782V9.00009ZM314.77 6.16809L317.782 2.20809V6.16809H314.77Z" fill="white"/>
<path d="M361.51 9.00009H366.526V8.00409H362.59V0.840088H361.51V9.00009Z" fill="white"/>
<path d="M369.572 9.14409C370.472 9.14409 371.168 8.79609 371.672 8.16009L371.708 9.00009H372.608V4.95609C372.608 3.42009 371.816 2.66409 370.184 2.66409C368.636 2.66409 367.796 3.34809 367.688 4.69209H368.72C368.756 3.93609 369.272 3.57609 370.148 3.57609C371.108 3.57609 371.552 4.02009 371.552 4.98009V5.31609H370.064C368.324 5.31609 367.508 6.01209 367.508 7.24809C367.508 8.46009 368.3 9.14409 369.572 9.14409ZM369.728 8.23209C368.948 8.23209 368.564 7.87209 368.564 7.22409C368.564 6.52809 369.02 6.19209 370.1 6.19209H371.552V7.06809C371.18 7.82409 370.556 8.23209 369.728 8.23209Z" fill="white"/>
<path d="M374.468 9.00009H375.524V4.98009C375.968 4.06809 376.532 3.63609 377.264 3.63609C377.996 3.63609 378.356 4.05609 378.356 5.02809V9.00009H379.412V4.93209C379.412 3.44409 378.764 2.66409 377.468 2.66409C376.604 2.66409 375.944 3.01209 375.404 3.78009L375.368 2.80809H374.468V9.00009Z" fill="white"/>
<path d="M383.688 9.14409C385.176 9.14409 386.1 8.47209 386.184 7.15209H385.164C385.092 7.82409 384.6 8.23209 383.664 8.23209C382.56 8.23209 382.056 7.68009 382.056 6.46809V6.19209H386.232V5.29209C386.232 3.58809 385.308 2.66409 383.616 2.66409C381.924 2.66409 381 3.58809 381 5.29209V6.51609C381 8.22009 381.948 9.14409 383.688 9.14409ZM382.056 5.31609C382.056 4.12809 382.548 3.57609 383.64 3.57609C384.72 3.57609 385.212 4.12809 385.212 5.31609H382.056Z" fill="white"/>
<path d="M393.678 9.14409C395.55 9.14409 396.606 8.23209 396.606 6.38409C396.606 4.63209 395.646 3.67209 393.99 3.67209C393.258 3.67209 392.658 3.86409 392.178 4.24809L392.334 1.83609H396.234V0.840088H391.386L391.11 5.25609H392.082C392.562 4.83609 393.09 4.63209 393.75 4.63209C394.902 4.63209 395.55 5.24409 395.55 6.40809C395.55 7.59609 394.878 8.18409 393.666 8.18409C392.574 8.18409 391.914 7.70409 391.878 6.88809H390.846C390.87 8.29209 391.866 9.14409 393.678 9.14409Z" fill="white"/>
<rect width="69" height="16" transform="translate(38.0647 106.928)" fill="#003E6B"/>
<rect width="69" height="16" transform="translate(38.0647 148.928)" fill="#003E6B"/>
<rect width="69" height="16" transform="translate(38.0647 185.366)" fill="#003E6B"/>
<rect width="69" height="16" transform="translate(38.0647 217.366)" fill="#003E6B"/>
<rect width="69" height="16" transform="translate(38.0647 249.366)" fill="#003E6B"/>
<rect width="69" height="16" transform="translate(38.0647 297.366)" fill="#003E6B"/>
<rect width="69" height="16" transform="translate(38.0647 366.366)" fill="#003E6B"/>
<rect width="69" height="16" transform="translate(38.0647 401.366)" fill="#003E6B"/>
<rect width="69" height="16" transform="translate(38.0647 479.366)" fill="#003E6B"/>
<rect width="69" height="16" transform="translate(38.0647 568.366)" fill="#003E6B"/>
<path d="M44.2766 119H49.7626V117.921H47.5916V110.16H46.4996C45.9146 110.914 45.1346 111.252 44.0166 111.291V112.305C44.8876 112.279 45.7196 112.175 46.4476 111.668V117.921H44.2766V119Z" fill="white"/>
<path d="M54.3849 119.156C56.3609 119.156 57.4269 118.129 57.4269 116.218V112.942C57.4269 111.031 56.3609 110.004 54.3849 110.004C52.4089 110.004 51.3429 111.031 51.3429 112.942V116.218C51.3429 118.129 52.4089 119.156 54.3849 119.156ZM54.3849 118.116C53.1109 118.116 52.4869 117.466 52.4869 116.14V113.02C52.4869 111.694 53.1109 111.044 54.3849 111.044C55.6589 111.044 56.2829 111.694 56.2829 113.02V116.14C56.2829 117.466 55.6589 118.116 54.3849 118.116Z" fill="white"/>
<path d="M65.633 119.156C67.609 119.156 68.675 118.129 68.675 116.218V112.942C68.675 111.031 67.609 110.004 65.633 110.004C63.657 110.004 62.591 111.031 62.591 112.942V116.218C62.591 118.129 63.657 119.156 65.633 119.156ZM65.633 118.116C64.359 118.116 63.735 117.466 63.735 116.14V113.02C63.735 111.694 64.359 111.044 65.633 111.044C66.907 111.044 67.531 111.694 67.531 113.02V116.14C67.531 117.466 66.907 118.116 65.633 118.116Z" fill="white"/>
<path d="M73.4533 119.156C75.4293 119.156 76.4953 118.129 76.4953 116.218V112.942C76.4953 111.031 75.4293 110.004 73.4533 110.004C71.4773 110.004 70.4113 111.031 70.4113 112.942V116.218C70.4113 118.129 71.4773 119.156 73.4533 119.156ZM73.4533 118.116C72.1793 118.116 71.5553 117.466 71.5553 116.14V113.02C71.5553 111.694 72.1793 111.044 73.4533 111.044C74.7273 111.044 75.3513 111.694 75.3513 113.02V116.14C75.3513 117.466 74.7273 118.116 73.4533 118.116Z" fill="white"/>
<path d="M81.2736 119.156C83.2496 119.156 84.3156 118.129 84.3156 116.218V112.942C84.3156 111.031 83.2496 110.004 81.2736 110.004C79.2976 110.004 78.2316 111.031 78.2316 112.942V116.218C78.2316 118.129 79.2976 119.156 81.2736 119.156ZM81.2736 118.116C79.9996 118.116 79.3756 117.466 79.3756 116.14V113.02C79.3756 111.694 79.9996 111.044 81.2736 111.044C82.5476 111.044 83.1716 111.694 83.1716 113.02V116.14C83.1716 117.466 82.5476 118.116 81.2736 118.116Z" fill="white"/>
<path d="M92.9636 119.156C94.5236 119.156 95.4336 118.194 95.4336 116.361V114.931C95.4336 113.098 94.5236 112.136 92.9636 112.136C92.0666 112.136 91.3776 112.461 90.8316 113.176V109.51H89.6876V119H90.6626L90.7016 117.934C91.2736 118.779 91.9886 119.156 92.9636 119.156ZM92.8206 118.155C91.9756 118.155 91.2736 117.596 90.8316 116.634V114.658C91.2736 113.696 91.9626 113.137 92.8206 113.137C93.7436 113.137 94.2896 113.774 94.2896 114.97V116.322C94.2896 117.518 93.7436 118.155 92.8206 118.155Z" fill="white"/>
<path d="M97.254 121.366H98.398V118.116C98.944 118.831 99.633 119.156 100.53 119.156C102.09 119.156 103 118.194 103 116.361V114.931C103 113.098 102.09 112.136 100.53 112.136C99.555 112.136 98.84 112.513 98.268 113.358L98.229 112.292H97.254V121.366ZM100.387 118.155C99.529 118.155 98.84 117.596 98.398 116.634V114.658C98.84 113.696 99.529 113.137 100.387 113.137C101.31 113.137 101.856 113.774 101.856 114.97V116.322C101.856 117.518 101.31 118.155 100.387 118.155Z" fill="white"/>
<path d="M50.6241 161.646C52.7431 161.646 53.8871 160.749 53.8871 159.111C53.8871 158.006 53.3671 157.265 52.3661 156.914V156.888C53.2111 156.563 53.6401 155.9 53.6401 154.938C53.6401 153.391 52.5351 152.494 50.6371 152.494C48.7391 152.494 47.6211 153.391 47.6211 154.938C47.6211 155.9 48.0501 156.563 48.8821 156.888V156.914C47.8811 157.252 47.3611 158.006 47.3611 159.111C47.3611 160.749 48.5051 161.646 50.6241 161.646ZM50.6241 156.446C49.4021 156.446 48.7521 155.939 48.7521 155.003C48.7521 154.041 49.4411 153.534 50.6241 153.534C51.8331 153.534 52.5091 154.054 52.5091 155.003C52.5091 155.939 51.8461 156.446 50.6241 156.446ZM50.6241 160.606C49.2201 160.606 48.5051 160.073 48.5051 159.046C48.5051 158.019 49.2201 157.486 50.6241 157.486C52.0281 157.486 52.7431 158.019 52.7431 159.046C52.7431 160.073 52.0281 160.606 50.6241 160.606Z" fill="white"/>
<path d="M58.4444 161.646C60.4204 161.646 61.4864 160.619 61.4864 158.708V155.432C61.4864 153.521 60.4204 152.494 58.4444 152.494C56.4684 152.494 55.4024 153.521 55.4024 155.432V158.708C55.4024 160.619 56.4684 161.646 58.4444 161.646ZM58.4444 160.606C57.1704 160.606 56.5464 159.956 56.5464 158.63V155.51C56.5464 154.184 57.1704 153.534 58.4444 153.534C59.7184 153.534 60.3424 154.184 60.3424 155.51V158.63C60.3424 159.956 59.7184 160.606 58.4444 160.606Z" fill="white"/>
<path d="M66.2647 161.646C68.2407 161.646 69.3067 160.619 69.3067 158.708V155.432C69.3067 153.521 68.2407 152.494 66.2647 152.494C64.2887 152.494 63.2227 153.521 63.2227 155.432V158.708C63.2227 160.619 64.2887 161.646 66.2647 161.646ZM66.2647 160.606C64.9907 160.606 64.3667 159.956 64.3667 158.63V155.51C64.3667 154.184 64.9907 153.534 66.2647 153.534C67.5387 153.534 68.1627 154.184 68.1627 155.51V158.63C68.1627 159.956 67.5387 160.606 66.2647 160.606Z" fill="white"/>
<path d="M74.085 161.646C76.061 161.646 77.127 160.619 77.127 158.708V155.432C77.127 153.521 76.061 152.494 74.085 152.494C72.109 152.494 71.043 153.521 71.043 155.432V158.708C71.043 160.619 72.109 161.646 74.085 161.646ZM74.085 160.606C72.811 160.606 72.187 159.956 72.187 158.63V155.51C72.187 154.184 72.811 153.534 74.085 153.534C75.359 153.534 75.983 154.184 75.983 155.51V158.63C75.983 159.956 75.359 160.606 74.085 160.606Z" fill="white"/>
<path d="M85.7751 161.646C87.3351 161.646 88.2451 160.684 88.2451 158.851V157.421C88.2451 155.588 87.3351 154.626 85.7751 154.626C84.8781 154.626 84.1891 154.951 83.6431 155.666V152H82.4991V161.49H83.4741L83.5131 160.424C84.0851 161.269 84.8001 161.646 85.7751 161.646ZM85.6321 160.645C84.7871 160.645 84.0851 160.086 83.6431 159.124V157.148C84.0851 156.186 84.7741 155.627 85.6321 155.627C86.5551 155.627 87.1011 156.264 87.1011 157.46V158.812C87.1011 160.008 86.5551 160.645 85.6321 160.645Z" fill="white"/>
<path d="M90.0655 163.856H91.2095V160.606C91.7555 161.321 92.4445 161.646 93.3415 161.646C94.9015 161.646 95.8115 160.684 95.8115 158.851V157.421C95.8115 155.588 94.9015 154.626 93.3415 154.626C92.3665 154.626 91.6515 155.003 91.0795 155.848L91.0405 154.782H90.0655V163.856ZM93.1985 160.645C92.3405 160.645 91.6515 160.086 91.2095 159.124V157.148C91.6515 156.186 92.3405 155.627 93.1985 155.627C94.1215 155.627 94.6675 156.264 94.6675 157.46V158.812C94.6675 160.008 94.1215 160.645 93.1985 160.645Z" fill="white"/>
<path d="M51.4795 198.156C53.4815 198.156 54.5215 197.103 54.5215 195.205C54.5215 193.359 53.5335 192.384 51.8175 192.384C50.8425 192.384 50.0755 192.696 49.5295 193.333V192.085C49.5295 190.72 50.1795 190.044 51.5185 190.044C52.6105 190.044 53.2085 190.499 53.2865 191.396H54.4045C54.3395 189.836 53.3255 189.004 51.5055 189.004C49.4775 189.004 48.3855 190.057 48.3855 192.02V195.153C48.3855 197.129 49.5035 198.156 51.4795 198.156ZM51.4795 197.116C50.2055 197.116 49.5295 196.466 49.5295 195.127V194.828C49.9065 193.892 50.6085 193.424 51.6095 193.424C52.7795 193.424 53.3645 194.048 53.3645 195.231C53.3645 196.453 52.7535 197.116 51.4795 197.116Z" fill="white"/>
<path d="M59.1828 198.156C61.1588 198.156 62.2248 197.129 62.2248 195.218V191.942C62.2248 190.031 61.1588 189.004 59.1828 189.004C57.2068 189.004 56.1408 190.031 56.1408 191.942V195.218C56.1408 197.129 57.2068 198.156 59.1828 198.156ZM59.1828 197.116C57.9088 197.116 57.2848 196.466 57.2848 195.14V192.02C57.2848 190.694 57.9088 190.044 59.1828 190.044C60.4568 190.044 61.0808 190.694 61.0808 192.02V195.14C61.0808 196.466 60.4568 197.116 59.1828 197.116Z" fill="white"/>
<path d="M67.0031 198.156C68.9791 198.156 70.0451 197.129 70.0451 195.218V191.942C70.0451 190.031 68.9791 189.004 67.0031 189.004C65.0271 189.004 63.9611 190.031 63.9611 191.942V195.218C63.9611 197.129 65.0271 198.156 67.0031 198.156ZM67.0031 197.116C65.7291 197.116 65.1051 196.466 65.1051 195.14V192.02C65.1051 190.694 65.7291 190.044 67.0031 190.044C68.2771 190.044 68.9011 190.694 68.9011 192.02V195.14C68.9011 196.466 68.2771 197.116 67.0031 197.116Z" fill="white"/>
<path d="M74.8234 198.156C76.7994 198.156 77.8654 197.129 77.8654 195.218V191.942C77.8654 190.031 76.7994 189.004 74.8234 189.004C72.8474 189.004 71.7814 190.031 71.7814 191.942V195.218C71.7814 197.129 72.8474 198.156 74.8234 198.156ZM74.8234 197.116C73.5494 197.116 72.9254 196.466 72.9254 195.14V192.02C72.9254 190.694 73.5494 190.044 74.8234 190.044C76.0974 190.044 76.7214 190.694 76.7214 192.02V195.14C76.7214 196.466 76.0974 197.116 74.8234 197.116Z" fill="white"/>
<path d="M86.5135 198.156C88.0735 198.156 88.9835 197.194 88.9835 195.361V193.931C88.9835 192.098 88.0735 191.136 86.5135 191.136C85.6165 191.136 84.9275 191.461 84.3815 192.176V188.51H83.2375V198H84.2125L84.2515 196.934C84.8235 197.779 85.5385 198.156 86.5135 198.156ZM86.3705 197.155C85.5255 197.155 84.8235 196.596 84.3815 195.634V193.658C84.8235 192.696 85.5125 192.137 86.3705 192.137C87.2935 192.137 87.8395 192.774 87.8395 193.97V195.322C87.8395 196.518 87.2935 197.155 86.3705 197.155Z" fill="white"/>
<path d="M90.8039 200.366H91.9479V197.116C92.4939 197.831 93.1829 198.156 94.0799 198.156C95.6399 198.156 96.5499 197.194 96.5499 195.361V193.931C96.5499 192.098 95.6399 191.136 94.0799 191.136C93.1049 191.136 92.3899 191.513 91.8179 192.358L91.7789 191.292H90.8039V200.366ZM93.9369 197.155C93.0789 197.155 92.3899 196.596 91.9479 195.634V193.658C92.3899 192.696 93.0789 192.137 93.9369 192.137C94.8599 192.137 95.4059 192.774 95.4059 193.97V195.322C95.4059 196.518 94.8599 197.155 93.9369 197.155Z" fill="white"/>
<path d="M51.5116 230.084C53.5396 230.084 54.6836 229.096 54.6836 227.094C54.6836 225.196 53.6436 224.156 51.8496 224.156C51.0566 224.156 50.4066 224.364 49.8866 224.78L50.0556 222.167H54.2806V221.088H49.0286L48.7296 225.872H49.7826C50.3026 225.417 50.8746 225.196 51.5896 225.196C52.8376 225.196 53.5396 225.859 53.5396 227.12C53.5396 228.407 52.8116 229.044 51.4986 229.044C50.3156 229.044 49.6006 228.524 49.5616 227.64H48.4436C48.4696 229.161 49.5486 230.084 51.5116 230.084Z" fill="white"/>
<path d="M59.3189 230.084C61.2949 230.084 62.3609 229.057 62.3609 227.146V223.87C62.3609 221.959 61.2949 220.932 59.3189 220.932C57.3429 220.932 56.2769 221.959 56.2769 223.87V227.146C56.2769 229.057 57.3429 230.084 59.3189 230.084ZM59.3189 229.044C58.0449 229.044 57.4209 228.394 57.4209 227.068V223.948C57.4209 222.622 58.0449 221.972 59.3189 221.972C60.5929 221.972 61.2169 222.622 61.2169 223.948V227.068C61.2169 228.394 60.5929 229.044 59.3189 229.044Z" fill="white"/>
<path d="M67.1392 230.084C69.1152 230.084 70.1812 229.057 70.1812 227.146V223.87C70.1812 221.959 69.1152 220.932 67.1392 220.932C65.1632 220.932 64.0972 221.959 64.0972 223.87V227.146C64.0972 229.057 65.1632 230.084 67.1392 230.084ZM67.1392 229.044C65.8652 229.044 65.2412 228.394 65.2412 227.068V223.948C65.2412 222.622 65.8652 221.972 67.1392 221.972C68.4132 221.972 69.0372 222.622 69.0372 223.948V227.068C69.0372 228.394 68.4132 229.044 67.1392 229.044Z" fill="white"/>
<path d="M74.9595 230.084C76.9355 230.084 78.0015 229.057 78.0015 227.146V223.87C78.0015 221.959 76.9355 220.932 74.9595 220.932C72.9835 220.932 71.9175 221.959 71.9175 223.87V227.146C71.9175 229.057 72.9835 230.084 74.9595 230.084ZM74.9595 229.044C73.6855 229.044 73.0615 228.394 73.0615 227.068V223.948C73.0615 222.622 73.6855 221.972 74.9595 221.972C76.2335 221.972 76.8575 222.622 76.8575 223.948V227.068C76.8575 228.394 76.2335 229.044 74.9595 229.044Z" fill="white"/>
<path d="M86.6496 230.084C88.2096 230.084 89.1196 229.122 89.1196 227.289V225.859C89.1196 224.026 88.2096 223.064 86.6496 223.064C85.7526 223.064 85.0636 223.389 84.5176 224.104V220.438H83.3736V229.928H84.3486L84.3876 228.862C84.9596 229.707 85.6746 230.084 86.6496 230.084ZM86.5066 229.083C85.6616 229.083 84.9596 228.524 84.5176 227.562V225.586C84.9596 224.624 85.6486 224.065 86.5066 224.065C87.4296 224.065 87.9756 224.702 87.9756 225.898V227.25C87.9756 228.446 87.4296 229.083 86.5066 229.083Z" fill="white"/>
<path d="M90.94 232.294H92.084V229.044C92.63 229.759 93.319 230.084 94.216 230.084C95.776 230.084 96.686 229.122 96.686 227.289V225.859C96.686 224.026 95.776 223.064 94.216 223.064C93.241 223.064 92.526 223.441 91.954 224.286L91.915 223.22H90.94V232.294ZM94.073 229.083C93.215 229.083 92.526 228.524 92.084 227.562V225.586C92.526 224.624 93.215 224.065 94.073 224.065C94.996 224.065 95.542 224.702 95.542 225.898V227.25C95.542 228.446 94.996 229.083 94.073 229.083Z" fill="white"/>
<path d="M51.8332 261.856H52.9772V259.828H54.0172V258.788H52.9772V253.016H51.6772L47.2832 258.723V259.828H51.8332V261.856ZM48.5702 258.788L51.8332 254.498V258.788H48.5702Z" fill="white"/>
<path d="M58.4445 262.012C60.4205 262.012 61.4865 260.985 61.4865 259.074V255.798C61.4865 253.887 60.4205 252.86 58.4445 252.86C56.4685 252.86 55.4025 253.887 55.4025 255.798V259.074C55.4025 260.985 56.4685 262.012 58.4445 262.012ZM58.4445 260.972C57.1705 260.972 56.5465 260.322 56.5465 258.996V255.876C56.5465 254.55 57.1705 253.9 58.4445 253.9C59.7185 253.9 60.3425 254.55 60.3425 255.876V258.996C60.3425 260.322 59.7185 260.972 58.4445 260.972Z" fill="white"/>
<path d="M66.2648 262.012C68.2408 262.012 69.3068 260.985 69.3068 259.074V255.798C69.3068 253.887 68.2408 252.86 66.2648 252.86C64.2888 252.86 63.2228 253.887 63.2228 255.798V259.074C63.2228 260.985 64.2888 262.012 66.2648 262.012ZM66.2648 260.972C64.9908 260.972 64.3668 260.322 64.3668 258.996V255.876C64.3668 254.55 64.9908 253.9 66.2648 253.9C67.5388 253.9 68.1628 254.55 68.1628 255.876V258.996C68.1628 260.322 67.5388 260.972 66.2648 260.972Z" fill="white"/>
<path d="M74.0851 262.012C76.0611 262.012 77.1271 260.985 77.1271 259.074V255.798C77.1271 253.887 76.0611 252.86 74.0851 252.86C72.1091 252.86 71.0431 253.887 71.0431 255.798V259.074C71.0431 260.985 72.1091 262.012 74.0851 262.012ZM74.0851 260.972C72.8111 260.972 72.1871 260.322 72.1871 258.996V255.876C72.1871 254.55 72.8111 253.9 74.0851 253.9C75.3591 253.9 75.9831 254.55 75.9831 255.876V258.996C75.9831 260.322 75.3591 260.972 74.0851 260.972Z" fill="white"/>
<path d="M85.7752 262.012C87.3352 262.012 88.2452 261.05 88.2452 259.217V257.787C88.2452 255.954 87.3352 254.992 85.7752 254.992C84.8782 254.992 84.1892 255.317 83.6432 256.032V252.366H82.4992V261.856H83.4742L83.5132 260.79C84.0852 261.635 84.8002 262.012 85.7752 262.012ZM85.6322 261.011C84.7872 261.011 84.0852 260.452 83.6432 259.49V257.514C84.0852 256.552 84.7742 255.993 85.6322 255.993C86.5552 255.993 87.1012 256.63 87.1012 257.826V259.178C87.1012 260.374 86.5552 261.011 85.6322 261.011Z" fill="white"/>
<path d="M90.0656 264.222H91.2096V260.972C91.7556 261.687 92.4446 262.012 93.3416 262.012C94.9016 262.012 95.8116 261.05 95.8116 259.217V257.787C95.8116 255.954 94.9016 254.992 93.3416 254.992C92.3666 254.992 91.6516 255.369 91.0796 256.214L91.0406 255.148H90.0656V264.222ZM93.1986 261.011C92.3406 261.011 91.6516 260.452 91.2096 259.49V257.514C91.6516 256.552 92.3406 255.993 93.1986 255.993C94.1216 255.993 94.6676 256.63 94.6676 257.826V259.178C94.6676 260.374 94.1216 261.011 93.1986 261.011Z" fill="white"/>
<path d="M47.7708 379H53.8418V377.921H48.9018C48.9538 376.972 49.5388 376.4 51.1638 375.672C53.1268 374.788 53.8678 373.93 53.8678 372.526C53.8678 370.979 52.8538 370.004 50.9298 370.004C49.0058 370.004 47.9008 370.953 47.9008 372.695V372.994H49.0188V372.812C49.0188 371.629 49.6818 371.044 50.9168 371.044C52.1388 371.044 52.7238 371.629 52.7238 372.552C52.7238 373.475 52.1778 374.06 50.6178 374.775C48.5508 375.724 47.7708 376.699 47.7708 378.337V379Z" fill="white"/>
<path d="M58.6331 379.156C60.6091 379.156 61.6751 378.129 61.6751 376.218V372.942C61.6751 371.031 60.6091 370.004 58.6331 370.004C56.6571 370.004 55.5911 371.031 55.5911 372.942V376.218C55.5911 378.129 56.6571 379.156 58.6331 379.156ZM58.6331 378.116C57.3591 378.116 56.7351 377.466 56.7351 376.14V373.02C56.7351 371.694 57.3591 371.044 58.6331 371.044C59.9071 371.044 60.5311 371.694 60.5311 373.02V376.14C60.5311 377.466 59.9071 378.116 58.6331 378.116Z" fill="white"/>
<path d="M66.4534 379.156C68.4294 379.156 69.4954 378.129 69.4954 376.218V372.942C69.4954 371.031 68.4294 370.004 66.4534 370.004C64.4774 370.004 63.4114 371.031 63.4114 372.942V376.218C63.4114 378.129 64.4774 379.156 66.4534 379.156ZM66.4534 378.116C65.1794 378.116 64.5554 377.466 64.5554 376.14V373.02C64.5554 371.694 65.1794 371.044 66.4534 371.044C67.7274 371.044 68.3514 371.694 68.3514 373.02V376.14C68.3514 377.466 67.7274 378.116 66.4534 378.116Z" fill="white"/>
<path d="M74.2737 379.156C76.2497 379.156 77.3157 378.129 77.3157 376.218V372.942C77.3157 371.031 76.2497 370.004 74.2737 370.004C72.2977 370.004 71.2317 371.031 71.2317 372.942V376.218C71.2317 378.129 72.2977 379.156 74.2737 379.156ZM74.2737 378.116C72.9997 378.116 72.3757 377.466 72.3757 376.14V373.02C72.3757 371.694 72.9997 371.044 74.2737 371.044C75.5477 371.044 76.1717 371.694 76.1717 373.02V376.14C76.1717 377.466 75.5477 378.116 74.2737 378.116Z" fill="white"/>
<path d="M85.9637 379.156C87.5237 379.156 88.4337 378.194 88.4337 376.361V374.931C88.4337 373.098 87.5237 372.136 85.9637 372.136C85.0667 372.136 84.3777 372.461 83.8317 373.176V369.51H82.6877V379H83.6627L83.7017 377.934C84.2737 378.779 84.9887 379.156 85.9637 379.156ZM85.8207 378.155C84.9757 378.155 84.2737 377.596 83.8317 376.634V374.658C84.2737 373.696 84.9627 373.137 85.8207 373.137C86.7437 373.137 87.2897 373.774 87.2897 374.97V376.322C87.2897 377.518 86.7437 378.155 85.8207 378.155Z" fill="white"/>
<path d="M90.2541 381.366H91.3981V378.116C91.9441 378.831 92.6331 379.156 93.5301 379.156C95.0901 379.156 96.0001 378.194 96.0001 376.361V374.931C96.0001 373.098 95.0901 372.136 93.5301 372.136C92.5551 372.136 91.8401 372.513 91.2681 373.358L91.2291 372.292H90.2541V381.366ZM93.3871 378.155C92.5291 378.155 91.8401 377.596 91.3981 376.634V374.658C91.8401 373.696 92.5291 373.137 93.3871 373.137C94.3101 373.137 94.8561 373.774 94.8561 374.97V376.322C94.8561 377.518 94.3101 378.155 93.3871 378.155Z" fill="white"/>
<path d="M49.5246 414H55.0106V412.921H52.8396V405.16H51.7476C51.1626 405.914 50.3826 406.252 49.2646 406.291V407.305C50.1356 407.279 50.9676 407.175 51.6956 406.668V412.921H49.5246V414Z" fill="white"/>
<path d="M59.646 414.156C61.674 414.156 62.818 413.168 62.818 411.166C62.818 409.268 61.778 408.228 59.984 408.228C59.191 408.228 58.541 408.436 58.021 408.852L58.19 406.239H62.415V405.16H57.163L56.864 409.944H57.917C58.437 409.489 59.009 409.268 59.724 409.268C60.972 409.268 61.674 409.931 61.674 411.192C61.674 412.479 60.946 413.116 59.633 413.116C58.45 413.116 57.735 412.596 57.696 411.712H56.578C56.604 413.233 57.683 414.156 59.646 414.156Z" fill="white"/>
<path d="M67.4533 414.156C69.4293 414.156 70.4953 413.129 70.4953 411.218V407.942C70.4953 406.031 69.4293 405.004 67.4533 405.004C65.4773 405.004 64.4113 406.031 64.4113 407.942V411.218C64.4113 413.129 65.4773 414.156 67.4533 414.156ZM67.4533 413.116C66.1793 413.116 65.5553 412.466 65.5553 411.14V408.02C65.5553 406.694 66.1793 406.044 67.4533 406.044C68.7273 406.044 69.3513 406.694 69.3513 408.02V411.14C69.3513 412.466 68.7273 413.116 67.4533 413.116Z" fill="white"/>
<path d="M75.2736 414.156C77.2496 414.156 78.3156 413.129 78.3156 411.218V407.942C78.3156 406.031 77.2496 405.004 75.2736 405.004C73.2976 405.004 72.2316 406.031 72.2316 407.942V411.218C72.2316 413.129 73.2976 414.156 75.2736 414.156ZM75.2736 413.116C73.9996 413.116 73.3756 412.466 73.3756 411.14V408.02C73.3756 406.694 73.9996 406.044 75.2736 406.044C76.5476 406.044 77.1716 406.694 77.1716 408.02V411.14C77.1716 412.466 76.5476 413.116 75.2736 413.116Z" fill="white"/>
<path d="M86.9636 414.156C88.5236 414.156 89.4336 413.194 89.4336 411.361V409.931C89.4336 408.098 88.5236 407.136 86.9636 407.136C86.0666 407.136 85.3776 407.461 84.8316 408.176V404.51H83.6876V414H84.6626L84.7016 412.934C85.2736 413.779 85.9886 414.156 86.9636 414.156ZM86.8206 413.155C85.9756 413.155 85.2736 412.596 84.8316 411.634V409.658C85.2736 408.696 85.9626 408.137 86.8206 408.137C87.7436 408.137 88.2896 408.774 88.2896 409.97V411.322C88.2896 412.518 87.7436 413.155 86.8206 413.155Z" fill="white"/>
<path d="M91.254 416.366H92.398V413.116C92.944 413.831 93.633 414.156 94.53 414.156C96.09 414.156 97 413.194 97 411.361V409.931C97 408.098 96.09 407.136 94.53 407.136C93.555 407.136 92.84 407.513 92.268 408.358L92.229 407.292H91.254V416.366ZM94.387 413.155C93.529 413.155 92.84 412.596 92.398 411.634V409.658C92.84 408.696 93.529 408.137 94.387 408.137C95.31 408.137 95.856 408.774 95.856 409.97V411.322C95.856 412.518 95.31 413.155 94.387 413.155Z" fill="white"/>
<path d="M49.5246 492H55.0106V490.921H52.8396V483.16H51.7476C51.1626 483.914 50.3826 484.252 49.2646 484.291V485.305C50.1356 485.279 50.9676 485.175 51.6956 484.668V490.921H49.5246V492Z" fill="white"/>
<path d="M59.633 492.156C61.609 492.156 62.675 491.129 62.675 489.218V485.942C62.675 484.031 61.609 483.004 59.633 483.004C57.657 483.004 56.591 484.031 56.591 485.942V489.218C56.591 491.129 57.657 492.156 59.633 492.156ZM59.633 491.116C58.359 491.116 57.735 490.466 57.735 489.14V486.02C57.735 484.694 58.359 484.044 59.633 484.044C60.907 484.044 61.531 484.694 61.531 486.02V489.14C61.531 490.466 60.907 491.116 59.633 491.116Z" fill="white"/>
<path d="M67.4533 492.156C69.4293 492.156 70.4953 491.129 70.4953 489.218V485.942C70.4953 484.031 69.4293 483.004 67.4533 483.004C65.4773 483.004 64.4113 484.031 64.4113 485.942V489.218C64.4113 491.129 65.4773 492.156 67.4533 492.156ZM67.4533 491.116C66.1793 491.116 65.5553 490.466 65.5553 489.14V486.02C65.5553 484.694 66.1793 484.044 67.4533 484.044C68.7273 484.044 69.3513 484.694 69.3513 486.02V489.14C69.3513 490.466 68.7273 491.116 67.4533 491.116Z" fill="white"/>
<path d="M75.2736 492.156C77.2496 492.156 78.3156 491.129 78.3156 489.218V485.942C78.3156 484.031 77.2496 483.004 75.2736 483.004C73.2976 483.004 72.2316 484.031 72.2316 485.942V489.218C72.2316 491.129 73.2976 492.156 75.2736 492.156ZM75.2736 491.116C73.9996 491.116 73.3756 490.466 73.3756 489.14V486.02C73.3756 484.694 73.9996 484.044 75.2736 484.044C76.5476 484.044 77.1716 484.694 77.1716 486.02V489.14C77.1716 490.466 76.5476 491.116 75.2736 491.116Z" fill="white"/>
<path d="M86.9636 492.156C88.5236 492.156 89.4336 491.194 89.4336 489.361V487.931C89.4336 486.098 88.5236 485.136 86.9636 485.136C86.0666 485.136 85.3776 485.461 84.8316 486.176V482.51H83.6876V492H84.6626L84.7016 490.934C85.2736 491.779 85.9886 492.156 86.9636 492.156ZM86.8206 491.155C85.9756 491.155 85.2736 490.596 84.8316 489.634V487.658C85.2736 486.696 85.9626 486.137 86.8206 486.137C87.7436 486.137 88.2896 486.774 88.2896 487.97V489.322C88.2896 490.518 87.7436 491.155 86.8206 491.155Z" fill="white"/>
<path d="M91.254 494.366H92.398V491.116C92.944 491.831 93.633 492.156 94.53 492.156C96.09 492.156 97 491.194 97 489.361V487.931C97 486.098 96.09 485.136 94.53 485.136C93.555 485.136 92.84 485.513 92.268 486.358L92.229 485.292H91.254V494.366ZM94.387 491.155C93.529 491.155 92.84 490.596 92.398 489.634V487.658C92.84 486.696 93.529 486.137 94.387 486.137C95.31 486.137 95.856 486.774 95.856 487.97V489.322C95.856 490.518 95.31 491.155 94.387 491.155Z" fill="white"/>
<path d="M55.6459 581.156C57.6739 581.156 58.8179 580.168 58.8179 578.166C58.8179 576.268 57.7779 575.228 55.9839 575.228C55.1909 575.228 54.5409 575.436 54.0209 575.852L54.1899 573.239H58.4149V572.16H53.1629L52.8639 576.944H53.9169C54.4369 576.489 55.0089 576.268 55.7239 576.268C56.9719 576.268 57.6739 576.931 57.6739 578.192C57.6739 579.479 56.9459 580.116 55.6329 580.116C54.4499 580.116 53.7349 579.596 53.6959 578.712H52.5779C52.6039 580.233 53.6829 581.156 55.6459 581.156Z" fill="white"/>
<path d="M63.4532 581.156C65.4292 581.156 66.4952 580.129 66.4952 578.218V574.942C66.4952 573.031 65.4292 572.004 63.4532 572.004C61.4772 572.004 60.4112 573.031 60.4112 574.942V578.218C60.4112 580.129 61.4772 581.156 63.4532 581.156ZM63.4532 580.116C62.1792 580.116 61.5552 579.466 61.5552 578.14V575.02C61.5552 573.694 62.1792 573.044 63.4532 573.044C64.7272 573.044 65.3512 573.694 65.3512 575.02V578.14C65.3512 579.466 64.7272 580.116 63.4532 580.116Z" fill="white"/>
<path d="M71.2735 581.156C73.2495 581.156 74.3155 580.129 74.3155 578.218V574.942C74.3155 573.031 73.2495 572.004 71.2735 572.004C69.2975 572.004 68.2315 573.031 68.2315 574.942V578.218C68.2315 580.129 69.2975 581.156 71.2735 581.156ZM71.2735 580.116C69.9995 580.116 69.3755 579.466 69.3755 578.14V575.02C69.3755 573.694 69.9995 573.044 71.2735 573.044C72.5475 573.044 73.1715 573.694 73.1715 575.02V578.14C73.1715 579.466 72.5475 580.116 71.2735 580.116Z" fill="white"/>
<path d="M82.9636 581.156C84.5236 581.156 85.4336 580.194 85.4336 578.361V576.931C85.4336 575.098 84.5236 574.136 82.9636 574.136C82.0666 574.136 81.3776 574.461 80.8316 575.176V571.51H79.6876V581H80.6626L80.7016 579.934C81.2736 580.779 81.9886 581.156 82.9636 581.156ZM82.8206 580.155C81.9756 580.155 81.2736 579.596 80.8316 578.634V576.658C81.2736 575.696 81.9626 575.137 82.8206 575.137C83.7436 575.137 84.2896 575.774 84.2896 576.97V578.322C84.2896 579.518 83.7436 580.155 82.8206 580.155Z" fill="white"/>
<path d="M87.254 583.366H88.398V580.116C88.944 580.831 89.633 581.156 90.53 581.156C92.09 581.156 93 580.194 93 578.361V576.931C93 575.098 92.09 574.136 90.53 574.136C89.555 574.136 88.84 574.513 88.268 575.358L88.229 574.292H87.254V583.366ZM90.387 580.155C89.529 580.155 88.84 579.596 88.398 578.634V576.658C88.84 575.696 89.529 575.137 90.387 575.137C91.31 575.137 91.856 575.774 91.856 576.97V578.322C91.856 579.518 91.31 580.155 90.387 580.155Z" fill="white"/>
<path d="M51.8516 310.156C53.8536 310.156 54.9586 309.311 54.9586 307.582C54.9586 306.464 54.5036 305.749 53.5416 305.424V305.398C54.3346 305.06 54.7376 304.397 54.7376 303.435C54.7376 301.875 53.6846 301.004 51.8646 301.004C49.9666 301.004 48.8746 301.94 48.8746 303.565V303.76H49.9796V303.643C49.9796 302.616 50.6296 302.044 51.8256 302.044C52.9696 302.044 53.6066 302.564 53.6066 303.539C53.6066 304.488 52.9956 304.969 51.8386 304.969H50.8506V306.009H51.8256C53.1906 306.009 53.8146 306.529 53.8146 307.543C53.8146 308.622 53.1126 309.116 51.8516 309.116C50.5256 309.116 49.8626 308.57 49.8626 307.504V307.335H48.7446V307.66C48.7446 309.285 49.8236 310.156 51.8516 310.156Z" fill="white"/>
<path d="M59.6329 310.156C61.6089 310.156 62.6749 309.129 62.6749 307.218V303.942C62.6749 302.031 61.6089 301.004 59.6329 301.004C57.6569 301.004 56.5909 302.031 56.5909 303.942V307.218C56.5909 309.129 57.6569 310.156 59.6329 310.156ZM59.6329 309.116C58.3589 309.116 57.7349 308.466 57.7349 307.14V304.02C57.7349 302.694 58.3589 302.044 59.6329 302.044C60.9069 302.044 61.5309 302.694 61.5309 304.02V307.14C61.5309 308.466 60.9069 309.116 59.6329 309.116Z" fill="white"/>
<path d="M67.4533 310.156C69.4293 310.156 70.4953 309.129 70.4953 307.218V303.942C70.4953 302.031 69.4293 301.004 67.4533 301.004C65.4773 301.004 64.4113 302.031 64.4113 303.942V307.218C64.4113 309.129 65.4773 310.156 67.4533 310.156ZM67.4533 309.116C66.1793 309.116 65.5553 308.466 65.5553 307.14V304.02C65.5553 302.694 66.1793 302.044 67.4533 302.044C68.7273 302.044 69.3513 302.694 69.3513 304.02V307.14C69.3513 308.466 68.7273 309.116 67.4533 309.116Z" fill="white"/>
<path d="M75.2736 310.156C77.2496 310.156 78.3156 309.129 78.3156 307.218V303.942C78.3156 302.031 77.2496 301.004 75.2736 301.004C73.2976 301.004 72.2316 302.031 72.2316 303.942V307.218C72.2316 309.129 73.2976 310.156 75.2736 310.156ZM75.2736 309.116C73.9996 309.116 73.3756 308.466 73.3756 307.14V304.02C73.3756 302.694 73.9996 302.044 75.2736 302.044C76.5476 302.044 77.1716 302.694 77.1716 304.02V307.14C77.1716 308.466 76.5476 309.116 75.2736 309.116Z" fill="white"/>
<path d="M86.9636 310.156C88.5236 310.156 89.4336 309.194 89.4336 307.361V305.931C89.4336 304.098 88.5236 303.136 86.9636 303.136C86.0666 303.136 85.3776 303.461 84.8316 304.176V300.51H83.6876V310H84.6626L84.7016 308.934C85.2736 309.779 85.9886 310.156 86.9636 310.156ZM86.8206 309.155C85.9756 309.155 85.2736 308.596 84.8316 307.634V305.658C85.2736 304.696 85.9626 304.137 86.8206 304.137C87.7436 304.137 88.2896 304.774 88.2896 305.97V307.322C88.2896 308.518 87.7436 309.155 86.8206 309.155Z" fill="white"/>
<path d="M91.254 312.366H92.398V309.116C92.944 309.831 93.633 310.156 94.53 310.156C96.09 310.156 97 309.194 97 307.361V305.931C97 304.098 96.09 303.136 94.53 303.136C93.555 303.136 92.84 303.513 92.268 304.358L92.229 303.292H91.254V312.366ZM94.387 309.155C93.529 309.155 92.84 308.596 92.398 307.634V305.658C92.84 304.696 93.529 304.137 94.387 304.137C95.31 304.137 95.856 304.774 95.856 305.97V307.322C95.856 308.518 95.31 309.155 94.387 309.155Z" fill="white"/>
</svg>
