<svg width="71" height="33" viewBox="0 0 71 33" fill="none" xmlns="http://www.w3.org/2000/svg">
<path d="M5.65283 8.60294H34.3719V23.6029H5.65283C3.16755 23.6029 1.15283 21.5882 1.15283 19.1029V13.1029C1.15283 10.6177 3.16755 8.60294 5.65283 8.60294Z" fill="#ED3431"/>
<path d="M5.65283 8.60294H34.3719V23.6029H5.65283C3.16755 23.6029 1.15283 21.5882 1.15283 19.1029V13.1029C1.15283 10.6177 3.16755 8.60294 5.65283 8.60294Z" fill="#FFF7ED"/>
<path d="M5.65283 8.60294H34.3719V23.6029H5.65283C3.16755 23.6029 1.15283 21.5882 1.15283 19.1029V13.1029C1.15283 10.6177 3.16755 8.60294 5.65283 8.60294Z" stroke="#FAAC48"/>
<path d="M42.6528 8.10237L42.6528 24.1035L56.6517 32.1029L70.6528 24.1035L70.6528 8.10237L56.6517 0.102936L42.6528 8.10237Z" fill="#FAAC48"/>
</svg>
