<svg width="98" height="134" viewBox="0 0 98 134" fill="none" xmlns="http://www.w3.org/2000/svg">
<mask id="path-1-outside-1" maskUnits="userSpaceOnUse" x="33" y="23" width="36" height="66" fill="black">
<rect fill="white" x="33" y="23" width="36" height="66"/>
<path fill-rule="evenodd" clip-rule="evenodd" d="M65.0829 28.5C65.0829 28.0262 65.0057 27.5453 64.7548 27.123C64.4894 26.6766 64.0973 26.4072 63.68 26.2512C63.2894 26.1051 62.8583 26.0508 62.4503 26.0254C62.3297 26.0179 62.204 26.0126 62.0743 26.0088V26H61.1382C61.1235 26 61.1088 26 61.0942 26H61.0941H61.0715H36V28H41.0143V29H40.0115H38.0057V31H40.0106C40.0081 37.1303 40.0016 55.3115 40.0115 56.427C40.0721 63.2041 42.7314 74.4462 44.6961 82.0865C44.6961 82.0865 45.3042 84.7885 46.0526 85.0215C46.7442 85.2367 47.9548 85.5314 48.836 85.575C48.7634 85.5786 48.6931 85.5805 48.6255 85.5805H49.0465C48.9789 85.5805 48.9085 85.5786 48.836 85.575C49.7171 85.5314 50.9278 85.2367 51.6193 85.0215C52.3677 84.7885 52.9759 82.0865 52.9759 82.0865C53.2058 81.1924 53.4516 80.252 53.7063 79.2772C55.3024 73.1705 57.2514 65.7129 57.867 59.8198C57.988 58.8867 58.063 58.0786 58.063 57.5091L58.063 31L61.0715 31L61.0715 31L61.0942 31C61.5777 31 62.0428 31 62.4503 30.9746C62.8583 30.9492 63.2894 30.8949 63.68 30.7488C64.0973 30.5928 64.4894 30.3234 64.7548 29.877C65.0057 29.4547 65.0829 28.9738 65.0829 28.5ZM61.0715 29C61.0715 29 61.0715 29 61.0715 29C61.5827 29 61.9869 28.9996 62.3252 28.9785C62.6693 28.9571 62.8649 28.9176 62.9758 28.8762C63 28.8671 63.0161 28.8594 63.026 28.854L63.0328 28.8502L63.0364 28.8413C63.0408 28.8297 63.0469 28.8107 63.0531 28.7824C63.0658 28.7243 63.0772 28.6339 63.0772 28.5C63.0772 28.3661 63.0658 28.2757 63.0531 28.2176C63.0469 28.1893 63.0408 28.1703 63.0364 28.1587L63.0328 28.1498L63.026 28.146C63.0161 28.1406 63 28.1329 62.9758 28.1238C62.8649 28.0824 62.6693 28.0429 62.3252 28.0215C61.9883 28.0005 61.586 28 61.0777 28C61.0756 28 61.0736 28 61.0715 28H57.06V29H58.063H61.0715Z"/>
</mask>
<path d="M64.7548 27.123L67.3337 25.5904L67.3337 25.5904L64.7548 27.123ZM63.68 26.2512L62.6293 29.0611L62.6293 29.0611L63.68 26.2512ZM62.4503 26.0254L62.2637 29.0196L62.2637 29.0196L62.4503 26.0254ZM62.0743 26.0088H59.0743V28.9239L61.9882 29.0076L62.0743 26.0088ZM62.0743 26H65.0743V23H62.0743V26ZM61.1382 26L61.1381 29H61.1382V26ZM61.0942 26L61.0942 29L61.0942 29L61.0942 26ZM36 26V23H33V26H36ZM36 28H33V31H36V28ZM41.0143 28H44.0143V25H41.0143V28ZM41.0143 29V32H44.0143V29H41.0143ZM38.0057 29V26H35.0057V29H38.0057ZM38.0057 31H35.0057V34H38.0057V31ZM40.0106 31L43.0106 31.0012L43.0119 28H40.0106V31ZM40.0115 56.427L37.0116 56.4538L37.0116 56.4538L40.0115 56.427ZM44.6961 82.0865L47.6229 81.4278L47.6129 81.3834L47.6015 81.3393L44.6961 82.0865ZM46.0526 85.0215L45.1612 87.886L45.1612 87.886L46.0526 85.0215ZM51.6193 85.0215L52.5108 87.886L52.5108 87.886L51.6193 85.0215ZM52.9759 82.0865L50.0704 81.3393L50.0591 81.3834L50.0491 81.4278L52.9759 82.0865ZM53.7063 79.2772L50.8038 78.5186L50.8038 78.5186L53.7063 79.2772ZM57.867 59.8198L54.8919 59.4341L54.8871 59.471L54.8832 59.5081L57.867 59.8198ZM58.063 57.5091L61.063 57.5091L61.063 57.5091L58.063 57.5091ZM58.063 31L58.063 28L55.063 28L55.063 31L58.063 31ZM61.0715 31L61.1396 28.0008L61.1055 28L61.0715 28L61.0715 31ZM61.0715 31L61.0033 33.9992L61.0374 34L61.0715 34L61.0715 31ZM61.0942 31L61.0942 28L61.0941 28L61.0942 31ZM62.4503 30.9746L62.6369 33.9688L62.6369 33.9688L62.4503 30.9746ZM63.68 30.7488L62.6293 27.9389L62.6293 27.9389L63.68 30.7488ZM64.7548 29.877L62.1758 28.3443L62.1758 28.3443L64.7548 29.877ZM62.3252 28.9785L62.5118 31.9727L62.5118 31.9727L62.3252 28.9785ZM62.9758 28.8762L61.925 26.0662L61.925 26.0662L62.9758 28.8762ZM63.026 28.854L64.4533 31.4927L64.4795 31.4786L64.5053 31.4639L63.026 28.854ZM63.0328 28.8502L64.5121 31.4601L65.418 30.9466L65.8109 29.9824L63.0328 28.8502ZM63.0364 28.8413L65.8146 29.9735L65.8281 29.9401L65.8409 29.9065L63.0364 28.8413ZM63.0531 28.7824L60.1222 28.1425L60.1221 28.1427L63.0531 28.7824ZM63.0531 28.2176L65.9841 27.5777L65.9841 27.5777L63.0531 28.2176ZM63.0364 28.1587L65.8409 27.0935L65.8281 27.0597L65.8144 27.0262L63.0364 28.1587ZM63.0328 28.1498L65.8108 27.0173L65.4179 26.0535L64.5125 25.5402L63.0328 28.1498ZM63.026 28.146L64.5058 25.5363L64.4796 25.5215L64.4531 25.5072L63.026 28.146ZM62.9758 28.1238L61.925 30.9338L61.925 30.9338L62.9758 28.1238ZM62.3252 28.0215L62.1386 31.0157L62.1386 31.0157L62.3252 28.0215ZM61.0777 28L61.0777 25H61.0777V28ZM57.06 28V25H54.06V28H57.06ZM57.06 29H54.06V32H57.06V29ZM62.1758 28.6556C62.1124 28.5489 62.0889 28.4639 62.0819 28.4316C62.076 28.4045 62.0829 28.4209 62.0829 28.5H68.0829C68.0829 27.7292 67.9622 26.648 67.3337 25.5904L62.1758 28.6556ZM62.6293 29.0611C62.5977 29.0493 62.5235 29.017 62.4322 28.946C62.3357 28.8709 62.2443 28.771 62.1758 28.6557L67.3337 25.5904C66.6472 24.4352 65.6419 23.7819 64.7308 23.4412L62.6293 29.0611ZM62.2637 29.0196C62.4052 29.0284 62.5032 29.0395 62.5728 29.0513C62.6425 29.063 62.655 29.0708 62.6293 29.0611L64.7308 23.4412C63.9236 23.1394 63.1421 23.0627 62.6369 23.0312L62.2637 29.0196ZM61.9882 29.0076C62.0928 29.0106 62.184 29.0146 62.2637 29.0196L62.6369 23.0312C62.4753 23.0211 62.3152 23.0145 62.1605 23.0101L61.9882 29.0076ZM59.0743 26V26.0088H65.0743V26H59.0743ZM61.1382 29H62.0743V23H61.1382V29ZM61.0942 29C61.1089 29 61.1235 29 61.1381 29L61.1383 23C61.1235 23 61.1088 23 61.0941 23L61.0942 29ZM61.0941 29H61.0942V23H61.0941V29ZM61.0715 29H61.0941V23H61.0715V29ZM36 29H61.0715V23H36V29ZM39 28V26H33V28H39ZM41.0143 25H36V31H41.0143V25ZM44.0143 29V28H38.0143V29H44.0143ZM40.0115 32H41.0143V26H40.0115V32ZM38.0057 32H40.0115V26H38.0057V32ZM41.0057 31V29H35.0057V31H41.0057ZM40.0106 28H38.0057V34H40.0106V28ZM43.0114 56.4002C43.0016 55.3034 43.0081 37.148 43.0106 31.0012L37.0106 30.9988C37.0081 37.1126 37.0015 55.3197 37.0116 56.4538L43.0114 56.4002ZM47.6015 81.3393C45.6131 73.6066 43.0681 62.7402 43.0114 56.4002L37.0116 56.4538C37.0761 63.6681 39.8497 75.2857 41.7906 82.8336L47.6015 81.3393ZM46.9441 82.157C47.554 82.3468 47.8923 82.6938 47.9898 82.8001C48.1082 82.9291 48.1507 83.0132 48.1344 82.9845C48.1018 82.9271 48.025 82.7617 47.9266 82.4793C47.836 82.2194 47.7578 81.9501 47.701 81.7374C47.6732 81.6337 47.6521 81.5493 47.6386 81.4937C47.6319 81.466 47.6271 81.4459 47.6244 81.4344C47.6231 81.4287 47.6223 81.4252 47.622 81.424C47.6219 81.4234 47.6219 81.4234 47.622 81.4241C47.6221 81.4244 47.6222 81.4248 47.6223 81.4255C47.6224 81.4258 47.6225 81.4261 47.6226 81.4265C47.6226 81.4267 47.6227 81.427 47.6227 81.4271C47.6228 81.4274 47.6229 81.4278 44.6961 82.0865C41.7693 82.7452 41.7694 82.7455 41.7694 82.7459C41.7695 82.746 41.7696 82.7464 41.7696 82.7467C41.7697 82.7473 41.7699 82.7479 41.77 82.7485C41.7703 82.7498 41.7706 82.7512 41.771 82.7528C41.7717 82.756 41.7726 82.7599 41.7737 82.7645C41.7757 82.7736 41.7784 82.7852 41.7817 82.7994C41.7883 82.8276 41.7974 82.8657 41.8087 82.9124C41.8314 83.0055 41.8636 83.134 41.9046 83.2872C41.9851 83.5884 42.1058 84.0092 42.2608 84.454C42.408 84.8762 42.6235 85.43 42.9155 85.9447C43.0614 86.2021 43.2742 86.5355 43.5691 86.8568C43.8431 87.1555 44.3642 87.6379 45.1612 87.886L46.9441 82.157ZM48.9842 82.5787C48.7708 82.5681 48.4232 82.5187 47.9965 82.4281C47.5866 82.341 47.2006 82.2368 46.9441 82.157L45.1612 87.886C45.9469 88.1305 47.4365 88.5095 48.6877 88.5714L48.9842 82.5787ZM48.6877 82.5787C48.6583 82.5802 48.6378 82.5805 48.6255 82.5805V88.5805C48.7484 88.5805 48.8685 88.5771 48.9842 88.5714L48.6877 82.5787ZM48.6255 88.5805H49.0465V82.5805H48.6255V88.5805ZM49.0465 82.5805C49.0341 82.5805 49.0136 82.5802 48.9842 82.5787L48.6877 88.5714C48.8035 88.5771 48.9236 88.5805 49.0465 88.5805V82.5805ZM50.7278 82.157C50.4714 82.2368 50.0854 82.341 49.6755 82.4281C49.2487 82.5187 48.9011 82.5681 48.6877 82.5787L48.9842 88.5714C50.2354 88.5095 51.7251 88.1305 52.5108 87.886L50.7278 82.157ZM52.9759 82.0865C50.0491 81.4278 50.0492 81.4274 50.0492 81.4271C50.0492 81.427 50.0493 81.4267 50.0494 81.4265C50.0495 81.4261 50.0495 81.4258 50.0496 81.4254C50.0497 81.4248 50.0498 81.4244 50.0499 81.4241C50.0501 81.4234 50.0501 81.4234 50.0499 81.424C50.0497 81.4252 50.0489 81.4287 50.0475 81.4344C50.0448 81.4459 50.0401 81.466 50.0333 81.4937C50.0198 81.5493 49.9987 81.6337 49.971 81.7374C49.9141 81.9501 49.836 82.2194 49.7454 82.4793C49.647 82.7617 49.5701 82.9271 49.5375 82.9845C49.5212 83.0132 49.5638 82.9291 49.6821 82.8001C49.7796 82.6938 50.1179 82.3468 50.7278 82.157L52.5108 87.886C53.3078 87.6379 53.8288 87.1555 54.1028 86.8568C54.3977 86.5355 54.6105 86.2021 54.7565 85.9447C55.0484 85.43 55.264 84.8762 55.4111 84.454C55.5661 84.0092 55.6868 83.5884 55.7673 83.2872C55.8083 83.134 55.8406 83.0055 55.8632 82.9124C55.8746 82.8657 55.8836 82.8276 55.8902 82.7994C55.8935 82.7852 55.8962 82.7736 55.8983 82.7645C55.8993 82.7599 55.9002 82.756 55.9009 82.7528C55.9013 82.7512 55.9016 82.7498 55.9019 82.7485C55.9021 82.7479 55.9022 82.7473 55.9023 82.7467C55.9024 82.7464 55.9025 82.7461 55.9025 82.7459C55.9026 82.7455 55.9027 82.7452 52.9759 82.0865ZM50.8038 78.5186C50.5494 79.4922 50.302 80.4385 50.0704 81.3393L55.8813 82.8336C56.1095 81.9463 56.3537 81.0118 56.6088 80.0358L50.8038 78.5186ZM54.8832 59.5081C54.2963 65.1269 52.418 72.3423 50.8038 78.5186L56.6088 80.0358C58.1867 73.9986 60.2065 66.299 60.8508 60.1314L54.8832 59.5081ZM55.063 57.5091C55.063 57.876 55.0097 58.5255 54.8919 59.4341L60.8421 60.2054C60.9663 59.2478 61.063 58.2812 61.063 57.5091H55.063ZM55.063 31L55.063 57.5091L61.063 57.5091L61.063 31L55.063 31ZM61.0715 28L58.063 28L58.063 34L61.0715 34L61.0715 28ZM61.1396 28.0008L61.1396 28.0008L61.0033 33.9992L61.0033 33.9992L61.1396 28.0008ZM61.0941 28L61.0714 28L61.0715 34L61.0943 34L61.0941 28ZM62.2637 27.9804C61.968 27.9989 61.6032 28 61.0942 28L61.0942 34C61.5522 34 62.1175 34.0012 62.6369 33.9688L62.2637 27.9804ZM62.6293 27.9389C62.655 27.9292 62.6425 27.937 62.5728 27.9487C62.5033 27.9605 62.4052 27.9716 62.2637 27.9804L62.6369 33.9688C63.1421 33.9373 63.9236 33.8606 64.7308 33.5588L62.6293 27.9389ZM62.1758 28.3443C62.2443 28.229 62.3357 28.1291 62.4322 28.054C62.5235 27.983 62.5977 27.9507 62.6293 27.9389L64.7308 33.5588C65.6419 33.2181 66.6472 32.5648 67.3337 31.4096L62.1758 28.3443ZM62.0829 28.5C62.0829 28.5791 62.076 28.5955 62.0819 28.5684C62.0889 28.5361 62.1124 28.4511 62.1758 28.3443L67.3337 31.4096C67.9622 30.352 68.0829 29.2708 68.0829 28.5H62.0829ZM61.0715 32C61.0715 32 61.0715 32 61.0715 32C61.0715 32 61.0715 32 61.0715 32C61.0715 32 61.0715 32 61.0715 32C61.0715 32 61.0715 32 61.0715 32C61.0715 32 61.0715 32 61.0715 32C61.0715 32 61.0715 32 61.0715 32C61.0715 32 61.0715 32 61.0715 32C61.0715 32 61.0715 32 61.0715 32C61.0715 32 61.0715 32 61.0715 32C61.0715 32 61.0715 32 61.0715 32C61.0715 32 61.0715 32 61.0715 32C61.0715 32 61.0715 32 61.0715 32C61.0715 32 61.0715 32 61.0715 32C61.0715 32 61.0715 32 61.0715 32C61.0715 32 61.0715 32 61.0715 32C61.0715 32 61.0715 32 61.0715 32C61.0715 32 61.0715 32 61.0715 32C61.0715 32 61.0715 32 61.0715 32C61.0715 32 61.0715 32 61.0715 32C61.0715 32 61.0715 32 61.0715 32C61.0715 32 61.0715 32 61.0715 32C61.0715 32 61.0715 32 61.0715 32C61.0715 32 61.0715 32 61.0715 32C61.0715 32 61.0715 32 61.0715 32C61.0715 32 61.0715 32 61.0715 32C61.0715 32 61.0715 32 61.0715 32C61.0715 32 61.0715 32 61.0715 32C61.0715 32 61.0715 32 61.0715 32C61.0715 32 61.0715 32 61.0715 32C61.0715 32 61.0715 32 61.0715 32C61.0715 32 61.0715 32 61.0715 32C61.0715 32 61.0715 32 61.0715 32C61.0715 32 61.0715 32 61.0715 32C61.0715 32 61.0715 32 61.0715 32C61.0715 32 61.0715 32 61.0715 32C61.0715 32 61.0715 32 61.0715 32C61.0715 32 61.0715 32 61.0715 32C61.0715 32 61.0715 32 61.0715 32C61.0715 32 61.0715 32 61.0715 32C61.0715 32 61.0715 32 61.0715 32C61.0715 32 61.0715 32 61.0715 32C61.0715 32 61.0715 32 61.0715 32C61.0715 32 61.0715 32 61.0715 32C61.0715 32 61.0715 32 61.0715 32C61.0715 32 61.0715 32 61.0715 32C61.0715 32 61.0715 32 61.0715 32C61.0715 32 61.0715 32 61.0715 32C61.0715 32 61.0715 32 61.0715 32C61.0715 32 61.0715 32 61.0715 32C61.0715 32 61.0715 32 61.0715 32C61.0715 32 61.0715 32 61.0715 32C61.0715 32 61.0715 32 61.0715 32C61.0715 32 61.0715 32 61.0715 32C61.0715 32 61.0715 32 61.0715 32C61.0715 32 61.0715 32 61.0715 32C61.0715 32 61.0715 32 61.0715 32C61.0715 32 61.0715 32 61.0715 32C61.0715 32 61.0715 32 61.0715 32C61.0715 32 61.0715 32 61.0715 32C61.0715 32 61.0715 32 61.0715 32C61.0715 32 61.0715 32 61.0715 32C61.0715 32 61.0715 32 61.0715 32C61.0715 32 61.0715 32 61.0715 32C61.0715 32 61.0715 32 61.0715 32C61.0715 32 61.0715 32 61.0715 32C61.0715 32 61.0715 32 61.0715 32C61.0715 32 61.0715 32 61.0715 32C61.0715 32 61.0715 32 61.0715 32C61.0715 32 61.0715 32 61.0715 32C61.0715 32 61.0715 32 61.0715 32C61.0715 32 61.0715 32 61.0715 32C61.0715 32 61.0715 32 61.0715 32C61.0715 32 61.0715 32 61.0715 32C61.0715 32 61.0715 32 61.0715 32C61.0715 32 61.0715 32 61.0715 32C61.0715 32 61.0715 32 61.0715 32C61.0715 32 61.0715 32 61.0715 32C61.0715 32 61.0715 32 61.0715 32C61.0715 32 61.0715 32 61.0715 32C61.0715 32 61.0715 32 61.0715 32C61.0715 32 61.0715 32 61.0715 32C61.0715 32 61.0715 32 61.0715 32C61.0715 32 61.0715 32 61.0715 32C61.0715 32 61.0715 32 61.0715 32C61.0715 32 61.0715 32 61.0715 32C61.0715 32 61.0715 32 61.0715 32C61.0715 32 61.0715 32 61.0715 32C61.0715 32 61.0715 32 61.0715 32C61.0715 32 61.0715 32 61.0715 32C61.0715 32 61.0715 32 61.0715 32C61.0715 32 61.0715 32 61.0715 32C61.0715 32 61.0715 32 61.0715 32C61.0715 32 61.0715 32 61.0715 32C61.0715 32 61.0715 32 61.0715 32C61.0715 32 61.0715 32 61.0715 32C61.0715 32 61.0715 32 61.0715 32C61.0715 32 61.0715 32 61.0715 32C61.0715 32 61.0715 32 61.0715 32C61.0715 32 61.0715 32 61.0715 32C61.0715 32 61.0715 32 61.0715 32C61.0715 32 61.0715 32 61.0715 32C61.0715 32 61.0715 32 61.0715 32C61.0715 32 61.0715 32 61.0715 32C61.0715 32 61.0715 32 61.0715 32C61.0715 32 61.0715 32 61.0715 32C61.0715 32 61.0715 32 61.0715 32C61.0715 32 61.0715 32 61.0715 32C61.0715 32 61.0715 32 61.0715 32C61.0715 32 61.0715 32 61.0715 32C61.0715 32 61.0715 32 61.0715 32C61.0715 32 61.0715 32 61.0715 32C61.0715 32 61.0715 32 61.0715 32C61.0715 32 61.0715 32 61.0715 32C61.0715 32 61.0715 32 61.0715 32C61.0715 32 61.0715 32 61.0715 32C61.0715 32 61.0715 32 61.0715 32C61.0715 32 61.0715 32 61.0715 32C61.0715 32 61.0715 32 61.0715 32C61.0715 32 61.0715 32 61.0715 32C61.0715 32 61.0715 32 61.0715 32C61.0715 32 61.0715 32 61.0715 32C61.0715 32 61.0715 32 61.0715 32C61.0715 32 61.0715 32 61.0715 32C61.0715 32 61.0715 32 61.0715 32C61.0715 32 61.0715 32 61.0715 32C61.0715 32 61.0715 32 61.0715 32C61.0715 32 61.0715 32 61.0715 32C61.0715 32 61.0715 32 61.0715 32C61.0715 32 61.0715 32 61.0715 32C61.0715 32 61.0715 32 61.0715 32C61.0715 32 61.0715 32 61.0715 32C61.0715 32 61.0715 32 61.0715 32C61.0715 32 61.0715 32 61.0715 32C61.0715 32 61.0715 32 61.0715 32C61.0715 32 61.0715 32 61.0715 32C61.0715 32 61.0715 32 61.0715 32C61.0715 32 61.0715 32 61.0715 32C61.0715 32 61.0715 32 61.0715 32C61.0715 32 61.0715 32 61.0715 32C61.0715 32 61.0715 32 61.0715 32C61.0715 32 61.0715 32 61.0715 32C61.0715 32 61.0715 32 61.0715 32C61.0715 32 61.0715 32 61.0715 32C61.0715 32 61.0715 32 61.0715 32C61.0715 32 61.0715 32 61.0715 32C61.0715 32 61.0715 32 61.0715 32C61.0715 32 61.0715 32 61.0715 32C61.0715 32 61.0715 32 61.0715 32C61.0715 32 61.0715 32 61.0715 32C61.0715 32 61.0715 32 61.0715 32C61.0715 32 61.0715 32 61.0715 32C61.0715 32 61.0715 32 61.0715 32C61.0715 32 61.0715 32 61.0715 32C61.0715 32 61.0715 32 61.0715 32C61.0715 32 61.0715 32 61.0715 32C61.0715 32 61.0715 32 61.0715 32C61.0715 32 61.0715 32 61.0715 32C61.0715 32 61.0715 32 61.0715 32C61.0715 32 61.0715 32 61.0715 32C61.0715 32 61.0715 32 61.0715 32C61.0715 32 61.0715 32 61.0715 32C61.0715 32 61.0715 32 61.0715 32C61.0715 32 61.0715 32 61.0715 32C61.0715 32 61.0715 32 61.0715 32C61.0715 32 61.0715 32 61.0715 32C61.0715 32 61.0715 32 61.0715 32C61.0715 32 61.0715 32 61.0715 32C61.0715 32 61.0715 32 61.0715 32C61.0715 32 61.0715 32 61.0715 32C61.0715 32 61.0715 32 61.0715 32C61.0715 32 61.0715 32 61.0715 32C61.0715 32 61.0715 32 61.0715 32C61.0715 32 61.0715 32 61.0715 32C61.0715 32 61.0715 32 61.0715 32C61.0715 32 61.0715 32 61.0715 32C61.0715 32 61.0715 32 61.0715 32C61.0715 32 61.0715 32 61.0715 32C61.0715 32 61.0715 32 61.0715 32C61.0715 32 61.0715 32 61.0715 32C61.0715 32 61.0715 32 61.0715 32C61.0715 32 61.0715 32 61.0715 32C61.0715 32 61.0715 32 61.0715 32C61.0715 32 61.0715 32 61.0715 32C61.0715 32 61.0715 32 61.0715 32C61.0715 32 61.0715 32 61.0715 32C61.0715 32 61.0715 32 61.0715 32C61.0715 32 61.0715 32 61.0715 32C61.0715 32 61.0715 32 61.0715 32C61.0715 32 61.0715 32 61.0715 32C61.0715 32 61.0715 32 61.0715 32C61.0715 32 61.0715 32 61.0715 32C61.0715 32 61.0715 32 61.0715 32C61.0715 32 61.0715 32 61.0715 32C61.0715 32 61.0715 32 61.0715 32C61.0715 32 61.0715 32 61.0715 32C61.0715 32 61.0715 32 61.0715 32C61.0715 32 61.0715 32 61.0715 32C61.0715 32 61.0715 32 61.0715 32C61.0715 32 61.0715 32 61.0715 32C61.0715 32 61.0715 32 61.0715 32C61.0715 32 61.0715 32 61.0715 32C61.0715 32 61.0715 32 61.0715 32C61.0715 32 61.0715 32 61.0715 32C61.0715 32 61.0715 32 61.0715 32C61.0715 32 61.0715 32 61.0715 32C61.0715 32 61.0715 32 61.0715 32C61.0715 32 61.0715 32 61.0715 32C61.0715 32 61.0715 32 61.0715 32C61.0715 32 61.0715 32 61.0715 32C61.0715 32 61.0715 32 61.0715 32C61.0715 32 61.0715 32 61.0715 32C61.0715 32 61.0715 32 61.0715 32C61.0715 32 61.0715 32 61.0715 32C61.0715 32 61.0715 32 61.0715 32C61.0715 32 61.0715 32 61.0715 32C61.0715 32 61.0715 32 61.0715 32C61.0715 32 61.0715 32 61.0715 32C61.0715 32 61.0715 32 61.0715 32C61.0715 32 61.0715 32 61.0715 32C61.0715 32 61.0715 32 61.0715 32C61.0715 32 61.0715 32 61.0715 32C61.0715 32 61.0715 32 61.0715 32C61.0715 32 61.0715 32 61.0715 32C61.0715 32 61.0715 32 61.0715 32C61.0715 32 61.0715 32 61.0715 32C61.0715 32 61.0715 32 61.0715 32C61.0715 32 61.0715 32 61.0715 32C61.0715 32 61.0715 32 61.0715 32C61.0715 32 61.0715 32 61.0715 32C61.0715 32 61.0715 32 61.0715 32C61.0715 32 61.0715 32 61.0715 32C61.0715 32 61.0715 32 61.0715 32C61.0715 32 61.0715 32 61.0715 32C61.0715 32 61.0715 32 61.0715 32C61.0715 32 61.0715 32 61.0715 32C61.0715 32 61.0715 32 61.0715 32C61.0715 32 61.0715 32 61.0715 32C61.0715 32 61.0715 32 61.0715 32C61.0715 32 61.0715 32 61.0715 32C61.0715 32 61.0715 32 61.0715 32C61.0715 32 61.0715 32 61.0715 32C61.0715 32 61.0715 32 61.0715 32C61.0715 32 61.0715 32 61.0715 32C61.0715 32 61.0715 32 61.0715 32C61.0715 32 61.0715 32 61.0715 32C61.0715 32 61.0715 32 61.0715 32C61.0715 32 61.0715 32 61.0715 32C61.0715 32 61.0715 32 61.0715 32C61.0715 32 61.0715 32 61.0715 32C61.0715 32 61.0715 32 61.0715 32C61.0715 32 61.0715 32 61.0715 32C61.0715 32 61.0715 32 61.0715 32C61.0715 32 61.0715 32 61.0715 32C61.0715 32 61.0715 32 61.0715 32C61.0715 32 61.0715 32 61.0715 32C61.0715 32 61.0715 32 61.0715 32C61.0715 32 61.0715 32 61.0715 32C61.0715 32 61.0715 32 61.0715 32C61.0715 32 61.0715 32 61.0715 32C61.0715 32 61.0715 32 61.0715 32C61.0715 32 61.0715 32 61.0715 32C61.0715 32 61.0715 32 61.0715 32C61.0715 32 61.0715 32 61.0715 32C61.0715 32 61.0715 32 61.0715 32C61.0715 32 61.0715 32 61.0715 32C61.0715 32 61.0715 32 61.0715 32C61.0715 32 61.0715 32 61.0715 32C61.0715 32 61.0715 32 61.0715 32C61.0715 32 61.0715 32 61.0715 32C61.0715 32 61.0715 32 61.0715 32C61.0715 32 61.0715 32 61.0715 32C61.0715 32 61.0715 32 61.0715 32C61.0715 32 61.0715 32 61.0715 32C61.0715 32 61.0715 32 61.0715 32C61.0715 32 61.0715 32 61.0715 32C61.0715 32 61.0715 32 61.0715 32C61.0715 32 61.0715 32 61.0715 32C61.0715 32 61.0715 32 61.0715 32C61.0715 32 61.0715 32 61.0715 32C61.0715 32 61.0715 32 61.0715 32C61.0715 32 61.0715 32 61.0715 32C61.0715 32 61.0715 32 61.0715 32C61.0715 32 61.0715 32 61.0715 32C61.0715 32 61.0715 32 61.0715 32C61.0715 32 61.0715 32 61.0715 32C61.0715 32 61.0715 32 61.0715 32C61.0715 32 61.0715 32 61.0715 32C61.0715 32 61.0715 32 61.0715 32C61.0715 32 61.0715 32 61.0715 32C61.0715 32 61.0715 32 61.0715 32C61.0715 32 61.0715 32 61.0715 32C61.0715 32 61.0715 32 61.0715 32C61.0715 32 61.0715 32 61.0715 32C61.0715 32 61.0715 32 61.0715 32C61.0715 32 61.0715 32 61.0715 32C61.0715 32 61.0715 32 61.0715 32C61.0715 32 61.0715 32 61.0715 32C61.0715 32 61.0715 32 61.0715 32C61.0715 32 61.0715 32 61.0715 32C61.0715 32 61.0715 32 61.0715 32C61.0715 32 61.0715 32 61.0715 32C61.0715 32 61.0715 32 61.0715 32C61.0715 32 61.0715 32 61.0715 32C61.0715 32 61.0715 32 61.0715 32C61.0715 32 61.0715 32 61.0715 32C61.0715 32 61.0715 32 61.0715 32C61.0715 32 61.0715 32 61.0715 32C61.0715 32 61.0715 32 61.0715 32C61.0715 32 61.0715 32 61.0715 32C61.0715 32 61.0715 32 61.0715 32C61.0715 32 61.0715 32 61.0715 32C61.0715 32 61.0715 32 61.0715 32C61.0715 32 61.0715 32 61.0715 32C61.0715 32 61.0715 32 61.0715 32C61.0715 32 61.0715 32 61.0715 32C61.0715 32 61.0715 32 61.0715 32C61.0715 32 61.0715 32 61.0715 32C61.0715 32 61.0715 32 61.0715 32C61.0715 32 61.0715 32 61.0715 32C61.0715 32 61.0715 32 61.0715 32C61.0715 32 61.0715 32 61.0715 32C61.0715 32 61.0715 32 61.0715 32C61.0715 32 61.0715 32 61.0715 32C61.0715 32 61.0715 32 61.0715 32C61.0715 32 61.0715 32 61.0715 32C61.0715 32 61.0715 32 61.0715 32C61.0715 32 61.0715 32 61.0715 32C61.0715 32 61.0715 32 61.0715 32C61.0715 32 61.0715 32 61.0715 32C61.0715 32 61.0715 32 61.0715 32C61.0715 32 61.0715 32 61.0715 32C61.0715 32 61.0715 32 61.0715 32C61.0715 32 61.0715 32 61.0715 32C61.0715 32 61.0715 32 61.0715 32C61.0715 32 61.0715 32 61.0715 32C61.0715 32 61.0715 32 61.0715 32C61.0715 32 61.0715 32 61.0715 32C61.0715 32 61.0715 32 61.0715 32C61.0715 32 61.0715 32 61.0715 32C61.0715 32 61.0715 32 61.0715 32C61.0715 32 61.0715 32 61.0715 32C61.0715 32 61.0715 32 61.0715 32C61.0715 32 61.0715 32 61.0715 32C61.0715 32 61.0715 32 61.0715 32C61.0715 32 61.0715 32 61.0715 32C61.0715 32 61.0715 32 61.0715 32C61.0715 32 61.0715 32 61.0715 32C61.0715 32 61.0715 32 61.0715 32C61.0715 32 61.0715 32 61.0715 32C61.0715 32 61.0715 32 61.0715 32C61.0715 32 61.0715 32 61.0715 32C61.0715 32 61.0715 32 61.0715 32C61.0715 32 61.0715 32 61.0715 32C61.0715 32 61.0715 32 61.0715 32C61.0715 32 61.0715 32 61.0715 32C61.0715 32 61.0715 32 61.0715 32C61.0715 32 61.0715 32 61.0715 32C61.0715 32 61.0715 32 61.0715 32C61.0715 32 61.0715 32 61.0715 32C61.0715 32 61.0715 32 61.0715 32C61.0715 32 61.0715 32 61.0715 32C61.0715 32 61.0715 32 61.0715 32C61.0715 32 61.0715 32 61.0715 32C61.0715 32 61.0715 32 61.0715 32C61.0715 32 61.0715 32 61.0715 32C61.0715 32 61.0715 32 61.0715 32C61.0715 32 61.0715 32 61.0715 32C61.0715 32 61.0715 32 61.0715 32C61.0715 32 61.0715 32 61.0715 32C61.0715 32 61.0715 32 61.0715 32C61.0715 32 61.0715 32 61.0715 32C61.0715 32 61.0715 32 61.0715 32C61.0715 32 61.0715 32 61.0715 32C61.0715 32 61.0715 32 61.0715 32C61.0715 32 61.0715 32 61.0715 32C61.0715 32 61.0715 32 61.0715 32C61.0715 32 61.0715 32 61.0715 32C61.0715 32 61.0715 32 61.0715 32C61.0715 32 61.0715 32 61.0715 32C61.0715 32 61.0715 32 61.0715 32C61.0715 32 61.0715 32 61.0715 32C61.0715 32 61.0715 32 61.0715 32C61.0715 32 61.0715 32 61.0715 32C61.0715 32 61.0715 32 61.0715 32C61.0715 32 61.0715 32 61.0715 32C61.0715 32 61.0715 32 61.0715 32C61.0715 32 61.0715 32 61.0715 32C61.0715 32 61.0715 32 61.0715 32C61.0715 32 61.0715 32 61.0715 32C61.0715 32 61.0715 32 61.0715 32C61.0715 32 61.0715 32 61.0715 32C61.0715 32 61.0715 32 61.0715 32C61.0715 32 61.0715 32 61.0715 32C61.0715 32 61.0715 32 61.0715 32C61.0715 32 61.0715 32 61.0715 32C61.0715 32 61.0715 32 61.0715 32C61.0715 32 61.0715 32 61.0715 32C61.0715 32 61.0715 32 61.0715 32C61.0715 32 61.0715 32 61.0715 32C61.0715 32 61.0715 32 61.0715 32C61.0715 32 61.0715 32 61.0715 32C61.0715 32 61.0715 32 61.0715 32C61.0715 32 61.0715 32 61.0715 32C61.0715 32 61.0715 32 61.0715 32C61.0715 32 61.0715 32 61.0715 32C61.0715 32 61.0715 32 61.0715 32C61.0715 32 61.0715 32 61.0715 32C61.0715 32 61.0715 32 61.0715 32C61.0715 32 61.0715 32 61.0715 32C61.0715 32 61.0715 32 61.0715 32C61.0715 32 61.0715 32 61.0715 32C61.0715 32 61.0715 32 61.0715 32C61.0715 32 61.0715 32 61.0715 32C61.0715 32 61.0715 32 61.0715 32C61.0715 32 61.0715 32 61.0715 32C61.0715 32 61.0715 32 61.0715 32C61.0715 32 61.0715 32 61.0715 32C61.0715 32 61.0715 32 61.0715 32C61.0715 32 61.0715 32 61.0715 32C61.0715 32 61.0715 32 61.0715 32C61.0715 32 61.0715 32 61.0715 32C61.0715 32 61.0715 32 61.0715 32C61.0715 32 61.0715 32 61.0715 32C61.0715 32 61.0715 32 61.0715 32C61.0715 32 61.0715 32 61.0715 32C61.0715 32 61.0715 32 61.0715 32C61.0715 32 61.0715 32 61.0715 32C61.0715 32 61.0715 32 61.0715 32C61.0715 32 61.0715 32 61.0715 32C61.0715 32 61.0715 32 61.0715 32C61.0715 32 61.0715 32 61.0715 32C61.0715 32 61.0715 32 61.0715 32C61.0715 32 61.0715 32 61.0715 32C61.0715 32 61.0715 32 61.0715 32C61.0715 32 61.0715 32 61.0715 32C61.0715 32 61.0715 32 61.0715 32C61.0715 32 61.0715 32 61.0715 32C61.0715 32 61.0715 32 61.0715 32C61.0715 32 61.0715 32 61.0715 32C61.0715 32 61.0715 32 61.0715 32C61.0715 32 61.0715 32 61.0715 32C61.0715 32 61.0715 32 61.0715 32C61.0715 32 61.0715 32 61.0715 32C61.0715 32 61.0715 32 61.0715 32C61.0715 32 61.0715 32 61.0715 32C61.0715 32 61.0715 32 61.0715 32C61.0715 32 61.0715 32 61.0715 32C61.0715 32 61.0715 32 61.0715 32C61.0715 32 61.0715 32 61.0715 32C61.0715 32 61.0715 32 61.0715 32C61.0715 32 61.0715 32 61.0715 32C61.0715 32 61.0715 32 61.0715 32C61.0715 32 61.0715 32 61.0715 32C61.0715 32 61.0715 32 61.0715 32C61.0715 32 61.0715 32 61.0715 32C61.0715 32 61.0715 32 61.0715 32C61.0715 32 61.0715 32 61.0715 32C61.0715 32 61.0715 32 61.0715 32C61.0715 32 61.0715 32 61.0715 32C61.0715 32 61.0715 32 61.0715 32C61.0715 32 61.0715 32 61.0715 32C61.0715 32 61.0715 32 61.0715 32C61.0715 32 61.0715 32 61.0715 32C61.0715 32 61.0715 32 61.0715 32C61.0715 32 61.0715 32 61.0715 32C61.0715 32 61.0715 32 61.0715 32C61.0715 32 61.0715 32 61.0715 32C61.0715 32 61.0715 32 61.0715 32C61.0715 32 61.0715 32 61.0715 32C61.0715 32 61.0715 32 61.0715 32C61.0715 32 61.0715 32 61.0715 32C61.0715 32 61.0715 32 61.0715 32C61.0715 32 61.0715 32 61.0715 32C61.0715 32 61.0715 32 61.0715 32C61.0715 32 61.0715 32 61.0715 32C61.0715 32 61.0715 32 61.0715 32C61.0715 32 61.0715 32 61.0715 32C61.0715 32 61.0715 32 61.0715 32C61.0715 32 61.0715 32 61.0715 32C61.0715 32 61.0715 32 61.0715 32C61.0715 32 61.0715 32 61.0715 32C61.0715 32 61.0715 32 61.0715 32C61.0715 32 61.0715 32 61.0715 32C61.0715 32 61.0715 32 61.0715 32C61.0715 32 61.0715 32 61.0715 32C61.0715 32 61.0715 32 61.0715 32C61.0715 32 61.0715 32 61.0715 32C61.0715 32 61.0715 32 61.0715 32C61.0715 32 61.0715 32 61.0715 32C61.0715 32 61.0715 32 61.0715 32C61.0715 32 61.0715 32 61.0715 32C61.0715 32 61.0715 32 61.0715 32C61.0715 32 61.0715 32 61.0715 32C61.0715 32 61.0715 32 61.0715 32C61.0715 32 61.0715 32 61.0715 32C61.0715 32 61.0715 32 61.0715 32C61.0715 32 61.0715 32 61.0715 32C61.0715 32 61.0715 32 61.0715 32C61.0715 32 61.0715 32 61.0715 32C61.0715 32 61.0715 32 61.0715 32C61.0715 32 61.0715 32 61.0715 32C61.0715 32 61.0715 32 61.0715 32C61.0715 32 61.0715 32 61.0715 32C61.0715 32 61.0715 32 61.0715 32C61.0715 32 61.0715 32 61.0715 32C61.0715 32 61.0715 32 61.0715 32C61.0715 32 61.0715 32 61.0715 32C61.0715 32 61.0715 32 61.0715 32C61.0715 32 61.0715 32 61.0715 32C61.0715 32 61.0715 32 61.0715 32C61.0715 32 61.0715 32 61.0715 32C61.0715 32 61.0715 32 61.0715 32V26C61.0715 26 61.0715 26 61.0715 26C61.0715 26 61.0715 26 61.0715 26C61.0715 26 61.0715 26 61.0715 26C61.0715 26 61.0715 26 61.0715 26C61.0715 26 61.0715 26 61.0715 26C61.0715 26 61.0715 26 61.0715 26C61.0715 26 61.0715 26 61.0715 26C61.0715 26 61.0715 26 61.0715 26C61.0715 26 61.0715 26 61.0715 26C61.0715 26 61.0715 26 61.0715 26C61.0715 26 61.0715 26 61.0715 26C61.0715 26 61.0715 26 61.0715 26C61.0715 26 61.0715 26 61.0715 26C61.0715 26 61.0715 26 61.0715 26C61.0715 26 61.0715 26 61.0715 26C61.0715 26 61.0715 26 61.0715 26C61.0715 26 61.0715 26 61.0715 26C61.0715 26 61.0715 26 61.0715 26C61.0715 26 61.0715 26 61.0715 26C61.0715 26 61.0715 26 61.0715 26C61.0715 26 61.0715 26 61.0715 26C61.0715 26 61.0715 26 61.0715 26C61.0715 26 61.0715 26 61.0715 26C61.0715 26 61.0715 26 61.0715 26C61.0715 26 61.0715 26 61.0715 26C61.0715 26 61.0715 26 61.0715 26C61.0715 26 61.0715 26 61.0715 26C61.0715 26 61.0715 26 61.0715 26C61.0715 26 61.0715 26 61.0715 26C61.0715 26 61.0715 26 61.0715 26C61.0715 26 61.0715 26 61.0715 26C61.0715 26 61.0715 26 61.0715 26C61.0715 26 61.0715 26 61.0715 26C61.0715 26 61.0715 26 61.0715 26C61.0715 26 61.0715 26 61.0715 26C61.0715 26 61.0715 26 61.0715 26C61.0715 26 61.0715 26 61.0715 26C61.0715 26 61.0715 26 61.0715 26C61.0715 26 61.0715 26 61.0715 26C61.0715 26 61.0715 26 61.0715 26C61.0715 26 61.0715 26 61.0715 26C61.0715 26 61.0715 26 61.0715 26C61.0715 26 61.0715 26 61.0715 26C61.0715 26 61.0715 26 61.0715 26C61.0715 26 61.0715 26 61.0715 26C61.0715 26 61.0715 26 61.0715 26C61.0715 26 61.0715 26 61.0715 26C61.0715 26 61.0715 26 61.0715 26C61.0715 26 61.0715 26 61.0715 26C61.0715 26 61.0715 26 61.0715 26C61.0715 26 61.0715 26 61.0715 26C61.0715 26 61.0715 26 61.0715 26C61.0715 26 61.0715 26 61.0715 26C61.0715 26 61.0715 26 61.0715 26C61.0715 26 61.0715 26 61.0715 26C61.0715 26 61.0715 26 61.0715 26C61.0715 26 61.0715 26 61.0715 26C61.0715 26 61.0715 26 61.0715 26C61.0715 26 61.0715 26 61.0715 26C61.0715 26 61.0715 26 61.0715 26C61.0715 26 61.0715 26 61.0715 26C61.0715 26 61.0715 26 61.0715 26C61.0715 26 61.0715 26 61.0715 26C61.0715 26 61.0715 26 61.0715 26C61.0715 26 61.0715 26 61.0715 26C61.0715 26 61.0715 26 61.0715 26C61.0715 26 61.0715 26 61.0715 26C61.0715 26 61.0715 26 61.0715 26C61.0715 26 61.0715 26 61.0715 26C61.0715 26 61.0715 26 61.0715 26C61.0715 26 61.0715 26 61.0715 26C61.0715 26 61.0715 26 61.0715 26C61.0715 26 61.0715 26 61.0715 26C61.0715 26 61.0715 26 61.0715 26C61.0715 26 61.0715 26 61.0715 26C61.0715 26 61.0715 26 61.0715 26C61.0715 26 61.0715 26 61.0715 26C61.0715 26 61.0715 26 61.0715 26C61.0715 26 61.0715 26 61.0715 26C61.0715 26 61.0715 26 61.0715 26C61.0715 26 61.0715 26 61.0715 26C61.0715 26 61.0715 26 61.0715 26C61.0715 26 61.0715 26 61.0715 26C61.0715 26 61.0715 26 61.0715 26C61.0715 26 61.0715 26 61.0715 26C61.0715 26 61.0715 26 61.0715 26C61.0715 26 61.0715 26 61.0715 26C61.0715 26 61.0715 26 61.0715 26C61.0715 26 61.0715 26 61.0715 26C61.0715 26 61.0715 26 61.0715 26C61.0715 26 61.0715 26 61.0715 26C61.0715 26 61.0715 26 61.0715 26C61.0715 26 61.0715 26 61.0715 26C61.0715 26 61.0715 26 61.0715 26C61.0715 26 61.0715 26 61.0715 26C61.0715 26 61.0715 26 61.0715 26C61.0715 26 61.0715 26 61.0715 26C61.0715 26 61.0715 26 61.0715 26C61.0715 26 61.0715 26 61.0715 26C61.0715 26 61.0715 26 61.0715 26C61.0715 26 61.0715 26 61.0715 26C61.0715 26 61.0715 26 61.0715 26C61.0715 26 61.0715 26 61.0715 26C61.0715 26 61.0715 26 61.0715 26C61.0715 26 61.0715 26 61.0715 26C61.0715 26 61.0715 26 61.0715 26C61.0715 26 61.0715 26 61.0715 26C61.0715 26 61.0715 26 61.0715 26C61.0715 26 61.0715 26 61.0715 26C61.0715 26 61.0715 26 61.0715 26C61.0715 26 61.0715 26 61.0715 26C61.0715 26 61.0715 26 61.0715 26C61.0715 26 61.0715 26 61.0715 26C61.0715 26 61.0715 26 61.0715 26C61.0715 26 61.0715 26 61.0715 26C61.0715 26 61.0715 26 61.0715 26C61.0715 26 61.0715 26 61.0715 26C61.0715 26 61.0715 26 61.0715 26C61.0715 26 61.0715 26 61.0715 26C61.0715 26 61.0715 26 61.0715 26C61.0715 26 61.0715 26 61.0715 26C61.0715 26 61.0715 26 61.0715 26C61.0715 26 61.0715 26 61.0715 26C61.0715 26 61.0715 26 61.0715 26C61.0715 26 61.0715 26 61.0715 26C61.0715 26 61.0715 26 61.0715 26C61.0715 26 61.0715 26 61.0715 26C61.0715 26 61.0715 26 61.0715 26C61.0715 26 61.0715 26 61.0715 26C61.0715 26 61.0715 26 61.0715 26C61.0715 26 61.0715 26 61.0715 26C61.0715 26 61.0715 26 61.0715 26C61.0715 26 61.0715 26 61.0715 26C61.0715 26 61.0715 26 61.0715 26C61.0715 26 61.0715 26 61.0715 26C61.0715 26 61.0715 26 61.0715 26C61.0715 26 61.0715 26 61.0715 26C61.0715 26 61.0715 26 61.0715 26C61.0715 26 61.0715 26 61.0715 26C61.0715 26 61.0715 26 61.0715 26C61.0715 26 61.0715 26 61.0715 26C61.0715 26 61.0715 26 61.0715 26C61.0715 26 61.0715 26 61.0715 26C61.0715 26 61.0715 26 61.0715 26C61.0715 26 61.0715 26 61.0715 26C61.0715 26 61.0715 26 61.0715 26C61.0715 26 61.0715 26 61.0715 26C61.0715 26 61.0715 26 61.0715 26C61.0715 26 61.0715 26 61.0715 26C61.0715 26 61.0715 26 61.0715 26C61.0715 26 61.0715 26 61.0715 26C61.0715 26 61.0715 26 61.0715 26C61.0715 26 61.0715 26 61.0715 26C61.0715 26 61.0715 26 61.0715 26C61.0715 26 61.0715 26 61.0715 26C61.0715 26 61.0715 26 61.0715 26C61.0715 26 61.0715 26 61.0715 26C61.0715 26 61.0715 26 61.0715 26C61.0715 26 61.0715 26 61.0715 26C61.0715 26 61.0715 26 61.0715 26C61.0715 26 61.0715 26 61.0715 26C61.0715 26 61.0715 26 61.0715 26C61.0715 26 61.0715 26 61.0715 26C61.0715 26 61.0715 26 61.0715 26C61.0715 26 61.0715 26 61.0715 26C61.0715 26 61.0715 26 61.0715 26C61.0715 26 61.0715 26 61.0715 26C61.0715 26 61.0715 26 61.0715 26C61.0715 26 61.0715 26 61.0715 26C61.0715 26 61.0715 26 61.0715 26C61.0715 26 61.0715 26 61.0715 26C61.0715 26 61.0715 26 61.0715 26C61.0715 26 61.0715 26 61.0715 26C61.0715 26 61.0715 26 61.0715 26C61.0715 26 61.0715 26 61.0715 26C61.0715 26 61.0715 26 61.0715 26C61.0715 26 61.0715 26 61.0715 26C61.0715 26 61.0715 26 61.0715 26C61.0715 26 61.0715 26 61.0715 26C61.0715 26 61.0715 26 61.0715 26C61.0715 26 61.0715 26 61.0715 26C61.0715 26 61.0715 26 61.0715 26C61.0715 26 61.0715 26 61.0715 26C61.0715 26 61.0715 26 61.0715 26C61.0715 26 61.0715 26 61.0715 26C61.0715 26 61.0715 26 61.0715 26C61.0715 26 61.0715 26 61.0715 26C61.0715 26 61.0715 26 61.0715 26C61.0715 26 61.0715 26 61.0715 26C61.0715 26 61.0715 26 61.0715 26C61.0715 26 61.0715 26 61.0715 26C61.0715 26 61.0715 26 61.0715 26C61.0715 26 61.0715 26 61.0715 26C61.0715 26 61.0715 26 61.0715 26C61.0715 26 61.0715 26 61.0715 26C61.0715 26 61.0715 26 61.0715 26C61.0715 26 61.0715 26 61.0715 26C61.0715 26 61.0715 26 61.0715 26C61.0715 26 61.0715 26 61.0715 26C61.0715 26 61.0715 26 61.0715 26C61.0715 26 61.0715 26 61.0715 26C61.0715 26 61.0715 26 61.0715 26C61.0715 26 61.0715 26 61.0715 26C61.0715 26 61.0715 26 61.0715 26C61.0715 26 61.0715 26 61.0715 26C61.0715 26 61.0715 26 61.0715 26C61.0715 26 61.0715 26 61.0715 26C61.0715 26 61.0715 26 61.0715 26C61.0715 26 61.0715 26 61.0715 26C61.0715 26 61.0715 26 61.0715 26C61.0715 26 61.0715 26 61.0715 26C61.0715 26 61.0715 26 61.0715 26C61.0715 26 61.0715 26 61.0715 26C61.0715 26 61.0715 26 61.0715 26C61.0715 26 61.0715 26 61.0715 26C61.0715 26 61.0715 26 61.0715 26C61.0715 26 61.0715 26 61.0715 26C61.0715 26 61.0715 26 61.0715 26C61.0715 26 61.0715 26 61.0715 26C61.0715 26 61.0715 26 61.0715 26C61.0715 26 61.0715 26 61.0715 26C61.0715 26 61.0715 26 61.0715 26C61.0715 26 61.0715 26 61.0715 26C61.0715 26 61.0715 26 61.0715 26C61.0715 26 61.0715 26 61.0715 26C61.0715 26 61.0715 26 61.0715 26C61.0715 26 61.0715 26 61.0715 26C61.0715 26 61.0715 26 61.0715 26C61.0715 26 61.0715 26 61.0715 26C61.0715 26 61.0715 26 61.0715 26C61.0715 26 61.0715 26 61.0715 26C61.0715 26 61.0715 26 61.0715 26C61.0715 26 61.0715 26 61.0715 26C61.0715 26 61.0715 26 61.0715 26C61.0715 26 61.0715 26 61.0715 26C61.0715 26 61.0715 26 61.0715 26C61.0715 26 61.0715 26 61.0715 26C61.0715 26 61.0715 26 61.0715 26C61.0715 26 61.0715 26 61.0715 26C61.0715 26 61.0715 26 61.0715 26C61.0715 26 61.0715 26 61.0715 26C61.0715 26 61.0715 26 61.0715 26C61.0715 26 61.0715 26 61.0715 26C61.0715 26 61.0715 26 61.0715 26C61.0715 26 61.0715 26 61.0715 26C61.0715 26 61.0715 26 61.0715 26C61.0715 26 61.0715 26 61.0715 26C61.0715 26 61.0715 26 61.0715 26C61.0715 26 61.0715 26 61.0715 26C61.0715 26 61.0715 26 61.0715 26C61.0715 26 61.0715 26 61.0715 26C61.0715 26 61.0715 26 61.0715 26C61.0715 26 61.0715 26 61.0715 26C61.0715 26 61.0715 26 61.0715 26C61.0715 26 61.0715 26 61.0715 26C61.0715 26 61.0715 26 61.0715 26C61.0715 26 61.0715 26 61.0715 26C61.0715 26 61.0715 26 61.0715 26C61.0715 26 61.0715 26 61.0715 26C61.0715 26 61.0715 26 61.0715 26C61.0715 26 61.0715 26 61.0715 26C61.0715 26 61.0715 26 61.0715 26C61.0715 26 61.0715 26 61.0715 26C61.0715 26 61.0715 26 61.0715 26C61.0715 26 61.0715 26 61.0715 26C61.0715 26 61.0715 26 61.0715 26C61.0715 26 61.0715 26 61.0715 26C61.0715 26 61.0715 26 61.0715 26C61.0715 26 61.0715 26 61.0715 26C61.0715 26 61.0715 26 61.0715 26C61.0715 26 61.0715 26 61.0715 26C61.0715 26 61.0715 26 61.0715 26C61.0715 26 61.0715 26 61.0715 26C61.0715 26 61.0715 26 61.0715 26C61.0715 26 61.0715 26 61.0715 26C61.0715 26 61.0715 26 61.0715 26C61.0715 26 61.0715 26 61.0715 26C61.0715 26 61.0715 26 61.0715 26C61.0715 26 61.0715 26 61.0715 26C61.0715 26 61.0715 26 61.0715 26C61.0715 26 61.0715 26 61.0715 26C61.0715 26 61.0715 26 61.0715 26C61.0715 26 61.0715 26 61.0715 26C61.0715 26 61.0715 26 61.0715 26C61.0715 26 61.0715 26 61.0715 26C61.0715 26 61.0715 26 61.0715 26C61.0715 26 61.0715 26 61.0715 26C61.0715 26 61.0715 26 61.0715 26C61.0715 26 61.0715 26 61.0715 26C61.0715 26 61.0715 26 61.0715 26C61.0715 26 61.0715 26 61.0715 26C61.0715 26 61.0715 26 61.0715 26C61.0715 26 61.0715 26 61.0715 26C61.0715 26 61.0715 26 61.0715 26C61.0715 26 61.0715 26 61.0715 26C61.0715 26 61.0715 26 61.0715 26C61.0715 26 61.0715 26 61.0715 26C61.0715 26 61.0715 26 61.0715 26C61.0715 26 61.0715 26 61.0715 26C61.0715 26 61.0715 26 61.0715 26C61.0715 26 61.0715 26 61.0715 26C61.0715 26 61.0715 26 61.0715 26C61.0715 26 61.0715 26 61.0715 26C61.0715 26 61.0715 26 61.0715 26C61.0715 26 61.0715 26 61.0715 26C61.0715 26 61.0715 26 61.0715 26C61.0715 26 61.0715 26 61.0715 26C61.0715 26 61.0715 26 61.0715 26C61.0715 26 61.0715 26 61.0715 26C61.0715 26 61.0715 26 61.0715 26C61.0715 26 61.0715 26 61.0715 26C61.0715 26 61.0715 26 61.0715 26C61.0715 26 61.0715 26 61.0715 26C61.0715 26 61.0715 26 61.0715 26C61.0715 26 61.0715 26 61.0715 26C61.0715 26 61.0715 26 61.0715 26C61.0715 26 61.0715 26 61.0715 26C61.0715 26 61.0715 26 61.0715 26C61.0715 26 61.0715 26 61.0715 26C61.0715 26 61.0715 26 61.0715 26C61.0715 26 61.0715 26 61.0715 26C61.0715 26 61.0715 26 61.0715 26C61.0715 26 61.0715 26 61.0715 26C61.0715 26 61.0715 26 61.0715 26C61.0715 26 61.0715 26 61.0715 26C61.0715 26 61.0715 26 61.0715 26C61.0715 26 61.0715 26 61.0715 26C61.0715 26 61.0715 26 61.0715 26C61.0715 26 61.0715 26 61.0715 26C61.0715 26 61.0715 26 61.0715 26C61.0715 26 61.0715 26 61.0715 26C61.0715 26 61.0715 26 61.0715 26C61.0715 26 61.0715 26 61.0715 26C61.0715 26 61.0715 26 61.0715 26C61.0715 26 61.0715 26 61.0715 26C61.0715 26 61.0715 26 61.0715 26C61.0715 26 61.0715 26 61.0715 26C61.0715 26 61.0715 26 61.0715 26C61.0715 26 61.0715 26 61.0715 26C61.0715 26 61.0715 26 61.0715 26C61.0715 26 61.0715 26 61.0715 26C61.0715 26 61.0715 26 61.0715 26C61.0715 26 61.0715 26 61.0715 26C61.0715 26 61.0715 26 61.0715 26C61.0715 26 61.0715 26 61.0715 26C61.0715 26 61.0715 26 61.0715 26C61.0715 26 61.0715 26 61.0715 26C61.0715 26 61.0715 26 61.0715 26C61.0715 26 61.0715 26 61.0715 26C61.0715 26 61.0715 26 61.0715 26C61.0715 26 61.0715 26 61.0715 26C61.0715 26 61.0715 26 61.0715 26C61.0715 26 61.0715 26 61.0715 26C61.0715 26 61.0715 26 61.0715 26C61.0715 26 61.0715 26 61.0715 26C61.0715 26 61.0715 26 61.0715 26C61.0715 26 61.0715 26 61.0715 26C61.0715 26 61.0715 26 61.0715 26C61.0715 26 61.0715 26 61.0715 26C61.0715 26 61.0715 26 61.0715 26C61.0715 26 61.0715 26 61.0715 26C61.0715 26 61.0715 26 61.0715 26C61.0715 26 61.0715 26 61.0715 26C61.0715 26 61.0715 26 61.0715 26C61.0715 26 61.0715 26 61.0715 26C61.0715 26 61.0715 26 61.0715 26C61.0715 26 61.0715 26 61.0715 26C61.0715 26 61.0715 26 61.0715 26C61.0715 26 61.0715 26 61.0715 26C61.0715 26 61.0715 26 61.0715 26C61.0715 26 61.0715 26 61.0715 26C61.0715 26 61.0715 26 61.0715 26C61.0715 26 61.0715 26 61.0715 26C61.0715 26 61.0715 26 61.0715 26C61.0715 26 61.0715 26 61.0715 26C61.0715 26 61.0715 26 61.0715 26C61.0715 26 61.0715 26 61.0715 26C61.0715 26 61.0715 26 61.0715 26C61.0715 26 61.0715 26 61.0715 26C61.0715 26 61.0715 26 61.0715 26C61.0715 26 61.0715 26 61.0715 26C61.0715 26 61.0715 26 61.0715 26C61.0715 26 61.0715 26 61.0715 26C61.0715 26 61.0715 26 61.0715 26C61.0715 26 61.0715 26 61.0715 26C61.0715 26 61.0715 26 61.0715 26C61.0715 26 61.0715 26 61.0715 26C61.0715 26 61.0715 26 61.0715 26C61.0715 26 61.0715 26 61.0715 26C61.0715 26 61.0715 26 61.0715 26C61.0715 26 61.0715 26 61.0715 26C61.0715 26 61.0715 26 61.0715 26C61.0715 26 61.0715 26 61.0715 26C61.0715 26 61.0715 26 61.0715 26C61.0715 26 61.0715 26 61.0715 26C61.0715 26 61.0715 26 61.0715 26C61.0715 26 61.0715 26 61.0715 26C61.0715 26 61.0715 26 61.0715 26C61.0715 26 61.0715 26 61.0715 26C61.0715 26 61.0715 26 61.0715 26C61.0715 26 61.0715 26 61.0715 26C61.0715 26 61.0715 26 61.0715 26C61.0715 26 61.0715 26 61.0715 26C61.0715 26 61.0715 26 61.0715 26C61.0715 26 61.0715 26 61.0715 26C61.0715 26 61.0715 26 61.0715 26C61.0715 26 61.0715 26 61.0715 26C61.0715 26 61.0715 26 61.0715 26C61.0715 26 61.0715 26 61.0715 26C61.0715 26 61.0715 26 61.0715 26C61.0715 26 61.0715 26 61.0715 26C61.0715 26 61.0715 26 61.0715 26C61.0715 26 61.0715 26 61.0715 26C61.0715 26 61.0715 26 61.0715 26C61.0715 26 61.0715 26 61.0715 26C61.0715 26 61.0715 26 61.0715 26C61.0715 26 61.0715 26 61.0715 26C61.0715 26 61.0715 26 61.0715 26C61.0715 26 61.0715 26 61.0715 26C61.0715 26 61.0715 26 61.0715 26C61.0715 26 61.0715 26 61.0715 26C61.0715 26 61.0715 26 61.0715 26C61.0715 26 61.0715 26 61.0715 26C61.0715 26 61.0715 26 61.0715 26C61.0715 26 61.0715 26 61.0715 26C61.0715 26 61.0715 26 61.0715 26C61.0715 26 61.0715 26 61.0715 26C61.0715 26 61.0715 26 61.0715 26C61.0715 26 61.0715 26 61.0715 26C61.0715 26 61.0715 26 61.0715 26C61.0715 26 61.0715 26 61.0715 26C61.0715 26 61.0715 26 61.0715 26C61.0715 26 61.0715 26 61.0715 26C61.0715 26 61.0715 26 61.0715 26C61.0715 26 61.0715 26 61.0715 26C61.0715 26 61.0715 26 61.0715 26C61.0715 26 61.0715 26 61.0715 26C61.0715 26 61.0715 26 61.0715 26C61.0715 26 61.0715 26 61.0715 26C61.0715 26 61.0715 26 61.0715 26C61.0715 26 61.0715 26 61.0715 26C61.0715 26 61.0715 26 61.0715 26C61.0715 26 61.0715 26 61.0715 26C61.0715 26 61.0715 26 61.0715 26C61.0715 26 61.0715 26 61.0715 26C61.0715 26 61.0715 26 61.0715 26C61.0715 26 61.0715 26 61.0715 26C61.0715 26 61.0715 26 61.0715 26C61.0715 26 61.0715 26 61.0715 26C61.0715 26 61.0715 26 61.0715 26C61.0715 26 61.0715 26 61.0715 26C61.0715 26 61.0715 26 61.0715 26C61.0715 26 61.0715 26 61.0715 26C61.0715 26 61.0715 26 61.0715 26C61.0715 26 61.0715 26 61.0715 26C61.0715 26 61.0715 26 61.0715 26C61.0715 26 61.0715 26 61.0715 26C61.0715 26 61.0715 26 61.0715 26C61.0715 26 61.0715 26 61.0715 26C61.0715 26 61.0715 26 61.0715 26C61.0715 26 61.0715 26 61.0715 26C61.0715 26 61.0715 26 61.0715 26C61.0715 26 61.0715 26 61.0715 26C61.0715 26 61.0715 26 61.0715 26C61.0715 26 61.0715 26 61.0715 26C61.0715 26 61.0715 26 61.0715 26C61.0715 26 61.0715 26 61.0715 26C61.0715 26 61.0715 26 61.0715 26C61.0715 26 61.0715 26 61.0715 26C61.0715 26 61.0715 26 61.0715 26C61.0715 26 61.0715 26 61.0715 26C61.0715 26 61.0715 26 61.0715 26C61.0715 26 61.0715 26 61.0715 26C61.0715 26 61.0715 26 61.0715 26C61.0715 26 61.0715 26 61.0715 26C61.0715 26 61.0715 26 61.0715 26C61.0715 26 61.0715 26 61.0715 26C61.0715 26 61.0715 26 61.0715 26C61.0715 26 61.0715 26 61.0715 26C61.0715 26 61.0715 26 61.0715 26C61.0715 26 61.0715 26 61.0715 26C61.0715 26 61.0715 26 61.0715 26C61.0715 26 61.0715 26 61.0715 26C61.0715 26 61.0715 26 61.0715 26C61.0715 26 61.0715 26 61.0715 26C61.0715 26 61.0715 26 61.0715 26C61.0715 26 61.0715 26 61.0715 26C61.0715 26 61.0715 26 61.0715 26C61.0715 26 61.0715 26 61.0715 26C61.0715 26 61.0715 26 61.0715 26C61.0715 26 61.0715 26 61.0715 26C61.0715 26 61.0715 26 61.0715 26C61.0715 26 61.0715 26 61.0715 26C61.0715 26 61.0715 26 61.0715 26C61.0715 26 61.0715 26 61.0715 26C61.0715 26 61.0715 26 61.0715 26C61.0715 26 61.0715 26 61.0715 26C61.0715 26 61.0715 26 61.0715 26C61.0715 26 61.0715 26 61.0715 26C61.0715 26 61.0715 26 61.0715 26C61.0715 26 61.0715 26 61.0715 26C61.0715 26 61.0715 26 61.0715 26C61.0715 26 61.0715 26 61.0715 26C61.0715 26 61.0715 26 61.0715 26C61.0715 26 61.0715 26 61.0715 26C61.0715 26 61.0715 26 61.0715 26C61.0715 26 61.0715 26 61.0715 26C61.0715 26 61.0715 26 61.0715 26C61.0715 26 61.0715 26 61.0715 26C61.0715 26 61.0715 26 61.0715 26C61.0715 26 61.0715 26 61.0715 26C61.0715 26 61.0715 26 61.0715 26V32ZM61.0715 32C61.5526 32 62.0604 32.0008 62.5118 31.9727L62.1386 25.9843C61.9134 25.9984 61.6127 26 61.0715 26V32ZM62.5118 31.9727C62.9475 31.9455 63.4962 31.8844 64.0265 31.6861L61.925 26.0662C62.0201 26.0307 62.0965 26.0092 62.1457 25.9968C62.1957 25.9843 62.2295 25.9782 62.2422 25.9761C62.2646 25.9723 62.2369 25.9782 62.1386 25.9843L62.5118 31.9727ZM64.0265 31.6861C64.1656 31.6341 64.3091 31.5707 64.4533 31.4927L61.5987 26.2153C61.7231 26.148 61.8344 26.1001 61.925 26.0662L64.0265 31.6861ZM64.5053 31.4639L64.5121 31.4601L61.5535 26.2403L61.5467 26.2441L64.5053 31.4639ZM65.8109 29.9824L65.8146 29.9735L60.2583 27.7091L60.2546 27.718L65.8109 29.9824ZM65.8409 29.9065C65.9028 29.7437 65.9494 29.5813 65.9841 29.4221L60.1221 28.1427C60.1445 28.0401 60.1789 27.9157 60.2319 27.7761L65.8409 29.9065ZM65.9841 29.4223C66.0529 29.1071 66.0772 28.795 66.0772 28.5H60.0772C60.0772 28.4729 60.0787 28.3416 60.1222 28.1425L65.9841 29.4223ZM66.0772 28.5C66.0772 28.205 66.0529 27.893 65.9841 27.5777L60.1222 28.8575C60.0787 28.6584 60.0772 28.5271 60.0772 28.5H66.0772ZM65.9841 27.5777C65.9494 27.4188 65.9028 27.2564 65.8409 27.0935L60.2319 29.2239C60.1788 29.0842 60.1445 28.9597 60.1222 28.8575L65.9841 27.5777ZM65.8144 27.0262L65.8108 27.0173L60.2548 29.2823L60.2584 29.2912L65.8144 27.0262ZM64.5125 25.5402L64.5058 25.5363L61.5463 30.7556L61.553 30.7595L64.5125 25.5402ZM64.4531 25.5072C64.3091 25.4293 64.1656 25.3659 64.0265 25.3138L61.925 30.9338C61.8343 30.8999 61.7231 30.852 61.5989 30.7848L64.4531 25.5072ZM64.0265 25.3139C63.4962 25.1156 62.9475 25.0544 62.5118 25.0273L62.1386 31.0157C62.2369 31.0218 62.2646 31.0277 62.2422 31.0239C62.2295 31.0218 62.1957 31.0157 62.1457 31.0032C62.0965 30.9908 62.0201 30.9693 61.925 30.9338L64.0265 25.3139ZM62.5118 25.0273C62.062 24.9993 61.5566 25 61.0777 25L61.0777 31C61.6153 31 61.9146 31.0017 62.1386 31.0157L62.5118 25.0273ZM61.0777 25C61.0777 25 61.0777 25 61.0777 25C61.0777 25 61.0777 25 61.0777 25C61.0777 25 61.0777 25 61.0777 25C61.0777 25 61.0777 25 61.0777 25C61.0777 25 61.0777 25 61.0777 25C61.0776 25 61.0776 25 61.0776 25C61.0776 25 61.0776 25 61.0776 25C61.0776 25 61.0776 25 61.0776 25C61.0776 25 61.0776 25 61.0776 25C61.0776 25 61.0776 25 61.0776 25C61.0776 25 61.0776 25 61.0776 25C61.0776 25 61.0776 25 61.0776 25C61.0776 25 61.0776 25 61.0776 25C61.0776 25 61.0775 25 61.0775 25C61.0775 25 61.0775 25 61.0775 25C61.0775 25 61.0775 25 61.0775 25C61.0775 25 61.0775 25 61.0775 25C61.0775 25 61.0775 25 61.0775 25C61.0775 25 61.0775 25 61.0775 25C61.0775 25 61.0775 25 61.0775 25C61.0775 25 61.0775 25 61.0775 25C61.0775 25 61.0774 25 61.0774 25C61.0774 25 61.0774 25 61.0774 25C61.0774 25 61.0774 25 61.0774 25C61.0774 25 61.0774 25 61.0774 25C61.0774 25 61.0774 25 61.0774 25C61.0774 25 61.0774 25 61.0774 25C61.0774 25 61.0774 25 61.0774 25C61.0774 25 61.0774 25 61.0774 25C61.0774 25 61.0774 25 61.0773 25C61.0773 25 61.0773 25 61.0773 25C61.0773 25 61.0773 25 61.0773 25C61.0773 25 61.0773 25 61.0773 25C61.0773 25 61.0773 25 61.0773 25C61.0773 25 61.0773 25 61.0773 25C61.0773 25 61.0773 25 61.0773 25C61.0773 25 61.0773 25 61.0773 25C61.0773 25 61.0773 25 61.0772 25C61.0772 25 61.0772 25 61.0772 25C61.0772 25 61.0772 25 61.0772 25C61.0772 25 61.0772 25 61.0772 25C61.0772 25 61.0772 25 61.0772 25C61.0772 25 61.0772 25 61.0772 25C61.0772 25 61.0772 25 61.0772 25C61.0772 25 61.0772 25 61.0772 25C61.0772 25 61.0772 25 61.0772 25C61.0771 25 61.0771 25 61.0771 25C61.0771 25 61.0771 25 61.0771 25C61.0771 25 61.0771 25 61.0771 25C61.0771 25 61.0771 25 61.0771 25C61.0771 25 61.0771 25 61.0771 25C61.0771 25 61.0771 25 61.0771 25C61.0771 25 61.0771 25 61.0771 25C61.0771 25 61.0771 25 61.0771 25C61.0771 25 61.077 25 61.077 25C61.077 25 61.077 25 61.077 25C61.077 25 61.077 25 61.077 25C61.077 25 61.077 25 61.077 25C61.077 25 61.077 25 61.077 25C61.077 25 61.077 25 61.077 25C61.077 25 61.077 25 61.077 25C61.077 25 61.077 25 61.077 25C61.077 25 61.0769 25 61.0769 25C61.0769 25 61.0769 25 61.0769 25C61.0769 25 61.0769 25 61.0769 25C61.0769 25 61.0769 25 61.0769 25C61.0769 25 61.0769 25 61.0769 25C61.0769 25 61.0769 25 61.0769 25C61.0769 25 61.0769 25 61.0769 25C61.0769 25 61.0769 25 61.0769 25C61.0769 25 61.0769 25 61.0768 25C61.0768 25 61.0768 25 61.0768 25C61.0768 25 61.0768 25 61.0768 25C61.0768 25 61.0768 25 61.0768 25C61.0768 25 61.0768 25 61.0768 25C61.0768 25 61.0768 25 61.0768 25C61.0768 25 61.0768 25 61.0768 25C61.0768 25 61.0768 25 61.0768 25C61.0768 25 61.0768 25 61.0767 25C61.0767 25 61.0767 25 61.0767 25C61.0767 25 61.0767 25 61.0767 25C61.0767 25 61.0767 25 61.0767 25C61.0767 25 61.0767 25 61.0767 25C61.0767 25 61.0767 25 61.0767 25C61.0767 25 61.0767 25 61.0767 25C61.0767 25 61.0767 25 61.0767 25C61.0767 25 61.0767 25 61.0767 25C61.0766 25 61.0766 25 61.0766 25C61.0766 25 61.0766 25 61.0766 25C61.0766 25 61.0766 25 61.0766 25C61.0766 25 61.0766 25 61.0766 25C61.0766 25 61.0766 25 61.0766 25C61.0766 25 61.0766 25 61.0766 25C61.0766 25 61.0766 25 61.0766 25C61.0766 25 61.0766 25 61.0766 25C61.0766 25 61.0765 25 61.0765 25C61.0765 25 61.0765 25 61.0765 25C61.0765 25 61.0765 25 61.0765 25C61.0765 25 61.0765 25 61.0765 25C61.0765 25 61.0765 25 61.0765 25C61.0765 25 61.0765 25 61.0765 25C61.0765 25 61.0765 25 61.0765 25C61.0765 25 61.0765 25 61.0765 25C61.0765 25 61.0764 25 61.0764 25C61.0764 25 61.0764 25 61.0764 25C61.0764 25 61.0764 25 61.0764 25C61.0764 25 61.0764 25 61.0764 25C61.0764 25 61.0764 25 61.0764 25C61.0764 25 61.0764 25 61.0764 25C61.0764 25 61.0764 25 61.0764 25C61.0764 25 61.0764 25 61.0764 25C61.0764 25 61.0764 25 61.0763 25C61.0763 25 61.0763 25 61.0763 25C61.0763 25 61.0763 25 61.0763 25C61.0763 25 61.0763 25 61.0763 25C61.0763 25 61.0763 25 61.0763 25C61.0763 25 61.0763 25 61.0763 25C61.0763 25 61.0763 25 61.0763 25C61.0763 25 61.0763 25 61.0763 25C61.0763 25 61.0763 25 61.0762 25C61.0762 25 61.0762 25 61.0762 25C61.0762 25 61.0762 25 61.0762 25C61.0762 25 61.0762 25 61.0762 25C61.0762 25 61.0762 25 61.0762 25C61.0762 25 61.0762 25 61.0762 25C61.0762 25 61.0762 25 61.0762 25C61.0762 25 61.0762 25 61.0762 25C61.0762 25 61.0762 25 61.0762 25C61.0761 25 61.0761 25 61.0761 25C61.0761 25 61.0761 25 61.0761 25C61.0761 25 61.0761 25 61.0761 25C61.0761 25 61.0761 25 61.0761 25C61.0761 25 61.0761 25 61.0761 25C61.0761 25 61.0761 25 61.0761 25C61.0761 25 61.0761 25 61.0761 25C61.0761 25 61.0761 25 61.0761 25C61.0761 25 61.076 25 61.076 25C61.076 25 61.076 25 61.076 25C61.076 25 61.076 25 61.076 25C61.076 25 61.076 25 61.076 25C61.076 25 61.076 25 61.076 25C61.076 25 61.076 25 61.076 25C61.076 25 61.076 25 61.076 25C61.076 25 61.076 25 61.076 25C61.076 25 61.0759 25 61.0759 25C61.0759 25 61.0759 25 61.0759 25C61.0759 25 61.0759 25 61.0759 25C61.0759 25 61.0759 25 61.0759 25C61.0759 25 61.0759 25 61.0759 25C61.0759 25 61.0759 25 61.0759 25C61.0759 25 61.0759 25 61.0759 25C61.0759 25 61.0759 25 61.0759 25C61.0759 25 61.0759 25 61.0758 25C61.0758 25 61.0758 25 61.0758 25C61.0758 25 61.0758 25 61.0758 25C61.0758 25 61.0758 25 61.0758 25C61.0758 25 61.0758 25 61.0758 25C61.0758 25 61.0758 25 61.0758 25C61.0758 25 61.0758 25 61.0758 25C61.0758 25 61.0758 25 61.0758 25C61.0758 25 61.0758 25 61.0757 25C61.0757 25 61.0757 25 61.0757 25C61.0757 25 61.0757 25 61.0757 25C61.0757 25 61.0757 25 61.0757 25C61.0757 25 61.0757 25 61.0757 25C61.0757 25 61.0757 25 61.0757 25C61.0757 25 61.0757 25 61.0757 25C61.0757 25 61.0757 25 61.0757 25C61.0757 25 61.0757 25 61.0757 25C61.0756 25 61.0756 25 61.0756 25C61.0756 25 61.0756 25 61.0756 25C61.0756 25 61.0756 25 61.0756 25C61.0756 25 61.0756 25 61.0756 25C61.0756 25 61.0756 25 61.0756 25C61.0756 25 61.0756 25 61.0756 25C61.0756 25 61.0756 25 61.0756 25C61.0756 25 61.0756 25 61.0756 25C61.0756 25 61.0755 25 61.0755 25C61.0755 25 61.0755 25 61.0755 25C61.0755 25 61.0755 25 61.0755 25C61.0755 25 61.0755 25 61.0755 25C61.0755 25 61.0755 25 61.0755 25C61.0755 25 61.0755 25 61.0755 25C61.0755 25 61.0755 25 61.0755 25C61.0755 25 61.0755 25 61.0755 25C61.0755 25 61.0754 25 61.0754 25C61.0754 25 61.0754 25 61.0754 25C61.0754 25 61.0754 25 61.0754 25C61.0754 25 61.0754 25 61.0754 25C61.0754 25 61.0754 25 61.0754 25C61.0754 25 61.0754 25 61.0754 25C61.0754 25 61.0754 25 61.0754 25C61.0754 25 61.0754 25 61.0754 25C61.0754 25 61.0754 25 61.0753 25C61.0753 25 61.0753 25 61.0753 25C61.0753 25 61.0753 25 61.0753 25C61.0753 25 61.0753 25 61.0753 25C61.0753 25 61.0753 25 61.0753 25C61.0753 25 61.0753 25 61.0753 25C61.0753 25 61.0753 25 61.0753 25C61.0753 25 61.0753 25 61.0753 25C61.0753 25 61.0753 25 61.0752 25C61.0752 25 61.0752 25 61.0752 25C61.0752 25 61.0752 25 61.0752 25C61.0752 25 61.0752 25 61.0752 25C61.0752 25 61.0752 25 61.0752 25C61.0752 25 61.0752 25 61.0752 25C61.0752 25 61.0752 25 61.0752 25C61.0752 25 61.0752 25 61.0752 25C61.0752 25 61.0752 25 61.0752 25C61.0751 25 61.0751 25 61.0751 25C61.0751 25 61.0751 25 61.0751 25C61.0751 25 61.0751 25 61.0751 25C61.0751 25 61.0751 25 61.0751 25C61.0751 25 61.0751 25 61.0751 25C61.0751 25 61.0751 25 61.0751 25C61.0751 25 61.0751 25 61.0751 25C61.0751 25 61.0751 25 61.0751 25C61.0751 25 61.075 25 61.075 25C61.075 25 61.075 25 61.075 25C61.075 25 61.075 25 61.075 25C61.075 25 61.075 25 61.075 25C61.075 25 61.075 25 61.075 25C61.075 25 61.075 25 61.075 25C61.075 25 61.075 25 61.075 25C61.075 25 61.075 25 61.075 25C61.075 25 61.0749 25 61.0749 25C61.0749 25 61.0749 25 61.0749 25C61.0749 25 61.0749 25 61.0749 25C61.0749 25 61.0749 25 61.0749 25C61.0749 25 61.0749 25 61.0749 25C61.0749 25 61.0749 25 61.0749 25C61.0749 25 61.0749 25 61.0749 25C61.0749 25 61.0749 25 61.0749 25C61.0749 25 61.0749 25 61.0748 25C61.0748 25 61.0748 25 61.0748 25C61.0748 25 61.0748 25 61.0748 25C61.0748 25 61.0748 25 61.0748 25C61.0748 25 61.0748 25 61.0748 25C61.0748 25 61.0748 25 61.0748 25C61.0748 25 61.0748 25 61.0748 25C61.0748 25 61.0748 25 61.0748 25C61.0748 25 61.0748 25 61.0747 25C61.0747 25 61.0747 25 61.0747 25C61.0747 25 61.0747 25 61.0747 25C61.0747 25 61.0747 25 61.0747 25C61.0747 25 61.0747 25 61.0747 25C61.0747 25 61.0747 25 61.0747 25C61.0747 25 61.0747 25 61.0747 25C61.0747 25 61.0747 25 61.0747 25C61.0747 25 61.0747 25 61.0747 25C61.0746 25 61.0746 25 61.0746 25C61.0746 25 61.0746 25 61.0746 25C61.0746 25 61.0746 25 61.0746 25C61.0746 25 61.0746 25 61.0746 25C61.0746 25 61.0746 25 61.0746 25C61.0746 25 61.0746 25 61.0746 25C61.0746 25 61.0746 25 61.0746 25C61.0746 25 61.0746 25 61.0746 25C61.0746 25 61.0745 25 61.0745 25C61.0745 25 61.0745 25 61.0745 25C61.0745 25 61.0745 25 61.0745 25C61.0745 25 61.0745 25 61.0745 25C61.0745 25 61.0745 25 61.0745 25C61.0745 25 61.0745 25 61.0745 25C61.0745 25 61.0745 25 61.0745 25C61.0745 25 61.0745 25 61.0745 25C61.0745 25 61.0744 25 61.0744 25C61.0744 25 61.0744 25 61.0744 25C61.0744 25 61.0744 25 61.0744 25C61.0744 25 61.0744 25 61.0744 25C61.0744 25 61.0744 25 61.0744 25C61.0744 25 61.0744 25 61.0744 25C61.0744 25 61.0744 25 61.0744 25C61.0744 25 61.0744 25 61.0744 25C61.0744 25 61.0744 25 61.0743 25C61.0743 25 61.0743 25 61.0743 25C61.0743 25 61.0743 25 61.0743 25C61.0743 25 61.0743 25 61.0743 25C61.0743 25 61.0743 25 61.0743 25C61.0743 25 61.0743 25 61.0743 25C61.0743 25 61.0743 25 61.0743 25C61.0743 25 61.0743 25 61.0743 25C61.0743 25 61.0743 25 61.0742 25C61.0742 25 61.0742 25 61.0742 25C61.0742 25 61.0742 25 61.0742 25C61.0742 25 61.0742 25 61.0742 25C61.0742 25 61.0742 25 61.0742 25C61.0742 25 61.0742 25 61.0742 25C61.0742 25 61.0742 25 61.0742 25C61.0742 25 61.0742 25 61.0742 25C61.0742 25 61.0742 25 61.0742 25C61.0741 25 61.0741 25 61.0741 25C61.0741 25 61.0741 25 61.0741 25C61.0741 25 61.0741 25 61.0741 25C61.0741 25 61.0741 25 61.0741 25C61.0741 25 61.0741 25 61.0741 25C61.0741 25 61.0741 25 61.0741 25C61.0741 25 61.0741 25 61.0741 25C61.0741 25 61.0741 25 61.0741 25C61.0741 25 61.074 25 61.074 25C61.074 25 61.074 25 61.074 25C61.074 25 61.074 25 61.074 25C61.074 25 61.074 25 61.074 25C61.074 25 61.074 25 61.074 25C61.074 25 61.074 25 61.074 25C61.074 25 61.074 25 61.074 25C61.074 25 61.074 25 61.074 25C61.074 25 61.0739 25 61.0739 25C61.0739 25 61.0739 25 61.0739 25C61.0739 25 61.0739 25 61.0739 25C61.0739 25 61.0739 25 61.0739 25C61.0739 25 61.0739 25 61.0739 25C61.0739 25 61.0739 25 61.0739 25C61.0739 25 61.0739 25 61.0739 25C61.0739 25 61.0739 25 61.0739 25C61.0739 25 61.0739 25 61.0738 25C61.0738 25 61.0738 25 61.0738 25C61.0738 25 61.0738 25 61.0738 25C61.0738 25 61.0738 25 61.0738 25C61.0738 25 61.0738 25 61.0738 25C61.0738 25 61.0738 25 61.0738 25C61.0738 25 61.0738 25 61.0738 25C61.0738 25 61.0738 25 61.0738 25C61.0738 25 61.0738 25 61.0737 25C61.0737 25 61.0737 25 61.0737 25C61.0737 25 61.0737 25 61.0737 25C61.0737 25 61.0737 25 61.0737 25C61.0737 25 61.0737 25 61.0737 25C61.0737 25 61.0737 25 61.0737 25C61.0737 25 61.0737 25 61.0737 25C61.0737 25 61.0737 25 61.0737 25C61.0737 25 61.0737 25 61.0737 25C61.0736 25 61.0736 25 61.0736 25C61.0736 25 61.0736 25 61.0736 25C61.0736 25 61.0736 25 61.0736 25C61.0736 25 61.0736 25 61.0736 25C61.0736 25 61.0736 25 61.0736 25C61.0736 25 61.0736 25 61.0736 25C61.0736 25 61.0736 25 61.0736 25C61.0736 25 61.0736 25 61.0736 25C61.0736 25 61.0735 25 61.0735 25C61.0735 25 61.0735 25 61.0735 25C61.0735 25 61.0735 25 61.0735 25C61.0735 25 61.0735 25 61.0735 25C61.0735 25 61.0735 25 61.0735 25C61.0735 25 61.0735 25 61.0735 25C61.0735 25 61.0735 25 61.0735 25C61.0735 25 61.0735 25 61.0735 25C61.0735 25 61.0734 25 61.0734 25C61.0734 25 61.0734 25 61.0734 25C61.0734 25 61.0734 25 61.0734 25C61.0734 25 61.0734 25 61.0734 25C61.0734 25 61.0734 25 61.0734 25C61.0734 25 61.0734 25 61.0734 25C61.0734 25 61.0734 25 61.0734 25C61.0734 25 61.0734 25 61.0734 25C61.0734 25 61.0734 25 61.0733 25C61.0733 25 61.0733 25 61.0733 25C61.0733 25 61.0733 25 61.0733 25C61.0733 25 61.0733 25 61.0733 25C61.0733 25 61.0733 25 61.0733 25C61.0733 25 61.0733 25 61.0733 25C61.0733 25 61.0733 25 61.0733 25C61.0733 25 61.0733 25 61.0733 25C61.0733 25 61.0733 25 61.0732 25C61.0732 25 61.0732 25 61.0732 25C61.0732 25 61.0732 25 61.0732 25C61.0732 25 61.0732 25 61.0732 25C61.0732 25 61.0732 25 61.0732 25C61.0732 25 61.0732 25 61.0732 25C61.0732 25 61.0732 25 61.0732 25C61.0732 25 61.0732 25 61.0732 25C61.0732 25 61.0732 25 61.0732 25C61.0731 25 61.0731 25 61.0731 25C61.0731 25 61.0731 25 61.0731 25C61.0731 25 61.0731 25 61.0731 25C61.0731 25 61.0731 25 61.0731 25C61.0731 25 61.0731 25 61.0731 25C61.0731 25 61.0731 25 61.0731 25C61.0731 25 61.0731 25 61.0731 25C61.0731 25 61.0731 25 61.0731 25C61.073 25 61.073 25 61.073 25C61.073 25 61.073 25 61.073 25C61.073 25 61.073 25 61.073 25C61.073 25 61.073 25 61.073 25C61.073 25 61.073 25 61.073 25C61.073 25 61.073 25 61.073 25C61.073 25 61.073 25 61.073 25C61.073 25 61.073 25 61.073 25C61.073 25 61.0729 25 61.0729 25C61.0729 25 61.0729 25 61.0729 25C61.0729 25 61.0729 25 61.0729 25C61.0729 25 61.0729 25 61.0729 25C61.0729 25 61.0729 25 61.0729 25C61.0729 25 61.0729 25 61.0729 25C61.0729 25 61.0729 25 61.0729 25C61.0729 25 61.0729 25 61.0729 25C61.0729 25 61.0729 25 61.0728 25C61.0728 25 61.0728 25 61.0728 25C61.0728 25 61.0728 25 61.0728 25C61.0728 25 61.0728 25 61.0728 25C61.0728 25 61.0728 25 61.0728 25C61.0728 25 61.0728 25 61.0728 25C61.0728 25 61.0728 25 61.0728 25C61.0728 25 61.0728 25 61.0728 25C61.0728 25 61.0728 25 61.0727 25C61.0727 25 61.0727 25 61.0727 25C61.0727 25 61.0727 25 61.0727 25C61.0727 25 61.0727 25 61.0727 25C61.0727 25 61.0727 25 61.0727 25C61.0727 25 61.0727 25 61.0727 25C61.0727 25 61.0727 25 61.0727 25C61.0727 25 61.0727 25 61.0727 25C61.0727 25 61.0727 25 61.0727 25C61.0726 25 61.0726 25 61.0726 25C61.0726 25 61.0726 25 61.0726 25C61.0726 25 61.0726 25 61.0726 25C61.0726 25 61.0726 25 61.0726 25C61.0726 25 61.0726 25 61.0726 25C61.0726 25 61.0726 25 61.0726 25C61.0726 25 61.0726 25 61.0726 25C61.0726 25 61.0726 25 61.0726 25C61.0725 25 61.0725 25 61.0725 25C61.0725 25 61.0725 25 61.0725 25C61.0725 25 61.0725 25 61.0725 25C61.0725 25 61.0725 25 61.0725 25C61.0725 25 61.0725 25 61.0725 25C61.0725 25 61.0725 25 61.0725 25C61.0725 25 61.0725 25 61.0725 25C61.0725 25 61.0725 25 61.0725 25C61.0725 25 61.0724 25 61.0724 25C61.0724 25 61.0724 25 61.0724 25C61.0724 25 61.0724 25 61.0724 25C61.0724 25 61.0724 25 61.0724 25C61.0724 25 61.0724 25 61.0724 25C61.0724 25 61.0724 25 61.0724 25C61.0724 25 61.0724 25 61.0724 25C61.0724 25 61.0724 25 61.0724 25C61.0724 25 61.0723 25 61.0723 25C61.0723 25 61.0723 25 61.0723 25C61.0723 25 61.0723 25 61.0723 25C61.0723 25 61.0723 25 61.0723 25C61.0723 25 61.0723 25 61.0723 25C61.0723 25 61.0723 25 61.0723 25C61.0723 25 61.0723 25 61.0723 25C61.0723 25 61.0723 25 61.0723 25C61.0723 25 61.0723 25 61.0722 25C61.0722 25 61.0722 25 61.0722 25C61.0722 25 61.0722 25 61.0722 25C61.0722 25 61.0722 25 61.0722 25C61.0722 25 61.0722 25 61.0722 25C61.0722 25 61.0722 25 61.0722 25C61.0722 25 61.0722 25 61.0722 25C61.0722 25 61.0722 25 61.0722 25C61.0722 25 61.0722 25 61.0722 25C61.0721 25 61.0721 25 61.0721 25C61.0721 25 61.0721 25 61.0721 25C61.0721 25 61.0721 25 61.0721 25C61.0721 25 61.0721 25 61.0721 25C61.0721 25 61.0721 25 61.0721 25C61.0721 25 61.0721 25 61.0721 25C61.0721 25 61.0721 25 61.0721 25C61.0721 25 61.0721 25 61.0721 25C61.072 25 61.072 25 61.072 25C61.072 25 61.072 25 61.072 25C61.072 25 61.072 25 61.072 25C61.072 25 61.072 25 61.072 25C61.072 25 61.072 25 61.072 25C61.072 25 61.072 25 61.072 25C61.072 25 61.072 25 61.072 25C61.072 25 61.072 25 61.072 25C61.072 25 61.0719 25 61.0719 25C61.0719 25 61.0719 25 61.0719 25C61.0719 25 61.0719 25 61.0719 25C61.0719 25 61.0719 25 61.0719 25C61.0719 25 61.0719 25 61.0719 25C61.0719 25 61.0719 25 61.0719 25C61.0719 25 61.0719 25 61.0719 25C61.0719 25 61.0719 25 61.0719 25C61.0719 25 61.0718 25 61.0718 25C61.0718 25 61.0718 25 61.0718 25C61.0718 25 61.0718 25 61.0718 25C61.0718 25 61.0718 25 61.0718 25C61.0718 25 61.0718 25 61.0718 25C61.0718 25 61.0718 25 61.0718 25C61.0718 25 61.0718 25 61.0718 25C61.0718 25 61.0718 25 61.0718 25C61.0718 25 61.0718 25 61.0717 25C61.0717 25 61.0717 25 61.0717 25C61.0717 25 61.0717 25 61.0717 25C61.0717 25 61.0717 25 61.0717 25C61.0717 25 61.0717 25 61.0717 25C61.0717 25 61.0717 25 61.0717 25C61.0717 25 61.0717 25 61.0717 25C61.0717 25 61.0717 25 61.0717 25C61.0717 25 61.0717 25 61.0716 25C61.0716 25 61.0716 25 61.0716 25C61.0716 25 61.0716 25 61.0716 25C61.0716 25 61.0716 25 61.0716 25C61.0716 25 61.0716 25 61.0716 25C61.0716 25 61.0716 25 61.0716 25C61.0716 25 61.0716 25 61.0716 25C61.0716 25 61.0716 25 61.0716 25C61.0716 25 61.0716 25 61.0716 25C61.0715 25 61.0715 25 61.0715 25C61.0715 25 61.0715 25 61.0715 25C61.0715 25 61.0715 25 61.0715 25C61.0715 25 61.0715 25 61.0715 25C61.0715 25 61.0715 25 61.0715 25C61.0715 25 61.0715 25 61.0715 25C61.0715 25 61.0715 25 61.0715 25V31C61.0715 31 61.0715 31 61.0715 31C61.0715 31 61.0715 31 61.0715 31C61.0715 31 61.0715 31 61.0715 31C61.0715 31 61.0715 31 61.0715 31C61.0715 31 61.0715 31 61.0715 31C61.0715 31 61.0715 31 61.0715 31C61.0715 31 61.0715 31 61.0716 31C61.0716 31 61.0716 31 61.0716 31C61.0716 31 61.0716 31 61.0716 31C61.0716 31 61.0716 31 61.0716 31C61.0716 31 61.0716 31 61.0716 31C61.0716 31 61.0716 31 61.0716 31C61.0716 31 61.0716 31 61.0716 31C61.0716 31 61.0716 31 61.0716 31C61.0716 31 61.0716 31 61.0716 31C61.0717 31 61.0717 31 61.0717 31C61.0717 31 61.0717 31 61.0717 31C61.0717 31 61.0717 31 61.0717 31C61.0717 31 61.0717 31 61.0717 31C61.0717 31 61.0717 31 61.0717 31C61.0717 31 61.0717 31 61.0717 31C61.0717 31 61.0717 31 61.0717 31C61.0717 31 61.0717 31 61.0717 31C61.0718 31 61.0718 31 61.0718 31C61.0718 31 61.0718 31 61.0718 31C61.0718 31 61.0718 31 61.0718 31C61.0718 31 61.0718 31 61.0718 31C61.0718 31 61.0718 31 61.0718 31C61.0718 31 61.0718 31 61.0718 31C61.0718 31 61.0718 31 61.0718 31C61.0718 31 61.0718 31 61.0718 31C61.0718 31 61.0719 31 61.0719 31C61.0719 31 61.0719 31 61.0719 31C61.0719 31 61.0719 31 61.0719 31C61.0719 31 61.0719 31 61.0719 31C61.0719 31 61.0719 31 61.0719 31C61.0719 31 61.0719 31 61.0719 31C61.0719 31 61.0719 31 61.0719 31C61.0719 31 61.0719 31 61.0719 31C61.0719 31 61.072 31 61.072 31C61.072 31 61.072 31 61.072 31C61.072 31 61.072 31 61.072 31C61.072 31 61.072 31 61.072 31C61.072 31 61.072 31 61.072 31C61.072 31 61.072 31 61.072 31C61.072 31 61.072 31 61.072 31C61.072 31 61.072 31 61.072 31C61.072 31 61.072 31 61.0721 31C61.0721 31 61.0721 31 61.0721 31C61.0721 31 61.0721 31 61.0721 31C61.0721 31 61.0721 31 61.0721 31C61.0721 31 61.0721 31 61.0721 31C61.0721 31 61.0721 31 61.0721 31C61.0721 31 61.0721 31 61.0721 31C61.0721 31 61.0721 31 61.0721 31C61.0721 31 61.0721 31 61.0722 31C61.0722 31 61.0722 31 61.0722 31C61.0722 31 61.0722 31 61.0722 31C61.0722 31 61.0722 31 61.0722 31C61.0722 31 61.0722 31 61.0722 31C61.0722 31 61.0722 31 61.0722 31C61.0722 31 61.0722 31 61.0722 31C61.0722 31 61.0722 31 61.0722 31C61.0722 31 61.0722 31 61.0722 31C61.0723 31 61.0723 31 61.0723 31C61.0723 31 61.0723 31 61.0723 31C61.0723 31 61.0723 31 61.0723 31C61.0723 31 61.0723 31 61.0723 31C61.0723 31 61.0723 31 61.0723 31C61.0723 31 61.0723 31 61.0723 31C61.0723 31 61.0723 31 61.0723 31C61.0723 31 61.0723 31 61.0723 31C61.0723 31 61.0724 31 61.0724 31C61.0724 31 61.0724 31 61.0724 31C61.0724 31 61.0724 31 61.0724 31C61.0724 31 61.0724 31 61.0724 31C61.0724 31 61.0724 31 61.0724 31C61.0724 31 61.0724 31 61.0724 31C61.0724 31 61.0724 31 61.0724 31C61.0724 31 61.0724 31 61.0724 31C61.0724 31 61.0725 31 61.0725 31C61.0725 31 61.0725 31 61.0725 31C61.0725 31 61.0725 31 61.0725 31C61.0725 31 61.0725 31 61.0725 31C61.0725 31 61.0725 31 61.0725 31C61.0725 31 61.0725 31 61.0725 31C61.0725 31 61.0725 31 61.0725 31C61.0725 31 61.0725 31 61.0725 31C61.0725 31 61.0725 31 61.0726 31C61.0726 31 61.0726 31 61.0726 31C61.0726 31 61.0726 31 61.0726 31C61.0726 31 61.0726 31 61.0726 31C61.0726 31 61.0726 31 61.0726 31C61.0726 31 61.0726 31 61.0726 31C61.0726 31 61.0726 31 61.0726 31C61.0726 31 61.0726 31 61.0726 31C61.0726 31 61.0726 31 61.0727 31C61.0727 31 61.0727 31 61.0727 31C61.0727 31 61.0727 31 61.0727 31C61.0727 31 61.0727 31 61.0727 31C61.0727 31 61.0727 31 61.0727 31C61.0727 31 61.0727 31 61.0727 31C61.0727 31 61.0727 31 61.0727 31C61.0727 31 61.0727 31 61.0727 31C61.0727 31 61.0727 31 61.0727 31C61.0728 31 61.0728 31 61.0728 31C61.0728 31 61.0728 31 61.0728 31C61.0728 31 61.0728 31 61.0728 31C61.0728 31 61.0728 31 61.0728 31C61.0728 31 61.0728 31 61.0728 31C61.0728 31 61.0728 31 61.0728 31C61.0728 31 61.0728 31 61.0728 31C61.0728 31 61.0728 31 61.0728 31C61.0729 31 61.0729 31 61.0729 31C61.0729 31 61.0729 31 61.0729 31C61.0729 31 61.0729 31 61.0729 31C61.0729 31 61.0729 31 61.0729 31C61.0729 31 61.0729 31 61.0729 31C61.0729 31 61.0729 31 61.0729 31C61.0729 31 61.0729 31 61.0729 31C61.0729 31 61.0729 31 61.0729 31C61.0729 31 61.073 31 61.073 31C61.073 31 61.073 31 61.073 31C61.073 31 61.073 31 61.073 31C61.073 31 61.073 31 61.073 31C61.073 31 61.073 31 61.073 31C61.073 31 61.073 31 61.073 31C61.073 31 61.073 31 61.073 31C61.073 31 61.073 31 61.073 31C61.073 31 61.073 31 61.0731 31C61.0731 31 61.0731 31 61.0731 31C61.0731 31 61.0731 31 61.0731 31C61.0731 31 61.0731 31 61.0731 31C61.0731 31 61.0731 31 61.0731 31C61.0731 31 61.0731 31 61.0731 31C61.0731 31 61.0731 31 61.0731 31C61.0731 31 61.0731 31 61.0731 31C61.0731 31 61.0731 31 61.0732 31C61.0732 31 61.0732 31 61.0732 31C61.0732 31 61.0732 31 61.0732 31C61.0732 31 61.0732 31 61.0732 31C61.0732 31 61.0732 31 61.0732 31C61.0732 31 61.0732 31 61.0732 31C61.0732 31 61.0732 31 61.0732 31C61.0732 31 61.0732 31 61.0732 31C61.0732 31 61.0732 31 61.0732 31C61.0733 31 61.0733 31 61.0733 31C61.0733 31 61.0733 31 61.0733 31C61.0733 31 61.0733 31 61.0733 31C61.0733 31 61.0733 31 61.0733 31C61.0733 31 61.0733 31 61.0733 31C61.0733 31 61.0733 31 61.0733 31C61.0733 31 61.0733 31 61.0733 31C61.0733 31 61.0733 31 61.0733 31C61.0734 31 61.0734 31 61.0734 31C61.0734 31 61.0734 31 61.0734 31C61.0734 31 61.0734 31 61.0734 31C61.0734 31 61.0734 31 61.0734 31C61.0734 31 61.0734 31 61.0734 31C61.0734 31 61.0734 31 61.0734 31C61.0734 31 61.0734 31 61.0734 31C61.0734 31 61.0734 31 61.0734 31C61.0734 31 61.0735 31 61.0735 31C61.0735 31 61.0735 31 61.0735 31C61.0735 31 61.0735 31 61.0735 31C61.0735 31 61.0735 31 61.0735 31C61.0735 31 61.0735 31 61.0735 31C61.0735 31 61.0735 31 61.0735 31C61.0735 31 61.0735 31 61.0735 31C61.0735 31 61.0735 31 61.0735 31C61.0735 31 61.0736 31 61.0736 31C61.0736 31 61.0736 31 61.0736 31C61.0736 31 61.0736 31 61.0736 31C61.0736 31 61.0736 31 61.0736 31C61.0736 31 61.0736 31 61.0736 31C61.0736 31 61.0736 31 61.0736 31C61.0736 31 61.0736 31 61.0736 31C61.0736 31 61.0736 31 61.0736 31C61.0736 31 61.0736 31 61.0737 31C61.0737 31 61.0737 31 61.0737 31C61.0737 31 61.0737 31 61.0737 31C61.0737 31 61.0737 31 61.0737 31C61.0737 31 61.0737 31 61.0737 31C61.0737 31 61.0737 31 61.0737 31C61.0737 31 61.0737 31 61.0737 31C61.0737 31 61.0737 31 61.0737 31C61.0737 31 61.0737 31 61.0737 31C61.0738 31 61.0738 31 61.0738 31C61.0738 31 61.0738 31 61.0738 31C61.0738 31 61.0738 31 61.0738 31C61.0738 31 61.0738 31 61.0738 31C61.0738 31 61.0738 31 61.0738 31C61.0738 31 61.0738 31 61.0738 31C61.0738 31 61.0738 31 61.0738 31C61.0738 31 61.0738 31 61.0738 31C61.0739 31 61.0739 31 61.0739 31C61.0739 31 61.0739 31 61.0739 31C61.0739 31 61.0739 31 61.0739 31C61.0739 31 61.0739 31 61.0739 31C61.0739 31 61.0739 31 61.0739 31C61.0739 31 61.0739 31 61.0739 31C61.0739 31 61.0739 31 61.0739 31C61.0739 31 61.0739 31 61.0739 31C61.0739 31 61.074 31 61.074 31C61.074 31 61.074 31 61.074 31C61.074 31 61.074 31 61.074 31C61.074 31 61.074 31 61.074 31C61.074 31 61.074 31 61.074 31C61.074 31 61.074 31 61.074 31C61.074 31 61.074 31 61.074 31C61.074 31 61.074 31 61.074 31C61.074 31 61.0741 31 61.0741 31C61.0741 31 61.0741 31 61.0741 31C61.0741 31 61.0741 31 61.0741 31C61.0741 31 61.0741 31 61.0741 31C61.0741 31 61.0741 31 61.0741 31C61.0741 31 61.0741 31 61.0741 31C61.0741 31 61.0741 31 61.0741 31C61.0741 31 61.0741 31 61.0741 31C61.0741 31 61.0741 31 61.0742 31C61.0742 31 61.0742 31 61.0742 31C61.0742 31 61.0742 31 61.0742 31C61.0742 31 61.0742 31 61.0742 31C61.0742 31 61.0742 31 61.0742 31C61.0742 31 61.0742 31 61.0742 31C61.0742 31 61.0742 31 61.0742 31C61.0742 31 61.0742 31 61.0742 31C61.0742 31 61.0742 31 61.0742 31C61.0743 31 61.0743 31 61.0743 31C61.0743 31 61.0743 31 61.0743 31C61.0743 31 61.0743 31 61.0743 31C61.0743 31 61.0743 31 61.0743 31C61.0743 31 61.0743 31 61.0743 31C61.0743 31 61.0743 31 61.0743 31C61.0743 31 61.0743 31 61.0743 31C61.0743 31 61.0743 31 61.0743 31C61.0744 31 61.0744 31 61.0744 31C61.0744 31 61.0744 31 61.0744 31C61.0744 31 61.0744 31 61.0744 31C61.0744 31 61.0744 31 61.0744 31C61.0744 31 61.0744 31 61.0744 31C61.0744 31 61.0744 31 61.0744 31C61.0744 31 61.0744 31 61.0744 31C61.0744 31 61.0744 31 61.0744 31C61.0744 31 61.0745 31 61.0745 31C61.0745 31 61.0745 31 61.0745 31C61.0745 31 61.0745 31 61.0745 31C61.0745 31 61.0745 31 61.0745 31C61.0745 31 61.0745 31 61.0745 31C61.0745 31 61.0745 31 61.0745 31C61.0745 31 61.0745 31 61.0745 31C61.0745 31 61.0745 31 61.0745 31C61.0745 31 61.0746 31 61.0746 31C61.0746 31 61.0746 31 61.0746 31C61.0746 31 61.0746 31 61.0746 31C61.0746 31 61.0746 31 61.0746 31C61.0746 31 61.0746 31 61.0746 31C61.0746 31 61.0746 31 61.0746 31C61.0746 31 61.0746 31 61.0746 31C61.0746 31 61.0746 31 61.0746 31C61.0746 31 61.0746 31 61.0747 31C61.0747 31 61.0747 31 61.0747 31C61.0747 31 61.0747 31 61.0747 31C61.0747 31 61.0747 31 61.0747 31C61.0747 31 61.0747 31 61.0747 31C61.0747 31 61.0747 31 61.0747 31C61.0747 31 61.0747 31 61.0747 31C61.0747 31 61.0747 31 61.0747 31C61.0747 31 61.0747 31 61.0747 31C61.0748 31 61.0748 31 61.0748 31C61.0748 31 61.0748 31 61.0748 31C61.0748 31 61.0748 31 61.0748 31C61.0748 31 61.0748 31 61.0748 31C61.0748 31 61.0748 31 61.0748 31C61.0748 31 61.0748 31 61.0748 31C61.0748 31 61.0748 31 61.0748 31C61.0748 31 61.0748 31 61.0748 31C61.0749 31 61.0749 31 61.0749 31C61.0749 31 61.0749 31 61.0749 31C61.0749 31 61.0749 31 61.0749 31C61.0749 31 61.0749 31 61.0749 31C61.0749 31 61.0749 31 61.0749 31C61.0749 31 61.0749 31 61.0749 31C61.0749 31 61.0749 31 61.0749 31C61.0749 31 61.0749 31 61.0749 31C61.0749 31 61.075 31 61.075 31C61.075 31 61.075 31 61.075 31C61.075 31 61.075 31 61.075 31C61.075 31 61.075 31 61.075 31C61.075 31 61.075 31 61.075 31C61.075 31 61.075 31 61.075 31C61.075 31 61.075 31 61.075 31C61.075 31 61.075 31 61.075 31C61.075 31 61.0751 31 61.0751 31C61.0751 31 61.0751 31 61.0751 31C61.0751 31 61.0751 31 61.0751 31C61.0751 31 61.0751 31 61.0751 31C61.0751 31 61.0751 31 61.0751 31C61.0751 31 61.0751 31 61.0751 31C61.0751 31 61.0751 31 61.0751 31C61.0751 31 61.0751 31 61.0751 31C61.0751 31 61.0751 31 61.0752 31C61.0752 31 61.0752 31 61.0752 31C61.0752 31 61.0752 31 61.0752 31C61.0752 31 61.0752 31 61.0752 31C61.0752 31 61.0752 31 61.0752 31C61.0752 31 61.0752 31 61.0752 31C61.0752 31 61.0752 31 61.0752 31C61.0752 31 61.0752 31 61.0752 31C61.0752 31 61.0752 31 61.0752 31C61.0753 31 61.0753 31 61.0753 31C61.0753 31 61.0753 31 61.0753 31C61.0753 31 61.0753 31 61.0753 31C61.0753 31 61.0753 31 61.0753 31C61.0753 31 61.0753 31 61.0753 31C61.0753 31 61.0753 31 61.0753 31C61.0753 31 61.0753 31 61.0753 31C61.0753 31 61.0753 31 61.0753 31C61.0754 31 61.0754 31 61.0754 31C61.0754 31 61.0754 31 61.0754 31C61.0754 31 61.0754 31 61.0754 31C61.0754 31 61.0754 31 61.0754 31C61.0754 31 61.0754 31 61.0754 31C61.0754 31 61.0754 31 61.0754 31C61.0754 31 61.0754 31 61.0754 31C61.0754 31 61.0754 31 61.0754 31C61.0754 31 61.0755 31 61.0755 31C61.0755 31 61.0755 31 61.0755 31C61.0755 31 61.0755 31 61.0755 31C61.0755 31 61.0755 31 61.0755 31C61.0755 31 61.0755 31 61.0755 31C61.0755 31 61.0755 31 61.0755 31C61.0755 31 61.0755 31 61.0755 31C61.0755 31 61.0755 31 61.0755 31C61.0755 31 61.0756 31 61.0756 31C61.0756 31 61.0756 31 61.0756 31C61.0756 31 61.0756 31 61.0756 31C61.0756 31 61.0756 31 61.0756 31C61.0756 31 61.0756 31 61.0756 31C61.0756 31 61.0756 31 61.0756 31C61.0756 31 61.0756 31 61.0756 31C61.0756 31 61.0756 31 61.0756 31C61.0756 31 61.0756 31 61.0757 31C61.0757 31 61.0757 31 61.0757 31C61.0757 31 61.0757 31 61.0757 31C61.0757 31 61.0757 31 61.0757 31C61.0757 31 61.0757 31 61.0757 31C61.0757 31 61.0757 31 61.0757 31C61.0757 31 61.0757 31 61.0757 31C61.0757 31 61.0757 31 61.0757 31C61.0757 31 61.0757 31 61.0757 31C61.0758 31 61.0758 31 61.0758 31C61.0758 31 61.0758 31 61.0758 31C61.0758 31 61.0758 31 61.0758 31C61.0758 31 61.0758 31 61.0758 31C61.0758 31 61.0758 31 61.0758 31C61.0758 31 61.0758 31 61.0758 31C61.0758 31 61.0758 31 61.0758 31C61.0758 31 61.0758 31 61.0758 31C61.0759 31 61.0759 31 61.0759 31C61.0759 31 61.0759 31 61.0759 31C61.0759 31 61.0759 31 61.0759 31C61.0759 31 61.0759 31 61.0759 31C61.0759 31 61.0759 31 61.0759 31C61.0759 31 61.0759 31 61.0759 31C61.0759 31 61.0759 31 61.0759 31C61.0759 31 61.0759 31 61.0759 31C61.0759 31 61.076 31 61.076 31C61.076 31 61.076 31 61.076 31C61.076 31 61.076 31 61.076 31C61.076 31 61.076 31 61.076 31C61.076 31 61.076 31 61.076 31C61.076 31 61.076 31 61.076 31C61.076 31 61.076 31 61.076 31C61.076 31 61.076 31 61.076 31C61.076 31 61.0761 31 61.0761 31C61.0761 31 61.0761 31 61.0761 31C61.0761 31 61.0761 31 61.0761 31C61.0761 31 61.0761 31 61.0761 31C61.0761 31 61.0761 31 61.0761 31C61.0761 31 61.0761 31 61.0761 31C61.0761 31 61.0761 31 61.0761 31C61.0761 31 61.0761 31 61.0761 31C61.0761 31 61.0761 31 61.0762 31C61.0762 31 61.0762 31 61.0762 31C61.0762 31 61.0762 31 61.0762 31C61.0762 31 61.0762 31 61.0762 31C61.0762 31 61.0762 31 61.0762 31C61.0762 31 61.0762 31 61.0762 31C61.0762 31 61.0762 31 61.0762 31C61.0762 31 61.0762 31 61.0762 31C61.0762 31 61.0762 31 61.0762 31C61.0763 31 61.0763 31 61.0763 31C61.0763 31 61.0763 31 61.0763 31C61.0763 31 61.0763 31 61.0763 31C61.0763 31 61.0763 31 61.0763 31C61.0763 31 61.0763 31 61.0763 31C61.0763 31 61.0763 31 61.0763 31C61.0763 31 61.0763 31 61.0763 31C61.0763 31 61.0763 31 61.0763 31C61.0764 31 61.0764 31 61.0764 31C61.0764 31 61.0764 31 61.0764 31C61.0764 31 61.0764 31 61.0764 31C61.0764 31 61.0764 31 61.0764 31C61.0764 31 61.0764 31 61.0764 31C61.0764 31 61.0764 31 61.0764 31C61.0764 31 61.0764 31 61.0764 31C61.0764 31 61.0764 31 61.0764 31C61.0764 31 61.0765 31 61.0765 31C61.0765 31 61.0765 31 61.0765 31C61.0765 31 61.0765 31 61.0765 31C61.0765 31 61.0765 31 61.0765 31C61.0765 31 61.0765 31 61.0765 31C61.0765 31 61.0765 31 61.0765 31C61.0765 31 61.0765 31 61.0765 31C61.0765 31 61.0765 31 61.0765 31C61.0765 31 61.0766 31 61.0766 31C61.0766 31 61.0766 31 61.0766 31C61.0766 31 61.0766 31 61.0766 31C61.0766 31 61.0766 31 61.0766 31C61.0766 31 61.0766 31 61.0766 31C61.0766 31 61.0766 31 61.0766 31C61.0766 31 61.0766 31 61.0766 31C61.0766 31 61.0766 31 61.0766 31C61.0766 31 61.0766 31 61.0767 31C61.0767 31 61.0767 31 61.0767 31C61.0767 31 61.0767 31 61.0767 31C61.0767 31 61.0767 31 61.0767 31C61.0767 31 61.0767 31 61.0767 31C61.0767 31 61.0767 31 61.0767 31C61.0767 31 61.0767 31 61.0767 31C61.0767 31 61.0767 31 61.0767 31C61.0767 31 61.0767 31 61.0767 31C61.0768 31 61.0768 31 61.0768 31C61.0768 31 61.0768 31 61.0768 31C61.0768 31 61.0768 31 61.0768 31C61.0768 31 61.0768 31 61.0768 31C61.0768 31 61.0768 31 61.0768 31C61.0768 31 61.0768 31 61.0768 31C61.0768 31 61.0768 31 61.0768 31C61.0768 31 61.0768 31 61.0768 31C61.0769 31 61.0769 31 61.0769 31C61.0769 31 61.0769 31 61.0769 31C61.0769 31 61.0769 31 61.0769 31C61.0769 31 61.0769 31 61.0769 31C61.0769 31 61.0769 31 61.0769 31C61.0769 31 61.0769 31 61.0769 31C61.0769 31 61.0769 31 61.0769 31C61.0769 31 61.0769 31 61.0769 31C61.0769 31 61.077 31 61.077 31C61.077 31 61.077 31 61.077 31C61.077 31 61.077 31 61.077 31C61.077 31 61.077 31 61.077 31C61.077 31 61.077 31 61.077 31C61.077 31 61.077 31 61.077 31C61.077 31 61.077 31 61.077 31C61.077 31 61.077 31 61.077 31C61.077 31 61.0771 31 61.0771 31C61.0771 31 61.0771 31 61.0771 31C61.0771 31 61.0771 31 61.0771 31C61.0771 31 61.0771 31 61.0771 31C61.0771 31 61.0771 31 61.0771 31C61.0771 31 61.0771 31 61.0771 31C61.0771 31 61.0771 31 61.0771 31C61.0771 31 61.0771 31 61.0771 31C61.0771 31 61.0771 31 61.0772 31C61.0772 31 61.0772 31 61.0772 31C61.0772 31 61.0772 31 61.0772 31C61.0772 31 61.0772 31 61.0772 31C61.0772 31 61.0772 31 61.0772 31C61.0772 31 61.0772 31 61.0772 31C61.0772 31 61.0772 31 61.0772 31C61.0772 31 61.0772 31 61.0772 31C61.0772 31 61.0772 31 61.0772 31C61.0773 31 61.0773 31 61.0773 31C61.0773 31 61.0773 31 61.0773 31C61.0773 31 61.0773 31 61.0773 31C61.0773 31 61.0773 31 61.0773 31C61.0773 31 61.0773 31 61.0773 31C61.0773 31 61.0773 31 61.0773 31C61.0773 31 61.0773 31 61.0773 31C61.0773 31 61.0773 31 61.0773 31C61.0774 31 61.0774 31 61.0774 31C61.0774 31 61.0774 31 61.0774 31C61.0774 31 61.0774 31 61.0774 31C61.0774 31 61.0774 31 61.0774 31C61.0774 31 61.0774 31 61.0774 31C61.0774 31 61.0774 31 61.0774 31C61.0774 31 61.0774 31 61.0774 31C61.0774 31 61.0774 31 61.0774 31C61.0774 31 61.0775 31 61.0775 31C61.0775 31 61.0775 31 61.0775 31C61.0775 31 61.0775 31 61.0775 31C61.0775 31 61.0775 31 61.0775 31C61.0775 31 61.0775 31 61.0775 31C61.0775 31 61.0775 31 61.0775 31C61.0775 31 61.0775 31 61.0775 31C61.0775 31 61.0775 31 61.0775 31C61.0775 31 61.0776 31 61.0776 31C61.0776 31 61.0776 31 61.0776 31C61.0776 31 61.0776 31 61.0776 31C61.0776 31 61.0776 31 61.0776 31C61.0776 31 61.0776 31 61.0776 31C61.0776 31 61.0776 31 61.0776 31C61.0776 31 61.0776 31 61.0776 31C61.0776 31 61.0776 31 61.0776 31C61.0776 31 61.0776 31 61.0777 31C61.0777 31 61.0777 31 61.0777 31C61.0777 31 61.0777 31 61.0777 31C61.0777 31 61.0777 31 61.0777 31C61.0777 31 61.0777 31 61.0777 31C61.0777 31 61.0777 31 61.0777 31V25ZM61.0715 25H57.06V31H61.0715V25ZM54.06 28V29H60.06V28H54.06ZM57.06 32H58.063V26H57.06V32ZM58.063 32H61.0715V26H58.063V32Z" fill="#FAAC48" mask="url(#path-1-outside-1)"/>
<path d="M49.0408 85.5805C48.152 85.5805 46.7954 85.2544 46.0469 85.0215C45.2985 84.7885 44.6904 82.0865 44.6904 82.0865C42.7257 74.4462 40.0664 63.2041 40.0058 56.427C39.9938 55.0839 40.0058 29 40.0058 29H41.51H58.0573V56.427C58.0573 63.427 54.9349 74.4462 52.9702 82.0865C52.9702 82.0865 52.362 84.7885 51.6136 85.0215C50.8651 85.2544 49.5086 85.5805 48.6198 85.5805" fill="#868CA6"/>
<path opacity="0.7" d="M48.9863 84.6415C48.191 84.6415 46.9748 84.362 46.3199 84.1291C45.665 83.9427 45.1036 81.4736 45.1036 81.4736C43.3261 74.6253 41.5231 64.5288 41.0085 58.5191C41.0085 55.427 41.0085 32.6166 41.0085 32.6166V30.427H57.0543C57.0543 30.427 57.335 55.3512 57.0543 58.5191C56.5397 64.5288 54.319 74.5787 52.5414 81.427C52.5414 81.427 51.9801 83.8495 51.3252 84.0825C50.6703 84.2688 49.454 84.5949 48.6588 84.5949" fill="#C0C3D2"/>
<rect x="38" y="29" width="23.0657" height="2" fill="#868CA6"/>
<path opacity="0.7" d="M48.9863 84.6415C48.191 84.6415 46.9748 84.3619 46.3199 84.129C45.665 83.9427 45.1036 81.4735 45.1036 81.4735C43.3261 74.6252 41.5231 64.5288 41.0085 58.519V55H49.5H57.0543V58.519C56.5397 64.5288 54.319 74.5786 52.5414 81.4269C52.5414 81.4269 51.9801 83.8495 51.3252 84.0824C50.6703 84.2688 49.454 84.5949 48.6588 84.5949" fill="#99DFF9"/>
<rect x="40.0057" y="37.427" width="18.0515" height="16" fill="white"/>
<path d="M53.0429 31H58.0572C58.0572 31 58.0572 54.5636 58.0572 57.5091C58.0572 60.4545 56.0515 69.7818 56.0515 69.7818C56.0515 69.7818 52.2595 84.2943 52.0401 84.5091C51.8207 84.7239 49.0315 85 49.0315 85L53.0429 57.5091V31Z" fill="black" fill-opacity="0.1"/>
<rect x="35.9943" y="26" width="26.0743" height="2" fill="#868CA6"/>
<rect x="41.0085" y="28" width="16.0457" height="1" fill="#577898"/>
<path fill-rule="evenodd" clip-rule="evenodd" d="M64.749 27.123C64.9999 27.5453 65.0771 28.0262 65.0771 28.5C65.0771 28.9738 64.9999 29.4547 64.749 29.877C64.4837 30.3234 64.0915 30.5928 63.6742 30.7488C63.2836 30.8949 62.8525 30.9492 62.4445 30.9746C62.037 31 61.5719 31 61.0884 31H61.0657V29C61.5769 29 61.9811 28.9996 62.3194 28.9785C62.6635 28.9571 62.8592 28.9176 62.97 28.8762C62.9942 28.8671 63.0103 28.8594 63.0202 28.854C63.0229 28.8526 63.0252 28.8513 63.027 28.8502C63.028 28.8479 63.0292 28.8449 63.0306 28.8413C63.035 28.8297 63.0412 28.8107 63.0473 28.7824C63.06 28.7243 63.0714 28.6339 63.0714 28.5C63.0714 28.3661 63.06 28.2757 63.0473 28.2176C63.0412 28.1893 63.035 28.1703 63.0306 28.1587C63.0292 28.1551 63.028 28.1521 63.027 28.1498C63.0252 28.1487 63.0229 28.1474 63.0202 28.146C63.0103 28.1406 62.9942 28.1329 62.97 28.1238C62.8591 28.0824 62.6635 28.0429 62.3194 28.0215C61.9811 28.0004 61.5769 28 61.0657 28L61.0657 26L61.0884 26C61.5719 26 62.037 26 62.4445 26.0254C62.8525 26.0508 63.2836 26.1051 63.6742 26.2512C64.0915 26.4072 64.4837 26.6766 64.749 27.123Z" fill="#868CA6"/>
<path d="M44.541 49.746C45.864 49.746 46.521 49.134 46.521 47.901V43.356H45.846L45.81 44.076C45.423 43.509 44.928 43.248 44.262 43.248C43.182 43.248 42.552 43.914 42.552 45.183V45.912C42.552 47.181 43.182 47.847 44.262 47.847C44.883 47.847 45.351 47.622 45.729 47.136V47.901C45.729 48.711 45.351 49.062 44.523 49.062C43.875 49.062 43.434 48.846 43.389 48.306H42.651C42.714 49.26 43.362 49.746 44.541 49.746ZM44.361 47.154C43.722 47.154 43.344 46.713 43.344 45.885V45.21C43.344 44.382 43.722 43.941 44.361 43.941C44.946 43.941 45.423 44.319 45.729 44.976V46.119C45.423 46.776 44.946 47.154 44.361 47.154Z" fill="black"/>
<path d="M47.3495 48H48.1865L48.7445 46.434H51.2105L51.7685 48H52.6325L50.4005 41.88H49.5815L47.3495 48ZM49.0055 45.696L49.9775 42.915L50.9495 45.696H49.0055Z" fill="black"/>
<path d="M52.9358 45.75H55.6538V44.967H52.9358V45.75Z" fill="black"/>
</svg>
