<svg width="98" height="134" viewBox="0 0 98 134" fill="none" xmlns="http://www.w3.org/2000/svg">
<path d="M49.0408 85.5805C48.152 85.5805 46.7954 85.2544 46.0469 85.0215C45.2985 84.7885 44.6904 82.0865 44.6904 82.0865C42.7257 74.4462 40.0664 63.2041 40.0058 56.427C39.9938 55.0839 40.0058 29 40.0058 29H41.51H58.0573V56.427C58.0573 63.427 54.9349 74.4462 52.9702 82.0865C52.9702 82.0865 52.362 84.7885 51.6136 85.0215C50.8651 85.2544 49.5086 85.5805 48.6198 85.5805" fill="#99B2C4"/>
<path opacity="0.7" d="M48.9863 84.6415C48.191 84.6415 46.9748 84.362 46.3199 84.1291C45.665 83.9427 45.1036 81.4736 45.1036 81.4736C43.3261 74.6253 41.5231 64.5288 41.0085 58.5191C41.0085 55.427 41.0085 32.6166 41.0085 32.6166V30.427H57.0543C57.0543 30.427 57.335 55.3512 57.0543 58.5191C56.5397 64.5288 54.319 74.5787 52.5414 81.427C52.5414 81.427 51.9801 83.8495 51.3252 84.0825C50.6703 84.2688 49.454 84.5949 48.6588 84.5949" fill="#99B2C4"/>
<rect x="38" y="29" width="23.0657" height="2" fill="#99B2C4"/>
<path opacity="0.7" d="M48.9863 84.6415C48.191 84.6415 46.9748 84.3619 46.3199 84.129C45.665 83.9427 45.1036 81.4735 45.1036 81.4735C43.3261 74.6252 41.5231 64.5288 41.0085 58.519V55H49.5H57.0543V58.519C56.5397 64.5288 54.319 74.5786 52.5414 81.4269C52.5414 81.4269 51.9801 83.8495 51.3252 84.0824C50.6703 84.2688 49.454 84.5949 48.6588 84.5949" fill="#99B2C4"/>
<rect x="40.0057" y="37.427" width="18.0515" height="16" fill="#99B2C4"/>
<path d="M53.0429 31H58.0572C58.0572 31 58.0572 54.5636 58.0572 57.5091C58.0572 60.4545 56.0515 69.7818 56.0515 69.7818C56.0515 69.7818 52.2595 84.2943 52.0401 84.5091C51.8207 84.7239 49.0315 85 49.0315 85L53.0429 57.5091V31Z" fill="#99B2C4"/>
<rect x="35.9943" y="26" width="26.0743" height="2" fill="#99B2C4"/>
<rect x="41.0085" y="28" width="16.0457" height="1" fill="#99B2C4"/>
<path fill-rule="evenodd" clip-rule="evenodd" d="M64.749 27.123C64.9999 27.5453 65.0771 28.0262 65.0771 28.5C65.0771 28.9738 64.9999 29.4547 64.749 29.877C64.4837 30.3234 64.0915 30.5928 63.6742 30.7488C63.2836 30.8949 62.8525 30.9492 62.4445 30.9746C62.037 31 61.5719 31 61.0884 31H61.0657V29C61.5769 29 61.9811 28.9996 62.3194 28.9785C62.6635 28.9571 62.8592 28.9176 62.97 28.8762C62.9942 28.8671 63.0103 28.8594 63.0202 28.854C63.0229 28.8526 63.0252 28.8513 63.027 28.8502C63.028 28.8479 63.0292 28.8449 63.0306 28.8413C63.035 28.8297 63.0412 28.8107 63.0473 28.7824C63.06 28.7243 63.0714 28.6339 63.0714 28.5C63.0714 28.3661 63.06 28.2757 63.0473 28.2176C63.0412 28.1893 63.035 28.1703 63.0306 28.1587C63.0292 28.1551 63.028 28.1521 63.027 28.1498C63.0252 28.1487 63.0229 28.1474 63.0202 28.146C63.0103 28.1406 62.9942 28.1329 62.97 28.1238C62.8591 28.0824 62.6635 28.0429 62.3194 28.0215C61.9811 28.0004 61.5769 28 61.0657 28L61.0657 26L61.0884 26C61.5719 26 62.037 26 62.4445 26.0254C62.8525 26.0508 63.2836 26.1051 63.6742 26.2512C64.0915 26.4072 64.4837 26.6766 64.749 27.123Z" fill="#99B2C4"/>
<path d="M44.5937 49.746C45.9167 49.746 46.5737 49.134 46.5737 47.901V43.356H45.8987L45.8627 44.076C45.4757 43.509 44.9807 43.248 44.3147 43.248C43.2347 43.248 42.6047 43.914 42.6047 45.183V45.912C42.6047 47.181 43.2347 47.847 44.3147 47.847C44.9357 47.847 45.4037 47.622 45.7817 47.136V47.901C45.7817 48.711 45.4037 49.062 44.5757 49.062C43.9277 49.062 43.4867 48.846 43.4417 48.306H42.7037C42.7667 49.26 43.4147 49.746 44.5937 49.746ZM44.4137 47.154C43.7747 47.154 43.3967 46.713 43.3967 45.885V45.21C43.3967 44.382 43.7747 43.941 44.4137 43.941C44.9987 43.941 45.4757 44.319 45.7817 44.976V46.119C45.4757 46.776 44.9987 47.154 44.4137 47.154Z" fill="#99B2C4"/>
<path d="M48.1492 48H48.9592V46.236L50.0662 45.003L51.8842 48H52.8292L50.6242 44.382L52.8022 41.88H51.8032L48.9592 45.129V41.88H48.1492V48Z" fill="#99B2C4"/>
<path d="M52.8831 45.75H55.6011V44.967H52.8831V45.75Z" fill="#99B2C4"/>
</svg>
