<svg width="403" height="359" viewBox="0 0 403 359" fill="none" xmlns="http://www.w3.org/2000/svg">
<g clip-path="url(#clip0)">
<path d="M387.867 265.864H11.084C7.06399 265.864 3.7749 269.142 3.7749 273.148V288.445C3.7749 292.451 7.06399 295.729 11.084 295.729H33.3767C34.4731 295.729 35.5694 295.364 36.3003 295L60.0549 284.074C61.1513 283.71 61.8822 283.346 62.9785 283.346H326.106C326.837 283.346 327.933 283.346 328.664 283.71L356.804 294.636C357.535 295 358.631 295 359.362 295H387.502C391.522 295 394.811 291.722 394.811 287.716V272.42C395.177 269.142 391.887 265.864 387.867 265.864Z" fill="#9FE1D5"/>
<path d="M162.747 153.728H159.824C150.322 153.728 142.647 146.08 142.647 136.611V76.8828H162.747V153.728Z" fill="#7CBEB3"/>
<g filter="url(#filter0_d)">
<path d="M388.762 276.79H13.1938C5.80433 276.79 0.120117 272.434 0.120117 266.931V199.753C0.120117 194.709 5.23591 190.582 12.0569 190.123C80.8359 185.309 75.278 182.099 161.962 182.099C246.373 182.099 322.825 185.309 390.183 190.123C397.004 190.582 402.12 194.709 402.12 199.753V266.931C402.12 272.434 396.152 276.79 388.762 276.79Z" fill="#F0F8FA"/>
</g>
<path d="M388.762 211.235H13.1938C5.80433 211.235 0.120117 210.397 0.120117 209.339V196.42C0.120117 195.45 5.23591 194.656 12.0569 194.568C80.8359 193.642 75.278 193.025 161.962 193.025C246.373 193.025 322.825 193.642 390.183 194.568C397.004 194.656 402.12 195.45 402.12 196.42V209.339C402.12 210.397 396.152 211.235 388.762 211.235Z" fill="#E2EBED"/>
<path d="M402.092 194.896C402.579 199.967 396.732 203.951 388.45 203.951H13.7882C5.99294 203.951 -0.34074 199.604 0.146467 194.896C8.91619 133.323 17.1987 103.986 25.9684 42.4133C27.43 32.272 37.6613 23.5793 52.7647 19.233C53.7392 18.8708 55.2008 18.5083 56.1752 18.5083C90.7668 9.45356 143.385 -0.687708 208.184 0.0366748C266.648 0.761058 313.907 9.81575 346.063 18.5083C347.037 18.8705 348.499 19.2329 349.473 19.5951C364.577 23.5792 374.321 32.6341 375.783 42.7754L402.092 194.896Z" fill="white"/>
<path d="M203.372 16.8139C238.644 17.1069 267.156 21.7936 286.556 25.8946C267.156 18.8644 238.35 11.5412 203.372 10.9554C164.278 10.3695 132.533 18.5714 111.663 25.8946C132.533 21.5007 164.278 16.521 203.372 16.8139Z" fill="#F2F2F2"/>
<path d="M299.793 36.5898C273.545 30.7777 240.006 25.4941 201.12 25.4941C162.234 25.4941 128.695 30.7777 102.447 36.5898C102.447 66.7069 102.447 97.3522 102.447 127.469H299.793V36.5898Z" fill="#003F52"/>
<path d="M296.138 36.4199V123.827H102.447C102.447 125.92 102.447 125.376 102.447 127.469H299.793V37.4664C298.334 37.4664 297.596 36.9431 296.138 36.4199Z" fill="black"/>
<g opacity="0.6">
<path opacity="0.2" d="M208.409 123.827H143.122L169.365 25.4941H234.011L208.409 123.827Z" fill="white"/>
<path opacity="0.2" d="M134.801 123.827H120.72L146.322 25.4941H160.404L134.801 123.827Z" fill="white"/>
</g>
<path d="M53.2215 193.024H54.581V186.622H57.0149V185.376H50.7876V186.622H53.2215V193.024Z" fill="black"/>
<path d="M58.5217 193.024H59.8703V185.376H58.5217V193.024Z" fill="black"/>
<path d="M61.9248 193.024H63.2514V187.561L65.6524 191.145H65.6963L68.1192 187.54V193.024H69.4678V185.376H68.0315L65.6963 188.993L63.361 185.376H61.9248V193.024Z" fill="black"/>
<path d="M71.4429 193.024H77.1878V191.823H72.7914V189.768H76.6397V188.567H72.7914V186.578H77.133V185.376H71.4429V193.024Z" fill="black"/>
<path d="M315.175 193.079H316.359L319.55 185.377H318.091L315.789 191.255L313.476 185.377H311.985L315.175 193.079Z" fill="black"/>
<path d="M324.056 193.156C326.413 193.156 328.08 191.353 328.08 189.201V189.179C328.08 187.027 326.435 185.246 324.078 185.246C321.721 185.246 320.054 187.048 320.054 189.201V189.223C320.054 191.375 321.699 193.156 324.056 193.156ZM324.078 191.921C322.554 191.921 321.469 190.687 321.469 189.201V189.179C321.469 187.693 322.532 186.48 324.056 186.48C325.58 186.48 326.665 187.715 326.665 189.201V189.223C326.665 190.709 325.602 191.921 324.078 191.921Z" fill="black"/>
<path d="M329.709 193.025H335.092V191.801H331.058V185.377H329.709V193.025Z" fill="black"/>
<path d="M337.291 193.025H338.65V186.622H341.084V185.377H334.857V186.622H337.291V193.025Z" fill="black"/>
<path d="M340.871 193.025H342.253L343.042 191.178H346.671L347.45 193.025H348.875L345.498 185.322H344.248L340.871 193.025ZM343.536 189.987L344.851 186.928L346.178 189.987H343.536Z" fill="black"/>
<path d="M353.36 193.156C354.719 193.156 355.805 192.61 356.561 191.965V188.753H353.294V189.922H355.256V191.353C354.785 191.703 354.127 191.932 353.404 191.932C351.836 191.932 350.794 190.774 350.794 189.201V189.179C350.794 187.715 351.869 186.48 353.283 186.48C354.259 186.48 354.84 186.797 355.432 187.3L356.287 186.284C355.498 185.617 354.675 185.246 353.338 185.246C351.024 185.246 349.38 187.059 349.38 189.201V189.223C349.38 191.452 350.959 193.156 353.36 193.156Z" fill="black"/>
<path d="M358.317 193.025H364.062V191.823H359.666V189.769H363.514V188.567H359.666V186.579H364.007V185.377H358.317V193.025Z" fill="black"/>
<path d="M268.73 266.472C282.185 266.472 293.093 255.601 293.093 242.192C293.093 228.783 282.185 217.912 268.73 217.912C255.274 217.912 244.366 228.783 244.366 242.192C244.366 255.601 255.274 266.472 268.73 266.472Z" fill="black"/>
<path fill-rule="evenodd" clip-rule="evenodd" d="M268.729 220.946C256.956 220.946 247.411 230.458 247.411 242.191C247.411 253.924 256.956 263.436 268.729 263.436C280.503 263.436 290.047 253.924 290.047 242.191C290.047 230.458 280.503 220.946 268.729 220.946ZM241.32 242.191C241.32 227.106 253.592 214.876 268.729 214.876C283.867 214.876 296.138 227.106 296.138 242.191C296.138 257.277 283.867 269.506 268.729 269.506C253.592 269.506 241.32 257.277 241.32 242.191Z" fill="#C1272D"/>
<path d="M133.511 266.471C146.967 266.471 157.874 255.601 157.874 242.191C157.874 228.782 146.967 217.911 133.511 217.911C120.055 217.911 109.147 228.782 109.147 242.191C109.147 255.601 120.055 266.471 133.511 266.471Z" fill="black"/>
<path fill-rule="evenodd" clip-rule="evenodd" d="M133.511 220.946C121.737 220.946 112.193 230.458 112.193 242.191C112.193 253.924 121.737 263.436 133.511 263.436C145.285 263.436 154.829 253.924 154.829 242.191C154.829 230.458 145.285 220.946 133.511 220.946ZM106.102 242.191C106.102 227.106 118.373 214.876 133.511 214.876C148.649 214.876 160.92 227.106 160.92 242.191C160.92 257.277 148.649 269.506 133.511 269.506C118.373 269.506 106.102 257.277 106.102 242.191Z" fill="#444444"/>
<path fill-rule="evenodd" clip-rule="evenodd" d="M191.525 250.205L200.749 234.533L209.972 250.205H191.525ZM200.119 233.446C200.401 232.967 201.096 232.967 201.378 233.446L211.239 250.2C211.525 250.686 211.174 251.296 210.61 251.296H190.887C190.323 251.296 189.972 250.686 190.258 250.2L200.119 233.446ZM199.835 238.743H201.661L199.47 243.473L202.391 241.836L200.748 248.022L201.661 247.476L199.835 249.841L199.47 246.93L200.018 247.658L200.748 243.473L198.01 245.111L199.835 238.743Z" fill="black"/>
<path d="M135.125 191.892L134.742 191.521C133.963 192.286 133.207 192.712 132.099 192.712C130.268 192.712 128.854 191.204 128.854 189.27V189.248C128.854 187.325 130.247 185.828 132.088 185.828C133.24 185.828 134.007 186.309 134.676 186.954L135.081 186.539C134.292 185.818 133.47 185.315 132.099 185.315C129.885 185.315 128.262 187.107 128.262 189.27V189.292C128.262 191.488 129.885 193.225 132.077 193.225C133.437 193.225 134.314 192.69 135.125 191.892Z" fill="black"/>
<path d="M142.869 189.849V185.446H142.299V189.915C142.299 191.761 141.301 192.701 139.744 192.701C138.121 192.701 137.146 191.663 137.146 189.86V185.446H136.576V189.915C136.576 192.056 137.88 193.214 139.722 193.214C141.586 193.214 142.869 192.045 142.869 189.849Z" fill="black"/>
<path d="M151.275 193.094L148.743 189.827C150.036 189.653 150.99 188.92 150.99 187.642V187.62C150.99 186.342 149.905 185.446 148.249 185.446H145.026V193.094H145.596V189.926H148.107L150.552 193.094H151.275ZM150.42 187.664C150.42 188.768 149.466 189.412 148.184 189.412H145.596V185.97H148.216C149.609 185.97 150.42 186.615 150.42 187.642V187.664Z" fill="black"/>
<path d="M159.198 193.094L156.666 189.827C157.959 189.653 158.913 188.92 158.913 187.642V187.62C158.913 186.342 157.828 185.446 156.172 185.446H152.949V193.094H153.519V189.926H156.03L158.475 193.094H159.198ZM158.343 187.664C158.343 188.768 157.389 189.412 156.106 189.412H153.519V185.97H156.139C157.532 185.97 158.343 186.615 158.343 187.642V187.664Z" fill="black"/>
<path d="M166.387 193.094V192.57H161.442V189.5H165.838V188.975H161.442V185.97H166.332V185.446H160.872V193.094H166.387Z" fill="black"/>
<path d="M174.598 193.094V185.446H174.049V192.1L168.754 185.446H168.217V193.094H168.765V186.298L174.17 193.094H174.598Z" fill="black"/>
<path d="M182.251 185.97V185.446H176.33V185.97H179.005V193.094H179.575V185.97H182.251Z" fill="black"/>
<path fill-rule="evenodd" clip-rule="evenodd" d="M135.647 191.89L135.382 192.151C134.525 192.994 133.56 193.589 132.077 193.589C129.667 193.589 127.896 191.673 127.896 189.292V189.27C127.896 186.924 129.664 184.95 132.099 184.95C133.588 184.95 134.495 185.508 135.328 186.27L135.606 186.523L134.683 187.468L134.421 187.215C133.795 186.611 133.114 186.192 132.088 186.192C130.47 186.192 129.219 187.504 129.219 189.248V189.27C129.219 191.025 130.492 192.347 132.099 192.347C133.083 192.347 133.752 191.981 134.485 191.261L134.739 191.011L135.647 191.89ZM134.676 186.954C134.007 186.309 133.239 185.828 132.088 185.828C130.246 185.828 128.854 187.325 128.854 189.248V189.27C128.854 191.204 130.268 192.711 132.099 192.711C133.206 192.711 133.963 192.285 134.741 191.521L135.125 191.892C135.037 191.978 134.948 192.062 134.858 192.142C134.118 192.799 133.289 193.225 132.077 193.225C129.884 193.225 128.262 191.488 128.262 189.292V189.27C128.262 187.106 129.884 185.315 132.099 185.315C133.311 185.315 134.095 185.708 134.806 186.298C134.899 186.375 134.99 186.455 135.081 186.538L134.676 186.954ZM143.234 185.082V189.849C143.234 191.017 142.891 191.959 142.256 192.609C141.62 193.26 140.731 193.578 139.722 193.578C138.724 193.578 137.837 193.263 137.199 192.624C136.56 191.985 136.21 191.06 136.21 189.914V185.082H137.511V189.86C137.511 190.698 137.737 191.311 138.105 191.71C138.47 192.105 139.013 192.336 139.744 192.336C140.448 192.336 140.981 192.126 141.34 191.749C141.701 191.37 141.933 190.775 141.933 189.914V185.082H143.234ZM142.298 189.914C142.298 191.761 141.301 192.701 139.744 192.701C138.121 192.701 137.145 191.663 137.145 189.86V185.446H136.575V189.914C136.575 192.056 137.88 193.214 139.722 193.214C141.586 193.214 142.868 192.045 142.868 189.849V185.446H142.298V189.914ZM152.019 193.458H150.371L147.927 190.29H145.961V193.458H144.66V185.082H148.249C149.14 185.082 149.912 185.323 150.47 185.77C151.033 186.222 151.355 186.869 151.355 187.62V187.642C151.355 188.381 151.076 188.982 150.598 189.417C150.266 189.719 149.85 189.932 149.388 190.064L152.019 193.458ZM148.742 189.827C148.881 189.808 149.016 189.783 149.146 189.752C150.23 189.489 150.99 188.783 150.99 187.642V187.62C150.99 186.342 149.905 185.446 148.249 185.446H145.026V193.094H145.596V189.925H148.107L150.551 193.094H151.275L148.742 189.827ZM149.563 188.661C149.872 188.428 150.054 188.098 150.054 187.664V187.642C150.054 187.234 149.899 186.926 149.617 186.709C149.324 186.484 148.861 186.334 148.216 186.334H145.961V189.048H148.183C148.768 189.048 149.243 188.9 149.563 188.661ZM159.942 193.458H158.294L155.849 190.29H153.884V193.458H152.583V185.082H156.172C157.063 185.082 157.835 185.323 158.392 185.77C158.956 186.222 159.278 186.869 159.278 187.62V187.642C159.278 188.381 158.999 188.982 158.521 189.417C158.189 189.719 157.773 189.932 157.311 190.064L159.942 193.458ZM156.665 189.827C156.804 189.808 156.939 189.783 157.069 189.752C158.153 189.489 158.913 188.783 158.913 187.642V187.62C158.913 186.342 157.827 185.446 156.172 185.446H152.949V193.094H153.519V189.925H156.029L158.474 193.094H159.198L156.665 189.827ZM157.486 188.661C157.795 188.428 157.977 188.098 157.977 187.664V187.642C157.977 187.234 157.822 186.926 157.54 186.709C157.247 186.484 156.784 186.334 156.139 186.334H153.884V189.048H156.106C156.691 189.048 157.166 188.9 157.486 188.661ZM166.752 193.458H160.506V185.082H166.697V186.334H161.807V188.611H166.204V189.863H161.807V192.205H166.752V193.458ZM160.872 193.094V185.446H166.332V185.97H161.442V188.975H165.838V189.499H161.442V192.569H166.386V193.094H160.872ZM174.963 193.458H173.993L169.13 187.344V193.458H167.851V185.082H168.93L173.684 191.054V185.082H174.963V193.458ZM174.049 192.1L168.754 185.446H168.216V193.094H168.765V186.298L174.17 193.094H174.597V185.446H174.049V192.1ZM182.616 186.334H179.941V193.458H178.64V186.334H175.964V185.082H182.616V186.334ZM182.25 185.446V185.97H179.575V193.094H179.005V185.97H176.33V185.446H182.25ZM148.183 189.412C149.466 189.412 150.42 188.767 150.42 187.664V187.642C150.42 186.615 149.609 185.97 148.216 185.97H145.596V189.412H148.183ZM156.106 189.412C157.389 189.412 158.343 188.767 158.343 187.664V187.642C158.343 186.615 157.531 185.97 156.139 185.97H153.519V189.412H156.106Z" fill="black"/>
<path d="M230.628 187.868V187.846C230.628 186.371 229.466 185.508 227.778 185.508H224.993V193.156H225.563V190.305H227.635C229.236 190.305 230.628 189.474 230.628 187.868ZM230.058 187.901C230.058 189.037 229.093 189.78 227.668 189.78H225.563V186.033H227.734C229.115 186.033 230.058 186.666 230.058 187.879V187.901Z" fill="black"/>
<path d="M239.695 189.332C239.706 189.321 239.706 189.321 239.695 189.31C239.695 187.223 238.171 185.377 235.847 185.377C233.522 185.377 231.977 187.245 231.977 189.332V189.354C231.977 191.441 233.5 193.287 235.825 193.287C238.149 193.287 239.695 191.419 239.695 189.332ZM239.103 189.354C239.103 191.244 237.743 192.774 235.847 192.774C233.95 192.774 232.569 191.222 232.569 189.332V189.31C232.569 187.42 233.928 185.89 235.825 185.89C237.721 185.89 239.103 187.442 239.103 189.332V189.354Z" fill="black"/>
<path d="M251.639 185.508H251.047L248.635 192.315L246.388 185.486H245.949L243.702 192.315L241.29 185.508H240.654L243.439 193.211H243.899L246.147 186.568L248.394 193.211H248.855L251.639 185.508Z" fill="black"/>
<path d="M258.838 193.156V192.632H253.893V189.562H258.289V189.037H253.893V186.033H258.783V185.508H253.323V193.156H258.838Z" fill="black"/>
<path d="M266.917 193.156L264.384 189.889C265.678 189.715 266.632 188.983 266.632 187.704V187.682C266.632 186.404 265.547 185.508 263.891 185.508H260.668V193.156H261.238V189.988H263.748L266.193 193.156H266.917ZM266.062 187.726C266.062 188.83 265.108 189.474 263.825 189.474H261.238V186.033H263.858C265.251 186.033 266.062 186.677 266.062 187.704V187.726Z" fill="black"/>
<path fill-rule="evenodd" clip-rule="evenodd" d="M224.627 185.144H227.778C228.68 185.144 229.481 185.374 230.064 185.84C230.657 186.312 230.994 187.004 230.994 187.846V187.868C230.994 188.79 230.588 189.506 229.951 189.98C229.324 190.447 228.493 190.669 227.635 190.669H225.928V193.52H224.627V185.144ZM224.993 185.508H227.778C229.466 185.508 230.628 186.371 230.628 187.846V187.868C230.628 189.474 229.236 190.304 227.635 190.304H225.563V193.156H224.993V185.508ZM229.172 188.98C229.504 188.72 229.693 188.356 229.693 187.901V187.879C229.693 187.378 229.504 187.027 229.192 186.791C228.868 186.544 228.374 186.397 227.734 186.397H225.928V189.416H227.668C228.32 189.416 228.832 189.246 229.172 188.98ZM240.06 189.401C240.026 191.635 238.35 193.651 235.825 193.651C233.273 193.651 231.611 191.615 231.611 189.354V189.332C231.611 187.071 233.295 185.013 235.846 185.013C238.373 185.013 240.026 187.008 240.06 189.241C240.065 189.266 240.068 189.292 240.068 189.321C240.068 189.35 240.065 189.377 240.06 189.401ZM239.695 189.31C239.7 189.316 239.703 189.318 239.703 189.321C239.703 189.324 239.7 189.327 239.695 189.332C239.695 191.419 238.149 193.287 235.825 193.287C233.5 193.287 231.976 191.441 231.976 189.354V189.332C231.976 187.245 233.522 185.377 235.846 185.377C238.171 185.377 239.695 187.223 239.695 189.31ZM235.846 192.41C237.517 192.41 238.737 191.069 238.737 189.354V189.332C238.737 187.618 237.495 186.255 235.825 186.255C234.154 186.255 232.934 187.596 232.934 189.31V189.332C232.934 191.046 234.176 192.41 235.846 192.41ZM252.159 185.144L249.111 193.575H248.131L246.146 187.708L244.161 193.575H243.181L240.133 185.144H241.548L243.689 191.185L245.684 185.122H246.652L248.648 191.185L250.788 185.144H252.159ZM248.635 192.315L246.387 185.486H245.949L243.701 192.315L241.289 185.508H240.653L243.438 193.211H243.899L246.146 186.568L248.394 193.211H248.854L251.639 185.508H251.047L248.635 192.315ZM259.203 193.52H252.957V185.144H259.148V186.397H254.258V188.673H258.655V189.926H254.258V192.268H259.203V193.52ZM253.323 193.156V185.508H258.783V186.032H253.893V189.037H258.289V189.562H253.893V192.632H258.837V193.156H253.323ZM267.661 193.52H266.013L263.568 190.352H261.603V193.52H260.302V185.144H263.891C264.782 185.144 265.554 185.385 266.111 185.832C266.674 186.284 266.997 186.931 266.997 187.682V187.704C266.997 188.443 266.717 189.044 266.24 189.479C265.908 189.782 265.492 189.994 265.03 190.127L267.661 193.52ZM264.384 189.889C264.523 189.871 264.657 189.845 264.787 189.814C265.871 189.551 266.632 188.845 266.632 187.704V187.682C266.632 186.404 265.546 185.508 263.891 185.508H260.667V193.156H261.238V189.988H263.748L266.193 193.156H266.917L264.384 189.889ZM265.205 188.723C265.514 188.491 265.696 188.16 265.696 187.726V187.704C265.696 187.296 265.54 186.988 265.259 186.772C264.966 186.547 264.503 186.397 263.858 186.397H261.603V189.11H263.825C264.41 189.11 264.885 188.963 265.205 188.723ZM227.668 189.78C229.093 189.78 230.058 189.037 230.058 187.901V187.879C230.058 186.666 229.115 186.032 227.734 186.032H225.563V189.78H227.668ZM235.846 192.774C237.743 192.774 239.103 191.244 239.103 189.354V189.332C239.103 187.442 237.721 185.89 235.825 185.89C233.928 185.89 232.568 187.42 232.568 189.31V189.332C232.568 191.222 233.95 192.774 235.846 192.774ZM263.825 189.474C265.108 189.474 266.062 188.829 266.062 187.726V187.704C266.062 186.677 265.25 186.032 263.858 186.032H261.238V189.474H263.825Z" fill="black"/>
<path d="M269.12 255C276.3 255 282.12 249.18 282.12 242C282.12 234.82 276.3 229 269.12 229C261.94 229 256.12 234.82 256.12 242C256.12 249.18 261.94 255 269.12 255Z" fill="#99090E"/>
<path d="M270.123 243C269.789 274 298.796 336 417.5 336C536.203 336 628.706 330.364 660.12 327.545" stroke="#C1272D" stroke-width="14" stroke-linecap="round"/>
</g>
<defs>
<filter id="filter0_d" x="-3.87988" y="182.099" width="410" height="102.691" filterUnits="userSpaceOnUse" color-interpolation-filters="sRGB">
<feFlood flood-opacity="0" result="BackgroundImageFix"/>
<feColorMatrix in="SourceAlpha" type="matrix" values="0 0 0 0 0 0 0 0 0 0 0 0 0 0 0 0 0 0 127 0"/>
<feOffset dy="4"/>
<feGaussianBlur stdDeviation="2"/>
<feColorMatrix type="matrix" values="0 0 0 0 0 0 0 0 0 0 0 0 0 0 0 0 0 0 0.25 0"/>
<feBlend mode="normal" in2="BackgroundImageFix" result="effect1_dropShadow"/>
<feBlend mode="normal" in="SourceGraphic" in2="effect1_dropShadow" result="shape"/>
</filter>
<clipPath id="clip0">
<rect width="402" height="359" fill="white" transform="translate(0.120117)"/>
</clipPath>
</defs>
</svg>
