<svg xmlns="http://www.w3.org/2000/svg" width="16" height="24" fill="none" viewBox="0 0 16 24">
    <mask id="a" width="16" height="24" x="0" y="0" maskUnits="userSpaceOnUse">
        <path fill="#37C8FE" d="M1.006 23.906h13.988c.556 0 1.006-.45 1.006-1.006V1.008c0-.643-.593-1.122-1.221-.984C12.194.59 6.123 1.915 2.643 2.627c-.435.088-.76.45-.802.892L.005 22.804a1.006 1.006 0 0 0 1.001 1.102z"/>
    </mask>
    <g mask="url(#a)">
        <path fill="#4D9E90" d="M1.006 23.906h13.988c.556 0 1.006-.45 1.006-1.006V1.008c0-.643-.593-1.122-1.221-.984C12.194.59 6.123 1.915 2.643 2.627c-.435.088-.76.45-.802.892L.005 22.804a1.006 1.006 0 0 0 1.001 1.102z"/>
        <path fill="#317E71" fill-rule="evenodd" d="M14.994.762L2.919 3.78h-.106C2.398 7.735.906 22.033.906 22.9c0 1.006-1.006.503-1.006.503L1.84 3.535c.03-.303.192-.585.435-.73l-.011-.081L16.503-.779 15.497.761h-.503z" clip-rule="evenodd"/>
        <path fill="#317E71" fill-rule="evenodd" d="M16 22.9c0 1.006-1.006 1.006-1.006 1.006v-.031H-.1l.711-.712c.189-.189.445-.295.712-.295h13.67V.73C15.498.73 16-.276 16-.276V22.9z" clip-rule="evenodd"/>
    </g>
    <path fill="#000" fill-rule="evenodd" d="M9.016 9.794a.51.51 0 0 0-1.02 0v4.066a.51.51 0 0 0 1.02 0V9.794zm-2.332 1.343a.51.51 0 0 0-.721-.722 3.522 3.522 0 1 0 4.98 0 .51.51 0 0 0-.721.722 2.501 2.501 0 1 1-3.538 0z" clip-rule="evenodd"/>
</svg>
