<svg xmlns="http://www.w3.org/2000/svg" width="14" height="12" fill="none" viewBox="0 0 14 12">
    <mask id="a" width="14" height="12" x="0" y="0" maskUnits="userSpaceOnUse">
        <path fill="#CEC2A2" d="M13 11.685H.995a.995.995 0 0 1-.995-1V1.002A.997.997 0 0 1 1.263.037C3.74.727 9.297 2.282 12.835 3.31c.402.116.684.47.714.888L14 10.595s0 1.09-1 1.09z"/>
    </mask>
    <g mask="url(#a)">
        <path fill="#FAAC48" d="M13 11.685H.995a.995.995 0 0 1-.995-1v-9.57C0 .42.687-.068 1.343.16c2.513.873 7.974 2.694 11.322 3.232.48.077.86.466.894.952l.441 6.25s0 1.09-1 1.09z"/>
        <path fill="#DC8E2A" fill-rule="evenodd" d="M13.716 11.685c.08.029.174.044.284.044.656 0 0-1.043 0-1.043l-.5-7.5-1 1s.5 6 .5 6.5H1l-.7.75c.2.25.7.25.7.25h12.716z" clip-rule="evenodd"/>
        <path fill="#FFCB89" fill-rule="evenodd" d="M1 1.186l11.5 3 1.5-1-13-3.5L.993-.3C0-.406 0 .091 0 .091v10.504c0 1.09 1 1.09 1 1.09v-10.5z" clip-rule="evenodd"/>
    </g>
    <path fill="#000" d="M2.492 7.716c.441 0 .75-.234.75-.627v-.006c0-.348-.23-.507-.675-.615-.402-.096-.498-.168-.498-.33v-.006c0-.138.126-.25.342-.25.192 0 .381.076.57.217l.198-.28a1.164 1.164 0 0 0-.762-.263c-.417 0-.717.249-.717.609v.006c0 .387.252.519.7.627.39.09.473.17.473.32v.007c0 .159-.144.264-.372.264-.26 0-.462-.1-.663-.273l-.222.264c.252.225.555.336.876.336zM4.148 7.686h.372V5.928h.666v-.342H3.482v.342h.666v1.758zM5.128 7.686h.378l.216-.507h.993l.213.507h.39L6.394 5.57h-.342l-.924 2.115zm.729-.834l.36-.84.363.84h-.723zM7.678 7.686h.37v-.732h.461l.516.732h.435l-.567-.795c.294-.084.501-.291.501-.636v-.006a.635.635 0 0 0-.174-.453c-.135-.132-.342-.21-.606-.21h-.936v2.1zm.37-1.06v-.704h.536c.273 0 .435.123.435.348v.006c0 .213-.168.35-.432.35h-.54zM10.353 7.686h.372V5.928h.666v-.342H9.687v.342h.666v1.758z"/>
</svg>
