<svg xmlns="http://www.w3.org/2000/svg" width="16" height="10" fill="none" viewBox="0 0 16 10">
    <mask id="a" width="16" height="10" x="0" y="0" maskUnits="userSpaceOnUse">
        <path fill="#CEC2A2" d="M14.839 10H1a1 1 0 0 1-1-1V1c0-.552.445-1 .997-1h12.646c.494 0 .911.362.985.852l1.2 8a1 1 0 0 1-.99 1.148z"/>
    </mask>
    <g mask="url(#a)">
        <path fill="#92D6CA" d="M14.839 10H1a1 1 0 0 1-1-1V1c0-.552.445-1 .997-1h12.646c.494 0 .911.362.985.852l1.2 8a1 1 0 0 1-.99 1.148z"/>
        <path fill="#D2FFF7" fill-rule="evenodd" d="M0 8.91C0 10 1 10 1 10V1h13.98c.145-1-.521-1-.521-1H1v-1.984c-1-.11-1 .39-1 .39V.038C-1 .221-1 1-1 1h1v7.91z" clip-rule="evenodd"/>
        <path fill="#4D9E90" fill-rule="evenodd" d="M14.936 10l.573 3.588.69.7c.246-.039.466-.699.466-.699L14.448-.419c-.063-.395-.545-.52-.545-.52L14.5 0l-1 1 1.277 8H1l-.8.5c0 .219.618.5.618.5h14.118z" clip-rule="evenodd"/>
    </g>
    <path fill="#000" d="M4.376 6.03c.44 0 .75-.234.75-.627v-.006c0-.348-.231-.507-.675-.615-.402-.096-.498-.168-.498-.33v-.006c0-.138.126-.249.342-.249.192 0 .38.075.57.216l.198-.279A1.164 1.164 0 0 0 4.3 3.87c-.417 0-.717.249-.717.609v.006c0 .387.252.519.699.627.39.09.474.171.474.321v.006c0 .159-.144.264-.372.264-.261 0-.462-.099-.663-.273l-.222.264c.252.225.555.336.876.336zM6.032 6h.372V4.242h.666V3.9H5.366v.342h.666V6zM8.349 6.036c.645 0 1.1-.495 1.1-1.086v-.006c0-.591-.45-1.08-1.094-1.08-.645 0-1.101.495-1.101 1.086v.006c0 .591.45 1.08 1.095 1.08zm.006-.339c-.417 0-.714-.339-.714-.747v-.006c0-.408.29-.741.708-.741.417 0 .714.339.714.747v.006c0 .408-.291.741-.708.741zM9.895 6h.37v-.675h.416c.462 0 .84-.246.84-.717v-.006c0-.423-.309-.702-.798-.702h-.828V6zm.37-1.008v-.756h.428c.276 0 .453.129.453.375v.006c0 .219-.174.375-.453.375h-.429z"/>
</svg>
