<svg width="119" height="223" viewBox="0 0 119 223" fill="none" xmlns="http://www.w3.org/2000/svg">
<g filter="url(#filter0_d)">
<path d="M44.9525 201.417C42.9926 201.417 40.0012 200.699 38.3508 200.186C36.7003 199.672 35.3594 193.718 35.3594 193.718C31.0269 176.883 25.1629 152.111 25.0293 137.178C25.0029 134.218 25.0293 76.7427 25.0293 76.7427H28.3463H64.8351V137.178C64.8351 152.602 57.9498 176.883 53.6174 193.718C53.6174 193.718 52.2764 199.672 50.6259 200.186C48.9755 200.699 45.9841 201.417 44.0242 201.417" fill="#868CA6"/>
<path opacity="0.7" d="M44.8325 199.349C43.0789 199.349 40.3969 198.733 38.9528 198.219C37.5086 197.809 36.2708 192.368 36.2708 192.368C32.351 177.278 28.3753 155.03 27.2406 141.788C27.2406 134.975 27.2406 84.712 27.2406 84.712V79.8872H62.6235C62.6235 79.8872 63.2424 134.807 62.6235 141.788C61.4888 155.03 56.5919 177.175 52.6721 192.265C52.6721 192.265 51.4342 197.603 49.9901 198.117C48.546 198.527 45.864 199.246 44.1104 199.246" fill="#C0C3D2"/>
<rect x="20.6063" y="76.7427" width="50.8629" height="4.40699" fill="#868CA6"/>
<rect x="25.0292" y="95.3115" width="39.8058" height="35.2559" fill="white"/>
<path d="M53.7779 81.1494H64.835C64.835 81.1494 64.835 133.072 64.835 139.562C64.835 146.052 60.4122 166.605 60.4122 166.605C60.4122 166.605 52.0502 198.583 51.5664 199.056C51.0827 199.53 44.9321 200.138 44.9321 200.138L53.7779 139.562V81.1494Z" fill="black" fill-opacity="0.1"/>
<rect x="16.1833" y="70.1323" width="57.4972" height="4.40699" fill="#868CA6"/>
<rect x="27.2405" y="74.5396" width="35.3829" height="2.2035" fill="#577898"/>
<path fill-rule="evenodd" clip-rule="evenodd" d="M79.5913 72.6069C80.1447 73.5374 80.3149 74.5969 80.3149 75.6411C80.3149 76.6852 80.1447 77.7447 79.5913 78.6752C79.0062 79.6589 78.1414 80.2526 77.2213 80.5963C76.36 80.9182 75.4094 81.0378 74.5096 81.0939C73.6109 81.1498 72.5854 81.1498 71.5192 81.1498H71.4691V76.7428C72.5964 76.7428 73.4878 76.7419 74.2337 76.6955C74.9925 76.6482 75.424 76.5613 75.6684 76.4699C75.7217 76.45 75.7573 76.433 75.7792 76.4211C75.7851 76.4179 75.7901 76.4151 75.7941 76.4127C75.7963 76.4076 75.799 76.4011 75.8021 76.3931C75.8118 76.3676 75.8253 76.3258 75.8389 76.2634C75.8669 76.1354 75.892 75.9362 75.892 75.6411C75.892 75.3459 75.8669 75.1468 75.8389 75.0188C75.8253 74.9564 75.8118 74.9146 75.8021 74.889C75.799 74.8811 75.7963 74.8746 75.7941 74.8694C75.7901 74.867 75.7851 74.8642 75.7792 74.861C75.7573 74.8491 75.7217 74.8321 75.6684 74.8122C75.424 74.7208 74.9925 74.6339 74.2337 74.5867C73.4878 74.5402 72.5964 74.5393 71.4691 74.5393L71.4691 70.1323L71.5191 70.1323C72.5854 70.1323 73.6109 70.1323 74.5096 70.1883C75.4094 70.2443 76.36 70.3639 77.2213 70.6858C78.1414 71.0296 79.0062 71.6232 79.5913 72.6069Z" fill="#868CA6"/>
</g>
<path d="M35.696 119.393H37.4447L38.6104 116.373H43.7623L44.928 119.393H46.7331L42.0701 107.591H40.359L35.696 119.393ZM39.1557 114.95L41.1864 109.587L43.217 114.95H39.1557Z" fill="black"/>
<path d="M50.8972 114.689H52.3638H53.696V113.37H52.3638H50.8972H47.0239V114.689H50.8972Z" fill="black"/>
<defs>
<filter id="filter0_d" x="0.18335" y="0.841309" width="118.013" height="221.5" filterUnits="userSpaceOnUse" color-interpolation-filters="sRGB">
<feFlood flood-opacity="0" result="BackgroundImageFix"/>
<feColorMatrix in="SourceAlpha" type="matrix" values="0 0 0 0 0 0 0 0 0 0 0 0 0 0 0 0 0 0 127 0"/>
<feOffset dy="4"/>
<feGaussianBlur stdDeviation="8"/>
<feColorMatrix type="matrix" values="0 0 0 0 0 0 0 0 0 0 0 0 0 0 0 0 0 0 0.25 0"/>
<feBlend mode="normal" in2="BackgroundImageFix" result="effect1_dropShadow"/>
<feBlend mode="normal" in="SourceGraphic" in2="effect1_dropShadow" result="shape"/>
</filter>
</defs>
</svg>
