<svg width="76" height="93" viewBox="0 0 76 93" fill="none" xmlns="http://www.w3.org/2000/svg">
<path d="M75.904 0H0V93H75.904V0Z" fill="white"/>
<path opacity="0.4" d="M72.9799 2.98047H3.21387V89.1805H72.9819V2.98047H72.9799Z" fill="#7CB4D0"/>
<path opacity="0.1" d="M72.9799 2.98047H3.21387V89.1805H72.9819V2.98047H72.9799Z" fill="#BCDEEA"/>
<path opacity="0.5" d="M3.213 2.98L0 0V93L3.213 89.18V2.98ZM72.98 89.18L75.905 93V0L72.982 2.98V89.18H72.98Z" fill="#7CB4D0"/>
<path opacity="0.4" d="M75.904 0H0V93H75.904V0Z" fill="#7CB4D0"/>
<path opacity="0.8" d="M72.98 89.1514H3.214L0 93.0004H75.904L72.981 89.1514H72.98Z" fill="#7CB4D0"/>
<path opacity="0.2" d="M5.57715 10.6255H16.2468V6.52246H5.57715V10.6255Z" fill="#3E6E7A"/>
<path opacity="0.2" d="M5.57715 9.94146H16.2468V6.52246H5.57715V9.94246V9.94146Z" fill="#3E6E7A"/>
<path opacity="0.2" d="M5.57762 6.52189L4.78711 5.83789V9.94089L5.56318 10.6249L5.57762 6.52189V6.52189ZM16.2467 10.6249L16.6419 9.94089V5.83789L16.2467 6.52189V10.6249Z" fill="#3E6E7A"/>
<path opacity="0.5" d="M4.78711 9.94141L5.57762 10.6254H16.2467L16.6419 9.94141H4.78711Z" fill="white"/>
<path opacity="0.2" d="M4.78711 9.94089H16.6419V5.83789H4.78711V9.94089V9.94089Z" fill="#3E6E7A"/>
<path opacity="0.2" d="M18.5835 9.94089H30.2305V5.83789H18.5835V9.94089V9.94089Z" fill="#3E6E7A"/>
<path opacity="0.2" d="M19.3599 10.6255H29.8435V6.52246H19.3599V10.6255Z" fill="#3E6E7A"/>
<path opacity="0.2" d="M19.3597 9.94089H29.8433V6.52189H19.3597V9.94189V9.94089ZM19.3597 6.52189L18.5835 5.83789V9.94089L19.346 10.6249L19.3597 6.52189V6.52189ZM29.8433 10.6249L30.2311 9.94089V5.83789L29.8433 6.52189V10.6249Z" fill="#3E6E7A"/>
<path opacity="0.5" d="M18.5835 9.94141L19.3597 10.6254H29.8433L30.2317 9.94141H18.5835Z" fill="white"/>
<path opacity="0.2" d="M32.1729 9.94089H43.821V5.83789H32.1729V9.94089V9.94089Z" fill="#3E6E7A"/>
<path opacity="0.2" d="M32.9492 10.6255H43.4328V6.52246H32.9492V10.6255Z" fill="#3E6E7A"/>
<path opacity="0.2" d="M32.9492 9.94146H43.4328V6.52246H32.9492V9.94246V9.94146Z" fill="#3E6E7A"/>
<path opacity="0.2" d="M32.949 6.52189L32.1729 5.83789V9.94089L32.9354 10.6249L32.949 6.52189V6.52189ZM43.4326 10.6249L43.821 9.94089V5.83789L43.4326 6.52189V10.6249Z" fill="#3E6E7A"/>
<path opacity="0.5" d="M32.1729 9.94141L32.949 10.6254H43.4326L43.821 9.94141H32.1729Z" fill="white"/>
<path opacity="0.2" d="M45.7622 9.94089H57.4092V5.83789H45.7622V9.94089V9.94089Z" fill="#3E6E7A"/>
<path opacity="0.2" d="M46.5386 10.6255H57.0222V6.52246H46.5386V10.6255Z" fill="#3E6E7A"/>
<path opacity="0.2" d="M46.5384 9.94089H57.022V6.52189H46.5384V9.94189V9.94089ZM46.5384 6.52189L45.7622 5.83789V9.94089L46.5247 10.6249L46.5384 6.52189V6.52189ZM57.022 10.6249L57.4098 9.94089V5.83789L57.022 6.52189V10.6249Z" fill="#3E6E7A"/>
<path opacity="0.5" d="M45.7622 9.94141L46.5384 10.6254H57.022L57.4104 9.94141H45.7622Z" fill="white"/>
<path opacity="0.2" d="M59.3521 9.94089H71.0002V5.83789H59.3521V9.94089V9.94089Z" fill="#3E6E7A"/>
<path opacity="0.2" d="M60.1284 10.6255H70.612V6.52246H60.1284V10.6255Z" fill="#3E6E7A"/>
<path opacity="0.2" d="M60.1284 9.94146H70.612V6.52246H60.1284V9.94246V9.94146Z" fill="#3E6E7A"/>
<path opacity="0.2" d="M60.1282 6.52189L59.3521 5.83789V9.94089L60.1146 10.6249L60.1282 6.52189V6.52189ZM70.6118 10.6249L71.0002 9.94089V5.83789L70.6118 6.52189V10.6249Z" fill="#3E6E7A"/>
<path opacity="0.5" d="M59.3521 9.94141L60.1282 10.6254H70.6118L71.0002 9.94141H59.3521Z" fill="white"/>
</svg>
