<svg width="119" height="223" viewBox="0 0 119 223" fill="none" xmlns="http://www.w3.org/2000/svg">
<g filter="url(#filter0_d)">
<path d="M45.2731 201.391C43.3132 201.391 40.3218 200.672 38.6713 200.159C37.0209 199.646 35.6799 193.692 35.6799 193.692C31.3475 176.857 25.4835 152.085 25.3499 137.152C25.3235 134.192 25.3498 76.7163 25.3498 76.7163H28.6669H65.1556V137.152C65.1556 152.576 58.2703 176.857 53.9379 193.692C53.9379 193.692 52.5969 199.646 50.9465 200.159C49.2961 200.672 46.3046 201.391 44.3447 201.391" fill="#868CA6"/>
<path opacity="0.7" d="M45.153 199.322C43.3994 199.322 40.7175 198.706 39.2733 198.193C37.8292 197.782 36.5914 192.342 36.5914 192.342C32.6716 177.251 28.6958 155.004 27.5612 141.762C27.5612 134.948 27.5612 84.6856 27.5612 84.6856V79.8608H62.9441C62.9441 79.8608 63.563 134.781 62.9441 141.762C61.8094 155.004 56.9124 177.149 52.9926 192.239C52.9926 192.239 51.7548 197.577 50.3107 198.09C48.8665 198.501 46.1846 199.219 44.431 199.219" fill="#C0C3D2"/>
<rect x="20.9269" y="76.7163" width="50.8629" height="4.40699" fill="#868CA6"/>
<rect x="25.3497" y="95.2852" width="39.8058" height="35.2559" fill="white"/>
<path d="M54.0984 81.123H65.1556C65.1556 81.123 65.1556 133.045 65.1556 139.536C65.1556 146.026 60.7327 166.579 60.7327 166.579C60.7327 166.579 52.3708 198.557 51.887 199.03C51.4032 199.503 45.2527 200.112 45.2527 200.112L54.0984 139.536V81.123Z" fill="black" fill-opacity="0.1"/>
<rect x="16.5039" y="70.106" width="57.4972" height="4.40699" fill="#868CA6"/>
<rect x="27.561" y="74.5132" width="35.3829" height="2.2035" fill="#577898"/>
<path fill-rule="evenodd" clip-rule="evenodd" d="M79.9118 72.5805C80.4652 73.511 80.6354 74.5706 80.6354 75.6147C80.6354 76.6588 80.4652 77.7183 79.9118 78.6489C79.3268 79.6326 78.462 80.2262 77.5419 80.57C76.6806 80.8918 75.7299 81.0115 74.8301 81.0675C73.9315 81.1235 72.906 81.1234 71.8398 81.1234H71.7897V76.7164C72.9169 76.7164 73.8084 76.7155 74.5542 76.6691C75.313 76.6218 75.7445 76.5349 75.9889 76.4436C76.0423 76.4236 76.0778 76.4066 76.0997 76.3948C76.1057 76.3915 76.1106 76.3887 76.1146 76.3863C76.1169 76.3812 76.1196 76.3747 76.1226 76.3667C76.1323 76.3412 76.1459 76.2994 76.1595 76.237C76.1875 76.109 76.2125 75.9098 76.2125 75.6147C76.2125 75.3196 76.1875 75.1204 76.1595 74.9924C76.1459 74.93 76.1323 74.8882 76.1226 74.8627C76.1196 74.8547 76.1169 74.8482 76.1146 74.843C76.1106 74.8407 76.1057 74.8378 76.0997 74.8346C76.0778 74.8228 76.0423 74.8057 75.9889 74.7858C75.7445 74.6945 75.313 74.6075 74.5542 74.5603C73.8084 74.5138 72.9169 74.5129 71.7897 74.5129L71.7897 70.106L71.8397 70.106C72.9059 70.1059 73.9315 70.1059 74.8301 70.1619C75.7299 70.2179 76.6806 70.3376 77.5419 70.6594C78.462 71.0032 79.3268 71.5968 79.9118 72.5805Z" fill="#868CA6"/>
</g>
<path d="M36.0166 117.815H37.7652L38.931 114.795H44.0828L45.2486 117.815H47.0536L42.3906 106.014H40.6796L36.0166 117.815ZM39.4762 113.372L41.5069 108.009L43.5376 113.372H39.4762Z" fill="black"/>
<path d="M49.9472 115.656H51.4138V113.112H54.0166V111.793H51.4138V109.249H49.9472V111.793H47.3445V113.112H49.9472V115.656Z" fill="black"/>
<defs>
<filter id="filter0_d" x="0.503906" y="0.814941" width="118.013" height="221.5" filterUnits="userSpaceOnUse" color-interpolation-filters="sRGB">
<feFlood flood-opacity="0" result="BackgroundImageFix"/>
<feColorMatrix in="SourceAlpha" type="matrix" values="0 0 0 0 0 0 0 0 0 0 0 0 0 0 0 0 0 0 127 0"/>
<feOffset dy="4"/>
<feGaussianBlur stdDeviation="8"/>
<feColorMatrix type="matrix" values="0 0 0 0 0 0 0 0 0 0 0 0 0 0 0 0 0 0 0.25 0"/>
<feBlend mode="normal" in2="BackgroundImageFix" result="effect1_dropShadow"/>
<feBlend mode="normal" in="SourceGraphic" in2="effect1_dropShadow" result="shape"/>
</filter>
</defs>
</svg>
