<svg width="87" height="102" viewBox="0 0 87 102" fill="none" xmlns="http://www.w3.org/2000/svg">
<rect x="0.201172" y="79.1992" width="85.9802" height="22" rx="5" fill="#003E6B"/>
<path d="M10.1703 95.3792C12.1803 95.3792 13.3353 94.5092 13.4253 92.8442H11.7003C11.6403 93.5192 11.1153 93.9242 10.1703 93.9242C9.01528 93.9242 8.50528 93.3392 8.50528 92.0792V91.8392H13.4703V90.5492C13.4703 88.4042 12.3003 87.2342 10.0803 87.2342C7.89028 87.2342 6.70528 88.3892 6.70528 90.5342V92.0642C6.70528 94.2392 7.90528 95.3792 10.1703 95.3792ZM8.50528 90.5042C8.50528 89.2442 9.00028 88.6892 10.1403 88.6892C11.2653 88.6892 11.7603 89.2442 11.7603 90.5042H8.50528ZM17.8017 95.3792C18.8517 95.3792 19.6167 94.9892 20.2317 94.1192L20.2917 95.1992H21.8217V84.2492H20.0217V88.2242C19.4367 87.5342 18.7317 87.2342 17.8017 87.2342C16.0017 87.2342 14.9817 88.3442 14.9817 90.4592V92.1692C14.9817 94.2842 16.0017 95.3792 17.8017 95.3792ZM18.1617 93.8792C17.2767 93.8792 16.7817 93.3092 16.7817 92.1392V90.4742C16.7817 89.2892 17.2767 88.7342 18.1467 88.7342C18.9867 88.7342 19.6167 89.2442 20.0217 90.1892V92.4242C19.6167 93.3692 18.9867 93.8792 18.1617 93.8792ZM23.9528 86.1692H25.8728V84.4742H23.9528V86.1692ZM24.0128 95.1992H25.8128V87.4142H24.0128V95.1992ZM30.4872 95.1992H31.9122V93.7442H31.0422C30.2772 93.7442 30.0822 93.5042 30.0822 92.6492V88.8092H31.8372V87.4142H30.0822V85.4192H28.4322L28.3122 87.4142H27.0522V88.8092H28.2822V92.7092C28.2822 94.4642 28.9422 95.1992 30.4872 95.1992ZM38.2053 95.1992H40.1253C40.2753 91.7792 41.5353 89.1542 44.1003 86.6792V84.9992H36.7203V86.6342H42.1503C39.6903 88.8842 38.3553 91.7492 38.2053 95.1992ZM52.7794 95.3792C54.8494 95.3792 55.9594 94.3592 56.0044 92.3492H54.2794C54.2194 93.4142 53.7544 93.8792 52.7944 93.8792C51.7444 93.8792 51.2494 93.3242 51.2494 92.0492V90.5642C51.2494 89.2892 51.7444 88.7342 52.7944 88.7342C53.7544 88.7342 54.2194 89.1992 54.2794 90.2492H56.0044C55.9594 88.2392 54.8494 87.2342 52.7794 87.2342C50.5894 87.2342 49.4494 88.3592 49.4494 90.5342V92.0642C49.4494 94.2542 50.5894 95.3792 52.7794 95.3792ZM60.9271 95.3792C62.9371 95.3792 64.0921 94.5092 64.1821 92.8442H62.4571C62.3971 93.5192 61.8721 93.9242 60.9271 93.9242C59.7721 93.9242 59.2621 93.3392 59.2621 92.0792V91.8392H64.2271V90.5492C64.2271 88.4042 63.0571 87.2342 60.8371 87.2342C58.6471 87.2342 57.4621 88.3892 57.4621 90.5342V92.0642C57.4621 94.2392 58.6621 95.3792 60.9271 95.3792ZM59.2621 90.5042C59.2621 89.2442 59.7571 88.6892 60.8971 88.6892C62.0221 88.6892 62.5171 89.2442 62.5171 90.5042H59.2621ZM66.0538 95.1992H67.8538V84.2492H66.0538V95.1992ZM70.0382 95.1992H71.8382V84.2492H70.0382V95.1992ZM76.6926 95.3792C78.8226 95.3792 79.8876 94.5542 79.8876 92.9192C79.8876 91.4342 79.1226 90.7292 77.0976 90.5042C75.8226 90.3692 75.3576 90.1142 75.3576 89.4992C75.3576 88.9442 75.8226 88.6142 76.6776 88.6142C77.5776 88.6142 77.9976 88.9592 77.9976 89.6792H79.7226C79.7226 88.0742 78.6876 87.2342 76.6926 87.2342C74.6976 87.2342 73.5876 88.0892 73.5876 89.6942C73.5876 91.1342 74.3526 91.7642 76.3326 92.0042C77.6526 92.1692 78.1176 92.4392 78.1176 93.0842C78.1176 93.6842 77.6526 93.9992 76.6926 93.9992C75.6426 93.9992 75.1476 93.6242 75.1476 92.8592H73.4376C73.4376 94.5392 74.4876 95.3792 76.6926 95.3792Z" fill="white"/>
<mask id="path-3-outside-1" maskUnits="userSpaceOnUse" x="22.5903" y="0.199219" width="43" height="72" fill="black">
<rect fill="white" x="22.5903" y="0.199219" width="43" height="72"/>
<path fill-rule="evenodd" clip-rule="evenodd" d="M50.2616 9.69743V8.82365C50.2616 8.68302 50.1484 8.56897 50.0097 8.56983H49.9407V4.78231C49.9407 4.66655 49.8565 4.5688 49.7475 4.54736V4.43846C49.7475 4.38101 49.7271 4.32784 49.6931 4.28668C49.6914 4.28411 49.6897 4.28239 49.688 4.28068C49.682 4.27382 49.676 4.26782 49.6692 4.26182C49.6267 4.22323 49.5705 4.19922 49.5092 4.19922H40.0574H33.4796C33.3486 4.19922 33.2414 4.3064 33.2414 4.43846V4.54736C33.1316 4.56794 33.0482 4.66569 33.0482 4.78231V8.56983H32.9792C32.8405 8.56983 32.7273 8.68388 32.7273 8.82365V9.69743C32.7273 9.83119 32.8311 9.94181 32.9622 9.95038C32.9682 9.95124 32.9733 9.95124 32.9792 9.95124H33.604V26.9938H26.5903V29.6239L27.1099 31.3773H33.604L33.604 53.0075C33.604 54.9443 35.1741 56.5143 37.1109 56.5143L45.0385 56.5143L45.0386 56.5143C45.0426 56.5147 45.3647 56.5467 45.832 56.5143H45.878C46.4178 56.5143 46.9291 56.3924 47.3858 56.1745C48.4114 55.7599 49.385 54.8747 49.385 53.0075C49.385 49.0623 49.4347 42.9253 49.4347 42.9253V32.4127L49.4347 31.3773H55.5218V59.4321H41.4944H27.5503L26.5903 61.1855V68.1992H61.6588V61.1855L60.6988 59.4321H57.2753V31.3773H61.1393L61.5903 29.6239L61.6588 29.6239V26.9938H49.4347V14.8064L49.4347 9.95124H50.0088L50.0134 9.95122L50.0201 9.95098L50.0258 9.95038C50.1569 9.94181 50.2616 9.83119 50.2616 9.69743Z"/>
</mask>
<path fill-rule="evenodd" clip-rule="evenodd" d="M50.2616 9.69743V8.82365C50.2616 8.68302 50.1484 8.56897 50.0097 8.56983H49.9407V4.78231C49.9407 4.66655 49.8565 4.5688 49.7475 4.54736V4.43846C49.7475 4.38101 49.7271 4.32784 49.6931 4.28668C49.6914 4.28411 49.6897 4.28239 49.688 4.28068C49.682 4.27382 49.676 4.26782 49.6692 4.26182C49.6267 4.22323 49.5705 4.19922 49.5092 4.19922H40.0574H33.4796C33.3486 4.19922 33.2414 4.3064 33.2414 4.43846V4.54736C33.1316 4.56794 33.0482 4.66569 33.0482 4.78231V8.56983H32.9792C32.8405 8.56983 32.7273 8.68388 32.7273 8.82365V9.69743C32.7273 9.83119 32.8311 9.94181 32.9622 9.95038C32.9682 9.95124 32.9733 9.95124 32.9792 9.95124H33.604V26.9938H26.5903V29.6239L27.1099 31.3773H33.604L33.604 53.0075C33.604 54.9443 35.1741 56.5143 37.1109 56.5143L45.0385 56.5143L45.0386 56.5143C45.0426 56.5147 45.3647 56.5467 45.832 56.5143H45.878C46.4178 56.5143 46.9291 56.3924 47.3858 56.1745C48.4114 55.7599 49.385 54.8747 49.385 53.0075C49.385 49.0623 49.4347 42.9253 49.4347 42.9253V32.4127L49.4347 31.3773H55.5218V59.4321H41.4944H27.5503L26.5903 61.1855V68.1992H61.6588V61.1855L60.6988 59.4321H57.2753V31.3773H61.1393L61.5903 29.6239L61.6588 29.6239V26.9938H49.4347V14.8064L49.4347 9.95124H50.0088L50.0134 9.95122L50.0201 9.95098L50.0258 9.95038C50.1569 9.94181 50.2616 9.83119 50.2616 9.69743Z" fill="#003E6B"/>
<path d="M50.0097 8.56983V12.0698C50.0169 12.0698 50.0241 12.0698 50.0313 12.0698L50.0097 8.56983ZM49.9407 8.56983H46.4407C46.4407 10.5028 48.0077 12.0698 49.9407 12.0698V8.56983ZM49.7475 4.54736H46.2475C46.2475 6.21981 47.4308 7.65857 49.0717 7.98149L49.7475 4.54736ZM49.6931 4.28668L46.7748 6.21893C46.8432 6.32226 46.917 6.42188 46.996 6.51737L49.6931 4.28668ZM49.688 4.28068L47.0452 6.57544C47.0964 6.63441 47.1496 6.69165 47.2046 6.74706L49.688 4.28068ZM49.6692 4.26182L47.3181 6.85456C47.3302 6.86547 47.3423 6.87629 47.3544 6.88702L49.6692 4.26182ZM33.2414 4.54736L33.8862 7.98744C35.5417 7.67712 36.7414 6.23167 36.7414 4.54736H33.2414ZM33.0482 8.56983V12.0698C34.9812 12.0698 36.5482 10.5028 36.5482 8.56983H33.0482ZM32.9622 9.95038L33.461 6.48611C33.3713 6.47319 33.2811 6.46377 33.1907 6.45785L32.9622 9.95038ZM33.604 9.95124H37.104C37.104 8.01824 35.537 6.45124 33.604 6.45124V9.95124ZM33.604 26.9938V30.4938C35.537 30.4938 37.104 28.9268 37.104 26.9938H33.604ZM26.5903 26.9938V23.4938C24.6573 23.4938 23.0903 25.0608 23.0903 26.9938H26.5903ZM26.5903 29.6239H23.0903C23.0903 29.9606 23.1389 30.2954 23.2345 30.6182L26.5903 29.6239ZM27.1099 31.3773L23.7541 32.3716C24.1944 33.8578 25.5598 34.8773 27.1099 34.8773V31.3773ZM33.604 31.3773L37.104 31.3773C37.104 30.4491 36.7353 29.5588 36.0789 28.9025C35.4225 28.2461 34.5323 27.8773 33.604 27.8773V31.3773ZM33.604 53.0075L30.104 53.0075V53.0075H33.604ZM37.1109 56.5143L37.1109 60.0143L37.1109 60.0143L37.1109 56.5143ZM45.0385 56.5143L45.3868 53.0317C45.2711 53.0201 45.1548 53.0143 45.0385 53.0143L45.0385 56.5143ZM45.0386 56.5143L44.6903 59.997L44.6915 59.9971L45.0386 56.5143ZM45.832 56.5143V53.0143C45.7512 53.0143 45.6705 53.0171 45.5899 53.0227L45.832 56.5143ZM47.3858 56.1745L46.0741 52.9297C46.0082 52.9563 45.9432 52.9849 45.8791 53.0155L47.3858 56.1745ZM49.4347 42.9253L52.9345 42.9536C52.9346 42.9442 52.9347 42.9347 52.9347 42.9253L49.4347 42.9253ZM49.4347 32.4127L45.9347 32.4127V32.4127H49.4347ZM49.4347 31.3773V27.8773C47.5017 27.8773 45.9347 29.4443 45.9347 31.3773L49.4347 31.3773ZM55.5218 31.3773H59.0218C59.0218 29.4443 57.4548 27.8773 55.5218 27.8773V31.3773ZM55.5218 59.4321V62.9321C57.4548 62.9321 59.0218 61.3651 59.0218 59.4321H55.5218ZM27.5503 59.4321V55.9321C26.2715 55.9321 25.0945 56.6296 24.4804 57.7513L27.5503 59.4321ZM26.5903 61.1855L23.5203 59.5047C23.2382 60.02 23.0903 60.5981 23.0903 61.1855H26.5903ZM26.5903 68.1992H23.0903C23.0903 70.1322 24.6573 71.6992 26.5903 71.6992V68.1992ZM61.6588 68.1992V71.6992C63.5918 71.6992 65.1588 70.1322 65.1588 68.1992H61.6588ZM61.6588 61.1855H65.1588C65.1588 60.5981 65.0109 60.02 64.7288 59.5047L61.6588 61.1855ZM60.6988 59.4321L63.7688 57.7513C63.1547 56.6296 61.9776 55.9321 60.6988 55.9321V59.4321ZM57.2753 59.4321H53.7753C53.7753 61.3651 55.3423 62.9321 57.2753 62.9321V59.4321ZM57.2753 31.3773V27.8773C55.3423 27.8773 53.7753 29.4443 53.7753 31.3773H57.2753ZM61.1393 31.3773V34.8773C62.7365 34.8773 64.131 33.7961 64.5289 32.2493L61.1393 31.3773ZM61.5903 29.6239L61.5908 26.1239C59.9935 26.1237 58.5986 27.205 58.2007 28.752L61.5903 29.6239ZM61.6588 29.6239L61.6583 33.1239C62.5867 33.124 63.477 32.7553 64.1335 32.099C64.79 31.4426 65.1588 30.5523 65.1588 29.6239H61.6588ZM61.6588 26.9938H65.1588C65.1588 25.0608 63.5918 23.4938 61.6588 23.4938V26.9938ZM49.4347 26.9938H45.9347C45.9347 28.9268 47.5017 30.4938 49.4347 30.4938V26.9938ZM49.4347 14.8064L52.9347 14.8064L52.9347 14.8064L49.4347 14.8064ZM49.4347 9.95124V6.45124C48.5064 6.45124 47.6162 6.81999 46.9598 7.47637C46.3034 8.13275 45.9347 9.02299 45.9347 9.95125L49.4347 9.95124ZM50.0088 9.95124L50.0088 13.4513L50.0211 13.4512L50.0088 9.95124ZM50.0134 9.95122L50.0257 13.4512C50.0634 13.4511 50.1011 13.4503 50.1387 13.449L50.0134 9.95122ZM50.0201 9.95098L50.1454 13.4487C50.2263 13.4458 50.307 13.4401 50.3875 13.4316L50.0201 9.95098ZM50.0258 9.95038L49.7973 6.45785C49.751 6.46088 49.7047 6.46484 49.6584 6.46972L50.0258 9.95038ZM46.7616 8.82365V9.69743H53.7616V8.82365H46.7616ZM50.0313 12.0698C48.1834 12.0812 46.7616 10.579 46.7616 8.82365H53.7616C53.7616 6.78708 52.1134 5.05676 49.988 5.0699L50.0313 12.0698ZM49.9407 12.0698H50.0097V5.06983H49.9407V12.0698ZM46.4407 4.78231V8.56983H53.4407V4.78231H46.4407ZM49.0717 7.98149C47.5803 7.688 46.4407 6.38006 46.4407 4.78231H53.4407C53.4407 2.95303 52.1326 1.44959 50.4233 1.11322L49.0717 7.98149ZM46.2475 4.43846V4.54736H53.2475V4.43846H46.2475ZM46.996 6.51737C46.5265 5.94967 46.2475 5.21922 46.2475 4.43846H53.2475C53.2475 3.5428 52.9277 2.70602 52.3901 2.056L46.996 6.51737ZM47.2046 6.74706C47.2135 6.75602 47.1436 6.68688 47.066 6.59899C46.9773 6.49839 46.8761 6.37194 46.7748 6.21893L52.6114 2.35444C52.4007 2.03626 52.1784 1.82143 52.1713 1.8143L47.2046 6.74706ZM47.3544 6.88702C47.2449 6.79043 47.1413 6.68606 47.0452 6.57544L52.3307 1.98592C52.2227 1.86158 52.1072 1.74521 51.984 1.63661L47.3544 6.88702ZM49.5092 7.69922C48.6385 7.69922 47.8713 7.35617 47.3181 6.85456L52.0203 1.66907C51.3821 1.09029 50.5026 0.699219 49.5092 0.699219V7.69922ZM40.0574 7.69922H49.5092V0.699219H40.0574V7.69922ZM33.4796 7.69922H40.0574V0.699219H33.4796V7.69922ZM36.7414 4.43846C36.7414 6.23084 35.2901 7.69922 33.4796 7.69922V0.699219C31.407 0.699219 29.7414 2.38197 29.7414 4.43846H36.7414ZM36.7414 4.54736V4.43846H29.7414V4.54736H36.7414ZM36.5482 4.78231C36.5482 6.35495 35.427 7.69861 33.8862 7.98744L32.5965 1.10728C30.8361 1.43727 29.5482 2.97643 29.5482 4.78231H36.5482ZM36.5482 8.56983V4.78231H29.5482V8.56983H36.5482ZM32.9792 12.0698H33.0482V5.06983H32.9792V12.0698ZM36.2273 8.82365C36.2273 10.592 34.7983 12.0698 32.9792 12.0698V5.06983C30.8827 5.06983 29.2273 6.77578 29.2273 8.82365H36.2273ZM36.2273 9.69743V8.82365H29.2273V9.69743H36.2273ZM33.1907 6.45785C34.9173 6.57081 36.2273 8.00426 36.2273 9.69743H29.2273C29.2273 11.6581 30.745 13.3128 32.7337 13.4429L33.1907 6.45785ZM32.9792 6.45124C32.9519 6.45124 33.1848 6.44634 33.461 6.48611L32.4634 13.4147C32.6109 13.4359 32.7379 13.4447 32.8351 13.4485C32.881 13.4503 32.9184 13.4508 32.9416 13.4511C32.9534 13.4512 32.963 13.4512 32.9689 13.4512C32.9744 13.4512 32.9792 13.4512 32.9792 13.4512V6.45124ZM33.604 6.45124H32.9792V13.4512H33.604V6.45124ZM37.104 26.9938V9.95124H30.104V26.9938H37.104ZM26.5903 30.4938H33.604V23.4938H26.5903V30.4938ZM30.0903 29.6239V26.9938H23.0903V29.6239H30.0903ZM30.4657 30.383L29.9461 28.6296L23.2345 30.6182L23.7541 32.3716L30.4657 30.383ZM33.604 27.8773H27.1099V34.8773H33.604V27.8773ZM37.104 53.0075L37.104 31.3773L30.104 31.3773L30.104 53.0075L37.104 53.0075ZM37.1109 53.0143C37.1058 53.0143 37.1045 53.0139 37.1058 53.0142C37.1069 53.0144 37.1082 53.0148 37.1093 53.0152C37.111 53.016 37.1092 53.0155 37.106 53.0123C37.1029 53.0092 37.1024 53.0074 37.1031 53.0091C37.1036 53.0102 37.104 53.0115 37.1042 53.0126C37.1045 53.0139 37.104 53.0126 37.104 53.0075H30.104C30.104 56.8773 33.2411 60.0143 37.1109 60.0143V53.0143ZM45.0385 53.0143L37.1109 53.0143L37.1109 60.0143L45.0385 60.0143L45.0385 53.0143ZM45.3868 53.0317L45.3868 53.0317L44.6903 59.997L44.6903 59.997L45.3868 53.0317ZM45.5899 53.0227C45.4887 53.0297 45.4073 53.0294 45.3619 53.0281C45.3177 53.0268 45.3195 53.025 45.3857 53.0316L44.6915 59.9971C44.8227 60.0102 45.3521 60.056 46.0741 60.006L45.5899 53.0227ZM45.878 53.0143H45.832V60.0143H45.878V53.0143ZM45.8791 53.0155C45.8799 53.0151 45.8813 53.0146 45.8828 53.0142C45.8846 53.0138 45.8835 53.0143 45.878 53.0143V60.0143C46.9501 60.0143 47.9752 59.7712 48.8926 59.3336L45.8791 53.0155ZM45.885 53.0075C45.885 53.1689 45.8642 53.2266 45.8689 53.2114C45.8709 53.2046 45.8775 53.1852 45.8916 53.1571C45.9057 53.1289 45.9244 53.0975 45.9479 53.0655C45.9968 52.9988 46.0472 52.9549 46.0785 52.9322C46.1064 52.9121 46.1099 52.9152 46.0741 52.9297L48.6976 59.4194C49.6489 59.0349 50.7431 58.3633 51.5921 57.2059C52.4621 56.0199 52.885 54.5813 52.885 53.0075H45.885ZM49.4347 42.9253C45.9348 42.897 45.9348 42.897 45.9348 42.897C45.9348 42.8971 45.9348 42.8972 45.9348 42.8973C45.9348 42.8975 45.9348 42.8978 45.9348 42.8981C45.9348 42.8989 45.9348 42.9001 45.9347 42.9016C45.9347 42.9046 45.9347 42.9091 45.9346 42.915C45.9345 42.9268 45.9344 42.9444 45.9342 42.9674C45.9338 43.0136 45.9333 43.0816 45.9326 43.1696C45.9313 43.3456 45.9293 43.6012 45.927 43.9202C45.9223 44.5583 45.9161 45.4501 45.9099 46.4655C45.8974 48.4942 45.885 51.0237 45.885 53.0075H52.885C52.885 51.0461 52.8973 48.5344 52.9097 46.5084C52.9159 45.4964 52.9222 44.6074 52.9268 43.9715C52.9291 43.6535 52.9311 43.3989 52.9324 43.2238C52.9331 43.1363 52.9336 43.0686 52.934 43.0229C52.9342 43.0001 52.9343 42.9827 52.9344 42.9711C52.9345 42.9653 52.9345 42.9609 52.9345 42.958C52.9345 42.9565 52.9345 42.9554 52.9345 42.9547C52.9345 42.9543 52.9345 42.9541 52.9345 42.9539C52.9345 42.9538 52.9345 42.9537 52.9345 42.9537C52.9345 42.9537 52.9345 42.9536 49.4347 42.9253ZM45.9347 32.4127V42.9253H52.9347V32.4127H45.9347ZM45.9347 31.3773L45.9347 32.4127L52.9347 32.4127L52.9347 31.3773L45.9347 31.3773ZM55.5218 27.8773H49.4347V34.8773H55.5218V27.8773ZM59.0218 59.4321V31.3773H52.0218V59.4321H59.0218ZM55.5218 55.9321H41.4944V62.9321H55.5218V55.9321ZM41.4944 55.9321H27.5503V62.9321H41.4944V55.9321ZM24.4804 57.7513L23.5203 59.5047L29.6603 62.8664L30.6203 61.113L24.4804 57.7513ZM23.0903 61.1855V68.1992H30.0903V61.1855H23.0903ZM26.5903 71.6992H61.6588V64.6992H26.5903V71.6992ZM65.1588 68.1992V61.1855H58.1588V68.1992H65.1588ZM64.7288 59.5047L63.7688 57.7513L57.6288 61.113L58.5888 62.8664L64.7288 59.5047ZM60.6988 55.9321H57.2753V62.9321H60.6988V55.9321ZM53.7753 31.3773V59.4321H60.7753V31.3773H53.7753ZM61.1393 27.8773H57.2753V34.8773H61.1393V27.8773ZM58.2007 28.752L57.7496 30.5054L64.5289 32.2493L64.98 30.4958L58.2007 28.752ZM61.6593 26.1239L61.5908 26.1239L61.5898 33.1239L61.6583 33.1239L61.6593 26.1239ZM58.1588 26.9938V29.6239H65.1588V26.9938H58.1588ZM49.4347 30.4938H61.6588V23.4938H49.4347V30.4938ZM45.9347 14.8064V26.9938H52.9347V14.8064H45.9347ZM45.9347 9.95125L45.9347 14.8064L52.9347 14.8064L52.9347 9.95124L45.9347 9.95125ZM50.0088 6.45124H49.4347V13.4512H50.0088V6.45124ZM50.0011 6.45125L49.9965 6.45126L50.0211 13.4512L50.0257 13.4512L50.0011 6.45125ZM49.8948 6.45323L49.8881 6.45347L50.1387 13.449L50.1454 13.4487L49.8948 6.45323ZM49.6584 6.46972L49.6527 6.47032L50.3875 13.4316L50.3932 13.431L49.6584 6.46972ZM46.7616 9.69743C46.7616 7.98822 48.0867 6.56976 49.7973 6.45785L50.2543 13.4429C52.2271 13.3139 53.7616 11.6742 53.7616 9.69743H46.7616Z" fill="#003E6B" mask="url(#path-3-outside-1)"/>
<path d="M33.604 8.29517H49.3848V53.0075C49.3848 54.9443 47.8148 56.5143 45.878 56.5143H37.1109C35.1741 56.5143 33.604 54.9443 33.604 53.0075V8.29517Z" fill="#FAA262"/>
<path d="M33.6089 14.8064H49.4348V28.8338H33.6089V14.8064Z" fill="white"/>
<path d="M45.0386 9.17188H49.4347C49.4347 9.17188 49.4347 29.8304 49.4347 32.4127C49.4347 34.995 49.4347 42.9253 49.4347 42.9253C49.4347 42.9253 49.385 49.0623 49.385 53.0075C49.385 56.9527 45.0386 56.5143 45.0386 56.5143L45.0386 32.4127V9.17188Z" fill="black" fill-opacity="0.1"/>
<path d="M50.2618 8.82365V9.69743C50.2618 9.83119 50.1571 9.94181 50.026 9.95038C50.0201 9.95124 50.015 9.95124 50.009 9.95124H32.9795C32.9735 9.95124 32.9684 9.95124 32.9624 9.95038C32.8314 9.94181 32.7275 9.83119 32.7275 9.69743V8.82365C32.7275 8.68388 32.8407 8.56983 32.9795 8.56983H33.0484V4.78231C33.0484 4.66569 33.1318 4.56794 33.2416 4.54736V4.43846C33.2416 4.30726 33.3488 4.19922 33.4799 4.19922H49.5095C49.5707 4.19922 49.6269 4.22323 49.6695 4.26182C49.6763 4.26782 49.6822 4.27382 49.6882 4.28068C49.6899 4.28239 49.6916 4.28411 49.6933 4.28668C49.7273 4.32784 49.7478 4.38101 49.7478 4.43846V4.54736C49.8567 4.5688 49.9409 4.66655 49.9409 4.78231V8.56983H50.0099C50.1486 8.56897 50.2618 8.68302 50.2618 8.82365Z" fill="#3295BA"/>
<path d="M39.3053 9.69657V8.82365C39.3053 8.68388 39.4185 8.56983 39.5572 8.56983H39.6262V4.78231C39.6262 4.66569 39.7096 4.56794 39.8194 4.54736V4.43846C39.8194 4.30726 39.9266 4.19922 40.0577 4.19922H33.4799C33.3488 4.19922 33.2416 4.3064 33.2416 4.43846V4.54736C33.1326 4.5688 33.0484 4.66655 33.0484 4.78231V8.56983H32.9795C32.8407 8.56983 32.7275 8.68388 32.7275 8.82365V9.69743C32.7275 9.83119 32.8314 9.94181 32.9624 9.95038C32.9684 9.95124 32.9735 9.95124 32.9795 9.95124H39.5572C39.5513 9.95124 39.5462 9.95124 39.5402 9.95038C39.4092 9.94095 39.3053 9.83034 39.3053 9.69657Z" fill="#54BCE3"/>
<path d="M34.0688 4.64014H33.6611V8.55714H34.0688V4.64014Z" fill="#156988"/>
<path d="M34.9164 4.63989H34.5088V8.55689H34.9164V4.63989Z" fill="#156988"/>
<path d="M35.7645 4.63989H35.356V8.55689H35.7645V4.63989Z" fill="#156988"/>
<path d="M36.6113 4.63989H36.2036V8.55689H36.6113V4.63989Z" fill="#156988"/>
<path d="M37.4594 4.63989H37.0518V8.55689H37.4594V4.63989Z" fill="#156988"/>
<path d="M38.3079 4.63989H37.8994V8.55689H38.3079V4.63989Z" fill="#156988"/>
<path d="M39.1542 4.63989H38.7466V8.55689H39.1542V4.63989Z" fill="#156988"/>
<path d="M40.0019 4.63989H39.5942V8.55689H40.0019V4.63989Z" fill="#156988"/>
<path d="M40.8495 4.63989H40.4419V8.55689H40.8495V4.63989Z" fill="#156988"/>
<path d="M41.6977 4.63989H41.29V8.55689H41.6977V4.63989Z" fill="#156988"/>
<path d="M42.5458 4.63989H42.1382V8.55689H42.5458V4.63989Z" fill="#156988"/>
<path d="M43.3943 4.63989H42.9858V8.55689H43.3943V4.63989Z" fill="#156988"/>
<path d="M44.2411 4.63989H43.8335V8.55689H44.2411V4.63989Z" fill="#156988"/>
<path d="M45.0897 4.63989H44.6812V8.55689H45.0897V4.63989Z" fill="#156988"/>
<path d="M45.9373 4.63989H45.5288V8.55689H45.9373V4.63989Z" fill="#156988"/>
<path d="M46.785 4.63989H46.3765V8.55689H46.785V4.63989Z" fill="#156988"/>
<path d="M47.6326 4.63989H47.2241V8.55689H47.6326V4.63989Z" fill="#156988"/>
<path d="M48.4794 4.63989H48.0718V8.55689H48.4794V4.63989Z" fill="#156988"/>
<path d="M49.3271 4.63989H48.9194V8.55689H49.3271V4.63989Z" fill="#156988"/>
<path d="M26.5903 61.1855H61.6588V68.1992H26.5903V61.1855Z" fill="#00AEEF"/>
<path d="M27.5503 59.4321H60.6988L61.6588 61.1856H26.5903L27.5503 59.4321Z" fill="#99DFF9"/>
<path d="M26.5903 26.9937H61.6588V29.6238H26.5903V26.9937Z" fill="#00AEEF"/>
<path d="M49.3848 59.8705C49.3848 60.1126 45.8522 60.3088 41.4944 60.3088C37.1367 60.3088 33.604 60.1126 33.604 59.8705C33.604 59.6284 37.1367 59.4321 41.4944 59.4321C45.8522 59.4321 49.3848 59.6284 49.3848 59.8705Z" fill="black" fill-opacity="0.3"/>
<path fill-rule="evenodd" clip-rule="evenodd" d="M61.6588 29.6238H26.5903L27.1099 31.3772H33.604V30.5005H49.3849V31.3772H61.1393L61.6588 29.6238Z" fill="#008BC0"/>
<path d="M55.522 30.5005H57.2754V60.3087H55.522V30.5005Z" fill="#00AEEF"/>
</svg>
