<svg width="116" height="102" viewBox="0 0 116 102" fill="none" xmlns="http://www.w3.org/2000/svg">
<rect x="0.59082" y="79.1992" width="115" height="22" rx="5" fill="#003E6B"/>
<path d="M10.055 97.9292H11.855V94.4042C12.44 95.0792 13.145 95.3792 14.075 95.3792C15.86 95.3792 16.895 94.2692 16.895 92.1542V90.4442C16.895 88.3292 15.86 87.2342 14.075 87.2342C13.025 87.2342 12.26 87.6242 11.645 88.4792L11.585 87.4142H10.055V97.9292ZM13.73 93.8792C12.905 93.8792 12.275 93.3842 11.855 92.4542V90.1442C12.275 89.2292 12.905 88.7342 13.715 88.7342C14.6 88.7342 15.095 89.3042 15.095 90.4742V92.1392C15.095 93.3242 14.6 93.8792 13.73 93.8792ZM20.7951 95.3792C21.8901 95.3792 22.7001 94.9742 23.2851 94.1792L23.3451 95.1992H24.8751V90.1592C24.8751 88.1642 23.8701 87.2342 21.7251 87.2342C19.6701 87.2342 18.6201 88.1042 18.5001 89.8142H20.2401C20.2851 89.0792 20.7501 88.6892 21.6651 88.6892C22.6401 88.6892 23.0751 89.1542 23.0751 90.1442V90.4892H21.4251C19.3101 90.4892 18.2751 91.3742 18.2751 92.9792C18.2751 94.5092 19.2351 95.3792 20.7951 95.3792ZM21.2451 93.9242C20.4651 93.9242 20.0601 93.5492 20.0601 92.8742C20.0601 92.1542 20.4951 91.7792 21.6651 91.7792H23.0751V92.7392C22.6851 93.5192 22.0701 93.9242 21.2451 93.9242ZM26.93 95.1992H28.73V90.1442C29.165 89.2592 29.735 88.8242 30.47 88.8242C31.22 88.8242 31.58 89.2592 31.58 90.2192V95.1992H33.38V90.0542C33.38 88.1942 32.555 87.2342 30.935 87.2342C29.915 87.2342 29.15 87.6092 28.52 88.4792L28.46 87.4142H26.93V95.1992ZM38.4846 95.3792C40.5546 95.3792 41.6646 94.3592 41.7096 92.3492H39.9846C39.9246 93.4142 39.4596 93.8792 38.4996 93.8792C37.4496 93.8792 36.9546 93.3242 36.9546 92.0492V90.5642C36.9546 89.2892 37.4496 88.7342 38.4996 88.7342C39.4596 88.7342 39.9246 89.1992 39.9846 90.2492H41.7096C41.6646 88.2392 40.5546 87.2342 38.4846 87.2342C36.2946 87.2342 35.1546 88.3592 35.1546 90.5342V92.0642C35.1546 94.2542 36.2946 95.3792 38.4846 95.3792ZM43.3216 95.1992H45.1216V90.7292C45.3616 89.4842 45.9766 88.9742 47.1766 88.9742H47.5816V87.2642H47.0266C45.9316 87.2642 45.2716 87.7592 44.9266 88.8392L44.8516 87.4142H43.3216V95.1992ZM51.9644 95.3792C53.9744 95.3792 55.1294 94.5092 55.2194 92.8442H53.4944C53.4344 93.5192 52.9094 93.9242 51.9644 93.9242C50.8094 93.9242 50.2994 93.3392 50.2994 92.0792V91.8392H55.2644V90.5492C55.2644 88.4042 54.0944 87.2342 51.8744 87.2342C49.6844 87.2342 48.4994 88.3892 48.4994 90.5342V92.0642C48.4994 94.2392 49.6994 95.3792 51.9644 95.3792ZM50.2994 90.5042C50.2994 89.2442 50.7944 88.6892 51.9344 88.6892C53.0594 88.6892 53.5544 89.2442 53.5544 90.5042H50.2994ZM59.1447 95.3792C60.2397 95.3792 61.0497 94.9742 61.6347 94.1792L61.6947 95.1992H63.2247V90.1592C63.2247 88.1642 62.2197 87.2342 60.0747 87.2342C58.0197 87.2342 56.9697 88.1042 56.8497 89.8142H58.5897C58.6347 89.0792 59.0997 88.6892 60.0147 88.6892C60.9897 88.6892 61.4247 89.1542 61.4247 90.1442V90.4892H59.7747C57.6597 90.4892 56.6247 91.3742 56.6247 92.9792C56.6247 94.5092 57.5847 95.3792 59.1447 95.3792ZM59.5947 93.9242C58.8147 93.9242 58.4097 93.5492 58.4097 92.8742C58.4097 92.1542 58.8447 91.7792 60.0147 91.7792H61.4247V92.7392C61.0347 93.5192 60.4197 93.9242 59.5947 93.9242ZM67.9496 95.3792C70.0796 95.3792 71.1446 94.5542 71.1446 92.9192C71.1446 91.4342 70.3796 90.7292 68.3546 90.5042C67.0796 90.3692 66.6146 90.1142 66.6146 89.4992C66.6146 88.9442 67.0796 88.6142 67.9346 88.6142C68.8346 88.6142 69.2546 88.9592 69.2546 89.6792H70.9796C70.9796 88.0742 69.9446 87.2342 67.9496 87.2342C65.9546 87.2342 64.8446 88.0892 64.8446 89.6942C64.8446 91.1342 65.6096 91.7642 67.5896 92.0042C68.9096 92.1692 69.3746 92.4392 69.3746 93.0842C69.3746 93.6842 68.9096 93.9992 67.9496 93.9992C66.8996 93.9992 66.4046 93.6242 66.4046 92.8592H64.6946C64.6946 94.5392 65.7446 95.3792 67.9496 95.3792ZM79.5589 95.3792C81.6289 95.3792 82.7389 94.3592 82.7839 92.3492H81.0589C80.9989 93.4142 80.5339 93.8792 79.5739 93.8792C78.5239 93.8792 78.0289 93.3242 78.0289 92.0492V90.5642C78.0289 89.2892 78.5239 88.7342 79.5739 88.7342C80.5339 88.7342 80.9989 89.1992 81.0589 90.2492H82.7839C82.7389 88.2392 81.6289 87.2342 79.5589 87.2342C77.3689 87.2342 76.2289 88.3592 76.2289 90.5342V92.0642C76.2289 94.2542 77.3689 95.3792 79.5589 95.3792ZM87.7066 95.3792C89.7166 95.3792 90.8716 94.5092 90.9616 92.8442H89.2366C89.1766 93.5192 88.6516 93.9242 87.7066 93.9242C86.5516 93.9242 86.0416 93.3392 86.0416 92.0792V91.8392H91.0066V90.5492C91.0066 88.4042 89.8366 87.2342 87.6166 87.2342C85.4266 87.2342 84.2416 88.3892 84.2416 90.5342V92.0642C84.2416 94.2392 85.4416 95.3792 87.7066 95.3792ZM86.0416 90.5042C86.0416 89.2442 86.5366 88.6892 87.6766 88.6892C88.8016 88.6892 89.2966 89.2442 89.2966 90.5042H86.0416ZM92.8333 95.1992H94.6333V84.2492H92.8333V95.1992ZM96.8177 95.1992H98.6177V84.2492H96.8177V95.1992ZM103.472 95.3792C105.602 95.3792 106.667 94.5542 106.667 92.9192C106.667 91.4342 105.902 90.7292 103.877 90.5042C102.602 90.3692 102.137 90.1142 102.137 89.4992C102.137 88.9442 102.602 88.6142 103.457 88.6142C104.357 88.6142 104.777 88.9592 104.777 89.6792H106.502C106.502 88.0742 105.467 87.2342 103.472 87.2342C101.477 87.2342 100.367 88.0892 100.367 89.6942C100.367 91.1342 101.132 91.7642 103.112 92.0042C104.432 92.1692 104.897 92.4392 104.897 93.0842C104.897 93.6842 104.432 93.9992 103.472 93.9992C102.422 93.9992 101.927 93.6242 101.927 92.8592H100.217C100.217 94.5392 101.267 95.3792 103.472 95.3792Z" fill="white"/>
<mask id="path-3-outside-1" maskUnits="userSpaceOnUse" x="36.5908" y="0.199219" width="43" height="72" fill="black">
<rect fill="white" x="36.5908" y="0.199219" width="43" height="72"/>
<path fill-rule="evenodd" clip-rule="evenodd" d="M64.2621 9.69743V8.82365C64.2621 8.68302 64.1489 8.56897 64.0101 8.56983H63.9412V4.78231C63.9412 4.66655 63.857 4.5688 63.748 4.54736V4.43846C63.748 4.38101 63.7276 4.32784 63.6936 4.28668C63.6918 4.28411 63.6901 4.28239 63.6884 4.28068C63.6825 4.27382 63.6765 4.26782 63.6697 4.26182C63.6272 4.22323 63.571 4.19922 63.5097 4.19922H54.0579H47.4801C47.3491 4.19922 47.2418 4.3064 47.2418 4.43846V4.54736C47.1321 4.56794 47.0487 4.66569 47.0487 4.78231V8.56983H46.9797C46.841 8.56983 46.7278 8.68388 46.7278 8.82365V9.69743C46.7278 9.83119 46.8316 9.94181 46.9627 9.95038C46.9687 9.95124 46.9738 9.95124 46.9797 9.95124H47.6045V26.9938H40.5908V29.6239L41.1104 31.3773H47.6045L47.6045 53.0075C47.6045 54.9443 49.1746 56.5143 51.1114 56.5143L59.039 56.5143L59.0391 56.5143C59.0431 56.5147 59.3652 56.5467 59.8325 56.5143H59.8785C60.4183 56.5143 60.9296 56.3924 61.3863 56.1745C62.4119 55.7599 63.3854 54.8747 63.3854 53.0075C63.3854 49.0623 63.4352 42.9253 63.4352 42.9253V32.4127L63.4352 31.3773H69.5223V59.4321H55.4949H41.5508L40.5908 61.1855V68.1992H75.6593V61.1855L74.6993 59.4321H71.2758V31.3773H75.1398L75.5908 29.6239L75.6593 29.6239V26.9938H63.4352V14.8064L63.4352 9.95124H64.0093L64.0139 9.95122L64.0206 9.95098L64.0263 9.95038C64.1574 9.94181 64.2621 9.83119 64.2621 9.69743Z"/>
</mask>
<path fill-rule="evenodd" clip-rule="evenodd" d="M64.2621 9.69743V8.82365C64.2621 8.68302 64.1489 8.56897 64.0101 8.56983H63.9412V4.78231C63.9412 4.66655 63.857 4.5688 63.748 4.54736V4.43846C63.748 4.38101 63.7276 4.32784 63.6936 4.28668C63.6918 4.28411 63.6901 4.28239 63.6884 4.28068C63.6825 4.27382 63.6765 4.26782 63.6697 4.26182C63.6272 4.22323 63.571 4.19922 63.5097 4.19922H54.0579H47.4801C47.3491 4.19922 47.2418 4.3064 47.2418 4.43846V4.54736C47.1321 4.56794 47.0487 4.66569 47.0487 4.78231V8.56983H46.9797C46.841 8.56983 46.7278 8.68388 46.7278 8.82365V9.69743C46.7278 9.83119 46.8316 9.94181 46.9627 9.95038C46.9687 9.95124 46.9738 9.95124 46.9797 9.95124H47.6045V26.9938H40.5908V29.6239L41.1104 31.3773H47.6045L47.6045 53.0075C47.6045 54.9443 49.1746 56.5143 51.1114 56.5143L59.039 56.5143L59.0391 56.5143C59.0431 56.5147 59.3652 56.5467 59.8325 56.5143H59.8785C60.4183 56.5143 60.9296 56.3924 61.3863 56.1745C62.4119 55.7599 63.3854 54.8747 63.3854 53.0075C63.3854 49.0623 63.4352 42.9253 63.4352 42.9253V32.4127L63.4352 31.3773H69.5223V59.4321H55.4949H41.5508L40.5908 61.1855V68.1992H75.6593V61.1855L74.6993 59.4321H71.2758V31.3773H75.1398L75.5908 29.6239L75.6593 29.6239V26.9938H63.4352V14.8064L63.4352 9.95124H64.0093L64.0139 9.95122L64.0206 9.95098L64.0263 9.95038C64.1574 9.94181 64.2621 9.83119 64.2621 9.69743Z" fill="#003E6B"/>
<path d="M64.0101 8.56983V12.0698C64.0173 12.0698 64.0246 12.0698 64.0318 12.0698L64.0101 8.56983ZM63.9412 8.56983H60.4412C60.4412 10.5028 62.0082 12.0698 63.9412 12.0698V8.56983ZM63.748 4.54736H60.248C60.248 6.21981 61.4312 7.65857 63.0722 7.98149L63.748 4.54736ZM63.6936 4.28668L60.7753 6.21893C60.8437 6.32226 60.9175 6.42188 60.9965 6.51737L63.6936 4.28668ZM63.6884 4.28068L61.0457 6.57544C61.0969 6.63441 61.1501 6.69165 61.2051 6.74706L63.6884 4.28068ZM63.6697 4.26182L61.3186 6.85456C61.3306 6.86547 61.3427 6.87629 61.3549 6.88702L63.6697 4.26182ZM47.2418 4.54736L47.8867 7.98744C49.5422 7.67712 50.7418 6.23167 50.7418 4.54736H47.2418ZM47.0487 8.56983V12.0698C48.9817 12.0698 50.5487 10.5028 50.5487 8.56983H47.0487ZM46.9627 9.95038L47.4615 6.48611C47.3718 6.47319 47.2816 6.46377 47.1912 6.45785L46.9627 9.95038ZM47.6045 9.95124H51.1045C51.1045 8.01824 49.5375 6.45124 47.6045 6.45124V9.95124ZM47.6045 26.9938V30.4938C49.5375 30.4938 51.1045 28.9268 51.1045 26.9938H47.6045ZM40.5908 26.9938V23.4938C38.6578 23.4938 37.0908 25.0608 37.0908 26.9938H40.5908ZM40.5908 29.6239H37.0908C37.0908 29.9606 37.1394 30.2954 37.235 30.6182L40.5908 29.6239ZM41.1104 31.3773L37.7546 32.3716C38.1949 33.8578 39.5603 34.8773 41.1104 34.8773V31.3773ZM47.6045 31.3773L51.1045 31.3773C51.1045 30.4491 50.7358 29.5588 50.0794 28.9025C49.423 28.2461 48.5328 27.8773 47.6045 27.8773V31.3773ZM47.6045 53.0075L44.1045 53.0075V53.0075H47.6045ZM51.1114 56.5143L51.1114 60.0143L51.1114 60.0143L51.1114 56.5143ZM59.039 56.5143L59.3873 53.0317C59.2716 53.0201 59.1553 53.0143 59.039 53.0143L59.039 56.5143ZM59.0391 56.5143L58.6908 59.997L58.6919 59.9971L59.0391 56.5143ZM59.8325 56.5143V53.0143C59.7517 53.0143 59.671 53.0171 59.5904 53.0227L59.8325 56.5143ZM61.3863 56.1745L60.0746 52.9297C60.0087 52.9563 59.9437 52.9849 59.8796 53.0155L61.3863 56.1745ZM63.4352 42.9253L66.935 42.9536C66.9351 42.9442 66.9352 42.9347 66.9352 42.9253L63.4352 42.9253ZM63.4352 32.4127L59.9352 32.4127V32.4127H63.4352ZM63.4352 31.3773V27.8773C61.5022 27.8773 59.9352 29.4443 59.9352 31.3773L63.4352 31.3773ZM69.5223 31.3773H73.0223C73.0223 29.4443 71.4553 27.8773 69.5223 27.8773V31.3773ZM69.5223 59.4321V62.9321C71.4553 62.9321 73.0223 61.3651 73.0223 59.4321H69.5223ZM41.5508 59.4321V55.9321C40.272 55.9321 39.095 56.6296 38.4808 57.7513L41.5508 59.4321ZM40.5908 61.1855L37.5208 59.5047C37.2387 60.02 37.0908 60.5981 37.0908 61.1855H40.5908ZM40.5908 68.1992H37.0908C37.0908 70.1322 38.6578 71.6992 40.5908 71.6992V68.1992ZM75.6593 68.1992V71.6992C77.5923 71.6992 79.1593 70.1322 79.1593 68.1992H75.6593ZM75.6593 61.1855H79.1593C79.1593 60.5981 79.0114 60.02 78.7293 59.5047L75.6593 61.1855ZM74.6993 59.4321L77.7693 57.7513C77.1552 56.6296 75.9781 55.9321 74.6993 55.9321V59.4321ZM71.2758 59.4321H67.7758C67.7758 61.3651 69.3428 62.9321 71.2758 62.9321V59.4321ZM71.2758 31.3773V27.8773C69.3428 27.8773 67.7758 29.4443 67.7758 31.3773H71.2758ZM75.1398 31.3773V34.8773C76.737 34.8773 78.1315 33.7961 78.5294 32.2493L75.1398 31.3773ZM75.5908 29.6239L75.5913 26.1239C73.994 26.1237 72.5991 27.205 72.2012 28.752L75.5908 29.6239ZM75.6593 29.6239L75.6588 33.1239C76.5872 33.124 77.4775 32.7553 78.134 32.099C78.7905 31.4426 79.1593 30.5523 79.1593 29.6239H75.6593ZM75.6593 26.9938H79.1593C79.1593 25.0608 77.5923 23.4938 75.6593 23.4938V26.9938ZM63.4352 26.9938H59.9352C59.9352 28.9268 61.5022 30.4938 63.4352 30.4938V26.9938ZM63.4352 14.8064L66.9352 14.8064L66.9352 14.8064L63.4352 14.8064ZM63.4352 9.95124V6.45124C62.5069 6.45124 61.6167 6.81999 60.9603 7.47637C60.3039 8.13275 59.9352 9.02299 59.9352 9.95125L63.4352 9.95124ZM64.0093 9.95124L64.0093 13.4513L64.0216 13.4512L64.0093 9.95124ZM64.0139 9.95122L64.0262 13.4512C64.0639 13.4511 64.1016 13.4503 64.1392 13.449L64.0139 9.95122ZM64.0206 9.95098L64.1459 13.4487C64.2268 13.4458 64.3075 13.4401 64.388 13.4316L64.0206 9.95098ZM64.0263 9.95038L63.7978 6.45785C63.7514 6.46088 63.7051 6.46484 63.6589 6.46972L64.0263 9.95038ZM60.7621 8.82365V9.69743H67.7621V8.82365H60.7621ZM64.0318 12.0698C62.1839 12.0812 60.7621 10.579 60.7621 8.82365H67.7621C67.7621 6.78708 66.1138 5.05676 63.9885 5.0699L64.0318 12.0698ZM63.9412 12.0698H64.0101V5.06983H63.9412V12.0698ZM60.4412 4.78231V8.56983H67.4412V4.78231H60.4412ZM63.0722 7.98149C61.5808 7.688 60.4412 6.38006 60.4412 4.78231H67.4412C67.4412 2.95303 66.1331 1.44959 64.4238 1.11322L63.0722 7.98149ZM60.248 4.43846V4.54736H67.248V4.43846H60.248ZM60.9965 6.51737C60.527 5.94967 60.248 5.21922 60.248 4.43846H67.248C67.248 3.5428 66.9282 2.70602 66.3906 2.056L60.9965 6.51737ZM61.2051 6.74706C61.214 6.75602 61.1441 6.68688 61.0665 6.59899C60.9778 6.49839 60.8766 6.37194 60.7753 6.21893L66.6118 2.35444C66.4012 2.03626 66.1789 1.82143 66.1718 1.8143L61.2051 6.74706ZM61.3549 6.88702C61.2454 6.79043 61.1418 6.68606 61.0457 6.57544L66.3312 1.98592C66.2232 1.86158 66.1077 1.74521 65.9845 1.63661L61.3549 6.88702ZM63.5097 7.69922C62.639 7.69922 61.8718 7.35617 61.3186 6.85456L66.0208 1.66907C65.3825 1.09029 64.503 0.699219 63.5097 0.699219V7.69922ZM54.0579 7.69922H63.5097V0.699219H54.0579V7.69922ZM47.4801 7.69922H54.0579V0.699219H47.4801V7.69922ZM50.7418 4.43846C50.7418 6.23084 49.2906 7.69922 47.4801 7.69922V0.699219C45.4075 0.699219 43.7418 2.38197 43.7418 4.43846H50.7418ZM50.7418 4.54736V4.43846H43.7418V4.54736H50.7418ZM50.5487 4.78231C50.5487 6.35495 49.4275 7.69861 47.8867 7.98744L46.597 1.10728C44.8366 1.43727 43.5487 2.97643 43.5487 4.78231H50.5487ZM50.5487 8.56983V4.78231H43.5487V8.56983H50.5487ZM46.9797 12.0698H47.0487V5.06983H46.9797V12.0698ZM50.2278 8.82365C50.2278 10.592 48.7988 12.0698 46.9797 12.0698V5.06983C44.8832 5.06983 43.2278 6.77578 43.2278 8.82365H50.2278ZM50.2278 9.69743V8.82365H43.2278V9.69743H50.2278ZM47.1912 6.45785C48.9178 6.57081 50.2278 8.00426 50.2278 9.69743H43.2278C43.2278 11.6581 44.7455 13.3128 46.7342 13.4429L47.1912 6.45785ZM46.9797 6.45124C46.9524 6.45124 47.1853 6.44634 47.4615 6.48611L46.4639 13.4147C46.6114 13.4359 46.7384 13.4447 46.8356 13.4485C46.8815 13.4503 46.9189 13.4508 46.9421 13.4511C46.9538 13.4512 46.9634 13.4512 46.9694 13.4512C46.9749 13.4512 46.9797 13.4512 46.9797 13.4512V6.45124ZM47.6045 6.45124H46.9797V13.4512H47.6045V6.45124ZM51.1045 26.9938V9.95124H44.1045V26.9938H51.1045ZM40.5908 30.4938H47.6045V23.4938H40.5908V30.4938ZM44.0908 29.6239V26.9938H37.0908V29.6239H44.0908ZM44.4661 30.383L43.9466 28.6296L37.235 30.6182L37.7546 32.3716L44.4661 30.383ZM47.6045 27.8773H41.1104V34.8773H47.6045V27.8773ZM51.1045 53.0075L51.1045 31.3773L44.1045 31.3773L44.1045 53.0075L51.1045 53.0075ZM51.1114 53.0143C51.1063 53.0143 51.105 53.0139 51.1063 53.0142C51.1074 53.0144 51.1087 53.0148 51.1098 53.0152C51.1115 53.016 51.1097 53.0155 51.1065 53.0123C51.1034 53.0092 51.1029 53.0074 51.1036 53.0091C51.1041 53.0102 51.1045 53.0115 51.1047 53.0126C51.105 53.0139 51.1045 53.0126 51.1045 53.0075H44.1045C44.1045 56.8773 47.2416 60.0143 51.1114 60.0143V53.0143ZM59.039 53.0143L51.1114 53.0143L51.1114 60.0143L59.039 60.0143L59.039 53.0143ZM59.3873 53.0317L59.3873 53.0317L58.6908 59.997L58.6908 59.997L59.3873 53.0317ZM59.5904 53.0227C59.4892 53.0297 59.4078 53.0294 59.3624 53.0281C59.3182 53.0268 59.32 53.025 59.3862 53.0316L58.6919 59.9971C58.8232 60.0102 59.3525 60.056 60.0746 60.006L59.5904 53.0227ZM59.8785 53.0143H59.8325V60.0143H59.8785V53.0143ZM59.8796 53.0155C59.8804 53.0151 59.8818 53.0146 59.8833 53.0142C59.8851 53.0138 59.884 53.0143 59.8785 53.0143V60.0143C60.9506 60.0143 61.9757 59.7712 62.8931 59.3336L59.8796 53.0155ZM59.8854 53.0075C59.8854 53.1689 59.8647 53.2266 59.8693 53.2114C59.8714 53.2046 59.878 53.1852 59.8921 53.1571C59.9061 53.1289 59.9249 53.0975 59.9484 53.0655C59.9973 52.9988 60.0476 52.9549 60.079 52.9322C60.1069 52.9121 60.1104 52.9152 60.0746 52.9297L62.6981 59.4194C63.6494 59.0349 64.7436 58.3633 65.5926 57.2059C66.4626 56.0199 66.8854 54.5813 66.8854 53.0075H59.8854ZM63.4352 42.9253C59.9353 42.897 59.9353 42.897 59.9353 42.897C59.9353 42.8971 59.9353 42.8972 59.9353 42.8973C59.9353 42.8975 59.9353 42.8978 59.9353 42.8981C59.9352 42.8989 59.9352 42.9001 59.9352 42.9016C59.9352 42.9046 59.9352 42.9091 59.9351 42.915C59.935 42.9268 59.9349 42.9444 59.9347 42.9674C59.9343 43.0136 59.9338 43.0816 59.9331 43.1696C59.9318 43.3456 59.9298 43.6012 59.9275 43.9202C59.9228 44.5583 59.9166 45.4501 59.9104 46.4655C59.8979 48.4942 59.8854 51.0237 59.8854 53.0075H66.8854C66.8854 51.0461 66.8978 48.5344 66.9102 46.5084C66.9164 45.4964 66.9226 44.6074 66.9273 43.9715C66.9296 43.6535 66.9316 43.3989 66.9329 43.2238C66.9336 43.1363 66.9341 43.0686 66.9345 43.0229C66.9347 43.0001 66.9348 42.9827 66.9349 42.9711C66.9349 42.9653 66.935 42.9609 66.935 42.958C66.935 42.9565 66.935 42.9554 66.935 42.9547C66.935 42.9543 66.935 42.9541 66.935 42.9539C66.935 42.9538 66.935 42.9537 66.935 42.9537C66.935 42.9537 66.935 42.9536 63.4352 42.9253ZM59.9352 32.4127V42.9253H66.9352V32.4127H59.9352ZM59.9352 31.3773L59.9352 32.4127L66.9352 32.4127L66.9352 31.3773L59.9352 31.3773ZM69.5223 27.8773H63.4352V34.8773H69.5223V27.8773ZM73.0223 59.4321V31.3773H66.0223V59.4321H73.0223ZM69.5223 55.9321H55.4949V62.9321H69.5223V55.9321ZM55.4949 55.9321H41.5508V62.9321H55.4949V55.9321ZM38.4808 57.7513L37.5208 59.5047L43.6608 62.8664L44.6208 61.113L38.4808 57.7513ZM37.0908 61.1855V68.1992H44.0908V61.1855H37.0908ZM40.5908 71.6992H75.6593V64.6992H40.5908V71.6992ZM79.1593 68.1992V61.1855H72.1593V68.1992H79.1593ZM78.7293 59.5047L77.7693 57.7513L71.6293 61.113L72.5893 62.8664L78.7293 59.5047ZM74.6993 55.9321H71.2758V62.9321H74.6993V55.9321ZM67.7758 31.3773V59.4321H74.7758V31.3773H67.7758ZM75.1398 27.8773H71.2758V34.8773H75.1398V27.8773ZM72.2012 28.752L71.7501 30.5054L78.5294 32.2493L78.9805 30.4958L72.2012 28.752ZM75.6598 26.1239L75.5913 26.1239L75.5903 33.1239L75.6588 33.1239L75.6598 26.1239ZM72.1593 26.9938V29.6239H79.1593V26.9938H72.1593ZM63.4352 30.4938H75.6593V23.4938H63.4352V30.4938ZM59.9352 14.8064V26.9938H66.9352V14.8064H59.9352ZM59.9352 9.95125L59.9352 14.8064L66.9352 14.8064L66.9352 9.95124L59.9352 9.95125ZM64.0093 6.45124H63.4352V13.4512H64.0093V6.45124ZM64.0015 6.45125L63.9969 6.45126L64.0216 13.4512L64.0262 13.4512L64.0015 6.45125ZM63.8953 6.45323L63.8886 6.45347L64.1392 13.449L64.1459 13.4487L63.8953 6.45323ZM63.6589 6.46972L63.6532 6.47032L64.388 13.4316L64.3937 13.431L63.6589 6.46972ZM60.7621 9.69743C60.7621 7.98822 62.0872 6.56976 63.7978 6.45785L64.2548 13.4429C66.2275 13.3139 67.7621 11.6742 67.7621 9.69743H60.7621Z" fill="#003E6B" mask="url(#path-3-outside-1)"/>
<path d="M47.6045 8.29517H63.3853V53.0075C63.3853 54.9443 61.8152 56.5143 59.8785 56.5143H51.1113C49.1746 56.5143 47.6045 54.9443 47.6045 53.0075V8.29517Z" fill="#FAA262"/>
<path d="M47.6094 14.8064H63.4353V28.8338H47.6094V14.8064Z" fill="white"/>
<path d="M59.0391 9.17188H63.4352C63.4352 9.17188 63.4352 29.8304 63.4352 32.4127C63.4352 34.995 63.4352 42.9253 63.4352 42.9253C63.4352 42.9253 63.3855 49.0623 63.3855 53.0075C63.3855 56.9527 59.0391 56.5143 59.0391 56.5143L59.0391 32.4127V9.17188Z" fill="black" fill-opacity="0.1"/>
<path d="M64.2623 8.82365V9.69743C64.2623 9.83119 64.1576 9.94181 64.0265 9.95038C64.0206 9.95124 64.0155 9.95124 64.0095 9.95124H46.9799C46.974 9.95124 46.9689 9.95124 46.9629 9.95038C46.8319 9.94181 46.728 9.83119 46.728 9.69743V8.82365C46.728 8.68388 46.8412 8.56983 46.9799 8.56983H47.0489V4.78231C47.0489 4.66569 47.1323 4.56794 47.2421 4.54736V4.43846C47.2421 4.30726 47.3493 4.19922 47.4804 4.19922H63.5099C63.5712 4.19922 63.6274 4.22323 63.6699 4.26182C63.6767 4.26782 63.6827 4.27382 63.6887 4.28068C63.6904 4.28239 63.6921 4.28411 63.6938 4.28668C63.7278 4.32784 63.7482 4.38101 63.7482 4.43846V4.54736C63.8572 4.5688 63.9414 4.66655 63.9414 4.78231V8.56983H64.0104C64.1491 8.56897 64.2623 8.68302 64.2623 8.82365Z" fill="#3295BA"/>
<path d="M53.3058 9.69657V8.82365C53.3058 8.68388 53.419 8.56983 53.5577 8.56983H53.6267V4.78231C53.6267 4.66569 53.7101 4.56794 53.8199 4.54736V4.43846C53.8199 4.30726 53.9271 4.19922 54.0581 4.19922H47.4804C47.3493 4.19922 47.2421 4.3064 47.2421 4.43846V4.54736C47.1331 4.5688 47.0489 4.66655 47.0489 4.78231V8.56983H46.9799C46.8412 8.56983 46.728 8.68388 46.728 8.82365V9.69743C46.728 9.83119 46.8319 9.94181 46.9629 9.95038C46.9689 9.95124 46.974 9.95124 46.9799 9.95124H53.5577C53.5518 9.95124 53.5467 9.95124 53.5407 9.95038C53.4096 9.94095 53.3058 9.83034 53.3058 9.69657Z" fill="#54BCE3"/>
<path d="M48.0693 4.64014H47.6616V8.55714H48.0693V4.64014Z" fill="#156988"/>
<path d="M48.9169 4.63989H48.5093V8.55689H48.9169V4.63989Z" fill="#156988"/>
<path d="M49.765 4.63989H49.3564V8.55689H49.765V4.63989Z" fill="#156988"/>
<path d="M50.6118 4.63989H50.2041V8.55689H50.6118V4.63989Z" fill="#156988"/>
<path d="M51.4599 4.63989H51.0522V8.55689H51.4599V4.63989Z" fill="#156988"/>
<path d="M52.3084 4.63989H51.8999V8.55689H52.3084V4.63989Z" fill="#156988"/>
<path d="M53.1547 4.63989H52.7471V8.55689H53.1547V4.63989Z" fill="#156988"/>
<path d="M54.0024 4.63989H53.5947V8.55689H54.0024V4.63989Z" fill="#156988"/>
<path d="M54.85 4.63989H54.4424V8.55689H54.85V4.63989Z" fill="#156988"/>
<path d="M55.6982 4.63989H55.2905V8.55689H55.6982V4.63989Z" fill="#156988"/>
<path d="M56.5463 4.63989H56.1387V8.55689H56.5463V4.63989Z" fill="#156988"/>
<path d="M57.3948 4.63989H56.9863V8.55689H57.3948V4.63989Z" fill="#156988"/>
<path d="M58.2416 4.63989H57.834V8.55689H58.2416V4.63989Z" fill="#156988"/>
<path d="M59.0901 4.63989H58.6816V8.55689H59.0901V4.63989Z" fill="#156988"/>
<path d="M59.9378 4.63989H59.5293V8.55689H59.9378V4.63989Z" fill="#156988"/>
<path d="M60.7855 4.63989H60.377V8.55689H60.7855V4.63989Z" fill="#156988"/>
<path d="M61.6331 4.63989H61.2246V8.55689H61.6331V4.63989Z" fill="#156988"/>
<path d="M62.4799 4.63989H62.0723V8.55689H62.4799V4.63989Z" fill="#156988"/>
<path d="M63.3276 4.63989H62.9199V8.55689H63.3276V4.63989Z" fill="#156988"/>
<path d="M40.5908 61.1855H75.6593V68.1992H40.5908V61.1855Z" fill="#00AEEF"/>
<path d="M41.5508 59.4321H74.6993L75.6593 61.1856H40.5908L41.5508 59.4321Z" fill="#99DFF9"/>
<path d="M40.5908 26.9937H75.6593V29.6238H40.5908V26.9937Z" fill="#00AEEF"/>
<path d="M63.3853 59.8705C63.3853 60.1126 59.8527 60.3088 55.4949 60.3088C51.1371 60.3088 47.6045 60.1126 47.6045 59.8705C47.6045 59.6284 51.1371 59.4321 55.4949 59.4321C59.8527 59.4321 63.3853 59.6284 63.3853 59.8705Z" fill="black" fill-opacity="0.3"/>
<path fill-rule="evenodd" clip-rule="evenodd" d="M75.6593 29.6238H40.5908L41.1104 31.3772H47.6045V30.5005H63.3853V31.3772H75.1398L75.6593 29.6238Z" fill="#008BC0"/>
<path d="M69.5225 30.5005H71.2759V60.3087H69.5225V30.5005Z" fill="#00AEEF"/>
</svg>
