<svg width="115" height="102" viewBox="0 0 115 102" fill="none" xmlns="http://www.w3.org/2000/svg">
<rect x="0.233887" y="79.1992" width="113.781" height="22" rx="5" fill="#003E6B"/>
<path d="M10.9218 95.1992H12.8118L14.4018 89.8592L15.9918 95.1992H17.8518L20.1768 87.4142H18.3618L16.8918 92.9942L15.2418 87.4142H13.6068L11.9568 92.9792L10.4868 87.4142H8.59682L10.9218 95.1992ZM21.3331 86.1692H23.2531V84.4742H21.3331V86.1692ZM21.3931 95.1992H23.1931V87.4142H21.3931V95.1992ZM25.3775 95.1992H27.1775V84.2492H25.3775V95.1992ZM31.8519 95.3792C32.9019 95.3792 33.6669 94.9892 34.2819 94.1192L34.3419 95.1992H35.8719V84.2492H34.0719V88.2242C33.4869 87.5342 32.7819 87.2342 31.8519 87.2342C30.0519 87.2342 29.0319 88.3442 29.0319 90.4592V92.1692C29.0319 94.2842 30.0519 95.3792 31.8519 95.3792ZM32.2119 93.8792C31.3269 93.8792 30.8319 93.3092 30.8319 92.1392V90.4742C30.8319 89.2892 31.3269 88.7342 32.1969 88.7342C33.0369 88.7342 33.6669 89.2442 34.0719 90.1892V92.4242C33.6669 93.3692 33.0369 93.8792 32.2119 93.8792ZM44.3177 95.1992H45.7427V93.7442H44.8727C44.1077 93.7442 43.9127 93.5042 43.9127 92.6492V88.8092H45.6677V87.4142H43.9127V85.4192H42.2627L42.1427 87.4142H40.8827V88.8092H42.1127V92.7092C42.1127 94.4642 42.7727 95.1992 44.3177 95.1992ZM46.9061 97.9292H47.8661C49.2461 97.9292 49.7711 97.4942 50.2811 95.9942L53.1761 87.4142H51.3611L49.7561 92.7242L48.0311 87.4142H46.1111L48.8261 94.9892L48.5711 95.7842C48.3911 96.3242 48.1811 96.4742 47.6711 96.4742H46.9061V97.9292ZM54.3814 97.9292H56.1814V94.4042C56.7664 95.0792 57.4714 95.3792 58.4014 95.3792C60.1864 95.3792 61.2214 94.2692 61.2214 92.1542V90.4442C61.2214 88.3292 60.1864 87.2342 58.4014 87.2342C57.3514 87.2342 56.5864 87.6242 55.9714 88.4792L55.9114 87.4142H54.3814V97.9292ZM58.0564 93.8792C57.2314 93.8792 56.6014 93.3842 56.1814 92.4542V90.1442C56.6014 89.2292 57.2314 88.7342 58.0414 88.7342C58.9264 88.7342 59.4214 89.3042 59.4214 90.4742V92.1392C59.4214 93.3242 58.9264 93.8792 58.0564 93.8792ZM66.2176 95.3792C68.2276 95.3792 69.3826 94.5092 69.4726 92.8442H67.7476C67.6876 93.5192 67.1626 93.9242 66.2176 93.9242C65.0626 93.9242 64.5526 93.3392 64.5526 92.0792V91.8392H69.5176V90.5492C69.5176 88.4042 68.3476 87.2342 66.1276 87.2342C63.9376 87.2342 62.7526 88.3892 62.7526 90.5342V92.0642C62.7526 94.2392 63.9526 95.3792 66.2176 95.3792ZM64.5526 90.5042C64.5526 89.2442 65.0476 88.6892 66.1876 88.6892C67.3126 88.6892 67.8076 89.2442 67.8076 90.5042H64.5526ZM78.1089 95.3792C80.1789 95.3792 81.2889 94.3592 81.3339 92.3492H79.6089C79.5489 93.4142 79.0839 93.8792 78.1239 93.8792C77.0739 93.8792 76.5789 93.3242 76.5789 92.0492V90.5642C76.5789 89.2892 77.0739 88.7342 78.1239 88.7342C79.0839 88.7342 79.5489 89.1992 79.6089 90.2492H81.3339C81.2889 88.2392 80.1789 87.2342 78.1089 87.2342C75.9189 87.2342 74.7789 88.3592 74.7789 90.5342V92.0642C74.7789 94.2542 75.9189 95.3792 78.1089 95.3792ZM86.2566 95.3792C88.2666 95.3792 89.4216 94.5092 89.5116 92.8442H87.7866C87.7266 93.5192 87.2016 93.9242 86.2566 93.9242C85.1016 93.9242 84.5916 93.3392 84.5916 92.0792V91.8392H89.5566V90.5492C89.5566 88.4042 88.3866 87.2342 86.1666 87.2342C83.9766 87.2342 82.7916 88.3892 82.7916 90.5342V92.0642C82.7916 94.2392 83.9916 95.3792 86.2566 95.3792ZM84.5916 90.5042C84.5916 89.2442 85.0866 88.6892 86.2266 88.6892C87.3516 88.6892 87.8466 89.2442 87.8466 90.5042H84.5916ZM91.3833 95.1992H93.1833V84.2492H91.3833V95.1992ZM95.3677 95.1992H97.1677V84.2492H95.3677V95.1992ZM102.022 95.3792C104.152 95.3792 105.217 94.5542 105.217 92.9192C105.217 91.4342 104.452 90.7292 102.427 90.5042C101.152 90.3692 100.687 90.1142 100.687 89.4992C100.687 88.9442 101.152 88.6142 102.007 88.6142C102.907 88.6142 103.327 88.9592 103.327 89.6792H105.052C105.052 88.0742 104.017 87.2342 102.022 87.2342C100.027 87.2342 98.9171 88.0892 98.9171 89.6942C98.9171 91.1342 99.6821 91.7642 101.662 92.0042C102.982 92.1692 103.447 92.4392 103.447 93.0842C103.447 93.6842 102.982 93.9992 102.022 93.9992C100.972 93.9992 100.477 93.6242 100.477 92.8592H98.7671C98.7671 94.5392 99.8171 95.3792 102.022 95.3792Z" fill="white"/>
<mask id="path-3-outside-1" maskUnits="userSpaceOnUse" x="35.5879" y="0.199219" width="43" height="72" fill="black">
<rect fill="white" x="35.5879" y="0.199219" width="43" height="72"/>
<path fill-rule="evenodd" clip-rule="evenodd" d="M63.2591 9.69743V8.82365C63.2591 8.68302 63.1459 8.56897 63.0072 8.56983H62.9383V4.78231C62.9383 4.66655 62.854 4.5688 62.7451 4.54736V4.43846C62.7451 4.38101 62.7247 4.32784 62.6906 4.28668C62.6889 4.28411 62.6872 4.28239 62.6855 4.28068C62.6796 4.27382 62.6736 4.26782 62.6668 4.26182C62.6242 4.22323 62.5681 4.19922 62.5068 4.19922H53.055H46.4772C46.3461 4.19922 46.2389 4.3064 46.2389 4.43846V4.54736C46.1291 4.56794 46.0457 4.66569 46.0457 4.78231V8.56983H45.9768C45.8381 8.56983 45.7249 8.68388 45.7249 8.82365V9.69743C45.7249 9.83119 45.8287 9.94181 45.9598 9.95038C45.9657 9.95124 45.9708 9.95124 45.9768 9.95124H46.6016V26.9938H39.5879V29.6239L40.1074 31.3773H46.6016L46.6016 53.0075C46.6016 54.9443 48.1717 56.5143 50.1084 56.5143L58.0361 56.5143L58.0361 56.5143C58.0401 56.5147 58.3623 56.5467 58.8296 56.5143H58.8756C59.4153 56.5143 59.9266 56.3924 60.3834 56.1745C61.409 55.7599 62.3825 54.8747 62.3825 53.0075C62.3825 49.0623 62.4322 42.9253 62.4322 42.9253V32.4127L62.4322 31.3773H68.5194V59.4321H54.492H40.5479L39.5879 61.1855V68.1992H74.6564V61.1855L73.6964 59.4321H70.2728V31.3773H74.1368L74.5879 29.6239L74.6564 29.6239V26.9938H62.4322V14.8064L62.4322 9.95124H63.0064L63.011 9.95122L63.0177 9.95098L63.0234 9.95038C63.1544 9.94181 63.2591 9.83119 63.2591 9.69743Z"/>
</mask>
<path fill-rule="evenodd" clip-rule="evenodd" d="M63.2591 9.69743V8.82365C63.2591 8.68302 63.1459 8.56897 63.0072 8.56983H62.9383V4.78231C62.9383 4.66655 62.854 4.5688 62.7451 4.54736V4.43846C62.7451 4.38101 62.7247 4.32784 62.6906 4.28668C62.6889 4.28411 62.6872 4.28239 62.6855 4.28068C62.6796 4.27382 62.6736 4.26782 62.6668 4.26182C62.6242 4.22323 62.5681 4.19922 62.5068 4.19922H53.055H46.4772C46.3461 4.19922 46.2389 4.3064 46.2389 4.43846V4.54736C46.1291 4.56794 46.0457 4.66569 46.0457 4.78231V8.56983H45.9768C45.8381 8.56983 45.7249 8.68388 45.7249 8.82365V9.69743C45.7249 9.83119 45.8287 9.94181 45.9598 9.95038C45.9657 9.95124 45.9708 9.95124 45.9768 9.95124H46.6016V26.9938H39.5879V29.6239L40.1074 31.3773H46.6016L46.6016 53.0075C46.6016 54.9443 48.1717 56.5143 50.1084 56.5143L58.0361 56.5143L58.0361 56.5143C58.0401 56.5147 58.3623 56.5467 58.8296 56.5143H58.8756C59.4153 56.5143 59.9266 56.3924 60.3834 56.1745C61.409 55.7599 62.3825 54.8747 62.3825 53.0075C62.3825 49.0623 62.4322 42.9253 62.4322 42.9253V32.4127L62.4322 31.3773H68.5194V59.4321H54.492H40.5479L39.5879 61.1855V68.1992H74.6564V61.1855L73.6964 59.4321H70.2728V31.3773H74.1368L74.5879 29.6239L74.6564 29.6239V26.9938H62.4322V14.8064L62.4322 9.95124H63.0064L63.011 9.95122L63.0177 9.95098L63.0234 9.95038C63.1544 9.94181 63.2591 9.83119 63.2591 9.69743Z" fill="#003E6B"/>
<path d="M63.0072 8.56983V12.0698C63.0144 12.0698 63.0216 12.0698 63.0288 12.0698L63.0072 8.56983ZM62.9383 8.56983H59.4383C59.4383 10.5028 61.0053 12.0698 62.9383 12.0698V8.56983ZM62.7451 4.54736H59.2451C59.2451 6.21981 60.4283 7.65857 62.0693 7.98149L62.7451 4.54736ZM62.6906 4.28668L59.7723 6.21893C59.8407 6.32226 59.9146 6.42188 59.9936 6.51737L62.6906 4.28668ZM62.6855 4.28068L60.0428 6.57544C60.094 6.63441 60.1471 6.69165 60.2022 6.74706L62.6855 4.28068ZM62.6668 4.26182L60.3157 6.85456C60.3277 6.86547 60.3398 6.87629 60.352 6.88702L62.6668 4.26182ZM46.2389 4.54736L46.8838 7.98744C48.5392 7.67712 49.7389 6.23167 49.7389 4.54736H46.2389ZM46.0457 8.56983V12.0698C47.9787 12.0698 49.5457 10.5028 49.5457 8.56983H46.0457ZM45.9598 9.95038L46.4586 6.48611C46.3689 6.47319 46.2787 6.46377 46.1883 6.45785L45.9598 9.95038ZM46.6016 9.95124H50.1016C50.1016 8.01824 48.5346 6.45124 46.6016 6.45124V9.95124ZM46.6016 26.9938V30.4938C48.5346 30.4938 50.1016 28.9268 50.1016 26.9938H46.6016ZM39.5879 26.9938V23.4938C37.6549 23.4938 36.0879 25.0608 36.0879 26.9938H39.5879ZM39.5879 29.6239H36.0879C36.0879 29.9606 36.1365 30.2954 36.2321 30.6182L39.5879 29.6239ZM40.1074 31.3773L36.7516 32.3716C37.192 33.8578 38.5574 34.8773 40.1074 34.8773V31.3773ZM46.6016 31.3773L50.1016 31.3773C50.1016 30.4491 49.7328 29.5588 49.0765 28.9025C48.4201 28.2461 47.5299 27.8773 46.6016 27.8773V31.3773ZM46.6016 53.0075L43.1016 53.0075V53.0075H46.6016ZM50.1084 56.5143L50.1084 60.0143L50.1084 60.0143L50.1084 56.5143ZM58.0361 56.5143L58.3844 53.0317C58.2686 53.0201 58.1524 53.0143 58.0361 53.0143L58.0361 56.5143ZM58.0361 56.5143L57.6879 59.997L57.689 59.9971L58.0361 56.5143ZM58.8296 56.5143V53.0143C58.7488 53.0143 58.6681 53.0171 58.5875 53.0227L58.8296 56.5143ZM60.3834 56.1745L59.0716 52.9297C59.0058 52.9563 58.9408 52.9849 58.8767 53.0155L60.3834 56.1745ZM62.4322 42.9253L65.9321 42.9536C65.9322 42.9442 65.9322 42.9347 65.9322 42.9253L62.4322 42.9253ZM62.4322 32.4127L58.9322 32.4127V32.4127H62.4322ZM62.4322 31.3773V27.8773C60.4992 27.8773 58.9322 29.4443 58.9322 31.3773L62.4322 31.3773ZM68.5194 31.3773H72.0194C72.0194 29.4443 70.4524 27.8773 68.5194 27.8773V31.3773ZM68.5194 59.4321V62.9321C70.4524 62.9321 72.0194 61.3651 72.0194 59.4321H68.5194ZM40.5479 59.4321V55.9321C39.2691 55.9321 38.0921 56.6296 37.4779 57.7513L40.5479 59.4321ZM39.5879 61.1855L36.5179 59.5047C36.2358 60.02 36.0879 60.5981 36.0879 61.1855H39.5879ZM39.5879 68.1992H36.0879C36.0879 70.1322 37.6549 71.6992 39.5879 71.6992V68.1992ZM74.6564 68.1992V71.6992C76.5894 71.6992 78.1564 70.1322 78.1564 68.1992H74.6564ZM74.6564 61.1855H78.1564C78.1564 60.5981 78.0085 60.02 77.7264 59.5047L74.6564 61.1855ZM73.6964 59.4321L76.7664 57.7513C76.1522 56.6296 74.9752 55.9321 73.6964 55.9321V59.4321ZM70.2728 59.4321H66.7728C66.7728 61.3651 68.3398 62.9321 70.2728 62.9321V59.4321ZM70.2728 31.3773V27.8773C68.3398 27.8773 66.7728 29.4443 66.7728 31.3773H70.2728ZM74.1368 31.3773V34.8773C75.734 34.8773 77.1286 33.7961 77.5265 32.2493L74.1368 31.3773ZM74.5879 29.6239L74.5884 26.1239C72.991 26.1237 71.5962 27.205 71.1982 28.752L74.5879 29.6239ZM74.6564 29.6239L74.6559 33.1239C75.5842 33.124 76.4746 32.7553 77.1311 32.099C77.7876 31.4426 78.1564 30.5523 78.1564 29.6239H74.6564ZM74.6564 26.9938H78.1564C78.1564 25.0608 76.5894 23.4938 74.6564 23.4938V26.9938ZM62.4322 26.9938H58.9322C58.9322 28.9268 60.4992 30.4938 62.4322 30.4938V26.9938ZM62.4322 14.8064L65.9322 14.8064L65.9322 14.8064L62.4322 14.8064ZM62.4322 9.95124V6.45124C61.504 6.45124 60.6137 6.81999 59.9573 7.47637C59.301 8.13275 58.9322 9.02299 58.9322 9.95125L62.4322 9.95124ZM63.0064 9.95124L63.0064 13.4513L63.0187 13.4512L63.0064 9.95124ZM63.011 9.95122L63.0233 13.4512C63.061 13.4511 63.0986 13.4503 63.1363 13.449L63.011 9.95122ZM63.0177 9.95098L63.143 13.4487C63.2239 13.4458 63.3046 13.4401 63.3851 13.4316L63.0177 9.95098ZM63.0234 9.95038L62.7949 6.45785C62.7485 6.46088 62.7022 6.46484 62.656 6.46972L63.0234 9.95038ZM59.7591 8.82365V9.69743H66.7591V8.82365H59.7591ZM63.0288 12.0698C61.1809 12.0812 59.7591 10.579 59.7591 8.82365H66.7591C66.7591 6.78708 65.1109 5.05676 62.9856 5.0699L63.0288 12.0698ZM62.9383 12.0698H63.0072V5.06983H62.9383V12.0698ZM59.4383 4.78231V8.56983H66.4383V4.78231H59.4383ZM62.0693 7.98149C60.5779 7.688 59.4383 6.38006 59.4383 4.78231H66.4383C66.4383 2.95303 65.1302 1.44959 63.4209 1.11322L62.0693 7.98149ZM59.2451 4.43846V4.54736H66.2451V4.43846H59.2451ZM59.9936 6.51737C59.524 5.94967 59.2451 5.21922 59.2451 4.43846H66.2451C66.2451 3.5428 65.9253 2.70602 65.3877 2.056L59.9936 6.51737ZM60.2022 6.74706C60.2111 6.75602 60.1411 6.68688 60.0636 6.59899C59.9748 6.49839 59.8736 6.37194 59.7723 6.21893L65.6089 2.35444C65.3982 2.03626 65.1759 1.82143 65.1689 1.8143L60.2022 6.74706ZM60.352 6.88702C60.2424 6.79043 60.1388 6.68606 60.0428 6.57544L65.3282 1.98592C65.2203 1.86158 65.1048 1.74521 64.9816 1.63661L60.352 6.88702ZM62.5068 7.69922C61.636 7.69922 60.8689 7.35617 60.3157 6.85456L65.0179 1.66907C64.3796 1.09029 63.5001 0.699219 62.5068 0.699219V7.69922ZM53.055 7.69922H62.5068V0.699219H53.055V7.69922ZM46.4772 7.69922H53.055V0.699219H46.4772V7.69922ZM49.7389 4.43846C49.7389 6.23084 48.2877 7.69922 46.4772 7.69922V0.699219C44.4046 0.699219 42.7389 2.38197 42.7389 4.43846H49.7389ZM49.7389 4.54736V4.43846H42.7389V4.54736H49.7389ZM49.5457 4.78231C49.5457 6.35495 48.4246 7.69861 46.8838 7.98744L45.5941 1.10728C43.8337 1.43727 42.5457 2.97643 42.5457 4.78231H49.5457ZM49.5457 8.56983V4.78231H42.5457V8.56983H49.5457ZM45.9768 12.0698H46.0457V5.06983H45.9768V12.0698ZM49.2249 8.82365C49.2249 10.592 47.7959 12.0698 45.9768 12.0698V5.06983C43.8803 5.06983 42.2249 6.77578 42.2249 8.82365H49.2249ZM49.2249 9.69743V8.82365H42.2249V9.69743H49.2249ZM46.1883 6.45785C47.9148 6.57081 49.2249 8.00426 49.2249 9.69743H42.2249C42.2249 11.6581 43.7426 13.3128 45.7313 13.4429L46.1883 6.45785ZM45.9768 6.45124C45.9495 6.45124 46.1824 6.44634 46.4586 6.48611L45.4609 13.4147C45.6085 13.4359 45.7354 13.4447 45.8327 13.4485C45.8786 13.4503 45.9159 13.4508 45.9392 13.4511C45.9509 13.4512 45.9605 13.4512 45.9665 13.4512C45.9719 13.4512 45.9768 13.4512 45.9768 13.4512V6.45124ZM46.6016 6.45124H45.9768V13.4512H46.6016V6.45124ZM50.1016 26.9938V9.95124H43.1016V26.9938H50.1016ZM39.5879 30.4938H46.6016V23.4938H39.5879V30.4938ZM43.0879 29.6239V26.9938H36.0879V29.6239H43.0879ZM43.4632 30.383L42.9437 28.6296L36.2321 30.6182L36.7516 32.3716L43.4632 30.383ZM46.6016 27.8773H40.1074V34.8773H46.6016V27.8773ZM50.1016 53.0075L50.1016 31.3773L43.1016 31.3773L43.1016 53.0075L50.1016 53.0075ZM50.1084 53.0143C50.1034 53.0143 50.1021 53.0139 50.1033 53.0142C50.1044 53.0144 50.1058 53.0148 50.1068 53.0152C50.1086 53.016 50.1068 53.0155 50.1036 53.0123C50.1004 53.0092 50.1 53.0074 50.1007 53.0091C50.1011 53.0102 50.1016 53.0115 50.1018 53.0126C50.102 53.0139 50.1016 53.0126 50.1016 53.0075H43.1016C43.1016 56.8773 46.2387 60.0143 50.1084 60.0143V53.0143ZM58.0361 53.0143L50.1084 53.0143L50.1084 60.0143L58.0361 60.0143L58.0361 53.0143ZM58.3844 53.0317L58.3844 53.0317L57.6878 59.997L57.6879 59.997L58.3844 53.0317ZM58.5875 53.0227C58.4862 53.0297 58.4048 53.0294 58.3595 53.0281C58.3153 53.0268 58.3171 53.025 58.3832 53.0316L57.689 59.9971C57.8203 60.0102 58.3496 60.056 59.0716 60.006L58.5875 53.0227ZM58.8756 53.0143H58.8296V60.0143H58.8756V53.0143ZM58.8767 53.0155C58.8774 53.0151 58.8788 53.0146 58.8803 53.0142C58.8821 53.0138 58.8811 53.0143 58.8756 53.0143V60.0143C59.9477 60.0143 60.9728 59.7712 61.8901 59.3336L58.8767 53.0155ZM58.8825 53.0075C58.8825 53.1689 58.8618 53.2266 58.8664 53.2114C58.8685 53.2046 58.8751 53.1852 58.8891 53.1571C58.9032 53.1289 58.922 53.0975 58.9454 53.0655C58.9944 52.9988 59.0447 52.9549 59.0761 52.9322C59.104 52.9121 59.1075 52.9152 59.0716 52.9297L61.6951 59.4194C62.6464 59.0349 63.7407 58.3633 64.5896 57.2059C65.4597 56.0199 65.8825 54.5813 65.8825 53.0075H58.8825ZM62.4322 42.9253C58.9323 42.897 58.9323 42.897 58.9323 42.897C58.9323 42.8971 58.9323 42.8972 58.9323 42.8973C58.9323 42.8975 58.9323 42.8978 58.9323 42.8981C58.9323 42.8989 58.9323 42.9001 58.9323 42.9016C58.9323 42.9046 58.9322 42.9091 58.9322 42.915C58.9321 42.9268 58.932 42.9444 58.9318 42.9674C58.9314 43.0136 58.9309 43.0816 58.9302 43.1696C58.9288 43.3456 58.9269 43.6012 58.9245 43.9202C58.9199 44.5583 58.9137 45.4501 58.9074 46.4655C58.895 48.4942 58.8825 51.0237 58.8825 53.0075H65.8825C65.8825 51.0461 65.8949 48.5344 65.9073 46.5084C65.9135 45.4964 65.9197 44.6074 65.9244 43.9715C65.9267 43.6535 65.9286 43.3989 65.93 43.2238C65.9307 43.1363 65.9312 43.0686 65.9316 43.0229C65.9317 43.0001 65.9319 42.9827 65.932 42.9711C65.932 42.9653 65.932 42.9609 65.9321 42.958C65.9321 42.9565 65.9321 42.9554 65.9321 42.9547C65.9321 42.9543 65.9321 42.9541 65.9321 42.9539C65.9321 42.9538 65.9321 42.9537 65.9321 42.9537C65.9321 42.9537 65.9321 42.9536 62.4322 42.9253ZM58.9322 32.4127V42.9253H65.9322V32.4127H58.9322ZM58.9322 31.3773L58.9322 32.4127L65.9322 32.4127L65.9322 31.3773L58.9322 31.3773ZM68.5194 27.8773H62.4322V34.8773H68.5194V27.8773ZM72.0194 59.4321V31.3773H65.0194V59.4321H72.0194ZM68.5194 55.9321H54.492V62.9321H68.5194V55.9321ZM54.492 55.9321H40.5479V62.9321H54.492V55.9321ZM37.4779 57.7513L36.5179 59.5047L42.6579 62.8664L43.6179 61.113L37.4779 57.7513ZM36.0879 61.1855V68.1992H43.0879V61.1855H36.0879ZM39.5879 71.6992H74.6564V64.6992H39.5879V71.6992ZM78.1564 68.1992V61.1855H71.1564V68.1992H78.1564ZM77.7264 59.5047L76.7664 57.7513L70.6264 61.113L71.5864 62.8664L77.7264 59.5047ZM73.6964 55.9321H70.2728V62.9321H73.6964V55.9321ZM66.7728 31.3773V59.4321H73.7728V31.3773H66.7728ZM74.1368 27.8773H70.2728V34.8773H74.1368V27.8773ZM71.1982 28.752L70.7472 30.5054L77.5265 32.2493L77.9775 30.4958L71.1982 28.752ZM74.6569 26.1239L74.5884 26.1239L74.5874 33.1239L74.6559 33.1239L74.6569 26.1239ZM71.1564 26.9938V29.6239H78.1564V26.9938H71.1564ZM62.4322 30.4938H74.6564V23.4938H62.4322V30.4938ZM58.9322 14.8064V26.9938H65.9322V14.8064H58.9322ZM58.9322 9.95125L58.9322 14.8064L65.9322 14.8064L65.9322 9.95124L58.9322 9.95125ZM63.0064 6.45124H62.4322V13.4512H63.0064V6.45124ZM62.9986 6.45125L62.994 6.45126L63.0187 13.4512L63.0233 13.4512L62.9986 6.45125ZM62.8924 6.45323L62.8856 6.45347L63.1363 13.449L63.143 13.4487L62.8924 6.45323ZM62.656 6.46972L62.6503 6.47032L63.3851 13.4316L63.3908 13.431L62.656 6.46972ZM59.7591 9.69743C59.7591 7.98822 61.0843 6.56976 62.7949 6.45785L63.2519 13.4429C65.2246 13.3139 66.7591 11.6742 66.7591 9.69743H59.7591Z" fill="#003E6B" mask="url(#path-3-outside-1)"/>
<path d="M46.6016 8.29517H62.3824V53.0075C62.3824 54.9443 60.8123 56.5143 58.8755 56.5143H50.1084C48.1716 56.5143 46.6016 54.9443 46.6016 53.0075V8.29517Z" fill="#FAA262"/>
<path d="M46.6064 14.8064H62.4324V28.8338H46.6064V14.8064Z" fill="white"/>
<path d="M58.0362 9.17188H62.4323C62.4323 9.17188 62.4323 29.8304 62.4323 32.4127C62.4323 34.995 62.4323 42.9253 62.4323 42.9253C62.4323 42.9253 62.3826 49.0623 62.3826 53.0075C62.3826 56.9527 58.0361 56.5143 58.0361 56.5143L58.0362 32.4127V9.17188Z" fill="black" fill-opacity="0.1"/>
<path d="M63.2593 8.82365V9.69743C63.2593 9.83119 63.1547 9.94181 63.0236 9.95038C63.0176 9.95124 63.0125 9.95124 63.0066 9.95124H45.977C45.9711 9.95124 45.9659 9.95124 45.96 9.95038C45.8289 9.94181 45.7251 9.83119 45.7251 9.69743V8.82365C45.7251 8.68388 45.8383 8.56983 45.977 8.56983H46.0459V4.78231C46.0459 4.66569 46.1293 4.56794 46.2391 4.54736V4.43846C46.2391 4.30726 46.3464 4.19922 46.4774 4.19922H62.507C62.5683 4.19922 62.6245 4.22323 62.667 4.26182C62.6738 4.26782 62.6798 4.27382 62.6857 4.28068C62.6874 4.28239 62.6891 4.28411 62.6908 4.28668C62.7249 4.32784 62.7453 4.38101 62.7453 4.43846V4.54736C62.8542 4.5688 62.9385 4.66655 62.9385 4.78231V8.56983H63.0074C63.1462 8.56897 63.2593 8.68302 63.2593 8.82365Z" fill="#3295BA"/>
<path d="M52.3029 9.69657V8.82365C52.3029 8.68388 52.4161 8.56983 52.5548 8.56983H52.6237V4.78231C52.6237 4.66569 52.7071 4.56794 52.8169 4.54736V4.43846C52.8169 4.30726 52.9242 4.19922 53.0552 4.19922H46.4774C46.3464 4.19922 46.2391 4.3064 46.2391 4.43846V4.54736C46.1302 4.5688 46.0459 4.66655 46.0459 4.78231V8.56983H45.977C45.8383 8.56983 45.7251 8.68388 45.7251 8.82365V9.69743C45.7251 9.83119 45.8289 9.94181 45.96 9.95038C45.9659 9.95124 45.9711 9.95124 45.977 9.95124H52.5548C52.5488 9.95124 52.5437 9.95124 52.5378 9.95038C52.4067 9.94095 52.3029 9.83034 52.3029 9.69657Z" fill="#54BCE3"/>
<path d="M47.0663 4.64014H46.6587V8.55714H47.0663V4.64014Z" fill="#156988"/>
<path d="M47.914 4.63989H47.5063V8.55689H47.914V4.63989Z" fill="#156988"/>
<path d="M48.762 4.63989H48.3535V8.55689H48.762V4.63989Z" fill="#156988"/>
<path d="M49.6088 4.63989H49.2012V8.55689H49.6088V4.63989Z" fill="#156988"/>
<path d="M50.457 4.63989H50.0493V8.55689H50.457V4.63989Z" fill="#156988"/>
<path d="M51.3055 4.63989H50.897V8.55689H51.3055V4.63989Z" fill="#156988"/>
<path d="M52.1518 4.63989H51.7441V8.55689H52.1518V4.63989Z" fill="#156988"/>
<path d="M52.9995 4.63989H52.5918V8.55689H52.9995V4.63989Z" fill="#156988"/>
<path d="M53.8471 4.63989H53.4395V8.55689H53.8471V4.63989Z" fill="#156988"/>
<path d="M54.6953 4.63989H54.2876V8.55689H54.6953V4.63989Z" fill="#156988"/>
<path d="M55.5434 4.63989H55.1357V8.55689H55.5434V4.63989Z" fill="#156988"/>
<path d="M56.3919 4.63989H55.9834V8.55689H56.3919V4.63989Z" fill="#156988"/>
<path d="M57.2387 4.63989H56.8311V8.55689H57.2387V4.63989Z" fill="#156988"/>
<path d="M58.0872 4.63989H57.6787V8.55689H58.0872V4.63989Z" fill="#156988"/>
<path d="M58.9349 4.63989H58.5264V8.55689H58.9349V4.63989Z" fill="#156988"/>
<path d="M59.7825 4.63989H59.374V8.55689H59.7825V4.63989Z" fill="#156988"/>
<path d="M60.6302 4.63989H60.2217V8.55689H60.6302V4.63989Z" fill="#156988"/>
<path d="M61.477 4.63989H61.0693V8.55689H61.477V4.63989Z" fill="#156988"/>
<path d="M62.3246 4.63989H61.917V8.55689H62.3246V4.63989Z" fill="#156988"/>
<path d="M39.5879 61.1855H74.6564V68.1992H39.5879V61.1855Z" fill="#00AEEF"/>
<path d="M40.5479 59.4321H73.6964L74.6564 61.1856H39.5879L40.5479 59.4321Z" fill="#99DFF9"/>
<path d="M39.5879 26.9937H74.6564V29.6238H39.5879V26.9937Z" fill="#00AEEF"/>
<path d="M62.3824 59.8705C62.3824 60.1126 58.8497 60.3088 54.492 60.3088C50.1342 60.3088 46.6016 60.1126 46.6016 59.8705C46.6016 59.6284 50.1342 59.4321 54.492 59.4321C58.8497 59.4321 62.3824 59.6284 62.3824 59.8705Z" fill="black" fill-opacity="0.3"/>
<path fill-rule="evenodd" clip-rule="evenodd" d="M74.6564 29.6238H39.5879L40.1074 31.3772H46.6016V30.5005H62.3824V31.3772H74.1368L74.6564 29.6238Z" fill="#008BC0"/>
<path d="M68.5195 30.5005H70.273V60.3087H68.5195V30.5005Z" fill="#00AEEF"/>
</svg>
