<svg width="85" height="102" viewBox="0 0 85 102" fill="none" xmlns="http://www.w3.org/2000/svg">
<rect x="0.0078125" y="79.1992" width="84.4667" height="22" rx="5" fill="#003E6B"/>
<path d="M9.22019 95.3792C11.2302 95.3792 12.3852 94.5092 12.4752 92.8442H10.7502C10.6902 93.5192 10.1652 93.9242 9.22019 93.9242C8.06519 93.9242 7.55519 93.3392 7.55519 92.0792V91.8392H12.5202V90.5492C12.5202 88.4042 11.3502 87.2342 9.13019 87.2342C6.94019 87.2342 5.75519 88.3892 5.75519 90.5342V92.0642C5.75519 94.2392 6.95519 95.3792 9.22019 95.3792ZM7.55519 90.5042C7.55519 89.2442 8.05019 88.6892 9.19019 88.6892C10.3152 88.6892 10.8102 89.2442 10.8102 90.5042H7.55519ZM16.8516 95.3792C17.9016 95.3792 18.6666 94.9892 19.2816 94.1192L19.3416 95.1992H20.8716V84.2492H19.0716V88.2242C18.4866 87.5342 17.7816 87.2342 16.8516 87.2342C15.0516 87.2342 14.0316 88.3442 14.0316 90.4592V92.1692C14.0316 94.2842 15.0516 95.3792 16.8516 95.3792ZM17.2116 93.8792C16.3266 93.8792 15.8316 93.3092 15.8316 92.1392V90.4742C15.8316 89.2892 16.3266 88.7342 17.1966 88.7342C18.0366 88.7342 18.6666 89.2442 19.0716 90.1892V92.4242C18.6666 93.3692 18.0366 93.8792 17.2116 93.8792ZM23.0027 86.1692H24.9227V84.4742H23.0027V86.1692ZM23.0627 95.1992H24.8627V87.4142H23.0627V95.1992ZM29.5371 95.1992H30.9621V93.7442H30.0921C29.3271 93.7442 29.1321 93.5042 29.1321 92.6492V88.8092H30.8871V87.4142H29.1321V85.4192H27.4821L27.3621 87.4142H26.1021V88.8092H27.3321V92.7092C27.3321 94.4642 27.9921 95.1992 29.5371 95.1992ZM40.5552 95.1992H42.3552V92.9942H43.4802V91.4642H42.3552V84.9992H40.3902L35.5752 91.3592V92.9942H40.5552V95.1992ZM37.3902 91.4642L40.5552 87.2042V91.4642H37.3902ZM51.8293 95.3792C53.8993 95.3792 55.0093 94.3592 55.0543 92.3492H53.3293C53.2693 93.4142 52.8043 93.8792 51.8443 93.8792C50.7943 93.8792 50.2993 93.3242 50.2993 92.0492V90.5642C50.2993 89.2892 50.7943 88.7342 51.8443 88.7342C52.8043 88.7342 53.2693 89.1992 53.3293 90.2492H55.0543C55.0093 88.2392 53.8993 87.2342 51.8293 87.2342C49.6393 87.2342 48.4993 88.3592 48.4993 90.5342V92.0642C48.4993 94.2542 49.6393 95.3792 51.8293 95.3792ZM59.977 95.3792C61.987 95.3792 63.142 94.5092 63.232 92.8442H61.507C61.447 93.5192 60.922 93.9242 59.977 93.9242C58.822 93.9242 58.312 93.3392 58.312 92.0792V91.8392H63.277V90.5492C63.277 88.4042 62.107 87.2342 59.887 87.2342C57.697 87.2342 56.512 88.3892 56.512 90.5342V92.0642C56.512 94.2392 57.712 95.3792 59.977 95.3792ZM58.312 90.5042C58.312 89.2442 58.807 88.6892 59.947 88.6892C61.072 88.6892 61.567 89.2442 61.567 90.5042H58.312ZM65.1037 95.1992H66.9037V84.2492H65.1037V95.1992ZM69.0881 95.1992H70.8881V84.2492H69.0881V95.1992ZM75.7425 95.3792C77.8725 95.3792 78.9375 94.5542 78.9375 92.9192C78.9375 91.4342 78.1725 90.7292 76.1475 90.5042C74.8725 90.3692 74.4075 90.1142 74.4075 89.4992C74.4075 88.9442 74.8725 88.6142 75.7275 88.6142C76.6275 88.6142 77.0475 88.9592 77.0475 89.6792H78.7725C78.7725 88.0742 77.7375 87.2342 75.7425 87.2342C73.7475 87.2342 72.6375 88.0892 72.6375 89.6942C72.6375 91.1342 73.4025 91.7642 75.3825 92.0042C76.7025 92.1692 77.1675 92.4392 77.1675 93.0842C77.1675 93.6842 76.7025 93.9992 75.7425 93.9992C74.6925 93.9992 74.1975 93.6242 74.1975 92.8592H72.4875C72.4875 94.5392 73.5375 95.3792 75.7425 95.3792Z" fill="white"/>
<mask id="path-3-outside-1" maskUnits="userSpaceOnUse" x="20.5933" y="0.199219" width="43" height="72" fill="black">
<rect fill="white" x="20.5933" y="0.199219" width="43" height="72"/>
<path fill-rule="evenodd" clip-rule="evenodd" d="M48.2645 9.69743V8.82365C48.2645 8.68302 48.1513 8.56897 48.0126 8.56983H47.9436V4.78231C47.9436 4.66655 47.8594 4.5688 47.7505 4.54736V4.43846C47.7505 4.38101 47.73 4.32784 47.696 4.28668C47.6943 4.28411 47.6926 4.28239 47.6909 4.28068C47.6849 4.27382 47.679 4.26782 47.6722 4.26182C47.6296 4.22323 47.5734 4.19922 47.5122 4.19922H38.0604H31.4826C31.3515 4.19922 31.2443 4.3064 31.2443 4.43846V4.54736C31.1345 4.56794 31.0511 4.66569 31.0511 4.78231V8.56983H30.9822C30.8434 8.56983 30.7302 8.68388 30.7302 8.82365V9.69743C30.7302 9.83119 30.8341 9.94181 30.9651 9.95038C30.9711 9.95124 30.9762 9.95124 30.9822 9.95124H31.607V26.9938H24.5933V29.6239L25.1128 31.3773H31.607L31.607 53.0075C31.607 54.9443 33.177 56.5143 35.1138 56.5143L43.0415 56.5143L43.0415 56.5143C43.0455 56.5147 43.3677 56.5467 43.8349 56.5143H43.8809C44.4207 56.5143 44.932 56.3924 45.3888 56.1745C46.4143 55.7599 47.3879 54.8747 47.3879 53.0075C47.3879 49.0623 47.4376 42.9253 47.4376 42.9253V32.4127L47.4376 31.3773H53.5248V59.4321H39.4974H25.5533L24.5933 61.1855V68.1992H59.6618V61.1855L58.7018 59.4321H55.2782V31.3773H59.1422L59.5933 29.6239L59.6618 29.6239V26.9938H47.4376V14.8064L47.4376 9.95124H48.0117L48.0163 9.95122L48.0231 9.95098L48.0288 9.95038C48.1598 9.94181 48.2645 9.83119 48.2645 9.69743Z"/>
</mask>
<path fill-rule="evenodd" clip-rule="evenodd" d="M48.2645 9.69743V8.82365C48.2645 8.68302 48.1513 8.56897 48.0126 8.56983H47.9436V4.78231C47.9436 4.66655 47.8594 4.5688 47.7505 4.54736V4.43846C47.7505 4.38101 47.73 4.32784 47.696 4.28668C47.6943 4.28411 47.6926 4.28239 47.6909 4.28068C47.6849 4.27382 47.679 4.26782 47.6722 4.26182C47.6296 4.22323 47.5734 4.19922 47.5122 4.19922H38.0604H31.4826C31.3515 4.19922 31.2443 4.3064 31.2443 4.43846V4.54736C31.1345 4.56794 31.0511 4.66569 31.0511 4.78231V8.56983H30.9822C30.8434 8.56983 30.7302 8.68388 30.7302 8.82365V9.69743C30.7302 9.83119 30.8341 9.94181 30.9651 9.95038C30.9711 9.95124 30.9762 9.95124 30.9822 9.95124H31.607V26.9938H24.5933V29.6239L25.1128 31.3773H31.607L31.607 53.0075C31.607 54.9443 33.177 56.5143 35.1138 56.5143L43.0415 56.5143L43.0415 56.5143C43.0455 56.5147 43.3677 56.5467 43.8349 56.5143H43.8809C44.4207 56.5143 44.932 56.3924 45.3888 56.1745C46.4143 55.7599 47.3879 54.8747 47.3879 53.0075C47.3879 49.0623 47.4376 42.9253 47.4376 42.9253V32.4127L47.4376 31.3773H53.5248V59.4321H39.4974H25.5533L24.5933 61.1855V68.1992H59.6618V61.1855L58.7018 59.4321H55.2782V31.3773H59.1422L59.5933 29.6239L59.6618 29.6239V26.9938H47.4376V14.8064L47.4376 9.95124H48.0117L48.0163 9.95122L48.0231 9.95098L48.0288 9.95038C48.1598 9.94181 48.2645 9.83119 48.2645 9.69743Z" fill="#003E6B"/>
<path d="M48.0126 8.56983V12.0698C48.0198 12.0698 48.027 12.0698 48.0342 12.0698L48.0126 8.56983ZM47.9436 8.56983H44.4436C44.4436 10.5028 46.0107 12.0698 47.9436 12.0698V8.56983ZM47.7505 4.54736H44.2505C44.2505 6.21981 45.4337 7.65857 47.0747 7.98149L47.7505 4.54736ZM47.696 4.28668L44.7777 6.21893C44.8461 6.32226 44.92 6.42188 44.9989 6.51737L47.696 4.28668ZM47.6909 4.28068L45.0481 6.57544C45.0994 6.63441 45.1525 6.69165 45.2075 6.74706L47.6909 4.28068ZM47.6722 4.26182L45.3211 6.85456C45.3331 6.86547 45.3452 6.87629 45.3574 6.88702L47.6722 4.26182ZM31.2443 4.54736L31.8891 7.98744C33.5446 7.67712 34.7443 6.23167 34.7443 4.54736H31.2443ZM31.0511 8.56983V12.0698C32.9841 12.0698 34.5511 10.5028 34.5511 8.56983H31.0511ZM30.9651 9.95038L31.464 6.48611C31.3742 6.47319 31.2841 6.46377 31.1936 6.45785L30.9651 9.95038ZM31.607 9.95124H35.107C35.107 8.01824 33.54 6.45124 31.607 6.45124V9.95124ZM31.607 26.9938V30.4938C33.54 30.4938 35.107 28.9268 35.107 26.9938H31.607ZM24.5933 26.9938V23.4938C22.6603 23.4938 21.0933 25.0608 21.0933 26.9938H24.5933ZM24.5933 29.6239H21.0933C21.0933 29.9606 21.1418 30.2954 21.2375 30.6182L24.5933 29.6239ZM25.1128 31.3773L21.757 32.3716C22.1974 33.8578 23.5628 34.8773 25.1128 34.8773V31.3773ZM31.607 31.3773L35.107 31.3773C35.107 30.4491 34.7382 29.5588 34.0818 28.9025C33.4255 28.2461 32.5352 27.8773 31.607 27.8773V31.3773ZM31.607 53.0075L28.107 53.0075V53.0075H31.607ZM35.1138 56.5143L35.1138 60.0143L35.1138 60.0143L35.1138 56.5143ZM43.0415 56.5143L43.3897 53.0317C43.274 53.0201 43.1578 53.0143 43.0415 53.0143L43.0415 56.5143ZM43.0415 56.5143L42.6932 59.997L42.6944 59.9971L43.0415 56.5143ZM43.8349 56.5143V53.0143C43.7542 53.0143 43.6734 53.0171 43.5929 53.0227L43.8349 56.5143ZM45.3888 56.1745L44.077 52.9297C44.0112 52.9563 43.9461 52.9849 43.882 53.0155L45.3888 56.1745ZM47.4376 42.9253L50.9375 42.9536C50.9376 42.9442 50.9376 42.9347 50.9376 42.9253L47.4376 42.9253ZM47.4376 32.4127L43.9376 32.4127V32.4127H47.4376ZM47.4376 31.3773V27.8773C45.5046 27.8773 43.9376 29.4443 43.9376 31.3773L47.4376 31.3773ZM53.5248 31.3773H57.0248C57.0248 29.4443 55.4578 27.8773 53.5248 27.8773V31.3773ZM53.5248 59.4321V62.9321C55.4578 62.9321 57.0248 61.3651 57.0248 59.4321H53.5248ZM25.5533 59.4321V55.9321C24.2744 55.9321 23.0974 56.6296 22.4833 57.7513L25.5533 59.4321ZM24.5933 61.1855L21.5233 59.5047C21.2411 60.02 21.0933 60.5981 21.0933 61.1855H24.5933ZM24.5933 68.1992H21.0933C21.0933 70.1322 22.6603 71.6992 24.5933 71.6992V68.1992ZM59.6618 68.1992V71.6992C61.5948 71.6992 63.1618 70.1322 63.1618 68.1992H59.6618ZM59.6618 61.1855H63.1618C63.1618 60.5981 63.0139 60.02 62.7317 59.5047L59.6618 61.1855ZM58.7018 59.4321L61.7717 57.7513C61.1576 56.6296 59.9806 55.9321 58.7018 55.9321V59.4321ZM55.2782 59.4321H51.7782C51.7782 61.3651 53.3452 62.9321 55.2782 62.9321V59.4321ZM55.2782 31.3773V27.8773C53.3452 27.8773 51.7782 29.4443 51.7782 31.3773H55.2782ZM59.1422 31.3773V34.8773C60.7394 34.8773 62.134 33.7961 62.5319 32.2493L59.1422 31.3773ZM59.5933 29.6239L59.5937 26.1239C57.9964 26.1237 56.6016 27.205 56.2036 28.752L59.5933 29.6239ZM59.6618 29.6239L59.6613 33.1239C60.5896 33.124 61.48 32.7553 62.1365 32.099C62.7929 31.4426 63.1618 30.5523 63.1618 29.6239H59.6618ZM59.6618 26.9938H63.1618C63.1618 25.0608 61.5948 23.4938 59.6618 23.4938V26.9938ZM47.4376 26.9938H43.9376C43.9376 28.9268 45.5046 30.4938 47.4376 30.4938V26.9938ZM47.4376 14.8064L50.9376 14.8064L50.9376 14.8064L47.4376 14.8064ZM47.4376 9.95124V6.45124C46.5093 6.45124 45.6191 6.81999 44.9627 7.47637C44.3063 8.13275 43.9376 9.02299 43.9376 9.95125L47.4376 9.95124ZM48.0117 9.95124L48.0117 13.4513L48.0241 13.4512L48.0117 9.95124ZM48.0163 9.95122L48.0287 13.4512C48.0663 13.4511 48.104 13.4503 48.1416 13.449L48.0163 9.95122ZM48.0231 9.95098L48.1484 13.4487C48.2292 13.4458 48.31 13.4401 48.3904 13.4316L48.0231 9.95098ZM48.0288 9.95038L47.8003 6.45785C47.7539 6.46088 47.7076 6.46484 47.6614 6.46972L48.0288 9.95038ZM44.7645 8.82365V9.69743H51.7645V8.82365H44.7645ZM48.0342 12.0698C46.1863 12.0812 44.7645 10.579 44.7645 8.82365H51.7645C51.7645 6.78708 50.1163 5.05676 47.9909 5.0699L48.0342 12.0698ZM47.9436 12.0698H48.0126V5.06983H47.9436V12.0698ZM44.4436 4.78231V8.56983H51.4436V4.78231H44.4436ZM47.0747 7.98149C45.5832 7.688 44.4436 6.38006 44.4436 4.78231H51.4436C51.4436 2.95303 50.1355 1.44959 48.4263 1.11322L47.0747 7.98149ZM44.2505 4.43846V4.54736H51.2505V4.43846H44.2505ZM44.9989 6.51737C44.5294 5.94967 44.2505 5.21922 44.2505 4.43846H51.2505C51.2505 3.5428 50.9307 2.70602 50.393 2.056L44.9989 6.51737ZM45.2075 6.74706C45.2164 6.75602 45.1465 6.68688 45.069 6.59899C44.9802 6.49839 44.879 6.37194 44.7777 6.21893L50.6143 2.35444C50.4036 2.03626 50.1813 1.82143 50.1742 1.8143L45.2075 6.74706ZM45.3574 6.88702C45.2478 6.79043 45.1442 6.68606 45.0481 6.57544L50.3336 1.98592C50.2257 1.86158 50.1101 1.74521 49.987 1.63661L45.3574 6.88702ZM47.5122 7.69922C46.6414 7.69922 45.8742 7.35617 45.3211 6.85456L50.0233 1.66907C49.385 1.09029 48.5055 0.699219 47.5122 0.699219V7.69922ZM38.0604 7.69922H47.5122V0.699219H38.0604V7.69922ZM31.4826 7.69922H38.0604V0.699219H31.4826V7.69922ZM34.7443 4.43846C34.7443 6.23084 33.2931 7.69922 31.4826 7.69922V0.699219C29.41 0.699219 27.7443 2.38197 27.7443 4.43846H34.7443ZM34.7443 4.54736V4.43846H27.7443V4.54736H34.7443ZM34.5511 4.78231C34.5511 6.35495 33.43 7.69861 31.8891 7.98744L30.5994 1.10728C28.839 1.43727 27.5511 2.97643 27.5511 4.78231H34.5511ZM34.5511 8.56983V4.78231H27.5511V8.56983H34.5511ZM30.9822 12.0698H31.0511V5.06983H30.9822V12.0698ZM34.2302 8.82365C34.2302 10.592 32.8012 12.0698 30.9822 12.0698V5.06983C28.8856 5.06983 27.2302 6.77578 27.2302 8.82365H34.2302ZM34.2302 9.69743V8.82365H27.2302V9.69743H34.2302ZM31.1936 6.45785C32.9202 6.57081 34.2302 8.00426 34.2302 9.69743H27.2302C27.2302 11.6581 28.748 13.3128 30.7366 13.4429L31.1936 6.45785ZM30.9822 6.45124C30.9549 6.45124 31.1877 6.44634 31.464 6.48611L30.4663 13.4147C30.6138 13.4359 30.7408 13.4447 30.8381 13.4485C30.8839 13.4503 30.9213 13.4508 30.9445 13.4511C30.9563 13.4512 30.9659 13.4512 30.9718 13.4512C30.9773 13.4512 30.9822 13.4512 30.9822 13.4512V6.45124ZM31.607 6.45124H30.9822V13.4512H31.607V6.45124ZM35.107 26.9938V9.95124H28.107V26.9938H35.107ZM24.5933 30.4938H31.607V23.4938H24.5933V30.4938ZM28.0933 29.6239V26.9938H21.0933V29.6239H28.0933ZM28.4686 30.383L27.9491 28.6296L21.2375 30.6182L21.757 32.3716L28.4686 30.383ZM31.607 27.8773H25.1128V34.8773H31.607V27.8773ZM35.107 53.0075L35.107 31.3773L28.107 31.3773L28.107 53.0075L35.107 53.0075ZM35.1138 53.0143C35.1087 53.0143 35.1074 53.0139 35.1087 53.0142C35.1098 53.0144 35.1111 53.0148 35.1122 53.0152C35.1139 53.016 35.1121 53.0155 35.109 53.0123C35.1058 53.0092 35.1053 53.0074 35.1061 53.0091C35.1065 53.0102 35.1069 53.0115 35.1072 53.0126C35.1074 53.0139 35.107 53.0126 35.107 53.0075H28.107C28.107 56.8773 31.244 60.0143 35.1138 60.0143V53.0143ZM43.0415 53.0143L35.1138 53.0143L35.1138 60.0143L43.0415 60.0143L43.0415 53.0143ZM43.3898 53.0317L43.3897 53.0317L42.6932 59.997L42.6932 59.997L43.3898 53.0317ZM43.5929 53.0227C43.4916 53.0297 43.4102 53.0294 43.3648 53.0281C43.3207 53.0268 43.3225 53.025 43.3886 53.0316L42.6944 59.9971C42.8257 60.0102 43.355 60.056 44.077 60.006L43.5929 53.0227ZM43.8809 53.0143H43.8349V60.0143H43.8809V53.0143ZM43.882 53.0155C43.8828 53.0151 43.8842 53.0146 43.8857 53.0142C43.8875 53.0138 43.8864 53.0143 43.8809 53.0143V60.0143C44.953 60.0143 45.9781 59.7712 46.8955 59.3336L43.882 53.0155ZM43.8879 53.0075C43.8879 53.1689 43.8672 53.2266 43.8718 53.2114C43.8739 53.2046 43.8804 53.1852 43.8945 53.1571C43.9086 53.1289 43.9273 53.0975 43.9508 53.0655C43.9998 52.9988 44.0501 52.9549 44.0815 52.9322C44.1093 52.9121 44.1129 52.9152 44.077 52.9297L46.7005 59.4194C47.6518 59.0349 48.746 58.3633 49.595 57.2059C50.465 56.0199 50.8879 54.5813 50.8879 53.0075H43.8879ZM47.4376 42.9253C43.9377 42.897 43.9377 42.897 43.9377 42.897C43.9377 42.8971 43.9377 42.8972 43.9377 42.8973C43.9377 42.8975 43.9377 42.8978 43.9377 42.8981C43.9377 42.8989 43.9377 42.9001 43.9377 42.9016C43.9376 42.9046 43.9376 42.9091 43.9376 42.915C43.9375 42.9268 43.9373 42.9444 43.9371 42.9674C43.9368 43.0136 43.9362 43.0816 43.9356 43.1696C43.9342 43.3456 43.9323 43.6012 43.9299 43.9202C43.9253 44.5583 43.919 45.4501 43.9128 46.4655C43.9004 48.4942 43.8879 51.0237 43.8879 53.0075H50.8879C50.8879 51.0461 50.9003 48.5344 50.9127 46.5084C50.9189 45.4964 50.9251 44.6074 50.9297 43.9715C50.9321 43.6535 50.934 43.3989 50.9354 43.2238C50.936 43.1363 50.9366 43.0686 50.9369 43.0229C50.9371 43.0001 50.9372 42.9827 50.9373 42.9711C50.9374 42.9653 50.9374 42.9609 50.9374 42.958C50.9375 42.9565 50.9375 42.9554 50.9375 42.9547C50.9375 42.9543 50.9375 42.9541 50.9375 42.9539C50.9375 42.9538 50.9375 42.9537 50.9375 42.9537C50.9375 42.9537 50.9375 42.9536 47.4376 42.9253ZM43.9376 32.4127V42.9253H50.9376V32.4127H43.9376ZM43.9376 31.3773L43.9376 32.4127L50.9376 32.4127L50.9376 31.3773L43.9376 31.3773ZM53.5248 27.8773H47.4376V34.8773H53.5248V27.8773ZM57.0248 59.4321V31.3773H50.0248V59.4321H57.0248ZM53.5248 55.9321H39.4974V62.9321H53.5248V55.9321ZM39.4974 55.9321H25.5533V62.9321H39.4974V55.9321ZM22.4833 57.7513L21.5233 59.5047L27.6632 62.8664L28.6233 61.113L22.4833 57.7513ZM21.0933 61.1855V68.1992H28.0933V61.1855H21.0933ZM24.5933 71.6992H59.6618V64.6992H24.5933V71.6992ZM63.1618 68.1992V61.1855H56.1618V68.1992H63.1618ZM62.7317 59.5047L61.7717 57.7513L55.6318 61.113L56.5918 62.8664L62.7317 59.5047ZM58.7018 55.9321H55.2782V62.9321H58.7018V55.9321ZM51.7782 31.3773V59.4321H58.7782V31.3773H51.7782ZM59.1422 27.8773H55.2782V34.8773H59.1422V27.8773ZM56.2036 28.752L55.7526 30.5054L62.5319 32.2493L62.9829 30.4958L56.2036 28.752ZM59.6622 26.1239L59.5937 26.1239L59.5928 33.1239L59.6613 33.1239L59.6622 26.1239ZM56.1618 26.9938V29.6239H63.1618V26.9938H56.1618ZM47.4376 30.4938H59.6618V23.4938H47.4376V30.4938ZM43.9376 14.8064V26.9938H50.9376V14.8064H43.9376ZM43.9376 9.95125L43.9376 14.8064L50.9376 14.8064L50.9376 9.95124L43.9376 9.95125ZM48.0117 6.45124H47.4376V13.4512H48.0117V6.45124ZM48.004 6.45125L47.9994 6.45126L48.0241 13.4512L48.0287 13.4512L48.004 6.45125ZM47.8978 6.45323L47.891 6.45347L48.1416 13.449L48.1484 13.4487L47.8978 6.45323ZM47.6614 6.46972L47.6557 6.47032L48.3904 13.4316L48.3961 13.431L47.6614 6.46972ZM44.7645 9.69743C44.7645 7.98822 46.0896 6.56976 47.8003 6.45785L48.2572 13.4429C50.23 13.3139 51.7645 11.6742 51.7645 9.69743H44.7645Z" fill="#003E6B" mask="url(#path-3-outside-1)"/>
<path d="M31.6069 8.29517H47.3878V53.0075C47.3878 54.9443 45.8177 56.5143 43.8809 56.5143H35.1138C33.177 56.5143 31.6069 54.9443 31.6069 53.0075V8.29517Z" fill="#FAA262"/>
<path d="M31.6118 14.8064H47.4377V28.8338H31.6118V14.8064Z" fill="white"/>
<path d="M43.0415 9.17188H47.4376C47.4376 9.17188 47.4376 29.8304 47.4376 32.4127C47.4376 34.995 47.4376 42.9253 47.4376 42.9253C47.4376 42.9253 47.3879 49.0623 47.3879 53.0075C47.3879 56.9527 43.0415 56.5143 43.0415 56.5143L43.0415 32.4127V9.17188Z" fill="black" fill-opacity="0.1"/>
<path d="M48.2647 8.82365V9.69743C48.2647 9.83119 48.16 9.94181 48.029 9.95038C48.023 9.95124 48.0179 9.95124 48.012 9.95124H30.9824C30.9764 9.95124 30.9713 9.95124 30.9654 9.95038C30.8343 9.94181 30.7305 9.83119 30.7305 9.69743V8.82365C30.7305 8.68388 30.8437 8.56983 30.9824 8.56983H31.0513V4.78231C31.0513 4.66569 31.1347 4.56794 31.2445 4.54736V4.43846C31.2445 4.30726 31.3517 4.19922 31.4828 4.19922H47.5124C47.5737 4.19922 47.6298 4.22323 47.6724 4.26182C47.6792 4.26782 47.6851 4.27382 47.6911 4.28068C47.6928 4.28239 47.6945 4.28411 47.6962 4.28668C47.7303 4.32784 47.7507 4.38101 47.7507 4.43846V4.54736C47.8596 4.5688 47.9439 4.66655 47.9439 4.78231V8.56983H48.0128C48.1515 8.56897 48.2647 8.68302 48.2647 8.82365Z" fill="#3295BA"/>
<path d="M37.3083 9.69657V8.82365C37.3083 8.68388 37.4214 8.56983 37.5602 8.56983H37.6291V4.78231C37.6291 4.66569 37.7125 4.56794 37.8223 4.54736V4.43846C37.8223 4.30726 37.9295 4.19922 38.0606 4.19922H31.4828C31.3517 4.19922 31.2445 4.3064 31.2445 4.43846V4.54736C31.1356 4.5688 31.0513 4.66655 31.0513 4.78231V8.56983H30.9824C30.8437 8.56983 30.7305 8.68388 30.7305 8.82365V9.69743C30.7305 9.83119 30.8343 9.94181 30.9654 9.95038C30.9713 9.95124 30.9764 9.95124 30.9824 9.95124H37.5602C37.5542 9.95124 37.5491 9.95124 37.5431 9.95038C37.4121 9.94095 37.3083 9.83034 37.3083 9.69657Z" fill="#54BCE3"/>
<path d="M32.0717 4.64014H31.6641V8.55714H32.0717V4.64014Z" fill="#156988"/>
<path d="M32.9194 4.63989H32.5117V8.55689H32.9194V4.63989Z" fill="#156988"/>
<path d="M33.7674 4.63989H33.3589V8.55689H33.7674V4.63989Z" fill="#156988"/>
<path d="M34.6142 4.63989H34.2065V8.55689H34.6142V4.63989Z" fill="#156988"/>
<path d="M35.4623 4.63989H35.0547V8.55689H35.4623V4.63989Z" fill="#156988"/>
<path d="M36.3108 4.63989H35.9023V8.55689H36.3108V4.63989Z" fill="#156988"/>
<path d="M37.1572 4.63989H36.7495V8.55689H37.1572V4.63989Z" fill="#156988"/>
<path d="M38.0048 4.63989H37.5972V8.55689H38.0048V4.63989Z" fill="#156988"/>
<path d="M38.8525 4.63989H38.4448V8.55689H38.8525V4.63989Z" fill="#156988"/>
<path d="M39.7006 4.63989H39.293V8.55689H39.7006V4.63989Z" fill="#156988"/>
<path d="M40.5488 4.63989H40.1411V8.55689H40.5488V4.63989Z" fill="#156988"/>
<path d="M41.3973 4.63989H40.9888V8.55689H41.3973V4.63989Z" fill="#156988"/>
<path d="M42.2441 4.63989H41.8364V8.55689H42.2441V4.63989Z" fill="#156988"/>
<path d="M43.0926 4.63989H42.6841V8.55689H43.0926V4.63989Z" fill="#156988"/>
<path d="M43.9402 4.63989H43.5317V8.55689H43.9402V4.63989Z" fill="#156988"/>
<path d="M44.7879 4.63989H44.3794V8.55689H44.7879V4.63989Z" fill="#156988"/>
<path d="M45.6356 4.63989H45.2271V8.55689H45.6356V4.63989Z" fill="#156988"/>
<path d="M46.4824 4.63989H46.0747V8.55689H46.4824V4.63989Z" fill="#156988"/>
<path d="M47.33 4.63989H46.9224V8.55689H47.33V4.63989Z" fill="#156988"/>
<path d="M24.5933 61.1855H59.6618V68.1992H24.5933V61.1855Z" fill="#00AEEF"/>
<path d="M25.5533 59.4321H58.7018L59.6618 61.1856H24.5933L25.5533 59.4321Z" fill="#99DFF9"/>
<path d="M24.5933 26.9937H59.6618V29.6238H24.5933V26.9937Z" fill="#00AEEF"/>
<path d="M47.3878 59.8705C47.3878 60.1126 43.8551 60.3088 39.4973 60.3088C35.1396 60.3088 31.6069 60.1126 31.6069 59.8705C31.6069 59.6284 35.1396 59.4321 39.4973 59.4321C43.8551 59.4321 47.3878 59.6284 47.3878 59.8705Z" fill="black" fill-opacity="0.3"/>
<path fill-rule="evenodd" clip-rule="evenodd" d="M59.6618 29.6238H24.5933L25.1128 31.3772H31.607V30.5005H47.3878V31.3772H59.1422L59.6618 29.6238Z" fill="#008BC0"/>
<path d="M53.5249 30.5005H55.2783V60.3087H53.5249V30.5005Z" fill="#00AEEF"/>
</svg>
