<svg width="268" height="278" viewBox="0 0 268 278" fill="none" xmlns="http://www.w3.org/2000/svg">
<path d="M267.911 0.616211H0.239746V277.616H267.911V0.616211Z" fill="white"/>
<path opacity="0.4" d="M257.6 9.49365H11.5718V266.24H257.6V9.49365Z" fill="#7CB4D0"/>
<path opacity="0.1" d="M257.6 9.49365H11.5718V266.24H257.6V9.49365Z" fill="#BCDEEA"/>
<path opacity="0.5" d="M11.5714 9.49331L0.239746 0.616211V277.616L11.5714 266.24V9.49331Z" fill="#7CB4D0"/>
<path opacity="0.5" d="M257.6 266.24L267.911 277.616V0.616211L257.6 9.49331V266.24Z" fill="#7CB4D0"/>
<path opacity="0.4" d="M267.911 0.616211H0.239746V277.616H267.911V0.616211Z" fill="#7CB4D0"/>
<path opacity="0.8" d="M257.6 266.154H11.5714L0.239746 277.616H267.911L257.6 266.154Z" fill="#7CB4D0"/>
<rect x="22.1978" y="66.4873" width="32.0915" height="4" fill="#003E6B"/>
<rect x="22.1978" y="75.4893" width="32.0915" height="4" fill="#003E6B"/>
<rect x="22.1978" y="85.4912" width="32.0915" height="4" fill="#003E6B"/>
<rect x="22.1978" y="95.4932" width="32.0915" height="4" fill="#003E6B"/>
<rect x="22.1978" y="109.622" width="32.0915" height="4" fill="#003E6B"/>
<rect x="22.1978" y="139.116" width="32.0915" height="4" fill="#003E6B"/>
<rect x="22.1978" y="170.198" width="32.0915" height="4" fill="#003E6B"/>
<rect x="22.1978" y="190.202" width="32.0915" height="4" fill="#003E6B"/>
<rect x="22.1978" y="215.332" width="32.0915" height="4" fill="#003E6B"/>
<rect x="22.1978" y="234.336" width="32.0915" height="4" fill="#003E6B"/>
<rect x="22.1978" y="248.903" width="226.329" height="10.1341" fill="#003E6B"/>
</svg>
