<svg width="50" height="25" viewBox="0 0 50 25" fill="none" xmlns="http://www.w3.org/2000/svg">
<path d="M48.9656 1L48.9795 1C48.4553 13.7911 37.9199 24 25 24C12.0801 24 1.54471 13.7911 1.02046 0.999996L1.03441 0.999996L1.05646 0.999996L1.07874 0.999996L1.10124 0.999996L1.12395 0.999996L1.14689 0.999996L1.17004 0.999996L1.19342 0.999996L1.21701 0.999996L1.24082 0.999996L1.26485 0.999996L1.28909 0.999996L1.31355 0.999996L1.33823 0.999996L1.36312 0.999996L1.38823 0.999996L1.41356 0.999996L1.43909 0.999996L1.46485 0.999996L1.49082 0.999996L1.517 0.999996L1.54339 0.999996L1.57 0.999996L1.59682 0.999996L1.62385 0.999996L1.65109 0.999996L1.67855 0.999996L1.70621 0.999996L1.73409 0.999996L1.76217 0.999996L1.79047 0.999996L1.81897 0.999996L1.84769 0.999996L1.87661 0.999996L1.90574 0.999996L1.93508 0.999996L1.96462 0.999996L1.99438 0.999996L2.02434 0.999996L2.05451 0.999996L2.08488 0.999996L2.11546 0.999996L2.14624 0.999996L2.17723 0.999996L2.20842 0.999996L2.23982 0.999996L2.27142 0.999996L2.30322 0.999996L2.33523 0.999996L2.36744 0.999996L2.39985 0.999996L2.43246 0.999996L2.46527 0.999996L2.49829 0.999996L2.5315 0.999996L2.56492 0.999996L2.59854 0.999996L2.63235 0.999996L2.66636 0.999996L2.70058 0.999996L2.73499 0.999996L2.7696 0.999996L2.8044 0.999996L2.83941 0.999996L2.87461 0.999996L2.91 0.999996L2.9456 0.999996L2.98138 0.999996L3.01737 0.999996L3.05355 0.999996L3.08992 0.999996L3.12649 0.999996L3.16324 0.999996L3.2002 0.999996L3.23734 0.999996L3.27468 0.999996L3.31222 0.999996L3.34994 0.999996L3.38785 0.999996L3.42596 0.999996L3.46425 0.999996L3.50274 0.999996L3.54141 0.999996L3.58028 0.999996L3.61934 0.999996L3.65858 0.999996L3.69801 0.999996L3.73763 0.999996L3.77744 0.999996L3.81743 0.999996L3.85761 0.999996L3.89798 0.999996L3.93853 0.999996L3.97927 0.999996L4.0202 0.999996L4.0613 0.999996L4.1026 0.999996L4.14408 0.999996L4.18574 0.999996L4.22758 0.999996L4.26961 0.999996L4.31182 0.999996L4.35421 0.999996L4.39678 0.999996L4.43954 0.999996L4.48248 0.999996L4.52559 0.999996L4.56889 0.999996L4.61237 0.999996L4.65603 0.999996L4.69986 0.999996L4.74388 0.999996L4.78807 0.999996L4.83244 0.999996L4.87699 0.999996L4.92171 0.999996L4.96662 0.999996L5.01169 0.999996L5.05695 0.999996L5.10238 0.999996L5.14799 0.999996L5.19377 0.999996L5.23972 0.999996L5.28585 0.999996L5.33216 0.999996L5.37863 0.999996L5.42528 0.999996L5.4721 0.999996L5.51909 0.999996L5.56626 0.999996L5.6136 0.999996L5.66111 0.999996L5.70879 0.999996L5.75664 0.999996L5.80466 0.999996L5.85284 0.999996L5.9012 0.999996L5.94973 0.999996L5.99842 0.999996L6.04729 0.999996L6.09632 0.999996L6.14551 0.999996L6.19488 0.999996L6.24441 0.999996L6.29411 0.999996L6.34397 0.999996L6.394 0.999996L6.44419 0.999996L6.49455 0.999996L6.54507 0.999996L6.59575 0.999996L6.6466 0.999996L6.69761 0.999996L6.74879 0.999996L6.80013 0.999996L6.85163 0.999996L6.90328 0.999996L6.95511 0.999996L7.00709 0.999996L7.05923 0.999996L7.11153 0.999996L7.164 0.999996L7.21662 0.999996L7.2694 0.999996L7.32233 0.999996L7.37543 0.999996L7.42868 0.999996L7.48209 0.999996L7.53566 0.999996L7.58938 0.999996L7.64326 0.999996L7.6973 0.999996L7.75149 0.999996L7.80584 0.999996L7.86034 0.999996L7.91499 0.999996L7.9698 0.999996L8.02476 0.999996L8.07988 0.999996L8.13515 0.999996L8.19057 0.999996L8.24614 0.999996L8.30186 0.999996L8.35774 0.999996L8.41376 0.999996L8.46994 0.999996L8.52626 0.999996L8.58274 0.999996L8.63936 0.999996L8.69613 0.999996L8.75306 0.999996L8.81013 0.999996L8.86734 0.999996L8.92471 0.999996L8.98222 0.999996L9.03988 0.999996L9.09768 0.999996L9.15563 0.999996L9.21372 0.999996L9.27196 0.999996L9.33035 0.999996L9.38888 0.999996L9.44755 0.999996L9.50637 0.999996L9.56532 0.999996L9.62443 0.999996L9.68367 0.999996L9.74306 0.999996L9.80258 0.999996L9.86225 0.999996L9.92206 0.999996L9.98201 0.999997L10.0421 0.999997L10.1023 0.999997L10.1627 0.999997L10.2232 0.999997L10.2839 0.999997L10.3446 0.999997L10.4056 0.999997L10.4666 0.999997L10.5278 0.999997L10.5891 0.999997L10.6506 0.999997L10.7122 0.999997L10.774 0.999997L10.8358 0.999997L10.8978 0.999997L10.96 0.999997L11.0223 0.999997L11.0847 0.999997L11.1472 0.999997L11.2099 0.999997L11.2727 0.999997L11.3356 0.999997L11.3987 0.999997L11.4619 0.999997L11.5253 0.999997L11.5887 0.999997L11.6523 0.999997L11.716 0.999997L11.7799 0.999997L11.8439 0.999997L11.908 0.999997L11.9722 0.999997L12.0366 0.999997L12.1011 0.999997L12.1657 0.999997L12.2305 0.999997L12.2953 0.999997L12.3603 0.999997L12.4255 0.999997L12.4907 0.999997L12.5561 0.999997L12.6216 0.999997L12.6872 0.999997L12.7529 0.999997L12.8188 0.999997L12.8848 0.999997L12.9509 0.999997L13.0172 0.999997L13.0835 0.999997L13.15 0.999997L13.2166 0.999997L13.2833 0.999997L13.3502 0.999997L13.4171 0.999997L13.4842 0.999997L13.5514 0.999997L13.6187 0.999997L13.6861 0.999997L13.7537 0.999997L13.8214 0.999997L13.8892 0.999997L13.9571 0.999997L14.0251 0.999997L14.0932 0.999997L14.1615 0.999997L14.2298 0.999997L14.2983 0.999997L14.3669 0.999997L14.4356 0.999997L14.5044 0.999997L14.5734 0.999997L14.6424 0.999997L14.7116 0.999997L14.7809 0.999997L14.8502 0.999997L14.9197 0.999997L14.9893 0.999997L15.0591 0.999997L15.1289 0.999997L15.1988 0.999997L15.2689 0.999997L15.339 0.999997L15.4093 0.999997L15.4797 0.999997L15.5501 0.999997L15.6207 0.999997L15.6914 0.999997L15.7622 0.999997L15.8331 0.999997L15.9041 0.999997L15.9753 0.999997L16.0465 0.999997L16.1178 0.999997L16.1892 0.999997L16.2608 0.999997L16.3324 0.999997L16.4042 0.999997L16.476 0.999997L16.548 0.999997L16.62 0.999997L16.6922 0.999997L16.7644 0.999997L16.8368 0.999997L16.9092 0.999997L16.9818 0.999997L17.0544 0.999997L17.1272 0.999997L17.2 0.999997L17.273 0.999997L17.346 0.999997L17.4192 0.999997L17.4924 0.999997L17.5658 0.999997L17.6392 0.999997L17.7127 0.999997L17.7864 0.999997L17.8601 0.999997L17.9339 0.999997L18.0078 0.999997L18.0818 0.999997L18.1559 0.999997L18.2301 0.999997L18.3044 0.999997L18.3788 0.999997L18.4533 0.999997L18.5279 0.999997L18.6025 0.999997L18.6773 0.999997L18.7521 0.999997L18.827 0.999997L18.9021 0.999997L18.9772 0.999997L19.0524 0.999997L19.1277 0.999997L19.2031 0.999997L19.2785 0.999997L19.3541 0.999997L19.4297 0.999997L19.5054 0.999997L19.5813 0.999997L19.6572 0.999997L19.7332 0.999997L19.8092 0.999997L19.8854 0.999997L19.9616 0.999997L20.038 0.999997L20.1144 0.999997L20.1909 0.999997L20.2674 0.999997L20.3441 0.999997L20.4209 0.999997L20.4977 0.999997L20.5746 0.999997L20.6516 0.999997L20.7286 0.999997L20.8058 0.999997L20.883 0.999997L20.9603 0.999997L21.0377 0.999997L21.1152 0.999997L21.1927 0.999997L21.2704 0.999997L21.3481 0.999997L21.4259 0.999998L21.5037 0.999998L21.5817 0.999998L21.6597 0.999998L21.7378 0.999998L21.8159 0.999998L21.8942 0.999998L21.9725 0.999998L22.0509 0.999998L22.1293 0.999998L22.2079 0.999998L22.2865 0.999998L22.3651 0.999998L22.4439 0.999998L22.5227 0.999998L22.6016 0.999998L22.6806 0.999998L22.7596 0.999998L22.8387 0.999998L22.9179 0.999998L22.9972 0.999998L23.0765 0.999998L23.1559 0.999998L23.2353 0.999998L23.3149 0.999998L23.3945 0.999998L23.4741 0.999998L23.5538 0.999998L23.6336 0.999998L23.7135 0.999998L23.7934 0.999998L23.8734 0.999998L23.9535 0.999998L24.0336 0.999998L24.1138 0.999998L24.194 0.999998L24.2744 0.999998L24.3547 0.999998L24.4352 0.999998L24.5157 0.999998L24.5963 0.999998L24.6769 0.999998L24.7576 0.999998L24.8383 0.999998L24.9191 0.999998L25 0.999998L25.0809 0.999998L25.1617 0.999998L25.2424 0.999998L25.3231 0.999998L25.4038 0.999998L25.4843 0.999998L25.5648 0.999998L25.6453 0.999998L25.7256 0.999998L25.806 0.999998L25.8862 0.999998L25.9664 0.999998L26.0465 0.999998L26.1266 0.999998L26.2066 0.999998L26.2865 0.999998L26.3664 0.999998L26.4462 0.999998L26.5259 0.999998L26.6055 0.999998L26.6851 0.999998L26.7647 0.999998L26.8441 0.999998L26.9235 0.999998L27.0028 0.999998L27.0821 0.999998L27.1613 0.999998L27.2404 0.999998L27.3194 0.999998L27.3984 0.999998L27.4773 0.999998L27.5561 0.999998L27.6349 0.999998L27.7135 0.999998L27.7922 0.999998L27.8707 0.999998L27.9491 0.999998L28.0275 0.999998L28.1058 0.999998L28.1841 0.999998L28.2622 0.999998L28.3403 0.999998L28.4184 0.999998L28.4963 0.999998L28.5741 0.999998L28.6519 0.999998L28.7296 0.999998L28.8073 0.999998L28.8848 0.999998L28.9623 0.999998L29.0397 0.999998L29.117 0.999998L29.1942 0.999998L29.2714 0.999998L29.3484 0.999998L29.4254 0.999998L29.5023 0.999998L29.5792 0.999998L29.6559 0.999998L29.7326 0.999998L29.8091 0.999998L29.8856 0.999998L29.962 0.999998L30.0384 0.999998L30.1146 0.999998L30.1908 0.999998L30.2669 0.999998L30.3428 0.999998L30.4187 0.999998L30.4946 0.999998L30.5703 0.999998L30.6459 0.999998L30.7215 0.999998L30.797 0.999998L30.8723 0.999998L30.9476 0.999998L31.0228 0.999998L31.0979 0.999998L31.173 0.999998L31.2479 0.999998L31.3227 0.999998L31.3975 0.999998L31.4721 0.999998L31.5467 0.999998L31.6212 0.999998L31.6956 0.999998L31.7699 0.999998L31.8441 0.999998L31.9182 0.999998L31.9922 0.999998L32.0661 0.999998L32.1399 0.999998L32.2136 0.999998L32.2873 0.999998L32.3608 0.999998L32.4342 0.999998L32.5076 0.999998L32.5808 0.999998L32.654 0.999998L32.727 0.999998L32.8 0.999998L32.8728 0.999999L32.9456 0.999999L33.0182 0.999999L33.0908 0.999999L33.1632 0.999999L33.2356 0.999999L33.3078 0.999999L33.38 0.999999L33.452 0.999999L33.524 0.999999L33.5958 0.999999L33.6676 0.999999L33.7392 0.999999L33.8108 0.999999L33.8822 0.999999L33.9535 0.999999L34.0247 0.999999L34.0959 0.999999L34.1669 0.999999L34.2378 0.999999L34.3086 0.999999L34.3793 0.999999L34.4499 0.999999L34.5203 0.999999L34.5907 0.999999L34.661 0.999999L34.7311 0.999999L34.8012 0.999999L34.8711 0.999999L34.9409 0.999999L35.0107 0.999999L35.0803 0.999999L35.1498 0.999999L35.2191 0.999999L35.2884 0.999999L35.3576 0.999999L35.4266 0.999999L35.4956 0.999999L35.5644 0.999999L35.6331 0.999999L35.7017 0.999999L35.7702 0.999999L35.8385 0.999999L35.9068 0.999999L35.9749 0.999999L36.0429 0.999999L36.1108 0.999999L36.1786 0.999999L36.2463 0.999999L36.3139 0.999999L36.3813 0.999999L36.4486 0.999999L36.5158 0.999999L36.5829 0.999999L36.6498 0.999999L36.7167 0.999999L36.7834 0.999999L36.85 0.999999L36.9165 0.999999L36.9828 0.999999L37.0491 0.999999L37.1152 0.999999L37.1812 0.999999L37.2471 0.999999L37.3128 0.999999L37.3784 0.999999L37.4439 0.999999L37.5093 0.999999L37.5746 0.999999L37.6397 0.999999L37.7047 0.999999L37.7695 0.999999L37.8343 0.999999L37.8989 0.999999L37.9634 0.999999L38.0278 0.999999L38.092 0.999999L38.1561 0.999999L38.2201 0.999999L38.284 0.999999L38.3477 0.999999L38.4113 0.999999L38.4747 0.999999L38.5381 0.999999L38.6013 0.999999L38.6644 0.999999L38.7273 0.999999L38.7901 0.999999L38.8528 0.999999L38.9153 0.999999L38.9777 0.999999L39.04 0.999999L39.1022 0.999999L39.1642 0.999999L39.226 0.999999L39.2878 0.999999L39.3494 0.999999L39.4109 0.999999L39.4722 0.999999L39.5334 0.999999L39.5944 0.999999L39.6554 0.999999L39.7161 0.999999L39.7768 0.999999L39.8373 0.999999L39.8977 0.999999L39.9579 0.999999L40.018 0.999999L40.0779 0.999999L40.1377 0.999999L40.1974 0.999999L40.2569 0.999999L40.3163 0.999999L40.3756 0.999999L40.4347 0.999999L40.4936 0.999999L40.5525 0.999999L40.6111 0.999999L40.6697 0.999999L40.728 0.999999L40.7863 0.999999L40.8444 0.999999L40.9023 0.999999L40.9601 0.999999L41.0178 0.999999L41.0753 0.999999L41.1327 0.999999L41.1899 0.999999L41.2469 0.999999L41.3039 0.999999L41.3606 0.999999L41.4173 0.999999L41.4737 0.999999L41.5301 0.999999L41.5862 0.999999L41.6423 0.999999L41.6981 0.999999L41.7539 0.999999L41.8094 0.999999L41.8649 0.999999L41.9201 0.999999L41.9752 0.999999L42.0302 0.999999L42.085 0.999999L42.1397 0.999999L42.1942 0.999999L42.2485 0.999999L42.3027 0.999999L42.3567 0.999999L42.4106 0.999999L42.4643 0.999999L42.5179 0.999999L42.5713 0.999999L42.6246 0.999999L42.6777 0.999999L42.7306 0.999999L42.7834 0.999999L42.836 0.999999L42.8885 0.999999L42.9408 0.999999L42.9929 0.999999L43.0449 0.999999L43.0967 0.999999L43.1484 0.999999L43.1999 0.999999L43.2512 0.999999L43.3024 0.999999L43.3534 0.999999L43.4042 0.999999L43.4549 0.999999L43.5055 0.999999L43.5558 0.999999L43.606 0.999999L43.656 0.999999L43.7059 0.999999L43.7556 0.999999L43.8051 0.999999L43.8545 0.999999L43.9037 0.999999L43.9527 0.999999L44.0016 0.999999L44.0503 0.999999L44.0988 0.999999L44.1472 0.999999L44.1953 0.999999L44.2434 0.999999L44.2912 1L44.3389 1L44.3864 1L44.4337 1L44.4809 1L44.5279 1L44.5747 1L44.6214 1L44.6678 1L44.7142 1L44.7603 1L44.8062 1L44.852 1L44.8976 1L44.9431 1L44.9883 1L45.0334 1L45.0783 1L45.123 1L45.1676 1L45.2119 1L45.2561 1L45.3001 1L45.344 1L45.3876 1L45.4311 1L45.4744 1L45.5175 1L45.5605 1L45.6032 1L45.6458 1L45.6882 1L45.7304 1L45.7724 1L45.8143 1L45.8559 1L45.8974 1L45.9387 1L45.9798 1L46.0207 1L46.0615 1L46.102 1L46.1424 1L46.1826 1L46.2226 1L46.2624 1L46.302 1L46.3414 1L46.3807 1L46.4197 1L46.4586 1L46.4973 1L46.5358 1L46.574 1L46.6122 1L46.6501 1L46.6878 1L46.7253 1L46.7627 1L46.7998 1L46.8368 1L46.8735 1L46.9101 1L46.9465 1L46.9826 1L47.0186 1L47.0544 1L47.09 1L47.1254 1L47.1606 1L47.1956 1L47.2304 1L47.265 1L47.2994 1L47.3336 1L47.3677 1L47.4015 1L47.4351 1L47.4685 1L47.5017 1L47.5347 1L47.5675 1L47.6002 1L47.6326 1L47.6648 1L47.6968 1L47.7286 1L47.7602 1L47.7916 1L47.8228 1L47.8538 1L47.8845 1L47.9151 1L47.9455 1L47.9757 1L48.0056 1L48.0354 1L48.0649 1L48.0943 1L48.1234 1L48.1523 1L48.181 1L48.2095 1L48.2378 1L48.2659 1L48.2938 1L48.3215 1L48.3489 1L48.3762 1L48.4032 1L48.43 1L48.4566 1L48.483 1L48.5092 1L48.5352 1L48.5609 1L48.5864 1L48.6118 1L48.6369 1L48.6618 1L48.6865 1L48.7109 1L48.7352 1L48.7592 1L48.783 1L48.8066 1L48.83 1L48.8531 1L48.8761 1L48.8988 1L48.9213 1L48.9435 1L48.9656 1Z" fill="#003E6B" stroke="#003E6B" stroke-width="2"/>
<path d="M25 17L18 8L32 8L25 17Z" fill="white"/>
</svg>
