<svg width="592" height="215" viewBox="0 0 592 215" fill="none" xmlns="http://www.w3.org/2000/svg">
<g clip-path="url(#clip0)">
<rect x="1.0166" y="0.751465" width="590" height="212.5" rx="4.5" fill="white" stroke="#668BA6"/>
<rect x="12.0166" y="12.2515" width="136" height="189.5" rx="5" fill="url(#paint0_linear)"/>
<rect x="156.017" y="12.2515" width="136" height="189.5" rx="5" fill="url(#paint1_linear)"/>
<rect x="300.017" y="12.2515" width="136" height="189.5" rx="5" fill="url(#paint2_linear)"/>
<rect x="444.017" y="12.2515" width="136" height="189.5" rx="5" fill="url(#paint3_linear)"/>
<g filter="url(#filter0_d)">
<path d="M367.453 174.239C365.493 174.239 362.501 173.52 360.851 173.007C359.2 172.494 357.859 166.54 357.859 166.54C353.527 149.704 347.663 124.933 347.529 109.999C347.503 107.04 347.529 49.564 347.529 49.564H350.846H387.335V109.999C387.335 125.424 380.45 149.704 376.117 166.54C376.117 166.54 374.776 172.494 373.126 173.007C371.476 173.52 368.484 174.239 366.524 174.239" fill="#868CA6"/>
<path opacity="0.7" d="M367.332 172.17C365.579 172.17 362.897 171.554 361.453 171.041C360.009 170.63 358.771 165.189 358.771 165.189C354.851 150.099 350.875 127.852 349.741 114.609C349.741 107.796 349.741 57.5333 349.741 57.5333V52.7085H385.124C385.124 52.7085 385.742 107.629 385.124 114.609C383.989 127.852 379.092 149.996 375.172 165.087C375.172 165.087 373.934 170.425 372.49 170.938C371.046 171.349 368.364 172.067 366.61 172.067" fill="#C0C3D2"/>
<rect x="343.106" y="49.564" width="50.8629" height="4.40699" fill="#868CA6"/>
<path opacity="0.7" d="M367.332 172.169C365.579 172.169 362.897 171.553 361.453 171.04C360.009 170.629 358.771 165.189 358.771 165.189C354.851 150.098 350.875 127.851 349.741 114.609V106.854H368.465H385.123V114.609C383.989 127.851 379.092 149.996 375.172 165.086C375.172 165.086 373.934 170.424 372.49 170.937C371.046 171.348 368.364 172.067 366.61 172.067" fill="#00AEEF"/>
<rect x="347.529" y="68.1328" width="39.8058" height="35.2559" fill="white"/>
<path d="M376.278 53.9707H387.335C387.335 53.9707 387.335 105.893 387.335 112.383C387.335 118.874 382.912 139.426 382.912 139.426C382.912 139.426 374.55 171.404 374.066 171.878C373.583 172.351 367.432 172.959 367.432 172.959L376.278 112.383V53.9707Z" fill="black" fill-opacity="0.1"/>
<rect x="338.683" y="42.9536" width="57.4972" height="4.40699" fill="#868CA6"/>
<rect x="349.741" y="47.3608" width="35.3829" height="2.2035" fill="#577898"/>
<path fill-rule="evenodd" clip-rule="evenodd" d="M402.091 45.4282C402.645 46.3587 402.815 47.4182 402.815 48.4623C402.815 49.5065 402.645 50.566 402.091 51.4965C401.506 52.4802 400.641 53.0738 399.721 53.4176C398.86 53.7395 397.909 53.8591 397.01 53.9151C396.111 53.9711 395.086 53.9711 394.019 53.9711H393.969V49.5641C395.096 49.5641 395.988 49.5632 396.734 49.5167C397.493 49.4695 397.924 49.3826 398.168 49.2912C398.222 49.2713 398.257 49.2543 398.279 49.2424C398.285 49.2392 398.29 49.2364 398.294 49.234C398.296 49.2288 398.299 49.2223 398.302 49.2144C398.312 49.1888 398.325 49.147 398.339 49.0846C398.367 48.9566 398.392 48.7575 398.392 48.4623C398.392 48.1672 398.367 47.968 398.339 47.8401C398.325 47.7776 398.312 47.7359 398.302 47.7103C398.299 47.7023 398.296 47.6958 398.294 47.6907C398.29 47.6883 398.285 47.6855 398.279 47.6823C398.257 47.6704 398.222 47.6534 398.168 47.6334C397.924 47.5421 397.493 47.4552 396.734 47.4079C395.988 47.3615 395.096 47.3606 393.969 47.3606L393.969 42.9536L394.019 42.9536C395.085 42.9536 396.111 42.9536 397.01 43.0095C397.909 43.0656 398.86 43.1852 399.721 43.5071C400.641 43.8508 401.506 44.4445 402.091 45.4282Z" fill="#868CA6"/>
</g>
<path d="M358.696 92.1624H360.588V88.3584L363.175 85.6995L367.422 92.1624H369.63L364.478 84.3603L369.567 78.9648H367.233L360.588 85.9712V78.9648H358.696V92.1624Z" fill="#333333"/>
<path d="M372.145 89.7475H373.785V86.9028H376.696V85.4278H373.785V82.5831H372.145V85.4278H369.235V86.9028H372.145V89.7475Z" fill="#333333"/>
<rect x="352.696" y="111.163" width="14" height="5" fill="#309DCB"/>
<rect x="368.696" y="117.663" width="14" height="5" fill="#309DCB"/>
<rect x="355.196" y="126.663" width="14" height="5" fill="#309DCB"/>
<rect x="359.696" y="136.663" width="14" height="5" fill="#309DCB"/>
<rect x="363.196" y="146.663" width="14" height="5" fill="#309DCB"/>
<rect x="360.196" y="157.163" width="14" height="5" fill="#309DCB"/>
<g filter="url(#filter1_d)">
<path d="M510.606 175.79C508.646 175.79 505.654 175.071 504.004 174.558C502.353 174.045 501.012 168.091 501.012 168.091C496.68 151.256 490.816 126.484 490.682 111.55C490.656 108.591 490.682 51.1152 490.682 51.1152H493.999H530.488V111.55C530.488 126.975 523.603 151.256 519.27 168.091C519.27 168.091 517.929 174.045 516.279 174.558C514.628 175.071 511.637 175.79 509.677 175.79" fill="#868CA6"/>
<path opacity="0.7" d="M510.485 173.721C508.732 173.721 506.05 173.105 504.606 172.592C503.162 172.181 501.924 166.741 501.924 166.741C498.004 151.65 494.028 129.403 492.894 116.16C492.894 109.347 492.894 59.0845 492.894 59.0845V54.2598H528.276C528.276 54.2598 528.895 109.18 528.276 116.16C527.142 129.403 522.245 151.548 518.325 166.638C518.325 166.638 517.087 171.976 515.643 172.489C514.199 172.9 511.517 173.618 509.763 173.618" fill="#C0C3D2"/>
<rect x="486.259" y="51.1152" width="50.8629" height="4.40699" fill="#868CA6"/>
<path opacity="0.7" d="M510.485 173.721C508.732 173.721 506.05 173.105 504.606 172.591C503.161 172.181 501.924 166.74 501.924 166.74C498.004 151.65 494.028 129.402 492.893 116.16V108.406H511.618H528.276V116.16C527.142 129.402 522.245 151.547 518.325 166.637C518.325 166.637 517.087 171.975 515.643 172.489C514.199 172.899 511.517 173.618 509.763 173.618" fill="#00AEEF"/>
<rect x="490.682" y="69.6841" width="39.8058" height="35.2559" fill="white"/>
<path d="M519.431 55.522H530.488C530.488 55.522 530.488 107.444 530.488 113.935C530.488 120.425 526.065 140.977 526.065 140.977C526.065 140.977 517.703 172.956 517.219 173.429C516.736 173.902 510.585 174.511 510.585 174.511L519.431 113.935V55.522Z" fill="black" fill-opacity="0.1"/>
<rect x="481.836" y="44.5049" width="57.4972" height="4.40699" fill="#868CA6"/>
<rect x="492.893" y="48.9121" width="35.3829" height="2.2035" fill="#577898"/>
<path fill-rule="evenodd" clip-rule="evenodd" d="M545.244 46.9794C545.798 47.91 545.968 48.9695 545.968 50.0136C545.968 51.0577 545.798 52.1173 545.244 53.0478C544.659 54.0315 543.794 54.6251 542.874 54.9689C542.013 55.2907 541.062 55.4104 540.163 55.4664C539.264 55.5224 538.238 55.5224 537.172 55.5223H537.122V51.1154C538.249 51.1154 539.141 51.1145 539.887 51.068C540.645 51.0208 541.077 50.9338 541.321 50.8425C541.375 50.8226 541.41 50.8055 541.432 50.7937C541.438 50.7905 541.443 50.7876 541.447 50.7853C541.449 50.7801 541.452 50.7736 541.455 50.7656C541.465 50.7401 541.478 50.6983 541.492 50.6359C541.52 50.5079 541.545 50.3087 541.545 50.0136C541.545 49.7185 541.52 49.5193 541.492 49.3913C541.478 49.3289 541.465 49.2871 541.455 49.2616C541.452 49.2536 541.449 49.2471 541.447 49.242C541.443 49.2396 541.438 49.2368 541.432 49.2335C541.41 49.2217 541.375 49.2047 541.321 49.1847C541.077 49.0934 540.645 49.0065 539.887 48.9592C539.141 48.9128 538.249 48.9119 537.122 48.9119L537.122 44.5049L537.172 44.5049C538.238 44.5049 539.264 44.5048 540.163 44.5608C541.062 44.6168 542.013 44.7365 542.874 45.0583C543.794 45.4021 544.659 45.9957 545.244 46.9794Z" fill="#868CA6"/>
</g>
<circle cx="502.349" cy="117.214" r="3.5" stroke="#309DCB" stroke-width="2"/>
<circle cx="516.849" cy="122.714" r="3.5" stroke="#309DCB" stroke-width="2"/>
<circle cx="505.349" cy="131.714" r="3.5" stroke="#309DCB" stroke-width="2"/>
<circle cx="514.349" cy="143.214" r="3.5" stroke="#309DCB" stroke-width="2"/>
<circle cx="505.349" cy="153.214" r="3.5" stroke="#309DCB" stroke-width="2"/>
<circle cx="510.849" cy="167.214" r="3.5" stroke="#309DCB" stroke-width="2"/>
<path d="M501.849 95.3473H503.741V91.4898L506.328 88.7934L510.575 95.3473H512.783L507.631 87.4353L512.72 81.9639H510.386L503.741 89.0689V81.9639H501.849V95.3473Z" fill="#333333"/>
<path d="M516.96 90.0136H517.969H518.359H519.849V88.5178H518.359H518.074H516.96H516.719H512.387V90.0136H516.719H516.96Z" fill="#333333"/>
<g filter="url(#filter2_d)">
<path d="M81.1462 175.79C79.1863 175.79 76.1948 175.071 74.5444 174.558C72.8939 174.045 71.553 168.091 71.553 168.091C67.2205 151.256 61.3565 126.484 61.2229 111.55C61.1965 108.591 61.2229 51.1152 61.2229 51.1152H64.5399H101.029V111.55C101.029 126.975 94.1434 151.256 89.811 168.091C89.811 168.091 88.47 174.045 86.8195 174.558C85.1691 175.071 82.1777 175.79 80.2178 175.79" fill="#868CA6"/>
<path opacity="0.7" d="M81.0261 173.721C79.2725 173.721 76.5905 173.105 75.1464 172.592C73.7022 172.181 72.4644 166.741 72.4644 166.741C68.5446 151.65 64.5689 129.403 63.4342 116.16C63.4342 109.347 63.4342 59.0845 63.4342 59.0845V54.2598H98.8171C98.8171 54.2598 99.436 109.18 98.8171 116.16C97.6824 129.403 92.7855 151.548 88.8657 166.638C88.8657 166.638 87.6278 171.976 86.1837 172.489C84.7396 172.9 82.0576 173.618 80.304 173.618" fill="#C0C3D2"/>
<rect x="56.7999" y="51.1152" width="50.8629" height="4.40699" fill="#868CA6"/>
<path opacity="0.7" d="M81.026 173.721C79.2724 173.721 76.5905 173.105 75.1463 172.591C73.7022 172.181 72.4644 166.74 72.4644 166.74C68.5446 151.65 64.5688 129.402 63.4341 116.16V108.406H82.1589H98.8171V116.16C97.6824 129.402 92.7854 151.547 88.8656 166.637C88.8656 166.637 87.6278 171.975 86.1836 172.489C84.7395 172.899 82.0575 173.618 80.3039 173.618" fill="#00AEEF"/>
<rect x="61.2228" y="69.6841" width="39.8058" height="35.2559" fill="white"/>
<path d="M89.9715 55.522H101.029C101.029 55.522 101.029 107.444 101.029 113.935C101.029 120.425 96.6058 140.977 96.6058 140.977C96.6058 140.977 88.2438 172.956 87.76 173.429C87.2763 173.902 81.1257 174.511 81.1257 174.511L89.9715 113.935V55.522Z" fill="black" fill-opacity="0.1"/>
<rect x="52.377" y="44.5049" width="57.4972" height="4.40699" fill="#868CA6"/>
<rect x="63.4341" y="48.9121" width="35.3829" height="2.2035" fill="#577898"/>
<path fill-rule="evenodd" clip-rule="evenodd" d="M115.785 46.9794C116.338 47.91 116.509 48.9695 116.509 50.0136C116.509 51.0577 116.338 52.1173 115.785 53.0478C115.2 54.0315 114.335 54.6251 113.415 54.9689C112.554 55.2907 111.603 55.4104 110.703 55.4664C109.805 55.5224 108.779 55.5224 107.713 55.5223H107.663V51.1154C108.79 51.1154 109.681 51.1145 110.427 51.068C111.186 51.0208 111.618 50.9338 111.862 50.8425C111.915 50.8226 111.951 50.8055 111.973 50.7937C111.979 50.7905 111.984 50.7876 111.988 50.7853C111.99 50.7801 111.993 50.7736 111.996 50.7656C112.005 50.7401 112.019 50.6983 112.033 50.6359C112.061 50.5079 112.086 50.3087 112.086 50.0136C112.086 49.7185 112.061 49.5193 112.033 49.3913C112.019 49.3289 112.005 49.2871 111.996 49.2616C111.993 49.2536 111.99 49.2471 111.988 49.242C111.984 49.2396 111.979 49.2368 111.973 49.2335C111.951 49.2217 111.915 49.2047 111.862 49.1847C111.618 49.0934 111.186 49.0065 110.427 48.9592C109.681 48.9128 108.79 48.9119 107.663 48.9119L107.663 44.5049L107.713 44.5049C108.779 44.5049 109.805 44.5048 110.703 44.5608C111.603 44.6168 112.554 44.7365 113.415 45.0583C114.335 45.4021 115.2 45.9957 115.785 46.9794Z" fill="#868CA6"/>
</g>
<path d="M71.8896 92.2139H73.6383L74.804 89.1942H79.9559L81.1216 92.2139H82.9267L78.2637 80.4126H76.5526L71.8896 92.2139ZM75.3493 87.7711L77.38 82.4084L79.4106 87.7711H75.3493Z" fill="black"/>
<path d="M85.8203 90.0545H87.2869V87.5108H89.8896V86.1918H87.2869V83.6481H85.8203V86.1918H83.2175V87.5108H85.8203V90.0545Z" fill="black"/>
<rect x="66.3896" y="112.714" width="14" height="5" fill="#309DCB"/>
<rect x="82.3896" y="119.214" width="14" height="5" fill="#309DCB"/>
<rect x="68.8896" y="128.214" width="14" height="5" fill="#309DCB"/>
<rect x="73.3896" y="138.214" width="14" height="5" fill="#309DCB"/>
<rect x="76.8896" y="148.214" width="14" height="5" fill="#309DCB"/>
<rect x="73.8896" y="158.714" width="14" height="5" fill="#309DCB"/>
<g filter="url(#filter3_d)">
<path d="M222.514 175.79C220.554 175.79 217.563 175.071 215.912 174.558C214.262 174.045 212.921 168.091 212.921 168.091C208.588 151.256 202.724 126.484 202.591 111.55C202.564 108.591 202.591 51.1152 202.591 51.1152H205.908H242.396V111.55C242.396 126.975 235.511 151.256 231.179 168.091C231.179 168.091 229.838 174.045 228.187 174.558C226.537 175.071 223.545 175.79 221.586 175.79" fill="#868CA6"/>
<path opacity="0.7" d="M222.394 173.721C220.64 173.721 217.958 173.105 216.514 172.592C215.07 172.181 213.832 166.741 213.832 166.741C209.912 151.65 205.937 129.403 204.802 116.16C204.802 109.347 204.802 59.0845 204.802 59.0845V54.2598H240.185C240.185 54.2598 240.804 109.18 240.185 116.16C239.05 129.403 234.153 151.548 230.233 166.638C230.233 166.638 228.996 171.976 227.552 172.489C226.107 172.9 223.425 173.618 221.672 173.618" fill="#C0C3D2"/>
<rect x="198.168" y="51.1152" width="50.8629" height="4.40699" fill="#868CA6"/>
<path opacity="0.7" d="M222.394 173.721C220.64 173.721 217.958 173.105 216.514 172.591C215.07 172.181 213.832 166.74 213.832 166.74C209.912 151.65 205.937 129.402 204.802 116.16V108.406H223.527H240.185V116.16C239.05 129.402 234.153 151.547 230.233 166.637C230.233 166.637 228.996 171.975 227.551 172.489C226.107 172.899 223.425 173.618 221.672 173.618" fill="#00AEEF"/>
<rect x="202.591" y="69.6841" width="39.8058" height="35.2559" fill="white"/>
<path d="M231.339 55.522H242.396C242.396 55.522 242.396 107.444 242.396 113.935C242.396 120.425 237.974 140.977 237.974 140.977C237.974 140.977 229.612 172.956 229.128 173.429C228.644 173.902 222.494 174.511 222.494 174.511L231.339 113.935V55.522Z" fill="black" fill-opacity="0.1"/>
<rect x="193.745" y="44.5049" width="57.4972" height="4.40699" fill="#868CA6"/>
<rect x="204.802" y="48.9121" width="35.3829" height="2.2035" fill="#577898"/>
<path fill-rule="evenodd" clip-rule="evenodd" d="M257.153 46.9794C257.706 47.91 257.876 48.9695 257.876 50.0136C257.876 51.0577 257.706 52.1173 257.153 53.0478C256.568 54.0315 255.703 54.6251 254.783 54.9689C253.921 55.2907 252.971 55.4104 252.071 55.4664C251.172 55.5224 250.147 55.5224 249.081 55.5223H249.031V51.1154C250.158 51.1154 251.049 51.1145 251.795 51.068C252.554 51.0208 252.985 50.9338 253.23 50.8425C253.283 50.8226 253.319 50.8055 253.341 50.7937C253.347 50.7905 253.352 50.7876 253.356 50.7853C253.358 50.7801 253.361 50.7736 253.364 50.7656C253.373 50.7401 253.387 50.6983 253.4 50.6359C253.428 50.5079 253.453 50.3087 253.453 50.0136C253.453 49.7185 253.428 49.5193 253.4 49.3913C253.387 49.3289 253.373 49.2871 253.364 49.2616C253.361 49.2536 253.358 49.2471 253.356 49.242C253.352 49.2396 253.347 49.2368 253.341 49.2335C253.319 49.2217 253.283 49.2047 253.23 49.1847C252.985 49.0934 252.554 49.0065 251.795 48.9592C251.049 48.9128 250.158 48.9119 249.031 48.9119L249.031 44.5049L249.081 44.5049C250.147 44.5049 251.172 44.5048 252.071 44.5608C252.971 44.6168 253.921 44.7365 254.783 45.0583C255.703 45.4021 256.568 45.9957 257.153 46.9794Z" fill="#868CA6"/>
</g>
<circle cx="214.257" cy="117.214" r="3.5" stroke="#309DCB" stroke-width="2"/>
<circle cx="228.757" cy="122.714" r="3.5" stroke="#309DCB" stroke-width="2"/>
<circle cx="217.257" cy="131.714" r="3.5" stroke="#309DCB" stroke-width="2"/>
<circle cx="226.257" cy="143.214" r="3.5" stroke="#309DCB" stroke-width="2"/>
<circle cx="217.257" cy="153.214" r="3.5" stroke="#309DCB" stroke-width="2"/>
<circle cx="222.757" cy="167.214" r="3.5" stroke="#309DCB" stroke-width="2"/>
<path d="M213.757 93.7652H215.506L216.672 90.7455H221.824L222.989 93.7652H224.794L220.131 81.9639H218.42L213.757 93.7652ZM217.217 89.3224L219.248 83.9597L221.278 89.3224H217.217Z" fill="black"/>
<path d="M228.959 89.062H230.425H231.757V87.7431H230.425H228.959H225.085V89.062H228.959Z" fill="black"/>
</g>
<defs>
<filter id="filter0_d" x="322.683" y="-26.3374" width="118.013" height="221.5" filterUnits="userSpaceOnUse" color-interpolation-filters="sRGB">
<feFlood flood-opacity="0" result="BackgroundImageFix"/>
<feColorMatrix in="SourceAlpha" type="matrix" values="0 0 0 0 0 0 0 0 0 0 0 0 0 0 0 0 0 0 127 0"/>
<feOffset dy="4"/>
<feGaussianBlur stdDeviation="8"/>
<feColorMatrix type="matrix" values="0 0 0 0 0 0 0 0 0 0 0 0 0 0 0 0 0 0 0.25 0"/>
<feBlend mode="normal" in2="BackgroundImageFix" result="effect1_dropShadow"/>
<feBlend mode="normal" in="SourceGraphic" in2="effect1_dropShadow" result="shape"/>
</filter>
<filter id="filter1_d" x="465.836" y="-24.7861" width="118.013" height="221.5" filterUnits="userSpaceOnUse" color-interpolation-filters="sRGB">
<feFlood flood-opacity="0" result="BackgroundImageFix"/>
<feColorMatrix in="SourceAlpha" type="matrix" values="0 0 0 0 0 0 0 0 0 0 0 0 0 0 0 0 0 0 127 0"/>
<feOffset dy="4"/>
<feGaussianBlur stdDeviation="8"/>
<feColorMatrix type="matrix" values="0 0 0 0 0 0 0 0 0 0 0 0 0 0 0 0 0 0 0.25 0"/>
<feBlend mode="normal" in2="BackgroundImageFix" result="effect1_dropShadow"/>
<feBlend mode="normal" in="SourceGraphic" in2="effect1_dropShadow" result="shape"/>
</filter>
<filter id="filter2_d" x="36.377" y="-24.7861" width="118.013" height="221.5" filterUnits="userSpaceOnUse" color-interpolation-filters="sRGB">
<feFlood flood-opacity="0" result="BackgroundImageFix"/>
<feColorMatrix in="SourceAlpha" type="matrix" values="0 0 0 0 0 0 0 0 0 0 0 0 0 0 0 0 0 0 127 0"/>
<feOffset dy="4"/>
<feGaussianBlur stdDeviation="8"/>
<feColorMatrix type="matrix" values="0 0 0 0 0 0 0 0 0 0 0 0 0 0 0 0 0 0 0.25 0"/>
<feBlend mode="normal" in2="BackgroundImageFix" result="effect1_dropShadow"/>
<feBlend mode="normal" in="SourceGraphic" in2="effect1_dropShadow" result="shape"/>
</filter>
<filter id="filter3_d" x="177.745" y="-24.7861" width="118.013" height="221.5" filterUnits="userSpaceOnUse" color-interpolation-filters="sRGB">
<feFlood flood-opacity="0" result="BackgroundImageFix"/>
<feColorMatrix in="SourceAlpha" type="matrix" values="0 0 0 0 0 0 0 0 0 0 0 0 0 0 0 0 0 0 127 0"/>
<feOffset dy="4"/>
<feGaussianBlur stdDeviation="8"/>
<feColorMatrix type="matrix" values="0 0 0 0 0 0 0 0 0 0 0 0 0 0 0 0 0 0 0.25 0"/>
<feBlend mode="normal" in2="BackgroundImageFix" result="effect1_dropShadow"/>
<feBlend mode="normal" in="SourceGraphic" in2="effect1_dropShadow" result="shape"/>
</filter>
<linearGradient id="paint0_linear" x1="80.0166" y1="12.2515" x2="80.0166" y2="201.751" gradientUnits="userSpaceOnUse">
<stop stop-color="#014C91"/>
<stop offset="1" stop-color="#003257"/>
</linearGradient>
<linearGradient id="paint1_linear" x1="224.017" y1="12.2515" x2="224.017" y2="201.751" gradientUnits="userSpaceOnUse">
<stop stop-color="#014C91"/>
<stop offset="1" stop-color="#003257"/>
</linearGradient>
<linearGradient id="paint2_linear" x1="368.017" y1="12.2515" x2="368.017" y2="201.751" gradientUnits="userSpaceOnUse">
<stop stop-color="#014C91"/>
<stop offset="1" stop-color="#003257"/>
</linearGradient>
<linearGradient id="paint3_linear" x1="512.017" y1="12.2515" x2="512.017" y2="201.751" gradientUnits="userSpaceOnUse">
<stop stop-color="#014C91"/>
<stop offset="1" stop-color="#003257"/>
</linearGradient>
<clipPath id="clip0">
<rect width="591" height="214" fill="white" transform="translate(0.516602 0.251465)"/>
</clipPath>
</defs>
</svg>
