<svg width="525" height="645" viewBox="0 0 525 645" fill="none" xmlns="http://www.w3.org/2000/svg">
<path d="M525 0H0V645H525V0Z" fill="white"/>
<path opacity="0.4" d="M504.777 20.6704H22.2255V618.51H504.777V20.6704Z" fill="#7CB4D0"/>
<path opacity="0.1" d="M504.777 20.6704H22.2255V618.51H504.777V20.6704Z" fill="#BCDEEA"/>
<path opacity="0.5" d="M22.2254 20.6705L0 0V645L22.2254 618.51V20.6705Z" fill="#7CB4D0"/>
<path opacity="0.5" d="M504.777 618.51L525 645V0L504.777 20.6705V618.51Z" fill="#7CB4D0"/>
<path opacity="0.4" d="M525 0H0V645H525V0Z" fill="#7CB4D0"/>
<path opacity="0.8" d="M504.777 618.309H22.2254L0 645H525L504.777 618.309Z" fill="#7CB4D0"/>
<path opacity="0.2" d="M112.357 93.2087H185.389V62.1026L112.357 62.1026V93.2087Z" fill="#3E6E7A"/>
<path opacity="0.2" d="M112.357 93.2087H185.389V62.1026L112.357 62.1026V93.2087Z" fill="#3E6E7A"/>
<path opacity="0.2" d="M100 89.7439L191 89.7439V58.4371L100 58.4371V89.7439Z" fill="#3E6E7A"/>
<path opacity="0.2" d="M185.426 93.1535L190.932 89.7418V58.4351L185.426 61.8467V93.1535Z" fill="#3E6E7A"/>
<path opacity="0.2" d="M112.4 61.8467L100.228 58.4351V89.7418L112.4 93.1535V61.8467Z" fill="#3E6E7A"/>
<path opacity="0.5" d="M100.223 86.3306V89.5415L112.395 93.1538H185.426L190.933 89.5415V86.3306H100.223Z" fill="white"/>
<path opacity="0.2" d="M484.694 61.8462H410.86V92.9523H484.694V61.8462Z" fill="#3E6E7A"/>
<path opacity="0.2" d="M484.694 61.8462H410.86V92.9523H484.694V61.8462Z" fill="#3E6E7A"/>
<path opacity="0.2" d="M497 58.4351H405V89.7418H497V58.4351Z" fill="#3E6E7A"/>
<path opacity="0.2" d="M410.86 92.9528L405 89.5412V58.4351L410.86 61.8467V92.9528Z" fill="#3E6E7A"/>
<path opacity="0.2" d="M484.401 61.8467L497 58.4351V89.5412L484.401 92.9528V61.8467Z" fill="#3E6E7A"/>
<path opacity="0.5" d="M497 86.1296V89.5413L484.401 92.9529H410.86L405 89.5413V86.1296H497Z" fill="white"/>
<path opacity="0.2" d="M382.827 61.8462H309.795V92.9523H382.827V61.8462Z" fill="#3E6E7A"/>
<path opacity="0.2" d="M382.827 61.8462H309.795V92.9523H382.827V61.8462Z" fill="#3E6E7A"/>
<path opacity="0.2" d="M395 58.4351H304V89.7418H395V58.4351Z" fill="#3E6E7A"/>
<path opacity="0.2" d="M309.796 92.9528L304 89.5412V58.4351L309.796 61.8467V92.9528Z" fill="#3E6E7A"/>
<path opacity="0.2" d="M382.828 61.8467L395 58.4351V89.5412L382.828 92.9528V61.8467Z" fill="#3E6E7A"/>
<path opacity="0.5" d="M395 86.1296V89.5413L382.828 92.9529H309.796L304 89.5413V86.1296H395Z" fill="white"/>
<path opacity="0.2" d="M281.538 61.8462H208.507V92.9523H281.538V61.8462Z" fill="#3E6E7A"/>
<path opacity="0.2" d="M281.538 61.8462H208.507V92.9523H281.538V61.8462Z" fill="#3E6E7A"/>
<path opacity="0.2" d="M294 58.4351H203V89.7418H294V58.4351Z" fill="#3E6E7A"/>
<path opacity="0.2" d="M208.506 92.9528L203 89.5412V58.4351L208.506 61.8467V92.9528Z" fill="#3E6E7A"/>
<path opacity="0.2" d="M281.539 61.8467L293.711 58.4351V89.5412L281.539 92.9528V61.8467Z" fill="#3E6E7A"/>
<path opacity="0.5" d="M293.71 86.1296V89.5413L281.538 92.9529H208.506L203 89.5413V86.1296H293.71Z" fill="white"/>
<path d="M142.63 48H149.365V46.41H146.905V37.8H145.18C144.565 38.7 143.695 39.075 142.33 39.12V40.575C143.275 40.56 144.235 40.47 145.105 40.065V46.41H142.63V48Z" fill="#003E6B"/>
<path d="M244.865 48H252.08V46.41H246.665C246.755 45.57 247.355 45.045 248.975 44.325C251.225 43.32 252.095 42.285 252.095 40.62C252.095 38.745 250.88 37.62 248.585 37.62C246.305 37.62 245.03 38.73 245.03 40.785V41.205H246.74V40.95C246.74 39.765 247.37 39.18 248.57 39.18C249.74 39.18 250.295 39.75 250.295 40.635C250.295 41.595 249.74 42.18 248.075 42.945C245.75 44.025 244.865 45.165 244.865 47.085V48Z" fill="#003E6B"/>
<path d="M349.525 48.18C351.94 48.18 353.2 47.19 353.2 45.18C353.2 43.92 352.705 43.11 351.625 42.705V42.675C352.525 42.285 352.96 41.535 352.96 40.455C352.96 38.61 351.73 37.62 349.54 37.62C347.26 37.62 346.015 38.685 346.015 40.635V40.905H347.74V40.74C347.74 39.735 348.34 39.18 349.495 39.18C350.59 39.18 351.175 39.675 351.175 40.635C351.175 41.61 350.59 42.045 349.405 42.045H348.37V43.605H349.42C350.8 43.605 351.4 44.085 351.4 45.105C351.4 46.155 350.725 46.62 349.525 46.62C348.235 46.62 347.605 46.08 347.605 45.03V44.82H345.865V45.27C345.865 47.19 347.125 48.18 349.525 48.18Z" fill="#003E6B"/>
<path d="M451.575 48H453.375V45.795H454.5V44.265H453.375V37.8H451.41L446.595 44.16V45.795H451.575V48ZM448.41 44.265L451.575 40.005V44.265H448.41Z" fill="#003E6B"/>
<rect x="32" y="167" width="61" height="16" fill="#8CBDD6"/>
<rect x="32" y="194" width="61" height="16" fill="#8CBDD6"/>
<rect x="32" y="222" width="61" height="16" fill="#8CBDD6"/>
<rect x="32" y="250" width="61" height="16" fill="#8CBDD6"/>
<rect x="32" y="278" width="61" height="16" fill="#8CBDD6"/>
<rect x="32" y="330" width="61" height="16" fill="#8CBDD6"/>
<rect x="32" y="388" width="61" height="16" fill="#8CBDD6"/>
<rect x="32" y="427" width="61" height="16" fill="#8CBDD6"/>
<rect x="32" y="488" width="61" height="16" fill="#8CBDD6"/>
<rect x="32" y="552" width="61" height="16" fill="#8CBDD6"/>
<path d="M52.3945 179H57.8805V177.921H55.7095V170.16H54.6175C54.0325 170.914 53.2525 171.252 52.1345 171.291V172.305C53.0055 172.279 53.8375 172.175 54.5655 171.668V177.921H52.3945V179ZM62.5028 179.156C64.6218 179.156 65.7658 178.259 65.7658 176.621C65.7658 175.516 65.2458 174.775 64.2448 174.424V174.398C65.0898 174.073 65.5188 173.41 65.5188 172.448C65.5188 170.901 64.4138 170.004 62.5158 170.004C60.6178 170.004 59.4998 170.901 59.4998 172.448C59.4998 173.41 59.9288 174.073 60.7608 174.398V174.424C59.7598 174.762 59.2398 175.516 59.2398 176.621C59.2398 178.259 60.3838 179.156 62.5028 179.156ZM62.5028 173.956C61.2808 173.956 60.6308 173.449 60.6308 172.513C60.6308 171.551 61.3198 171.044 62.5028 171.044C63.7118 171.044 64.3878 171.564 64.3878 172.513C64.3878 173.449 63.7248 173.956 62.5028 173.956ZM62.5028 178.116C61.0988 178.116 60.3838 177.583 60.3838 176.556C60.3838 175.529 61.0988 174.996 62.5028 174.996C63.9068 174.996 64.6218 175.529 64.6218 176.556C64.6218 177.583 63.9068 178.116 62.5028 178.116ZM70.3232 179.156C72.2992 179.156 73.3652 178.129 73.3652 176.218V172.942C73.3652 171.031 72.2992 170.004 70.3232 170.004C68.3472 170.004 67.2812 171.031 67.2812 172.942V176.218C67.2812 178.129 68.3472 179.156 70.3232 179.156ZM70.3232 178.116C69.0492 178.116 68.4252 177.466 68.4252 176.14V173.02C68.4252 171.694 69.0492 171.044 70.3232 171.044C71.5972 171.044 72.2212 171.694 72.2212 173.02V176.14C72.2212 177.466 71.5972 178.116 70.3232 178.116Z" fill="#003E6B"/>
<path d="M52.3945 206H57.8805V204.921H55.7095V197.16H54.6175C54.0325 197.914 53.2525 198.252 52.1345 198.291V199.305C53.0055 199.279 53.8375 199.175 54.5655 198.668V204.921H52.3945V206ZM63.7118 206H64.8558V203.972H65.8958V202.932H64.8558V197.16H63.5558L59.1618 202.867V203.972H63.7118V206ZM60.4488 202.932L63.7118 198.642V202.932H60.4488ZM70.3232 206.156C72.2992 206.156 73.3652 205.129 73.3652 203.218V199.942C73.3652 198.031 72.2992 197.004 70.3232 197.004C68.3472 197.004 67.2812 198.031 67.2812 199.942V203.218C67.2812 205.129 68.3472 206.156 70.3232 206.156ZM70.3232 205.116C69.0492 205.116 68.4252 204.466 68.4252 203.14V200.02C68.4252 198.694 69.0492 198.044 70.3232 198.044C71.5972 198.044 72.2212 198.694 72.2212 200.02V203.14C72.2212 204.466 71.5972 205.116 70.3232 205.116Z" fill="#003E6B"/>
<path d="M52.3945 234H57.8805V232.921H55.7095V225.16H54.6175C54.0325 225.914 53.2525 226.252 52.1345 226.291V227.305C53.0055 227.279 53.8375 227.175 54.5655 226.668V232.921H52.3945V234ZM62.5028 234.156C64.4788 234.156 65.5448 233.129 65.5448 231.218V227.942C65.5448 226.031 64.4788 225.004 62.5028 225.004C60.5268 225.004 59.4608 226.031 59.4608 227.942V231.218C59.4608 233.129 60.5268 234.156 62.5028 234.156ZM62.5028 233.116C61.2288 233.116 60.6048 232.466 60.6048 231.14V228.02C60.6048 226.694 61.2288 226.044 62.5028 226.044C63.7768 226.044 64.4008 226.694 64.4008 228.02V231.14C64.4008 232.466 63.7768 233.116 62.5028 233.116ZM70.3232 234.156C72.2992 234.156 73.3652 233.129 73.3652 231.218V227.942C73.3652 226.031 72.2992 225.004 70.3232 225.004C68.3472 225.004 67.2812 226.031 67.2812 227.942V231.218C67.2812 233.129 68.3472 234.156 70.3232 234.156ZM70.3232 233.116C69.0492 233.116 68.4252 232.466 68.4252 231.14V228.02C68.4252 226.694 69.0492 226.044 70.3232 226.044C71.5972 226.044 72.2212 226.694 72.2212 228.02V231.14C72.2212 232.466 71.5972 233.116 70.3232 233.116Z" fill="#003E6B"/>
<path d="M56.8637 262H58.0857C58.2157 258.958 59.4117 256.501 61.7127 254.291V253.16H55.4337V254.252H60.3867C58.2027 256.345 56.9937 258.971 56.8637 262ZM66.426 262.156C68.454 262.156 69.598 261.168 69.598 259.166C69.598 257.268 68.558 256.228 66.764 256.228C65.971 256.228 65.321 256.436 64.801 256.852L64.97 254.239H69.195V253.16H63.943L63.644 257.944H64.697C65.217 257.489 65.789 257.268 66.504 257.268C67.752 257.268 68.454 257.931 68.454 259.192C68.454 260.479 67.726 261.116 66.413 261.116C65.23 261.116 64.515 260.596 64.476 259.712H63.358C63.384 261.233 64.463 262.156 66.426 262.156Z" fill="#003E6B"/>
<path d="M58.7097 290.156C60.7117 290.156 61.7517 289.103 61.7517 287.205C61.7517 285.359 60.7637 284.384 59.0477 284.384C58.0727 284.384 57.3057 284.696 56.7597 285.333V284.085C56.7597 282.72 57.4097 282.044 58.7487 282.044C59.8407 282.044 60.4387 282.499 60.5167 283.396H61.6347C61.5697 281.836 60.5557 281.004 58.7357 281.004C56.7077 281.004 55.6157 282.057 55.6157 284.02V287.153C55.6157 289.129 56.7337 290.156 58.7097 290.156ZM58.7097 289.116C57.4357 289.116 56.7597 288.466 56.7597 287.127V286.828C57.1367 285.892 57.8387 285.424 58.8397 285.424C60.0097 285.424 60.5947 286.048 60.5947 287.231C60.5947 288.453 59.9837 289.116 58.7097 289.116ZM66.413 290.156C68.389 290.156 69.455 289.129 69.455 287.218V283.942C69.455 282.031 68.389 281.004 66.413 281.004C64.437 281.004 63.371 282.031 63.371 283.942V287.218C63.371 289.129 64.437 290.156 66.413 290.156ZM66.413 289.116C65.139 289.116 64.515 288.466 64.515 287.14V284.02C64.515 282.694 65.139 282.044 66.413 282.044C67.687 282.044 68.311 282.694 68.311 284.02V287.14C68.311 288.466 67.687 289.116 66.413 289.116Z" fill="#003E6B"/>
<path d="M58.6317 400.156C60.6337 400.156 61.7387 399.311 61.7387 397.582C61.7387 396.464 61.2837 395.749 60.3217 395.424V395.398C61.1147 395.06 61.5177 394.397 61.5177 393.435C61.5177 391.875 60.4647 391.004 58.6447 391.004C56.7467 391.004 55.6547 391.94 55.6547 393.565V393.76H56.7597V393.643C56.7597 392.616 57.4097 392.044 58.6057 392.044C59.7497 392.044 60.3867 392.564 60.3867 393.539C60.3867 394.488 59.7757 394.969 58.6187 394.969H57.6307V396.009H58.6057C59.9707 396.009 60.5947 396.529 60.5947 397.543C60.5947 398.622 59.8927 399.116 58.6317 399.116C57.3057 399.116 56.6427 398.57 56.6427 397.504V397.335H55.5247V397.66C55.5247 399.285 56.6037 400.156 58.6317 400.156ZM66.426 400.156C68.454 400.156 69.598 399.168 69.598 397.166C69.598 395.268 68.558 394.228 66.764 394.228C65.971 394.228 65.321 394.436 64.801 394.852L64.97 392.239H69.195V391.16H63.943L63.644 395.944H64.697C65.217 395.489 65.789 395.268 66.504 395.268C67.752 395.268 68.454 395.931 68.454 397.192C68.454 398.479 67.726 399.116 66.413 399.116C65.23 399.116 64.515 398.596 64.476 397.712H63.358C63.384 399.233 64.463 400.156 66.426 400.156Z" fill="#003E6B"/>
<path d="M55.5507 439H61.6217V437.921H56.6817C56.7337 436.972 57.3187 436.4 58.9437 435.672C60.9067 434.788 61.6477 433.93 61.6477 432.526C61.6477 430.979 60.6337 430.004 58.7097 430.004C56.7857 430.004 55.6807 430.953 55.6807 432.695V432.994H56.7987V432.812C56.7987 431.629 57.4617 431.044 58.6967 431.044C59.9187 431.044 60.5037 431.629 60.5037 432.552C60.5037 433.475 59.9577 434.06 58.3977 434.775C56.3307 435.724 55.5507 436.699 55.5507 438.337V439ZM66.426 439.156C68.454 439.156 69.598 438.168 69.598 436.166C69.598 434.268 68.558 433.228 66.764 433.228C65.971 433.228 65.321 433.436 64.801 433.852L64.97 431.239H69.195V430.16H63.943L63.644 434.944H64.697C65.217 434.489 65.789 434.268 66.504 434.268C67.752 434.268 68.454 434.931 68.454 436.192C68.454 437.479 67.726 438.116 66.413 438.116C65.23 438.116 64.515 437.596 64.476 436.712H63.358C63.384 438.233 64.463 439.156 66.426 439.156Z" fill="#003E6B"/>
<path d="M56.3047 500H61.7907V498.921H59.6197V491.16H58.5277C57.9427 491.914 57.1627 492.252 56.0447 492.291V493.305C56.9157 493.279 57.7477 493.175 58.4757 492.668V498.921H56.3047V500ZM66.426 500.156C68.454 500.156 69.598 499.168 69.598 497.166C69.598 495.268 68.558 494.228 66.764 494.228C65.971 494.228 65.321 494.436 64.801 494.852L64.97 492.239H69.195V491.16H63.943L63.644 495.944H64.697C65.217 495.489 65.789 495.268 66.504 495.268C67.752 495.268 68.454 495.931 68.454 497.192C68.454 498.479 67.726 499.116 66.413 499.116C65.23 499.116 64.515 498.596 64.476 497.712H63.358C63.384 499.233 64.463 500.156 66.426 500.156Z" fill="#003E6B"/>
<path d="M56.3047 564H61.7907V562.921H59.6197V555.16H58.5277C57.9427 555.914 57.1627 556.252 56.0447 556.291V557.305C56.9157 557.279 57.7477 557.175 58.4757 556.668V562.921H56.3047V564ZM66.413 564.156C68.389 564.156 69.455 563.129 69.455 561.218V557.942C69.455 556.031 68.389 555.004 66.413 555.004C64.437 555.004 63.371 556.031 63.371 557.942V561.218C63.371 563.129 64.437 564.156 66.413 564.156ZM66.413 563.116C65.139 563.116 64.515 562.466 64.515 561.14V558.02C64.515 556.694 65.139 556.044 66.413 556.044C67.687 556.044 68.311 556.694 68.311 558.02V561.14C68.311 562.466 67.687 563.116 66.413 563.116Z" fill="#003E6B"/>
<path d="M59.8017 343H60.9457V340.972H61.9857V339.932H60.9457V334.16H59.6457L55.2517 339.867V340.972H59.8017V343ZM56.5387 339.932L59.8017 335.642V339.932H56.5387ZM66.426 343.156C68.454 343.156 69.598 342.168 69.598 340.166C69.598 338.268 68.558 337.228 66.764 337.228C65.971 337.228 65.321 337.436 64.801 337.852L64.97 335.239H69.195V334.16H63.943L63.644 338.944H64.697C65.217 338.489 65.789 338.268 66.504 338.268C67.752 338.268 68.454 338.931 68.454 340.192C68.454 341.479 67.726 342.116 66.413 342.116C65.23 342.116 64.515 341.596 64.476 340.712H63.358C63.384 342.233 64.463 343.156 66.426 343.156Z" fill="#003E6B"/>
</svg>
