<svg width="119" height="223" viewBox="0 0 119 223" fill="none" xmlns="http://www.w3.org/2000/svg">
<g filter="url(#filter0_d)">
<path d="M45.2991 201.417C43.3392 201.417 40.3478 200.699 38.6973 200.186C37.0469 199.672 35.7059 193.718 35.7059 193.718C31.3735 176.883 25.5095 152.111 25.3759 137.178C25.3495 134.218 25.3758 76.7427 25.3758 76.7427H28.6929H65.1816V137.178C65.1816 152.602 58.2963 176.883 53.9639 193.718C53.9639 193.718 52.6229 199.672 50.9725 200.186C49.3221 200.699 46.3306 201.417 44.3707 201.417" fill="#868CA6"/>
<path opacity="0.7" d="M45.179 199.349C43.4254 199.349 40.7435 198.733 39.2993 198.219C37.8552 197.809 36.6174 192.368 36.6174 192.368C32.6976 177.278 28.7218 155.03 27.5872 141.788C27.5872 134.975 27.5872 84.712 27.5872 84.712V79.8872H62.9701C62.9701 79.8872 63.589 134.807 62.9701 141.788C61.8354 155.03 56.9384 177.175 53.0186 192.265C53.0186 192.265 51.7808 197.603 50.3367 198.117C48.8925 198.527 46.2106 199.246 44.457 199.246" fill="#C0C3D2"/>
<rect x="20.9529" y="76.7427" width="50.8629" height="4.40699" fill="#868CA6"/>
<path opacity="0.7" d="M45.1789 199.348C43.4253 199.348 40.7433 198.732 39.2992 198.219C37.8551 197.808 36.6172 192.367 36.6172 192.367C32.6974 177.277 28.7217 155.03 27.587 141.787V134.033H46.3118H62.9699V141.787C61.8353 155.03 56.9383 177.175 53.0185 192.265C53.0185 192.265 51.7807 197.603 50.3365 198.116C48.8924 198.527 46.2104 199.245 44.4568 199.245" fill="#00AEEF"/>
<rect x="25.3757" y="95.3115" width="39.8058" height="35.2559" fill="white"/>
<path d="M54.1244 81.1494H65.1816C65.1816 81.1494 65.1816 133.072 65.1816 139.562C65.1816 146.052 60.7587 166.605 60.7587 166.605C60.7587 166.605 52.3968 198.583 51.913 199.056C51.4292 199.53 45.2787 200.138 45.2787 200.138L54.1244 139.562V81.1494Z" fill="black" fill-opacity="0.1"/>
<rect x="16.5299" y="70.1323" width="57.4972" height="4.40699" fill="#868CA6"/>
<rect x="27.587" y="74.5396" width="35.3829" height="2.2035" fill="#577898"/>
<path fill-rule="evenodd" clip-rule="evenodd" d="M79.9378 72.6069C80.4912 73.5374 80.6614 74.5969 80.6614 75.6411C80.6614 76.6852 80.4912 77.7447 79.9378 78.6752C79.3528 79.6589 78.488 80.2526 77.5679 80.5963C76.7066 80.9182 75.7559 81.0378 74.8561 81.0939C73.9575 81.1498 72.932 81.1498 71.8658 81.1498H71.8157V76.7428C72.9429 76.7428 73.8344 76.7419 74.5802 76.6955C75.339 76.6482 75.7705 76.5613 76.0149 76.4699C76.0683 76.45 76.1038 76.433 76.1257 76.4211C76.1317 76.4179 76.1366 76.4151 76.1406 76.4127C76.1429 76.4076 76.1456 76.4011 76.1486 76.3931C76.1583 76.3676 76.1719 76.3258 76.1855 76.2634C76.2135 76.1354 76.2385 75.9362 76.2385 75.6411C76.2385 75.3459 76.2135 75.1468 76.1855 75.0188C76.1719 74.9564 76.1583 74.9146 76.1486 74.889C76.1456 74.8811 76.1429 74.8746 76.1406 74.8694C76.1366 74.867 76.1317 74.8642 76.1257 74.861C76.1038 74.8491 76.0683 74.8321 76.0149 74.8122C75.7705 74.7208 75.339 74.6339 74.5802 74.5867C73.8344 74.5402 72.9429 74.5393 71.8157 74.5393L71.8157 70.1323L71.8657 70.1323C72.9319 70.1323 73.9575 70.1323 74.8561 70.1883C75.7559 70.2443 76.7066 70.3639 77.5679 70.6858C78.488 71.0296 79.3528 71.6232 79.9378 72.6069Z" fill="#868CA6"/>
</g>
<rect x="30.5426" y="138.341" width="14" height="5" fill="#309DCB"/>
<rect x="46.5426" y="144.841" width="14" height="5" fill="#309DCB"/>
<rect x="33.0426" y="153.841" width="14" height="5" fill="#309DCB"/>
<rect x="37.5426" y="163.841" width="14" height="5" fill="#309DCB"/>
<rect x="41.0426" y="173.841" width="14" height="5" fill="#309DCB"/>
<rect x="38.0426" y="184.341" width="14" height="5" fill="#309DCB"/>
<path d="M36.5426 120.975H38.435V117.117L41.0214 114.421L45.2688 120.975H47.4766L42.325 113.063L47.4136 107.591H45.0796L38.435 114.696V107.591H36.5426V120.975Z" fill="#333333"/>
<path d="M51.6532 115.641H52.6623H53.0527H54.5426V114.145H53.0527H52.7679H51.6532H51.4126H47.0811V115.641H51.4126H51.6532Z" fill="#333333"/>
<defs>
<filter id="filter0_d" x="0.529907" y="0.841309" width="118.013" height="221.5" filterUnits="userSpaceOnUse" color-interpolation-filters="sRGB">
<feFlood flood-opacity="0" result="BackgroundImageFix"/>
<feColorMatrix in="SourceAlpha" type="matrix" values="0 0 0 0 0 0 0 0 0 0 0 0 0 0 0 0 0 0 127 0"/>
<feOffset dy="4"/>
<feGaussianBlur stdDeviation="8"/>
<feColorMatrix type="matrix" values="0 0 0 0 0 0 0 0 0 0 0 0 0 0 0 0 0 0 0.25 0"/>
<feBlend mode="normal" in2="BackgroundImageFix" result="effect1_dropShadow"/>
<feBlend mode="normal" in="SourceGraphic" in2="effect1_dropShadow" result="shape"/>
</filter>
</defs>
</svg>
