<svg width="119" height="223" viewBox="0 0 119 223" fill="none" xmlns="http://www.w3.org/2000/svg">
<g filter="url(#filter0_d)">
<path d="M45.2731 201.417C43.3132 201.417 40.3218 200.699 38.6713 200.186C37.0209 199.672 35.6799 193.718 35.6799 193.718C31.3475 176.883 25.4835 152.111 25.3499 137.178C25.3235 134.218 25.3498 76.7427 25.3498 76.7427H28.6669H65.1556V137.178C65.1556 152.602 58.2703 176.883 53.9379 193.718C53.9379 193.718 52.5969 199.672 50.9465 200.186C49.2961 200.699 46.3046 201.417 44.3447 201.417" fill="#868CA6"/>
<path opacity="0.7" d="M45.153 199.349C43.3994 199.349 40.7175 198.733 39.2733 198.219C37.8292 197.809 36.5914 192.368 36.5914 192.368C32.6716 177.278 28.6958 155.03 27.5612 141.788C27.5612 134.975 27.5612 84.712 27.5612 84.712V79.8872H62.9441C62.9441 79.8872 63.563 134.807 62.9441 141.788C61.8094 155.03 56.9124 177.175 52.9926 192.265C52.9926 192.265 51.7548 197.603 50.3107 198.117C48.8665 198.527 46.1846 199.246 44.431 199.246" fill="#C0C3D2"/>
<rect x="20.9269" y="76.7427" width="50.8629" height="4.40699" fill="#868CA6"/>
<path opacity="0.7" d="M45.1529 199.348C43.3993 199.348 40.7173 198.732 39.2732 198.219C37.8291 197.808 36.5912 192.367 36.5912 192.367C32.6714 177.277 28.6957 155.03 27.561 141.787V134.033H46.2858H62.9439V141.787C61.8093 155.03 56.9123 177.175 52.9925 192.265C52.9925 192.265 51.7547 197.603 50.3105 198.116C48.8664 198.527 46.1844 199.245 44.4308 199.245" fill="#00AEEF"/>
<rect x="25.3497" y="95.3115" width="39.8058" height="35.2559" fill="white"/>
<path d="M54.0984 81.1494H65.1556C65.1556 81.1494 65.1556 133.072 65.1556 139.562C65.1556 146.052 60.7327 166.605 60.7327 166.605C60.7327 166.605 52.3708 198.583 51.887 199.056C51.4032 199.53 45.2527 200.138 45.2527 200.138L54.0984 139.562V81.1494Z" fill="black" fill-opacity="0.1"/>
<rect x="16.5039" y="70.1323" width="57.4972" height="4.40699" fill="#868CA6"/>
<rect x="27.561" y="74.5396" width="35.3829" height="2.2035" fill="#577898"/>
<path fill-rule="evenodd" clip-rule="evenodd" d="M79.9118 72.6069C80.4652 73.5374 80.6354 74.5969 80.6354 75.6411C80.6354 76.6852 80.4652 77.7447 79.9118 78.6752C79.3268 79.6589 78.462 80.2526 77.5419 80.5963C76.6806 80.9182 75.7299 81.0378 74.8301 81.0939C73.9315 81.1498 72.906 81.1498 71.8398 81.1498H71.7897V76.7428C72.9169 76.7428 73.8084 76.7419 74.5542 76.6955C75.313 76.6482 75.7445 76.5613 75.9889 76.4699C76.0423 76.45 76.0778 76.433 76.0997 76.4211C76.1057 76.4179 76.1106 76.4151 76.1146 76.4127C76.1169 76.4076 76.1196 76.4011 76.1226 76.3931C76.1323 76.3676 76.1459 76.3258 76.1595 76.2634C76.1875 76.1354 76.2125 75.9362 76.2125 75.6411C76.2125 75.3459 76.1875 75.1468 76.1595 75.0188C76.1459 74.9564 76.1323 74.9146 76.1226 74.889C76.1196 74.8811 76.1169 74.8746 76.1146 74.8694C76.1106 74.867 76.1057 74.8642 76.0997 74.861C76.0778 74.8491 76.0423 74.8321 75.9889 74.8122C75.7445 74.7208 75.313 74.6339 74.5542 74.5867C73.8084 74.5402 72.9169 74.5393 71.7897 74.5393L71.7897 70.1323L71.8397 70.1323C72.9059 70.1323 73.9315 70.1323 74.8301 70.1883C75.7299 70.2443 76.6806 70.3639 77.5419 70.6858C78.462 71.0296 79.3268 71.6232 79.9118 72.6069Z" fill="#868CA6"/>
</g>
<path d="M36.5166 119.341H38.409V115.537L40.9953 112.878L45.2428 119.341H47.4506L42.299 111.539L47.3876 106.144H45.0536L38.409 113.15V106.144H36.5166V119.341Z" fill="#333333"/>
<path d="M49.9658 116.926H51.6059V114.082H54.5166V112.606H51.6059V109.762H49.9658V112.606H47.0551V114.082H49.9658V116.926Z" fill="#333333"/>
<circle cx="37.0166" cy="142.841" r="3.5" stroke="#309DCB" stroke-width="2"/>
<circle cx="51.5166" cy="148.341" r="3.5" stroke="#309DCB" stroke-width="2"/>
<circle cx="40.0166" cy="157.341" r="3.5" stroke="#309DCB" stroke-width="2"/>
<circle cx="49.0166" cy="168.841" r="3.5" stroke="#309DCB" stroke-width="2"/>
<circle cx="40.0166" cy="178.841" r="3.5" stroke="#309DCB" stroke-width="2"/>
<circle cx="45.5166" cy="192.841" r="3.5" stroke="#309DCB" stroke-width="2"/>
<defs>
<filter id="filter0_d" x="0.503906" y="0.841309" width="118.013" height="221.5" filterUnits="userSpaceOnUse" color-interpolation-filters="sRGB">
<feFlood flood-opacity="0" result="BackgroundImageFix"/>
<feColorMatrix in="SourceAlpha" type="matrix" values="0 0 0 0 0 0 0 0 0 0 0 0 0 0 0 0 0 0 127 0"/>
<feOffset dy="4"/>
<feGaussianBlur stdDeviation="8"/>
<feColorMatrix type="matrix" values="0 0 0 0 0 0 0 0 0 0 0 0 0 0 0 0 0 0 0.25 0"/>
<feBlend mode="normal" in2="BackgroundImageFix" result="effect1_dropShadow"/>
<feBlend mode="normal" in="SourceGraphic" in2="effect1_dropShadow" result="shape"/>
</filter>
</defs>
</svg>
