<svg width="589" height="653" viewBox="0 0 589 653" fill="none" xmlns="http://www.w3.org/2000/svg">
<rect width="589" height="653" rx="5" fill="#003E6B"/>
<path d="M394 103.162H32V540.966H394V103.162Z" fill="white"/>
<path opacity="0.4" d="M380.055 117.193H47.3242V522.985H380.055V117.193Z" fill="#7CB4D0"/>
<path opacity="0.1" d="M380.055 117.193H47.3242V522.985H380.055V117.193Z" fill="#BCDEEA"/>
<path opacity="0.5" d="M47.3249 117.193L32 103.162V540.966L47.3249 522.985V117.193Z" fill="#7CB4D0"/>
<path opacity="0.5" d="M380.055 522.985L393.999 540.966V103.162L380.055 117.193V522.985Z" fill="#7CB4D0"/>
<path opacity="0.4" d="M394 103.162H32V540.966H394V103.162Z" fill="#7CB4D0"/>
<path opacity="0.8" d="M380.056 522.849H47.3249L32 540.966H394L380.056 522.849Z" fill="#7CB4D0"/>
<path opacity="0.2" d="M54.8282 154.668H152.666V135.353H54.8282L54.8282 154.668Z" fill="#3E6E7A"/>
<path opacity="0.2" d="M61.3502 157.887H149.404V138.572H61.3502V157.887Z" fill="#3E6E7A"/>
<path opacity="0.2" d="M61.3503 154.668H149.404V138.572H61.3503V154.668Z" fill="#3E6E7A"/>
<path opacity="0.2" d="M61.3506 138.572L54.8281 135.353V154.668L61.235 157.887L61.3506 138.572Z" fill="#3E6E7A"/>
<path opacity="0.2" d="M149.404 157.887L152.666 154.668V135.353L149.404 138.572V157.887Z" fill="#3E6E7A"/>
<path opacity="0.5" d="M54.8281 154.668L61.3506 157.887H149.405L152.666 154.668H54.8281Z" fill="white"/>
<path opacity="0.2" d="M165.711 154.668H263.549V135.353H165.711L165.711 154.668Z" fill="#3E6E7A"/>
<path opacity="0.2" d="M172.233 157.887H260.287V138.572H172.233V157.887Z" fill="#3E6E7A"/>
<path opacity="0.2" d="M172.233 154.668H260.287V138.572H172.233V154.668Z" fill="#3E6E7A"/>
<path opacity="0.2" d="M172.233 138.572L165.711 135.353V154.668L172.118 157.887L172.233 138.572Z" fill="#3E6E7A"/>
<path opacity="0.2" d="M260.287 157.887L263.548 154.668V135.353L260.287 138.572V157.887Z" fill="#3E6E7A"/>
<path opacity="0.5" d="M165.711 154.668L172.233 157.887H260.288L263.549 154.668H165.711Z" fill="white"/>
<path opacity="0.2" d="M276.594 154.668H374.432V135.353H276.594L276.594 154.668Z" fill="#3E6E7A"/>
<path opacity="0.2" d="M283.116 157.887H371.17V138.572H283.116V157.887Z" fill="#3E6E7A"/>
<path opacity="0.2" d="M283.116 154.668H371.17V138.572H283.116V154.668Z" fill="#3E6E7A"/>
<path opacity="0.2" d="M283.116 138.572L276.594 135.353V154.668L283.001 157.887L283.116 138.572Z" fill="#3E6E7A"/>
<path opacity="0.2" d="M371.17 157.887L374.431 154.668V135.353L371.17 138.572V157.887Z" fill="#3E6E7A"/>
<path opacity="0.5" d="M276.594 154.668L283.116 157.887H371.17L374.432 154.668H276.594Z" fill="white"/>
<rect x="32.5" y="553.5" width="361" height="57.7863" rx="4.5" fill="white" fill-opacity="0.1" stroke="white"/>
<path d="M92.4431 588H94.0631V583.266H97.0511C99.9131 583.266 101.137 582.15 101.137 579.522C101.137 576.894 99.9131 575.76 97.0511 575.76H92.4431V588ZM94.0631 581.79V577.236H96.9431C98.8331 577.236 99.5171 577.884 99.5171 579.522C99.5171 581.16 98.8331 581.79 96.9431 581.79H94.0631ZM106.954 588.216C109.582 588.216 110.968 586.812 110.968 584.112V582.6C110.968 579.9 109.582 578.496 106.954 578.496C104.326 578.496 102.94 579.9 102.94 582.6V584.112C102.94 586.812 104.326 588.216 106.954 588.216ZM106.954 586.83C105.316 586.83 104.524 585.93 104.524 584.058V582.636C104.524 580.764 105.316 579.882 106.954 579.882C108.592 579.882 109.384 580.764 109.384 582.636V584.058C109.384 585.93 108.592 586.83 106.954 586.83ZM116.521 588.216C118.969 588.216 120.229 587.244 120.229 585.372C120.229 583.608 119.293 582.816 116.809 582.546C115.099 582.366 114.469 582.024 114.469 581.178C114.469 580.332 115.189 579.846 116.485 579.846C117.817 579.846 118.483 580.368 118.483 581.358H120.031C120.031 579.486 118.807 578.496 116.503 578.496C114.199 578.496 112.921 579.504 112.921 581.304C112.921 582.96 113.821 583.68 116.251 583.968C118.051 584.184 118.681 584.58 118.681 585.498C118.681 586.38 117.961 586.866 116.521 586.866C114.973 586.866 114.217 586.326 114.217 585.264H112.705C112.705 587.226 113.965 588.216 116.521 588.216ZM122.391 577.038H124.119V575.274H122.391V577.038ZM122.463 588H124.047V578.712H122.463V588ZM129.913 588H131.353V586.632H130.291C129.229 586.632 128.959 586.326 128.959 585.12V580.008H131.245V578.712H128.959V576.264H127.537L127.411 578.712H125.773V580.008H127.375V585.102C127.375 587.136 128.131 588 129.913 588ZM133.096 577.038H134.824V575.274H133.096V577.038ZM133.168 588H134.752V578.712H133.168V588ZM139.7 588H141.41L144.668 578.712H143.03L140.582 586.02L138.134 578.712H136.442L139.7 588ZM149.792 588.216C152.024 588.216 153.41 587.208 153.536 585.228H152.006C151.898 586.236 151.16 586.848 149.756 586.848C148.1 586.848 147.344 586.02 147.344 584.202V583.788H153.608V582.438C153.608 579.882 152.222 578.496 149.684 578.496C147.146 578.496 145.76 579.882 145.76 582.438V584.274C145.76 586.83 147.182 588.216 149.792 588.216ZM147.344 582.474C147.344 580.692 148.082 579.864 149.72 579.864C151.34 579.864 152.078 580.692 152.078 582.474H147.344ZM169.146 588.216C171.378 588.216 172.764 587.208 172.89 585.228H171.36C171.252 586.236 170.514 586.848 169.11 586.848C167.454 586.848 166.698 586.02 166.698 584.202V583.788H172.962V582.438C172.962 579.882 171.576 578.496 169.038 578.496C166.5 578.496 165.114 579.882 165.114 582.438V584.274C165.114 586.83 166.536 588.216 169.146 588.216ZM166.698 582.474C166.698 580.692 167.436 579.864 169.074 579.864C170.694 579.864 171.432 580.692 171.432 582.474H166.698ZM175.443 588H177.027V574.86H175.443V588ZM183.578 588.216C185.81 588.216 187.196 587.208 187.322 585.228H185.792C185.684 586.236 184.946 586.848 183.542 586.848C181.886 586.848 181.13 586.02 181.13 584.202V583.788H187.394V582.438C187.394 579.882 186.008 578.496 183.47 578.496C180.932 578.496 179.546 579.882 179.546 582.438V584.274C179.546 586.83 180.968 588.216 183.578 588.216ZM181.13 582.474C181.13 580.692 181.868 579.864 183.506 579.864C185.126 579.864 185.864 580.692 185.864 582.474H181.13ZM193.294 588.216C195.634 588.216 196.93 587.028 197.002 584.778H195.472C195.364 586.272 194.608 586.83 193.312 586.83C191.746 586.83 191.008 586.02 191.008 584.238V582.474C191.008 580.692 191.746 579.882 193.312 579.882C194.608 579.882 195.364 580.44 195.472 581.934H197.002C196.93 579.684 195.634 578.496 193.294 578.496C190.774 578.496 189.424 579.864 189.424 582.438V584.274C189.424 586.848 190.774 588.216 193.294 588.216ZM202.194 588H203.634V586.632H202.572C201.51 586.632 201.24 586.326 201.24 585.12V580.008H203.526V578.712H201.24V576.264H199.818L199.692 578.712H198.054V580.008H199.656V585.102C199.656 587.136 200.412 588 202.194 588ZM205.449 588H207.033V582.654C207.339 580.872 208.185 580.098 209.697 580.098H210.165V578.532H209.535C208.185 578.532 207.339 579.126 206.871 580.44L206.799 578.712H205.449V588ZM215.411 588.216C218.039 588.216 219.425 586.812 219.425 584.112V582.6C219.425 579.9 218.039 578.496 215.411 578.496C212.783 578.496 211.397 579.9 211.397 582.6V584.112C211.397 586.812 212.783 588.216 215.411 588.216ZM215.411 586.83C213.773 586.83 212.981 585.93 212.981 584.058V582.636C212.981 580.764 213.773 579.882 215.411 579.882C217.049 579.882 217.841 580.764 217.841 582.636V584.058C217.841 585.93 217.049 586.83 215.411 586.83ZM224.889 588.216C226.239 588.216 227.229 587.694 228.021 586.524L228.075 588H229.425V574.86H227.841V579.936C227.085 578.946 226.131 578.496 224.889 578.496C222.729 578.496 221.469 579.828 221.469 582.366V584.346C221.469 586.884 222.729 588.216 224.889 588.216ZM225.087 586.83C223.809 586.83 223.053 585.948 223.053 584.292V582.42C223.053 580.764 223.809 579.882 225.087 579.882C226.275 579.882 227.229 580.656 227.841 581.988V584.724C227.229 586.056 226.275 586.83 225.087 586.83ZM235.978 588.216C238.21 588.216 239.596 587.208 239.722 585.228H238.192C238.084 586.236 237.346 586.848 235.942 586.848C234.286 586.848 233.53 586.02 233.53 584.202V583.788H239.794V582.438C239.794 579.882 238.408 578.496 235.87 578.496C233.332 578.496 231.946 579.882 231.946 582.438V584.274C231.946 586.83 233.368 588.216 235.978 588.216ZM233.53 582.474C233.53 580.692 234.268 579.864 235.906 579.864C237.526 579.864 238.264 580.692 238.264 582.474H233.53Z" fill="white"/>
<circle cx="61.394" cy="582.735" r="17.0171" fill="#A00000"/>
<path d="M59.7862 589.171H62.8059V584.319H67.3851V581.398H62.8059V576.547H59.7862V581.398H55.207V584.319H59.7862V589.171Z" fill="white"/>
<rect x="32.5" y="32.5" width="361" height="57.7863" rx="4.5" fill="white" fill-opacity="0.1" stroke="white"/>
<path d="M92.656 67H94.222V57.136L100.198 67H101.782V54.76H100.216V64.066L94.582 54.76H92.656V67ZM108.503 67.216C110.735 67.216 112.121 66.208 112.247 64.228H110.717C110.609 65.236 109.871 65.848 108.467 65.848C106.811 65.848 106.055 65.02 106.055 63.202V62.788H112.319V61.438C112.319 58.882 110.933 57.496 108.395 57.496C105.857 57.496 104.471 58.882 104.471 61.438V63.274C104.471 65.83 105.893 67.216 108.503 67.216ZM106.055 61.474C106.055 59.692 106.793 58.864 108.431 58.864C110.051 58.864 110.789 59.692 110.789 61.474H106.055ZM118.328 70.492C120.974 70.492 122.288 69.268 122.288 66.802V57.712H120.938L120.866 59.152C120.092 58.018 119.102 57.496 117.77 57.496C115.61 57.496 114.35 58.828 114.35 61.366V62.824C114.35 65.362 115.61 66.694 117.77 66.694C119.012 66.694 119.948 66.244 120.704 65.272V66.802C120.704 68.422 119.948 69.124 118.292 69.124C116.996 69.124 116.114 68.692 116.024 67.612H114.548C114.674 69.52 115.97 70.492 118.328 70.492ZM117.968 65.308C116.69 65.308 115.934 64.426 115.934 62.77V61.42C115.934 59.764 116.69 58.882 117.968 58.882C119.138 58.882 120.092 59.638 120.704 60.952V63.238C120.092 64.552 119.138 65.308 117.968 65.308ZM127.671 67.216C129.021 67.216 130.065 66.694 130.821 65.74L130.875 67H132.225V60.934C132.225 58.63 131.037 57.496 128.589 57.496C126.267 57.496 125.007 58.522 124.845 60.538H126.393C126.447 59.404 127.221 58.864 128.535 58.864C129.975 58.864 130.641 59.53 130.641 60.97V61.474H128.409C125.799 61.474 124.575 62.518 124.575 64.372C124.575 66.19 125.763 67.216 127.671 67.216ZM127.905 65.848C126.735 65.848 126.159 65.308 126.159 64.336C126.159 63.292 126.843 62.788 128.463 62.788H130.641V64.102C130.083 65.236 129.147 65.848 127.905 65.848ZM137.772 67H139.212V65.632H138.15C137.088 65.632 136.818 65.326 136.818 64.12V59.008H139.104V57.712H136.818V55.264H135.396L135.27 57.712H133.632V59.008H135.234V64.102C135.234 66.136 135.99 67 137.772 67ZM140.955 56.038H142.683V54.274H140.955V56.038ZM141.027 67H142.611V57.712H141.027V67ZM147.56 67H149.27L152.528 57.712H150.89L148.442 65.02L145.994 57.712H144.302L147.56 67ZM157.652 67.216C159.884 67.216 161.27 66.208 161.396 64.228H159.866C159.758 65.236 159.02 65.848 157.616 65.848C155.96 65.848 155.204 65.02 155.204 63.202V62.788H161.468V61.438C161.468 58.882 160.082 57.496 157.544 57.496C155.006 57.496 153.62 58.882 153.62 61.438V63.274C153.62 65.83 155.042 67.216 157.652 67.216ZM155.204 61.474C155.204 59.692 155.942 58.864 157.58 58.864C159.2 58.864 159.938 59.692 159.938 61.474H155.204ZM177.005 67.216C179.237 67.216 180.623 66.208 180.749 64.228H179.219C179.111 65.236 178.373 65.848 176.969 65.848C175.313 65.848 174.557 65.02 174.557 63.202V62.788H180.821V61.438C180.821 58.882 179.435 57.496 176.897 57.496C174.359 57.496 172.973 58.882 172.973 61.438V63.274C172.973 65.83 174.395 67.216 177.005 67.216ZM174.557 61.474C174.557 59.692 175.295 58.864 176.933 58.864C178.553 58.864 179.291 59.692 179.291 61.474H174.557ZM183.303 67H184.887V53.86H183.303V67ZM191.437 67.216C193.669 67.216 195.055 66.208 195.181 64.228H193.651C193.543 65.236 192.805 65.848 191.401 65.848C189.745 65.848 188.989 65.02 188.989 63.202V62.788H195.253V61.438C195.253 58.882 193.867 57.496 191.329 57.496C188.791 57.496 187.405 58.882 187.405 61.438V63.274C187.405 65.83 188.827 67.216 191.437 67.216ZM188.989 61.474C188.989 59.692 189.727 58.864 191.365 58.864C192.985 58.864 193.723 59.692 193.723 61.474H188.989ZM201.154 67.216C203.494 67.216 204.79 66.028 204.862 63.778H203.332C203.224 65.272 202.468 65.83 201.172 65.83C199.606 65.83 198.868 65.02 198.868 63.238V61.474C198.868 59.692 199.606 58.882 201.172 58.882C202.468 58.882 203.224 59.44 203.332 60.934H204.862C204.79 58.684 203.494 57.496 201.154 57.496C198.634 57.496 197.284 58.864 197.284 61.438V63.274C197.284 65.848 198.634 67.216 201.154 67.216ZM210.054 67H211.494V65.632H210.432C209.37 65.632 209.1 65.326 209.1 64.12V59.008H211.386V57.712H209.1V55.264H207.678L207.552 57.712H205.914V59.008H207.516V64.102C207.516 66.136 208.272 67 210.054 67ZM213.308 67H214.892V61.654C215.198 59.872 216.044 59.098 217.556 59.098H218.024V57.532H217.394C216.044 57.532 215.198 58.126 214.73 59.44L214.658 57.712H213.308V67ZM223.27 67.216C225.898 67.216 227.284 65.812 227.284 63.112V61.6C227.284 58.9 225.898 57.496 223.27 57.496C220.642 57.496 219.256 58.9 219.256 61.6V63.112C219.256 65.812 220.642 67.216 223.27 67.216ZM223.27 65.83C221.632 65.83 220.84 64.93 220.84 63.058V61.636C220.84 59.764 221.632 58.882 223.27 58.882C224.908 58.882 225.7 59.764 225.7 61.636V63.058C225.7 64.93 224.908 65.83 223.27 65.83ZM232.749 67.216C234.099 67.216 235.089 66.694 235.881 65.524L235.935 67H237.285V53.86H235.701V58.936C234.945 57.946 233.991 57.496 232.749 57.496C230.589 57.496 229.329 58.828 229.329 61.366V63.346C229.329 65.884 230.589 67.216 232.749 67.216ZM232.947 65.83C231.669 65.83 230.913 64.948 230.913 63.292V61.42C230.913 59.764 231.669 58.882 232.947 58.882C234.135 58.882 235.089 59.656 235.701 60.988V63.724C235.089 65.056 234.135 65.83 232.947 65.83ZM243.837 67.216C246.069 67.216 247.455 66.208 247.581 64.228H246.051C245.943 65.236 245.205 65.848 243.801 65.848C242.145 65.848 241.389 65.02 241.389 63.202V62.788H247.653V61.438C247.653 58.882 246.267 57.496 243.729 57.496C241.191 57.496 239.805 58.882 239.805 61.438V63.274C239.805 65.83 241.227 67.216 243.837 67.216ZM241.389 61.474C241.389 59.692 242.127 58.864 243.765 58.864C245.385 58.864 246.123 59.692 246.123 61.474H241.389Z" fill="white"/>
<circle cx="61.394" cy="61.3932" r="17.0171" fill="#333333"/>
<path d="M59.7862 63.1877H62.8059V62.9773H67.3851V60.0566H62.8059V59.8462H59.7862V60.0566H55.207V62.9773H59.7862V63.1877Z" fill="white"/>
<path d="M403 195H440V301H403" stroke="white" stroke-width="2"/>
<path d="M403 306H440V412H403" stroke="white" stroke-width="2"/>
<path d="M403 417H440V523H403" stroke="white" stroke-width="2"/>
<path d="M459.472 248H460.912V243.088H465.648V241.776H460.912V238.432H466.448V237.12H459.472V248ZM468.108 238.256H469.644V236.688H468.108V238.256ZM468.172 248H469.58V239.744H468.172V248ZM472.234 248H473.642V243.248C473.914 241.664 474.666 240.976 476.01 240.976H476.426V239.584H475.866C474.666 239.584 473.914 240.112 473.498 241.28L473.434 239.744H472.234V248ZM480.75 248.192C482.926 248.192 484.046 247.328 484.046 245.664C484.046 244.096 483.214 243.392 481.006 243.152C479.486 242.992 478.926 242.688 478.926 241.936C478.926 241.184 479.566 240.752 480.718 240.752C481.902 240.752 482.494 241.216 482.494 242.096H483.87C483.87 240.432 482.782 239.552 480.734 239.552C478.686 239.552 477.55 240.448 477.55 242.048C477.55 243.52 478.35 244.16 480.51 244.416C482.11 244.608 482.67 244.96 482.67 245.776C482.67 246.56 482.03 246.992 480.75 246.992C479.374 246.992 478.702 246.512 478.702 245.568H477.358C477.358 247.312 478.478 248.192 480.75 248.192ZM488.56 248H489.84V246.784H488.896C487.952 246.784 487.712 246.512 487.712 245.44V240.896H489.744V239.744H487.712V237.568H486.448L486.336 239.744H484.88V240.896H486.304V245.424C486.304 247.232 486.976 248 488.56 248Z" fill="white"/>
<path d="M462.496 369.192C465.04 369.192 466.32 368.136 466.32 366.008C466.32 364.024 465.328 363.128 462.704 362.792C460.864 362.552 460.192 362.04 460.192 360.952C460.192 359.848 461.008 359.24 462.496 359.24C464 359.24 464.72 359.848 464.72 361.112H466.16C466.16 358.984 464.944 357.928 462.544 357.928C460.096 357.928 458.768 359.016 458.768 361.096C458.768 362.968 459.696 363.816 462.192 364.152C464.192 364.424 464.896 364.968 464.896 366.136C464.896 367.288 464.096 367.88 462.512 367.88C460.864 367.88 460.016 367.224 460.016 365.912H458.576C458.576 368.104 459.904 369.192 462.496 369.192ZM471.637 369.192C473.621 369.192 474.853 368.296 474.965 366.536H473.605C473.509 367.432 472.853 367.976 471.605 367.976C470.133 367.976 469.461 367.24 469.461 365.624V365.256H475.029V364.056C475.029 361.784 473.797 360.552 471.541 360.552C469.285 360.552 468.053 361.784 468.053 364.056V365.688C468.053 367.96 469.317 369.192 471.637 369.192ZM469.461 364.088C469.461 362.504 470.117 361.768 471.573 361.768C473.013 361.768 473.669 362.504 473.669 364.088H469.461ZM480.274 369.192C482.354 369.192 483.506 368.136 483.57 366.136H482.21C482.114 367.464 481.442 367.96 480.29 367.96C478.898 367.96 478.242 367.24 478.242 365.656V364.088C478.242 362.504 478.898 361.784 480.29 361.784C481.442 361.784 482.114 362.28 482.21 363.608H483.57C483.506 361.608 482.354 360.552 480.274 360.552C478.034 360.552 476.834 361.768 476.834 364.056V365.688C476.834 367.976 478.034 369.192 480.274 369.192ZM488.855 369.192C491.191 369.192 492.423 367.944 492.423 365.544V364.2C492.423 361.8 491.191 360.552 488.855 360.552C486.519 360.552 485.287 361.8 485.287 364.2V365.544C485.287 367.944 486.519 369.192 488.855 369.192ZM488.855 367.96C487.399 367.96 486.695 367.16 486.695 365.496V364.232C486.695 362.568 487.399 361.784 488.855 361.784C490.311 361.784 491.015 362.568 491.015 364.232V365.496C491.015 367.16 490.311 367.96 488.855 367.96ZM494.656 369H496.064V363.64C496.656 362.424 497.408 361.848 498.384 361.848C499.36 361.848 499.84 362.408 499.84 363.704V369H501.248V363.576C501.248 361.592 500.384 360.552 498.656 360.552C497.504 360.552 496.624 361.016 495.904 362.04L495.856 360.744H494.656V369ZM506.405 369.192C507.605 369.192 508.485 368.728 509.189 367.688L509.237 369H510.437V357.32H509.029V361.832C508.357 360.952 507.509 360.552 506.405 360.552C504.485 360.552 503.365 361.736 503.365 363.992V365.752C503.365 368.008 504.485 369.192 506.405 369.192ZM506.581 367.96C505.445 367.96 504.773 367.176 504.773 365.704V364.04C504.773 362.568 505.445 361.784 506.581 361.784C507.637 361.784 508.485 362.472 509.029 363.656V366.088C508.485 367.272 507.637 367.96 506.581 367.96Z" fill="white"/>
<path d="M461.328 475H462.768V465.448H465.984V464.12H458.112V465.448H461.328V475ZM467.625 475H469.033V469.64C469.625 468.424 470.377 467.848 471.369 467.848C472.329 467.848 472.809 468.408 472.809 469.704V475H474.217V469.576C474.217 467.592 473.353 466.552 471.625 466.552C470.553 466.552 469.721 466.952 469.033 467.832V463.32H467.625V475ZM476.686 465.256H478.222V463.688H476.686V465.256ZM476.75 475H478.158V466.744H476.75V475ZM480.812 475H482.22V470.248C482.492 468.664 483.244 467.976 484.588 467.976H485.004V466.584H484.444C483.244 466.584 482.492 467.112 482.076 468.28L482.012 466.744H480.812V475ZM489.14 475.192C490.34 475.192 491.22 474.728 491.924 473.688L491.972 475H493.172V463.32H491.764V467.832C491.092 466.952 490.244 466.552 489.14 466.552C487.22 466.552 486.1 467.736 486.1 469.992V471.752C486.1 474.008 487.22 475.192 489.14 475.192ZM489.316 473.96C488.18 473.96 487.508 473.176 487.508 471.704V470.04C487.508 468.568 488.18 467.784 489.316 467.784C490.372 467.784 491.22 468.472 491.764 469.656V472.088C491.22 473.272 490.372 473.96 489.316 473.96Z" fill="white"/>
</svg>
