<svg xmlns="http://www.w3.org/2000/svg" width="589" height="281" fill="none" viewBox="0 0 589 281">
    <rect width="589" height="281" fill="#003E6B" rx="5"/>
    <path fill="#fff" d="M58.079 214.366h1.144v-3.25c.546.715 1.235 1.04 2.132 1.04 1.56 0 2.47-.962 2.47-2.795v-1.43c0-1.833-.91-2.795-2.47-2.795-.975 0-1.69.377-2.262 1.222l-.039-1.066h-.975v9.074zm3.133-3.211c-.858 0-1.547-.559-1.989-1.521v-1.976c.442-.962 1.131-1.521 1.989-1.521.923 0 1.469.637 1.469 1.833v1.352c0 1.196-.546 1.833-1.469 1.833zm4.55.845h3.68c1.95 0 2.846-.78 2.846-2.444 0-1.17-.442-1.859-1.456-2.171v-.026c.806-.299 1.157-.923 1.157-1.911 0-1.573-.91-2.288-2.808-2.288h-3.419V212zm1.17-5.044v-2.73h2.158c1.235 0 1.742.39 1.742 1.378 0 .975-.494 1.352-1.729 1.352h-2.17zm0 3.978v-2.912h2.197c1.443 0 1.99.403 1.99 1.456 0 1.027-.52 1.456-1.847 1.456h-2.34zM72.961 212h1.209l.806-2.262h3.562l.806 2.262h1.248l-3.224-8.84h-1.183L72.96 212zm2.392-3.328l1.404-4.017 1.404 4.017h-2.808zM81.91 212h3.042c2.314 0 3.354-1.079 3.354-3.432v-1.976c0-2.353-1.04-3.432-3.354-3.432H81.91V212zm1.17-1.066v-6.708h1.729c1.664 0 2.327.676 2.327 2.379v1.95c0 1.703-.663 2.379-2.327 2.379h-1.73zM58.079 231h1.144v-3.861c.221-1.287.832-1.846 1.924-1.846h.338v-1.131h-.455c-.975 0-1.586.429-1.924 1.378l-.052-1.248h-.975V231zm4.971 0h1.144v-5.772h1.742v-.936h-1.742v-.728c0-.806.26-1.092.962-1.092h.832v-.962H64.91c-1.248 0-1.859.689-1.859 2.093v.689h-1.222v.936h1.222V231zm4.119 2.366h1.144v-3.25c.546.715 1.235 1.04 2.132 1.04 1.56 0 2.47-.962 2.47-2.795v-1.43c0-1.833-.91-2.795-2.47-2.795-.975 0-1.69.377-2.262 1.222l-.04-1.066h-.974v9.074zm3.133-3.211c-.858 0-1.547-.559-1.99-1.521v-1.976c.443-.962 1.132-1.521 1.99-1.521.923 0 1.469.637 1.469 1.833v1.352c0 1.196-.546 1.833-1.47 1.833zM58.079 250h1.144v-1.937l1.157-1.209L62.434 250h1.365l-2.626-3.978 2.574-2.73h-1.43l-3.094 3.302v-6.084h-1.144V250zm8.648.156c.975 0 1.729-.377 2.275-1.066l.039.91h.975v-4.381c0-1.664-.858-2.483-2.626-2.483-1.677 0-2.587.741-2.704 2.197h1.118c.039-.819.598-1.209 1.547-1.209 1.04 0 1.52.481 1.52 1.521v.364H67.26c-1.885 0-2.77.754-2.77 2.093 0 1.313.859 2.054 2.237 2.054zm.169-.988c-.845 0-1.261-.39-1.261-1.092 0-.754.494-1.118 1.664-1.118h1.573v.949c-.403.819-1.08 1.261-1.976 1.261zm5.135.832h1.144v-4.355c.481-.988 1.092-1.456 1.885-1.456.793 0 1.183.455 1.183 1.508V250h1.144v-4.407c0-1.612-.702-2.457-2.106-2.457-.936 0-1.65.377-2.236 1.209l-.039-1.053h-.975V250zm7.531 0h1.17v-3.588h1.937L84.775 250h1.352l-2.158-3.666c1.287-.247 1.833-1.04 1.833-2.548 0-1.859-.832-2.626-2.847-2.626h-3.393V250zm1.17-4.654v-3.12h2.12c1.325 0 1.78.429 1.78 1.56s-.455 1.56-1.78 1.56h-2.12z"/>
    <rect width="13" height="13" x="36" y="201" fill="#008D36" rx="6.5"/>
    <rect width="13" height="13" x="36" y="222" fill="#E52826" rx="6.5"/>
    <rect width="13" height="13" x="36" y="240" fill="#F8AF3E" rx="6.5"/>
    <path fill="#fff" d="M331.808 212.156c.975 0 1.729-.377 2.275-1.066l.039.91h.975v-4.381c0-1.664-.858-2.483-2.626-2.483-1.677 0-2.587.741-2.704 2.197h1.118c.039-.819.598-1.209 1.547-1.209 1.04 0 1.521.481 1.521 1.521v.364h-1.612c-1.885 0-2.769.754-2.769 2.093 0 1.313.858 2.054 2.236 2.054zm.169-.988c-.845 0-1.261-.39-1.261-1.092 0-.754.494-1.118 1.664-1.118h1.573v.949c-.403.819-1.079 1.261-1.976 1.261zm5.135.832h1.144v-4.329c.494-1.04 1.053-1.482 1.768-1.482.702 0 1.092.429 1.092 1.326V212h1.144v-4.394c.494-.975 1.066-1.417 1.768-1.417s1.092.429 1.092 1.326V212h1.144v-4.576c0-1.482-.741-2.288-2.08-2.288-.858 0-1.547.338-2.106 1.17-.273-.767-.91-1.17-1.846-1.17-.91 0-1.573.377-2.106 1.209l-.039-1.053h-.975V212zm11.21 2.366h1.144v-3.25c.546.715 1.235 1.04 2.132 1.04 1.56 0 2.47-.962 2.47-2.795v-1.43c0-1.833-.91-2.795-2.47-2.795-.975 0-1.69.377-2.262 1.222l-.039-1.066h-.975v9.074zm3.133-3.211c-.858 0-1.547-.559-1.989-1.521v-1.976c.442-.962 1.131-1.521 1.989-1.521.923 0 1.469.637 1.469 1.833v1.352c0 1.196-.546 1.833-1.469 1.833zm4.551.845h1.17v-3.588h1.937l2.106 3.588h1.352l-2.158-3.666c1.287-.247 1.833-1.04 1.833-2.548 0-1.859-.832-2.626-2.847-2.626h-3.393V212zm1.17-4.654v-3.12h2.119c1.326 0 1.781.429 1.781 1.56s-.455 1.56-1.781 1.56h-2.119zm-24.536 23.81c1.898 0 2.899-1.014 2.899-2.964V227.1c0-1.95-1.001-2.964-2.899-2.964-1.898 0-2.899 1.014-2.899 2.964v1.092c0 1.95 1.001 2.964 2.899 2.964zm0-1.001c-1.183 0-1.755-.65-1.755-2.002v-1.027c0-1.352.572-1.989 1.755-1.989 1.183 0 1.755.637 1.755 1.989v1.027c0 1.352-.572 2.002-1.755 2.002zm4.713.845h1.144v-3.861c.221-1.287.832-1.846 1.924-1.846h.338v-1.131h-.455c-.975 0-1.586.429-1.924 1.378l-.052-1.248h-.975V231zm4.608-7.917h1.248v-1.274h-1.248v1.274zm.052 7.917h1.144v-6.708h-1.144V231zm-10.205 19.156c.975 0 1.729-.377 2.275-1.066l.039.91h.975v-4.381c0-1.664-.858-2.483-2.626-2.483-1.677 0-2.587.741-2.704 2.197h1.118c.039-.819.598-1.209 1.547-1.209 1.04 0 1.521.481 1.521 1.521v.364h-1.612c-1.885 0-2.769.754-2.769 2.093 0 1.313.858 2.054 2.236 2.054zm.169-.988c-.845 0-1.261-.39-1.261-1.092 0-.754.494-1.118 1.664-1.118h1.573v.949c-.403.819-1.079 1.261-1.976 1.261zm5.135.832h1.144v-3.861c.221-1.287.832-1.846 1.924-1.846h.338v-1.131h-.455c-.975 0-1.586.429-1.924 1.378l-.052-1.248h-.975V250zm6.325.156c.975 0 1.729-.377 2.275-1.066l.039.91h.975v-4.381c0-1.664-.858-2.483-2.626-2.483-1.677 0-2.587.741-2.704 2.197h1.118c.039-.819.598-1.209 1.547-1.209 1.04 0 1.521.481 1.521 1.521v.364h-1.612c-1.885 0-2.769.754-2.769 2.093 0 1.313.858 2.054 2.236 2.054zm.169-.988c-.845 0-1.261-.39-1.261-1.092 0-.754.494-1.118 1.664-1.118h1.573v.949c-.403.819-1.079 1.261-1.976 1.261zm8.177.988c2.08 0 3.146-1.014 3.224-3.055h-1.144c-.065 1.352-.728 1.989-2.08 1.989-1.482 0-2.132-.754-2.132-2.457v-2.106c0-1.703.65-2.457 2.132-2.457 1.352 0 2.015.637 2.08 2.002h1.144c-.078-2.054-1.144-3.068-3.224-3.068-2.223 0-3.302 1.17-3.302 3.497v2.158c0 2.327 1.079 3.497 3.302 3.497z"/>
    <rect width="13" height="13" x="309" y="201" fill="#115F92" rx="6.5"/>
    <rect width="13" height="13" x="309" y="222" fill="#333332" rx="6.5"/>
    <rect width="13" height="13" x="309" y="240" fill="#1399F1" rx="6.5"/>
    <path stroke="#F8AF3E" stroke-miterlimit="10" stroke-width="10" d="M183.668 36.572c26.948-7.127 56.462 2.319 73.809 25.576"/>
    <path stroke="#C5C5C5" stroke-miterlimit="10" stroke-width="10" d="M147.095 60.078c4.2-5.116 9.172-9.683 14.928-13.597 6.808-4.628 14.131-7.91 21.71-9.897"/>
    <path stroke="#E52826" stroke-miterlimit="10" stroke-width="10" d="M131.893 115.019c-2.896-19.402 2.486-39.512 15.176-54.98"/>
    <path stroke="#C5C5C5" stroke-miterlimit="10" stroke-width="10" d="M132.647 118.972c-.255-1.296-.537-2.63-.689-3.94"/>
    <path stroke="#008D36" stroke-miterlimit="10" stroke-width="10" d="M143.154 143.714c-5.257-7.733-8.735-16.111-10.546-24.716"/>
    <path stroke="#C5C5C5" stroke-miterlimit="10" stroke-width="10" d="M257.515 62.122c.618.824 1.222 1.713 1.8 2.564 21.686 31.897 13.248 75.455-18.804 97.245-32.052 21.79-75.659 13.615-97.318-18.244"/>
    <path fill="#fff" d="M137.094 145.371l8.863-6.001s2.322 3.683 3.406 5.073l-8.736 6.046s-1.958-2.563-3.533-5.118z"/>
    <path fill="#fff" d="M143.016 141.371l4.28-2.875s2.367 3.598 3.451 4.988l-4.197 3.005s-1.835-2.304-3.534-5.118z"/>
    <path stroke="#fff" stroke-linecap="round" stroke-linejoin="round" stroke-miterlimit="10" stroke-width="4.134" d="M142.5 145.417l-15.884 9.787H108"/>
    <path fill="#fff" d="M143.237 55.843l8.277 7.12s-2.875 3.153-3.916 4.672l-8.367-6.968c-.029-.053 1.459-2.018 4.006-4.824z"/>
    <path fill="#fff" d="M148.584 60.418l3.884 3.37s-2.781 3.138-3.862 4.644l-4.016-3.231s2.861-3.695 3.994-4.783z"/>
    <path stroke="#fff" stroke-linecap="round" stroke-linejoin="round" stroke-miterlimit="10" stroke-width="4.134" d="M142.5 59.417l-16-14H108"/>
    <path fill="#fff" d="M55.019 51.418h4.528c2.4 0 3.504-.96 3.504-3.008 0-1.44-.544-2.288-1.792-2.672v-.032c.992-.368 1.424-1.136 1.424-2.352 0-1.936-1.12-2.816-3.456-2.816h-4.208v10.88zm1.44-6.208v-3.36h2.656c1.52 0 2.144.48 2.144 1.696 0 1.2-.608 1.664-2.128 1.664h-2.672zm0 4.896v-3.584h2.704c1.776 0 2.448.496 2.448 1.792 0 1.264-.64 1.792-2.272 1.792h-2.88zm11.06 1.504c1.2 0 2.127-.464 2.8-1.312l.047 1.12h1.2v-5.392c0-2.048-1.056-3.056-3.231-3.056-2.064 0-3.184.912-3.328 2.704h1.375c.048-1.008.736-1.488 1.904-1.488 1.28 0 1.873.592 1.873 1.872v.448h-1.985c-2.32 0-3.408.928-3.408 2.576 0 1.616 1.056 2.528 2.752 2.528zm.207-1.216c-1.04 0-1.552-.48-1.552-1.344 0-.928.608-1.376 2.048-1.376h1.937v1.168c-.497 1.008-1.329 1.552-2.433 1.552zm6.32 1.024h1.409V46.09c.608-1.28 1.296-1.824 2.176-1.824.864 0 1.344.528 1.344 1.632v5.52h1.408V46.01c.608-1.2 1.312-1.744 2.176-1.744.864 0 1.344.528 1.344 1.632v5.52h1.408v-5.632c0-1.824-.912-2.816-2.56-2.816-1.056 0-1.904.416-2.592 1.44-.336-.944-1.12-1.44-2.272-1.44-1.12 0-1.936.464-2.592 1.488l-.048-1.296h-1.2v8.256zm13.942 0h1.44v-4.896h5.264v4.896h1.44v-10.88h-1.44v4.64h-5.264v-4.64h-1.44v10.88zm11.093 0h1.44v-10.88h-1.44v10.88zM6.351 102.912H7.76v-4c.672.88 1.52 1.28 2.624 1.28 1.92 0 3.04-1.184 3.04-3.44v-1.76c0-2.256-1.12-3.44-3.04-3.44-1.2 0-2.08.464-2.784 1.504l-.048-1.312h-1.2v11.168zm3.856-3.952c-1.056 0-1.904-.688-2.448-1.872v-2.432c.544-1.184 1.392-1.872 2.448-1.872 1.136 0 1.808.784 1.808 2.256v1.664c0 1.472-.672 2.256-1.808 2.256zm5.6 1.04h4.529c2.4 0 3.504-.96 3.504-3.008 0-1.44-.544-2.288-1.792-2.672v-.032c.992-.368 1.424-1.136 1.424-2.352 0-1.936-1.12-2.816-3.456-2.816h-4.208V100zm1.44-6.208v-3.36h2.657c1.52 0 2.144.48 2.144 1.696 0 1.2-.608 1.664-2.128 1.664h-2.672zm0 4.896v-3.584h2.705c1.776 0 2.448.496 2.448 1.792 0 1.264-.64 1.792-2.272 1.792h-2.88zm7.42 1.312h1.488l.992-2.784h4.384l.992 2.784h1.536l-3.968-10.88h-1.456L24.667 100zm2.944-4.096l1.728-4.944 1.728 4.944h-3.456zM35.683 100h3.744c2.848 0 4.128-1.328 4.128-4.224v-2.432c0-2.896-1.28-4.224-4.128-4.224h-3.744V100zm1.44-1.312v-8.256h2.128c2.048 0 2.864.832 2.864 2.928v2.4c0 2.096-.816 2.928-2.864 2.928h-2.128zM45.099 96h4.832v-1.392h-4.832V96zm6.706 4h1.408v-4.752c.272-1.584 1.024-2.272 2.368-2.272h.416v-1.392h-.56c-1.2 0-1.952.528-2.368 1.696l-.064-1.536h-1.2V100zm6.118 0h1.408v-7.104h2.144v-1.152H59.33v-.896c0-.992.32-1.344 1.184-1.344h1.024V88.32H60.21c-1.536 0-2.288.848-2.288 2.576v.848h-1.504v1.152h1.504V100zm5.07 2.912H64.4v-4c.672.88 1.52 1.28 2.624 1.28 1.92 0 3.04-1.184 3.04-3.44v-1.76c0-2.256-1.12-3.44-3.04-3.44-1.2 0-2.08.464-2.784 1.504l-.048-1.312h-1.2v11.168zm3.855-3.952c-1.056 0-1.904-.688-2.448-1.872v-2.432c.544-1.184 1.392-1.872 2.448-1.872 1.136 0 1.808.784 1.808 2.256v1.664c0 1.472-.672 2.256-1.808 2.256zm-47.782 21.232c2.608 0 4.016-1.104 4.016-3.12 0-1.36-.64-2.272-1.872-2.704v-.032c1.04-.4 1.568-1.216 1.568-2.4 0-1.904-1.36-3.008-3.696-3.008-2.336 0-3.712 1.104-3.712 3.008 0 1.184.528 2 1.552 2.4v.032c-1.232.416-1.872 1.344-1.872 2.704 0 2.016 1.408 3.12 4.016 3.12zm0-6.4c-1.504 0-2.304-.624-2.304-1.776 0-1.184.848-1.808 2.304-1.808 1.488 0 2.32.64 2.32 1.808 0 1.152-.816 1.776-2.32 1.776zm0 5.12c-1.728 0-2.608-.656-2.608-1.92 0-1.264.88-1.92 2.608-1.92 1.728 0 2.608.656 2.608 1.92 0 1.264-.88 1.92-2.608 1.92zm9.625 1.28c2.432 0 3.744-1.264 3.744-3.616v-4.032c0-2.352-1.312-3.616-3.744-3.616-2.432 0-3.744 1.264-3.744 3.616v4.032c0 2.352 1.312 3.616 3.744 3.616zm0-1.28c-1.568 0-2.336-.8-2.336-2.432v-3.84c0-1.632.768-2.432 2.336-2.432 1.568 0 2.336.8 2.336 2.432v3.84c0 1.632-.768 2.432-2.336 2.432zM36.188 120h1.504c.16-3.744 1.632-6.768 4.464-9.488v-1.392h-7.728v1.344h6.096c-2.688 2.576-4.176 5.808-4.336 9.536zm12.297.192c1.92 0 3.04-1.184 3.04-3.44v-1.76c0-2.256-1.12-3.44-3.04-3.44-1.104 0-1.952.4-2.624 1.28v-4.512h-1.408V120h1.2l.048-1.312c.704 1.04 1.584 1.504 2.784 1.504zm-.176-1.232c-1.04 0-1.904-.688-2.448-1.872v-2.432c.544-1.184 1.392-1.872 2.448-1.872 1.136 0 1.808.784 1.808 2.256v1.664c0 1.472-.672 2.256-1.808 2.256zm5.457 3.952h1.407v-4c.672.88 1.52 1.28 2.624 1.28 1.92 0 3.04-1.184 3.04-3.44v-1.76c0-2.256-1.12-3.44-3.04-3.44-1.2 0-2.08.464-2.783 1.504l-.049-1.312h-1.2v11.168zm3.855-3.952c-1.056 0-1.904-.688-2.448-1.872v-2.432c.544-1.184 1.392-1.872 2.448-1.872 1.136 0 1.808.784 1.808 2.256v1.664c0 1.472-.672 2.256-1.808 2.256zM170.029 103.693h2.664v-4.031c.63.665 1.422.971 2.43.971 2.142 0 3.348-1.331 3.348-3.87v-2.106c0-2.537-1.206-3.852-3.348-3.852-1.188 0-2.052.414-2.754 1.35l-.072-1.133h-2.268v12.671zm4.482-5.22c-.846 0-1.44-.486-1.818-1.44v-2.645c.378-.937.972-1.422 1.8-1.422.864 0 1.314.504 1.314 1.71v2.087c0 1.224-.45 1.71-1.296 1.71zm6.14 1.944h2.7v-3.24l1.44-1.836 2.79 5.076h3.078l-3.996-7.218 3.942-5.022h-3.096l-4.158 5.346v-5.346h-2.7v12.24zm9.883 0h2.736l.774-2.466h3.852l.774 2.466h2.862l-4.104-12.24h-2.79l-4.104 12.24zm4.176-4.716l1.26-4.463 1.26 4.463h-2.52zm8.212 4.716h2.556v-8.243l4.446 8.243h2.574v-12.24h-2.556V95.9l-4.158-7.722h-2.862v12.24zm11.514-4.194h5.706V93.92h-5.706v2.303zm7.646 4.194h2.7V95.9h1.458l2.43 4.517h3.078l-2.646-4.77c1.53-.45 2.178-1.602 2.178-3.6 0-2.736-1.188-3.87-4.194-3.87h-5.004v12.24zm2.7-6.822v-3.114h2.016c1.314 0 1.782.45 1.782 1.567 0 1.097-.468 1.547-1.782 1.547h-2.016zm-52.967 29.038c3.042 0 4.572-1.404 4.572-4.266 0-2.646-1.314-4.068-3.744-4.068-.936 0-1.728.216-2.376.72l.162-2.556h5.4v-2.286h-7.614l-.45 7.056h2.322c.45-.45 1.044-.738 1.818-.738 1.188 0 1.818.666 1.818 1.944s-.63 1.944-1.926 1.944c-1.116 0-1.782-.504-1.836-1.386h-2.556c.018 2.412 1.566 3.636 4.41 3.636zm10.722 0c3.042 0 4.572-1.404 4.572-4.266 0-2.646-1.314-4.068-3.744-4.068-.936 0-1.728.216-2.376.72l.162-2.556h5.4v-2.286h-7.614l-.45 7.056h2.322c.45-.45 1.044-.738 1.818-.738 1.188 0 1.818.666 1.818 1.944s-.63 1.944-1.926 1.944c-1.116 0-1.782-.504-1.836-1.386h-2.556c.018 2.412 1.566 3.636 4.41 3.636zm7.069-.216h8.514v-2.286h-2.916v-9.954h-2.538c-.702 1.098-1.71 1.548-3.42 1.584v2.07c1.098-.018 2.25-.072 3.294-.378v6.678h-2.934v2.286zm9.895 0h8.874v-2.286h-6.192c.162-.738.792-1.206 2.448-1.944 2.682-1.206 3.744-2.502 3.744-4.536 0-2.34-1.494-3.69-4.338-3.69-2.808 0-4.338 1.332-4.338 3.87v.576h2.52v-.342c0-1.26.594-1.854 1.8-1.854 1.17 0 1.71.576 1.71 1.458 0 1.026-.612 1.638-2.448 2.502-2.736 1.278-3.78 2.664-3.78 4.986v1.26zm20.429.216c2.142 0 3.348-1.314 3.348-3.852v-2.106c0-2.538-1.206-3.87-3.348-3.87-1.008 0-1.8.306-2.43.972v-4.5h-2.664v13.14h2.268l.072-1.134c.702.936 1.566 1.35 2.754 1.35zm-.63-2.16c-.828 0-1.422-.486-1.8-1.422v-2.646c.378-.954.972-1.44 1.818-1.44.846 0 1.296.486 1.296 1.71v2.088c0 1.206-.45 1.71-1.314 1.71zm5.959 5.22h2.664v-4.032c.63.666 1.422.972 2.43.972 2.142 0 3.348-1.332 3.348-3.87v-2.106c0-2.538-1.206-3.852-3.348-3.852-1.188 0-2.052.414-2.754 1.35l-.072-1.134h-2.268v12.672zm4.482-5.22c-.846 0-1.44-.486-1.818-1.44v-2.646c.378-.936.972-1.422 1.8-1.422.864 0 1.314.504 1.314 1.71v2.088c0 1.224-.45 1.71-1.296 1.71zM56.706 159.417h1.44v-4.896h5.264v4.896h1.44v-10.88h-1.44v4.64h-5.264v-4.64h-1.44v10.88zm10.886-9.744h1.536v-1.568h-1.536v1.568zm.064 9.744h1.408v-8.256h-1.408v8.256zm4.063 0h1.408v-5.36c.592-1.216 1.344-1.792 2.32-1.792.976 0 1.456.56 1.456 1.856v5.296h1.408v-5.424c0-1.984-.864-3.024-2.592-3.024-1.152 0-2.032.464-2.752 1.488l-.048-1.296h-1.2v8.256zm11.749.192c1.2 0 2.08-.464 2.784-1.504l.048 1.312h1.2v-11.68h-1.408v4.512c-.672-.88-1.52-1.28-2.624-1.28-1.92 0-3.04 1.184-3.04 3.44v1.76c0 2.256 1.12 3.44 3.04 3.44zm.176-1.232c-1.136 0-1.808-.784-1.808-2.256v-1.664c0-1.472.672-2.256 1.808-2.256 1.056 0 1.904.688 2.448 1.872v2.432c-.544 1.184-1.392 1.872-2.448 1.872zm6.656 1.04h1.44v-10.88H90.3v10.88zm4.39 0h1.44v-10.88h-1.44v10.88zm4.391 0h1.44v-10.88h-1.44v10.88z"/>
    <path fill="#FAAC48" fill-rule="evenodd" d="M37 45.418a1 1 0 0 0-1 1v1.946h2v-.946h.929v-2H37zm8.679 0H41.82v2h3.858v-2zm4.821 0h-1.929v2H50.5v-2zM36 51.284v3.893h2v-3.893h-2zm0 6.813v3.892h2v-3.892h-2zm0 6.812v3.893h2v-3.893h-2zm0 6.813v3.892h2v-3.892h-2zm0 6.812v3.893h2v-3.893h-2zm0 47.688v3.892h2v-3.892h-2zm0 6.812v3.893h2v-3.893h-2zm0 6.813v3.892h2v-3.892h-2zm0 6.812v3.893h2v-3.893h-2zm0 6.813v1.946a1 1 0 0 0 1 1h1.929v-2H38v-.946h-2zm5.821 2.946h3.858v-2H41.82v2zm6.75 0H50.5v-2h-1.929v2z" clip-rule="evenodd"/>
    <path stroke="#333332" stroke-miterlimit="10" stroke-width="10" d="M315.193 131.224a70.263 70.263 0 0 1 6.355-65.998"/>
    <path stroke="#C5C5C5" stroke-miterlimit="10" stroke-width="10" d="M344.798 164.744a72.5 72.5 0 0 1-3.896-2.415c-11.923-7.907-20.596-18.853-25.709-31.105"/>
    <path stroke="#115F92" stroke-miterlimit="10" stroke-width="10" d="M424.954 157.067c-22.066 18.89-54.233 22.558-80.156 7.678"/>
    <path stroke="#C5C5C5" stroke-miterlimit="10" stroke-width="10" d="M424.287 49.554c27.362 22.438 33.736 62.562 13.613 92.901-3.718 5.605-8.085 10.498-12.971 14.651"/>
    <path stroke="#1399F1" stroke-miterlimit="10" stroke-width="10" d="M351.789 39.679c21.075-9.276 46.238-8.05 66.77 5.568a72.09 72.09 0 0 1 5.753 4.267"/>
    <path stroke="#C5C5C5" stroke-miterlimit="10" stroke-width="10" d="M321.548 65.226c7.748-11.68 18.339-20.29 30.241-25.547"/>
    <path fill="#fff" d="M436.104 51.965l-7.457 7.677s-3.023-3.133-4.367-4.274l7.324-7.696s2.439 2.11 4.5 4.293z"/>
    <path fill="#fff" d="M431.119 57.085l-3.606 3.685s-3.049-3.04-4.393-4.182l3.498-3.795s2.266 1.882 4.501 4.292z"/>
    <path stroke="#fff" stroke-linecap="round" stroke-linejoin="round" stroke-miterlimit="10" stroke-width="4.134" d="M475.05 41h-32.5l-12 12"/>
    <path fill="#fff" d="M448.221 135.944l-10.022-4.33s1.805-3.867 2.345-5.627l10.064 4.159c.043.042-.792 2.36-2.387 5.798z"/>
    <path fill="#fff" d="M441.754 133.17l-4.712-2.06s1.72-3.824 2.304-5.584l4.795 1.889s-1.63 4.379-2.387 5.755zM359.11 103.276h2.664v-4.031c.63.665 1.422.971 2.43.971 2.142 0 3.348-1.331 3.348-3.87V94.24c0-2.537-1.206-3.852-3.348-3.852-1.188 0-2.052.414-2.754 1.35l-.072-1.133h-2.268v12.671zm4.482-5.22c-.846 0-1.44-.486-1.818-1.44v-2.645c.378-.937.972-1.422 1.8-1.422.864 0 1.314.503 1.314 1.71v2.088c0 1.224-.45 1.71-1.296 1.71zm4.826 1.944h2.736l.774-2.466h3.852l.774 2.466h2.862l-4.104-12.24h-2.79L368.418 100zm4.176-4.716l1.26-4.464 1.26 4.465h-2.52zm8.212 4.716h2.7v-4.517h1.458l2.43 4.517h3.078l-2.646-4.77c1.53-.45 2.178-1.602 2.178-3.6 0-2.736-1.188-3.87-4.194-3.87h-5.004V100zm2.7-6.822v-3.114h2.016c1.314 0 1.782.45 1.782 1.567 0 1.097-.468 1.547-1.782 1.547h-2.016zm7.377 6.822h2.736l.774-2.466h3.852l.774 2.466h2.862l-4.104-12.24h-2.79L390.883 100zm4.176-4.716l1.26-4.464 1.26 4.465h-2.52zM352.226 122h2.664v-2.502h1.26v-2.178h-1.26v-7.56h-2.844l-5.526 7.398v2.34h5.706V122zm-3.15-4.68l3.15-4.374v4.374h-3.15zm12.919 4.896c3.078 0 4.68-1.26 4.68-3.6 0-1.458-.63-2.466-1.872-2.97v-.036c1.062-.486 1.584-1.368 1.584-2.646 0-2.196-1.566-3.42-4.374-3.42-2.826 0-4.392 1.224-4.392 3.438 0 1.26.522 2.142 1.566 2.628v.036c-1.242.504-1.872 1.512-1.872 2.97 0 2.34 1.602 3.6 4.68 3.6zm0-7.524c-1.116 0-1.764-.504-1.764-1.494 0-.972.612-1.44 1.764-1.44 1.152 0 1.764.468 1.764 1.44 0 .99-.648 1.494-1.764 1.494zm-.018 5.31c-1.368 0-2.016-.468-2.016-1.512 0-1.08.702-1.584 2.016-1.584 1.332 0 2.034.504 2.034 1.584 0 1.044-.666 1.512-2.034 1.512zm7.825 1.998h2.844c.18-4.014 1.566-6.948 4.536-9.828v-2.412h-9v2.34h6.246c-2.88 2.52-4.446 5.814-4.626 9.9zm9.138 0h8.874v-2.286h-6.192c.162-.738.792-1.206 2.448-1.944 2.682-1.206 3.744-2.502 3.744-4.536 0-2.34-1.494-3.69-4.338-3.69-2.808 0-4.338 1.332-4.338 3.87v.576h2.52v-.342c0-1.26.594-1.854 1.8-1.854 1.17 0 1.71.576 1.71 1.458 0 1.026-.612 1.638-2.448 2.502-2.736 1.278-3.78 2.664-3.78 4.986V122zm20.429.216c2.142 0 3.348-1.314 3.348-3.852v-2.106c0-2.538-1.206-3.87-3.348-3.87-1.008 0-1.8.306-2.43.972v-4.5h-2.664V122h2.268l.072-1.134c.702.936 1.566 1.35 2.754 1.35zm-.63-2.16c-.828 0-1.422-.486-1.8-1.422v-2.646c.378-.954.972-1.44 1.818-1.44.846 0 1.296.486 1.296 1.71v2.088c0 1.206-.45 1.71-1.314 1.71zm5.96 5.22h2.664v-4.032c.63.666 1.422.972 2.43.972 2.142 0 3.348-1.332 3.348-3.87v-2.106c0-2.538-1.206-3.852-3.348-3.852-1.188 0-2.052.414-2.754 1.35l-.072-1.134h-2.268v12.672zm4.482-5.22c-.846 0-1.44-.486-1.818-1.44v-2.646c.378-.936.972-1.422 1.8-1.422.864 0 1.314.504 1.314 1.71v2.088c0 1.224-.45 1.71-1.296 1.71zM528.414 96.192c2.464 0 3.824-1.04 3.824-3.167 0-1.377-.56-2.257-1.744-2.657v-.031c.976-.416 1.472-1.233 1.472-2.416 0-1.92-1.296-2.993-3.536-2.993-2.336 0-3.68 1.153-3.68 3.153v.24h1.36v-.144c0-1.265.8-1.969 2.272-1.969 1.408 0 2.192.64 2.192 1.84 0 1.168-.752 1.76-2.176 1.76h-1.216v1.28h1.2c1.68 0 2.448.64 2.448 1.889 0 1.328-.864 1.935-2.416 1.935-1.632 0-2.448-.672-2.448-1.984v-.207h-1.376v.4c0 2 1.328 3.072 3.824 3.072zm7.449-.191h1.504c.16-3.745 1.632-6.769 4.464-9.489v-1.391h-7.728v1.344h6.096c-2.688 2.575-4.176 5.807-4.336 9.535zm9.625 0h1.504c.16-3.745 1.632-6.769 4.464-9.489v-1.391h-7.728v1.344h6.096c-2.688 2.575-4.176 5.807-4.336 9.535zm12.297.191c1.92 0 3.04-1.183 3.04-3.44v-1.76c0-2.255-1.12-3.44-3.04-3.44-1.104 0-1.952.4-2.624 1.28v-4.511h-1.408V96h1.2l.048-1.313c.704 1.04 1.584 1.504 2.784 1.504zm-.176-1.231c-1.04 0-1.904-.689-2.448-1.873v-2.431c.544-1.184 1.392-1.873 2.448-1.873 1.136 0 1.808.784 1.808 2.256v1.664c0 1.473-.672 2.257-1.808 2.257zm5.456 3.951h1.408v-4c.672.88 1.52 1.28 2.624 1.28 1.92 0 3.04-1.183 3.04-3.44v-1.76c0-2.255-1.12-3.44-3.04-3.44-1.2 0-2.08.464-2.784 1.504l-.048-1.311h-1.2v11.167zm3.856-3.952c-1.056 0-1.904-.688-2.448-1.871v-2.433c.544-1.184 1.392-1.872 2.448-1.872 1.136 0 1.808.784 1.808 2.256v1.664c0 1.473-.672 2.257-1.808 2.257zM483.021 46h4.528c2.4 0 3.504-.96 3.504-3.008 0-1.44-.544-2.288-1.792-2.672v-.032c.992-.368 1.424-1.136 1.424-2.352 0-1.936-1.12-2.816-3.456-2.816h-4.208V46zm1.44-6.208v-3.36h2.656c1.52 0 2.144.48 2.144 1.696 0 1.2-.608 1.664-2.128 1.664h-2.672zm0 4.896v-3.584h2.704c1.776 0 2.448.496 2.448 1.792 0 1.264-.64 1.792-2.272 1.792h-2.88zm11.06 1.504c1.2 0 2.128-.464 2.8-1.312l.048 1.12h1.2v-5.392c0-2.048-1.056-3.056-3.232-3.056-2.064 0-3.184.912-3.328 2.704h1.376c.048-1.008.736-1.488 1.904-1.488 1.28 0 1.872.592 1.872 1.872v.448h-1.984c-2.32 0-3.408.928-3.408 2.576 0 1.616 1.056 2.528 2.752 2.528zm.208-1.216c-1.04 0-1.552-.48-1.552-1.344 0-.928.608-1.376 2.048-1.376h1.936v1.168c-.496 1.008-1.328 1.552-2.432 1.552zm6.32 1.024h1.408v-5.328c.608-1.28 1.296-1.824 2.176-1.824.864 0 1.344.528 1.344 1.632V46h1.408v-5.408c.608-1.2 1.312-1.744 2.176-1.744.864 0 1.344.528 1.344 1.632V46h1.408v-5.632c0-1.824-.912-2.816-2.56-2.816-1.056 0-1.904.416-2.592 1.44-.336-.944-1.12-1.44-2.272-1.44-1.12 0-1.936.464-2.592 1.488l-.048-1.296h-1.2V46zm13.941 0h1.44v-4.896h5.264V46h1.44V35.12h-1.44v4.64h-5.264v-4.64h-1.44V46zm11.094 0h1.44V35.12h-1.44V46zM483.022 143h1.44v-4.896h5.264V143h1.44v-10.88h-1.44v4.64h-5.264v-4.64h-1.44V143zm10.885-9.744h1.536v-1.568h-1.536v1.568zm.064 9.744h1.408v-8.256h-1.408V143zm4.063 0h1.408v-5.36c.592-1.216 1.344-1.792 2.32-1.792.976 0 1.456.56 1.456 1.856V143h1.408v-5.424c0-1.984-.864-3.024-2.592-3.024-1.152 0-2.032.464-2.752 1.488l-.048-1.296h-1.2V143zm11.749.192c1.2 0 2.08-.464 2.784-1.504l.048 1.312h1.2v-11.68h-1.408v4.512c-.672-.88-1.52-1.28-2.624-1.28-1.92 0-3.04 1.184-3.04 3.44v1.76c0 2.256 1.12 3.44 3.04 3.44zm.176-1.232c-1.136 0-1.808-.784-1.808-2.256v-1.664c0-1.472.672-2.256 1.808-2.256 1.056 0 1.904.688 2.448 1.872v2.432c-.544 1.184-1.392 1.872-2.448 1.872zm6.656 1.04h1.44v-10.88h-1.44V143zm4.391 0h1.44v-10.88h-1.44V143zm4.391 0h1.44v-10.88h-1.44V143z"/>
    <path fill="#FAAC48" fill-rule="evenodd" d="M533.549 41h1.929v-2h-1.929v2zm4.822 0h3.857v-2h-3.857v2zm6.75 0h.928v1.003h2V40a1 1 0 0 0-1-1h-1.928v2zm.928 4.007v4.005h2v-4.005h-2zm0 7.01v4.005h2v-4.005h-2zm0 7.01v4.005h2v-4.006h-2zm0 7.009v4.005h2v-4.005h-2zm0 42.73v3.333h2v-3.333h-2zm0 6.337v4.006h2v-4.006h-2zm0 7.01v4.005h2v-4.005h-2zm0 7.009v4.006h2v-4.006h-2zm0 7.01v1.003h-.928v2h1.928a1 1 0 0 0 1-1v-2.003h-2zm-10.571 1.003h-1.929v2h1.929v-2zm6.75 0h-3.857v2h3.857v-2z" clip-rule="evenodd"/>
    <path stroke="#fff" stroke-linecap="round" stroke-width="4.13" d="M444.05 131l18.5 7h13.5"/>
</svg>
