<svg xmlns="http://www.w3.org/2000/svg" width="121" height="125" fill="none" viewBox="0 0 121 125">
    <path fill="#fff" d="M120.79 0H0v125h120.79V0z"/>
    <path fill="#7CB4D0" d="M116.137 4.006H5.114v115.86h111.023V4.006z" opacity=".4"/>
    <path fill="#BCDEEA" d="M116.137 4.006H5.114v115.86h111.023V4.006z" opacity=".1"/>
    <path fill="#7CB4D0" d="M5.114 4.006L0 0v125l5.114-5.134V4.006zM116.137 119.866L120.79 125V0l-4.653 4.006v115.86z" opacity=".5"/>
    <path fill="#7CB4D0" d="M120.79 0H0v125h120.79V0z" opacity=".4"/>
    <path fill="#7CB4D0" d="M116.137 119.827H5.114L0 125h120.79l-4.653-5.173z" opacity=".8"/>
    <path fill="#003E6B" d="M9.909 44.969h14.482v1.524H9.909zM9.909 37.348h14.482v1.524H9.909zM9.909 83.079h14.482v1.524H9.909zM9.909 75.457h14.482v1.524H9.909zM9.909 67.835h14.482v1.524H9.909zM9.909 60.213h14.482v1.524H9.909zM9.909 52.591h14.482v1.524H9.909zM9.909 30.488h14.482v.762H9.909zM9.909 90.701h14.482v.762H9.909z"/>
</svg>
