<svg width="121" height="126" viewBox="0 0 121 126" fill="none" xmlns="http://www.w3.org/2000/svg">
<path d="M120.98 0.616211H0.239746V125.564H120.98V0.616211Z" fill="white"/>
<path opacity="0.4" d="M116.329 4.62061H5.35156V120.433H116.329V4.62061Z" fill="#7CB4D0"/>
<path opacity="0.1" d="M116.329 4.62061H5.35156V120.433H116.329V4.62061Z" fill="#BCDEEA"/>
<path opacity="0.5" d="M5.35116 4.62045L0.239746 0.616211V125.564L5.35116 120.433V4.62045Z" fill="#7CB4D0"/>
<path opacity="0.5" d="M116.329 120.433L120.98 125.564V0.616211L116.329 4.62045V120.433Z" fill="#7CB4D0"/>
<path opacity="0.4" d="M120.98 0.616211H0.239746V125.564H120.98V0.616211Z" fill="#7CB4D0"/>
<path opacity="0.8" d="M116.329 120.394H5.35116L0.239746 125.564H120.98L116.329 120.394Z" fill="#7CB4D0"/>
<rect x="10.1445" y="30.3291" width="14.4757" height="1.8043" fill="#003E6B"/>
<rect x="10.1445" y="34.3896" width="14.4757" height="1.8043" fill="#003E6B"/>
<rect x="10.1445" y="38.9014" width="14.4757" height="1.8043" fill="#003E6B"/>
<rect x="10.1445" y="43.4131" width="14.4757" height="1.8043" fill="#003E6B"/>
<rect x="10.1445" y="49.7856" width="14.4757" height="1.8043" fill="#003E6B"/>
<rect x="10.1445" y="63.0903" width="14.4757" height="1.8043" fill="#003E6B"/>
<rect x="10.1445" y="77.1104" width="14.4757" height="1.8043" fill="#003E6B"/>
<rect x="10.1445" y="86.1338" width="14.4757" height="1.8043" fill="#003E6B"/>
<rect x="10.1445" y="97.4692" width="14.4757" height="1.8043" fill="#003E6B"/>
<rect x="10.1445" y="106.042" width="14.4757" height="1.8043" fill="#003E6B"/>
<rect x="10.1445" y="112.612" width="102.092" height="4.57127" fill="#003E6B"/>
</svg>
