<svg width="590" height="286" viewBox="0 0 590 286" fill="none" xmlns="http://www.w3.org/2000/svg">
<rect x="0.921021" y="4.33398" width="589" height="281" rx="5" fill="#003E6B"/>
<path d="M57.986 218.7H59.13L59.715 215.385C60.144 216.139 60.794 216.49 61.73 216.49C63.316 216.49 64.304 215.502 64.616 213.721L64.863 212.304C64.915 212.031 64.941 211.771 64.941 211.524C64.941 210.224 64.213 209.47 62.835 209.47C61.899 209.47 61.132 209.821 60.43 210.627L60.573 209.626H59.598L57.986 218.7ZM61.652 215.489C60.807 215.489 60.235 214.956 59.962 214.007L60.313 212.031C60.95 211.043 61.756 210.471 62.614 210.471C63.381 210.471 63.784 210.926 63.784 211.693C63.784 211.888 63.758 212.083 63.719 212.291L63.485 213.617C63.277 214.787 62.627 215.489 61.652 215.489ZM66.0984 216.334H69.8164C71.8964 216.334 73.1054 215.294 73.1054 213.5C73.1054 212.551 72.7674 211.992 71.9614 211.732V211.706C72.9884 211.342 73.5084 210.575 73.5084 209.431C73.5084 208.066 72.7674 207.494 71.0254 207.494H67.6584L66.0984 216.334ZM68.1524 211.29L68.6464 208.56H70.8174C71.9484 208.56 72.3384 208.833 72.3384 209.626C72.3384 210.692 71.6234 211.29 70.2974 211.29H68.1524ZM67.4504 215.268L67.9704 212.356H70.1804C71.5064 212.356 71.9484 212.642 71.9484 213.487C71.9484 214.618 71.1424 215.268 69.7644 215.268H67.4504ZM73.2968 216.334H74.5448L75.7538 214.072H79.3028L79.7188 216.334H80.9278L79.2508 207.494H78.0678L73.2968 216.334ZM76.3128 213.006L78.4188 208.989L79.1208 213.006H76.3128ZM82.2469 216.334H85.3539C87.6939 216.334 88.8249 215.307 89.2409 212.954L89.5919 210.965C89.6569 210.588 89.6959 210.25 89.6959 209.912C89.6959 208.248 88.7079 207.494 86.7969 207.494H83.8069L82.2469 216.334ZM83.5989 215.268L84.7949 208.56H86.5629C87.9279 208.56 88.5129 209.002 88.5129 210.107C88.5129 210.341 88.4869 210.614 88.4349 210.913L88.0839 212.902C87.7979 214.527 86.9789 215.268 85.3279 215.268H83.5989ZM58.415 235.334H59.559L60.248 231.421C60.703 230.186 61.431 229.627 62.51 229.627H62.822L63.017 228.496H62.523C61.561 228.496 60.898 228.899 60.417 229.809L60.573 228.626H59.598L58.415 235.334ZM63.3862 235.334H64.5302L65.5442 229.562H67.2862L67.4422 228.626H65.7132L65.8432 227.898C65.9862 227.079 66.3242 226.806 67.0132 226.806H67.8192L67.9882 225.844H66.8702C65.6222 225.844 64.9462 226.468 64.6992 227.898L64.5692 228.626H63.3342L63.1782 229.562H64.4002L63.3862 235.334ZM67.0759 237.7H68.2199L68.8049 234.385C69.2339 235.139 69.8839 235.49 70.8199 235.49C72.4059 235.49 73.3939 234.502 73.7059 232.721L73.9529 231.304C74.0049 231.031 74.0309 230.771 74.0309 230.524C74.0309 229.224 73.3029 228.47 71.9249 228.47C70.9889 228.47 70.2219 228.821 69.5199 229.627L69.6629 228.626H68.6879L67.0759 237.7ZM70.7419 234.489C69.8969 234.489 69.3249 233.956 69.0519 233.007L69.4029 231.031C70.0399 230.043 70.8459 229.471 71.7039 229.471C72.4709 229.471 72.8739 229.926 72.8739 230.693C72.8739 230.888 72.8479 231.083 72.8089 231.291L72.5749 232.617C72.3669 233.787 71.7169 234.489 70.7419 234.489ZM58.415 254.334H59.559L59.897 252.423L61.314 251.162L62.848 254.334H64.122L62.198 250.369L65.266 247.626H63.784L60.17 250.889L61.236 244.844H60.092L58.415 254.334ZM67.115 254.49C67.999 254.49 68.792 254.191 69.494 253.463L69.377 254.334H70.352L71.119 249.992C71.158 249.758 71.171 249.524 71.171 249.355C71.171 248.133 70.456 247.47 68.844 247.47C67.232 247.47 66.205 248.133 65.841 249.667H66.959C67.128 248.874 67.791 248.458 68.753 248.458C69.611 248.458 70.014 248.783 70.014 249.511C70.014 249.641 70.001 249.823 69.975 249.979L69.91 250.343H68.233C66.335 250.343 65.126 251.162 65.126 252.709C65.126 253.918 65.88 254.49 67.115 254.49ZM67.323 253.502C66.595 253.502 66.27 253.229 66.27 252.644C66.27 251.747 66.998 251.292 68.168 251.292H69.741L69.585 252.176C69.026 253.034 68.272 253.502 67.323 253.502ZM72.3545 254.334H73.4985L74.2655 250.005C74.9155 249.017 75.6305 248.523 76.4495 248.523C77.0865 248.523 77.3725 248.809 77.3725 249.446C77.3725 249.615 77.3595 249.836 77.3205 250.057L76.5665 254.334H77.7105L78.4775 249.992C78.5295 249.706 78.5425 249.459 78.5425 249.225C78.5425 248.081 77.9445 247.47 76.7355 247.47C75.8385 247.47 75.0845 247.821 74.3695 248.627L74.5125 247.626H73.5375L72.3545 254.334ZM79.8855 254.334H81.0555L81.6925 250.746H83.7075L85.1765 254.334H86.4375L84.9295 250.655C86.4635 250.356 87.2825 249.303 87.2825 247.626C87.2825 246.092 86.5935 245.494 84.7865 245.494H81.4455L79.8855 254.334ZM81.8745 249.68L82.4335 246.56H84.5655C85.7485 246.56 86.1125 246.846 86.1125 247.717C86.1125 248.965 85.3715 249.68 83.9675 249.68H81.8745Z" fill="white"/>
<rect x="36.921" y="205.334" width="13" height="13" rx="6.5" fill="#008D36"/>
<rect x="36.921" y="226.334" width="13" height="13" rx="6.5" fill="#E52826"/>
<rect x="36.921" y="244.334" width="13" height="13" rx="6.5" fill="#F8AF3E"/>
<path d="M332.196 216.49C333.08 216.49 333.873 216.191 334.575 215.463L334.458 216.334H335.433L336.2 211.992C336.239 211.758 336.252 211.524 336.252 211.355C336.252 210.133 335.537 209.47 333.925 209.47C332.313 209.47 331.286 210.133 330.922 211.667H332.04C332.209 210.874 332.872 210.458 333.834 210.458C334.692 210.458 335.095 210.783 335.095 211.511C335.095 211.641 335.082 211.823 335.056 211.979L334.991 212.343H333.314C331.416 212.343 330.207 213.162 330.207 214.709C330.207 215.918 330.961 216.49 332.196 216.49ZM332.404 215.502C331.676 215.502 331.351 215.229 331.351 214.644C331.351 213.747 332.079 213.292 333.249 213.292H334.822L334.666 214.176C334.107 215.034 333.353 215.502 332.404 215.502ZM337.436 216.334H338.58L339.347 212.018C340.023 210.991 340.673 210.523 341.401 210.523C341.973 210.523 342.272 210.796 342.272 211.394C342.272 211.524 342.259 211.68 342.233 211.836L341.44 216.334H342.584L343.351 211.966C344.027 210.991 344.69 210.523 345.418 210.523C345.977 210.523 346.276 210.796 346.276 211.394C346.276 211.524 346.263 211.68 346.237 211.836L345.444 216.334H346.588L347.394 211.771C347.433 211.55 347.433 211.355 347.433 211.199C347.433 210.068 346.809 209.47 345.639 209.47C344.807 209.47 344.079 209.782 343.39 210.614C343.208 209.886 342.636 209.47 341.687 209.47C340.816 209.47 340.114 209.821 339.464 210.614L339.594 209.626H338.619L337.436 216.334ZM348.216 218.7H349.36L349.945 215.385C350.374 216.139 351.024 216.49 351.96 216.49C353.546 216.49 354.534 215.502 354.846 213.721L355.093 212.304C355.145 212.031 355.171 211.771 355.171 211.524C355.171 210.224 354.443 209.47 353.065 209.47C352.129 209.47 351.362 209.821 350.66 210.627L350.803 209.626H349.828L348.216 218.7ZM351.882 215.489C351.037 215.489 350.465 214.956 350.192 214.007L350.543 212.031C351.18 211.043 351.986 210.471 352.844 210.471C353.611 210.471 354.014 210.926 354.014 211.693C354.014 211.888 353.988 212.083 353.949 212.291L353.715 213.617C353.507 214.787 352.857 215.489 351.882 215.489ZM356.329 216.334H357.499L358.136 212.746H360.151L361.62 216.334H362.881L361.373 212.655C362.907 212.356 363.726 211.303 363.726 209.626C363.726 208.092 363.037 207.494 361.23 207.494H357.889L356.329 216.334ZM358.318 211.68L358.877 208.56H361.009C362.192 208.56 362.556 208.846 362.556 209.717C362.556 210.965 361.815 211.68 360.411 211.68H358.318ZM333.015 235.49C334.874 235.49 336.005 234.528 336.356 232.552L336.551 231.447C336.603 231.148 336.629 230.94 336.629 230.693C336.629 229.237 335.771 228.47 334.107 228.47C332.248 228.47 331.117 229.432 330.766 231.408L330.571 232.513C330.519 232.812 330.493 233.02 330.493 233.267C330.493 234.723 331.351 235.49 333.015 235.49ZM333.08 234.489C332.131 234.489 331.65 234.06 331.65 233.163C331.65 232.955 331.676 232.747 331.715 232.526L331.897 231.486C332.131 230.16 332.82 229.471 334.042 229.471C334.991 229.471 335.472 229.9 335.472 230.797C335.472 231.005 335.446 231.213 335.407 231.434L335.225 232.474C334.991 233.8 334.302 234.489 333.08 234.489ZM337.689 235.334H338.833L339.522 231.421C339.977 230.186 340.705 229.627 341.784 229.627H342.096L342.291 228.496H341.797C340.835 228.496 340.172 228.899 339.691 229.809L339.847 228.626H338.872L337.689 235.334ZM343.688 227.417H344.936L345.157 226.143H343.909L343.688 227.417ZM342.349 235.334H343.493L344.676 228.626H343.532L342.349 235.334ZM332.196 254.49C333.08 254.49 333.873 254.191 334.575 253.463L334.458 254.334H335.433L336.2 249.992C336.239 249.758 336.252 249.524 336.252 249.355C336.252 248.133 335.537 247.47 333.925 247.47C332.313 247.47 331.286 248.133 330.922 249.667H332.04C332.209 248.874 332.872 248.458 333.834 248.458C334.692 248.458 335.095 248.783 335.095 249.511C335.095 249.641 335.082 249.823 335.056 249.979L334.991 250.343H333.314C331.416 250.343 330.207 251.162 330.207 252.709C330.207 253.918 330.961 254.49 332.196 254.49ZM332.404 253.502C331.676 253.502 331.351 253.229 331.351 252.644C331.351 251.747 332.079 251.292 333.249 251.292H334.822L334.666 252.176C334.107 253.034 333.353 253.502 332.404 253.502ZM337.436 254.334H338.58L339.269 250.421C339.724 249.186 340.452 248.627 341.531 248.627H341.843L342.038 247.496H341.544C340.582 247.496 339.919 247.899 339.438 248.809L339.594 247.626H338.619L337.436 254.334ZM343.812 254.49C344.696 254.49 345.489 254.191 346.191 253.463L346.074 254.334H347.049L347.816 249.992C347.855 249.758 347.868 249.524 347.868 249.355C347.868 248.133 347.153 247.47 345.541 247.47C343.929 247.47 342.902 248.133 342.538 249.667H343.656C343.825 248.874 344.488 248.458 345.45 248.458C346.308 248.458 346.711 248.783 346.711 249.511C346.711 249.641 346.698 249.823 346.672 249.979L346.607 250.343H344.93C343.032 250.343 341.823 251.162 341.823 252.709C341.823 253.918 342.577 254.49 343.812 254.49ZM344.02 253.502C343.292 253.502 342.967 253.229 342.967 252.644C342.967 251.747 343.695 251.292 344.865 251.292H346.438L346.282 252.176C345.723 253.034 344.969 253.502 344.02 253.502ZM352.146 254.49C354.187 254.49 355.383 253.502 355.825 251.435H354.668C354.369 252.761 353.576 253.424 352.198 253.424C351.028 253.424 350.469 252.943 350.469 251.825C350.469 251.578 350.495 251.279 350.547 250.98L350.911 248.913C351.21 247.197 352.016 246.404 353.524 246.404C354.694 246.404 355.253 246.872 355.253 247.912C355.253 248.068 355.24 248.237 355.214 248.406H356.358C356.397 248.172 356.41 247.964 356.41 247.704C356.41 246.157 355.461 245.338 353.602 245.338C351.366 245.338 350.17 246.521 349.767 248.796L349.39 250.928C349.325 251.292 349.286 251.617 349.286 251.955C349.286 253.619 350.235 254.49 352.146 254.49Z" fill="white"/>
<rect x="309.921" y="205.334" width="13" height="13" rx="6.5" fill="#115F92"/>
<rect x="309.921" y="226.334" width="13" height="13" rx="6.5" fill="#333332"/>
<rect x="309.921" y="244.334" width="13" height="13" rx="6.5" fill="#1399F1"/>
<path d="M184.589 40.9059C211.537 33.7789 241.051 43.2249 258.398 66.4824" stroke="#F8AF3E" stroke-width="10" stroke-miterlimit="10"/>
<path d="M148.016 64.4124C152.216 59.2959 157.188 54.7288 162.944 50.8151C169.752 46.1873 177.075 42.9046 184.654 40.918" stroke="#C5C5C5" stroke-width="10" stroke-miterlimit="10"/>
<path d="M132.814 119.353C129.918 99.9513 135.3 79.8413 147.99 64.3737" stroke="#E52826" stroke-width="10" stroke-miterlimit="10"/>
<path d="M133.568 123.306C133.313 122.01 133.031 120.676 132.879 119.366" stroke="#C5C5C5" stroke-width="10" stroke-miterlimit="10"/>
<path d="M144.075 148.048C138.818 140.315 135.34 131.937 133.529 123.332" stroke="#008D36" stroke-width="10" stroke-miterlimit="10"/>
<path d="M258.436 66.4556C259.054 67.2798 259.658 68.1691 260.236 69.0197C281.922 100.917 273.484 144.474 241.432 166.265C209.38 188.055 165.773 179.88 144.114 148.021" stroke="#C5C5C5" stroke-width="10" stroke-miterlimit="10"/>
<path d="M138.015 149.706L146.878 143.705C146.878 143.705 149.2 147.387 150.284 148.777L141.548 154.823C141.548 154.823 139.59 152.261 138.015 149.706Z" fill="white"/>
<path d="M143.938 145.705L148.217 142.83C148.217 142.83 150.584 146.428 151.668 147.818L147.471 150.823C147.471 150.823 145.636 148.519 143.938 145.705Z" fill="white"/>
<path d="M143.421 149.752L127.537 159.538L108.921 159.538" stroke="white" stroke-width="4.1336" stroke-miterlimit="10" stroke-linecap="round" stroke-linejoin="round"/>
<path d="M144.158 60.1777L152.435 67.2969C152.435 67.2969 149.56 70.4507 148.519 71.9691L140.152 65.0013C140.123 64.948 141.611 62.9838 144.158 60.1777Z" fill="white"/>
<path d="M149.505 64.7526L153.389 68.123C153.389 68.123 150.608 71.2606 149.527 72.7666L145.511 69.5352C145.511 69.5352 148.372 65.8403 149.505 64.7526Z" fill="white"/>
<path d="M143.421 63.752L127.421 49.752L108.921 49.752" stroke="white" stroke-width="4.1336" stroke-miterlimit="10" stroke-linecap="round" stroke-linejoin="round"/>
<path d="M55.9399 55.752H60.4679C62.8679 55.752 63.9719 54.792 63.9719 52.744C63.9719 51.304 63.4279 50.456 62.1799 50.072V50.04C63.1719 49.672 63.6039 48.904 63.6039 47.688C63.6039 45.752 62.4839 44.872 60.1479 44.872H55.9399V55.752ZM57.3799 49.544V46.184H60.0359C61.5559 46.184 62.1799 46.664 62.1799 47.88C62.1799 49.08 61.5719 49.544 60.0519 49.544H57.3799ZM57.3799 54.44V50.856H60.0839C61.8599 50.856 62.5319 51.352 62.5319 52.648C62.5319 53.912 61.8919 54.44 60.2599 54.44H57.3799ZM68.4395 55.944C69.6395 55.944 70.5675 55.48 71.2395 54.632L71.2875 55.752H72.4875V50.36C72.4875 48.312 71.4315 47.304 69.2555 47.304C67.1915 47.304 66.0715 48.216 65.9275 50.008H67.3035C67.3515 49 68.0395 48.52 69.2075 48.52C70.4875 48.52 71.0795 49.112 71.0795 50.392V50.84H69.0955C66.7755 50.84 65.6875 51.768 65.6875 53.416C65.6875 55.032 66.7435 55.944 68.4395 55.944ZM68.6475 54.728C67.6075 54.728 67.0955 54.248 67.0955 53.384C67.0955 52.456 67.7035 52.008 69.1435 52.008H71.0795V53.176C70.5835 54.184 69.7515 54.728 68.6475 54.728ZM74.9678 55.752H76.3758V50.424C76.9838 49.144 77.6718 48.6 78.5518 48.6C79.4158 48.6 79.8958 49.128 79.8958 50.232V55.752H81.3038V50.344C81.9118 49.144 82.6158 48.6 83.4798 48.6C84.3438 48.6 84.8238 49.128 84.8238 50.232V55.752H86.2318V50.12C86.2318 48.296 85.3198 47.304 83.6718 47.304C82.6158 47.304 81.7678 47.72 81.0798 48.744C80.7438 47.8 79.9598 47.304 78.8078 47.304C77.6878 47.304 76.8718 47.768 76.2158 48.792L76.1678 47.496H74.9678V55.752ZM88.9086 55.752H90.3486V50.856H95.6126V55.752H97.0526V44.872H95.6126V49.512H90.3486V44.872H88.9086V55.752ZM100.002 55.752H101.442V44.872H100.002V55.752Z" fill="white"/>
<path d="M19.987 113.526C22.595 113.526 24.003 112.422 24.003 110.406C24.003 109.046 23.363 108.134 22.131 107.702V107.67C23.171 107.27 23.699 106.454 23.699 105.27C23.699 103.366 22.339 102.262 20.003 102.262C17.667 102.262 16.291 103.366 16.291 105.27C16.291 106.454 16.819 107.27 17.843 107.67V107.702C16.611 108.118 15.971 109.046 15.971 110.406C15.971 112.422 17.379 113.526 19.987 113.526ZM19.987 107.126C18.483 107.126 17.683 106.502 17.683 105.35C17.683 104.166 18.531 103.542 19.987 103.542C21.475 103.542 22.307 104.182 22.307 105.35C22.307 106.502 21.491 107.126 19.987 107.126ZM19.987 112.246C18.259 112.246 17.379 111.59 17.379 110.326C17.379 109.062 18.259 108.406 19.987 108.406C21.715 108.406 22.595 109.062 22.595 110.326C22.595 111.59 21.715 112.246 19.987 112.246ZM29.612 113.526C32.044 113.526 33.356 112.262 33.356 109.91V105.878C33.356 103.526 32.044 102.262 29.612 102.262C27.18 102.262 25.868 103.526 25.868 105.878V109.91C25.868 112.262 27.18 113.526 29.612 113.526ZM29.612 112.246C28.044 112.246 27.276 111.446 27.276 109.814V105.974C27.276 104.342 28.044 103.542 29.612 103.542C31.18 103.542 31.948 104.342 31.948 105.974V109.814C31.948 111.446 31.18 112.246 29.612 112.246ZM37.109 113.334H38.613C38.773 109.59 40.245 106.566 43.077 103.846V102.454H35.349V103.798H41.445C38.757 106.374 37.269 109.606 37.109 113.334ZM49.406 113.526C51.326 113.526 52.446 112.342 52.446 110.086V108.326C52.446 106.07 51.326 104.886 49.406 104.886C48.302 104.886 47.454 105.286 46.782 106.166V101.654H45.374V113.334H46.574L46.622 112.022C47.326 113.062 48.206 113.526 49.406 113.526ZM49.23 112.294C48.19 112.294 47.326 111.606 46.782 110.422V107.99C47.326 106.806 48.174 106.118 49.23 106.118C50.366 106.118 51.038 106.902 51.038 108.374V110.038C51.038 111.51 50.366 112.294 49.23 112.294ZM54.6865 116.246H56.0945V112.246C56.7665 113.126 57.6145 113.526 58.7185 113.526C60.6385 113.526 61.7585 112.342 61.7585 110.086V108.326C61.7585 106.07 60.6385 104.886 58.7185 104.886C57.5185 104.886 56.6385 105.35 55.9345 106.39L55.8865 105.078H54.6865V116.246ZM58.5425 112.294C57.4865 112.294 56.6385 111.606 56.0945 110.422V107.99C56.6385 106.806 57.4865 106.118 58.5425 106.118C59.6785 106.118 60.3505 106.902 60.3505 108.374V110.038C60.3505 111.51 59.6785 112.294 58.5425 112.294Z" fill="white"/>
<path d="M170.95 108.028H173.614V103.996C174.244 104.662 175.036 104.968 176.044 104.968C178.186 104.968 179.392 103.636 179.392 101.098V98.992C179.392 96.454 178.186 95.14 176.044 95.14C174.856 95.14 173.992 95.554 173.29 96.49L173.218 95.356H170.95V108.028ZM175.432 102.808C174.586 102.808 173.992 102.322 173.614 101.368V98.722C173.992 97.786 174.586 97.3 175.414 97.3C176.278 97.3 176.728 97.804 176.728 99.01V101.098C176.728 102.322 176.278 102.808 175.432 102.808ZM181.572 104.752H184.272V101.512L185.712 99.676L188.502 104.752H191.58L187.584 97.534L191.526 92.512H188.43L184.272 97.858V92.512H181.572V104.752ZM191.455 104.752H194.191L194.965 102.286H198.817L199.591 104.752H202.453L198.349 92.512H195.559L191.455 104.752ZM195.631 100.036L196.891 95.572L198.151 100.036H195.631ZM203.843 104.752H206.399V96.508L210.845 104.752H213.419V92.512H210.863V100.234L206.705 92.512H203.843V104.752ZM215.357 100.558H221.063V98.254H215.357V100.558ZM223.003 104.752H225.703V100.234H227.161L229.591 104.752H232.669L230.023 99.982C231.553 99.532 232.201 98.38 232.201 96.382C232.201 93.646 231.013 92.512 228.007 92.512H223.003V104.752ZM225.703 97.93V94.816H227.719C229.033 94.816 229.501 95.266 229.501 96.382C229.501 97.48 229.033 97.93 227.719 97.93H225.703ZM172.736 126.968C175.778 126.968 177.308 125.564 177.308 122.702C177.308 120.056 175.994 118.634 173.564 118.634C172.628 118.634 171.836 118.85 171.188 119.354L171.35 116.798H176.75V114.512H169.136L168.686 121.568H171.008C171.458 121.118 172.052 120.83 172.826 120.83C174.014 120.83 174.644 121.496 174.644 122.774C174.644 124.052 174.014 124.718 172.718 124.718C171.602 124.718 170.936 124.214 170.882 123.332H168.326C168.344 125.744 169.892 126.968 172.736 126.968ZM183.458 126.968C186.5 126.968 188.03 125.564 188.03 122.702C188.03 120.056 186.716 118.634 184.286 118.634C183.35 118.634 182.558 118.85 181.91 119.354L182.072 116.798H187.472V114.512H179.858L179.408 121.568H181.73C182.18 121.118 182.774 120.83 183.548 120.83C184.736 120.83 185.366 121.496 185.366 122.774C185.366 124.052 184.736 124.718 183.44 124.718C182.324 124.718 181.658 124.214 181.604 123.332H179.048C179.066 125.744 180.614 126.968 183.458 126.968ZM190.527 126.752H199.041V124.466H196.125V114.512H193.587C192.885 115.61 191.877 116.06 190.167 116.096V118.166C191.265 118.148 192.417 118.094 193.461 117.788V124.466H190.527V126.752ZM200.422 126.752H209.296V124.466H203.104C203.266 123.728 203.896 123.26 205.552 122.522C208.234 121.316 209.296 120.02 209.296 117.986C209.296 115.646 207.802 114.296 204.958 114.296C202.15 114.296 200.62 115.628 200.62 118.166V118.742H203.14V118.4C203.14 117.14 203.734 116.546 204.94 116.546C206.11 116.546 206.65 117.122 206.65 118.004C206.65 119.03 206.038 119.642 204.202 120.506C201.466 121.784 200.422 123.17 200.422 125.492V126.752ZM220.851 126.968C222.993 126.968 224.199 125.654 224.199 123.116V121.01C224.199 118.472 222.993 117.14 220.851 117.14C219.843 117.14 219.051 117.446 218.421 118.112V113.612H215.757V126.752H218.025L218.097 125.618C218.799 126.554 219.663 126.968 220.851 126.968ZM220.221 124.808C219.393 124.808 218.799 124.322 218.421 123.386V120.74C218.799 119.786 219.393 119.3 220.239 119.3C221.085 119.3 221.535 119.786 221.535 121.01V123.098C221.535 124.304 221.085 124.808 220.221 124.808ZM226.18 130.028H228.844V125.996C229.474 126.662 230.266 126.968 231.274 126.968C233.416 126.968 234.622 125.636 234.622 123.098V120.992C234.622 118.454 233.416 117.14 231.274 117.14C230.086 117.14 229.222 117.554 228.52 118.49L228.448 117.356H226.18V130.028ZM230.662 124.808C229.816 124.808 229.222 124.322 228.844 123.368V120.722C229.222 119.786 229.816 119.3 230.644 119.3C231.508 119.3 231.958 119.804 231.958 121.01V123.098C231.958 124.322 231.508 124.808 230.662 124.808Z" fill="white"/>
<path d="M57.6274 163.752H59.0674V158.856H64.3314V163.752H65.7714V152.872H64.3314V157.512H59.0674V152.872H57.6274V163.752ZM68.5131 154.008H70.0491V152.44H68.5131V154.008ZM68.5771 163.752H69.9851V155.496H68.5771V163.752ZM72.6396 163.752H74.0476V158.392C74.6396 157.176 75.3916 156.6 76.3676 156.6C77.3436 156.6 77.8236 157.16 77.8236 158.456V163.752H79.2316V158.328C79.2316 156.344 78.3676 155.304 76.6396 155.304C75.4876 155.304 74.6076 155.768 73.8876 156.792L73.8396 155.496H72.6396V163.752ZM84.3886 163.944C85.5886 163.944 86.4686 163.48 87.1726 162.44L87.2206 163.752H88.4206V152.072H87.0126V156.584C86.3406 155.704 85.4926 155.304 84.3886 155.304C82.4686 155.304 81.3486 156.488 81.3486 158.744V160.504C81.3486 162.76 82.4686 163.944 84.3886 163.944ZM84.5646 162.712C83.4286 162.712 82.7566 161.928 82.7566 160.456V158.792C82.7566 157.32 83.4286 156.536 84.5646 156.536C85.6206 156.536 86.4686 157.224 87.0126 158.408V160.84C86.4686 162.024 85.6206 162.712 84.5646 162.712ZM91.2211 163.752H92.6611V152.872H91.2211V163.752ZM95.6118 163.752H97.0518V152.872H95.6118V163.752ZM100.002 163.752H101.442V152.872H100.002V163.752Z" fill="white"/>
<path fill-rule="evenodd" clip-rule="evenodd" d="M37.921 49.752C37.3687 49.752 36.921 50.1997 36.921 50.752V52.6984H38.921V51.752H39.8496V49.752H37.921ZM46.5996 49.752H42.7424V51.752H46.5996V49.752ZM51.421 49.752H49.4924V51.752H51.421V49.752ZM36.921 55.618V59.5109H38.921V55.618H36.921ZM36.921 62.4305V66.3234H38.921V62.4305H36.921ZM36.921 69.243V73.1359H38.921V69.243H36.921ZM36.921 76.0555V79.9484H38.921V76.0555H36.921ZM36.921 82.868V86.7609H38.921V82.868H36.921ZM36.921 130.556V134.448H38.921V130.556H36.921ZM36.921 137.368V141.261H38.921V137.368H36.921ZM36.921 144.181V148.073H38.921V144.181H36.921ZM36.921 150.993V154.886H38.921V150.993H36.921ZM36.921 157.806V159.752C36.921 160.304 37.3687 160.752 37.921 160.752H39.8496V158.752H38.921V157.806H36.921ZM42.7424 160.752H46.5996V158.752H42.7424V160.752ZM49.4924 160.752H51.421V158.752H49.4924V160.752Z" fill="#FAAC48"/>
<path d="M316.114 135.557C307.394 114.703 308.976 89.9025 322.469 69.5593" stroke="#333332" stroke-width="10" stroke-miterlimit="10"/>
<path d="M345.719 169.078C344.42 168.329 343.108 167.516 341.823 166.663C329.901 158.755 321.228 147.81 316.114 135.557" stroke="#C5C5C5" stroke-width="10" stroke-miterlimit="10"/>
<path d="M425.876 161.4C403.809 180.29 371.642 183.958 345.719 169.078" stroke="#115F92" stroke-width="10" stroke-miterlimit="10"/>
<path d="M425.208 53.8876C452.57 76.3257 458.944 116.45 438.821 146.789C435.103 152.394 430.736 157.287 425.85 161.44" stroke="#C5C5C5" stroke-width="10" stroke-miterlimit="10"/>
<path d="M352.71 44.0127C373.785 34.7375 398.948 35.9623 419.48 49.581C421.506 50.9248 423.376 52.3344 425.233 53.8484" stroke="#1399F1" stroke-width="10" stroke-miterlimit="10"/>
<path d="M322.47 69.5596C330.217 57.8789 340.808 49.2696 352.71 44.013" stroke="#C5C5C5" stroke-width="10" stroke-miterlimit="10"/>
<path d="M437.026 56.2986L429.568 63.9762C429.568 63.9762 426.545 60.843 425.201 59.7023L432.525 52.0063C432.525 52.0063 434.964 54.1169 437.026 56.2986Z" fill="white"/>
<path d="M432.04 61.4193L428.434 65.1043C428.434 65.1043 425.385 62.0631 424.041 60.9224L427.539 57.1271C427.539 57.1271 429.805 59.0089 432.04 61.4193Z" fill="white"/>
<path d="M475.971 45.334H443.471L431.471 57.334" stroke="white" stroke-width="4.1336" stroke-miterlimit="10" stroke-linecap="round" stroke-linejoin="round"/>
<path d="M449.142 140.278L439.12 135.948C439.12 135.948 440.925 132.081 441.466 130.322L451.529 134.48C451.572 134.523 450.737 136.841 449.142 140.278Z" fill="white"/>
<path d="M442.675 137.505L437.963 135.445C437.963 135.445 439.683 131.621 440.267 129.861L445.062 131.75C445.062 131.75 443.432 136.129 442.675 137.505Z" fill="white"/>
<path d="M360.031 107.61H362.695V103.578C363.325 104.244 364.117 104.55 365.125 104.55C367.267 104.55 368.473 103.218 368.473 100.68V98.574C368.473 96.036 367.267 94.722 365.125 94.722C363.937 94.722 363.073 95.136 362.371 96.072L362.299 94.938H360.031V107.61ZM364.513 102.39C363.667 102.39 363.073 101.904 362.695 100.95V98.304C363.073 97.368 363.667 96.882 364.495 96.882C365.359 96.882 365.809 97.386 365.809 98.592V100.68C365.809 101.904 365.359 102.39 364.513 102.39ZM369.339 104.334H372.075L372.849 101.868H376.701L377.475 104.334H380.337L376.233 92.094H373.443L369.339 104.334ZM373.515 99.618L374.775 95.154L376.035 99.618H373.515ZM381.727 104.334H384.427V99.816H385.885L388.315 104.334H391.393L388.747 99.564C390.277 99.114 390.925 97.962 390.925 95.964C390.925 93.228 389.737 92.094 386.731 92.094H381.727V104.334ZM384.427 97.512V94.398H386.443C387.757 94.398 388.225 94.848 388.225 95.964C388.225 97.062 387.757 97.512 386.443 97.512H384.427ZM391.804 104.334H394.54L395.314 101.868H399.166L399.94 104.334H402.802L398.698 92.094H395.908L391.804 104.334ZM395.98 99.618L397.24 95.154L398.5 99.618H395.98ZM353.147 126.334H355.811V123.832H357.071V121.654H355.811V114.094H352.967L347.441 121.492V123.832H353.147V126.334ZM349.997 121.654L353.147 117.28V121.654H349.997ZM362.916 126.55C365.994 126.55 367.596 125.29 367.596 122.95C367.596 121.492 366.966 120.484 365.724 119.98V119.944C366.786 119.458 367.308 118.576 367.308 117.298C367.308 115.102 365.742 113.878 362.934 113.878C360.108 113.878 358.542 115.102 358.542 117.316C358.542 118.576 359.064 119.458 360.108 119.944V119.98C358.866 120.484 358.236 121.492 358.236 122.95C358.236 125.29 359.838 126.55 362.916 126.55ZM362.916 119.026C361.8 119.026 361.152 118.522 361.152 117.532C361.152 116.56 361.764 116.092 362.916 116.092C364.068 116.092 364.68 116.56 364.68 117.532C364.68 118.522 364.032 119.026 362.916 119.026ZM362.898 124.336C361.53 124.336 360.882 123.868 360.882 122.824C360.882 121.744 361.584 121.24 362.898 121.24C364.23 121.24 364.932 121.744 364.932 122.824C364.932 123.868 364.266 124.336 362.898 124.336ZM370.723 126.334H373.567C373.747 122.32 375.133 119.386 378.103 116.506V114.094H369.103V116.434H375.349C372.469 118.954 370.903 122.248 370.723 126.334ZM379.861 126.334H388.735V124.048H382.543C382.705 123.31 383.335 122.842 384.991 122.104C387.673 120.898 388.735 119.602 388.735 117.568C388.735 115.228 387.241 113.878 384.397 113.878C381.589 113.878 380.059 115.21 380.059 117.748V118.324H382.579V117.982C382.579 116.722 383.173 116.128 384.379 116.128C385.549 116.128 386.089 116.704 386.089 117.586C386.089 118.612 385.477 119.224 383.641 120.088C380.905 121.366 379.861 122.752 379.861 125.074V126.334ZM400.29 126.55C402.432 126.55 403.638 125.236 403.638 122.698V120.592C403.638 118.054 402.432 116.722 400.29 116.722C399.282 116.722 398.49 117.028 397.86 117.694V113.194H395.196V126.334H397.464L397.536 125.2C398.238 126.136 399.102 126.55 400.29 126.55ZM399.66 124.39C398.832 124.39 398.238 123.904 397.86 122.968V120.322C398.238 119.368 398.832 118.882 399.678 118.882C400.524 118.882 400.974 119.368 400.974 120.592V122.68C400.974 123.886 400.524 124.39 399.66 124.39ZM405.62 129.61H408.284V125.578C408.914 126.244 409.706 126.55 410.714 126.55C412.856 126.55 414.062 125.218 414.062 122.68V120.574C414.062 118.036 412.856 116.722 410.714 116.722C409.526 116.722 408.662 117.136 407.96 118.072L407.888 116.938H405.62V129.61ZM410.102 124.39C409.256 124.39 408.662 123.904 408.284 122.95V120.304C408.662 119.368 409.256 118.882 410.084 118.882C410.948 118.882 411.398 119.386 411.398 120.592V122.68C411.398 123.904 410.948 124.39 410.102 124.39Z" fill="white"/>
<path d="M529.335 100.526C531.799 100.526 533.159 99.486 533.159 97.358C533.159 95.982 532.599 95.102 531.415 94.702V94.67C532.391 94.254 532.887 93.438 532.887 92.254C532.887 90.334 531.591 89.262 529.351 89.262C527.015 89.262 525.671 90.414 525.671 92.414V92.654H527.031V92.51C527.031 91.246 527.831 90.542 529.303 90.542C530.711 90.542 531.495 91.182 531.495 92.382C531.495 93.55 530.743 94.142 529.319 94.142H528.103V95.422H529.303C530.983 95.422 531.751 96.062 531.751 97.31C531.751 98.638 530.887 99.246 529.335 99.246C527.703 99.246 526.887 98.574 526.887 97.262V97.054H525.511V97.454C525.511 99.454 526.839 100.526 529.335 100.526ZM536.784 100.334H538.288C538.448 96.59 539.92 93.566 542.752 90.846V89.454H535.024V90.798H541.12C538.432 93.374 536.944 96.606 536.784 100.334ZM546.409 100.334H547.913C548.073 96.59 549.545 93.566 552.377 90.846V89.454H544.649V90.798H550.745C548.057 93.374 546.569 96.606 546.409 100.334ZM558.706 100.526C560.626 100.526 561.746 99.342 561.746 97.086V95.326C561.746 93.07 560.626 91.886 558.706 91.886C557.602 91.886 556.754 92.286 556.082 93.166V88.654H554.674V100.334H555.874L555.922 99.022C556.626 100.062 557.506 100.526 558.706 100.526ZM558.53 99.294C557.49 99.294 556.626 98.606 556.082 97.422V94.99C556.626 93.806 557.474 93.118 558.53 93.118C559.666 93.118 560.338 93.902 560.338 95.374V97.038C560.338 98.51 559.666 99.294 558.53 99.294ZM563.986 103.246H565.394V99.246C566.066 100.126 566.914 100.526 568.018 100.526C569.938 100.526 571.058 99.342 571.058 97.086V95.326C571.058 93.07 569.938 91.886 568.018 91.886C566.818 91.886 565.938 92.35 565.234 93.39L565.186 92.078H563.986V103.246ZM567.842 99.294C566.786 99.294 565.938 98.606 565.394 97.422V94.99C565.938 93.806 566.786 93.118 567.842 93.118C568.978 93.118 569.65 93.902 569.65 95.374V97.038C569.65 98.51 568.978 99.294 567.842 99.294Z" fill="white"/>
<path d="M483.943 50.334H488.471C490.871 50.334 491.975 49.374 491.975 47.326C491.975 45.886 491.431 45.038 490.183 44.654V44.622C491.175 44.254 491.607 43.486 491.607 42.27C491.607 40.334 490.487 39.454 488.151 39.454H483.943V50.334ZM485.383 44.126V40.766H488.039C489.559 40.766 490.183 41.246 490.183 42.462C490.183 43.662 489.575 44.126 488.055 44.126H485.383ZM485.383 49.022V45.438H488.087C489.863 45.438 490.535 45.934 490.535 47.23C490.535 48.494 489.895 49.022 488.263 49.022H485.383ZM496.442 50.526C497.642 50.526 498.57 50.062 499.242 49.214L499.29 50.334H500.49V44.942C500.49 42.894 499.434 41.886 497.258 41.886C495.194 41.886 494.074 42.798 493.93 44.59H495.306C495.354 43.582 496.042 43.102 497.21 43.102C498.49 43.102 499.082 43.694 499.082 44.974V45.422H497.098C494.778 45.422 493.69 46.35 493.69 47.998C493.69 49.614 494.746 50.526 496.442 50.526ZM496.65 49.31C495.61 49.31 495.098 48.83 495.098 47.966C495.098 47.038 495.706 46.59 497.146 46.59H499.082V47.758C498.586 48.766 497.754 49.31 496.65 49.31ZM502.97 50.334H504.378V45.006C504.986 43.726 505.674 43.182 506.554 43.182C507.418 43.182 507.898 43.71 507.898 44.814V50.334H509.306V44.926C509.914 43.726 510.618 43.182 511.482 43.182C512.346 43.182 512.826 43.71 512.826 44.814V50.334H514.234V44.702C514.234 42.878 513.322 41.886 511.674 41.886C510.618 41.886 509.77 42.302 509.082 43.326C508.746 42.382 507.962 41.886 506.81 41.886C505.69 41.886 504.874 42.35 504.218 43.374L504.17 42.078H502.97V50.334ZM516.911 50.334H518.351V45.438H523.615V50.334H525.055V39.454H523.615V44.094H518.351V39.454H516.911V50.334ZM528.005 50.334H529.445V39.454H528.005V50.334Z" fill="white"/>
<path d="M483.943 147.334H485.383V142.438H490.647V147.334H492.087V136.454H490.647V141.094H485.383V136.454H483.943V147.334ZM494.828 137.59H496.364V136.022H494.828V137.59ZM494.892 147.334H496.3V139.078H494.892V147.334ZM498.955 147.334H500.363V141.974C500.955 140.758 501.707 140.182 502.683 140.182C503.659 140.182 504.139 140.742 504.139 142.038V147.334H505.547V141.91C505.547 139.926 504.683 138.886 502.955 138.886C501.803 138.886 500.923 139.35 500.203 140.374L500.155 139.078H498.955V147.334ZM510.704 147.526C511.904 147.526 512.784 147.062 513.488 146.022L513.536 147.334H514.736V135.654H513.328V140.166C512.656 139.286 511.808 138.886 510.704 138.886C508.784 138.886 507.664 140.07 507.664 142.326V144.086C507.664 146.342 508.784 147.526 510.704 147.526ZM510.88 146.294C509.744 146.294 509.072 145.51 509.072 144.038V142.374C509.072 140.902 509.744 140.118 510.88 140.118C511.936 140.118 512.784 140.806 513.328 141.99V144.422C512.784 145.606 511.936 146.294 510.88 146.294ZM517.536 147.334H518.976V136.454H517.536V147.334ZM521.927 147.334H523.367V136.454H521.927V147.334ZM526.318 147.334H527.758V136.454H526.318V147.334Z" fill="white"/>
<path fill-rule="evenodd" clip-rule="evenodd" d="M534.471 45.334H536.399V43.334H534.471V45.334ZM539.292 45.334H543.149V43.334H539.292V45.334ZM546.042 45.334H546.971V46.3367H548.971V44.334C548.971 43.7817 548.523 43.334 547.971 43.334H546.042V45.334ZM546.971 49.3409V53.3464H548.971V49.3409H546.971ZM546.971 56.3505V60.356H548.971V56.3505H546.971ZM546.971 63.3601V67.3656H548.971V63.3601H546.971ZM546.971 70.3697V74.3752H548.971V70.3697H546.971ZM546.971 113.1V116.433H548.971V113.1H546.971ZM546.971 119.437V123.443H548.971V119.437H546.971ZM546.971 126.447V130.452H548.971V126.447H546.971ZM546.971 133.456V137.462H548.971V133.456H546.971ZM546.971 140.466V141.469H546.042V143.469H547.971C548.523 143.469 548.971 143.021 548.971 142.469V140.466H546.971ZM536.399 141.469H534.471V143.469H536.399V141.469ZM543.149 141.469H539.292V143.469H543.149V141.469Z" fill="#FAAC48"/>
<path d="M444.971 135.334L463.471 142.334H476.971" stroke="white" stroke-width="4.13" stroke-linecap="round"/>
</svg>
