<svg width="592" height="985" viewBox="0 0 592 985" fill="none" xmlns="http://www.w3.org/2000/svg">
<rect x="0.185059" y="0.453125" width="591" height="984" rx="5" fill="url(#paint0_linear)"/>
<path d="M22.8472 32.8555H26.0405C26.8413 32.8424 27.4435 32.5951 27.8472 32.1133C28.2313 31.6445 28.4233 31.1237 28.4233 30.5508C28.4233 30.0755 28.3452 29.6751 28.189 29.3496C28.0262 29.0566 27.7983 28.8255 27.5054 28.6562C27.0627 28.3763 26.5483 28.2428 25.9624 28.2559H22.8472V32.8555ZM20.689 26.2148H25.8452C26.4051 26.2148 26.9455 26.2669 27.4663 26.3711C27.9871 26.5078 28.5145 26.7878 29.0483 27.2109C29.4976 27.5299 29.8621 27.9857 30.1421 28.5781C30.4351 29.151 30.5815 29.8281 30.5815 30.6094C30.5815 31.6641 30.2104 32.6243 29.4683 33.4902C28.7065 34.4017 27.5933 34.8704 26.1284 34.8965H22.8472V40.4531H20.689V26.2148ZM32.3589 30.3164H34.3999V31.3906H34.439C35.1095 30.5898 35.9884 30.1895 37.0757 30.1895C37.8895 30.2025 38.5991 30.4629 39.2046 30.9707L37.7202 32.7383C37.2905 32.3997 36.8446 32.2305 36.3823 32.2305C35.8615 32.2305 35.4155 32.3997 35.0444 32.7383C34.6278 33.0703 34.4129 33.6074 34.3999 34.3496V40.4531H32.3589V30.3164ZM41.3237 36.1562C41.3237 36.9701 41.5581 37.5885 42.0269 38.0117C42.4631 38.4414 43.036 38.6562 43.7456 38.6562C44.5724 38.6562 45.3114 38.3275 45.9624 37.6699L47.437 38.9297C46.4019 40.0365 45.1844 40.5833 43.7847 40.5703C43.2508 40.5703 42.73 40.4922 42.2222 40.3359C41.9683 40.2513 41.7209 40.1374 41.48 39.9941C41.2261 39.8704 40.9884 39.7174 40.7671 39.5352C40.3374 39.1576 39.9891 38.6302 39.7222 37.9531C39.4292 37.3021 39.2827 36.4557 39.2827 35.4141C39.2827 34.4115 39.4097 33.5781 39.6636 32.9141C39.9175 32.237 40.243 31.7031 40.6401 31.3125C41.0438 30.9154 41.4963 30.6289 41.9976 30.4531C42.4924 30.2773 42.9806 30.1895 43.4624 30.1895C44.6213 30.2025 45.6011 30.5833 46.4019 31.332C47.2157 32.0938 47.6291 33.1419 47.6421 34.4766V36.1562H41.3237ZM45.6011 34.4766C45.575 33.6888 45.3634 33.0931 44.9663 32.6895C44.5757 32.3053 44.0744 32.1133 43.4624 32.1133C42.8504 32.1133 42.3491 32.3053 41.9585 32.6895C41.5744 33.0931 41.3628 33.6888 41.3237 34.4766H45.6011ZM55.8452 39.3887C55.1746 40.1504 54.299 40.5443 53.2183 40.5703C52.6063 40.5573 52.0822 40.4303 51.646 40.1895C51.1903 39.9551 50.8094 39.6426 50.5034 39.252C50.2235 38.9329 50.0379 38.5 49.9468 37.9531C49.8361 37.4323 49.7808 36.5729 49.7808 35.375C49.7808 34.1576 49.8361 33.2917 49.9468 32.7773C50.0379 32.2565 50.2235 31.8366 50.5034 31.5176C51.0763 30.6647 51.9813 30.222 53.2183 30.1895C53.7391 30.1895 54.2209 30.2969 54.6636 30.5117C55.0737 30.7396 55.4676 31.0326 55.8452 31.3906V26.2148H57.8862V40.4531H55.8452V39.3887ZM53.8433 32.2305C53.3615 32.2305 52.9937 32.3118 52.7397 32.4746C52.4598 32.6504 52.2547 32.8913 52.1245 33.1973C52.0008 33.5033 51.9194 33.8353 51.8804 34.1934C51.8413 34.5775 51.8218 34.9714 51.8218 35.375C51.8218 35.7591 51.8413 36.1335 51.8804 36.498C51.9194 36.8822 52.0008 37.2272 52.1245 37.5332C52.2547 37.8262 52.4598 38.0671 52.7397 38.2559C52.9937 38.4382 53.3615 38.5293 53.8433 38.5293C54.325 38.5293 54.7059 38.4316 54.9858 38.2363C55.2658 38.0475 55.4578 37.8001 55.562 37.4941C55.6922 37.1882 55.7801 36.8464 55.8257 36.4688C55.8387 36.0977 55.8452 35.7331 55.8452 35.375C55.8452 34.9844 55.8387 34.61 55.8257 34.252C55.7801 33.8939 55.6922 33.5618 55.562 33.2559C55.4578 32.9499 55.2658 32.7025 54.9858 32.5137C54.7059 32.3249 54.325 32.2305 53.8433 32.2305ZM60.23 30.3164H62.271V40.4531H60.23V30.3164ZM60.23 26.2148H62.271V28.2559H60.23V26.2148ZM72.437 38.8125C71.9943 39.3203 71.4735 39.7337 70.8745 40.0527C70.2756 40.3848 69.5822 40.5573 68.7944 40.5703C67.5965 40.5703 66.5451 40.1634 65.6401 39.3496C64.7026 38.5358 64.2209 37.2174 64.1948 35.3945C64.2209 33.5521 64.7026 32.2174 65.6401 31.3906C66.5451 30.5768 67.5965 30.1764 68.7944 30.1895C69.5822 30.2025 70.2756 30.3652 70.8745 30.6777C71.4735 30.9967 71.9943 31.4232 72.437 31.957L70.9331 33.2949C70.4188 32.6113 69.7319 32.2565 68.8726 32.2305C67.1408 32.2044 66.2619 33.2591 66.2358 35.3945C66.2619 37.5169 67.1408 38.5618 68.8726 38.5293C69.7319 38.5163 70.4188 38.1647 70.9331 37.4746L72.437 38.8125ZM73.98 27.2305H76.021V30.3164H77.5054V31.8691H76.021V37.7773C76.008 38.2917 76.2489 38.5423 76.7437 38.5293H77.5054V40.4531H76.4409C75.7248 40.4531 75.1388 40.2318 74.6831 39.7891C74.2144 39.3659 73.98 38.7539 73.98 37.9531V31.8691H72.9644V30.3164H73.98V27.2305ZM80.9722 36.1562C80.9722 36.9701 81.2065 37.5885 81.6753 38.0117C82.1115 38.4414 82.6844 38.6562 83.394 38.6562C84.2209 38.6562 84.9598 38.3275 85.6108 37.6699L87.0854 38.9297C86.0503 40.0365 84.8328 40.5833 83.4331 40.5703C82.8993 40.5703 82.3784 40.4922 81.8706 40.3359C81.6167 40.2513 81.3693 40.1374 81.1284 39.9941C80.8745 39.8704 80.6369 39.7174 80.4155 39.5352C79.9858 39.1576 79.6375 38.6302 79.3706 37.9531C79.0776 37.3021 78.9312 36.4557 78.9312 35.4141C78.9312 34.4115 79.0581 33.5781 79.312 32.9141C79.5659 32.237 79.8914 31.7031 80.2886 31.3125C80.6922 30.9154 81.1447 30.6289 81.646 30.4531C82.1408 30.2773 82.6291 30.1895 83.1108 30.1895C84.2697 30.2025 85.2495 30.5833 86.0503 31.332C86.8641 32.0938 87.2775 33.1419 87.2905 34.4766V36.1562H80.9722ZM85.2495 34.4766C85.2235 33.6888 85.0119 33.0931 84.6147 32.6895C84.2241 32.3053 83.7228 32.1133 83.1108 32.1133C82.4989 32.1133 81.9976 32.3053 81.6069 32.6895C81.2228 33.0931 81.0112 33.6888 80.9722 34.4766H85.2495ZM95.4937 39.3887C94.8231 40.1504 93.9474 40.5443 92.8667 40.5703C92.2547 40.5573 91.7306 40.4303 91.2944 40.1895C90.8387 39.9551 90.4578 39.6426 90.1519 39.252C89.8719 38.9329 89.6864 38.5 89.5952 37.9531C89.4845 37.4323 89.4292 36.5729 89.4292 35.375C89.4292 34.1576 89.4845 33.2917 89.5952 32.7773C89.6864 32.2565 89.8719 31.8366 90.1519 31.5176C90.7248 30.6647 91.6297 30.222 92.8667 30.1895C93.3875 30.1895 93.8693 30.2969 94.312 30.5117C94.7222 30.7396 95.116 31.0326 95.4937 31.3906V26.2148H97.5347V40.4531H95.4937V39.3887ZM93.4917 32.2305C93.0099 32.2305 92.6421 32.3118 92.3882 32.4746C92.1082 32.6504 91.9032 32.8913 91.7729 33.1973C91.6493 33.5033 91.5679 33.8353 91.5288 34.1934C91.4897 34.5775 91.4702 34.9714 91.4702 35.375C91.4702 35.7591 91.4897 36.1335 91.5288 36.498C91.5679 36.8822 91.6493 37.2272 91.7729 37.5332C91.9032 37.8262 92.1082 38.0671 92.3882 38.2559C92.6421 38.4382 93.0099 38.5293 93.4917 38.5293C93.9735 38.5293 94.3543 38.4316 94.6343 38.2363C94.9142 38.0475 95.1063 37.8001 95.2104 37.4941C95.3407 37.1882 95.4285 36.8464 95.4741 36.4688C95.4871 36.0977 95.4937 35.7331 95.4937 35.375C95.4937 34.9844 95.4871 34.61 95.4741 34.252C95.4285 33.8939 95.3407 33.5618 95.2104 33.2559C95.1063 32.9499 94.9142 32.7025 94.6343 32.5137C94.3543 32.3249 93.9735 32.2305 93.4917 32.2305ZM104.625 30.3164H106.666V31.3906H106.705C107.375 30.5898 108.254 30.1895 109.341 30.1895C110.155 30.2025 110.865 30.4629 111.47 30.9707L109.986 32.7383C109.556 32.3997 109.11 32.2305 108.648 32.2305C108.127 32.2305 107.681 32.3997 107.31 32.7383C106.893 33.0703 106.679 33.6074 106.666 34.3496V40.4531H104.625V30.3164ZM113.589 36.1562C113.589 36.9701 113.824 37.5885 114.292 38.0117C114.729 38.4414 115.302 38.6562 116.011 38.6562C116.838 38.6562 117.577 38.3275 118.228 37.6699L119.703 38.9297C118.667 40.0365 117.45 40.5833 116.05 40.5703C115.516 40.5703 114.996 40.4922 114.488 40.3359C114.234 40.2513 113.986 40.1374 113.746 39.9941C113.492 39.8704 113.254 39.7174 113.033 39.5352C112.603 39.1576 112.255 38.6302 111.988 37.9531C111.695 37.3021 111.548 36.4557 111.548 35.4141C111.548 34.4115 111.675 33.5781 111.929 32.9141C112.183 32.237 112.509 31.7031 112.906 31.3125C113.309 30.9154 113.762 30.6289 114.263 30.4531C114.758 30.2773 115.246 30.1895 115.728 30.1895C116.887 30.2025 117.867 30.5833 118.667 31.332C119.481 32.0938 119.895 33.1419 119.908 34.4766V36.1562H113.589ZM117.867 34.4766C117.841 33.6888 117.629 33.0931 117.232 32.6895C116.841 32.3053 116.34 32.1133 115.728 32.1133C115.116 32.1133 114.615 32.3053 114.224 32.6895C113.84 33.0931 113.628 33.6888 113.589 34.4766H117.867ZM122.349 37.3574C123.176 38.2233 124.244 38.6562 125.552 38.6562C126.138 38.6562 126.617 38.5423 126.988 38.3145C127.359 38.0866 127.544 37.7676 127.544 37.3574C127.544 36.9928 127.434 36.7389 127.212 36.5957C126.985 36.446 126.682 36.3646 126.304 36.3516L124.507 36.1953C123.654 36.1172 122.961 35.8307 122.427 35.3359C121.88 34.8542 121.6 34.1803 121.587 33.3145C121.6 32.2728 121.968 31.4915 122.691 30.9707C123.394 30.4499 124.286 30.1895 125.367 30.1895C125.835 30.1895 126.255 30.2188 126.626 30.2773C126.998 30.3424 127.346 30.4336 127.671 30.5508C128.296 30.8047 128.856 31.1465 129.351 31.5762L128.091 33.0508C127.701 32.7708 127.287 32.5397 126.851 32.3574C126.421 32.1947 125.927 32.1133 125.367 32.1133C124.729 32.1133 124.283 32.2272 124.029 32.4551C123.762 32.6829 123.628 32.9759 123.628 33.334C123.615 33.5618 123.716 33.7604 123.931 33.9297C124.126 34.1185 124.472 34.2389 124.966 34.291L126.646 34.418C127.701 34.4961 128.462 34.8151 128.931 35.375C129.367 35.9219 129.585 36.6152 129.585 37.4551C129.572 38.4382 129.172 39.1966 128.384 39.7305C127.603 40.2773 126.604 40.5573 125.386 40.5703C123.733 40.5703 122.245 39.9648 120.923 38.7539L122.349 37.3574ZM131.656 30.3164H133.697V36.3516C133.697 37.0352 133.889 37.569 134.273 37.9531C134.651 38.3372 135.132 38.5293 135.718 38.5293C136.304 38.5293 136.783 38.3372 137.154 37.9531C137.531 37.569 137.72 37.0352 137.72 36.3516V30.3164H139.761V40.4531H137.72V39.3691H137.681C137.011 40.1699 136.135 40.5703 135.054 40.5703C134.214 40.5573 133.456 40.2513 132.779 39.6523C132.043 39.0664 131.669 38.2005 131.656 37.0547V30.3164ZM142.398 26.2148H144.439V37.8359C144.439 38.2982 144.693 38.5293 145.201 38.5293H145.904V40.4531H144.996C144.253 40.4531 143.641 40.2676 143.16 39.8965C142.652 39.5189 142.398 38.8841 142.398 37.9922V26.2148ZM147.671 27.2305H149.712V30.3164H151.197V31.8691H149.712V37.7773C149.699 38.2917 149.94 38.5423 150.435 38.5293H151.197V40.4531H150.132C149.416 40.4531 148.83 40.2318 148.375 39.7891C147.906 39.3659 147.671 38.7539 147.671 37.9531V31.8691H146.656V30.3164H147.671V27.2305ZM153.423 37.3574C154.25 38.2233 155.318 38.6562 156.626 38.6562C157.212 38.6562 157.691 38.5423 158.062 38.3145C158.433 38.0866 158.619 37.7676 158.619 37.3574C158.619 36.9928 158.508 36.7389 158.287 36.5957C158.059 36.446 157.756 36.3646 157.378 36.3516L155.582 36.1953C154.729 36.1172 154.035 35.8307 153.501 35.3359C152.955 34.8542 152.675 34.1803 152.662 33.3145C152.675 32.2728 153.042 31.4915 153.765 30.9707C154.468 30.4499 155.36 30.1895 156.441 30.1895C156.91 30.1895 157.33 30.2188 157.701 30.2773C158.072 30.3424 158.42 30.4336 158.746 30.5508C159.371 30.8047 159.931 31.1465 160.425 31.5762L159.166 33.0508C158.775 32.7708 158.361 32.5397 157.925 32.3574C157.496 32.1947 157.001 32.1133 156.441 32.1133C155.803 32.1133 155.357 32.2272 155.103 32.4551C154.836 32.6829 154.703 32.9759 154.703 33.334C154.69 33.5618 154.791 33.7604 155.005 33.9297C155.201 34.1185 155.546 34.2389 156.041 34.291L157.72 34.418C158.775 34.4961 159.537 34.8151 160.005 35.375C160.442 35.9219 160.66 36.6152 160.66 37.4551C160.647 38.4382 160.246 39.1966 159.458 39.7305C158.677 40.2773 157.678 40.5573 156.46 40.5703C154.807 40.5703 153.319 39.9648 151.998 38.7539L153.423 37.3574Z" fill="white"/>
<path d="M572.185 63.4531H19.1851V478.453H572.185V63.4531Z" fill="white"/>
<path opacity="0.4" d="M551.118 77.4531H42.3584V461.453H551.118V77.4531Z" fill="#7CB4D0"/>
<path opacity="0.1" d="M551.118 77.4531H42.3584V461.453H551.118V77.4531Z" fill="#BCDEEA"/>
<path opacity="0.5" d="M42.3584 76.7528L19.1851 63.4531V478.453L42.3584 461.409V76.7528Z" fill="#7CB4D0"/>
<path opacity="0.5" d="M551.118 461.409L572.185 478.453V63.4531L551.118 76.7528V461.409Z" fill="#7CB4D0"/>
<path opacity="0.4" d="M572.185 63.4531H19.1851V478.453H572.185V63.4531Z" fill="#7CB4D0"/>
<path opacity="0.8" d="M550.883 461.453H42.5958L19.1851 478.453H572.185L550.883 461.453Z" fill="#7CB4D0"/>
<rect x="52.8917" y="120.453" width="64.2533" height="13.0474" fill="#8CBDD6"/>
<rect x="52.8917" y="142.471" width="64.2533" height="13.0474" fill="#8CBDD6"/>
<rect x="52.8917" y="165.304" width="64.2533" height="13.0474" fill="#8CBDD6"/>
<rect x="52.8917" y="188.137" width="64.2533" height="13.0474" fill="#8CBDD6"/>
<rect x="52.8917" y="210.97" width="64.2533" height="13.0474" fill="#8CBDD6"/>
<rect x="52.8917" y="253.373" width="64.2533" height="13.0474" fill="#8CBDD6"/>
<rect x="52.8917" y="300.67" width="64.2533" height="13.0474" fill="#8CBDD6"/>
<rect x="52.8917" y="332.473" width="64.2533" height="13.0474" fill="#8CBDD6"/>
<rect x="52.8917" y="382.216" width="64.2533" height="13.0474" fill="#8CBDD6"/>
<rect x="52.8917" y="434.405" width="64.2533" height="13.0474" fill="#8CBDD6"/>
<path d="M74.9129 131.269H80.3989V130.19H78.2279V122.429H77.1359C76.5509 123.183 75.7709 123.521 74.6529 123.56V124.574C75.5239 124.548 76.3559 124.444 77.0839 123.937V130.19H74.9129V131.269ZM85.0213 131.425C87.1403 131.425 88.2843 130.528 88.2843 128.89C88.2843 127.785 87.7643 127.044 86.7633 126.693V126.667C87.6083 126.342 88.0373 125.679 88.0373 124.717C88.0373 123.17 86.9323 122.273 85.0343 122.273C83.1363 122.273 82.0183 123.17 82.0183 124.717C82.0183 125.679 82.4473 126.342 83.2793 126.667V126.693C82.2783 127.031 81.7583 127.785 81.7583 128.89C81.7583 130.528 82.9023 131.425 85.0213 131.425ZM85.0213 126.225C83.7993 126.225 83.1493 125.718 83.1493 124.782C83.1493 123.82 83.8383 123.313 85.0213 123.313C86.2303 123.313 86.9063 123.833 86.9063 124.782C86.9063 125.718 86.2433 126.225 85.0213 126.225ZM85.0213 130.385C83.6173 130.385 82.9023 129.852 82.9023 128.825C82.9023 127.798 83.6173 127.265 85.0213 127.265C86.4253 127.265 87.1403 127.798 87.1403 128.825C87.1403 129.852 86.4253 130.385 85.0213 130.385ZM92.8416 131.425C94.8176 131.425 95.8836 130.398 95.8836 128.487V125.211C95.8836 123.3 94.8176 122.273 92.8416 122.273C90.8656 122.273 89.7996 123.3 89.7996 125.211V128.487C89.7996 130.398 90.8656 131.425 92.8416 131.425ZM92.8416 130.385C91.5676 130.385 90.9436 129.735 90.9436 128.409V125.289C90.9436 123.963 91.5676 123.313 92.8416 123.313C94.1156 123.313 94.7396 123.963 94.7396 125.289V128.409C94.7396 129.735 94.1156 130.385 92.8416 130.385Z" fill="#003E6B"/>
<path d="M74.9129 153.286H80.3989V152.207H78.2279V144.446H77.1359C76.5509 145.2 75.7709 145.538 74.6529 145.577V146.591C75.5239 146.565 76.3559 146.461 77.0839 145.954V152.207H74.9129V153.286ZM86.2303 153.286H87.3743V151.258H88.4143V150.218H87.3743V144.446H86.0743L81.6803 150.153V151.258H86.2303V153.286ZM82.9673 150.218L86.2303 145.928V150.218H82.9673ZM92.8416 153.442C94.8176 153.442 95.8836 152.415 95.8836 150.504V147.228C95.8836 145.317 94.8176 144.29 92.8416 144.29C90.8656 144.29 89.7996 145.317 89.7996 147.228V150.504C89.7996 152.415 90.8656 153.442 92.8416 153.442ZM92.8416 152.402C91.5676 152.402 90.9436 151.752 90.9436 150.426V147.306C90.9436 145.98 91.5676 145.33 92.8416 145.33C94.1156 145.33 94.7396 145.98 94.7396 147.306V150.426C94.7396 151.752 94.1156 152.402 92.8416 152.402Z" fill="#003E6B"/>
<path d="M74.9129 176.119H80.3989V175.04H78.2279V167.279H77.1359C76.5509 168.033 75.7709 168.371 74.6529 168.41V169.424C75.5239 169.398 76.3559 169.294 77.0839 168.787V175.04H74.9129V176.119ZM85.0213 176.275C86.9973 176.275 88.0633 175.248 88.0633 173.337V170.061C88.0633 168.15 86.9973 167.123 85.0213 167.123C83.0453 167.123 81.9793 168.15 81.9793 170.061V173.337C81.9793 175.248 83.0453 176.275 85.0213 176.275ZM85.0213 175.235C83.7473 175.235 83.1233 174.585 83.1233 173.259V170.139C83.1233 168.813 83.7473 168.163 85.0213 168.163C86.2953 168.163 86.9193 168.813 86.9193 170.139V173.259C86.9193 174.585 86.2953 175.235 85.0213 175.235ZM92.8416 176.275C94.8176 176.275 95.8836 175.248 95.8836 173.337V170.061C95.8836 168.15 94.8176 167.123 92.8416 167.123C90.8656 167.123 89.7996 168.15 89.7996 170.061V173.337C89.7996 175.248 90.8656 176.275 92.8416 176.275ZM92.8416 175.235C91.5676 175.235 90.9436 174.585 90.9436 173.259V170.139C90.9436 168.813 91.5676 168.163 92.8416 168.163C94.1156 168.163 94.7396 168.813 94.7396 170.139V173.259C94.7396 174.585 94.1156 175.235 92.8416 175.235Z" fill="#003E6B"/>
<path d="M79.3821 198.952H80.6041C80.7341 195.91 81.9301 193.453 84.2311 191.243V190.112H77.9521V191.204H82.9051C80.7211 193.297 79.5121 195.923 79.3821 198.952ZM88.9444 199.108C90.9724 199.108 92.1164 198.12 92.1164 196.118C92.1164 194.22 91.0764 193.18 89.2824 193.18C88.4894 193.18 87.8394 193.388 87.3194 193.804L87.4884 191.191H91.7134V190.112H86.4614L86.1624 194.896H87.2154C87.7354 194.441 88.3074 194.22 89.0224 194.22C90.2704 194.22 90.9724 194.883 90.9724 196.144C90.9724 197.431 90.2444 198.068 88.9314 198.068C87.7484 198.068 87.0334 197.548 86.9944 196.664H85.8764C85.9024 198.185 86.9814 199.108 88.9444 199.108Z" fill="#003E6B"/>
<path d="M81.2281 221.941C83.2301 221.941 84.2701 220.888 84.2701 218.99C84.2701 217.144 83.2821 216.169 81.5661 216.169C80.5911 216.169 79.8241 216.481 79.2781 217.118V215.87C79.2781 214.505 79.9281 213.829 81.2671 213.829C82.3591 213.829 82.9571 214.284 83.0351 215.181H84.1531C84.0881 213.621 83.0741 212.789 81.2541 212.789C79.2261 212.789 78.1341 213.842 78.1341 215.805V218.938C78.1341 220.914 79.2521 221.941 81.2281 221.941ZM81.2281 220.901C79.9541 220.901 79.2781 220.251 79.2781 218.912V218.613C79.6551 217.677 80.3571 217.209 81.3581 217.209C82.5281 217.209 83.1131 217.833 83.1131 219.016C83.1131 220.238 82.5021 220.901 81.2281 220.901ZM88.9314 221.941C90.9074 221.941 91.9734 220.914 91.9734 219.003V215.727C91.9734 213.816 90.9074 212.789 88.9314 212.789C86.9554 212.789 85.8894 213.816 85.8894 215.727V219.003C85.8894 220.914 86.9554 221.941 88.9314 221.941ZM88.9314 220.901C87.6574 220.901 87.0334 220.251 87.0334 218.925V215.805C87.0334 214.479 87.6574 213.829 88.9314 213.829C90.2054 213.829 90.8294 214.479 90.8294 215.805V218.925C90.8294 220.251 90.2054 220.901 88.9314 220.901Z" fill="#003E6B"/>
<path d="M81.1501 311.641C83.1521 311.641 84.2571 310.796 84.2571 309.067C84.2571 307.949 83.8021 307.234 82.8401 306.909V306.883C83.6331 306.545 84.0361 305.882 84.0361 304.92C84.0361 303.36 82.9831 302.489 81.1631 302.489C79.2651 302.489 78.1731 303.425 78.1731 305.05V305.245H79.2781V305.128C79.2781 304.101 79.9281 303.529 81.1241 303.529C82.2681 303.529 82.9051 304.049 82.9051 305.024C82.9051 305.973 82.2941 306.454 81.1371 306.454H80.1491V307.494H81.1241C82.4891 307.494 83.1131 308.014 83.1131 309.028C83.1131 310.107 82.4111 310.601 81.1501 310.601C79.8241 310.601 79.1611 310.055 79.1611 308.989V308.82H78.0431V309.145C78.0431 310.77 79.1221 311.641 81.1501 311.641ZM88.9444 311.641C90.9724 311.641 92.1164 310.653 92.1164 308.651C92.1164 306.753 91.0764 305.713 89.2824 305.713C88.4894 305.713 87.8394 305.921 87.3194 306.337L87.4884 303.724H91.7134V302.645H86.4614L86.1624 307.429H87.2154C87.7354 306.974 88.3074 306.753 89.0224 306.753C90.2704 306.753 90.9724 307.416 90.9724 308.677C90.9724 309.964 90.2444 310.601 88.9314 310.601C87.7484 310.601 87.0334 310.081 86.9944 309.197H85.8764C85.9024 310.718 86.9814 311.641 88.9444 311.641Z" fill="#003E6B"/>
<path d="M78.0691 343.288H84.1401V342.209H79.2001C79.2521 341.26 79.8371 340.688 81.4621 339.96C83.4251 339.076 84.1661 338.218 84.1661 336.814C84.1661 335.267 83.1521 334.292 81.2281 334.292C79.3041 334.292 78.1991 335.241 78.1991 336.983V337.282H79.3171V337.1C79.3171 335.917 79.9801 335.332 81.2151 335.332C82.4371 335.332 83.0221 335.917 83.0221 336.84C83.0221 337.763 82.4761 338.348 80.9161 339.063C78.8491 340.012 78.0691 340.987 78.0691 342.625V343.288ZM88.9444 343.444C90.9724 343.444 92.1164 342.456 92.1164 340.454C92.1164 338.556 91.0764 337.516 89.2824 337.516C88.4894 337.516 87.8394 337.724 87.3194 338.14L87.4884 335.527H91.7134V334.448H86.4614L86.1624 339.232H87.2154C87.7354 338.777 88.3074 338.556 89.0224 338.556C90.2704 338.556 90.9724 339.219 90.9724 340.48C90.9724 341.767 90.2444 342.404 88.9314 342.404C87.7484 342.404 87.0334 341.884 86.9944 341H85.8764C85.9024 342.521 86.9814 343.444 88.9444 343.444Z" fill="#003E6B"/>
<path d="M78.8231 393.031H84.3091V391.952H82.1381V384.191H81.0461C80.4611 384.945 79.6811 385.283 78.5631 385.322V386.336C79.4341 386.31 80.2661 386.206 80.9941 385.699V391.952H78.8231V393.031ZM88.9444 393.187C90.9724 393.187 92.1164 392.199 92.1164 390.197C92.1164 388.299 91.0764 387.259 89.2824 387.259C88.4894 387.259 87.8394 387.467 87.3194 387.883L87.4884 385.27H91.7134V384.191H86.4614L86.1624 388.975H87.2154C87.7354 388.52 88.3074 388.299 89.0224 388.299C90.2704 388.299 90.9724 388.962 90.9724 390.223C90.9724 391.51 90.2444 392.147 88.9314 392.147C87.7484 392.147 87.0334 391.627 86.9944 390.743H85.8764C85.9024 392.264 86.9814 393.187 88.9444 393.187Z" fill="#003E6B"/>
<path d="M78.8231 445.221H84.3091V444.142H82.1381V436.381H81.0461C80.4611 437.135 79.6811 437.473 78.5631 437.512V438.526C79.4341 438.5 80.2661 438.396 80.9941 437.889V444.142H78.8231V445.221ZM88.9314 445.377C90.9074 445.377 91.9734 444.35 91.9734 442.439V439.163C91.9734 437.252 90.9074 436.225 88.9314 436.225C86.9554 436.225 85.8894 437.252 85.8894 439.163V442.439C85.8894 444.35 86.9554 445.377 88.9314 445.377ZM88.9314 444.337C87.6574 444.337 87.0334 443.687 87.0334 442.361V439.241C87.0334 437.915 87.6574 437.265 88.9314 437.265C90.2054 437.265 90.8294 437.915 90.8294 439.241V442.361C90.8294 443.687 90.2054 444.337 88.9314 444.337Z" fill="#003E6B"/>
<path d="M82.3201 264.742H83.4641V262.714H84.5041V261.674H83.4641V255.902H82.1641L77.7701 261.609V262.714H82.3201V264.742ZM79.0571 261.674L82.3201 257.384V261.674H79.0571ZM88.9444 264.898C90.9724 264.898 92.1164 263.91 92.1164 261.908C92.1164 260.01 91.0764 258.97 89.2824 258.97C88.4894 258.97 87.8394 259.178 87.3194 259.594L87.4884 256.981H91.7134V255.902H86.4614L86.1624 260.686H87.2154C87.7354 260.231 88.3074 260.01 89.0224 260.01C90.2704 260.01 90.9724 260.673 90.9724 261.934C90.9724 263.221 90.2444 263.858 88.9314 263.858C87.7484 263.858 87.0334 263.338 86.9944 262.454H85.8764C85.9024 263.975 86.9814 264.898 88.9444 264.898Z" fill="#003E6B"/>
<path d="M54.6365 104.453H61.0565V102.818H56.4665V94.2531H54.6365V104.453ZM64.7139 104.633C65.8089 104.633 66.6189 104.228 67.2039 103.433L67.2639 104.453H68.7939V99.4131C68.7939 97.4181 67.7889 96.4881 65.6439 96.4881C63.5889 96.4881 62.5389 97.3581 62.4189 99.0681H64.1589C64.2039 98.3331 64.6689 97.9431 65.5839 97.9431C66.5589 97.9431 66.9939 98.4081 66.9939 99.3981V99.7431H65.3439C63.2289 99.7431 62.1939 100.628 62.1939 102.233C62.1939 103.763 63.1539 104.633 64.7139 104.633ZM65.1639 103.178C64.3839 103.178 63.9789 102.803 63.9789 102.128C63.9789 101.408 64.4139 101.033 65.5839 101.033H66.9939V101.993C66.6039 102.773 65.9889 103.178 65.1639 103.178ZM73.3388 104.633C74.3888 104.633 75.1538 104.243 75.7688 103.373L75.8288 104.453H77.3588V93.5031H75.5588V97.4781C74.9738 96.7881 74.2688 96.4881 73.3388 96.4881C71.5388 96.4881 70.5188 97.5981 70.5188 99.7131V101.423C70.5188 103.538 71.5388 104.633 73.3388 104.633ZM73.6988 103.133C72.8138 103.133 72.3188 102.563 72.3188 101.393V99.7281C72.3188 98.5431 72.8138 97.9881 73.6838 97.9881C74.5238 97.9881 75.1538 98.4981 75.5588 99.4431V101.678C75.1538 102.623 74.5238 103.133 73.6988 103.133ZM82.0399 104.633C83.0899 104.633 83.8549 104.243 84.4699 103.373L84.5299 104.453H86.0599V93.5031H84.2599V97.4781C83.6749 96.7881 82.9699 96.4881 82.0399 96.4881C80.2399 96.4881 79.2199 97.5981 79.2199 99.7131V101.423C79.2199 103.538 80.2399 104.633 82.0399 104.633ZM82.3999 103.133C81.5149 103.133 81.0199 102.563 81.0199 101.393V99.7281C81.0199 98.5431 81.5149 97.9881 82.3849 97.9881C83.2249 97.9881 83.8549 98.4981 84.2599 99.4431V101.678C83.8549 102.623 83.2249 103.133 82.3999 103.133ZM91.3861 104.633C93.3961 104.633 94.5511 103.763 94.6411 102.098H92.9161C92.8561 102.773 92.3311 103.178 91.3861 103.178C90.2311 103.178 89.7211 102.593 89.7211 101.333V101.093H94.6861V99.8031C94.6861 97.6581 93.5161 96.4881 91.2961 96.4881C89.1061 96.4881 87.9211 97.6431 87.9211 99.7881V101.318C87.9211 103.493 89.1211 104.633 91.3861 104.633ZM89.7211 99.7581C89.7211 98.4981 90.2161 97.9431 91.3561 97.9431C92.4811 97.9431 92.9761 98.4981 92.9761 99.7581H89.7211ZM96.5128 104.453H98.3128V99.9831C98.5528 98.7381 99.1678 98.2281 100.368 98.2281H100.773V96.5181H100.218C99.1228 96.5181 98.4628 97.0131 98.1178 98.0931L98.0428 96.6681H96.5128V104.453ZM109.55 106.403V105.023C108.05 104.303 107.3 102.593 107.3 99.8631C107.3 97.1331 108.05 95.4231 109.55 94.7031V93.3231C107.03 93.9831 105.605 96.3531 105.605 99.8631C105.605 103.373 107.03 105.743 109.55 106.403ZM110.912 104.453H112.712V102.323L113.792 101.138L115.847 104.453H117.947L115.067 99.8331L117.902 96.6681H115.742L112.712 100.073V93.5031H110.912V104.453ZM119.148 104.453H122.823C125.523 104.453 126.738 103.208 126.738 100.463V98.2431C126.738 95.5131 125.523 94.2531 122.823 94.2531H119.148V104.453ZM120.978 102.848V95.8581H122.568C124.278 95.8581 124.908 96.5181 124.908 98.2731V100.433C124.908 102.188 124.278 102.848 122.568 102.848H120.978ZM130.72 104.633C131.815 104.633 132.625 104.228 133.21 103.433L133.27 104.453H134.8V99.4131C134.8 97.4181 133.795 96.4881 131.65 96.4881C129.595 96.4881 128.545 97.3581 128.425 99.0681H130.165C130.21 98.3331 130.675 97.9431 131.59 97.9431C132.565 97.9431 133 98.4081 133 99.3981V99.7431H131.35C129.235 99.7431 128.2 100.628 128.2 102.233C128.2 103.763 129.16 104.633 130.72 104.633ZM131.17 103.178C130.39 103.178 129.985 102.803 129.985 102.128C129.985 101.408 130.42 101.033 131.59 101.033H133V101.993C132.61 102.773 131.995 103.178 131.17 103.178ZM136.03 106.403C138.55 105.743 139.975 103.373 139.975 99.8631C139.975 96.3531 138.55 93.9831 136.03 93.3231V94.7031C137.53 95.4231 138.28 97.1331 138.28 99.8631C138.28 102.593 137.53 104.303 136.03 105.023V106.403Z" fill="#003E6B"/>
<path d="M168.361 104.453H170.251L172.171 97.2081L174.076 104.453H175.966L178.591 94.2531H176.776L174.991 101.723L173.041 94.2531H171.346L169.396 101.693L167.626 94.2531H165.736L168.361 104.453ZM179.85 95.4231H181.77V93.7281H179.85V95.4231ZM179.91 104.453H181.71V96.6681H179.91V104.453ZM183.894 104.453H185.694V93.5031H183.894V104.453ZM190.368 104.633C191.418 104.633 192.183 104.243 192.798 103.373L192.858 104.453H194.388V93.5031H192.588V97.4781C192.003 96.7881 191.298 96.4881 190.368 96.4881C188.568 96.4881 187.548 97.5981 187.548 99.7131V101.423C187.548 103.538 188.568 104.633 190.368 104.633ZM190.728 103.133C189.843 103.133 189.348 102.563 189.348 101.393V99.7281C189.348 98.5431 189.843 97.9881 190.713 97.9881C191.553 97.9881 192.183 98.4981 192.588 99.4431V101.678C192.183 102.623 191.553 103.133 190.728 103.133ZM202.834 104.453H204.259V102.998H203.389C202.624 102.998 202.429 102.758 202.429 101.903V98.0631H204.184V96.6681H202.429V94.6731H200.779L200.659 96.6681H199.399V98.0631H200.629V101.963C200.629 103.718 201.289 104.453 202.834 104.453ZM205.423 107.183H206.383C207.763 107.183 208.288 106.748 208.798 105.248L211.693 96.6681H209.878L208.273 101.978L206.548 96.6681H204.628L207.343 104.243L207.088 105.038C206.908 105.578 206.698 105.728 206.188 105.728H205.423V107.183ZM212.898 107.183H214.698V103.658C215.283 104.333 215.988 104.633 216.918 104.633C218.703 104.633 219.738 103.523 219.738 101.408V99.6981C219.738 97.5831 218.703 96.4881 216.918 96.4881C215.868 96.4881 215.103 96.8781 214.488 97.7331L214.428 96.6681H212.898V107.183ZM216.573 103.133C215.748 103.133 215.118 102.638 214.698 101.708V99.3981C215.118 98.4831 215.748 97.9881 216.558 97.9881C217.443 97.9881 217.938 98.5581 217.938 99.7281V101.393C217.938 102.578 217.443 103.133 216.573 103.133ZM224.734 104.633C226.744 104.633 227.899 103.763 227.989 102.098H226.264C226.204 102.773 225.679 103.178 224.734 103.178C223.579 103.178 223.069 102.593 223.069 101.333V101.093H228.034V99.8031C228.034 97.6581 226.864 96.4881 224.644 96.4881C222.454 96.4881 221.269 97.6431 221.269 99.7881V101.318C221.269 103.493 222.469 104.633 224.734 104.633ZM223.069 99.7581C223.069 98.4981 223.564 97.9431 224.704 97.9431C225.829 97.9431 226.324 98.4981 226.324 99.7581H223.069Z" fill="#003E6B"/>
<path d="M266.343 104.453H268.173V100.703H270.288C272.778 100.703 273.843 99.7581 273.843 97.4931C273.843 95.2281 272.778 94.2531 270.288 94.2531H266.343V104.453ZM268.173 99.1131V95.8581H270.138C271.488 95.8581 272.013 96.3231 272.013 97.4781C272.013 98.6481 271.488 99.1131 270.138 99.1131H268.173ZM277.475 104.633C278.57 104.633 279.38 104.228 279.965 103.433L280.025 104.453H281.555V99.4131C281.555 97.4181 280.55 96.4881 278.405 96.4881C276.35 96.4881 275.3 97.3581 275.18 99.0681H276.92C276.965 98.3331 277.43 97.9431 278.345 97.9431C279.32 97.9431 279.755 98.4081 279.755 99.3981V99.7431H278.105C275.99 99.7431 274.955 100.628 274.955 102.233C274.955 103.763 275.915 104.633 277.475 104.633ZM277.925 103.178C277.145 103.178 276.74 102.803 276.74 102.128C276.74 101.408 277.175 101.033 278.345 101.033H279.755V101.993C279.365 102.773 278.75 103.178 277.925 103.178ZM283.61 104.453H285.41V99.3981C285.845 98.5131 286.415 98.0781 287.15 98.0781C287.9 98.0781 288.26 98.5131 288.26 99.4731V104.453H290.06V99.3081C290.06 97.4481 289.235 96.4881 287.615 96.4881C286.595 96.4881 285.83 96.8631 285.2 97.7331L285.14 96.6681H283.61V104.453ZM295.165 104.633C297.235 104.633 298.345 103.613 298.39 101.603H296.665C296.605 102.668 296.14 103.133 295.18 103.133C294.13 103.133 293.635 102.578 293.635 101.303V99.8181C293.635 98.5431 294.13 97.9881 295.18 97.9881C296.14 97.9881 296.605 98.4531 296.665 99.5031H298.39C298.345 97.4931 297.235 96.4881 295.165 96.4881C292.975 96.4881 291.835 97.6131 291.835 99.7881V101.318C291.835 103.508 292.975 104.633 295.165 104.633ZM300.001 104.453H301.801V99.9831C302.041 98.7381 302.656 98.2281 303.856 98.2281H304.261V96.5181H303.706C302.611 96.5181 301.951 97.0131 301.606 98.0931L301.531 96.6681H300.001V104.453ZM308.644 104.633C310.654 104.633 311.809 103.763 311.899 102.098H310.174C310.114 102.773 309.589 103.178 308.644 103.178C307.489 103.178 306.979 102.593 306.979 101.333V101.093H311.944V99.8031C311.944 97.6581 310.774 96.4881 308.554 96.4881C306.364 96.4881 305.179 97.6431 305.179 99.7881V101.318C305.179 103.493 306.379 104.633 308.644 104.633ZM306.979 99.7581C306.979 98.4981 307.474 97.9431 308.614 97.9431C309.739 97.9431 310.234 98.4981 310.234 99.7581H306.979ZM315.825 104.633C316.92 104.633 317.73 104.228 318.315 103.433L318.375 104.453H319.905V99.4131C319.905 97.4181 318.9 96.4881 316.755 96.4881C314.7 96.4881 313.65 97.3581 313.53 99.0681H315.27C315.315 98.3331 315.78 97.9431 316.695 97.9431C317.67 97.9431 318.105 98.4081 318.105 99.3981V99.7431H316.455C314.34 99.7431 313.305 100.628 313.305 102.233C313.305 103.763 314.265 104.633 315.825 104.633ZM316.275 103.178C315.495 103.178 315.09 102.803 315.09 102.128C315.09 101.408 315.525 101.033 316.695 101.033H318.105V101.993C317.715 102.773 317.1 103.178 316.275 103.178ZM324.629 104.633C326.759 104.633 327.824 103.808 327.824 102.173C327.824 100.688 327.059 99.9831 325.034 99.7581C323.759 99.6231 323.294 99.3681 323.294 98.7531C323.294 98.1981 323.759 97.8681 324.614 97.8681C325.514 97.8681 325.934 98.2131 325.934 98.9331H327.659C327.659 97.3281 326.624 96.4881 324.629 96.4881C322.634 96.4881 321.524 97.3431 321.524 98.9481C321.524 100.388 322.289 101.018 324.269 101.258C325.589 101.423 326.054 101.693 326.054 102.338C326.054 102.938 325.589 103.253 324.629 103.253C323.579 103.253 323.084 102.878 323.084 102.113H321.374C321.374 103.793 322.424 104.633 324.629 104.633Z" fill="#003E6B"/>
<path d="M377.733 104.453H384.723V102.848H379.563V100.043H383.823V98.4531H379.563V95.8581H384.573V94.2531H377.733V104.453ZM388.95 104.633C390 104.633 390.765 104.243 391.38 103.373L391.44 104.453H392.97V93.5031H391.17V97.4781C390.585 96.7881 389.88 96.4881 388.95 96.4881C387.15 96.4881 386.13 97.5981 386.13 99.7131V101.423C386.13 103.538 387.15 104.633 388.95 104.633ZM389.31 103.133C388.425 103.133 387.93 102.563 387.93 101.393V99.7281C387.93 98.5431 388.425 97.9881 389.295 97.9881C390.135 97.9881 390.765 98.4981 391.17 99.4431V101.678C390.765 102.623 390.135 103.133 389.31 103.133ZM395.102 95.4231H397.022V93.7281H395.102V95.4231ZM395.162 104.453H396.962V96.6681H395.162V104.453ZM401.636 104.453H403.061V102.998H402.191C401.426 102.998 401.231 102.758 401.231 101.903V98.0631H402.986V96.6681H401.231V94.6731H399.581L399.461 96.6681H398.201V98.0631H399.431V101.963C399.431 103.718 400.091 104.453 401.636 104.453ZM412.654 104.453H414.454V102.248H415.579V100.718H414.454V94.2531H412.489L407.674 100.613V102.248H412.654V104.453ZM409.489 100.718L412.654 96.4581V100.718H409.489Z" fill="#003E6B"/>
<path d="M477.8 104.453H484.79V102.848H479.63V100.043H483.89V98.4531H479.63V95.8581H484.64V94.2531H477.8V104.453ZM489.017 104.633C490.067 104.633 490.832 104.243 491.447 103.373L491.507 104.453H493.037V93.5031H491.237V97.4781C490.652 96.7881 489.947 96.4881 489.017 96.4881C487.217 96.4881 486.197 97.5981 486.197 99.7131V101.423C486.197 103.538 487.217 104.633 489.017 104.633ZM489.377 103.133C488.492 103.133 487.997 102.563 487.997 101.393V99.7281C487.997 98.5431 488.492 97.9881 489.362 97.9881C490.202 97.9881 490.832 98.4981 491.237 99.4431V101.678C490.832 102.623 490.202 103.133 489.377 103.133ZM495.168 95.4231H497.088V93.7281H495.168V95.4231ZM495.228 104.453H497.028V96.6681H495.228V104.453ZM501.703 104.453H503.128V102.998H502.258C501.493 102.998 501.298 102.758 501.298 101.903V98.0631H503.053V96.6681H501.298V94.6731H499.648L499.528 96.6681H498.268V98.0631H499.498V101.963C499.498 103.718 500.158 104.453 501.703 104.453ZM509.421 104.453H511.341C511.491 101.033 512.751 98.4081 515.316 95.9331V94.2531H507.936V95.8881H513.366C510.906 98.1381 509.571 101.003 509.421 104.453Z" fill="#003E6B"/>
<path d="M27.3687 520.355L25.3081 514.135H25.269L23.2085 520.355H27.3687ZM27.9839 522.27H22.5835L21.4897 525.453H19.2046L24.3804 511.215H26.187L31.3628 525.453H29.0874L27.9839 522.27ZM40.1714 523.812C39.7287 524.32 39.2078 524.734 38.6089 525.053C38.0099 525.385 37.3166 525.557 36.5288 525.57C35.3309 525.57 34.2795 525.163 33.3745 524.35C32.437 523.536 31.9552 522.217 31.9292 520.395C31.9552 518.552 32.437 517.217 33.3745 516.391C34.2795 515.577 35.3309 515.176 36.5288 515.189C37.3166 515.202 38.0099 515.365 38.6089 515.678C39.2078 515.997 39.7287 516.423 40.1714 516.957L38.6675 518.295C38.1532 517.611 37.4663 517.257 36.6069 517.23C34.8752 517.204 33.9963 518.259 33.9702 520.395C33.9963 522.517 34.8752 523.562 36.6069 523.529C37.4663 523.516 38.1532 523.165 38.6675 522.475L40.1714 523.812ZM41.7144 512.23H43.7554V515.316H45.2397V516.869H43.7554V522.777C43.7424 523.292 43.9832 523.542 44.478 523.529H45.2397V525.453H44.1753C43.4591 525.453 42.8732 525.232 42.4175 524.789C41.9487 524.366 41.7144 523.754 41.7144 522.953V516.869H40.6987V515.316H41.7144V512.23ZM47.1636 515.316H49.2046V521.352C49.2046 522.035 49.3966 522.569 49.7808 522.953C50.1584 523.337 50.6401 523.529 51.2261 523.529C51.812 523.529 52.2905 523.337 52.6616 522.953C53.0392 522.569 53.228 522.035 53.228 521.352V515.316H55.269V525.453H53.228V524.369H53.189C52.5184 525.17 51.6427 525.57 50.562 525.57C49.7222 525.557 48.9637 525.251 48.2866 524.652C47.5509 524.066 47.1766 523.201 47.1636 522.055V515.316ZM63.228 524.555H63.189C63.0002 524.9 62.7072 525.154 62.3101 525.316C61.9194 525.486 61.3791 525.57 60.689 525.57C59.5562 525.557 58.6838 525.258 58.0718 524.672C57.4272 524.099 57.105 523.367 57.105 522.475C57.105 521.622 57.3849 520.915 57.9448 520.355C58.5047 519.783 59.325 519.49 60.4058 519.477H63.228V518.412C63.241 517.52 62.5477 517.087 61.1479 517.113C60.6401 517.113 60.2397 517.165 59.9468 517.27C59.6408 517.393 59.3999 517.602 59.2241 517.895L57.6226 516.674C58.3973 515.658 59.5399 515.163 61.0503 515.189C62.3263 515.176 63.3452 515.417 64.1069 515.912C64.8687 516.42 65.256 517.292 65.269 518.529V525.453H63.228V524.555ZM63.228 521.156H60.7866C59.6017 521.182 59.0158 521.589 59.0288 522.377C59.0288 522.722 59.1818 523.015 59.4878 523.256C59.7808 523.523 60.2658 523.656 60.9429 523.656C61.7957 523.669 62.3979 523.568 62.7495 523.354C63.0685 523.139 63.228 522.65 63.228 521.889V521.156ZM67.9058 511.215H69.9468V522.836C69.9468 523.298 70.2007 523.529 70.7085 523.529H71.4116V525.453H70.5034C69.7612 525.453 69.1493 525.268 68.6675 524.896C68.1597 524.519 67.9058 523.884 67.9058 522.992V511.215ZM77.8667 515.316H79.9077V516.391H79.9468C80.6174 515.59 81.4963 515.189 82.5835 515.189C83.3973 515.202 84.1069 515.463 84.7124 515.971L83.228 517.738C82.7983 517.4 82.3524 517.23 81.8901 517.23C81.3693 517.23 80.9233 517.4 80.5522 517.738C80.1356 518.07 79.9207 518.607 79.9077 519.35V525.453H77.8667V515.316ZM86.8315 521.156C86.8315 521.97 87.0659 522.589 87.5347 523.012C87.9709 523.441 88.5438 523.656 89.2534 523.656C90.0802 523.656 90.8192 523.327 91.4702 522.67L92.9448 523.93C91.9097 525.036 90.6922 525.583 89.2925 525.57C88.7586 525.57 88.2378 525.492 87.73 525.336C87.4761 525.251 87.2287 525.137 86.9878 524.994C86.7339 524.87 86.4963 524.717 86.2749 524.535C85.8452 524.158 85.4969 523.63 85.23 522.953C84.937 522.302 84.7905 521.456 84.7905 520.414C84.7905 519.411 84.9175 518.578 85.1714 517.914C85.4253 517.237 85.7508 516.703 86.1479 516.312C86.5516 515.915 87.0041 515.629 87.5054 515.453C88.0002 515.277 88.4884 515.189 88.9702 515.189C90.1291 515.202 91.1089 515.583 91.9097 516.332C92.7235 517.094 93.1369 518.142 93.1499 519.477V521.156H86.8315ZM91.1089 519.477C91.0828 518.689 90.8713 518.093 90.4741 517.689C90.0835 517.305 89.5822 517.113 88.9702 517.113C88.3582 517.113 87.8569 517.305 87.4663 517.689C87.0822 518.093 86.8706 518.689 86.8315 519.477H91.1089ZM95.5913 522.357C96.4181 523.223 97.4858 523.656 98.7944 523.656C99.3804 523.656 99.8589 523.542 100.23 523.314C100.601 523.087 100.787 522.768 100.787 522.357C100.787 521.993 100.676 521.739 100.455 521.596C100.227 521.446 99.924 521.365 99.5464 521.352L97.7495 521.195C96.8966 521.117 96.2033 520.831 95.6694 520.336C95.1226 519.854 94.8426 519.18 94.8296 518.314C94.8426 517.273 95.2104 516.492 95.9331 515.971C96.6362 515.45 97.5282 515.189 98.6089 515.189C99.0776 515.189 99.4976 515.219 99.8687 515.277C100.24 515.342 100.588 515.434 100.914 515.551C101.539 515.805 102.098 516.146 102.593 516.576L101.333 518.051C100.943 517.771 100.529 517.54 100.093 517.357C99.6636 517.195 99.1688 517.113 98.6089 517.113C97.9709 517.113 97.5249 517.227 97.271 517.455C97.0041 517.683 96.8706 517.976 96.8706 518.334C96.8576 518.562 96.9585 518.76 97.1733 518.93C97.3687 519.118 97.7137 519.239 98.2085 519.291L99.8882 519.418C100.943 519.496 101.705 519.815 102.173 520.375C102.61 520.922 102.828 521.615 102.828 522.455C102.815 523.438 102.414 524.197 101.626 524.73C100.845 525.277 99.8459 525.557 98.6284 525.57C96.9748 525.57 95.4871 524.965 94.1655 523.754L95.5913 522.357ZM104.898 515.316H106.939V521.352C106.939 522.035 107.131 522.569 107.515 522.953C107.893 523.337 108.375 523.529 108.96 523.529C109.546 523.529 110.025 523.337 110.396 522.953C110.774 522.569 110.962 522.035 110.962 521.352V515.316H113.003V525.453H110.962V524.369H110.923C110.253 525.17 109.377 525.57 108.296 525.57C107.457 525.557 106.698 525.251 106.021 524.652C105.285 524.066 104.911 523.201 104.898 522.055V515.316ZM115.64 511.215H117.681V522.836C117.681 523.298 117.935 523.529 118.443 523.529H119.146V525.453H118.238C117.496 525.453 116.884 525.268 116.402 524.896C115.894 524.519 115.64 523.884 115.64 522.992V511.215ZM120.914 512.23H122.955V515.316H124.439V516.869H122.955V522.777C122.942 523.292 123.182 523.542 123.677 523.529H124.439V525.453H123.375C122.658 525.453 122.072 525.232 121.617 524.789C121.148 524.366 120.914 523.754 120.914 522.953V516.869H119.898V515.316H120.914V512.23ZM126.666 522.357C127.492 523.223 128.56 523.656 129.869 523.656C130.455 523.656 130.933 523.542 131.304 523.314C131.675 523.087 131.861 522.768 131.861 522.357C131.861 521.993 131.75 521.739 131.529 521.596C131.301 521.446 130.998 521.365 130.621 521.352L128.824 521.195C127.971 521.117 127.278 520.831 126.744 520.336C126.197 519.854 125.917 519.18 125.904 518.314C125.917 517.273 126.285 516.492 127.007 515.971C127.71 515.45 128.602 515.189 129.683 515.189C130.152 515.189 130.572 515.219 130.943 515.277C131.314 515.342 131.662 515.434 131.988 515.551C132.613 515.805 133.173 516.146 133.667 516.576L132.408 518.051C132.017 517.771 131.604 517.54 131.167 517.357C130.738 517.195 130.243 517.113 129.683 517.113C129.045 517.113 128.599 517.227 128.345 517.455C128.078 517.683 127.945 517.976 127.945 518.334C127.932 518.562 128.033 518.76 128.248 518.93C128.443 519.118 128.788 519.239 129.283 519.291L130.962 519.418C132.017 519.496 132.779 519.815 133.248 520.375C133.684 520.922 133.902 521.615 133.902 522.455C133.889 523.438 133.488 524.197 132.701 524.73C131.919 525.277 130.92 525.557 129.703 525.57C128.049 525.57 126.561 524.965 125.24 523.754L126.666 522.357Z" fill="white"/>
<path d="M572.185 548.453H19.1851V963.453H572.185V548.453Z" fill="white"/>
<path opacity="0.4" d="M551.118 562.453H42.3584V946.453H551.118V562.453Z" fill="#7CB4D0"/>
<path opacity="0.1" d="M551.118 562.453H42.3584V946.453H551.118V562.453Z" fill="#BCDEEA"/>
<path opacity="0.5" d="M42.3584 561.753L19.1851 548.453V963.453L42.3584 946.409V561.753Z" fill="#7CB4D0"/>
<path opacity="0.5" d="M551.118 946.409L572.185 963.453V548.453L551.118 561.753V946.409Z" fill="#7CB4D0"/>
<path opacity="0.4" d="M572.185 548.453H19.1851V963.453H572.185V548.453Z" fill="#7CB4D0"/>
<path opacity="0.8" d="M550.883 946.453H42.5958L19.1851 963.453H572.185L550.883 946.453Z" fill="#7CB4D0"/>
<rect x="52.8917" y="605.453" width="64.2533" height="13.0474" fill="#8CBDD6"/>
<rect x="52.8917" y="627.471" width="64.2533" height="13.0474" fill="#8CBDD6"/>
<rect x="52.8917" y="650.304" width="64.2533" height="13.0474" fill="#8CBDD6"/>
<rect x="52.8917" y="673.137" width="64.2533" height="13.0474" fill="#8CBDD6"/>
<rect x="52.8917" y="695.97" width="64.2533" height="13.0474" fill="#8CBDD6"/>
<rect x="52.8917" y="738.373" width="64.2533" height="13.0474" fill="#8CBDD6"/>
<rect x="52.8917" y="785.67" width="64.2533" height="13.0474" fill="#8CBDD6"/>
<rect x="52.8917" y="817.473" width="64.2533" height="13.0474" fill="#8CBDD6"/>
<rect x="52.8917" y="867.216" width="64.2533" height="13.0474" fill="#8CBDD6"/>
<rect x="52.8917" y="919.405" width="64.2533" height="13.0474" fill="#8CBDD6"/>
<path d="M74.9129 616.269H80.3989V615.19H78.2279V607.429H77.1359C76.5509 608.183 75.7709 608.521 74.6529 608.56V609.574C75.5239 609.548 76.3559 609.444 77.0839 608.937V615.19H74.9129V616.269ZM85.0213 616.425C87.1403 616.425 88.2843 615.528 88.2843 613.89C88.2843 612.785 87.7643 612.044 86.7633 611.693V611.667C87.6083 611.342 88.0373 610.679 88.0373 609.717C88.0373 608.17 86.9323 607.273 85.0343 607.273C83.1363 607.273 82.0183 608.17 82.0183 609.717C82.0183 610.679 82.4473 611.342 83.2793 611.667V611.693C82.2783 612.031 81.7583 612.785 81.7583 613.89C81.7583 615.528 82.9023 616.425 85.0213 616.425ZM85.0213 611.225C83.7993 611.225 83.1493 610.718 83.1493 609.782C83.1493 608.82 83.8383 608.313 85.0213 608.313C86.2303 608.313 86.9063 608.833 86.9063 609.782C86.9063 610.718 86.2433 611.225 85.0213 611.225ZM85.0213 615.385C83.6173 615.385 82.9023 614.852 82.9023 613.825C82.9023 612.798 83.6173 612.265 85.0213 612.265C86.4253 612.265 87.1403 612.798 87.1403 613.825C87.1403 614.852 86.4253 615.385 85.0213 615.385ZM92.8416 616.425C94.8176 616.425 95.8836 615.398 95.8836 613.487V610.211C95.8836 608.3 94.8176 607.273 92.8416 607.273C90.8656 607.273 89.7996 608.3 89.7996 610.211V613.487C89.7996 615.398 90.8656 616.425 92.8416 616.425ZM92.8416 615.385C91.5676 615.385 90.9436 614.735 90.9436 613.409V610.289C90.9436 608.963 91.5676 608.313 92.8416 608.313C94.1156 608.313 94.7396 608.963 94.7396 610.289V613.409C94.7396 614.735 94.1156 615.385 92.8416 615.385Z" fill="#003E6B"/>
<path d="M74.9129 638.286H80.3989V637.207H78.2279V629.446H77.1359C76.5509 630.2 75.7709 630.538 74.6529 630.577V631.591C75.5239 631.565 76.3559 631.461 77.0839 630.954V637.207H74.9129V638.286ZM86.2303 638.286H87.3743V636.258H88.4143V635.218H87.3743V629.446H86.0743L81.6803 635.153V636.258H86.2303V638.286ZM82.9673 635.218L86.2303 630.928V635.218H82.9673ZM92.8416 638.442C94.8176 638.442 95.8836 637.415 95.8836 635.504V632.228C95.8836 630.317 94.8176 629.29 92.8416 629.29C90.8656 629.29 89.7996 630.317 89.7996 632.228V635.504C89.7996 637.415 90.8656 638.442 92.8416 638.442ZM92.8416 637.402C91.5676 637.402 90.9436 636.752 90.9436 635.426V632.306C90.9436 630.98 91.5676 630.33 92.8416 630.33C94.1156 630.33 94.7396 630.98 94.7396 632.306V635.426C94.7396 636.752 94.1156 637.402 92.8416 637.402Z" fill="#003E6B"/>
<path d="M74.9129 661.119H80.3989V660.04H78.2279V652.279H77.1359C76.5509 653.033 75.7709 653.371 74.6529 653.41V654.424C75.5239 654.398 76.3559 654.294 77.0839 653.787V660.04H74.9129V661.119ZM85.0213 661.275C86.9973 661.275 88.0633 660.248 88.0633 658.337V655.061C88.0633 653.15 86.9973 652.123 85.0213 652.123C83.0453 652.123 81.9793 653.15 81.9793 655.061V658.337C81.9793 660.248 83.0453 661.275 85.0213 661.275ZM85.0213 660.235C83.7473 660.235 83.1233 659.585 83.1233 658.259V655.139C83.1233 653.813 83.7473 653.163 85.0213 653.163C86.2953 653.163 86.9193 653.813 86.9193 655.139V658.259C86.9193 659.585 86.2953 660.235 85.0213 660.235ZM92.8416 661.275C94.8176 661.275 95.8836 660.248 95.8836 658.337V655.061C95.8836 653.15 94.8176 652.123 92.8416 652.123C90.8656 652.123 89.7996 653.15 89.7996 655.061V658.337C89.7996 660.248 90.8656 661.275 92.8416 661.275ZM92.8416 660.235C91.5676 660.235 90.9436 659.585 90.9436 658.259V655.139C90.9436 653.813 91.5676 653.163 92.8416 653.163C94.1156 653.163 94.7396 653.813 94.7396 655.139V658.259C94.7396 659.585 94.1156 660.235 92.8416 660.235Z" fill="#003E6B"/>
<path d="M79.3821 683.952H80.6041C80.7341 680.91 81.9301 678.453 84.2311 676.243V675.112H77.9521V676.204H82.9051C80.7211 678.297 79.5121 680.923 79.3821 683.952ZM88.9444 684.108C90.9724 684.108 92.1164 683.12 92.1164 681.118C92.1164 679.22 91.0764 678.18 89.2824 678.18C88.4894 678.18 87.8394 678.388 87.3194 678.804L87.4884 676.191H91.7134V675.112H86.4614L86.1624 679.896H87.2154C87.7354 679.441 88.3074 679.22 89.0224 679.22C90.2704 679.22 90.9724 679.883 90.9724 681.144C90.9724 682.431 90.2444 683.068 88.9314 683.068C87.7484 683.068 87.0334 682.548 86.9944 681.664H85.8764C85.9024 683.185 86.9814 684.108 88.9444 684.108Z" fill="#003E6B"/>
<path d="M81.2281 706.941C83.2301 706.941 84.2701 705.888 84.2701 703.99C84.2701 702.144 83.2821 701.169 81.5661 701.169C80.5911 701.169 79.8241 701.481 79.2781 702.118V700.87C79.2781 699.505 79.9281 698.829 81.2671 698.829C82.3591 698.829 82.9571 699.284 83.0351 700.181H84.1531C84.0881 698.621 83.0741 697.789 81.2541 697.789C79.2261 697.789 78.1341 698.842 78.1341 700.805V703.938C78.1341 705.914 79.2521 706.941 81.2281 706.941ZM81.2281 705.901C79.9541 705.901 79.2781 705.251 79.2781 703.912V703.613C79.6551 702.677 80.3571 702.209 81.3581 702.209C82.5281 702.209 83.1131 702.833 83.1131 704.016C83.1131 705.238 82.5021 705.901 81.2281 705.901ZM88.9314 706.941C90.9074 706.941 91.9734 705.914 91.9734 704.003V700.727C91.9734 698.816 90.9074 697.789 88.9314 697.789C86.9554 697.789 85.8894 698.816 85.8894 700.727V704.003C85.8894 705.914 86.9554 706.941 88.9314 706.941ZM88.9314 705.901C87.6574 705.901 87.0334 705.251 87.0334 703.925V700.805C87.0334 699.479 87.6574 698.829 88.9314 698.829C90.2054 698.829 90.8294 699.479 90.8294 700.805V703.925C90.8294 705.251 90.2054 705.901 88.9314 705.901Z" fill="#003E6B"/>
<path d="M81.1501 796.641C83.1521 796.641 84.2571 795.796 84.2571 794.067C84.2571 792.949 83.8021 792.234 82.8401 791.909V791.883C83.6331 791.545 84.0361 790.882 84.0361 789.92C84.0361 788.36 82.9831 787.489 81.1631 787.489C79.2651 787.489 78.1731 788.425 78.1731 790.05V790.245H79.2781V790.128C79.2781 789.101 79.9281 788.529 81.1241 788.529C82.2681 788.529 82.9051 789.049 82.9051 790.024C82.9051 790.973 82.2941 791.454 81.1371 791.454H80.1491V792.494H81.1241C82.4891 792.494 83.1131 793.014 83.1131 794.028C83.1131 795.107 82.4111 795.601 81.1501 795.601C79.8241 795.601 79.1611 795.055 79.1611 793.989V793.82H78.0431V794.145C78.0431 795.77 79.1221 796.641 81.1501 796.641ZM88.9444 796.641C90.9724 796.641 92.1164 795.653 92.1164 793.651C92.1164 791.753 91.0764 790.713 89.2824 790.713C88.4894 790.713 87.8394 790.921 87.3194 791.337L87.4884 788.724H91.7134V787.645H86.4614L86.1624 792.429H87.2154C87.7354 791.974 88.3074 791.753 89.0224 791.753C90.2704 791.753 90.9724 792.416 90.9724 793.677C90.9724 794.964 90.2444 795.601 88.9314 795.601C87.7484 795.601 87.0334 795.081 86.9944 794.197H85.8764C85.9024 795.718 86.9814 796.641 88.9444 796.641Z" fill="#003E6B"/>
<path d="M78.0691 828.288H84.1401V827.209H79.2001C79.2521 826.26 79.8371 825.688 81.4621 824.96C83.4251 824.076 84.1661 823.218 84.1661 821.814C84.1661 820.267 83.1521 819.292 81.2281 819.292C79.3041 819.292 78.1991 820.241 78.1991 821.983V822.282H79.3171V822.1C79.3171 820.917 79.9801 820.332 81.2151 820.332C82.4371 820.332 83.0221 820.917 83.0221 821.84C83.0221 822.763 82.4761 823.348 80.9161 824.063C78.8491 825.012 78.0691 825.987 78.0691 827.625V828.288ZM88.9444 828.444C90.9724 828.444 92.1164 827.456 92.1164 825.454C92.1164 823.556 91.0764 822.516 89.2824 822.516C88.4894 822.516 87.8394 822.724 87.3194 823.14L87.4884 820.527H91.7134V819.448H86.4614L86.1624 824.232H87.2154C87.7354 823.777 88.3074 823.556 89.0224 823.556C90.2704 823.556 90.9724 824.219 90.9724 825.48C90.9724 826.767 90.2444 827.404 88.9314 827.404C87.7484 827.404 87.0334 826.884 86.9944 826H85.8764C85.9024 827.521 86.9814 828.444 88.9444 828.444Z" fill="#003E6B"/>
<path d="M78.8231 878.031H84.3091V876.952H82.1381V869.191H81.0461C80.4611 869.945 79.6811 870.283 78.5631 870.322V871.336C79.4341 871.31 80.2661 871.206 80.9941 870.699V876.952H78.8231V878.031ZM88.9444 878.187C90.9724 878.187 92.1164 877.199 92.1164 875.197C92.1164 873.299 91.0764 872.259 89.2824 872.259C88.4894 872.259 87.8394 872.467 87.3194 872.883L87.4884 870.27H91.7134V869.191H86.4614L86.1624 873.975H87.2154C87.7354 873.52 88.3074 873.299 89.0224 873.299C90.2704 873.299 90.9724 873.962 90.9724 875.223C90.9724 876.51 90.2444 877.147 88.9314 877.147C87.7484 877.147 87.0334 876.627 86.9944 875.743H85.8764C85.9024 877.264 86.9814 878.187 88.9444 878.187Z" fill="#003E6B"/>
<path d="M78.8231 930.221H84.3091V929.142H82.1381V921.381H81.0461C80.4611 922.135 79.6811 922.473 78.5631 922.512V923.526C79.4341 923.5 80.2661 923.396 80.9941 922.889V929.142H78.8231V930.221ZM88.9314 930.377C90.9074 930.377 91.9734 929.35 91.9734 927.439V924.163C91.9734 922.252 90.9074 921.225 88.9314 921.225C86.9554 921.225 85.8894 922.252 85.8894 924.163V927.439C85.8894 929.35 86.9554 930.377 88.9314 930.377ZM88.9314 929.337C87.6574 929.337 87.0334 928.687 87.0334 927.361V924.241C87.0334 922.915 87.6574 922.265 88.9314 922.265C90.2054 922.265 90.8294 922.915 90.8294 924.241V927.361C90.8294 928.687 90.2054 929.337 88.9314 929.337Z" fill="#003E6B"/>
<path d="M82.3201 749.742H83.4641V747.714H84.5041V746.674H83.4641V740.902H82.1641L77.7701 746.609V747.714H82.3201V749.742ZM79.0571 746.674L82.3201 742.384V746.674H79.0571ZM88.9444 749.898C90.9724 749.898 92.1164 748.91 92.1164 746.908C92.1164 745.01 91.0764 743.97 89.2824 743.97C88.4894 743.97 87.8394 744.178 87.3194 744.594L87.4884 741.981H91.7134V740.902H86.4614L86.1624 745.686H87.2154C87.7354 745.231 88.3074 745.01 89.0224 745.01C90.2704 745.01 90.9724 745.673 90.9724 746.934C90.9724 748.221 90.2444 748.858 88.9314 748.858C87.7484 748.858 87.0334 748.338 86.9944 747.454H85.8764C85.9024 748.975 86.9814 749.898 88.9444 749.898Z" fill="#003E6B"/>
<path d="M54.6365 589.453H61.0565V587.818H56.4665V579.253H54.6365V589.453ZM64.7139 589.633C65.8089 589.633 66.6189 589.228 67.2039 588.433L67.2639 589.453H68.7939V584.413C68.7939 582.418 67.7889 581.488 65.6439 581.488C63.5889 581.488 62.5389 582.358 62.4189 584.068H64.1589C64.2039 583.333 64.6689 582.943 65.5839 582.943C66.5589 582.943 66.9939 583.408 66.9939 584.398V584.743H65.3439C63.2289 584.743 62.1939 585.628 62.1939 587.233C62.1939 588.763 63.1539 589.633 64.7139 589.633ZM65.1639 588.178C64.3839 588.178 63.9789 587.803 63.9789 587.128C63.9789 586.408 64.4139 586.033 65.5839 586.033H66.9939V586.993C66.6039 587.773 65.9889 588.178 65.1639 588.178ZM73.3388 589.633C74.3888 589.633 75.1538 589.243 75.7688 588.373L75.8288 589.453H77.3588V578.503H75.5588V582.478C74.9738 581.788 74.2688 581.488 73.3388 581.488C71.5388 581.488 70.5188 582.598 70.5188 584.713V586.423C70.5188 588.538 71.5388 589.633 73.3388 589.633ZM73.6988 588.133C72.8138 588.133 72.3188 587.563 72.3188 586.393V584.728C72.3188 583.543 72.8138 582.988 73.6838 582.988C74.5238 582.988 75.1538 583.498 75.5588 584.443V586.678C75.1538 587.623 74.5238 588.133 73.6988 588.133ZM82.0399 589.633C83.0899 589.633 83.8549 589.243 84.4699 588.373L84.5299 589.453H86.0599V578.503H84.2599V582.478C83.6749 581.788 82.9699 581.488 82.0399 581.488C80.2399 581.488 79.2199 582.598 79.2199 584.713V586.423C79.2199 588.538 80.2399 589.633 82.0399 589.633ZM82.3999 588.133C81.5149 588.133 81.0199 587.563 81.0199 586.393V584.728C81.0199 583.543 81.5149 582.988 82.3849 582.988C83.2249 582.988 83.8549 583.498 84.2599 584.443V586.678C83.8549 587.623 83.2249 588.133 82.3999 588.133ZM91.3861 589.633C93.3961 589.633 94.5511 588.763 94.6411 587.098H92.9161C92.8561 587.773 92.3311 588.178 91.3861 588.178C90.2311 588.178 89.7211 587.593 89.7211 586.333V586.093H94.6861V584.803C94.6861 582.658 93.5161 581.488 91.2961 581.488C89.1061 581.488 87.9211 582.643 87.9211 584.788V586.318C87.9211 588.493 89.1211 589.633 91.3861 589.633ZM89.7211 584.758C89.7211 583.498 90.2161 582.943 91.3561 582.943C92.4811 582.943 92.9761 583.498 92.9761 584.758H89.7211ZM96.5128 589.453H98.3128V584.983C98.5528 583.738 99.1678 583.228 100.368 583.228H100.773V581.518H100.218C99.1228 581.518 98.4628 582.013 98.1178 583.093L98.0428 581.668H96.5128V589.453ZM109.55 591.403V590.023C108.05 589.303 107.3 587.593 107.3 584.863C107.3 582.133 108.05 580.423 109.55 579.703V578.323C107.03 578.983 105.605 581.353 105.605 584.863C105.605 588.373 107.03 590.743 109.55 591.403ZM110.912 589.453H112.712V587.323L113.792 586.138L115.847 589.453H117.947L115.067 584.833L117.902 581.668H115.742L112.712 585.073V578.503H110.912V589.453ZM119.148 589.453H122.823C125.523 589.453 126.738 588.208 126.738 585.463V583.243C126.738 580.513 125.523 579.253 122.823 579.253H119.148V589.453ZM120.978 587.848V580.858H122.568C124.278 580.858 124.908 581.518 124.908 583.273V585.433C124.908 587.188 124.278 587.848 122.568 587.848H120.978ZM130.72 589.633C131.815 589.633 132.625 589.228 133.21 588.433L133.27 589.453H134.8V584.413C134.8 582.418 133.795 581.488 131.65 581.488C129.595 581.488 128.545 582.358 128.425 584.068H130.165C130.21 583.333 130.675 582.943 131.59 582.943C132.565 582.943 133 583.408 133 584.398V584.743H131.35C129.235 584.743 128.2 585.628 128.2 587.233C128.2 588.763 129.16 589.633 130.72 589.633ZM131.17 588.178C130.39 588.178 129.985 587.803 129.985 587.128C129.985 586.408 130.42 586.033 131.59 586.033H133V586.993C132.61 587.773 131.995 588.178 131.17 588.178ZM136.03 591.403C138.55 590.743 139.975 588.373 139.975 584.863C139.975 581.353 138.55 578.983 136.03 578.323V579.703C137.53 580.423 138.28 582.133 138.28 584.863C138.28 587.593 137.53 589.303 136.03 590.023V591.403Z" fill="#003E6B"/>
<path d="M168.361 589.453H170.251L172.171 582.208L174.076 589.453H175.966L178.591 579.253H176.776L174.991 586.723L173.041 579.253H171.346L169.396 586.693L167.626 579.253H165.736L168.361 589.453ZM179.85 580.423H181.77V578.728H179.85V580.423ZM179.91 589.453H181.71V581.668H179.91V589.453ZM183.894 589.453H185.694V578.503H183.894V589.453ZM190.368 589.633C191.418 589.633 192.183 589.243 192.798 588.373L192.858 589.453H194.388V578.503H192.588V582.478C192.003 581.788 191.298 581.488 190.368 581.488C188.568 581.488 187.548 582.598 187.548 584.713V586.423C187.548 588.538 188.568 589.633 190.368 589.633ZM190.728 588.133C189.843 588.133 189.348 587.563 189.348 586.393V584.728C189.348 583.543 189.843 582.988 190.713 582.988C191.553 582.988 192.183 583.498 192.588 584.443V586.678C192.183 587.623 191.553 588.133 190.728 588.133ZM202.834 589.453H204.259V587.998H203.389C202.624 587.998 202.429 587.758 202.429 586.903V583.063H204.184V581.668H202.429V579.673H200.779L200.659 581.668H199.399V583.063H200.629V586.963C200.629 588.718 201.289 589.453 202.834 589.453ZM205.423 592.183H206.383C207.763 592.183 208.288 591.748 208.798 590.248L211.693 581.668H209.878L208.273 586.978L206.548 581.668H204.628L207.343 589.243L207.088 590.038C206.908 590.578 206.698 590.728 206.188 590.728H205.423V592.183ZM212.898 592.183H214.698V588.658C215.283 589.333 215.988 589.633 216.918 589.633C218.703 589.633 219.738 588.523 219.738 586.408V584.698C219.738 582.583 218.703 581.488 216.918 581.488C215.868 581.488 215.103 581.878 214.488 582.733L214.428 581.668H212.898V592.183ZM216.573 588.133C215.748 588.133 215.118 587.638 214.698 586.708V584.398C215.118 583.483 215.748 582.988 216.558 582.988C217.443 582.988 217.938 583.558 217.938 584.728V586.393C217.938 587.578 217.443 588.133 216.573 588.133ZM224.734 589.633C226.744 589.633 227.899 588.763 227.989 587.098H226.264C226.204 587.773 225.679 588.178 224.734 588.178C223.579 588.178 223.069 587.593 223.069 586.333V586.093H228.034V584.803C228.034 582.658 226.864 581.488 224.644 581.488C222.454 581.488 221.269 582.643 221.269 584.788V586.318C221.269 588.493 222.469 589.633 224.734 589.633ZM223.069 584.758C223.069 583.498 223.564 582.943 224.704 582.943C225.829 582.943 226.324 583.498 226.324 584.758H223.069Z" fill="#003E6B"/>
<path d="M266.343 589.453H268.173V585.703H270.288C272.778 585.703 273.843 584.758 273.843 582.493C273.843 580.228 272.778 579.253 270.288 579.253H266.343V589.453ZM268.173 584.113V580.858H270.138C271.488 580.858 272.013 581.323 272.013 582.478C272.013 583.648 271.488 584.113 270.138 584.113H268.173ZM277.475 589.633C278.57 589.633 279.38 589.228 279.965 588.433L280.025 589.453H281.555V584.413C281.555 582.418 280.55 581.488 278.405 581.488C276.35 581.488 275.3 582.358 275.18 584.068H276.92C276.965 583.333 277.43 582.943 278.345 582.943C279.32 582.943 279.755 583.408 279.755 584.398V584.743H278.105C275.99 584.743 274.955 585.628 274.955 587.233C274.955 588.763 275.915 589.633 277.475 589.633ZM277.925 588.178C277.145 588.178 276.74 587.803 276.74 587.128C276.74 586.408 277.175 586.033 278.345 586.033H279.755V586.993C279.365 587.773 278.75 588.178 277.925 588.178ZM283.61 589.453H285.41V584.398C285.845 583.513 286.415 583.078 287.15 583.078C287.9 583.078 288.26 583.513 288.26 584.473V589.453H290.06V584.308C290.06 582.448 289.235 581.488 287.615 581.488C286.595 581.488 285.83 581.863 285.2 582.733L285.14 581.668H283.61V589.453ZM295.165 589.633C297.235 589.633 298.345 588.613 298.39 586.603H296.665C296.605 587.668 296.14 588.133 295.18 588.133C294.13 588.133 293.635 587.578 293.635 586.303V584.818C293.635 583.543 294.13 582.988 295.18 582.988C296.14 582.988 296.605 583.453 296.665 584.503H298.39C298.345 582.493 297.235 581.488 295.165 581.488C292.975 581.488 291.835 582.613 291.835 584.788V586.318C291.835 588.508 292.975 589.633 295.165 589.633ZM300.001 589.453H301.801V584.983C302.041 583.738 302.656 583.228 303.856 583.228H304.261V581.518H303.706C302.611 581.518 301.951 582.013 301.606 583.093L301.531 581.668H300.001V589.453ZM308.644 589.633C310.654 589.633 311.809 588.763 311.899 587.098H310.174C310.114 587.773 309.589 588.178 308.644 588.178C307.489 588.178 306.979 587.593 306.979 586.333V586.093H311.944V584.803C311.944 582.658 310.774 581.488 308.554 581.488C306.364 581.488 305.179 582.643 305.179 584.788V586.318C305.179 588.493 306.379 589.633 308.644 589.633ZM306.979 584.758C306.979 583.498 307.474 582.943 308.614 582.943C309.739 582.943 310.234 583.498 310.234 584.758H306.979ZM315.825 589.633C316.92 589.633 317.73 589.228 318.315 588.433L318.375 589.453H319.905V584.413C319.905 582.418 318.9 581.488 316.755 581.488C314.7 581.488 313.65 582.358 313.53 584.068H315.27C315.315 583.333 315.78 582.943 316.695 582.943C317.67 582.943 318.105 583.408 318.105 584.398V584.743H316.455C314.34 584.743 313.305 585.628 313.305 587.233C313.305 588.763 314.265 589.633 315.825 589.633ZM316.275 588.178C315.495 588.178 315.09 587.803 315.09 587.128C315.09 586.408 315.525 586.033 316.695 586.033H318.105V586.993C317.715 587.773 317.1 588.178 316.275 588.178ZM324.629 589.633C326.759 589.633 327.824 588.808 327.824 587.173C327.824 585.688 327.059 584.983 325.034 584.758C323.759 584.623 323.294 584.368 323.294 583.753C323.294 583.198 323.759 582.868 324.614 582.868C325.514 582.868 325.934 583.213 325.934 583.933H327.659C327.659 582.328 326.624 581.488 324.629 581.488C322.634 581.488 321.524 582.343 321.524 583.948C321.524 585.388 322.289 586.018 324.269 586.258C325.589 586.423 326.054 586.693 326.054 587.338C326.054 587.938 325.589 588.253 324.629 588.253C323.579 588.253 323.084 587.878 323.084 587.113H321.374C321.374 588.793 322.424 589.633 324.629 589.633Z" fill="#003E6B"/>
<path d="M377.733 589.453H384.723V587.848H379.563V585.043H383.823V583.453H379.563V580.858H384.573V579.253H377.733V589.453ZM388.95 589.633C390 589.633 390.765 589.243 391.38 588.373L391.44 589.453H392.97V578.503H391.17V582.478C390.585 581.788 389.88 581.488 388.95 581.488C387.15 581.488 386.13 582.598 386.13 584.713V586.423C386.13 588.538 387.15 589.633 388.95 589.633ZM389.31 588.133C388.425 588.133 387.93 587.563 387.93 586.393V584.728C387.93 583.543 388.425 582.988 389.295 582.988C390.135 582.988 390.765 583.498 391.17 584.443V586.678C390.765 587.623 390.135 588.133 389.31 588.133ZM395.102 580.423H397.022V578.728H395.102V580.423ZM395.162 589.453H396.962V581.668H395.162V589.453ZM401.636 589.453H403.061V587.998H402.191C401.426 587.998 401.231 587.758 401.231 586.903V583.063H402.986V581.668H401.231V579.673H399.581L399.461 581.668H398.201V583.063H399.431V586.963C399.431 588.718 400.091 589.453 401.636 589.453ZM412.654 589.453H414.454V587.248H415.579V585.718H414.454V579.253H412.489L407.674 585.613V587.248H412.654V589.453ZM409.489 585.718L412.654 581.458V585.718H409.489Z" fill="#003E6B"/>
<path d="M477.8 589.453H484.79V587.848H479.63V585.043H483.89V583.453H479.63V580.858H484.64V579.253H477.8V589.453ZM489.017 589.633C490.067 589.633 490.832 589.243 491.447 588.373L491.507 589.453H493.037V578.503H491.237V582.478C490.652 581.788 489.947 581.488 489.017 581.488C487.217 581.488 486.197 582.598 486.197 584.713V586.423C486.197 588.538 487.217 589.633 489.017 589.633ZM489.377 588.133C488.492 588.133 487.997 587.563 487.997 586.393V584.728C487.997 583.543 488.492 582.988 489.362 582.988C490.202 582.988 490.832 583.498 491.237 584.443V586.678C490.832 587.623 490.202 588.133 489.377 588.133ZM495.168 580.423H497.088V578.728H495.168V580.423ZM495.228 589.453H497.028V581.668H495.228V589.453ZM501.703 589.453H503.128V587.998H502.258C501.493 587.998 501.298 587.758 501.298 586.903V583.063H503.053V581.668H501.298V579.673H499.648L499.528 581.668H498.268V583.063H499.498V586.963C499.498 588.718 500.158 589.453 501.703 589.453ZM509.421 589.453H511.341C511.491 586.033 512.751 583.408 515.316 580.933V579.253H507.936V580.888H513.366C510.906 583.138 509.571 586.003 509.421 589.453Z" fill="#003E6B"/>
<defs>
<linearGradient id="paint0_linear" x1="295.685" y1="0.453125" x2="295.685" y2="984.453" gradientUnits="userSpaceOnUse">
<stop stop-color="#014C91"/>
<stop offset="1" stop-color="#003257"/>
</linearGradient>
</defs>
</svg>
