<svg xmlns="http://www.w3.org/2000/svg" width="591" height="434" fill="none" viewBox="0 0 591 434">
    <rect width="590" height="410" x=".5" y="23.5" fill="#fff" stroke="#668BA6" rx="4.5"/>
    <rect width="272" height="379" x="16" y="39" fill="url(#a)" rx="5"/>
    <rect width="272" height="379" x="304" y="39" fill="url(#b)" rx="5"/>
    <g filter="url(#c)">
        <path fill="#868CA6" d="M153.513 389.152c-3.92 0-9.903-1.437-13.204-2.464-3.3-1.026-5.982-12.934-5.982-12.934-8.665-33.671-20.393-83.214-20.66-113.081-.053-5.919-.001-120.87-.001-120.87H193.278v120.87c0 30.849-13.771 79.41-22.435 113.081 0 0-2.682 11.908-5.983 12.934-3.301 1.027-9.284 2.464-13.204 2.464"/>
        <path fill="#C0C3D2" d="M153.273 385.014c-3.508 0-8.872-1.232-11.76-2.258-2.888-.822-5.364-11.703-5.364-11.703-7.839-30.18-15.791-74.675-18.06-101.16V146.091h70.766s1.238 109.841 0 123.802c-2.27 26.485-12.064 70.774-19.903 100.955 0 0-2.476 10.676-5.364 11.702-2.888.822-8.252 2.259-11.76 2.259" opacity=".7"/>
        <path fill="#868CA6" d="M104.82 139.803h101.726v8.814H104.82z"/>
        <path fill="#00AEEF" d="M153.273 385.014c-3.508 0-8.872-1.232-11.76-2.259-2.888-.821-5.364-11.702-5.364-11.702-7.839-30.181-15.791-74.675-18.06-101.16v-15.509H188.855v15.509c-2.27 26.485-12.064 70.774-19.903 100.954 0 0-2.476 10.677-5.364 11.703-2.888.821-8.252 2.258-11.76 2.258" opacity=".7"/>
        <path fill="#fff" d="M113.667 176.94h79.612v70.512h-79.612z"/>
        <ellipse cx="153.472" cy="212.196" fill="#9771C8" rx="22.114" ry="22.035"/>
        <path fill="#000" fill-opacity=".1" d="M171.164 148.617h22.114v116.825c0 12.98-8.846 54.086-8.846 54.086s-16.724 63.956-17.691 64.902c-.968.947-13.269 2.164-13.269 2.164l17.692-121.152V148.617z"/>
        <path fill="#868CA6" d="M95.975 126.582h114.994v8.814H95.975z"/>
        <path fill="#577898" d="M118.089 135.396h70.766v4.407h-70.766z"/>
        <path fill="#868CA6" fill-rule="evenodd" d="M222.791 131.531c1.107 1.861 1.447 3.98 1.447 6.068 0 2.088-.34 4.207-1.447 6.069-1.17 1.967-2.9 3.154-4.74 3.842-1.723.643-3.624.883-5.424.995-1.797.112-3.848.112-5.98.112h-.101v-8.814c2.255 0 4.038-.002 5.53-.095 1.517-.095 2.38-.268 2.869-.451a1.748 1.748 0 0 0 .251-.115 1.708 1.708 0 0 0 .09-.298c.056-.256.106-.655.106-1.245 0-.59-.05-.988-.106-1.244a1.73 1.73 0 0 0-.09-.299 1.748 1.748 0 0 0-.251-.115c-.489-.182-1.352-.356-2.869-.451-1.492-.093-3.275-.094-5.53-.094v-8.814h.1c2.133 0 4.184 0 5.981.112 1.8.112 3.701.351 5.424.995 1.84.687 3.57 1.874 4.74 3.842z" clip-rule="evenodd"/>
    </g>
    <path fill="#309DCB" d="M124 263h28v10h-28zM156 276h28v10h-28zM129 294h28v10h-28zM138 314h28v10h-28zM145 334h28v10h-28zM139 355h28v10h-28z"/>
    <g filter="url(#d)">
        <path fill="#868CA6" d="M441.513 389.152c-3.92 0-9.903-1.437-13.204-2.464-3.3-1.026-5.982-12.934-5.982-12.934-8.665-33.671-20.393-83.214-20.66-113.081-.053-5.919-.001-120.87-.001-120.87H481.278v120.87c0 30.849-13.771 79.41-22.435 113.081 0 0-2.682 11.908-5.983 12.934-3.301 1.027-9.284 2.464-13.204 2.464"/>
        <path fill="#C0C3D2" d="M441.273 385.014c-3.508 0-8.872-1.232-11.76-2.258-2.888-.822-5.364-11.703-5.364-11.703-7.839-30.18-15.791-74.675-18.06-101.16V146.091h70.766s1.238 109.841 0 123.802c-2.27 26.485-12.064 70.774-19.903 100.955 0 0-2.476 10.676-5.364 11.702-2.888.822-8.252 2.259-11.76 2.259" opacity=".7"/>
        <path fill="#868CA6" d="M392.82 139.803h101.726v8.814H392.82z"/>
        <path fill="#00AEEF" d="M441.273 385.014c-3.508 0-8.872-1.232-11.76-2.259-2.888-.821-5.364-11.702-5.364-11.702-7.839-30.181-15.791-74.675-18.06-101.16v-15.509H476.855v15.509c-2.27 26.485-12.064 70.774-19.903 100.954 0 0-2.476 10.677-5.364 11.703-2.888.821-8.252 2.258-11.76 2.258" opacity=".7"/>
        <path fill="#fff" d="M401.667 176.94h79.612v70.512h-79.612z"/>
        <ellipse cx="441.472" cy="212.196" fill="#9771C8" rx="22.114" ry="22.035"/>
        <path fill="#000" fill-opacity=".1" d="M459.164 148.617h22.114v116.825c0 12.98-8.846 54.086-8.846 54.086s-16.724 63.956-17.691 64.902c-.968.947-13.269 2.164-13.269 2.164l17.692-121.152V148.617z"/>
        <path fill="#868CA6" d="M383.975 126.582h114.994v8.814H383.975z"/>
        <path fill="#577898" d="M406.089 135.396h70.766v4.407h-70.766z"/>
        <path fill="#868CA6" fill-rule="evenodd" d="M510.791 131.531c1.107 1.861 1.447 3.98 1.447 6.068 0 2.088-.34 4.207-1.447 6.069-1.17 1.967-2.9 3.154-4.74 3.842-1.723.643-3.624.883-5.424.995-1.797.112-3.848.112-5.98.112h-.101v-8.814c2.255 0 4.038-.002 5.53-.095 1.517-.095 2.38-.268 2.869-.451a1.748 1.748 0 0 0 .251-.115 1.708 1.708 0 0 0 .09-.298c.056-.256.106-.655.106-1.245 0-.59-.05-.988-.106-1.244a1.73 1.73 0 0 0-.09-.299 1.748 1.748 0 0 0-.251-.115c-.489-.182-1.352-.356-2.869-.451-1.492-.093-3.275-.094-5.53-.094v-8.814h.1c2.133 0 4.184 0 5.981.112 1.8.112 3.701.351 5.424.995 1.84.687 3.57 1.874 4.74 3.842z" clip-rule="evenodd"/>
    </g>
    <circle cx="425" cy="272" r="9" fill="#309DCB"/>
    <circle cx="454" cy="283" r="9" fill="#309DCB"/>
    <circle cx="431" cy="301" r="9" fill="#309DCB"/>
    <circle cx="449" cy="324" r="9" fill="#309DCB"/>
    <circle cx="431" cy="344" r="9" fill="#309DCB"/>
    <circle cx="442" cy="372" r="9" fill="#309DCB"/>
    <defs>
        <filter id="c" width="204.025" height="411" x="79.975" y="0" color-interpolation-filters="sRGB" filterUnits="userSpaceOnUse">
            <feFlood flood-opacity="0" result="BackgroundImageFix"/>
            <feColorMatrix in="SourceAlpha" values="0 0 0 0 0 0 0 0 0 0 0 0 0 0 0 0 0 0 127 0"/>
            <feOffset dy="4"/>
            <feGaussianBlur stdDeviation="8"/>
            <feColorMatrix values="0 0 0 0 0 0 0 0 0 0 0 0 0 0 0 0 0 0 0.25 0"/>
            <feBlend in2="BackgroundImageFix" result="effect1_dropShadow"/>
            <feBlend in="SourceGraphic" in2="effect1_dropShadow" result="shape"/>
        </filter>
        <filter id="d" width="204.025" height="411" x="367.975" y="0" color-interpolation-filters="sRGB" filterUnits="userSpaceOnUse">
            <feFlood flood-opacity="0" result="BackgroundImageFix"/>
            <feColorMatrix in="SourceAlpha" values="0 0 0 0 0 0 0 0 0 0 0 0 0 0 0 0 0 0 127 0"/>
            <feOffset dy="4"/>
            <feGaussianBlur stdDeviation="8"/>
            <feColorMatrix values="0 0 0 0 0 0 0 0 0 0 0 0 0 0 0 0 0 0 0.25 0"/>
            <feBlend in2="BackgroundImageFix" result="effect1_dropShadow"/>
            <feBlend in="SourceGraphic" in2="effect1_dropShadow" result="shape"/>
        </filter>
        <linearGradient id="a" x1="152" x2="152" y1="39" y2="418" gradientUnits="userSpaceOnUse">
            <stop stop-color="#014C91"/>
            <stop offset="1" stop-color="#003257"/>
        </linearGradient>
        <linearGradient id="b" x1="440" x2="440" y1="39" y2="418" gradientUnits="userSpaceOnUse">
            <stop stop-color="#014C91"/>
            <stop offset="1" stop-color="#003257"/>
        </linearGradient>
    </defs>
</svg>
