<svg width="597" height="522" viewBox="0 0 597 522" fill="none" xmlns="http://www.w3.org/2000/svg">
<g clip-path="url(#clip0)">
<g filter="url(#filter0_d)">
<path d="M4 0H593V514H4V0Z" fill="white"/>
<path d="M588 0H9C6.23858 0 4 2.23858 4 5V509C4 511.761 6.23858 514 9 514H588C590.761 514 593 511.761 593 509V5C593 2.23858 590.761 0 588 0Z" fill="url(#paint0_linear)"/>
<path d="M298 0H299V829H298V0Z" fill="white"/>
<path d="M246 92.5H56C45.2304 92.5 36.5 101.23 36.5 112C36.5 122.77 45.2304 131.5 56 131.5H246C256.77 131.5 265.5 122.77 265.5 112C265.5 101.23 256.77 92.5 246 92.5Z" fill="#333333" stroke="#666666"/>
<path d="M80.5039 104.762H82.5349L88.9809 114.879H89.0189V104.762H91.1779V119H89.1369L82.6999 108.883H82.6609V119H80.5029V104.762H80.5039ZM95.5529 114.703C95.5529 115.517 95.7869 116.135 96.2559 116.559C96.6919 116.988 97.2649 117.203 97.9749 117.203C98.8009 117.203 99.5399 116.874 100.191 116.217L101.666 117.477C100.631 118.583 99.4129 119.13 98.0139 119.117C97.4842 119.117 96.9573 119.039 96.4509 118.883C96.1921 118.795 95.9434 118.681 95.7089 118.541C95.4541 118.416 95.2148 118.262 94.9959 118.082C94.5659 117.704 94.2179 117.177 93.9509 116.5C93.6579 115.849 93.5109 115.003 93.5109 113.961C93.5109 112.958 93.6389 112.125 93.8929 111.461C94.1469 110.784 94.4719 110.25 94.8689 109.859C95.252 109.475 95.716 109.181 96.2269 109C96.6961 108.828 97.1914 108.739 97.6909 108.736C98.8509 108.749 99.8309 109.13 100.631 109.879C101.445 110.641 101.858 111.689 101.871 113.023V114.703H95.5529V114.703ZM99.8299 113.023C99.8039 112.236 99.5919 111.64 99.1949 111.236C98.8049 110.852 98.3029 110.66 97.6909 110.66C97.0789 110.66 96.5779 110.852 96.1869 111.236C95.8029 111.64 95.5919 112.236 95.5529 113.023H99.8299V113.023ZM109.713 117.936C109.042 118.697 108.17 119.091 107.096 119.117C106.438 119.104 105.891 118.964 105.455 118.697C104.999 118.443 104.651 118.17 104.41 117.877C104.13 117.517 103.933 117.1 103.834 116.656C103.71 116.181 103.648 115.276 103.648 113.941C103.648 112.581 103.71 111.66 103.834 111.178C103.951 110.702 104.143 110.302 104.41 109.977C104.651 109.658 104.999 109.371 105.455 109.117C105.891 108.876 106.438 108.749 107.096 108.736C108.105 108.736 108.977 109.137 109.713 109.938V108.863H111.754V118.756C111.728 120.279 111.288 121.399 110.436 122.115C109.576 122.851 108.548 123.219 107.35 123.219C105.976 123.193 104.804 122.626 103.834 121.52L105.416 120.26C105.676 120.501 105.976 120.706 106.314 120.875C106.66 121.064 107.018 121.165 107.389 121.178C108.085 121.178 108.645 120.986 109.068 120.602C109.485 120.211 109.7 119.671 109.713 118.98V117.936V117.936ZM105.689 113.941C105.689 114.716 105.715 115.25 105.768 115.543C105.802 115.822 105.913 116.086 106.09 116.305C106.227 116.487 106.435 116.653 106.715 116.803C106.982 116.985 107.314 117.076 107.711 117.076C108.108 117.076 108.44 116.985 108.707 116.803C108.974 116.653 109.176 116.487 109.312 116.305C109.49 116.085 109.608 115.822 109.654 115.543C109.693 115.25 109.713 114.716 109.713 113.941C109.713 113.154 109.693 112.607 109.654 112.301C109.596 111.995 109.482 111.747 109.312 111.559C109.143 111.346 108.938 111.164 108.707 111.021C108.44 110.872 108.108 110.79 107.711 110.777C107.314 110.79 106.982 110.872 106.715 111.021C106.435 111.197 106.227 111.376 106.09 111.559C105.921 111.747 105.813 111.995 105.768 112.301C105.715 112.607 105.689 113.154 105.689 113.941ZM119.723 118.102H119.684C119.49 118.451 119.179 118.721 118.805 118.863C118.414 119.033 117.874 119.117 117.184 119.117C116.051 119.104 115.178 118.805 114.566 118.219C113.922 117.646 113.6 116.913 113.6 116.021C113.6 115.169 113.88 114.462 114.439 113.902C114.999 113.329 115.82 113.036 116.9 113.023H119.723V111.959C119.736 111.067 119.042 110.634 117.643 110.66C117.135 110.66 116.734 110.712 116.441 110.816C116.137 110.938 115.883 111.158 115.719 111.441L114.117 110.221C114.892 109.205 116.035 108.71 117.545 108.736C118.821 108.723 119.84 108.964 120.602 109.459C121.363 109.967 121.751 110.839 121.764 112.076V119H119.723V118.102V118.102ZM119.723 114.703H117.281C116.096 114.729 115.51 115.136 115.523 115.924C115.523 116.269 115.676 116.562 115.982 116.803C116.275 117.07 116.76 117.203 117.438 117.203C118.29 117.216 118.893 117.115 119.244 116.9C119.563 116.686 119.723 116.197 119.723 115.436V114.703V114.703ZM124.518 105.777H126.559V108.863H128.043V110.416H126.559V116.324C126.546 116.839 126.786 117.089 127.281 117.076H128.043V119H126.979C126.262 119 125.676 118.779 125.221 118.336C124.752 117.913 124.518 117.301 124.518 116.5V110.416H123.502V108.863H124.518V105.777V105.777ZM130.025 108.863H132.066V119H130.025V108.863V108.863ZM130.025 104.762H132.066V106.803H130.025V104.762ZM133.336 108.863H135.494L137.877 115.963H137.916L140.289 108.863H142.457L138.736 119H137.057L133.336 108.863V108.863ZM145.084 114.703C145.084 115.517 145.318 116.135 145.787 116.559C146.223 116.988 146.796 117.203 147.506 117.203C148.333 117.203 149.072 116.874 149.723 116.217L151.197 117.477C150.162 118.583 148.945 119.13 147.545 119.117C147.015 119.117 146.488 119.038 145.982 118.883C145.723 118.795 145.474 118.681 145.24 118.541C144.985 118.416 144.746 118.262 144.527 118.082C144.098 117.704 143.749 117.177 143.482 116.5C143.189 115.849 143.043 115.003 143.043 113.961C143.043 112.958 143.17 112.125 143.424 111.461C143.678 110.784 144.003 110.25 144.4 109.859C144.783 109.475 145.247 109.182 145.758 109C146.227 108.828 146.723 108.739 147.223 108.736C148.382 108.749 149.361 109.13 150.162 109.879C150.976 110.641 151.389 111.689 151.402 113.023V114.703H145.084V114.703ZM149.361 113.023C149.335 112.236 149.124 111.64 148.727 111.236C148.336 110.852 147.835 110.66 147.223 110.66C146.611 110.66 146.109 110.852 145.719 111.236C145.335 111.64 145.123 112.236 145.084 113.023H149.361V113.023ZM164.693 114.703C164.693 115.517 164.928 116.135 165.396 116.559C165.833 116.988 166.406 117.203 167.115 117.203C167.942 117.203 168.681 116.874 169.332 116.217L170.807 117.477C169.771 118.583 168.554 119.13 167.154 119.117C166.624 119.117 166.098 119.038 165.592 118.883C165.333 118.796 165.084 118.681 164.85 118.541C164.595 118.416 164.356 118.262 164.137 118.082C163.707 117.704 163.359 117.177 163.092 116.5C162.799 115.849 162.652 115.003 162.652 113.961C162.652 112.958 162.779 112.125 163.033 111.461C163.287 110.784 163.613 110.25 164.01 109.859C164.393 109.475 164.856 109.181 165.367 109C165.836 108.828 166.332 108.739 166.832 108.736C167.991 108.749 168.971 109.13 169.771 109.879C170.585 110.641 170.999 111.689 171.012 113.023V114.703H164.693V114.703ZM168.971 113.023C168.945 112.236 168.733 111.64 168.336 111.236C167.945 110.852 167.444 110.66 166.832 110.66C166.22 110.66 165.719 110.852 165.328 111.236C164.944 111.64 164.732 112.236 164.693 113.023H168.971V113.023ZM173.15 104.762H175.191V116.383C175.191 116.845 175.445 117.076 175.953 117.076H176.656V119H175.748C175.006 119 174.394 118.814 173.912 118.443C173.404 118.066 173.15 117.431 173.15 116.539V104.762V104.762ZM179.85 114.703C179.85 115.517 180.084 116.135 180.553 116.559C180.989 116.988 181.562 117.203 182.271 117.203C183.098 117.203 183.837 116.874 184.488 116.217L185.963 117.477C184.928 118.583 183.71 119.13 182.311 119.117C181.781 119.117 181.254 119.038 180.748 118.883C180.489 118.795 180.24 118.681 180.006 118.541C179.751 118.416 179.512 118.262 179.293 118.082C178.863 117.704 178.515 117.177 178.248 116.5C177.955 115.849 177.809 115.003 177.809 113.961C177.809 112.958 177.936 112.125 178.189 111.461C178.443 110.784 178.769 110.25 179.166 109.859C179.549 109.475 180.012 109.182 180.523 109C180.992 108.828 181.488 108.739 181.988 108.736C183.147 108.749 184.127 109.13 184.928 109.879C185.742 110.641 186.155 111.689 186.168 113.023V114.703H179.85V114.703ZM184.127 113.023C184.101 112.236 183.889 111.64 183.492 111.236C183.102 110.852 182.6 110.66 181.988 110.66C181.376 110.66 180.875 110.852 180.484 111.236C180.1 111.64 179.889 112.236 179.85 113.023H184.127V113.023ZM195.768 117.359C195.328 117.865 194.798 118.285 194.205 118.6C193.606 118.932 192.913 119.104 192.125 119.117C190.927 119.117 189.876 118.71 188.971 117.896C188.033 117.083 187.551 115.764 187.525 113.941C187.551 112.099 188.033 110.764 188.971 109.938C189.876 109.124 190.927 108.723 192.125 108.736C192.913 108.749 193.606 108.912 194.205 109.225C194.804 109.544 195.325 109.97 195.768 110.504L194.264 111.842C193.749 111.158 193.062 110.803 192.203 110.777C190.471 110.751 189.592 111.806 189.566 113.941C189.592 116.064 190.471 117.109 192.203 117.076C193.062 117.063 193.749 116.712 194.264 116.021L195.768 117.359V117.359ZM197.311 105.777H199.352V108.863H200.836V110.416H199.352V116.324C199.339 116.839 199.579 117.089 200.074 117.076H200.836V119H199.771C199.055 119 198.469 118.779 198.014 118.336C197.545 117.913 197.311 117.301 197.311 116.5V110.416H196.295V108.863H197.311V105.777V105.777ZM202.76 108.863H204.801V109.938H204.84C205.51 109.137 206.389 108.736 207.477 108.736C208.256 108.736 209.01 109.014 209.605 109.518L208.121 111.285C207.691 110.947 207.245 110.777 206.783 110.777C206.262 110.777 205.816 110.947 205.445 111.285C205.029 111.617 204.814 112.154 204.801 112.896V119H202.76V108.863V108.863ZM209.684 113.922C209.684 112.854 209.771 112.034 209.947 111.461C210.13 110.901 210.41 110.429 210.787 110.045C211.067 109.706 211.458 109.404 211.959 109.137C212.454 108.883 213.089 108.749 213.863 108.736C214.664 108.749 215.312 108.883 215.807 109.137C216.295 109.404 216.673 109.706 216.939 110.045C217.343 110.429 217.63 110.901 217.799 111.461C217.962 112.034 218.043 112.854 218.043 113.922C218.043 114.99 217.962 115.803 217.799 116.363C217.637 116.911 217.341 117.411 216.939 117.818C216.809 117.968 216.65 118.115 216.461 118.258C216.27 118.435 216.048 118.578 215.807 118.678C215.312 118.958 214.664 119.104 213.863 119.117C213.089 119.104 212.454 118.958 211.959 118.678C211.458 118.424 211.067 118.137 210.787 117.818C210.405 117.399 210.118 116.903 209.947 116.363C209.771 115.803 209.684 114.99 209.684 113.922ZM216.002 113.941C216.002 113.219 215.969 112.691 215.904 112.359C215.844 112.05 215.706 111.761 215.504 111.52C215.339 111.28 215.109 111.093 214.84 110.982C214.534 110.84 214.2 110.77 213.863 110.777C213.518 110.777 213.199 110.846 212.906 110.982C212.638 111.103 212.404 111.288 212.223 111.52C212.047 111.76 211.92 112.04 211.842 112.359C211.764 112.691 211.725 113.212 211.725 113.922C211.725 114.625 211.764 115.139 211.842 115.465C211.92 115.797 212.047 116.09 212.223 116.344C212.398 116.539 212.626 116.712 212.906 116.861C213.199 117.005 213.518 117.076 213.863 117.076C214.234 117.076 214.56 117.005 214.84 116.861C215.133 116.712 215.354 116.539 215.504 116.344C215.707 116.088 215.844 115.786 215.904 115.465C215.969 115.139 216.002 114.632 216.002 113.941V113.941ZM226.246 117.936C225.576 118.697 224.7 119.091 223.619 119.117C223.007 119.104 222.483 118.977 222.047 118.736C221.602 118.511 221.212 118.191 220.904 117.799C220.624 117.48 220.439 117.047 220.348 116.5C220.237 115.979 220.182 115.12 220.182 113.922C220.182 112.704 220.237 111.839 220.348 111.324C220.439 110.803 220.624 110.383 220.904 110.064C221.477 109.212 222.382 108.769 223.619 108.736C224.119 108.731 224.613 108.842 225.064 109.059C225.475 109.286 225.868 109.579 226.246 109.938V104.762H228.287V119H226.246V117.936V117.936ZM224.244 110.777C223.762 110.777 223.395 110.859 223.141 111.021C222.861 111.197 222.656 111.438 222.525 111.744C222.398 112.063 222.316 112.398 222.281 112.74C222.205 113.506 222.205 114.278 222.281 115.045C222.32 115.429 222.402 115.774 222.525 116.08C222.656 116.373 222.861 116.614 223.141 116.803C223.395 116.985 223.762 117.076 224.244 117.076C224.726 117.076 225.107 116.979 225.387 116.783C225.667 116.594 225.859 116.347 225.963 116.041C226.093 115.735 226.181 115.393 226.227 115.016C226.253 114.277 226.253 113.537 226.227 112.799C226.185 112.456 226.096 112.121 225.963 111.803C225.86 111.498 225.657 111.236 225.387 111.061C225.107 110.872 224.726 110.777 224.244 110.777V110.777ZM232.115 114.703C232.115 115.517 232.35 116.135 232.818 116.559C233.255 116.988 233.827 117.203 234.537 117.203C235.364 117.203 236.103 116.874 236.754 116.217L238.229 117.477C237.193 118.583 235.976 119.13 234.576 119.117C234.046 119.117 233.52 119.039 233.014 118.883C232.755 118.795 232.506 118.681 232.271 118.541C232.017 118.416 231.778 118.262 231.559 118.082C231.129 117.704 230.781 117.177 230.514 116.5C230.221 115.849 230.074 115.003 230.074 113.961C230.074 112.958 230.201 112.125 230.455 111.461C230.709 110.784 231.035 110.25 231.432 109.859C231.815 109.475 232.278 109.181 232.789 109C233.258 108.828 233.754 108.739 234.254 108.736C235.413 108.749 236.393 109.13 237.193 109.879C238.007 110.641 238.421 111.689 238.434 113.023V114.703H232.115V114.703ZM236.393 113.023C236.367 112.236 236.155 111.64 235.758 111.236C235.367 110.852 234.866 110.66 234.254 110.66C233.642 110.66 233.141 110.852 232.75 111.236C232.366 111.64 232.154 112.236 232.115 113.023H236.393V113.023Z" fill="white"/>
<path d="M57 127C65.2843 127 72 120.284 72 112C72 103.716 65.2843 97 57 97C48.7157 97 42 103.716 42 112C42 120.284 48.7157 127 57 127Z" fill="white"/>
<path d="M63 110V113.085H51V110H63Z" fill="#333333"/>
<path d="M266 148H36V426H266V148Z" fill="white"/>
<path opacity="0.4" d="M257.14 156.909H45.7361V414.582H257.14V156.909Z" fill="#7CB4D0"/>
<path opacity="0.1" d="M257.14 156.909H45.7361V414.582H257.14V156.909Z" fill="#BCDEEA"/>
<path opacity="0.5" d="M45.737 156.909L36 148V426L45.737 414.582V156.909ZM257.141 414.582L266 426V148L257.141 156.909V414.582Z" fill="#7CB4D0"/>
<path opacity="0.4" d="M266 148H36V426H266V148Z" fill="#7CB4D0"/>
<path opacity="0.8" d="M257.14 414.496H45.737L36 426H266L257.14 414.496Z" fill="#7CB4D0"/>
<path opacity="0.2" d="M50.5039 180.706H112.666V168.441H50.5039V180.706V180.706Z" fill="#3E6E7A"/>
<path opacity="0.2" d="M54.6479 182.75H110.594V170.485H54.6479V182.75Z" fill="#3E6E7A"/>
<path opacity="0.2" d="M54.6479 180.706H110.594V170.485H54.6479V180.706ZM54.6479 170.485L50.5039 168.441V180.706L54.5739 182.75L54.6479 170.485ZM110.594 182.75L112.666 180.706V168.441L110.594 170.485V182.75Z" fill="#3E6E7A"/>
<path opacity="0.5" d="M50.5039 180.706L54.6479 182.75H110.594L112.666 180.706H50.5039Z" fill="white"/>
<path opacity="0.2" d="M120.955 180.706H183.117V168.441H120.955V180.706V180.706Z" fill="#3E6E7A"/>
<path opacity="0.2" d="M125.099 182.75H181.045V170.485H125.099V182.75V182.75Z" fill="#3E6E7A"/>
<path opacity="0.2" d="M125.099 180.706H181.045V170.485H125.099V180.706V180.706ZM125.099 170.485L120.955 168.441V180.706L125.026 182.75L125.099 170.485V170.485Z" fill="#3E6E7A"/>
<path opacity="0.2" d="M181.045 182.75L183.117 180.706V168.441L181.045 170.485V182.75Z" fill="#3E6E7A"/>
<path opacity="0.5" d="M120.955 180.706L125.099 182.75H181.045L183.117 180.706H120.955V180.706Z" fill="white"/>
<path opacity="0.2" d="M191.404 180.706H253.566V168.441H191.404V180.706V180.706Z" fill="#3E6E7A"/>
<path opacity="0.2" d="M195.548 182.75H251.494V170.485H195.548V182.75Z" fill="#3E6E7A"/>
<path opacity="0.2" d="M195.548 180.706H251.494V170.485H195.548V180.706ZM195.548 170.485L191.404 168.441V180.706L195.475 182.75L195.548 170.485ZM251.494 182.75L253.566 180.706V168.441L251.494 170.485V182.75Z" fill="#3E6E7A"/>
<path opacity="0.5" d="M191.404 180.706L195.548 182.75H251.494L253.566 180.706H191.404Z" fill="white"/>
<path d="M246 442.5H56C45.2304 442.5 36.5 451.23 36.5 462C36.5 472.77 45.2304 481.5 56 481.5H246C256.77 481.5 265.5 472.77 265.5 462C265.5 451.23 256.77 442.5 246 442.5Z" fill="#B30000" stroke="#C00000"/>
<path d="M82.6619 461.402H85.8559C86.6559 461.389 87.2589 461.142 87.6619 460.66C88.0459 460.191 88.2379 459.671 88.2379 459.098C88.2379 458.622 88.1599 458.222 88.0039 457.896C87.8441 457.606 87.6074 457.366 87.3199 457.203C86.8779 456.923 86.3629 456.79 85.7769 456.803H82.6619V461.402ZM80.5039 454.762H85.6599C86.2199 454.762 86.7599 454.814 87.2809 454.918C87.8019 455.055 88.3289 455.335 88.8629 455.758C89.3129 456.077 89.6769 456.533 89.9569 457.125C90.2499 457.698 90.3969 458.375 90.3969 459.156C90.3969 460.211 90.0249 461.171 89.2829 462.037C88.5219 462.949 87.4079 463.417 85.9429 463.443H82.6629V469H80.5029V454.762H80.5039ZM91.3039 463.922C91.3039 462.854 91.3929 462.034 91.5679 461.461C91.7509 460.901 92.0309 460.429 92.4079 460.045C92.6879 459.706 93.0779 459.404 93.5799 459.137C94.0749 458.883 94.7099 458.749 95.4839 458.736C96.2849 458.749 96.9329 458.883 97.4279 459.137C97.9159 459.404 98.2939 459.706 98.5609 460.045C98.9639 460.429 99.2509 460.901 99.4199 461.461C99.5829 462.034 99.6639 462.854 99.6639 463.922C99.6639 464.99 99.5829 465.803 99.4199 466.363C99.2574 466.911 98.962 467.411 98.5599 467.818C98.4299 467.968 98.2699 468.115 98.0819 468.258C97.9119 468.421 97.6949 468.561 97.4279 468.678C96.9329 468.958 96.2849 469.104 95.4839 469.117C94.7099 469.104 94.0739 468.958 93.5799 468.678C93.0789 468.424 92.6879 468.137 92.4079 467.818C92.0255 467.4 91.7389 466.903 91.5679 466.363C91.3929 465.803 91.3049 464.99 91.3049 463.922H91.3039ZM97.6229 463.941C97.6229 463.219 97.5909 462.691 97.5249 462.359C97.4648 462.05 97.3271 461.761 97.1249 461.52C96.9605 461.28 96.7298 461.093 96.4609 460.982C96.1552 460.84 95.821 460.77 95.4839 460.777C95.1389 460.777 94.8199 460.846 94.5269 460.982C94.2469 461.113 94.0189 461.292 93.8439 461.52C93.6679 461.76 93.5409 462.04 93.4629 462.359C93.3849 462.691 93.3459 463.212 93.3459 463.922C93.3459 464.625 93.3849 465.139 93.4629 465.465C93.5409 465.797 93.6679 466.09 93.8429 466.344C94.0189 466.539 94.2469 466.712 94.5269 466.861C94.8199 467.005 95.1389 467.076 95.4839 467.076C95.8559 467.076 96.1809 467.005 96.4609 466.861C96.7539 466.712 96.9749 466.539 97.1249 466.344C97.3269 466.09 97.4599 465.797 97.5249 465.465C97.5909 465.139 97.6229 464.632 97.6229 463.941V463.941ZM102.105 465.904C102.932 466.77 104 467.203 105.309 467.203C105.895 467.203 106.373 467.089 106.744 466.861C107.115 466.633 107.301 466.314 107.301 465.904C107.301 465.54 107.19 465.286 106.969 465.143C106.741 464.993 106.438 464.911 106.061 464.898L104.264 464.742C103.411 464.664 102.717 464.378 102.184 463.883C101.637 463.401 101.357 462.727 101.344 461.861C101.357 460.82 101.725 460.038 102.447 459.518C103.15 458.997 104.042 458.736 105.123 458.736C105.592 458.736 106.012 458.766 106.383 458.824C106.754 458.889 107.102 458.98 107.428 459.098C108.041 459.344 108.608 459.69 109.107 460.123L107.848 461.598C107.462 461.32 107.045 461.088 106.607 460.904C106.178 460.742 105.683 460.66 105.123 460.66C104.485 460.66 104.039 460.774 103.785 461.002C103.518 461.23 103.385 461.523 103.385 461.881C103.372 462.109 103.473 462.307 103.688 462.477C103.883 462.665 104.228 462.786 104.723 462.838L106.402 462.965C107.457 463.043 108.219 463.362 108.688 463.922C109.124 464.469 109.342 465.162 109.342 466.002C109.329 466.985 108.928 467.743 108.141 468.277C107.359 468.824 106.36 469.104 105.143 469.117C103.489 469.117 102.001 468.512 100.68 467.301L102.105 465.904V465.904ZM111.471 458.863H113.512V469H111.471V458.863V458.863ZM111.471 454.762H113.512V456.803H111.471V454.762ZM116.334 455.777H118.375V458.863H119.859V460.416H118.375V466.324C118.362 466.839 118.603 467.089 119.098 467.076H119.859V469H118.795C118.079 469 117.493 468.779 117.037 468.336C116.568 467.913 116.334 467.301 116.334 466.5V460.416H115.318V458.863H116.334V455.777V455.777ZM121.842 458.863H123.883V469H121.842V458.863V458.863ZM121.842 454.762H123.883V456.803H121.842V454.762ZM125.152 458.863H127.311L129.693 465.963H129.732L132.105 458.863H134.273L130.553 469H128.873L125.152 458.863V458.863ZM136.9 464.703C136.9 465.517 137.135 466.135 137.604 466.559C138.04 466.988 138.613 467.203 139.322 467.203C140.149 467.203 140.888 466.874 141.539 466.217L143.014 467.477C141.979 468.583 140.761 469.13 139.361 469.117C138.831 469.117 138.305 469.038 137.799 468.883C137.54 468.795 137.291 468.681 137.057 468.541C136.802 468.416 136.563 468.262 136.344 468.082C135.914 467.704 135.566 467.177 135.299 466.5C135.006 465.849 134.859 465.003 134.859 463.961C134.859 462.958 134.986 462.125 135.24 461.461C135.494 460.784 135.82 460.25 136.217 459.859C136.6 459.475 137.063 459.181 137.574 459C138.043 458.828 138.539 458.739 139.039 458.736C140.198 458.749 141.178 459.13 141.979 459.879C142.792 460.641 143.206 461.689 143.219 463.023V464.703H136.9V464.703ZM141.178 463.023C141.152 462.236 140.94 461.64 140.543 461.236C140.152 460.852 139.651 460.66 139.039 460.66C138.427 460.66 137.926 460.852 137.535 461.236C137.151 461.64 136.939 462.236 136.9 463.023H141.178V463.023ZM156.51 464.703C156.51 465.517 156.744 466.135 157.213 466.559C157.649 466.988 158.222 467.203 158.932 467.203C159.758 467.203 160.497 466.874 161.148 466.217L162.623 467.477C161.588 468.583 160.37 469.13 158.971 469.117C158.441 469.117 157.914 469.038 157.408 468.883C157.149 468.795 156.9 468.681 156.666 468.541C156.411 468.416 156.172 468.262 155.953 468.082C155.523 467.704 155.175 467.177 154.908 466.5C154.615 465.849 154.469 465.003 154.469 463.961C154.469 462.958 154.596 462.125 154.85 461.461C155.104 460.784 155.429 460.25 155.826 459.859C156.209 459.475 156.673 459.181 157.184 459C157.653 458.828 158.148 458.739 158.648 458.736C159.807 458.749 160.787 459.13 161.588 459.879C162.402 460.641 162.815 461.689 162.828 463.023V464.703H156.51V464.703ZM160.787 463.023C160.761 462.236 160.549 461.64 160.152 461.236C159.762 460.852 159.26 460.66 158.648 460.66C158.036 460.66 157.535 460.852 157.145 461.236C156.76 461.64 156.549 462.236 156.51 463.023H160.787V463.023ZM164.967 454.762H167.008V466.383C167.008 466.845 167.262 467.076 167.77 467.076H168.473V469H167.564C166.822 469 166.21 468.814 165.729 468.443C165.221 468.066 164.967 467.431 164.967 466.539V454.762ZM171.666 464.703C171.666 465.517 171.9 466.135 172.369 466.559C172.805 466.988 173.378 467.203 174.088 467.203C174.915 467.203 175.654 466.874 176.305 466.217L177.779 467.477C176.744 468.583 175.527 469.13 174.127 469.117C173.597 469.117 173.07 469.038 172.564 468.883C172.305 468.795 172.057 468.681 171.822 468.541C171.567 468.416 171.328 468.262 171.109 468.082C170.68 467.704 170.331 467.177 170.064 466.5C169.771 465.849 169.625 465.003 169.625 463.961C169.625 462.958 169.752 462.125 170.006 461.461C170.26 460.784 170.585 460.25 170.982 459.859C171.365 459.475 171.829 459.182 172.34 459C172.809 458.828 173.305 458.739 173.805 458.736C174.964 458.749 175.943 459.13 176.744 459.879C177.558 460.641 177.971 461.689 177.984 463.023V464.703H171.666V464.703ZM175.943 463.023C175.917 462.236 175.706 461.64 175.309 461.236C174.918 460.852 174.417 460.66 173.805 460.66C173.193 460.66 172.691 460.852 172.301 461.236C171.917 461.64 171.705 462.236 171.666 463.023H175.943V463.023ZM187.584 467.359C187.144 467.865 186.614 468.286 186.021 468.6C185.423 468.932 184.729 469.104 183.941 469.117C182.743 469.117 181.692 468.71 180.787 467.896C179.85 467.083 179.368 465.764 179.342 463.941C179.368 462.099 179.85 460.764 180.787 459.938C181.692 459.124 182.743 458.723 183.941 458.736C184.729 458.749 185.423 458.912 186.021 459.225C186.62 459.544 187.141 459.97 187.584 460.504L186.08 461.842C185.566 461.158 184.879 460.803 184.02 460.777C182.288 460.751 181.409 461.806 181.383 463.941C181.409 466.064 182.288 467.109 184.02 467.076C184.879 467.063 185.566 466.712 186.08 466.021L187.584 467.359ZM189.127 455.777H191.168V458.863H192.652V460.416H191.168V466.324C191.155 466.839 191.396 467.089 191.891 467.076H192.652V469H191.588C190.872 469 190.286 468.779 189.83 468.336C189.361 467.913 189.127 467.301 189.127 466.5V460.416H188.111V458.863H189.127V455.777ZM194.576 458.863H196.617V459.938H196.656C197.327 459.137 198.206 458.736 199.293 458.736C200.073 458.736 200.827 459.013 201.422 459.518L199.938 461.285C199.508 460.947 199.062 460.777 198.6 460.777C198.079 460.777 197.633 460.947 197.262 461.285C196.845 461.617 196.63 462.154 196.617 462.896V469H194.576V458.863V458.863ZM201.5 463.922C201.5 462.854 201.588 462.034 201.764 461.461C201.946 460.901 202.226 460.429 202.604 460.045C202.883 459.706 203.274 459.404 203.775 459.137C204.27 458.883 204.905 458.749 205.68 458.736C206.48 458.749 207.128 458.883 207.623 459.137C208.111 459.404 208.489 459.706 208.756 460.045C209.16 460.429 209.446 460.901 209.615 461.461C209.778 462.034 209.859 462.854 209.859 463.922C209.859 464.99 209.778 465.803 209.615 466.363C209.453 466.911 209.158 467.411 208.756 467.818C208.626 467.968 208.466 468.115 208.277 468.258C208.085 468.435 207.864 468.578 207.623 468.678C207.128 468.958 206.48 469.104 205.68 469.117C204.905 469.104 204.27 468.958 203.775 468.678C203.274 468.424 202.883 468.137 202.604 467.818C202.221 467.4 201.935 466.903 201.764 466.363C201.588 465.803 201.5 464.99 201.5 463.922ZM207.818 463.941C207.818 463.219 207.786 462.691 207.721 462.359C207.661 462.05 207.523 461.761 207.32 461.52C207.156 461.28 206.925 461.093 206.656 460.982C206.35 460.84 206.017 460.77 205.68 460.777C205.335 460.777 205.016 460.846 204.723 460.982C204.443 461.113 204.215 461.292 204.039 461.52C203.863 461.76 203.736 462.04 203.658 462.359C203.58 462.691 203.541 463.212 203.541 463.922C203.541 464.625 203.58 465.139 203.658 465.465C203.736 465.797 203.863 466.09 204.039 466.344C204.215 466.539 204.443 466.712 204.723 466.861C205.016 467.005 205.335 467.076 205.68 467.076C206.051 467.076 206.376 467.005 206.656 466.861C206.949 466.712 207.171 466.539 207.32 466.344C207.523 466.088 207.661 465.786 207.721 465.465C207.786 465.139 207.818 464.632 207.818 463.941ZM218.062 467.936C217.392 468.697 216.516 469.091 215.436 469.117C214.824 469.104 214.299 468.977 213.863 468.736C213.419 468.51 213.029 468.191 212.721 467.799C212.441 467.48 212.255 467.047 212.164 466.5C212.053 465.979 211.998 465.12 211.998 463.922C211.998 462.704 212.053 461.839 212.164 461.324C212.255 460.803 212.441 460.383 212.721 460.064C213.294 459.212 214.199 458.769 215.436 458.736C215.956 458.736 216.438 458.844 216.881 459.059C217.291 459.286 217.685 459.579 218.062 459.938V454.762H220.104V469H218.062V467.936V467.936ZM216.061 460.777C215.579 460.777 215.211 460.859 214.957 461.021C214.681 461.191 214.466 461.444 214.342 461.744C214.215 462.063 214.133 462.398 214.098 462.74C214.059 463.124 214.039 463.518 214.039 463.922C214.039 464.306 214.059 464.68 214.098 465.045C214.137 465.429 214.218 465.774 214.342 466.08C214.472 466.373 214.677 466.614 214.957 466.803C215.211 466.985 215.579 467.076 216.061 467.076C216.542 467.076 216.923 466.979 217.203 466.783C217.483 466.594 217.675 466.347 217.779 466.041C217.91 465.735 217.997 465.393 218.043 465.016C218.069 464.277 218.069 463.538 218.043 462.799C218.002 462.456 217.913 462.121 217.779 461.803C217.676 461.498 217.473 461.236 217.203 461.061C216.923 460.872 216.542 460.777 216.061 460.777V460.777ZM223.932 464.703C223.932 465.517 224.166 466.135 224.635 466.559C225.071 466.988 225.644 467.203 226.354 467.203C227.18 467.203 227.919 466.874 228.57 466.217L230.045 467.477C229.01 468.583 227.792 469.13 226.393 469.117C225.863 469.117 225.336 469.038 224.83 468.883C224.571 468.795 224.322 468.681 224.088 468.541C223.833 468.416 223.594 468.262 223.375 468.082C222.945 467.704 222.597 467.177 222.33 466.5C222.037 465.849 221.891 465.003 221.891 463.961C221.891 462.958 222.018 462.125 222.271 461.461C222.525 460.784 222.851 460.25 223.248 459.859C223.631 459.475 224.094 459.182 224.605 459C225.074 458.828 225.57 458.739 226.07 458.736C227.229 458.749 228.209 459.13 229.01 459.879C229.824 460.641 230.237 461.689 230.25 463.023V464.703H223.932V464.703ZM228.209 463.023C228.183 462.236 227.971 461.64 227.574 461.236C227.184 460.852 226.682 460.66 226.07 460.66C225.458 460.66 224.957 460.852 224.566 461.236C224.182 461.64 223.971 462.236 223.932 463.023H228.209V463.023Z" fill="white"/>
<path d="M56 477C64.2843 477 71 470.284 71 462C71 453.716 64.2843 447 56 447C47.7157 447 41 453.716 41 462C41 470.284 47.7157 477 56 477Z" fill="white"/>
<path d="M54.512 468H57.488V463.388H62V460.612H57.488V456H54.512V460.612H50V463.388H54.512V468Z" fill="#A00000"/>
<path d="M541 92.5H351C340.23 92.5 331.5 101.23 331.5 112C331.5 122.77 340.23 131.5 351 131.5H541C551.77 131.5 560.5 122.77 560.5 112C560.5 101.23 551.77 92.5 541 92.5Z" fill="#333333" stroke="#666666"/>
<path d="M375.504 104.762H377.535L383.98 114.879H384.02V104.762H386.178V119H384.137L377.701 108.883H377.662V119H375.504V104.762V104.762ZM390.553 114.703C390.553 115.517 390.787 116.135 391.256 116.559C391.692 116.988 392.265 117.203 392.975 117.203C393.801 117.203 394.54 116.874 395.191 116.217L396.666 117.477C395.631 118.583 394.413 119.13 393.014 119.117C392.484 119.117 391.957 119.038 391.451 118.883C391.192 118.795 390.943 118.681 390.709 118.541C390.454 118.416 390.215 118.262 389.996 118.082C389.566 117.704 389.218 117.177 388.951 116.5C388.658 115.849 388.512 115.003 388.512 113.961C388.512 112.958 388.639 112.125 388.893 111.461C389.146 110.784 389.472 110.25 389.869 109.859C390.252 109.475 390.716 109.181 391.227 109C391.696 108.828 392.191 108.739 392.691 108.736C393.85 108.749 394.83 109.13 395.631 109.879C396.445 110.641 396.858 111.689 396.871 113.023V114.703H390.553V114.703ZM394.83 113.023C394.804 112.236 394.592 111.64 394.195 111.236C393.805 110.852 393.303 110.66 392.691 110.66C392.079 110.66 391.578 110.852 391.188 111.236C390.803 111.64 390.592 112.236 390.553 113.023H394.83ZM404.713 117.936C404.042 118.697 403.17 119.091 402.096 119.117C401.438 119.104 400.891 118.964 400.455 118.697C399.999 118.443 399.651 118.17 399.41 117.877C399.13 117.517 398.933 117.1 398.834 116.656C398.71 116.181 398.648 115.276 398.648 113.941C398.648 112.581 398.71 111.66 398.834 111.178C398.951 110.702 399.143 110.302 399.41 109.977C399.651 109.658 399.999 109.371 400.455 109.117C400.891 108.876 401.438 108.749 402.096 108.736C403.105 108.736 403.977 109.137 404.713 109.938V108.863H406.754V118.756C406.728 120.279 406.288 121.399 405.436 122.115C404.576 122.851 403.548 123.219 402.35 123.219C400.976 123.193 399.804 122.626 398.834 121.52L400.416 120.26C400.676 120.501 400.976 120.706 401.314 120.875C401.66 121.064 402.018 121.165 402.389 121.178C403.085 121.178 403.645 120.986 404.068 120.602C404.485 120.211 404.7 119.671 404.713 118.98V117.936V117.936ZM400.689 113.941C400.689 114.716 400.715 115.25 400.768 115.543C400.802 115.822 400.913 116.086 401.09 116.305C401.227 116.487 401.435 116.653 401.715 116.803C401.982 116.985 402.314 117.076 402.711 117.076C403.108 117.076 403.44 116.985 403.707 116.803C403.974 116.653 404.176 116.487 404.312 116.305C404.49 116.085 404.608 115.822 404.654 115.543C404.693 115.25 404.713 114.716 404.713 113.941C404.713 113.154 404.693 112.607 404.654 112.301C404.596 111.995 404.482 111.747 404.312 111.559C404.143 111.346 403.938 111.164 403.707 111.021C403.44 110.872 403.108 110.79 402.711 110.777C402.314 110.79 401.982 110.872 401.715 111.021C401.435 111.197 401.227 111.376 401.09 111.559C400.921 111.747 400.813 111.995 400.768 112.301C400.715 112.607 400.689 113.154 400.689 113.941ZM414.723 118.102H414.684C414.49 118.451 414.179 118.721 413.805 118.863C413.414 119.033 412.874 119.117 412.184 119.117C411.051 119.104 410.178 118.805 409.566 118.219C408.922 117.646 408.6 116.913 408.6 116.021C408.6 115.169 408.88 114.462 409.439 113.902C409.999 113.329 410.82 113.036 411.9 113.023H414.723V111.959C414.736 111.067 414.042 110.634 412.643 110.66C412.135 110.66 411.734 110.712 411.441 110.816C411.137 110.938 410.883 111.158 410.719 111.441L409.117 110.221C409.892 109.205 411.035 108.71 412.545 108.736C413.821 108.723 414.84 108.964 415.602 109.459C416.363 109.967 416.751 110.839 416.764 112.076V119H414.723V118.102V118.102ZM414.723 114.703H412.281C411.096 114.729 410.51 115.136 410.523 115.924C410.523 116.269 410.676 116.562 410.982 116.803C411.275 117.07 411.76 117.203 412.438 117.203C413.29 117.216 413.893 117.115 414.244 116.9C414.563 116.686 414.723 116.197 414.723 115.436V114.703V114.703ZM419.518 105.777H421.559V108.863H423.043V110.416H421.559V116.324C421.546 116.839 421.786 117.089 422.281 117.076H423.043V119H421.979C421.262 119 420.676 118.779 420.221 118.336C419.752 117.913 419.518 117.301 419.518 116.5V110.416H418.502V108.863H419.518V105.777V105.777ZM425.025 108.863H427.066V119H425.025V108.863V108.863ZM425.025 104.762H427.066V106.803H425.025V104.762ZM428.336 108.863H430.494L432.877 115.963H432.916L435.289 108.863H437.457L433.736 119H432.057L428.336 108.863V108.863ZM440.084 114.703C440.084 115.517 440.318 116.135 440.787 116.559C441.223 116.988 441.796 117.203 442.506 117.203C443.333 117.203 444.072 116.874 444.723 116.217L446.197 117.477C445.162 118.583 443.945 119.13 442.545 119.117C442.015 119.117 441.488 119.038 440.982 118.883C440.723 118.795 440.474 118.681 440.24 118.541C439.985 118.416 439.746 118.262 439.527 118.082C439.098 117.704 438.749 117.177 438.482 116.5C438.189 115.849 438.043 115.003 438.043 113.961C438.043 112.958 438.17 112.125 438.424 111.461C438.678 110.784 439.003 110.25 439.4 109.859C439.783 109.475 440.247 109.182 440.758 109C441.227 108.828 441.723 108.739 442.223 108.736C443.382 108.749 444.361 109.13 445.162 109.879C445.976 110.641 446.389 111.689 446.402 113.023V114.703H440.084V114.703ZM444.361 113.023C444.335 112.236 444.124 111.64 443.727 111.236C443.336 110.852 442.835 110.66 442.223 110.66C441.611 110.66 441.109 110.852 440.719 111.236C440.335 111.64 440.123 112.236 440.084 113.023H444.361V113.023ZM459.693 114.703C459.693 115.517 459.928 116.135 460.396 116.559C460.833 116.988 461.406 117.203 462.115 117.203C462.942 117.203 463.681 116.874 464.332 116.217L465.807 117.477C464.771 118.583 463.554 119.13 462.154 119.117C461.624 119.117 461.098 119.038 460.592 118.883C460.333 118.796 460.084 118.681 459.85 118.541C459.595 118.416 459.356 118.262 459.137 118.082C458.707 117.704 458.359 117.177 458.092 116.5C457.799 115.849 457.652 115.003 457.652 113.961C457.652 112.958 457.779 112.125 458.033 111.461C458.287 110.784 458.613 110.25 459.01 109.859C459.393 109.475 459.856 109.181 460.367 109C460.836 108.828 461.332 108.739 461.832 108.736C462.991 108.749 463.971 109.13 464.771 109.879C465.585 110.641 465.999 111.689 466.012 113.023V114.703H459.693V114.703ZM463.971 113.023C463.945 112.236 463.733 111.64 463.336 111.236C462.945 110.852 462.444 110.66 461.832 110.66C461.22 110.66 460.719 110.852 460.328 111.236C459.944 111.64 459.732 112.236 459.693 113.023H463.971ZM468.15 104.762H470.191V116.383C470.191 116.845 470.445 117.076 470.953 117.076H471.656V119H470.748C470.006 119 469.394 118.814 468.912 118.443C468.404 118.066 468.15 117.431 468.15 116.539V104.762V104.762ZM474.85 114.703C474.85 115.517 475.084 116.135 475.553 116.559C475.989 116.988 476.562 117.203 477.271 117.203C478.098 117.203 478.837 116.874 479.488 116.217L480.963 117.477C479.928 118.583 478.71 119.13 477.311 119.117C476.781 119.117 476.254 119.038 475.748 118.883C475.489 118.795 475.24 118.681 475.006 118.541C474.751 118.416 474.512 118.262 474.293 118.082C473.863 117.704 473.515 117.177 473.248 116.5C472.955 115.849 472.809 115.003 472.809 113.961C472.809 112.958 472.936 112.125 473.189 111.461C473.443 110.784 473.769 110.25 474.166 109.859C474.549 109.475 475.012 109.182 475.523 109C475.992 108.828 476.488 108.739 476.988 108.736C478.147 108.749 479.127 109.13 479.928 109.879C480.742 110.641 481.155 111.689 481.168 113.023V114.703H474.85V114.703ZM479.127 113.023C479.101 112.236 478.889 111.64 478.492 111.236C478.102 110.852 477.6 110.66 476.988 110.66C476.376 110.66 475.875 110.852 475.484 111.236C475.1 111.64 474.889 112.236 474.85 113.023H479.127V113.023ZM490.768 117.359C490.328 117.865 489.798 118.285 489.205 118.6C488.606 118.932 487.913 119.104 487.125 119.117C485.927 119.117 484.876 118.71 483.971 117.896C483.033 117.083 482.551 115.764 482.525 113.941C482.551 112.099 483.033 110.764 483.971 109.938C484.876 109.124 485.927 108.723 487.125 108.736C487.913 108.749 488.606 108.912 489.205 109.225C489.804 109.544 490.325 109.97 490.768 110.504L489.264 111.842C488.749 111.158 488.062 110.803 487.203 110.777C485.471 110.751 484.592 111.806 484.566 113.941C484.592 116.064 485.471 117.109 487.203 117.076C488.062 117.063 488.749 116.712 489.264 116.021L490.768 117.359V117.359ZM492.311 105.777H494.352V108.863H495.836V110.416H494.352V116.324C494.339 116.839 494.579 117.089 495.074 117.076H495.836V119H494.771C494.055 119 493.469 118.779 493.014 118.336C492.545 117.913 492.311 117.301 492.311 116.5V110.416H491.295V108.863H492.311V105.777V105.777ZM497.76 108.863H499.801V109.938H499.84C500.51 109.137 501.389 108.736 502.477 108.736C503.256 108.736 504.01 109.014 504.605 109.518L503.121 111.285C502.691 110.947 502.245 110.777 501.783 110.777C501.262 110.777 500.816 110.947 500.445 111.285C500.029 111.617 499.814 112.154 499.801 112.896V119H497.76V108.863V108.863ZM504.684 113.922C504.684 112.854 504.771 112.034 504.947 111.461C505.13 110.901 505.41 110.429 505.787 110.045C506.067 109.706 506.458 109.404 506.959 109.137C507.454 108.883 508.089 108.749 508.863 108.736C509.664 108.749 510.312 108.883 510.807 109.137C511.295 109.404 511.673 109.706 511.939 110.045C512.343 110.429 512.63 110.901 512.799 111.461C512.962 112.034 513.043 112.854 513.043 113.922C513.043 114.99 512.962 115.803 512.799 116.363C512.637 116.911 512.341 117.411 511.939 117.818C511.809 117.968 511.65 118.115 511.461 118.258C511.269 118.435 511.048 118.578 510.807 118.678C510.312 118.958 509.664 119.104 508.863 119.117C508.089 119.104 507.454 118.958 506.959 118.678C506.458 118.424 506.067 118.137 505.787 117.818C505.405 117.399 505.118 116.903 504.947 116.363C504.771 115.803 504.684 114.99 504.684 113.922V113.922ZM511.002 113.941C511.002 113.219 510.969 112.691 510.904 112.359C510.844 112.05 510.706 111.761 510.504 111.52C510.339 111.28 510.109 111.093 509.84 110.982C509.534 110.84 509.2 110.77 508.863 110.777C508.518 110.777 508.199 110.846 507.906 110.982C507.638 111.103 507.403 111.288 507.223 111.52C507.047 111.76 506.92 112.04 506.842 112.359C506.764 112.691 506.725 113.212 506.725 113.922C506.725 114.625 506.764 115.139 506.842 115.465C506.92 115.797 507.047 116.09 507.223 116.344C507.398 116.539 507.626 116.712 507.906 116.861C508.199 117.005 508.518 117.076 508.863 117.076C509.234 117.076 509.56 117.005 509.84 116.861C510.133 116.712 510.354 116.539 510.504 116.344C510.707 116.088 510.844 115.786 510.904 115.465C510.969 115.139 511.002 114.632 511.002 113.941V113.941ZM521.246 117.936C520.576 118.697 519.7 119.091 518.619 119.117C518.007 119.104 517.483 118.977 517.047 118.736C516.602 118.511 516.212 118.191 515.904 117.799C515.624 117.48 515.439 117.047 515.348 116.5C515.237 115.979 515.182 115.12 515.182 113.922C515.182 112.704 515.237 111.839 515.348 111.324C515.439 110.803 515.624 110.383 515.904 110.064C516.477 109.212 517.382 108.769 518.619 108.736C519.119 108.731 519.613 108.842 520.064 109.059C520.475 109.286 520.868 109.579 521.246 109.938V104.762H523.287V119H521.246V117.936V117.936ZM519.244 110.777C518.762 110.777 518.395 110.859 518.141 111.021C517.861 111.197 517.656 111.438 517.525 111.744C517.398 112.063 517.316 112.398 517.281 112.74C517.205 113.506 517.205 114.278 517.281 115.045C517.32 115.429 517.402 115.774 517.525 116.08C517.656 116.373 517.861 116.614 518.141 116.803C518.395 116.985 518.762 117.076 519.244 117.076C519.726 117.076 520.107 116.979 520.387 116.783C520.667 116.594 520.859 116.347 520.963 116.041C521.093 115.735 521.181 115.393 521.227 115.016C521.253 114.277 521.253 113.537 521.227 112.799C521.185 112.456 521.096 112.121 520.963 111.803C520.86 111.498 520.657 111.236 520.387 111.061C520.107 110.872 519.726 110.777 519.244 110.777V110.777ZM527.115 114.703C527.115 115.517 527.35 116.135 527.818 116.559C528.255 116.988 528.827 117.203 529.537 117.203C530.364 117.203 531.103 116.874 531.754 116.217L533.229 117.477C532.193 118.583 530.976 119.13 529.576 119.117C529.046 119.117 528.52 119.039 528.014 118.883C527.755 118.795 527.506 118.681 527.271 118.541C527.016 118.416 526.778 118.262 526.559 118.082C526.129 117.704 525.781 117.177 525.514 116.5C525.221 115.849 525.074 115.003 525.074 113.961C525.074 112.958 525.201 112.125 525.455 111.461C525.709 110.784 526.035 110.25 526.432 109.859C526.815 109.475 527.278 109.181 527.789 109C528.258 108.828 528.754 108.739 529.254 108.736C530.413 108.749 531.393 109.13 532.193 109.879C533.007 110.641 533.421 111.689 533.434 113.023V114.703H527.115V114.703ZM531.393 113.023C531.367 112.236 531.155 111.64 530.758 111.236C530.367 110.852 529.866 110.66 529.254 110.66C528.642 110.66 528.141 110.852 527.75 111.236C527.366 111.64 527.154 112.236 527.115 113.023H531.393Z" fill="white"/>
<path d="M352 127C360.284 127 367 120.284 367 112C367 103.716 360.284 97 352 97C343.716 97 337 103.716 337 112C337 120.284 343.716 127 352 127Z" fill="white"/>
<path d="M358 110V113.085H346V110H358Z" fill="#333333"/>
<path d="M561 148H331V426H561V148Z" fill="white"/>
<path opacity="0.4" d="M552.14 156.909H340.736V414.582H552.14V156.909Z" fill="#7CB4D0"/>
<path opacity="0.1" d="M552.14 156.909H340.736V414.582H552.14V156.909Z" fill="#BCDEEA"/>
<path opacity="0.5" d="M340.737 156.909L331 148V426L340.737 414.582V156.909ZM552.141 414.582L561 426V148L552.141 156.909V414.582Z" fill="#7CB4D0"/>
<path opacity="0.4" d="M561 148H331V426H561V148Z" fill="#7CB4D0"/>
<path opacity="0.8" d="M552.14 414.496H340.737L331 426H561L552.14 414.496Z" fill="#7CB4D0"/>
<path opacity="0.2" d="M345.504 180.706H407.666V168.441H345.504V180.706V180.706Z" fill="#3E6E7A"/>
<path opacity="0.2" d="M349.648 182.75H405.594V170.485H349.648V182.75Z" fill="#3E6E7A"/>
<path opacity="0.2" d="M349.648 180.706H405.594V170.485H349.648V180.706ZM349.648 170.485L345.504 168.441V180.706L349.575 182.75L349.648 170.485Z" fill="#3E6E7A"/>
<path opacity="0.2" d="M405.594 182.75L407.666 180.706V168.441L405.594 170.485V182.75Z" fill="#3E6E7A"/>
<path opacity="0.5" d="M345.504 180.706L349.648 182.75H405.594L407.666 180.706H345.504V180.706Z" fill="white"/>
<path opacity="0.2" d="M415.955 180.706H478.117V168.441H415.955V180.706V180.706Z" fill="#3E6E7A"/>
<path opacity="0.2" d="M420.099 182.75H476.045V170.485H420.099V182.75V182.75Z" fill="#3E6E7A"/>
<path opacity="0.2" d="M420.099 180.706H476.045V170.485H420.099V180.706V180.706Z" fill="#3E6E7A"/>
<path opacity="0.2" d="M420.099 170.485L415.955 168.441V180.706L420.026 182.75L420.099 170.485ZM476.045 182.75L478.117 180.706V168.441L476.045 170.485V182.75Z" fill="#3E6E7A"/>
<path opacity="0.5" d="M415.955 180.706L420.099 182.75H476.045L478.117 180.706H415.955Z" fill="white"/>
<path opacity="0.2" d="M486.404 180.706H548.566V168.441H486.404V180.706V180.706Z" fill="#3E6E7A"/>
<path opacity="0.2" d="M490.548 182.75H546.494V170.485H490.548V182.75Z" fill="#3E6E7A"/>
<path opacity="0.2" d="M490.548 180.706H546.494V170.485H490.548V180.706ZM490.548 170.485L486.404 168.441V180.706L490.475 182.75L490.548 170.485ZM546.494 182.75L548.566 180.706V168.441L546.494 170.485V182.75Z" fill="#3E6E7A"/>
<path opacity="0.5" d="M486.404 180.706L490.548 182.75H546.494L548.566 180.706H486.404V180.706Z" fill="white"/>
<path d="M541 442.5H351C340.23 442.5 331.5 451.23 331.5 462C331.5 472.77 340.23 481.5 351 481.5H541C551.77 481.5 560.5 472.77 560.5 462C560.5 451.23 551.77 442.5 541 442.5Z" fill="#B30000" stroke="#C00000"/>
<path d="M377.662 461.402H380.855C381.656 461.389 382.258 461.142 382.662 460.66C383.046 460.191 383.238 459.671 383.238 459.098C383.238 458.622 383.16 458.222 383.004 457.896C382.844 457.606 382.607 457.367 382.32 457.203C381.878 456.923 381.363 456.79 380.777 456.803H377.662V461.402ZM375.504 454.762H380.66C381.22 454.762 381.76 454.814 382.281 454.918C382.802 455.055 383.329 455.335 383.863 455.758C384.312 456.077 384.677 456.533 384.957 457.125C385.25 457.698 385.396 458.375 385.396 459.156C385.396 460.211 385.025 461.171 384.283 462.037C383.521 462.949 382.408 463.417 380.943 463.443H377.662V469H375.504V454.762ZM386.305 463.922C386.305 462.854 386.393 462.034 386.568 461.461C386.751 460.901 387.031 460.429 387.408 460.045C387.688 459.706 388.079 459.404 388.58 459.137C389.075 458.883 389.71 458.749 390.484 458.736C391.285 458.749 391.933 458.883 392.428 459.137C392.916 459.404 393.294 459.706 393.561 460.045C393.964 460.429 394.251 460.901 394.42 461.461C394.583 462.034 394.664 462.854 394.664 463.922C394.664 464.99 394.583 465.803 394.42 466.363C394.258 466.911 393.962 467.411 393.561 467.818C393.43 467.968 393.271 468.115 393.082 468.258C392.89 468.435 392.669 468.578 392.428 468.678C391.933 468.958 391.285 469.104 390.484 469.117C389.71 469.104 389.075 468.958 388.58 468.678C388.079 468.424 387.688 468.137 387.408 467.818C387.026 467.399 386.739 466.903 386.568 466.363C386.393 465.803 386.305 464.99 386.305 463.922ZM392.623 463.941C392.623 463.219 392.59 462.691 392.525 462.359C392.465 462.05 392.327 461.761 392.125 461.52C391.96 461.28 391.73 461.093 391.461 460.982C391.155 460.84 390.821 460.77 390.484 460.777C390.139 460.777 389.82 460.846 389.527 460.982C389.247 461.113 389.02 461.292 388.844 461.52C388.668 461.76 388.541 462.04 388.463 462.359C388.385 462.691 388.346 463.212 388.346 463.922C388.346 464.625 388.385 465.139 388.463 465.465C388.541 465.797 388.668 466.09 388.844 466.344C389.02 466.539 389.247 466.712 389.527 466.861C389.82 467.005 390.139 467.076 390.484 467.076C390.855 467.076 391.181 467.005 391.461 466.861C391.754 466.712 391.975 466.539 392.125 466.344C392.328 466.088 392.465 465.786 392.525 465.465C392.59 465.139 392.623 464.632 392.623 463.941ZM397.105 465.904C397.932 466.77 399 467.203 400.309 467.203C400.895 467.203 401.373 467.089 401.744 466.861C402.115 466.633 402.301 466.314 402.301 465.904C402.301 465.54 402.19 465.286 401.969 465.143C401.741 464.993 401.438 464.911 401.061 464.898L399.264 464.742C398.411 464.664 397.717 464.378 397.184 463.883C396.637 463.401 396.357 462.727 396.344 461.861C396.357 460.82 396.725 460.038 397.447 459.518C398.15 458.997 399.042 458.736 400.123 458.736C400.592 458.736 401.012 458.766 401.383 458.824C401.754 458.889 402.102 458.98 402.428 459.098C403.041 459.344 403.608 459.69 404.107 460.123L402.848 461.598C402.462 461.32 402.045 461.088 401.607 460.904C401.178 460.742 400.683 460.66 400.123 460.66C399.485 460.66 399.039 460.774 398.785 461.002C398.518 461.23 398.385 461.523 398.385 461.881C398.372 462.109 398.473 462.307 398.688 462.477C398.883 462.665 399.228 462.786 399.723 462.838L401.402 462.965C402.457 463.043 403.219 463.362 403.688 463.922C404.124 464.469 404.342 465.162 404.342 466.002C404.329 466.985 403.928 467.743 403.141 468.277C402.359 468.824 401.36 469.104 400.143 469.117C398.489 469.117 397.001 468.512 395.68 467.301L397.105 465.904V465.904ZM406.471 458.863H408.512V469H406.471V458.863V458.863ZM406.471 454.762H408.512V456.803H406.471V454.762ZM411.334 455.777H413.375V458.863H414.859V460.416H413.375V466.324C413.362 466.839 413.603 467.089 414.098 467.076H414.859V469H413.795C413.079 469 412.493 468.779 412.037 468.336C411.568 467.913 411.334 467.301 411.334 466.5V460.416H410.318V458.863H411.334V455.777V455.777ZM416.842 458.863H418.883V469H416.842V458.863V458.863ZM416.842 454.762H418.883V456.803H416.842V454.762ZM420.152 458.863H422.311L424.693 465.963H424.732L427.105 458.863H429.273L425.553 469H423.873L420.152 458.863V458.863ZM431.9 464.703C431.9 465.517 432.135 466.135 432.604 466.559C433.04 466.988 433.613 467.203 434.322 467.203C435.149 467.203 435.888 466.874 436.539 466.217L438.014 467.477C436.979 468.583 435.761 469.13 434.361 469.117C433.831 469.117 433.305 469.038 432.799 468.883C432.54 468.795 432.291 468.681 432.057 468.541C431.802 468.416 431.563 468.262 431.344 468.082C430.914 467.704 430.566 467.177 430.299 466.5C430.006 465.849 429.859 465.003 429.859 463.961C429.859 462.958 429.986 462.125 430.24 461.461C430.494 460.784 430.82 460.25 431.217 459.859C431.6 459.475 432.063 459.181 432.574 459C433.043 458.828 433.539 458.739 434.039 458.736C435.198 458.749 436.178 459.13 436.979 459.879C437.792 460.641 438.206 461.689 438.219 463.023V464.703H431.9V464.703ZM436.178 463.023C436.152 462.236 435.94 461.64 435.543 461.236C435.152 460.852 434.651 460.66 434.039 460.66C433.427 460.66 432.926 460.852 432.535 461.236C432.151 461.64 431.939 462.236 431.9 463.023H436.178ZM451.51 464.703C451.51 465.517 451.744 466.135 452.213 466.559C452.649 466.988 453.222 467.203 453.932 467.203C454.758 467.203 455.497 466.874 456.148 466.217L457.623 467.477C456.588 468.583 455.37 469.13 453.971 469.117C453.441 469.117 452.914 469.038 452.408 468.883C452.149 468.795 451.9 468.681 451.666 468.541C451.411 468.416 451.172 468.262 450.953 468.082C450.523 467.704 450.175 467.177 449.908 466.5C449.615 465.849 449.469 465.003 449.469 463.961C449.469 462.958 449.596 462.125 449.85 461.461C450.104 460.784 450.429 460.25 450.826 459.859C451.209 459.475 451.673 459.181 452.184 459C452.653 458.828 453.148 458.739 453.648 458.736C454.807 458.749 455.787 459.13 456.588 459.879C457.402 460.641 457.815 461.689 457.828 463.023V464.703H451.51V464.703ZM455.787 463.023C455.761 462.236 455.549 461.64 455.152 461.236C454.762 460.852 454.26 460.66 453.648 460.66C453.036 460.66 452.535 460.852 452.145 461.236C451.76 461.64 451.549 462.236 451.51 463.023H455.787ZM459.967 454.762H462.008V466.383C462.008 466.845 462.262 467.076 462.77 467.076H463.473V469H462.564C461.822 469 461.21 468.814 460.729 468.443C460.221 468.066 459.967 467.431 459.967 466.539V454.762ZM466.666 464.703C466.666 465.517 466.9 466.135 467.369 466.559C467.805 466.988 468.378 467.203 469.088 467.203C469.915 467.203 470.654 466.874 471.305 466.217L472.779 467.477C471.744 468.583 470.527 469.13 469.127 469.117C468.597 469.117 468.07 469.038 467.564 468.883C467.305 468.795 467.056 468.681 466.822 468.541C466.567 468.416 466.328 468.262 466.109 468.082C465.68 467.704 465.331 467.177 465.064 466.5C464.771 465.849 464.625 465.003 464.625 463.961C464.625 462.958 464.752 462.125 465.006 461.461C465.26 460.784 465.585 460.25 465.982 459.859C466.365 459.475 466.829 459.182 467.34 459C467.809 458.828 468.305 458.739 468.805 458.736C469.964 458.749 470.943 459.13 471.744 459.879C472.558 460.641 472.971 461.689 472.984 463.023V464.703H466.666V464.703ZM470.943 463.023C470.917 462.236 470.706 461.64 470.309 461.236C469.918 460.852 469.417 460.66 468.805 460.66C468.193 460.66 467.691 460.852 467.301 461.236C466.917 461.64 466.705 462.236 466.666 463.023H470.943V463.023ZM482.584 467.359C482.144 467.865 481.614 468.286 481.021 468.6C480.423 468.932 479.729 469.104 478.941 469.117C477.743 469.117 476.692 468.71 475.787 467.896C474.85 467.083 474.368 465.764 474.342 463.941C474.368 462.099 474.85 460.764 475.787 459.938C476.692 459.124 477.743 458.723 478.941 458.736C479.729 458.749 480.423 458.912 481.021 459.225C481.62 459.544 482.141 459.97 482.584 460.504L481.08 461.842C480.566 461.158 479.879 460.803 479.02 460.777C477.288 460.751 476.409 461.806 476.383 463.941C476.409 466.064 477.288 467.109 479.02 467.076C479.879 467.063 480.566 466.712 481.08 466.021L482.584 467.359ZM484.127 455.777H486.168V458.863H487.652V460.416H486.168V466.324C486.155 466.839 486.396 467.089 486.891 467.076H487.652V469H486.588C485.872 469 485.286 468.779 484.83 468.336C484.361 467.913 484.127 467.301 484.127 466.5V460.416H483.111V458.863H484.127V455.777V455.777ZM489.576 458.863H491.617V459.938H491.656C492.327 459.137 493.206 458.736 494.293 458.736C495.073 458.736 495.827 459.013 496.422 459.518L494.938 461.285C494.508 460.947 494.062 460.777 493.6 460.777C493.079 460.777 492.633 460.947 492.262 461.285C491.845 461.617 491.63 462.154 491.617 462.896V469H489.576V458.863ZM496.5 463.922C496.5 462.854 496.588 462.034 496.764 461.461C496.946 460.901 497.226 460.429 497.604 460.045C497.883 459.706 498.274 459.404 498.775 459.137C499.27 458.883 499.905 458.749 500.68 458.736C501.48 458.749 502.128 458.883 502.623 459.137C503.111 459.404 503.489 459.706 503.756 460.045C504.16 460.429 504.446 460.901 504.615 461.461C504.778 462.034 504.859 462.854 504.859 463.922C504.859 464.99 504.778 465.803 504.615 466.363C504.453 466.911 504.158 467.411 503.756 467.818C503.626 467.968 503.466 468.115 503.277 468.258C503.085 468.435 502.864 468.578 502.623 468.678C502.128 468.958 501.48 469.104 500.68 469.117C499.905 469.104 499.27 468.958 498.775 468.678C498.274 468.424 497.883 468.137 497.604 467.818C497.221 467.4 496.935 466.903 496.764 466.363C496.588 465.803 496.5 464.99 496.5 463.922ZM502.818 463.941C502.818 463.219 502.786 462.691 502.721 462.359C502.661 462.05 502.523 461.761 502.32 461.52C502.156 461.28 501.925 461.093 501.656 460.982C501.35 460.84 501.017 460.77 500.68 460.777C500.335 460.777 500.016 460.846 499.723 460.982C499.443 461.113 499.215 461.292 499.039 461.52C498.863 461.76 498.736 462.04 498.658 462.359C498.58 462.691 498.541 463.212 498.541 463.922C498.541 464.625 498.58 465.139 498.658 465.465C498.736 465.797 498.863 466.09 499.039 466.344C499.215 466.539 499.443 466.712 499.723 466.861C500.016 467.005 500.335 467.076 500.68 467.076C501.051 467.076 501.376 467.005 501.656 466.861C501.949 466.712 502.171 466.539 502.32 466.344C502.523 466.088 502.661 465.786 502.721 465.465C502.786 465.139 502.818 464.632 502.818 463.941ZM513.062 467.936C512.392 468.697 511.516 469.091 510.436 469.117C509.824 469.104 509.299 468.977 508.863 468.736C508.419 468.51 508.029 468.191 507.721 467.799C507.441 467.48 507.255 467.047 507.164 466.5C507.053 465.979 506.998 465.12 506.998 463.922C506.998 462.704 507.053 461.839 507.164 461.324C507.255 460.803 507.441 460.383 507.721 460.064C508.294 459.212 509.199 458.769 510.436 458.736C510.956 458.736 511.438 458.844 511.881 459.059C512.291 459.286 512.685 459.579 513.062 459.938V454.762H515.104V469H513.062V467.936V467.936ZM511.061 460.777C510.579 460.777 510.211 460.859 509.957 461.021C509.681 461.191 509.466 461.444 509.342 461.744C509.215 462.063 509.133 462.398 509.098 462.74C509.059 463.124 509.039 463.518 509.039 463.922C509.039 464.306 509.059 464.68 509.098 465.045C509.137 465.429 509.218 465.774 509.342 466.08C509.472 466.373 509.677 466.614 509.957 466.803C510.211 466.985 510.579 467.076 511.061 467.076C511.542 467.076 511.923 466.979 512.203 466.783C512.483 466.594 512.675 466.347 512.779 466.041C512.91 465.735 512.997 465.393 513.043 465.016C513.069 464.277 513.069 463.538 513.043 462.799C513.002 462.456 512.913 462.121 512.779 461.803C512.676 461.498 512.473 461.236 512.203 461.061C511.923 460.872 511.542 460.777 511.061 460.777V460.777ZM518.932 464.703C518.932 465.517 519.166 466.135 519.635 466.559C520.071 466.988 520.644 467.203 521.354 467.203C522.18 467.203 522.919 466.874 523.57 466.217L525.045 467.477C524.01 468.583 522.792 469.13 521.393 469.117C520.863 469.117 520.336 469.038 519.83 468.883C519.571 468.795 519.322 468.681 519.088 468.541C518.833 468.416 518.594 468.262 518.375 468.082C517.945 467.704 517.597 467.177 517.33 466.5C517.037 465.849 516.891 465.003 516.891 463.961C516.891 462.958 517.018 462.125 517.271 461.461C517.525 460.784 517.851 460.25 518.248 459.859C518.631 459.475 519.094 459.182 519.605 459C520.074 458.828 520.57 458.739 521.07 458.736C522.229 458.749 523.209 459.13 524.01 459.879C524.824 460.641 525.237 461.689 525.25 463.023V464.703H518.932V464.703ZM523.209 463.023C523.183 462.236 522.971 461.64 522.574 461.236C522.184 460.852 521.682 460.66 521.07 460.66C520.458 460.66 519.957 460.852 519.566 461.236C519.182 461.64 518.971 462.236 518.932 463.023H523.209Z" fill="white"/>
<path d="M351 477C359.284 477 366 470.284 366 462C366 453.716 359.284 447 351 447C342.716 447 336 453.716 336 462C336 470.284 342.716 477 351 477Z" fill="white"/>
<path d="M349.512 468H352.488V463.388H357V460.612H352.488V456H349.512V460.612H345V463.388H349.512V468Z" fill="#A00000"/>
</g>
<path d="M42.156 40.4146H37.62V60.0146H40.7V52.6506H42.156C45.236 52.6506 46.748 50.9426 46.748 47.8066V45.2586C46.748 42.1226 45.236 40.4146 42.156 40.4146ZM42.156 43.2146C43.136 43.2146 43.668 43.6626 43.668 45.0626V48.0026C43.668 49.4026 43.136 49.8506 42.156 49.8506H40.7V43.2146H42.156ZM57.8874 60.0146C57.5794 59.2866 57.5514 58.5866 57.5514 57.6346V54.6106C57.5514 52.5666 57.0474 51.0826 55.5074 50.4386C56.8794 49.7946 57.5234 48.4786 57.5234 46.4626V44.9226C57.5234 41.8986 56.1514 40.4146 52.9594 40.4146H48.3114V60.0146H51.3914V52.0346H52.4554C53.8554 52.0346 54.4714 52.7066 54.4714 54.5266V57.6066C54.4714 59.2026 54.5834 59.5106 54.7514 60.0146H57.8874ZM52.8754 43.2146C53.9674 43.2146 54.4434 43.8306 54.4434 45.2306V47.1626C54.4434 48.7306 53.7434 49.2346 52.5954 49.2346H51.3914V43.2146H52.8754ZM62.657 43.2146H67.977V40.4146H59.577V60.0146H67.977V57.2146H62.657V51.4746H66.885V48.6746H62.657V43.2146ZM69.8856 60.0146H74.7576C77.8376 60.0146 79.3496 58.3066 79.3496 55.1706V45.2586C79.3496 42.1226 77.8376 40.4146 74.7576 40.4146H69.8856V60.0146ZM74.7016 43.2146C75.6816 43.2146 76.2696 43.7186 76.2696 45.1186V55.3106C76.2696 56.7106 75.6816 57.2146 74.7016 57.2146H72.9656V43.2146H74.7016ZM81.3153 60.0146H84.3953V40.4146H81.3153V60.0146ZM92.6673 52.7066V55.5066C92.6673 56.9066 92.0513 57.4106 91.0713 57.4106C90.0913 57.4106 89.4753 56.9066 89.4753 55.5066V44.9226C89.4753 43.5226 90.0913 42.9906 91.0713 42.9906C92.0513 42.9906 92.6673 43.5226 92.6673 44.9226V47.0226H95.5793V45.1186C95.5793 41.9826 94.0113 40.1906 90.9873 40.1906C87.9633 40.1906 86.3953 41.9826 86.3953 45.1186V55.3106C86.3953 58.4466 87.9633 60.2386 90.9873 60.2386C94.0113 60.2386 95.5793 58.4466 95.5793 55.3106V52.7066H92.6673ZM96.5521 43.2146H99.7721V60.0146H102.852V43.2146H106.072V40.4146H96.5521V43.2146ZM110.509 43.2146H115.829V40.4146H107.429V60.0146H115.829V57.2146H110.509V51.4746H114.737V48.6746H110.509V43.2146ZM117.737 60.0146H122.609C125.689 60.0146 127.201 58.3066 127.201 55.1706V45.2586C127.201 42.1226 125.689 40.4146 122.609 40.4146H117.737V60.0146ZM122.553 43.2146C123.533 43.2146 124.121 43.7186 124.121 45.1186V55.3106C124.121 56.7106 123.533 57.2146 122.553 57.2146H120.817V43.2146H122.553ZM143.091 60.0146C142.783 59.2866 142.755 58.5866 142.755 57.6346V54.6106C142.755 52.5666 142.251 51.0826 140.711 50.4386C142.083 49.7946 142.727 48.4786 142.727 46.4626V44.9226C142.727 41.8986 141.355 40.4146 138.163 40.4146H133.515V60.0146H136.595V52.0346H137.659C139.059 52.0346 139.675 52.7066 139.675 54.5266V57.6066C139.675 59.2026 139.787 59.5106 139.955 60.0146H143.091ZM138.079 43.2146C139.171 43.2146 139.647 43.8306 139.647 45.2306V47.1626C139.647 48.7306 138.947 49.2346 137.799 49.2346H136.595V43.2146H138.079ZM147.86 43.2146H153.18V40.4146H144.78V60.0146H153.18V57.2146H147.86V51.4746H152.088V48.6746H147.86V43.2146ZM154.697 45.1186C154.697 50.7186 160.717 51.4746 160.717 55.5066C160.717 56.9066 160.101 57.4106 159.121 57.4106C158.141 57.4106 157.525 56.9066 157.525 55.5066V54.1066H154.613V55.3106C154.613 58.4466 156.181 60.2386 159.205 60.2386C162.229 60.2386 163.797 58.4466 163.797 55.3106C163.797 49.7106 157.777 48.9546 157.777 44.9226C157.777 43.5226 158.337 42.9906 159.317 42.9906C160.297 42.9906 160.857 43.5226 160.857 44.9226V45.7346H163.769V45.1186C163.769 41.9826 162.229 40.1906 159.233 40.1906C156.237 40.1906 154.697 41.9826 154.697 45.1186ZM165.421 40.4146V55.3386C165.421 58.4746 166.989 60.2666 170.013 60.2666C173.037 60.2666 174.605 58.4746 174.605 55.3386V40.4146H171.693V55.5346C171.693 56.9346 171.077 57.4386 170.097 57.4386C169.117 57.4386 168.501 56.9346 168.501 55.5346V40.4146H165.421ZM176.718 60.0146H184.866V57.2146H179.798V40.4146H176.718V60.0146ZM183.915 43.2146H187.135V60.0146H190.215V43.2146H193.435V40.4146H183.915V43.2146ZM194.4 45.1186C194.4 50.7186 200.42 51.4746 200.42 55.5066C200.42 56.9066 199.804 57.4106 198.824 57.4106C197.844 57.4106 197.228 56.9066 197.228 55.5066V54.1066H194.316V55.3106C194.316 58.4466 195.884 60.2386 198.908 60.2386C201.932 60.2386 203.5 58.4466 203.5 55.3106C203.5 49.7106 197.48 48.9546 197.48 44.9226C197.48 43.5226 198.04 42.9906 199.02 42.9906C200 42.9906 200.56 43.5226 200.56 44.9226V45.7346H203.472V45.1186C203.472 41.9826 201.932 40.1906 198.936 40.1906C195.94 40.1906 194.4 41.9826 194.4 45.1186Z" fill="white"/>
<path d="M338.952 38.4146H334.444L331.308 58.0146H334.136L334.668 54.4586H338.448L338.98 58.0146H342.088L338.952 38.4146ZM336.544 41.8866L338.028 51.7986H335.06L336.544 41.8866ZM349.542 50.7066V53.5066C349.542 54.9066 348.926 55.4106 347.946 55.4106C346.966 55.4106 346.35 54.9066 346.35 53.5066V42.9226C346.35 41.5226 346.966 40.9906 347.946 40.9906C348.926 40.9906 349.542 41.5226 349.542 42.9226V45.0226H352.454V43.1186C352.454 39.9826 350.886 38.1906 347.862 38.1906C344.838 38.1906 343.27 39.9826 343.27 43.1186V53.3106C343.27 56.4466 344.838 58.2386 347.862 58.2386C350.886 58.2386 352.454 56.4466 352.454 53.3106V50.7066H349.542ZM353.427 41.2146H356.647V58.0146H359.727V41.2146H362.947V38.4146H353.427V41.2146ZM364.164 38.4146V53.3386C364.164 56.4746 365.732 58.2666 368.756 58.2666C371.78 58.2666 373.348 56.4746 373.348 53.3386V38.4146H370.436V53.5346C370.436 54.9346 369.82 55.4386 368.84 55.4386C367.86 55.4386 367.244 54.9346 367.244 53.5346V38.4146H364.164ZM382.292 38.4146H377.784L374.648 58.0146H377.476L378.008 54.4586H381.788L382.32 58.0146H385.428L382.292 38.4146ZM379.884 41.8866L381.368 51.7986H378.4L379.884 41.8866ZM386.862 58.0146H395.01V55.2146H389.942V38.4146H386.862V58.0146ZM410.274 58.0146C409.966 57.2866 409.938 56.5866 409.938 55.6346V52.6106C409.938 50.5666 409.434 49.0826 407.894 48.4386C409.266 47.7946 409.91 46.4786 409.91 44.4626V42.9226C409.91 39.8986 408.538 38.4146 405.346 38.4146H400.698V58.0146H403.778V50.0346H404.842C406.242 50.0346 406.858 50.7066 406.858 52.5266V55.6066C406.858 57.2026 406.97 57.5106 407.138 58.0146H410.274ZM405.262 41.2146C406.354 41.2146 406.83 41.8306 406.83 43.2306V45.1626C406.83 46.7306 406.13 47.2346 404.982 47.2346H403.778V41.2146H405.262ZM415.044 41.2146H420.364V38.4146H411.964V58.0146H420.364V55.2146H415.044V49.4746H419.272V46.6746H415.044V41.2146ZM421.88 43.1186C421.88 48.7186 427.9 49.4746 427.9 53.5066C427.9 54.9066 427.284 55.4106 426.304 55.4106C425.324 55.4106 424.708 54.9066 424.708 53.5066V52.1066H421.796V53.3106C421.796 56.4466 423.364 58.2386 426.388 58.2386C429.412 58.2386 430.98 56.4466 430.98 53.3106C430.98 47.7106 424.96 46.9546 424.96 42.9226C424.96 41.5226 425.52 40.9906 426.5 40.9906C427.48 40.9906 428.04 41.5226 428.04 42.9226V43.7346H430.952V43.1186C430.952 39.9826 429.412 38.1906 426.416 38.1906C423.42 38.1906 421.88 39.9826 421.88 43.1186ZM432.605 38.4146V53.3386C432.605 56.4746 434.173 58.2666 437.197 58.2666C440.221 58.2666 441.789 56.4746 441.789 53.3386V38.4146H438.877V53.5346C438.877 54.9346 438.261 55.4386 437.281 55.4386C436.301 55.4386 435.685 54.9346 435.685 53.5346V38.4146H432.605ZM443.901 58.0146H452.049V55.2146H446.981V38.4146H443.901V58.0146ZM451.099 41.2146H454.319V58.0146H457.399V41.2146H460.619V38.4146H451.099V41.2146ZM461.583 43.1186C461.583 48.7186 467.603 49.4746 467.603 53.5066C467.603 54.9066 466.987 55.4106 466.007 55.4106C465.027 55.4106 464.411 54.9066 464.411 53.5066V52.1066H461.499V53.3106C461.499 56.4466 463.067 58.2386 466.091 58.2386C469.115 58.2386 470.683 56.4466 470.683 53.3106C470.683 47.7106 464.663 46.9546 464.663 42.9226C464.663 41.5226 465.223 40.9906 466.203 40.9906C467.183 40.9906 467.743 41.5226 467.743 42.9226V43.7346H470.655V43.1186C470.655 39.9826 469.115 38.1906 466.119 38.1906C463.123 38.1906 461.583 39.9826 461.583 43.1186Z" fill="white"/>
</g>
<defs>
<filter id="filter0_d" x="0" y="0" width="597" height="837" filterUnits="userSpaceOnUse" color-interpolation-filters="sRGB">
<feFlood flood-opacity="0" result="BackgroundImageFix"/>
<feColorMatrix in="SourceAlpha" type="matrix" values="0 0 0 0 0 0 0 0 0 0 0 0 0 0 0 0 0 0 127 0"/>
<feOffset dy="4"/>
<feGaussianBlur stdDeviation="2"/>
<feColorMatrix type="matrix" values="0 0 0 0 0 0 0 0 0 0 0 0 0 0 0 0 0 0 0.25 0"/>
<feBlend mode="normal" in2="BackgroundImageFix" result="effect1_dropShadow"/>
<feBlend mode="normal" in="SourceGraphic" in2="effect1_dropShadow" result="shape"/>
</filter>
<linearGradient id="paint0_linear" x1="298.5" y1="0" x2="298.5" y2="514" gradientUnits="userSpaceOnUse">
<stop stop-color="#014C91"/>
<stop offset="1" stop-color="#003257"/>
</linearGradient>
<clipPath id="clip0">
<rect width="597" height="522" fill="white"/>
</clipPath>
</defs>
</svg>
