<svg width="589" height="516" viewBox="0 0 589 516" fill="none" xmlns="http://www.w3.org/2000/svg">
<rect width="589" height="516" rx="5" fill="#003E6B"/>
<path d="M287 126.128H32V434.526H287V126.128Z" fill="white"/>
<path opacity="0.4" d="M277.177 136.011H42.7949V421.86H277.177V136.011Z" fill="#7CB4D0"/>
<path opacity="0.1" d="M277.177 136.011H42.7949V421.86H277.177V136.011Z" fill="#BCDEEA"/>
<path opacity="0.5" d="M42.7952 136.011L32 126.128V434.526L42.7952 421.86V136.011Z" fill="#7CB4D0"/>
<path opacity="0.5" d="M277.178 421.86L287 434.526V126.128L277.178 136.011V421.86Z" fill="#7CB4D0"/>
<path opacity="0.4" d="M287 126.128H32V434.526H287V126.128Z" fill="#7CB4D0"/>
<path opacity="0.8" d="M277.177 421.764H42.7952L32 434.525H287L277.177 421.764Z" fill="#7CB4D0"/>
<path opacity="0.2" d="M48.0811 162.41H117V148.804H48.0811L48.0811 162.41Z" fill="#3E6E7A"/>
<path opacity="0.2" d="M52.6761 164.677H114.703V151.072H52.6761V164.677Z" fill="#3E6E7A"/>
<path opacity="0.2" d="M52.6761 162.41H114.703V151.072H52.6761V162.41Z" fill="#3E6E7A"/>
<path opacity="0.2" d="M52.6766 151.072L48.082 148.804V162.41L52.5951 164.677L52.6766 151.072Z" fill="#3E6E7A"/>
<path opacity="0.2" d="M114.703 164.677L117 162.41V148.804L114.703 151.072V164.677Z" fill="#3E6E7A"/>
<path opacity="0.5" d="M48.082 162.41L52.6766 164.678H114.704L117.001 162.41H48.082Z" fill="white"/>
<path opacity="0.2" d="M126.189 162.41H195.107V148.804H126.188L126.189 162.41Z" fill="#3E6E7A"/>
<path opacity="0.2" d="M130.784 164.677H192.811V151.072H130.784V164.677Z" fill="#3E6E7A"/>
<path opacity="0.2" d="M130.784 162.41H192.811V151.072H130.784V162.41Z" fill="#3E6E7A"/>
<path opacity="0.2" d="M130.784 151.072L126.189 148.804V162.41L130.703 164.677L130.784 151.072Z" fill="#3E6E7A"/>
<path opacity="0.2" d="M192.811 164.677L195.108 162.41V148.804L192.811 151.072V164.677Z" fill="#3E6E7A"/>
<path opacity="0.5" d="M126.189 162.41L130.784 164.678H192.811L195.108 162.41H126.189Z" fill="white"/>
<path opacity="0.2" d="M204.298 162.41H273.217V148.804H204.298L204.298 162.41Z" fill="#3E6E7A"/>
<path opacity="0.2" d="M208.893 164.677H270.92V151.072H208.893V164.677Z" fill="#3E6E7A"/>
<path opacity="0.2" d="M208.893 162.41H270.92V151.072H208.893V162.41Z" fill="#3E6E7A"/>
<path opacity="0.2" d="M208.893 151.072L204.299 148.804V162.41L208.812 164.677L208.893 151.072Z" fill="#3E6E7A"/>
<path opacity="0.2" d="M270.92 164.677L273.217 162.41V148.804L270.92 151.072V164.677Z" fill="#3E6E7A"/>
<path opacity="0.5" d="M204.299 162.41L208.893 164.678H270.92L273.218 162.41H204.299Z" fill="white"/>
<rect x="32.5" y="443.503" width="254" height="40.4103" rx="4.5" fill="white" fill-opacity="0.1" stroke="white"/>
<path d="M74.656 473H76.276V468.266H79.264C82.126 468.266 83.35 467.15 83.35 464.522C83.35 461.894 82.126 460.76 79.264 460.76H74.656V473ZM76.276 466.79V462.236H79.156C81.046 462.236 81.73 462.884 81.73 464.522C81.73 466.16 81.046 466.79 79.156 466.79H76.276ZM89.167 473.216C91.795 473.216 93.181 471.812 93.181 469.112V467.6C93.181 464.9 91.795 463.496 89.167 463.496C86.539 463.496 85.153 464.9 85.153 467.6V469.112C85.153 471.812 86.539 473.216 89.167 473.216ZM89.167 471.83C87.529 471.83 86.737 470.93 86.737 469.058V467.636C86.737 465.764 87.529 464.882 89.167 464.882C90.805 464.882 91.597 465.764 91.597 467.636V469.058C91.597 470.93 90.805 471.83 89.167 471.83ZM98.7344 473.216C101.182 473.216 102.442 472.244 102.442 470.372C102.442 468.608 101.506 467.816 99.0224 467.546C97.3124 467.366 96.6824 467.024 96.6824 466.178C96.6824 465.332 97.4024 464.846 98.6984 464.846C100.03 464.846 100.696 465.368 100.696 466.358H102.244C102.244 464.486 101.02 463.496 98.7164 463.496C96.4124 463.496 95.1344 464.504 95.1344 466.304C95.1344 467.96 96.0344 468.68 98.4644 468.968C100.264 469.184 100.894 469.58 100.894 470.498C100.894 471.38 100.174 471.866 98.7344 471.866C97.1864 471.866 96.4304 471.326 96.4304 470.264H94.9184C94.9184 472.226 96.1784 473.216 98.7344 473.216ZM104.604 462.038H106.332V460.274H104.604V462.038ZM104.676 473H106.26V463.712H104.676V473ZM112.126 473H113.566V471.632H112.504C111.442 471.632 111.172 471.326 111.172 470.12V465.008H113.458V463.712H111.172V461.264H109.75L109.624 463.712H107.986V465.008H109.588V470.102C109.588 472.136 110.344 473 112.126 473ZM115.309 462.038H117.037V460.274H115.309V462.038ZM115.381 473H116.965V463.712H115.381V473ZM121.913 473H123.623L126.881 463.712H125.243L122.795 471.02L120.347 463.712H118.655L121.913 473ZM132.005 473.216C134.237 473.216 135.623 472.208 135.749 470.228H134.219C134.111 471.236 133.373 471.848 131.969 471.848C130.313 471.848 129.557 471.02 129.557 469.202V468.788H135.821V467.438C135.821 464.882 134.435 463.496 131.897 463.496C129.359 463.496 127.973 464.882 127.973 467.438V469.274C127.973 471.83 129.395 473.216 132.005 473.216ZM129.557 467.474C129.557 465.692 130.295 464.864 131.933 464.864C133.553 464.864 134.291 465.692 134.291 467.474H129.557ZM151.359 473.216C153.591 473.216 154.977 472.208 155.103 470.228H153.573C153.465 471.236 152.727 471.848 151.323 471.848C149.667 471.848 148.911 471.02 148.911 469.202V468.788H155.175V467.438C155.175 464.882 153.789 463.496 151.251 463.496C148.713 463.496 147.327 464.882 147.327 467.438V469.274C147.327 471.83 148.749 473.216 151.359 473.216ZM148.911 467.474C148.911 465.692 149.649 464.864 151.287 464.864C152.907 464.864 153.645 465.692 153.645 467.474H148.911ZM157.656 473H159.24V459.86H157.656V473ZM165.79 473.216C168.022 473.216 169.408 472.208 169.534 470.228H168.004C167.896 471.236 167.158 471.848 165.754 471.848C164.098 471.848 163.342 471.02 163.342 469.202V468.788H169.606V467.438C169.606 464.882 168.22 463.496 165.682 463.496C163.144 463.496 161.758 464.882 161.758 467.438V469.274C161.758 471.83 163.18 473.216 165.79 473.216ZM163.342 467.474C163.342 465.692 164.08 464.864 165.718 464.864C167.338 464.864 168.076 465.692 168.076 467.474H163.342ZM175.507 473.216C177.847 473.216 179.143 472.028 179.215 469.778H177.685C177.577 471.272 176.821 471.83 175.525 471.83C173.959 471.83 173.221 471.02 173.221 469.238V467.474C173.221 465.692 173.959 464.882 175.525 464.882C176.821 464.882 177.577 465.44 177.685 466.934H179.215C179.143 464.684 177.847 463.496 175.507 463.496C172.987 463.496 171.637 464.864 171.637 467.438V469.274C171.637 471.848 172.987 473.216 175.507 473.216ZM184.407 473H185.847V471.632H184.785C183.723 471.632 183.453 471.326 183.453 470.12V465.008H185.739V463.712H183.453V461.264H182.031L181.905 463.712H180.267V465.008H181.869V470.102C181.869 472.136 182.625 473 184.407 473ZM187.662 473H189.246V467.654C189.552 465.872 190.398 465.098 191.91 465.098H192.378V463.532H191.748C190.398 463.532 189.552 464.126 189.084 465.44L189.012 463.712H187.662V473ZM197.624 473.216C200.252 473.216 201.638 471.812 201.638 469.112V467.6C201.638 464.9 200.252 463.496 197.624 463.496C194.996 463.496 193.61 464.9 193.61 467.6V469.112C193.61 471.812 194.996 473.216 197.624 473.216ZM197.624 471.83C195.986 471.83 195.194 470.93 195.194 469.058V467.636C195.194 465.764 195.986 464.882 197.624 464.882C199.262 464.882 200.054 465.764 200.054 467.636V469.058C200.054 470.93 199.262 471.83 197.624 471.83ZM207.102 473.216C208.452 473.216 209.442 472.694 210.234 471.524L210.288 473H211.638V459.86H210.054V464.936C209.298 463.946 208.344 463.496 207.102 463.496C204.942 463.496 203.682 464.828 203.682 467.366V469.346C203.682 471.884 204.942 473.216 207.102 473.216ZM207.3 471.83C206.022 471.83 205.266 470.948 205.266 469.292V467.42C205.266 465.764 206.022 464.882 207.3 464.882C208.488 464.882 209.442 465.656 210.054 466.988V469.724C209.442 471.056 208.488 471.83 207.3 471.83ZM218.191 473.216C220.423 473.216 221.809 472.208 221.935 470.228H220.405C220.297 471.236 219.559 471.848 218.155 471.848C216.499 471.848 215.743 471.02 215.743 469.202V468.788H222.007V467.438C222.007 464.882 220.621 463.496 218.083 463.496C215.545 463.496 214.159 464.882 214.159 467.438V469.274C214.159 471.83 215.581 473.216 218.191 473.216ZM215.743 467.474C215.743 465.692 216.481 464.864 218.119 464.864C219.739 464.864 220.477 465.692 220.477 467.474H215.743Z" fill="white"/>
<circle cx="52.7059" cy="463.949" r="11.9872" fill="#A00000"/>
<path d="M51.5733 468.482H53.7005V465.065H56.9261V463.007H53.7005V459.59H51.5733V463.007H48.3477V465.065H51.5733V468.482Z" fill="white"/>
<rect x="32.5" y="76.5" width="254" height="40.4103" rx="4.5" fill="white" fill-opacity="0.1" stroke="white"/>
<path d="M75.2165 104.68H76.7825V94.8156L82.7585 104.68H84.3425V92.4396H82.7765V101.746L77.1425 92.4396H75.2165V104.68ZM91.0639 104.896C93.2959 104.896 94.6819 103.888 94.8079 101.908H93.2779C93.1699 102.916 92.4319 103.528 91.0279 103.528C89.3719 103.528 88.6159 102.7 88.6159 100.882V100.468H94.8799V99.1176C94.8799 96.5616 93.4939 95.1756 90.9559 95.1756C88.4179 95.1756 87.0319 96.5616 87.0319 99.1176V100.954C87.0319 103.51 88.4539 104.896 91.0639 104.896ZM88.6159 99.1536C88.6159 97.3716 89.3539 96.5436 90.9919 96.5436C92.6119 96.5436 93.3499 97.3716 93.3499 99.1536H88.6159ZM100.889 108.172C103.535 108.172 104.849 106.948 104.849 104.482V95.3916H103.499L103.427 96.8316C102.653 95.6976 101.663 95.1756 100.331 95.1756C98.1708 95.1756 96.9108 96.5076 96.9108 99.0456V100.504C96.9108 103.042 98.1708 104.374 100.331 104.374C101.573 104.374 102.509 103.924 103.265 102.952V104.482C103.265 106.102 102.509 106.804 100.853 106.804C99.5568 106.804 98.6748 106.372 98.5848 105.292H97.1088C97.2348 107.2 98.5308 108.172 100.889 108.172ZM100.529 102.988C99.2508 102.988 98.4948 102.106 98.4948 100.45V99.0996C98.4948 97.4436 99.2508 96.5616 100.529 96.5616C101.699 96.5616 102.653 97.3176 103.265 98.6316V100.918C102.653 102.232 101.699 102.988 100.529 102.988ZM110.232 104.896C111.582 104.896 112.626 104.374 113.382 103.42L113.436 104.68H114.786V98.6136C114.786 96.3096 113.598 95.1756 111.15 95.1756C108.828 95.1756 107.568 96.2016 107.406 98.2176H108.954C109.008 97.0836 109.782 96.5436 111.096 96.5436C112.536 96.5436 113.202 97.2096 113.202 98.6496V99.1536H110.97C108.36 99.1536 107.136 100.198 107.136 102.052C107.136 103.87 108.324 104.896 110.232 104.896ZM110.466 103.528C109.296 103.528 108.72 102.988 108.72 102.016C108.72 100.972 109.404 100.468 111.024 100.468H113.202V101.782C112.644 102.916 111.708 103.528 110.466 103.528ZM120.333 104.68H121.773V103.312H120.711C119.649 103.312 119.379 103.006 119.379 101.8V96.6876H121.665V95.3916H119.379V92.9436H117.957L117.831 95.3916H116.193V96.6876H117.795V101.782C117.795 103.816 118.551 104.68 120.333 104.68ZM123.516 93.7176H125.244V91.9536H123.516V93.7176ZM123.588 104.68H125.172V95.3916H123.588V104.68ZM130.12 104.68H131.83L135.088 95.3916H133.45L131.002 102.7L128.554 95.3916H126.862L130.12 104.68ZM140.212 104.896C142.444 104.896 143.83 103.888 143.956 101.908H142.426C142.318 102.916 141.58 103.528 140.176 103.528C138.52 103.528 137.764 102.7 137.764 100.882V100.468H144.028V99.1176C144.028 96.5616 142.642 95.1756 140.104 95.1756C137.566 95.1756 136.18 96.5616 136.18 99.1176V100.954C136.18 103.51 137.602 104.896 140.212 104.896ZM137.764 99.1536C137.764 97.3716 138.502 96.5436 140.14 96.5436C141.76 96.5436 142.498 97.3716 142.498 99.1536H137.764ZM159.566 104.896C161.798 104.896 163.184 103.888 163.31 101.908H161.78C161.672 102.916 160.934 103.528 159.53 103.528C157.874 103.528 157.118 102.7 157.118 100.882V100.468H163.382V99.1176C163.382 96.5616 161.996 95.1756 159.458 95.1756C156.92 95.1756 155.534 96.5616 155.534 99.1176V100.954C155.534 103.51 156.956 104.896 159.566 104.896ZM157.118 99.1536C157.118 97.3716 157.856 96.5436 159.494 96.5436C161.114 96.5436 161.852 97.3716 161.852 99.1536H157.118ZM165.863 104.68H167.447V91.5396H165.863V104.68ZM173.997 104.896C176.229 104.896 177.615 103.888 177.741 101.908H176.211C176.103 102.916 175.365 103.528 173.961 103.528C172.305 103.528 171.549 102.7 171.549 100.882V100.468H177.813V99.1176C177.813 96.5616 176.427 95.1756 173.889 95.1756C171.351 95.1756 169.965 96.5616 169.965 99.1176V100.954C169.965 103.51 171.387 104.896 173.997 104.896ZM171.549 99.1536C171.549 97.3716 172.287 96.5436 173.925 96.5436C175.545 96.5436 176.283 97.3716 176.283 99.1536H171.549ZM183.714 104.896C186.054 104.896 187.35 103.708 187.422 101.458H185.892C185.784 102.952 185.028 103.51 183.732 103.51C182.166 103.51 181.428 102.7 181.428 100.918V99.1536C181.428 97.3716 182.166 96.5616 183.732 96.5616C185.028 96.5616 185.784 97.1196 185.892 98.6136H187.422C187.35 96.3636 186.054 95.1756 183.714 95.1756C181.194 95.1756 179.844 96.5436 179.844 99.1176V100.954C179.844 103.528 181.194 104.896 183.714 104.896ZM192.614 104.68H194.054V103.312H192.992C191.93 103.312 191.66 103.006 191.66 101.8V96.6876H193.946V95.3916H191.66V92.9436H190.238L190.112 95.3916H188.474V96.6876H190.076V101.782C190.076 103.816 190.832 104.68 192.614 104.68ZM195.869 104.68H197.453V99.3336C197.759 97.5516 198.605 96.7776 200.117 96.7776H200.585V95.2116H199.955C198.605 95.2116 197.759 95.8056 197.291 97.1196L197.219 95.3916H195.869V104.68ZM205.831 104.896C208.459 104.896 209.845 103.492 209.845 100.792V99.2796C209.845 96.5796 208.459 95.1756 205.831 95.1756C203.203 95.1756 201.817 96.5796 201.817 99.2796V100.792C201.817 103.492 203.203 104.896 205.831 104.896ZM205.831 103.51C204.193 103.51 203.401 102.61 203.401 100.738V99.3156C203.401 97.4436 204.193 96.5616 205.831 96.5616C207.469 96.5616 208.261 97.4436 208.261 99.3156V100.738C208.261 102.61 207.469 103.51 205.831 103.51ZM215.309 104.896C216.659 104.896 217.649 104.374 218.441 103.204L218.495 104.68H219.845V91.5396H218.261V96.6156C217.505 95.6256 216.551 95.1756 215.309 95.1756C213.149 95.1756 211.889 96.5076 211.889 99.0456V101.026C211.889 103.564 213.149 104.896 215.309 104.896ZM215.507 103.51C214.229 103.51 213.473 102.628 213.473 100.972V99.0996C213.473 97.4436 214.229 96.5616 215.507 96.5616C216.695 96.5616 217.649 97.3356 218.261 98.6676V101.404C217.649 102.736 216.695 103.51 215.507 103.51ZM226.398 104.896C228.63 104.896 230.016 103.888 230.142 101.908H228.612C228.504 102.916 227.766 103.528 226.362 103.528C224.706 103.528 223.95 102.7 223.95 100.882V100.468H230.214V99.1176C230.214 96.5616 228.828 95.1756 226.29 95.1756C223.752 95.1756 222.366 96.5616 222.366 99.1176V100.954C222.366 103.51 223.788 104.896 226.398 104.896ZM223.95 99.1536C223.95 97.3716 224.688 96.5436 226.326 96.5436C227.946 96.5436 228.684 97.3716 228.684 99.1536H223.95Z" fill="white"/>
<circle cx="52.7059" cy="96.7052" r="11.9872" fill="#333333"/>
<path d="M51.5733 97.9693H53.7005V97.8211H56.9261V95.7637H53.7005V95.6155H51.5733V95.7637H48.3477V97.8211H51.5733V97.9693Z" fill="white"/>
<path d="M555.176 126.128H300.176V434.526H555.176V126.128Z" fill="white"/>
<path opacity="0.4" d="M545.353 136.011H310.971V421.859H545.353V136.011Z" fill="#7CB4D0"/>
<path opacity="0.1" d="M545.353 136.011H310.971V421.859H545.353V136.011Z" fill="#BCDEEA"/>
<path opacity="0.5" d="M310.971 136.011L300.176 126.128V434.526L310.971 421.86V136.011Z" fill="#7CB4D0"/>
<path opacity="0.5" d="M545.354 421.86L555.176 434.526V126.128L545.354 136.011V421.86Z" fill="#7CB4D0"/>
<path opacity="0.4" d="M555.176 126.128H300.176V434.526H555.176V126.128Z" fill="#7CB4D0"/>
<path opacity="0.8" d="M545.353 421.763H310.971L300.176 434.525H555.176L545.353 421.763Z" fill="#7CB4D0"/>
<path opacity="0.2" d="M316.257 162.41H385.176V148.804H316.257L316.257 162.41Z" fill="#3E6E7A"/>
<path opacity="0.2" d="M320.852 164.677H382.879V151.072H320.852V164.677Z" fill="#3E6E7A"/>
<path opacity="0.2" d="M320.852 162.41H382.879V151.072H320.852V162.41Z" fill="#3E6E7A"/>
<path opacity="0.2" d="M320.852 151.072L316.258 148.804V162.41L320.771 164.677L320.852 151.072Z" fill="#3E6E7A"/>
<path opacity="0.2" d="M382.879 164.677L385.176 162.41V148.804L382.879 151.072V164.677Z" fill="#3E6E7A"/>
<path opacity="0.5" d="M316.258 162.41L320.852 164.677H382.879L385.177 162.41H316.258Z" fill="white"/>
<path opacity="0.2" d="M394.364 162.41H463.283V148.804H394.364V162.41Z" fill="#3E6E7A"/>
<path opacity="0.2" d="M398.959 164.677H460.986V151.072H398.959V164.677Z" fill="#3E6E7A"/>
<path opacity="0.2" d="M398.959 162.41H460.986V151.072H398.959V162.41Z" fill="#3E6E7A"/>
<path opacity="0.2" d="M398.96 151.072L394.365 148.804V162.41L398.878 164.677L398.96 151.072Z" fill="#3E6E7A"/>
<path opacity="0.2" d="M460.986 164.677L463.284 162.41V148.804L460.986 151.072V164.677Z" fill="#3E6E7A"/>
<path opacity="0.5" d="M394.365 162.41L398.96 164.677H460.987L463.284 162.41H394.365Z" fill="white"/>
<path opacity="0.2" d="M472.474 162.41H541.393V148.804H472.474V162.41Z" fill="#3E6E7A"/>
<path opacity="0.2" d="M477.069 164.677H539.096V151.072H477.069V164.677Z" fill="#3E6E7A"/>
<path opacity="0.2" d="M477.069 162.41H539.096V151.072H477.069V162.41Z" fill="#3E6E7A"/>
<path opacity="0.2" d="M477.069 151.072L472.475 148.804V162.41L476.988 164.677L477.069 151.072Z" fill="#3E6E7A"/>
<path opacity="0.2" d="M539.096 164.677L541.393 162.41V148.804L539.096 151.072V164.677Z" fill="#3E6E7A"/>
<path opacity="0.5" d="M472.475 162.41L477.069 164.677H539.096L541.394 162.41H472.475Z" fill="white"/>
<rect x="300.676" y="443.503" width="254" height="40.4102" rx="4.5" fill="white" fill-opacity="0.1" stroke="white"/>
<path d="M343.656 473H345.276V468.266H348.264C351.126 468.266 352.35 467.15 352.35 464.522C352.35 461.894 351.126 460.76 348.264 460.76H343.656V473ZM345.276 466.79V462.236H348.156C350.046 462.236 350.73 462.884 350.73 464.522C350.73 466.16 350.046 466.79 348.156 466.79H345.276ZM358.167 473.216C360.795 473.216 362.181 471.812 362.181 469.112V467.6C362.181 464.9 360.795 463.496 358.167 463.496C355.539 463.496 354.153 464.9 354.153 467.6V469.112C354.153 471.812 355.539 473.216 358.167 473.216ZM358.167 471.83C356.529 471.83 355.737 470.93 355.737 469.058V467.636C355.737 465.764 356.529 464.882 358.167 464.882C359.805 464.882 360.597 465.764 360.597 467.636V469.058C360.597 470.93 359.805 471.83 358.167 471.83ZM367.734 473.216C370.182 473.216 371.442 472.244 371.442 470.372C371.442 468.608 370.506 467.816 368.022 467.546C366.312 467.366 365.682 467.024 365.682 466.178C365.682 465.332 366.402 464.846 367.698 464.846C369.03 464.846 369.696 465.368 369.696 466.358H371.244C371.244 464.486 370.02 463.496 367.716 463.496C365.412 463.496 364.134 464.504 364.134 466.304C364.134 467.96 365.034 468.68 367.464 468.968C369.264 469.184 369.894 469.58 369.894 470.498C369.894 471.38 369.174 471.866 367.734 471.866C366.186 471.866 365.43 471.326 365.43 470.264H363.918C363.918 472.226 365.178 473.216 367.734 473.216ZM373.604 462.038H375.332V460.274H373.604V462.038ZM373.676 473H375.26V463.712H373.676V473ZM381.126 473H382.566V471.632H381.504C380.442 471.632 380.172 471.326 380.172 470.12V465.008H382.458V463.712H380.172V461.264H378.75L378.624 463.712H376.986V465.008H378.588V470.102C378.588 472.136 379.344 473 381.126 473ZM384.309 462.038H386.037V460.274H384.309V462.038ZM384.381 473H385.965V463.712H384.381V473ZM390.913 473H392.623L395.881 463.712H394.243L391.795 471.02L389.347 463.712H387.655L390.913 473ZM401.005 473.216C403.237 473.216 404.623 472.208 404.749 470.228H403.219C403.111 471.236 402.373 471.848 400.969 471.848C399.313 471.848 398.557 471.02 398.557 469.202V468.788H404.821V467.438C404.821 464.882 403.435 463.496 400.897 463.496C398.359 463.496 396.973 464.882 396.973 467.438V469.274C396.973 471.83 398.395 473.216 401.005 473.216ZM398.557 467.474C398.557 465.692 399.295 464.864 400.933 464.864C402.553 464.864 403.291 465.692 403.291 467.474H398.557ZM420.359 473.216C422.591 473.216 423.977 472.208 424.103 470.228H422.573C422.465 471.236 421.727 471.848 420.323 471.848C418.667 471.848 417.911 471.02 417.911 469.202V468.788H424.175V467.438C424.175 464.882 422.789 463.496 420.251 463.496C417.713 463.496 416.327 464.882 416.327 467.438V469.274C416.327 471.83 417.749 473.216 420.359 473.216ZM417.911 467.474C417.911 465.692 418.649 464.864 420.287 464.864C421.907 464.864 422.645 465.692 422.645 467.474H417.911ZM426.656 473H428.24V459.86H426.656V473ZM434.79 473.216C437.022 473.216 438.408 472.208 438.534 470.228H437.004C436.896 471.236 436.158 471.848 434.754 471.848C433.098 471.848 432.342 471.02 432.342 469.202V468.788H438.606V467.438C438.606 464.882 437.22 463.496 434.682 463.496C432.144 463.496 430.758 464.882 430.758 467.438V469.274C430.758 471.83 432.18 473.216 434.79 473.216ZM432.342 467.474C432.342 465.692 433.08 464.864 434.718 464.864C436.338 464.864 437.076 465.692 437.076 467.474H432.342ZM444.507 473.216C446.847 473.216 448.143 472.028 448.215 469.778H446.685C446.577 471.272 445.821 471.83 444.525 471.83C442.959 471.83 442.221 471.02 442.221 469.238V467.474C442.221 465.692 442.959 464.882 444.525 464.882C445.821 464.882 446.577 465.44 446.685 466.934H448.215C448.143 464.684 446.847 463.496 444.507 463.496C441.987 463.496 440.637 464.864 440.637 467.438V469.274C440.637 471.848 441.987 473.216 444.507 473.216ZM453.407 473H454.847V471.632H453.785C452.723 471.632 452.453 471.326 452.453 470.12V465.008H454.739V463.712H452.453V461.264H451.031L450.905 463.712H449.267V465.008H450.869V470.102C450.869 472.136 451.625 473 453.407 473ZM456.662 473H458.246V467.654C458.552 465.872 459.398 465.098 460.91 465.098H461.378V463.532H460.748C459.398 463.532 458.552 464.126 458.084 465.44L458.012 463.712H456.662V473ZM466.624 473.216C469.252 473.216 470.638 471.812 470.638 469.112V467.6C470.638 464.9 469.252 463.496 466.624 463.496C463.996 463.496 462.61 464.9 462.61 467.6V469.112C462.61 471.812 463.996 473.216 466.624 473.216ZM466.624 471.83C464.986 471.83 464.194 470.93 464.194 469.058V467.636C464.194 465.764 464.986 464.882 466.624 464.882C468.262 464.882 469.054 465.764 469.054 467.636V469.058C469.054 470.93 468.262 471.83 466.624 471.83ZM476.102 473.216C477.452 473.216 478.442 472.694 479.234 471.524L479.288 473H480.638V459.86H479.054V464.936C478.298 463.946 477.344 463.496 476.102 463.496C473.942 463.496 472.682 464.828 472.682 467.366V469.346C472.682 471.884 473.942 473.216 476.102 473.216ZM476.3 471.83C475.022 471.83 474.266 470.948 474.266 469.292V467.42C474.266 465.764 475.022 464.882 476.3 464.882C477.488 464.882 478.442 465.656 479.054 466.988V469.724C478.442 471.056 477.488 471.83 476.3 471.83ZM487.191 473.216C489.423 473.216 490.809 472.208 490.935 470.228H489.405C489.297 471.236 488.559 471.848 487.155 471.848C485.499 471.848 484.743 471.02 484.743 469.202V468.788H491.007V467.438C491.007 464.882 489.621 463.496 487.083 463.496C484.545 463.496 483.159 464.882 483.159 467.438V469.274C483.159 471.83 484.581 473.216 487.191 473.216ZM484.743 467.474C484.743 465.692 485.481 464.864 487.119 464.864C488.739 464.864 489.477 465.692 489.477 467.474H484.743Z" fill="white"/>
<circle cx="320.882" cy="463.949" r="11.9872" fill="#A00000"/>
<path d="M319.749 468.482H321.876V465.064H325.102V463.007H321.876V459.59H319.749V463.007H316.523V465.064H319.749V468.482Z" fill="white"/>
<rect x="300.676" y="76.5" width="254" height="40.4102" rx="4.5" fill="white" fill-opacity="0.1" stroke="white"/>
<path d="M343.392 104.68H344.958V94.8156L350.934 104.68H352.518V92.4396H350.952V101.746L345.318 92.4396H343.392V104.68ZM359.24 104.896C361.472 104.896 362.858 103.888 362.984 101.908H361.454C361.346 102.916 360.608 103.528 359.204 103.528C357.548 103.528 356.792 102.7 356.792 100.882V100.468H363.056V99.1176C363.056 96.5616 361.67 95.1756 359.132 95.1756C356.594 95.1756 355.208 96.5616 355.208 99.1176V100.954C355.208 103.51 356.63 104.896 359.24 104.896ZM356.792 99.1536C356.792 97.3716 357.53 96.5436 359.168 96.5436C360.788 96.5436 361.526 97.3716 361.526 99.1536H356.792ZM369.065 108.172C371.711 108.172 373.025 106.948 373.025 104.482V95.3916H371.675L371.603 96.8316C370.829 95.6976 369.839 95.1756 368.507 95.1756C366.347 95.1756 365.087 96.5076 365.087 99.0456V100.504C365.087 103.042 366.347 104.374 368.507 104.374C369.749 104.374 370.685 103.924 371.441 102.952V104.482C371.441 106.102 370.685 106.804 369.029 106.804C367.733 106.804 366.851 106.372 366.761 105.292H365.285C365.411 107.2 366.707 108.172 369.065 108.172ZM368.705 102.988C367.427 102.988 366.671 102.106 366.671 100.45V99.0996C366.671 97.4436 367.427 96.5616 368.705 96.5616C369.875 96.5616 370.829 97.3176 371.441 98.6316V100.918C370.829 102.232 369.875 102.988 368.705 102.988ZM378.408 104.896C379.758 104.896 380.802 104.374 381.558 103.42L381.612 104.68H382.962V98.6136C382.962 96.3096 381.774 95.1756 379.326 95.1756C377.004 95.1756 375.744 96.2016 375.582 98.2176H377.13C377.184 97.0836 377.958 96.5436 379.272 96.5436C380.712 96.5436 381.378 97.2096 381.378 98.6496V99.1536H379.146C376.536 99.1536 375.312 100.198 375.312 102.052C375.312 103.87 376.5 104.896 378.408 104.896ZM378.642 103.528C377.472 103.528 376.896 102.988 376.896 102.016C376.896 100.972 377.58 100.468 379.2 100.468H381.378V101.782C380.82 102.916 379.884 103.528 378.642 103.528ZM388.509 104.68H389.949V103.312H388.887C387.825 103.312 387.555 103.006 387.555 101.8V96.6876H389.841V95.3916H387.555V92.9436H386.133L386.007 95.3916H384.369V96.6876H385.971V101.782C385.971 103.816 386.727 104.68 388.509 104.68ZM391.692 93.7176H393.42V91.9536H391.692V93.7176ZM391.764 104.68H393.348V95.3916H391.764V104.68ZM398.296 104.68H400.006L403.264 95.3916H401.626L399.178 102.7L396.73 95.3916H395.038L398.296 104.68ZM408.388 104.896C410.62 104.896 412.006 103.888 412.132 101.908H410.602C410.494 102.916 409.756 103.528 408.352 103.528C406.696 103.528 405.94 102.7 405.94 100.882V100.468H412.204V99.1176C412.204 96.5616 410.818 95.1756 408.28 95.1756C405.742 95.1756 404.356 96.5616 404.356 99.1176V100.954C404.356 103.51 405.778 104.896 408.388 104.896ZM405.94 99.1536C405.94 97.3716 406.678 96.5436 408.316 96.5436C409.936 96.5436 410.674 97.3716 410.674 99.1536H405.94ZM427.742 104.896C429.974 104.896 431.36 103.888 431.486 101.908H429.956C429.848 102.916 429.11 103.528 427.706 103.528C426.05 103.528 425.294 102.7 425.294 100.882V100.468H431.558V99.1176C431.558 96.5616 430.172 95.1756 427.634 95.1756C425.096 95.1756 423.71 96.5616 423.71 99.1176V100.954C423.71 103.51 425.132 104.896 427.742 104.896ZM425.294 99.1536C425.294 97.3716 426.032 96.5436 427.67 96.5436C429.29 96.5436 430.028 97.3716 430.028 99.1536H425.294ZM434.039 104.68H435.623V91.5396H434.039V104.68ZM442.173 104.896C444.405 104.896 445.791 103.888 445.917 101.908H444.387C444.279 102.916 443.541 103.528 442.137 103.528C440.481 103.528 439.725 102.7 439.725 100.882V100.468H445.989V99.1176C445.989 96.5616 444.603 95.1756 442.065 95.1756C439.527 95.1756 438.141 96.5616 438.141 99.1176V100.954C438.141 103.51 439.563 104.896 442.173 104.896ZM439.725 99.1536C439.725 97.3716 440.463 96.5436 442.101 96.5436C443.721 96.5436 444.459 97.3716 444.459 99.1536H439.725ZM451.89 104.896C454.23 104.896 455.526 103.708 455.598 101.458H454.068C453.96 102.952 453.204 103.51 451.908 103.51C450.342 103.51 449.604 102.7 449.604 100.918V99.1536C449.604 97.3716 450.342 96.5616 451.908 96.5616C453.204 96.5616 453.96 97.1196 454.068 98.6136H455.598C455.526 96.3636 454.23 95.1756 451.89 95.1756C449.37 95.1756 448.02 96.5436 448.02 99.1176V100.954C448.02 103.528 449.37 104.896 451.89 104.896ZM460.79 104.68H462.23V103.312H461.168C460.106 103.312 459.836 103.006 459.836 101.8V96.6876H462.122V95.3916H459.836V92.9436H458.414L458.288 95.3916H456.65V96.6876H458.252V101.782C458.252 103.816 459.008 104.68 460.79 104.68ZM464.045 104.68H465.629V99.3336C465.935 97.5516 466.781 96.7776 468.293 96.7776H468.761V95.2116H468.131C466.781 95.2116 465.935 95.8056 465.467 97.1196L465.395 95.3916H464.045V104.68ZM474.007 104.896C476.635 104.896 478.021 103.492 478.021 100.792V99.2796C478.021 96.5796 476.635 95.1756 474.007 95.1756C471.379 95.1756 469.993 96.5796 469.993 99.2796V100.792C469.993 103.492 471.379 104.896 474.007 104.896ZM474.007 103.51C472.369 103.51 471.577 102.61 471.577 100.738V99.3156C471.577 97.4436 472.369 96.5616 474.007 96.5616C475.645 96.5616 476.437 97.4436 476.437 99.3156V100.738C476.437 102.61 475.645 103.51 474.007 103.51ZM483.485 104.896C484.835 104.896 485.825 104.374 486.617 103.204L486.671 104.68H488.021V91.5396H486.437V96.6156C485.681 95.6256 484.727 95.1756 483.485 95.1756C481.325 95.1756 480.065 96.5076 480.065 99.0456V101.026C480.065 103.564 481.325 104.896 483.485 104.896ZM483.683 103.51C482.405 103.51 481.649 102.628 481.649 100.972V99.0996C481.649 97.4436 482.405 96.5616 483.683 96.5616C484.871 96.5616 485.825 97.3356 486.437 98.6676V101.404C485.825 102.736 484.871 103.51 483.683 103.51ZM494.574 104.896C496.806 104.896 498.192 103.888 498.318 101.908H496.788C496.68 102.916 495.942 103.528 494.538 103.528C492.882 103.528 492.126 102.7 492.126 100.882V100.468H498.39V99.1176C498.39 96.5616 497.004 95.1756 494.466 95.1756C491.928 95.1756 490.542 96.5616 490.542 99.1176V100.954C490.542 103.51 491.964 104.896 494.574 104.896ZM492.126 99.1536C492.126 97.3716 492.864 96.5436 494.502 96.5436C496.122 96.5436 496.86 97.3716 496.86 99.1536H492.126Z" fill="white"/>
<circle cx="320.882" cy="96.7052" r="11.9872" fill="#333333"/>
<path d="M319.749 97.9693H321.876V97.8211H325.102V95.7637H321.876V95.6155H319.749V95.7637H316.523V97.8211H319.749V97.9693Z" fill="white"/>
<path d="M37.656 33.4H33.12V53H36.2V45.636H37.656C40.736 45.636 42.248 43.928 42.248 40.792V38.244C42.248 35.108 40.736 33.4 37.656 33.4ZM37.656 36.2C38.636 36.2 39.168 36.648 39.168 38.048V40.988C39.168 42.388 38.636 42.836 37.656 42.836H36.2V36.2H37.656ZM53.3874 53C53.0794 52.272 53.0514 51.572 53.0514 50.62V47.596C53.0514 45.552 52.5474 44.068 51.0074 43.424C52.3794 42.78 53.0234 41.464 53.0234 39.448V37.908C53.0234 34.884 51.6514 33.4 48.4594 33.4H43.8114V53H46.8914V45.02H47.9554C49.3554 45.02 49.9714 45.692 49.9714 47.512V50.592C49.9714 52.188 50.0834 52.496 50.2514 53H53.3874ZM48.3754 36.2C49.4674 36.2 49.9434 36.816 49.9434 38.216V40.148C49.9434 41.716 49.2434 42.22 48.0954 42.22H46.8914V36.2H48.3754ZM58.157 36.2H63.477V33.4H55.077V53H63.477V50.2H58.157V44.46H62.385V41.66H58.157V36.2ZM65.3856 53H70.2576C73.3376 53 74.8496 51.292 74.8496 48.156V38.244C74.8496 35.108 73.3376 33.4 70.2576 33.4H65.3856V53ZM70.2016 36.2C71.1816 36.2 71.7696 36.704 71.7696 38.104V48.296C71.7696 49.696 71.1816 50.2 70.2016 50.2H68.4656V36.2H70.2016ZM76.8153 53H79.8953V33.4H76.8153V53ZM88.1673 45.692V48.492C88.1673 49.892 87.5513 50.396 86.5713 50.396C85.5913 50.396 84.9753 49.892 84.9753 48.492V37.908C84.9753 36.508 85.5913 35.976 86.5713 35.976C87.5513 35.976 88.1673 36.508 88.1673 37.908V40.008H91.0793V38.104C91.0793 34.968 89.5113 33.176 86.4873 33.176C83.4633 33.176 81.8953 34.968 81.8953 38.104V48.296C81.8953 51.432 83.4633 53.224 86.4873 53.224C89.5113 53.224 91.0793 51.432 91.0793 48.296V45.692H88.1673ZM92.0521 36.2H95.2721V53H98.3521V36.2H101.572V33.4H92.0521V36.2ZM102.929 53H106.009V33.4H102.929V53ZM111.089 37.908C111.089 36.508 111.705 35.976 112.685 35.976C113.665 35.976 114.281 36.508 114.281 37.908V48.492C114.281 49.892 113.665 50.424 112.685 50.424C111.705 50.424 111.089 49.892 111.089 48.492V37.908ZM108.009 48.296C108.009 51.432 109.661 53.224 112.685 53.224C115.709 53.224 117.361 51.432 117.361 48.296V38.104C117.361 34.968 115.709 33.176 112.685 33.176C109.661 33.176 108.009 34.968 108.009 38.104V48.296ZM125.942 53H129.106V33.4H126.362V45.132L123.198 33.4H119.334V53H122.106V38.804L125.942 53ZM130.919 38.104C130.919 43.704 136.939 44.46 136.939 48.492C136.939 49.892 136.323 50.396 135.343 50.396C134.363 50.396 133.747 49.892 133.747 48.492V47.092H130.835V48.296C130.835 51.432 132.403 53.224 135.427 53.224C138.451 53.224 140.019 51.432 140.019 48.296C140.019 42.696 133.999 41.94 133.999 37.908C133.999 36.508 134.559 35.976 135.539 35.976C136.519 35.976 137.079 36.508 137.079 37.908V38.72H139.991V38.104C139.991 34.968 138.451 33.176 135.455 33.176C132.459 33.176 130.919 34.968 130.919 38.104Z" fill="white"/>
<path d="M310.696 53C310.388 52.272 310.36 51.572 310.36 50.62V47.596C310.36 45.552 309.856 44.068 308.316 43.424C309.688 42.78 310.332 41.464 310.332 39.448V37.908C310.332 34.884 308.96 33.4 305.768 33.4H301.12V53H304.2V45.02H305.264C306.664 45.02 307.28 45.692 307.28 47.512V50.592C307.28 52.188 307.392 52.496 307.56 53H310.696ZM305.684 36.2C306.776 36.2 307.252 36.816 307.252 38.216V40.148C307.252 41.716 306.552 42.22 305.404 42.22H304.2V36.2H305.684ZM315.466 36.2H320.786V33.4H312.386V53H320.786V50.2H315.466V44.46H319.694V41.66H315.466V36.2ZM322.302 38.104C322.302 43.704 328.322 44.46 328.322 48.492C328.322 49.892 327.706 50.396 326.726 50.396C325.746 50.396 325.13 49.892 325.13 48.492V47.092H322.218V48.296C322.218 51.432 323.786 53.224 326.81 53.224C329.834 53.224 331.402 51.432 331.402 48.296C331.402 42.696 325.382 41.94 325.382 37.908C325.382 36.508 325.942 35.976 326.922 35.976C327.902 35.976 328.462 36.508 328.462 37.908V38.72H331.374V38.104C331.374 34.968 329.834 33.176 326.838 33.176C323.842 33.176 322.302 34.968 322.302 38.104ZM333.027 33.4V48.324C333.027 51.46 334.595 53.252 337.619 53.252C340.643 53.252 342.211 51.46 342.211 48.324V33.4H339.299V48.52C339.299 49.92 338.683 50.424 337.703 50.424C336.723 50.424 336.107 49.92 336.107 48.52V33.4H333.027ZM344.323 53H352.471V50.2H347.403V33.4H344.323V53ZM351.521 36.2H354.741V53H357.821V36.2H361.041V33.4H351.521V36.2ZM362.005 38.104C362.005 43.704 368.025 44.46 368.025 48.492C368.025 49.892 367.409 50.396 366.429 50.396C365.449 50.396 364.833 49.892 364.833 48.492V47.092H361.921V48.296C361.921 51.432 363.489 53.224 366.513 53.224C369.537 53.224 371.105 51.432 371.105 48.296C371.105 42.696 365.085 41.94 365.085 37.908C365.085 36.508 365.645 35.976 366.625 35.976C367.605 35.976 368.165 36.508 368.165 37.908V38.72H371.077V38.104C371.077 34.968 369.537 33.176 366.541 33.176C363.545 33.176 362.005 34.968 362.005 38.104Z" fill="white"/>
</svg>
