<svg width="597" height="522" viewBox="0 0 597 522" fill="none" xmlns="http://www.w3.org/2000/svg">
<g clip-path="url(#clip0)">
<g filter="url(#filter0_d)">
<path d="M593 0H4V514H593V0Z" fill="white"/>
<path d="M588 0H9C6.23858 0 4 2.23858 4 5V509C4 511.761 6.23858 514 9 514H588C590.761 514 593 511.761 593 509V5C593 2.23858 590.761 0 588 0Z" fill="url(#paint0_linear)"/>
<path d="M299 0H298V829H299V0Z" fill="white"/>
<path d="M246 92.5H56C45.2304 92.5 36.5 101.23 36.5 112C36.5 122.77 45.2304 131.5 56 131.5H246C256.77 131.5 265.5 122.77 265.5 112C265.5 101.23 256.77 92.5 246 92.5Z" fill="#333333" stroke="#666666"/>
<path d="M80.5039 119H82.6621V108.883H82.7012L89.1367 119H91.1777V104.762H89.0195V114.879H88.9805L82.5352 104.762H80.5039V119ZM101.871 114.703V113.023C101.858 111.689 101.445 110.641 100.631 109.879C99.8301 109.13 98.8503 108.749 97.6914 108.736C97.2096 108.736 96.7214 108.824 96.2266 109C95.7253 109.176 95.2728 109.462 94.8691 109.859C94.472 110.25 94.1465 110.784 93.8926 111.461C93.6387 112.125 93.5117 112.958 93.5117 113.961C93.5117 115.003 93.6582 115.849 93.9512 116.5C94.2181 117.177 94.5664 117.704 94.9961 118.082C95.2174 118.264 95.4551 118.417 95.709 118.541C95.9499 118.684 96.1973 118.798 96.4512 118.883C96.959 119.039 97.4798 119.117 98.0137 119.117C99.4134 119.13 100.631 118.583 101.666 117.477L100.191 116.217C99.5404 116.874 98.8014 117.203 97.9746 117.203C97.265 117.203 96.6921 116.988 96.2559 116.559C95.7871 116.135 95.5527 115.517 95.5527 114.703H101.871ZM95.5527 113.023C95.5918 112.236 95.8034 111.64 96.1875 111.236C96.5781 110.852 97.0794 110.66 97.6914 110.66C98.3034 110.66 98.8047 110.852 99.1953 111.236C99.5924 111.64 99.804 112.236 99.8301 113.023H95.5527ZM109.713 117.936V118.98C109.7 119.671 109.485 120.211 109.068 120.602C108.645 120.986 108.085 121.178 107.389 121.178C107.018 121.165 106.66 121.064 106.314 120.875C105.976 120.706 105.676 120.501 105.416 120.26L103.834 121.52C104.804 122.626 105.976 123.193 107.35 123.219C108.548 123.219 109.576 122.851 110.436 122.115C111.288 121.399 111.728 120.279 111.754 118.756V108.863H109.713V109.938C108.977 109.137 108.105 108.736 107.096 108.736C106.438 108.749 105.891 108.876 105.455 109.117C104.999 109.371 104.651 109.658 104.41 109.977C104.143 110.302 103.951 110.702 103.834 111.178C103.71 111.66 103.648 112.581 103.648 113.941C103.648 115.276 103.71 116.181 103.834 116.656C103.951 117.138 104.143 117.545 104.41 117.877C104.651 118.17 104.999 118.443 105.455 118.697C105.891 118.964 106.438 119.104 107.096 119.117C108.17 119.091 109.042 118.697 109.713 117.936ZM105.689 113.941C105.689 113.154 105.715 112.607 105.768 112.301C105.813 111.995 105.921 111.747 106.09 111.559C106.227 111.376 106.435 111.197 106.715 111.021C106.982 110.872 107.314 110.79 107.711 110.777C108.108 110.79 108.44 110.872 108.707 111.021C108.974 111.197 109.176 111.376 109.312 111.559C109.482 111.747 109.596 111.995 109.654 112.301C109.693 112.607 109.713 113.154 109.713 113.941C109.713 114.716 109.693 115.25 109.654 115.543C109.596 115.849 109.482 116.103 109.312 116.305C109.176 116.487 108.974 116.653 108.707 116.803C108.44 116.985 108.108 117.076 107.711 117.076C107.314 117.076 106.982 116.985 106.715 116.803C106.435 116.653 106.227 116.487 106.09 116.305C105.921 116.103 105.813 115.849 105.768 115.543C105.715 115.25 105.689 114.716 105.689 113.941ZM119.723 119H121.764V112.076C121.751 110.839 121.363 109.967 120.602 109.459C119.84 108.964 118.821 108.723 117.545 108.736C116.035 108.71 114.892 109.205 114.117 110.221L115.719 111.441C115.895 111.148 116.135 110.94 116.441 110.816C116.734 110.712 117.135 110.66 117.643 110.66C119.042 110.634 119.736 111.067 119.723 111.959V113.023H116.9C115.82 113.036 114.999 113.329 114.439 113.902C113.88 114.462 113.6 115.169 113.6 116.021C113.6 116.913 113.922 117.646 114.566 118.219C115.178 118.805 116.051 119.104 117.184 119.117C117.874 119.117 118.414 119.033 118.805 118.863C119.202 118.701 119.495 118.447 119.684 118.102H119.723V119ZM119.723 115.436C119.723 116.197 119.563 116.686 119.244 116.9C118.893 117.115 118.29 117.216 117.438 117.203C116.76 117.203 116.275 117.07 115.982 116.803C115.676 116.562 115.523 116.269 115.523 115.924C115.51 115.136 116.096 114.729 117.281 114.703H119.723V115.436ZM124.518 108.863H123.502V110.416H124.518V116.5C124.518 117.301 124.752 117.913 125.221 118.336C125.676 118.779 126.262 119 126.979 119H128.043V117.076H127.281C126.786 117.089 126.546 116.839 126.559 116.324V110.416H128.043V108.863H126.559V105.777H124.518V108.863ZM130.025 119H132.066V108.863H130.025V119ZM130.025 106.803H132.066V104.762H130.025V106.803ZM137.057 119H138.736L142.457 108.863H140.289L137.916 115.963H137.877L135.494 108.863H133.336L137.057 119ZM151.402 114.703V113.023C151.389 111.689 150.976 110.641 150.162 109.879C149.361 109.13 148.382 108.749 147.223 108.736C146.741 108.736 146.253 108.824 145.758 109C145.257 109.176 144.804 109.462 144.4 109.859C144.003 110.25 143.678 110.784 143.424 111.461C143.17 112.125 143.043 112.958 143.043 113.961C143.043 115.003 143.189 115.849 143.482 116.5C143.749 117.177 144.098 117.704 144.527 118.082C144.749 118.264 144.986 118.417 145.24 118.541C145.481 118.684 145.729 118.798 145.982 118.883C146.49 119.039 147.011 119.117 147.545 119.117C148.945 119.13 150.162 118.583 151.197 117.477L149.723 116.217C149.072 116.874 148.333 117.203 147.506 117.203C146.796 117.203 146.223 116.988 145.787 116.559C145.318 116.135 145.084 115.517 145.084 114.703H151.402ZM145.084 113.023C145.123 112.236 145.335 111.64 145.719 111.236C146.109 110.852 146.611 110.66 147.223 110.66C147.835 110.66 148.336 110.852 148.727 111.236C149.124 111.64 149.335 112.236 149.361 113.023H145.084ZM171.012 114.703V113.023C170.999 111.689 170.585 110.641 169.771 109.879C168.971 109.13 167.991 108.749 166.832 108.736C166.35 108.736 165.862 108.824 165.367 109C164.866 109.176 164.413 109.462 164.01 109.859C163.613 110.25 163.287 110.784 163.033 111.461C162.779 112.125 162.652 112.958 162.652 113.961C162.652 115.003 162.799 115.849 163.092 116.5C163.359 117.177 163.707 117.704 164.137 118.082C164.358 118.264 164.596 118.417 164.85 118.541C165.09 118.684 165.338 118.798 165.592 118.883C166.1 119.039 166.62 119.117 167.154 119.117C168.554 119.13 169.771 118.583 170.807 117.477L169.332 116.217C168.681 116.874 167.942 117.203 167.115 117.203C166.406 117.203 165.833 116.988 165.396 116.559C164.928 116.135 164.693 115.517 164.693 114.703H171.012ZM164.693 113.023C164.732 112.236 164.944 111.64 165.328 111.236C165.719 110.852 166.22 110.66 166.832 110.66C167.444 110.66 167.945 110.852 168.336 111.236C168.733 111.64 168.945 112.236 168.971 113.023H164.693ZM173.15 116.539C173.15 117.431 173.404 118.066 173.912 118.443C174.394 118.814 175.006 119 175.748 119H176.656V117.076H175.953C175.445 117.076 175.191 116.845 175.191 116.383V104.762H173.15V116.539ZM186.168 114.703V113.023C186.155 111.689 185.742 110.641 184.928 109.879C184.127 109.13 183.147 108.749 181.988 108.736C181.507 108.736 181.018 108.824 180.523 109C180.022 109.176 179.57 109.462 179.166 109.859C178.769 110.25 178.443 110.784 178.189 111.461C177.936 112.125 177.809 112.958 177.809 113.961C177.809 115.003 177.955 115.849 178.248 116.5C178.515 117.177 178.863 117.704 179.293 118.082C179.514 118.264 179.752 118.417 180.006 118.541C180.247 118.684 180.494 118.798 180.748 118.883C181.256 119.039 181.777 119.117 182.311 119.117C183.71 119.13 184.928 118.583 185.963 117.477L184.488 116.217C183.837 116.874 183.098 117.203 182.271 117.203C181.562 117.203 180.989 116.988 180.553 116.559C180.084 116.135 179.85 115.517 179.85 114.703H186.168ZM179.85 113.023C179.889 112.236 180.1 111.64 180.484 111.236C180.875 110.852 181.376 110.66 181.988 110.66C182.6 110.66 183.102 110.852 183.492 111.236C183.889 111.64 184.101 112.236 184.127 113.023H179.85ZM194.264 116.021C193.749 116.712 193.062 117.063 192.203 117.076C190.471 117.109 189.592 116.064 189.566 113.941C189.592 111.806 190.471 110.751 192.203 110.777C193.062 110.803 193.749 111.158 194.264 111.842L195.768 110.504C195.325 109.97 194.804 109.544 194.205 109.225C193.606 108.912 192.913 108.749 192.125 108.736C190.927 108.723 189.876 109.124 188.971 109.938C188.033 110.764 187.551 112.099 187.525 113.941C187.551 115.764 188.033 117.083 188.971 117.896C189.876 118.71 190.927 119.117 192.125 119.117C192.913 119.104 193.606 118.932 194.205 118.6C194.804 118.281 195.325 117.867 195.768 117.359L194.264 116.021ZM197.311 108.863H196.295V110.416H197.311V116.5C197.311 117.301 197.545 117.913 198.014 118.336C198.469 118.779 199.055 119 199.771 119H200.836V117.076H200.074C199.579 117.089 199.339 116.839 199.352 116.324V110.416H200.836V108.863H199.352V105.777H197.311V108.863ZM202.76 119H204.801V112.896C204.814 112.154 205.029 111.617 205.445 111.285C205.816 110.947 206.262 110.777 206.783 110.777C207.245 110.777 207.691 110.947 208.121 111.285L209.605 109.518C209 109.01 208.29 108.749 207.477 108.736C206.389 108.736 205.51 109.137 204.84 109.938H204.801V108.863H202.76V119ZM209.684 113.922C209.684 114.99 209.771 115.803 209.947 116.363C210.13 116.923 210.41 117.408 210.787 117.818C211.067 118.137 211.458 118.424 211.959 118.678C212.454 118.958 213.089 119.104 213.863 119.117C214.664 119.104 215.312 118.958 215.807 118.678C216.074 118.561 216.292 118.421 216.461 118.258C216.65 118.115 216.809 117.968 216.939 117.818C217.343 117.408 217.63 116.923 217.799 116.363C217.962 115.803 218.043 114.99 218.043 113.922C218.043 112.854 217.962 112.034 217.799 111.461C217.63 110.901 217.343 110.429 216.939 110.045C216.673 109.706 216.295 109.404 215.807 109.137C215.312 108.883 214.664 108.749 213.863 108.736C213.089 108.749 212.454 108.883 211.959 109.137C211.458 109.404 211.067 109.706 210.787 110.045C210.41 110.429 210.13 110.901 209.947 111.461C209.771 112.034 209.684 112.854 209.684 113.922ZM216.002 113.941C216.002 114.632 215.969 115.139 215.904 115.465C215.839 115.797 215.706 116.09 215.504 116.344C215.354 116.539 215.133 116.712 214.84 116.861C214.56 117.005 214.234 117.076 213.863 117.076C213.518 117.076 213.199 117.005 212.906 116.861C212.626 116.712 212.398 116.539 212.223 116.344C212.047 116.09 211.92 115.797 211.842 115.465C211.764 115.139 211.725 114.625 211.725 113.922C211.725 113.212 211.764 112.691 211.842 112.359C211.92 112.04 212.047 111.76 212.223 111.52C212.398 111.292 212.626 111.113 212.906 110.982C213.199 110.846 213.518 110.777 213.863 110.777C214.234 110.777 214.56 110.846 214.84 110.982C215.133 111.113 215.354 111.292 215.504 111.52C215.706 111.76 215.839 112.04 215.904 112.359C215.969 112.691 216.002 113.219 216.002 113.941ZM226.246 117.936V119H228.287V104.762H226.246V109.938C225.868 109.579 225.475 109.286 225.064 109.059C224.622 108.844 224.14 108.736 223.619 108.736C222.382 108.769 221.477 109.212 220.904 110.064C220.624 110.383 220.439 110.803 220.348 111.324C220.237 111.839 220.182 112.704 220.182 113.922C220.182 115.12 220.237 115.979 220.348 116.5C220.439 117.047 220.624 117.48 220.904 117.799C221.21 118.189 221.591 118.502 222.047 118.736C222.483 118.977 223.007 119.104 223.619 119.117C224.7 119.091 225.576 118.697 226.246 117.936ZM224.244 110.777C224.726 110.777 225.107 110.872 225.387 111.061C225.667 111.249 225.859 111.497 225.963 111.803C226.093 112.109 226.181 112.441 226.227 112.799C226.24 113.157 226.246 113.531 226.246 113.922C226.246 114.28 226.24 114.645 226.227 115.016C226.181 115.393 226.093 115.735 225.963 116.041C225.859 116.347 225.667 116.594 225.387 116.783C225.107 116.979 224.726 117.076 224.244 117.076C223.762 117.076 223.395 116.985 223.141 116.803C222.861 116.614 222.656 116.373 222.525 116.08C222.402 115.774 222.32 115.429 222.281 115.045C222.242 114.68 222.223 114.306 222.223 113.922C222.223 113.518 222.242 113.124 222.281 112.74C222.32 112.382 222.402 112.05 222.525 111.744C222.656 111.438 222.861 111.197 223.141 111.021C223.395 110.859 223.762 110.777 224.244 110.777ZM238.434 114.703V113.023C238.421 111.689 238.007 110.641 237.193 109.879C236.393 109.13 235.413 108.749 234.254 108.736C233.772 108.736 233.284 108.824 232.789 109C232.288 109.176 231.835 109.462 231.432 109.859C231.035 110.25 230.709 110.784 230.455 111.461C230.201 112.125 230.074 112.958 230.074 113.961C230.074 115.003 230.221 115.849 230.514 116.5C230.781 117.177 231.129 117.704 231.559 118.082C231.78 118.264 232.018 118.417 232.271 118.541C232.512 118.684 232.76 118.798 233.014 118.883C233.521 119.039 234.042 119.117 234.576 119.117C235.976 119.13 237.193 118.583 238.229 117.477L236.754 116.217C236.103 116.874 235.364 117.203 234.537 117.203C233.827 117.203 233.255 116.988 232.818 116.559C232.35 116.135 232.115 115.517 232.115 114.703H238.434ZM232.115 113.023C232.154 112.236 232.366 111.64 232.75 111.236C233.141 110.852 233.642 110.66 234.254 110.66C234.866 110.66 235.367 110.852 235.758 111.236C236.155 111.64 236.367 112.236 236.393 113.023H232.115Z" fill="white"/>
<path d="M57 127C65.2843 127 72 120.284 72 112C72 103.716 65.2843 97 57 97C48.7157 97 42 103.716 42 112C42 120.284 48.7157 127 57 127Z" fill="white"/>
<path d="M63 110V113.085H51V110H63Z" fill="#333333"/>
<path d="M266 148H36V426H266V148Z" fill="white"/>
<path opacity="0.4" d="M257.14 156.909H45.7363V414.582H257.14V156.909Z" fill="#7CB4D0"/>
<path opacity="0.1" d="M257.14 156.909H45.7363V414.582H257.14V156.909Z" fill="#BCDEEA"/>
<path opacity="0.5" d="M45.7368 156.909L36 148V426L45.7368 414.582V156.909Z" fill="#7CB4D0"/>
<path opacity="0.5" d="M257.141 414.582L266 426V148L257.141 156.909V414.582Z" fill="#7CB4D0"/>
<path opacity="0.4" d="M266 148H36V426H266V148Z" fill="#7CB4D0"/>
<path opacity="0.8" d="M257.14 414.496H45.7368L36 426H266L257.14 414.496Z" fill="#7CB4D0"/>
<path opacity="0.2" d="M50.5039 177.716H112.666V165.452H50.5039V177.716Z" fill="#3E6E7A"/>
<path opacity="0.2" d="M54.6477 179.76H110.594V167.496H54.6477V179.76Z" fill="#3E6E7A"/>
<path opacity="0.2" d="M54.6477 177.716H110.594V167.496H54.6477V177.716Z" fill="#3E6E7A"/>
<path opacity="0.2" d="M54.6481 167.496L50.5039 165.452V177.716L54.5746 179.76L54.6481 167.496Z" fill="#3E6E7A"/>
<path opacity="0.2" d="M110.594 179.76L112.666 177.716V165.452L110.594 167.496V179.76Z" fill="#3E6E7A"/>
<path opacity="0.5" d="M50.5039 177.716L54.6481 179.76H110.594L112.666 177.716H50.5039Z" fill="white"/>
<path opacity="0.2" d="M120.955 177.716H183.117V165.452H120.955V177.716Z" fill="#3E6E7A"/>
<path opacity="0.2" d="M125.099 179.76H181.045V167.496H125.099V179.76Z" fill="#3E6E7A"/>
<path opacity="0.2" d="M125.099 177.716H181.045V167.496H125.099V177.716Z" fill="#3E6E7A"/>
<path opacity="0.2" d="M125.099 167.496L120.955 165.452V177.716L125.026 179.76L125.099 167.496Z" fill="#3E6E7A"/>
<path opacity="0.2" d="M181.045 179.76L183.117 177.716V165.452L181.045 167.496V179.76Z" fill="#3E6E7A"/>
<path opacity="0.5" d="M120.955 177.716L125.099 179.76H181.045L183.117 177.716H120.955Z" fill="white"/>
<path opacity="0.2" d="M191.404 177.716H253.566V165.452H191.404V177.716Z" fill="#3E6E7A"/>
<path opacity="0.2" d="M195.548 179.76H251.494V167.496H195.548V179.76Z" fill="#3E6E7A"/>
<path opacity="0.2" d="M195.548 177.716H251.494V167.496H195.548V177.716Z" fill="#3E6E7A"/>
<path opacity="0.2" d="M195.548 167.496L191.404 165.452V177.716L195.475 179.76L195.548 167.496Z" fill="#3E6E7A"/>
<path opacity="0.2" d="M251.494 179.76L253.566 177.716V165.452L251.494 167.496V179.76Z" fill="#3E6E7A"/>
<path opacity="0.5" d="M191.404 177.716L195.548 179.76H251.494L253.566 177.716H191.404Z" fill="white"/>
<path d="M246 442.5H56C45.2304 442.5 36.5 451.23 36.5 462C36.5 472.77 45.2304 481.5 56 481.5H246C256.77 481.5 265.5 472.77 265.5 462C265.5 451.23 256.77 442.5 246 442.5Z" fill="#B30000" stroke="#C00000"/>
<path d="M82.6621 456.803H85.7773C86.3633 456.79 86.8776 456.923 87.3203 457.203C87.6133 457.372 87.8411 457.604 88.0039 457.896C88.1602 458.222 88.2383 458.622 88.2383 459.098C88.2383 459.671 88.0462 460.191 87.6621 460.66C87.2585 461.142 86.6562 461.389 85.8555 461.402H82.6621V456.803ZM80.5039 469H82.6621V463.443H85.9434C87.4082 463.417 88.5215 462.949 89.2832 462.037C90.0254 461.171 90.3965 460.211 90.3965 459.156C90.3965 458.375 90.25 457.698 89.957 457.125C89.6771 456.533 89.3125 456.077 88.8633 455.758C88.3294 455.335 87.8021 455.055 87.2812 454.918C86.7604 454.814 86.2201 454.762 85.6602 454.762H80.5039V469ZM91.3047 463.922C91.3047 464.99 91.3926 465.803 91.5684 466.363C91.7507 466.923 92.0306 467.408 92.4082 467.818C92.6882 468.137 93.0788 468.424 93.5801 468.678C94.0749 468.958 94.7096 469.104 95.4844 469.117C96.2852 469.104 96.9329 468.958 97.4277 468.678C97.6947 468.561 97.9128 468.421 98.082 468.258C98.2708 468.115 98.4303 467.968 98.5605 467.818C98.9642 467.408 99.2507 466.923 99.4199 466.363C99.5827 465.803 99.6641 464.99 99.6641 463.922C99.6641 462.854 99.5827 462.034 99.4199 461.461C99.2507 460.901 98.9642 460.429 98.5605 460.045C98.2936 459.706 97.916 459.404 97.4277 459.137C96.9329 458.883 96.2852 458.749 95.4844 458.736C94.7096 458.749 94.0749 458.883 93.5801 459.137C93.0788 459.404 92.6882 459.706 92.4082 460.045C92.0306 460.429 91.7507 460.901 91.5684 461.461C91.3926 462.034 91.3047 462.854 91.3047 463.922ZM97.623 463.941C97.623 464.632 97.5905 465.139 97.5254 465.465C97.4603 465.797 97.3268 466.09 97.125 466.344C96.9753 466.539 96.7539 466.712 96.4609 466.861C96.181 467.005 95.8555 467.076 95.4844 467.076C95.1393 467.076 94.8203 467.005 94.5273 466.861C94.2474 466.712 94.0195 466.539 93.8438 466.344C93.668 466.09 93.541 465.797 93.4629 465.465C93.3848 465.139 93.3457 464.625 93.3457 463.922C93.3457 463.212 93.3848 462.691 93.4629 462.359C93.541 462.04 93.668 461.76 93.8438 461.52C94.0195 461.292 94.2474 461.113 94.5273 460.982C94.8203 460.846 95.1393 460.777 95.4844 460.777C95.8555 460.777 96.181 460.846 96.4609 460.982C96.7539 461.113 96.9753 461.292 97.125 461.52C97.3268 461.76 97.4603 462.04 97.5254 462.359C97.5905 462.691 97.623 463.219 97.623 463.941ZM102.105 465.904L100.68 467.301C102.001 468.512 103.489 469.117 105.143 469.117C106.36 469.104 107.359 468.824 108.141 468.277C108.928 467.743 109.329 466.985 109.342 466.002C109.342 465.162 109.124 464.469 108.688 463.922C108.219 463.362 107.457 463.043 106.402 462.965L104.723 462.838C104.228 462.786 103.883 462.665 103.688 462.477C103.473 462.307 103.372 462.109 103.385 461.881C103.385 461.523 103.518 461.23 103.785 461.002C104.039 460.774 104.485 460.66 105.123 460.66C105.683 460.66 106.178 460.742 106.607 460.904C107.044 461.087 107.457 461.318 107.848 461.598L109.107 460.123C108.613 459.693 108.053 459.352 107.428 459.098C107.102 458.98 106.754 458.889 106.383 458.824C106.012 458.766 105.592 458.736 105.123 458.736C104.042 458.736 103.15 458.997 102.447 459.518C101.725 460.038 101.357 460.82 101.344 461.861C101.357 462.727 101.637 463.401 102.184 463.883C102.717 464.378 103.411 464.664 104.264 464.742L106.061 464.898C106.438 464.911 106.741 464.993 106.969 465.143C107.19 465.286 107.301 465.54 107.301 465.904C107.301 466.314 107.115 466.633 106.744 466.861C106.373 467.089 105.895 467.203 105.309 467.203C104 467.203 102.932 466.77 102.105 465.904ZM111.471 469H113.512V458.863H111.471V469ZM111.471 456.803H113.512V454.762H111.471V456.803ZM116.334 458.863H115.318V460.416H116.334V466.5C116.334 467.301 116.568 467.913 117.037 468.336C117.493 468.779 118.079 469 118.795 469H119.859V467.076H119.098C118.603 467.089 118.362 466.839 118.375 466.324V460.416H119.859V458.863H118.375V455.777H116.334V458.863ZM121.842 469H123.883V458.863H121.842V469ZM121.842 456.803H123.883V454.762H121.842V456.803ZM128.873 469H130.553L134.273 458.863H132.105L129.732 465.963H129.693L127.311 458.863H125.152L128.873 469ZM143.219 464.703V463.023C143.206 461.689 142.792 460.641 141.979 459.879C141.178 459.13 140.198 458.749 139.039 458.736C138.557 458.736 138.069 458.824 137.574 459C137.073 459.176 136.62 459.462 136.217 459.859C135.82 460.25 135.494 460.784 135.24 461.461C134.986 462.125 134.859 462.958 134.859 463.961C134.859 465.003 135.006 465.849 135.299 466.5C135.566 467.177 135.914 467.704 136.344 468.082C136.565 468.264 136.803 468.417 137.057 468.541C137.298 468.684 137.545 468.798 137.799 468.883C138.307 469.039 138.827 469.117 139.361 469.117C140.761 469.13 141.979 468.583 143.014 467.477L141.539 466.217C140.888 466.874 140.149 467.203 139.322 467.203C138.613 467.203 138.04 466.988 137.604 466.559C137.135 466.135 136.9 465.517 136.9 464.703H143.219ZM136.9 463.023C136.939 462.236 137.151 461.64 137.535 461.236C137.926 460.852 138.427 460.66 139.039 460.66C139.651 460.66 140.152 460.852 140.543 461.236C140.94 461.64 141.152 462.236 141.178 463.023H136.9ZM162.828 464.703V463.023C162.815 461.689 162.402 460.641 161.588 459.879C160.787 459.13 159.807 458.749 158.648 458.736C158.167 458.736 157.678 458.824 157.184 459C156.682 459.176 156.23 459.462 155.826 459.859C155.429 460.25 155.104 460.784 154.85 461.461C154.596 462.125 154.469 462.958 154.469 463.961C154.469 465.003 154.615 465.849 154.908 466.5C155.175 467.177 155.523 467.704 155.953 468.082C156.174 468.264 156.412 468.417 156.666 468.541C156.907 468.684 157.154 468.798 157.408 468.883C157.916 469.039 158.437 469.117 158.971 469.117C160.37 469.13 161.588 468.583 162.623 467.477L161.148 466.217C160.497 466.874 159.758 467.203 158.932 467.203C158.222 467.203 157.649 466.988 157.213 466.559C156.744 466.135 156.51 465.517 156.51 464.703H162.828ZM156.51 463.023C156.549 462.236 156.76 461.64 157.145 461.236C157.535 460.852 158.036 460.66 158.648 460.66C159.26 460.66 159.762 460.852 160.152 461.236C160.549 461.64 160.761 462.236 160.787 463.023H156.51ZM164.967 466.539C164.967 467.431 165.221 468.066 165.729 468.443C166.21 468.814 166.822 469 167.564 469H168.473V467.076H167.77C167.262 467.076 167.008 466.845 167.008 466.383V454.762H164.967V466.539ZM177.984 464.703V463.023C177.971 461.689 177.558 460.641 176.744 459.879C175.943 459.13 174.964 458.749 173.805 458.736C173.323 458.736 172.835 458.824 172.34 459C171.839 459.176 171.386 459.462 170.982 459.859C170.585 460.25 170.26 460.784 170.006 461.461C169.752 462.125 169.625 462.958 169.625 463.961C169.625 465.003 169.771 465.849 170.064 466.5C170.331 467.177 170.68 467.704 171.109 468.082C171.331 468.264 171.568 468.417 171.822 468.541C172.063 468.684 172.311 468.798 172.564 468.883C173.072 469.039 173.593 469.117 174.127 469.117C175.527 469.13 176.744 468.583 177.779 467.477L176.305 466.217C175.654 466.874 174.915 467.203 174.088 467.203C173.378 467.203 172.805 466.988 172.369 466.559C171.9 466.135 171.666 465.517 171.666 464.703H177.984ZM171.666 463.023C171.705 462.236 171.917 461.64 172.301 461.236C172.691 460.852 173.193 460.66 173.805 460.66C174.417 460.66 174.918 460.852 175.309 461.236C175.706 461.64 175.917 462.236 175.943 463.023H171.666ZM186.08 466.021C185.566 466.712 184.879 467.063 184.02 467.076C182.288 467.109 181.409 466.064 181.383 463.941C181.409 461.806 182.288 460.751 184.02 460.777C184.879 460.803 185.566 461.158 186.08 461.842L187.584 460.504C187.141 459.97 186.62 459.544 186.021 459.225C185.423 458.912 184.729 458.749 183.941 458.736C182.743 458.723 181.692 459.124 180.787 459.938C179.85 460.764 179.368 462.099 179.342 463.941C179.368 465.764 179.85 467.083 180.787 467.896C181.692 468.71 182.743 469.117 183.941 469.117C184.729 469.104 185.423 468.932 186.021 468.6C186.62 468.281 187.141 467.867 187.584 467.359L186.08 466.021ZM189.127 458.863H188.111V460.416H189.127V466.5C189.127 467.301 189.361 467.913 189.83 468.336C190.286 468.779 190.872 469 191.588 469H192.652V467.076H191.891C191.396 467.089 191.155 466.839 191.168 466.324V460.416H192.652V458.863H191.168V455.777H189.127V458.863ZM194.576 469H196.617V462.896C196.63 462.154 196.845 461.617 197.262 461.285C197.633 460.947 198.079 460.777 198.6 460.777C199.062 460.777 199.508 460.947 199.938 461.285L201.422 459.518C200.816 459.01 200.107 458.749 199.293 458.736C198.206 458.736 197.327 459.137 196.656 459.938H196.617V458.863H194.576V469ZM201.5 463.922C201.5 464.99 201.588 465.803 201.764 466.363C201.946 466.923 202.226 467.408 202.604 467.818C202.883 468.137 203.274 468.424 203.775 468.678C204.27 468.958 204.905 469.104 205.68 469.117C206.48 469.104 207.128 468.958 207.623 468.678C207.89 468.561 208.108 468.421 208.277 468.258C208.466 468.115 208.626 467.968 208.756 467.818C209.16 467.408 209.446 466.923 209.615 466.363C209.778 465.803 209.859 464.99 209.859 463.922C209.859 462.854 209.778 462.034 209.615 461.461C209.446 460.901 209.16 460.429 208.756 460.045C208.489 459.706 208.111 459.404 207.623 459.137C207.128 458.883 206.48 458.749 205.68 458.736C204.905 458.749 204.27 458.883 203.775 459.137C203.274 459.404 202.883 459.706 202.604 460.045C202.226 460.429 201.946 460.901 201.764 461.461C201.588 462.034 201.5 462.854 201.5 463.922ZM207.818 463.941C207.818 464.632 207.786 465.139 207.721 465.465C207.656 465.797 207.522 466.09 207.32 466.344C207.171 466.539 206.949 466.712 206.656 466.861C206.376 467.005 206.051 467.076 205.68 467.076C205.335 467.076 205.016 467.005 204.723 466.861C204.443 466.712 204.215 466.539 204.039 466.344C203.863 466.09 203.736 465.797 203.658 465.465C203.58 465.139 203.541 464.625 203.541 463.922C203.541 463.212 203.58 462.691 203.658 462.359C203.736 462.04 203.863 461.76 204.039 461.52C204.215 461.292 204.443 461.113 204.723 460.982C205.016 460.846 205.335 460.777 205.68 460.777C206.051 460.777 206.376 460.846 206.656 460.982C206.949 461.113 207.171 461.292 207.32 461.52C207.522 461.76 207.656 462.04 207.721 462.359C207.786 462.691 207.818 463.219 207.818 463.941ZM218.062 467.936V469H220.104V454.762H218.062V459.938C217.685 459.579 217.291 459.286 216.881 459.059C216.438 458.844 215.956 458.736 215.436 458.736C214.199 458.769 213.294 459.212 212.721 460.064C212.441 460.383 212.255 460.803 212.164 461.324C212.053 461.839 211.998 462.704 211.998 463.922C211.998 465.12 212.053 465.979 212.164 466.5C212.255 467.047 212.441 467.48 212.721 467.799C213.027 468.189 213.408 468.502 213.863 468.736C214.299 468.977 214.824 469.104 215.436 469.117C216.516 469.091 217.392 468.697 218.062 467.936ZM216.061 460.777C216.542 460.777 216.923 460.872 217.203 461.061C217.483 461.249 217.675 461.497 217.779 461.803C217.91 462.109 217.997 462.441 218.043 462.799C218.056 463.157 218.062 463.531 218.062 463.922C218.062 464.28 218.056 464.645 218.043 465.016C217.997 465.393 217.91 465.735 217.779 466.041C217.675 466.347 217.483 466.594 217.203 466.783C216.923 466.979 216.542 467.076 216.061 467.076C215.579 467.076 215.211 466.985 214.957 466.803C214.677 466.614 214.472 466.373 214.342 466.08C214.218 465.774 214.137 465.429 214.098 465.045C214.059 464.68 214.039 464.306 214.039 463.922C214.039 463.518 214.059 463.124 214.098 462.74C214.137 462.382 214.218 462.05 214.342 461.744C214.472 461.438 214.677 461.197 214.957 461.021C215.211 460.859 215.579 460.777 216.061 460.777ZM230.25 464.703V463.023C230.237 461.689 229.824 460.641 229.01 459.879C228.209 459.13 227.229 458.749 226.07 458.736C225.589 458.736 225.1 458.824 224.605 459C224.104 459.176 223.652 459.462 223.248 459.859C222.851 460.25 222.525 460.784 222.271 461.461C222.018 462.125 221.891 462.958 221.891 463.961C221.891 465.003 222.037 465.849 222.33 466.5C222.597 467.177 222.945 467.704 223.375 468.082C223.596 468.264 223.834 468.417 224.088 468.541C224.329 468.684 224.576 468.798 224.83 468.883C225.338 469.039 225.859 469.117 226.393 469.117C227.792 469.13 229.01 468.583 230.045 467.477L228.57 466.217C227.919 466.874 227.18 467.203 226.354 467.203C225.644 467.203 225.071 466.988 224.635 466.559C224.166 466.135 223.932 465.517 223.932 464.703H230.25ZM223.932 463.023C223.971 462.236 224.182 461.64 224.566 461.236C224.957 460.852 225.458 460.66 226.07 460.66C226.682 460.66 227.184 460.852 227.574 461.236C227.971 461.64 228.183 462.236 228.209 463.023H223.932Z" fill="white"/>
<path d="M56 477C64.2843 477 71 470.284 71 462C71 453.716 64.2843 447 56 447C47.7157 447 41 453.716 41 462C41 470.284 47.7157 477 56 477Z" fill="white"/>
<path d="M54.5122 468H57.4878V463.388H62V460.612H57.4878V456H54.5122V460.612H50V463.388H54.5122V468Z" fill="#A00000"/>
<path d="M541 92.5H351C340.23 92.5 331.5 101.23 331.5 112C331.5 122.77 340.23 131.5 351 131.5H541C551.77 131.5 560.5 122.77 560.5 112C560.5 101.23 551.77 92.5 541 92.5Z" fill="#333333" stroke="#666666"/>
<path d="M375.504 119H377.662V108.883H377.701L384.137 119H386.178V104.762H384.02V114.879H383.98L377.535 104.762H375.504V119ZM396.871 114.703V113.023C396.858 111.689 396.445 110.641 395.631 109.879C394.83 109.13 393.85 108.749 392.691 108.736C392.21 108.736 391.721 108.824 391.227 109C390.725 109.176 390.273 109.462 389.869 109.859C389.472 110.25 389.146 110.784 388.893 111.461C388.639 112.125 388.512 112.958 388.512 113.961C388.512 115.003 388.658 115.849 388.951 116.5C389.218 117.177 389.566 117.704 389.996 118.082C390.217 118.264 390.455 118.417 390.709 118.541C390.95 118.684 391.197 118.798 391.451 118.883C391.959 119.039 392.48 119.117 393.014 119.117C394.413 119.13 395.631 118.583 396.666 117.477L395.191 116.217C394.54 116.874 393.801 117.203 392.975 117.203C392.265 117.203 391.692 116.988 391.256 116.559C390.787 116.135 390.553 115.517 390.553 114.703H396.871ZM390.553 113.023C390.592 112.236 390.803 111.64 391.188 111.236C391.578 110.852 392.079 110.66 392.691 110.66C393.303 110.66 393.805 110.852 394.195 111.236C394.592 111.64 394.804 112.236 394.83 113.023H390.553ZM404.713 117.936V118.98C404.7 119.671 404.485 120.211 404.068 120.602C403.645 120.986 403.085 121.178 402.389 121.178C402.018 121.165 401.66 121.064 401.314 120.875C400.976 120.706 400.676 120.501 400.416 120.26L398.834 121.52C399.804 122.626 400.976 123.193 402.35 123.219C403.548 123.219 404.576 122.851 405.436 122.115C406.288 121.399 406.728 120.279 406.754 118.756V108.863H404.713V109.938C403.977 109.137 403.105 108.736 402.096 108.736C401.438 108.749 400.891 108.876 400.455 109.117C399.999 109.371 399.651 109.658 399.41 109.977C399.143 110.302 398.951 110.702 398.834 111.178C398.71 111.66 398.648 112.581 398.648 113.941C398.648 115.276 398.71 116.181 398.834 116.656C398.951 117.138 399.143 117.545 399.41 117.877C399.651 118.17 399.999 118.443 400.455 118.697C400.891 118.964 401.438 119.104 402.096 119.117C403.17 119.091 404.042 118.697 404.713 117.936ZM400.689 113.941C400.689 113.154 400.715 112.607 400.768 112.301C400.813 111.995 400.921 111.747 401.09 111.559C401.227 111.376 401.435 111.197 401.715 111.021C401.982 110.872 402.314 110.79 402.711 110.777C403.108 110.79 403.44 110.872 403.707 111.021C403.974 111.197 404.176 111.376 404.312 111.559C404.482 111.747 404.596 111.995 404.654 112.301C404.693 112.607 404.713 113.154 404.713 113.941C404.713 114.716 404.693 115.25 404.654 115.543C404.596 115.849 404.482 116.103 404.312 116.305C404.176 116.487 403.974 116.653 403.707 116.803C403.44 116.985 403.108 117.076 402.711 117.076C402.314 117.076 401.982 116.985 401.715 116.803C401.435 116.653 401.227 116.487 401.09 116.305C400.921 116.103 400.813 115.849 400.768 115.543C400.715 115.25 400.689 114.716 400.689 113.941ZM414.723 119H416.764V112.076C416.751 110.839 416.363 109.967 415.602 109.459C414.84 108.964 413.821 108.723 412.545 108.736C411.035 108.71 409.892 109.205 409.117 110.221L410.719 111.441C410.895 111.148 411.135 110.94 411.441 110.816C411.734 110.712 412.135 110.66 412.643 110.66C414.042 110.634 414.736 111.067 414.723 111.959V113.023H411.9C410.82 113.036 409.999 113.329 409.439 113.902C408.88 114.462 408.6 115.169 408.6 116.021C408.6 116.913 408.922 117.646 409.566 118.219C410.178 118.805 411.051 119.104 412.184 119.117C412.874 119.117 413.414 119.033 413.805 118.863C414.202 118.701 414.495 118.447 414.684 118.102H414.723V119ZM414.723 115.436C414.723 116.197 414.563 116.686 414.244 116.9C413.893 117.115 413.29 117.216 412.438 117.203C411.76 117.203 411.275 117.07 410.982 116.803C410.676 116.562 410.523 116.269 410.523 115.924C410.51 115.136 411.096 114.729 412.281 114.703H414.723V115.436ZM419.518 108.863H418.502V110.416H419.518V116.5C419.518 117.301 419.752 117.913 420.221 118.336C420.676 118.779 421.262 119 421.979 119H423.043V117.076H422.281C421.786 117.089 421.546 116.839 421.559 116.324V110.416H423.043V108.863H421.559V105.777H419.518V108.863ZM425.025 119H427.066V108.863H425.025V119ZM425.025 106.803H427.066V104.762H425.025V106.803ZM432.057 119H433.736L437.457 108.863H435.289L432.916 115.963H432.877L430.494 108.863H428.336L432.057 119ZM446.402 114.703V113.023C446.389 111.689 445.976 110.641 445.162 109.879C444.361 109.13 443.382 108.749 442.223 108.736C441.741 108.736 441.253 108.824 440.758 109C440.257 109.176 439.804 109.462 439.4 109.859C439.003 110.25 438.678 110.784 438.424 111.461C438.17 112.125 438.043 112.958 438.043 113.961C438.043 115.003 438.189 115.849 438.482 116.5C438.749 117.177 439.098 117.704 439.527 118.082C439.749 118.264 439.986 118.417 440.24 118.541C440.481 118.684 440.729 118.798 440.982 118.883C441.49 119.039 442.011 119.117 442.545 119.117C443.945 119.13 445.162 118.583 446.197 117.477L444.723 116.217C444.072 116.874 443.333 117.203 442.506 117.203C441.796 117.203 441.223 116.988 440.787 116.559C440.318 116.135 440.084 115.517 440.084 114.703H446.402ZM440.084 113.023C440.123 112.236 440.335 111.64 440.719 111.236C441.109 110.852 441.611 110.66 442.223 110.66C442.835 110.66 443.336 110.852 443.727 111.236C444.124 111.64 444.335 112.236 444.361 113.023H440.084ZM466.012 114.703V113.023C465.999 111.689 465.585 110.641 464.771 109.879C463.971 109.13 462.991 108.749 461.832 108.736C461.35 108.736 460.862 108.824 460.367 109C459.866 109.176 459.413 109.462 459.01 109.859C458.613 110.25 458.287 110.784 458.033 111.461C457.779 112.125 457.652 112.958 457.652 113.961C457.652 115.003 457.799 115.849 458.092 116.5C458.359 117.177 458.707 117.704 459.137 118.082C459.358 118.264 459.596 118.417 459.85 118.541C460.09 118.684 460.338 118.798 460.592 118.883C461.1 119.039 461.62 119.117 462.154 119.117C463.554 119.13 464.771 118.583 465.807 117.477L464.332 116.217C463.681 116.874 462.942 117.203 462.115 117.203C461.406 117.203 460.833 116.988 460.396 116.559C459.928 116.135 459.693 115.517 459.693 114.703H466.012ZM459.693 113.023C459.732 112.236 459.944 111.64 460.328 111.236C460.719 110.852 461.22 110.66 461.832 110.66C462.444 110.66 462.945 110.852 463.336 111.236C463.733 111.64 463.945 112.236 463.971 113.023H459.693ZM468.15 116.539C468.15 117.431 468.404 118.066 468.912 118.443C469.394 118.814 470.006 119 470.748 119H471.656V117.076H470.953C470.445 117.076 470.191 116.845 470.191 116.383V104.762H468.15V116.539ZM481.168 114.703V113.023C481.155 111.689 480.742 110.641 479.928 109.879C479.127 109.13 478.147 108.749 476.988 108.736C476.507 108.736 476.018 108.824 475.523 109C475.022 109.176 474.57 109.462 474.166 109.859C473.769 110.25 473.443 110.784 473.189 111.461C472.936 112.125 472.809 112.958 472.809 113.961C472.809 115.003 472.955 115.849 473.248 116.5C473.515 117.177 473.863 117.704 474.293 118.082C474.514 118.264 474.752 118.417 475.006 118.541C475.247 118.684 475.494 118.798 475.748 118.883C476.256 119.039 476.777 119.117 477.311 119.117C478.71 119.13 479.928 118.583 480.963 117.477L479.488 116.217C478.837 116.874 478.098 117.203 477.271 117.203C476.562 117.203 475.989 116.988 475.553 116.559C475.084 116.135 474.85 115.517 474.85 114.703H481.168ZM474.85 113.023C474.889 112.236 475.1 111.64 475.484 111.236C475.875 110.852 476.376 110.66 476.988 110.66C477.6 110.66 478.102 110.852 478.492 111.236C478.889 111.64 479.101 112.236 479.127 113.023H474.85ZM489.264 116.021C488.749 116.712 488.062 117.063 487.203 117.076C485.471 117.109 484.592 116.064 484.566 113.941C484.592 111.806 485.471 110.751 487.203 110.777C488.062 110.803 488.749 111.158 489.264 111.842L490.768 110.504C490.325 109.97 489.804 109.544 489.205 109.225C488.606 108.912 487.913 108.749 487.125 108.736C485.927 108.723 484.876 109.124 483.971 109.938C483.033 110.764 482.551 112.099 482.525 113.941C482.551 115.764 483.033 117.083 483.971 117.896C484.876 118.71 485.927 119.117 487.125 119.117C487.913 119.104 488.606 118.932 489.205 118.6C489.804 118.281 490.325 117.867 490.768 117.359L489.264 116.021ZM492.311 108.863H491.295V110.416H492.311V116.5C492.311 117.301 492.545 117.913 493.014 118.336C493.469 118.779 494.055 119 494.771 119H495.836V117.076H495.074C494.579 117.089 494.339 116.839 494.352 116.324V110.416H495.836V108.863H494.352V105.777H492.311V108.863ZM497.76 119H499.801V112.896C499.814 112.154 500.029 111.617 500.445 111.285C500.816 110.947 501.262 110.777 501.783 110.777C502.245 110.777 502.691 110.947 503.121 111.285L504.605 109.518C504 109.01 503.29 108.749 502.477 108.736C501.389 108.736 500.51 109.137 499.84 109.938H499.801V108.863H497.76V119ZM504.684 113.922C504.684 114.99 504.771 115.803 504.947 116.363C505.13 116.923 505.41 117.408 505.787 117.818C506.067 118.137 506.458 118.424 506.959 118.678C507.454 118.958 508.089 119.104 508.863 119.117C509.664 119.104 510.312 118.958 510.807 118.678C511.074 118.561 511.292 118.421 511.461 118.258C511.65 118.115 511.809 117.968 511.939 117.818C512.343 117.408 512.63 116.923 512.799 116.363C512.962 115.803 513.043 114.99 513.043 113.922C513.043 112.854 512.962 112.034 512.799 111.461C512.63 110.901 512.343 110.429 511.939 110.045C511.673 109.706 511.295 109.404 510.807 109.137C510.312 108.883 509.664 108.749 508.863 108.736C508.089 108.749 507.454 108.883 506.959 109.137C506.458 109.404 506.067 109.706 505.787 110.045C505.41 110.429 505.13 110.901 504.947 111.461C504.771 112.034 504.684 112.854 504.684 113.922ZM511.002 113.941C511.002 114.632 510.969 115.139 510.904 115.465C510.839 115.797 510.706 116.09 510.504 116.344C510.354 116.539 510.133 116.712 509.84 116.861C509.56 117.005 509.234 117.076 508.863 117.076C508.518 117.076 508.199 117.005 507.906 116.861C507.626 116.712 507.398 116.539 507.223 116.344C507.047 116.09 506.92 115.797 506.842 115.465C506.764 115.139 506.725 114.625 506.725 113.922C506.725 113.212 506.764 112.691 506.842 112.359C506.92 112.04 507.047 111.76 507.223 111.52C507.398 111.292 507.626 111.113 507.906 110.982C508.199 110.846 508.518 110.777 508.863 110.777C509.234 110.777 509.56 110.846 509.84 110.982C510.133 111.113 510.354 111.292 510.504 111.52C510.706 111.76 510.839 112.04 510.904 112.359C510.969 112.691 511.002 113.219 511.002 113.941ZM521.246 117.936V119H523.287V104.762H521.246V109.938C520.868 109.579 520.475 109.286 520.064 109.059C519.622 108.844 519.14 108.736 518.619 108.736C517.382 108.769 516.477 109.212 515.904 110.064C515.624 110.383 515.439 110.803 515.348 111.324C515.237 111.839 515.182 112.704 515.182 113.922C515.182 115.12 515.237 115.979 515.348 116.5C515.439 117.047 515.624 117.48 515.904 117.799C516.21 118.189 516.591 118.502 517.047 118.736C517.483 118.977 518.007 119.104 518.619 119.117C519.7 119.091 520.576 118.697 521.246 117.936ZM519.244 110.777C519.726 110.777 520.107 110.872 520.387 111.061C520.667 111.249 520.859 111.497 520.963 111.803C521.093 112.109 521.181 112.441 521.227 112.799C521.24 113.157 521.246 113.531 521.246 113.922C521.246 114.28 521.24 114.645 521.227 115.016C521.181 115.393 521.093 115.735 520.963 116.041C520.859 116.347 520.667 116.594 520.387 116.783C520.107 116.979 519.726 117.076 519.244 117.076C518.762 117.076 518.395 116.985 518.141 116.803C517.861 116.614 517.656 116.373 517.525 116.08C517.402 115.774 517.32 115.429 517.281 115.045C517.242 114.68 517.223 114.306 517.223 113.922C517.223 113.518 517.242 113.124 517.281 112.74C517.32 112.382 517.402 112.05 517.525 111.744C517.656 111.438 517.861 111.197 518.141 111.021C518.395 110.859 518.762 110.777 519.244 110.777ZM533.434 114.703V113.023C533.421 111.689 533.007 110.641 532.193 109.879C531.393 109.13 530.413 108.749 529.254 108.736C528.772 108.736 528.284 108.824 527.789 109C527.288 109.176 526.835 109.462 526.432 109.859C526.035 110.25 525.709 110.784 525.455 111.461C525.201 112.125 525.074 112.958 525.074 113.961C525.074 115.003 525.221 115.849 525.514 116.5C525.781 117.177 526.129 117.704 526.559 118.082C526.78 118.264 527.018 118.417 527.271 118.541C527.512 118.684 527.76 118.798 528.014 118.883C528.521 119.039 529.042 119.117 529.576 119.117C530.976 119.13 532.193 118.583 533.229 117.477L531.754 116.217C531.103 116.874 530.364 117.203 529.537 117.203C528.827 117.203 528.255 116.988 527.818 116.559C527.35 116.135 527.115 115.517 527.115 114.703H533.434ZM527.115 113.023C527.154 112.236 527.366 111.64 527.75 111.236C528.141 110.852 528.642 110.66 529.254 110.66C529.866 110.66 530.367 110.852 530.758 111.236C531.155 111.64 531.367 112.236 531.393 113.023H527.115Z" fill="white"/>
<path d="M352 127C360.284 127 367 120.284 367 112C367 103.716 360.284 97 352 97C343.716 97 337 103.716 337 112C337 120.284 343.716 127 352 127Z" fill="white"/>
<path d="M358 110V113.085H346V110H358Z" fill="#333333"/>
<path d="M585 402V172H307V402H585Z" fill="white"/>
<path opacity="0.4" d="M576.092 393.14V181.737H318.418V393.14H576.092Z" fill="#7CB4D0"/>
<path opacity="0.1" d="M576.092 393.14V181.737H318.418V393.14H576.092Z" fill="#BCDEEA"/>
<path opacity="0.5" d="M576.091 181.737L585 172H307L318.418 181.737H576.091Z" fill="#7CB4D0"/>
<path opacity="0.5" d="M318.418 393.14L307 402H585L576.091 393.14H318.418Z" fill="#7CB4D0"/>
<path opacity="0.4" d="M585 402V172H307V402H585Z" fill="#7CB4D0"/>
<path opacity="0.8" d="M318.504 393.14V181.737L307 172V402L318.504 393.14Z" fill="#7CB4D0"/>
<path opacity="0.2" d="M555.283 186.505V248.667H567.548V186.505H555.283Z" fill="#3E6E7A"/>
<path opacity="0.2" d="M553.24 190.649V246.595H565.505V190.649H553.24Z" fill="#3E6E7A"/>
<path opacity="0.2" d="M555.283 190.649V246.595H565.504V190.649H555.283Z" fill="#3E6E7A"/>
<path opacity="0.2" d="M565.505 190.649L567.549 186.505H555.284L553.24 190.575L565.505 190.649Z" fill="#3E6E7A"/>
<path opacity="0.2" d="M553.24 246.595L555.284 248.667H567.549L565.505 246.595H553.24Z" fill="#3E6E7A"/>
<path opacity="0.5" d="M555.283 186.505L553.239 190.649V246.595L555.283 248.667V186.505Z" fill="white"/>
<path opacity="0.2" d="M555.283 256.955V319.117H567.548V256.955H555.283Z" fill="#3E6E7A"/>
<path opacity="0.2" d="M553.24 261.099V317.045H565.505V261.099H553.24Z" fill="#3E6E7A"/>
<path opacity="0.2" d="M555.283 261.099V317.045H565.504V261.099H555.283Z" fill="#3E6E7A"/>
<path opacity="0.2" d="M565.505 261.099L567.549 256.955H555.284L553.24 261.026L565.505 261.099Z" fill="#3E6E7A"/>
<path opacity="0.2" d="M553.24 317.045L555.284 319.117H567.549L565.505 317.045H553.24Z" fill="#3E6E7A"/>
<path opacity="0.5" d="M555.283 256.955L553.239 261.099V317.045L555.283 319.117V256.955Z" fill="white"/>
<path opacity="0.2" d="M555.283 327.406V389.568H567.548V327.406H555.283Z" fill="#3E6E7A"/>
<path opacity="0.2" d="M553.24 331.55V387.496H565.505V331.55H553.24Z" fill="#3E6E7A"/>
<path opacity="0.2" d="M555.283 331.55V387.496H565.504V331.55H555.283Z" fill="#3E6E7A"/>
<path opacity="0.2" d="M565.505 331.55L567.549 327.406H555.284L553.24 331.476L565.505 331.55Z" fill="#3E6E7A"/>
<path opacity="0.2" d="M553.24 387.496L555.284 389.568H567.549L565.505 387.496H553.24Z" fill="#3E6E7A"/>
<path opacity="0.5" d="M555.283 327.406L553.239 331.55V387.496L555.283 389.568V327.406Z" fill="white"/>
<path d="M541 442.5H351C340.23 442.5 331.5 451.23 331.5 462C331.5 472.77 340.23 481.5 351 481.5H541C551.77 481.5 560.5 472.77 560.5 462C560.5 451.23 551.77 442.5 541 442.5Z" fill="#B30000" stroke="#C00000"/>
<path d="M377.662 456.803H380.777C381.363 456.79 381.878 456.923 382.32 457.203C382.613 457.372 382.841 457.604 383.004 457.896C383.16 458.222 383.238 458.622 383.238 459.098C383.238 459.671 383.046 460.191 382.662 460.66C382.258 461.142 381.656 461.389 380.855 461.402H377.662V456.803ZM375.504 469H377.662V463.443H380.943C382.408 463.417 383.521 462.949 384.283 462.037C385.025 461.171 385.396 460.211 385.396 459.156C385.396 458.375 385.25 457.698 384.957 457.125C384.677 456.533 384.312 456.077 383.863 455.758C383.329 455.335 382.802 455.055 382.281 454.918C381.76 454.814 381.22 454.762 380.66 454.762H375.504V469ZM386.305 463.922C386.305 464.99 386.393 465.803 386.568 466.363C386.751 466.923 387.031 467.408 387.408 467.818C387.688 468.137 388.079 468.424 388.58 468.678C389.075 468.958 389.71 469.104 390.484 469.117C391.285 469.104 391.933 468.958 392.428 468.678C392.695 468.561 392.913 468.421 393.082 468.258C393.271 468.115 393.43 467.968 393.561 467.818C393.964 467.408 394.251 466.923 394.42 466.363C394.583 465.803 394.664 464.99 394.664 463.922C394.664 462.854 394.583 462.034 394.42 461.461C394.251 460.901 393.964 460.429 393.561 460.045C393.294 459.706 392.916 459.404 392.428 459.137C391.933 458.883 391.285 458.749 390.484 458.736C389.71 458.749 389.075 458.883 388.58 459.137C388.079 459.404 387.688 459.706 387.408 460.045C387.031 460.429 386.751 460.901 386.568 461.461C386.393 462.034 386.305 462.854 386.305 463.922ZM392.623 463.941C392.623 464.632 392.59 465.139 392.525 465.465C392.46 465.797 392.327 466.09 392.125 466.344C391.975 466.539 391.754 466.712 391.461 466.861C391.181 467.005 390.855 467.076 390.484 467.076C390.139 467.076 389.82 467.005 389.527 466.861C389.247 466.712 389.02 466.539 388.844 466.344C388.668 466.09 388.541 465.797 388.463 465.465C388.385 465.139 388.346 464.625 388.346 463.922C388.346 463.212 388.385 462.691 388.463 462.359C388.541 462.04 388.668 461.76 388.844 461.52C389.02 461.292 389.247 461.113 389.527 460.982C389.82 460.846 390.139 460.777 390.484 460.777C390.855 460.777 391.181 460.846 391.461 460.982C391.754 461.113 391.975 461.292 392.125 461.52C392.327 461.76 392.46 462.04 392.525 462.359C392.59 462.691 392.623 463.219 392.623 463.941ZM397.105 465.904L395.68 467.301C397.001 468.512 398.489 469.117 400.143 469.117C401.36 469.104 402.359 468.824 403.141 468.277C403.928 467.743 404.329 466.985 404.342 466.002C404.342 465.162 404.124 464.469 403.688 463.922C403.219 463.362 402.457 463.043 401.402 462.965L399.723 462.838C399.228 462.786 398.883 462.665 398.688 462.477C398.473 462.307 398.372 462.109 398.385 461.881C398.385 461.523 398.518 461.23 398.785 461.002C399.039 460.774 399.485 460.66 400.123 460.66C400.683 460.66 401.178 460.742 401.607 460.904C402.044 461.087 402.457 461.318 402.848 461.598L404.107 460.123C403.613 459.693 403.053 459.352 402.428 459.098C402.102 458.98 401.754 458.889 401.383 458.824C401.012 458.766 400.592 458.736 400.123 458.736C399.042 458.736 398.15 458.997 397.447 459.518C396.725 460.038 396.357 460.82 396.344 461.861C396.357 462.727 396.637 463.401 397.184 463.883C397.717 464.378 398.411 464.664 399.264 464.742L401.061 464.898C401.438 464.911 401.741 464.993 401.969 465.143C402.19 465.286 402.301 465.54 402.301 465.904C402.301 466.314 402.115 466.633 401.744 466.861C401.373 467.089 400.895 467.203 400.309 467.203C399 467.203 397.932 466.77 397.105 465.904ZM406.471 469H408.512V458.863H406.471V469ZM406.471 456.803H408.512V454.762H406.471V456.803ZM411.334 458.863H410.318V460.416H411.334V466.5C411.334 467.301 411.568 467.913 412.037 468.336C412.493 468.779 413.079 469 413.795 469H414.859V467.076H414.098C413.603 467.089 413.362 466.839 413.375 466.324V460.416H414.859V458.863H413.375V455.777H411.334V458.863ZM416.842 469H418.883V458.863H416.842V469ZM416.842 456.803H418.883V454.762H416.842V456.803ZM423.873 469H425.553L429.273 458.863H427.105L424.732 465.963H424.693L422.311 458.863H420.152L423.873 469ZM438.219 464.703V463.023C438.206 461.689 437.792 460.641 436.979 459.879C436.178 459.13 435.198 458.749 434.039 458.736C433.557 458.736 433.069 458.824 432.574 459C432.073 459.176 431.62 459.462 431.217 459.859C430.82 460.25 430.494 460.784 430.24 461.461C429.986 462.125 429.859 462.958 429.859 463.961C429.859 465.003 430.006 465.849 430.299 466.5C430.566 467.177 430.914 467.704 431.344 468.082C431.565 468.264 431.803 468.417 432.057 468.541C432.298 468.684 432.545 468.798 432.799 468.883C433.307 469.039 433.827 469.117 434.361 469.117C435.761 469.13 436.979 468.583 438.014 467.477L436.539 466.217C435.888 466.874 435.149 467.203 434.322 467.203C433.613 467.203 433.04 466.988 432.604 466.559C432.135 466.135 431.9 465.517 431.9 464.703H438.219ZM431.9 463.023C431.939 462.236 432.151 461.64 432.535 461.236C432.926 460.852 433.427 460.66 434.039 460.66C434.651 460.66 435.152 460.852 435.543 461.236C435.94 461.64 436.152 462.236 436.178 463.023H431.9ZM457.828 464.703V463.023C457.815 461.689 457.402 460.641 456.588 459.879C455.787 459.13 454.807 458.749 453.648 458.736C453.167 458.736 452.678 458.824 452.184 459C451.682 459.176 451.23 459.462 450.826 459.859C450.429 460.25 450.104 460.784 449.85 461.461C449.596 462.125 449.469 462.958 449.469 463.961C449.469 465.003 449.615 465.849 449.908 466.5C450.175 467.177 450.523 467.704 450.953 468.082C451.174 468.264 451.412 468.417 451.666 468.541C451.907 468.684 452.154 468.798 452.408 468.883C452.916 469.039 453.437 469.117 453.971 469.117C455.37 469.13 456.588 468.583 457.623 467.477L456.148 466.217C455.497 466.874 454.758 467.203 453.932 467.203C453.222 467.203 452.649 466.988 452.213 466.559C451.744 466.135 451.51 465.517 451.51 464.703H457.828ZM451.51 463.023C451.549 462.236 451.76 461.64 452.145 461.236C452.535 460.852 453.036 460.66 453.648 460.66C454.26 460.66 454.762 460.852 455.152 461.236C455.549 461.64 455.761 462.236 455.787 463.023H451.51ZM459.967 466.539C459.967 467.431 460.221 468.066 460.729 468.443C461.21 468.814 461.822 469 462.564 469H463.473V467.076H462.77C462.262 467.076 462.008 466.845 462.008 466.383V454.762H459.967V466.539ZM472.984 464.703V463.023C472.971 461.689 472.558 460.641 471.744 459.879C470.943 459.13 469.964 458.749 468.805 458.736C468.323 458.736 467.835 458.824 467.34 459C466.839 459.176 466.386 459.462 465.982 459.859C465.585 460.25 465.26 460.784 465.006 461.461C464.752 462.125 464.625 462.958 464.625 463.961C464.625 465.003 464.771 465.849 465.064 466.5C465.331 467.177 465.68 467.704 466.109 468.082C466.331 468.264 466.568 468.417 466.822 468.541C467.063 468.684 467.311 468.798 467.564 468.883C468.072 469.039 468.593 469.117 469.127 469.117C470.527 469.13 471.744 468.583 472.779 467.477L471.305 466.217C470.654 466.874 469.915 467.203 469.088 467.203C468.378 467.203 467.805 466.988 467.369 466.559C466.9 466.135 466.666 465.517 466.666 464.703H472.984ZM466.666 463.023C466.705 462.236 466.917 461.64 467.301 461.236C467.691 460.852 468.193 460.66 468.805 460.66C469.417 460.66 469.918 460.852 470.309 461.236C470.706 461.64 470.917 462.236 470.943 463.023H466.666ZM481.08 466.021C480.566 466.712 479.879 467.063 479.02 467.076C477.288 467.109 476.409 466.064 476.383 463.941C476.409 461.806 477.288 460.751 479.02 460.777C479.879 460.803 480.566 461.158 481.08 461.842L482.584 460.504C482.141 459.97 481.62 459.544 481.021 459.225C480.423 458.912 479.729 458.749 478.941 458.736C477.743 458.723 476.692 459.124 475.787 459.938C474.85 460.764 474.368 462.099 474.342 463.941C474.368 465.764 474.85 467.083 475.787 467.896C476.692 468.71 477.743 469.117 478.941 469.117C479.729 469.104 480.423 468.932 481.021 468.6C481.62 468.281 482.141 467.867 482.584 467.359L481.08 466.021ZM484.127 458.863H483.111V460.416H484.127V466.5C484.127 467.301 484.361 467.913 484.83 468.336C485.286 468.779 485.872 469 486.588 469H487.652V467.076H486.891C486.396 467.089 486.155 466.839 486.168 466.324V460.416H487.652V458.863H486.168V455.777H484.127V458.863ZM489.576 469H491.617V462.896C491.63 462.154 491.845 461.617 492.262 461.285C492.633 460.947 493.079 460.777 493.6 460.777C494.062 460.777 494.508 460.947 494.938 461.285L496.422 459.518C495.816 459.01 495.107 458.749 494.293 458.736C493.206 458.736 492.327 459.137 491.656 459.938H491.617V458.863H489.576V469ZM496.5 463.922C496.5 464.99 496.588 465.803 496.764 466.363C496.946 466.923 497.226 467.408 497.604 467.818C497.883 468.137 498.274 468.424 498.775 468.678C499.27 468.958 499.905 469.104 500.68 469.117C501.48 469.104 502.128 468.958 502.623 468.678C502.89 468.561 503.108 468.421 503.277 468.258C503.466 468.115 503.626 467.968 503.756 467.818C504.16 467.408 504.446 466.923 504.615 466.363C504.778 465.803 504.859 464.99 504.859 463.922C504.859 462.854 504.778 462.034 504.615 461.461C504.446 460.901 504.16 460.429 503.756 460.045C503.489 459.706 503.111 459.404 502.623 459.137C502.128 458.883 501.48 458.749 500.68 458.736C499.905 458.749 499.27 458.883 498.775 459.137C498.274 459.404 497.883 459.706 497.604 460.045C497.226 460.429 496.946 460.901 496.764 461.461C496.588 462.034 496.5 462.854 496.5 463.922ZM502.818 463.941C502.818 464.632 502.786 465.139 502.721 465.465C502.656 465.797 502.522 466.09 502.32 466.344C502.171 466.539 501.949 466.712 501.656 466.861C501.376 467.005 501.051 467.076 500.68 467.076C500.335 467.076 500.016 467.005 499.723 466.861C499.443 466.712 499.215 466.539 499.039 466.344C498.863 466.09 498.736 465.797 498.658 465.465C498.58 465.139 498.541 464.625 498.541 463.922C498.541 463.212 498.58 462.691 498.658 462.359C498.736 462.04 498.863 461.76 499.039 461.52C499.215 461.292 499.443 461.113 499.723 460.982C500.016 460.846 500.335 460.777 500.68 460.777C501.051 460.777 501.376 460.846 501.656 460.982C501.949 461.113 502.171 461.292 502.32 461.52C502.522 461.76 502.656 462.04 502.721 462.359C502.786 462.691 502.818 463.219 502.818 463.941ZM513.062 467.936V469H515.104V454.762H513.062V459.938C512.685 459.579 512.291 459.286 511.881 459.059C511.438 458.844 510.956 458.736 510.436 458.736C509.199 458.769 508.294 459.212 507.721 460.064C507.441 460.383 507.255 460.803 507.164 461.324C507.053 461.839 506.998 462.704 506.998 463.922C506.998 465.12 507.053 465.979 507.164 466.5C507.255 467.047 507.441 467.48 507.721 467.799C508.027 468.189 508.408 468.502 508.863 468.736C509.299 468.977 509.824 469.104 510.436 469.117C511.516 469.091 512.392 468.697 513.062 467.936ZM511.061 460.777C511.542 460.777 511.923 460.872 512.203 461.061C512.483 461.249 512.675 461.497 512.779 461.803C512.91 462.109 512.997 462.441 513.043 462.799C513.056 463.157 513.062 463.531 513.062 463.922C513.062 464.28 513.056 464.645 513.043 465.016C512.997 465.393 512.91 465.735 512.779 466.041C512.675 466.347 512.483 466.594 512.203 466.783C511.923 466.979 511.542 467.076 511.061 467.076C510.579 467.076 510.211 466.985 509.957 466.803C509.677 466.614 509.472 466.373 509.342 466.08C509.218 465.774 509.137 465.429 509.098 465.045C509.059 464.68 509.039 464.306 509.039 463.922C509.039 463.518 509.059 463.124 509.098 462.74C509.137 462.382 509.218 462.05 509.342 461.744C509.472 461.438 509.677 461.197 509.957 461.021C510.211 460.859 510.579 460.777 511.061 460.777ZM525.25 464.703V463.023C525.237 461.689 524.824 460.641 524.01 459.879C523.209 459.13 522.229 458.749 521.07 458.736C520.589 458.736 520.1 458.824 519.605 459C519.104 459.176 518.652 459.462 518.248 459.859C517.851 460.25 517.525 460.784 517.271 461.461C517.018 462.125 516.891 462.958 516.891 463.961C516.891 465.003 517.037 465.849 517.33 466.5C517.597 467.177 517.945 467.704 518.375 468.082C518.596 468.264 518.834 468.417 519.088 468.541C519.329 468.684 519.576 468.798 519.83 468.883C520.338 469.039 520.859 469.117 521.393 469.117C522.792 469.13 524.01 468.583 525.045 467.477L523.57 466.217C522.919 466.874 522.18 467.203 521.354 467.203C520.644 467.203 520.071 466.988 519.635 466.559C519.166 466.135 518.932 465.517 518.932 464.703H525.25ZM518.932 463.023C518.971 462.236 519.182 461.64 519.566 461.236C519.957 460.852 520.458 460.66 521.07 460.66C521.682 460.66 522.184 460.852 522.574 461.236C522.971 461.64 523.183 462.236 523.209 463.023H518.932Z" fill="white"/>
<path d="M351 477C359.284 477 366 470.284 366 462C366 453.716 359.284 447 351 447C342.716 447 336 453.716 336 462C336 470.284 342.716 477 351 477Z" fill="white"/>
<path d="M349.512 468H352.488V463.388H357V460.612H352.488V456H349.512V460.612H345V463.388H349.512V468Z" fill="#A00000"/>
</g>
<path d="M42.156 40.4146H37.62V60.0146H40.7V52.6506H42.156C45.236 52.6506 46.748 50.9426 46.748 47.8066V45.2586C46.748 42.1226 45.236 40.4146 42.156 40.4146ZM42.156 43.2146C43.136 43.2146 43.668 43.6626 43.668 45.0626V48.0026C43.668 49.4026 43.136 49.8506 42.156 49.8506H40.7V43.2146H42.156ZM57.8874 60.0146C57.5794 59.2866 57.5514 58.5866 57.5514 57.6346V54.6106C57.5514 52.5666 57.0474 51.0826 55.5074 50.4386C56.8794 49.7946 57.5234 48.4786 57.5234 46.4626V44.9226C57.5234 41.8986 56.1514 40.4146 52.9594 40.4146H48.3114V60.0146H51.3914V52.0346H52.4554C53.8554 52.0346 54.4714 52.7066 54.4714 54.5266V57.6066C54.4714 59.2026 54.5834 59.5106 54.7514 60.0146H57.8874ZM52.8754 43.2146C53.9674 43.2146 54.4434 43.8306 54.4434 45.2306V47.1626C54.4434 48.7306 53.7434 49.2346 52.5954 49.2346H51.3914V43.2146H52.8754ZM62.657 43.2146H67.977V40.4146H59.577V60.0146H67.977V57.2146H62.657V51.4746H66.885V48.6746H62.657V43.2146ZM69.8856 60.0146H74.7576C77.8376 60.0146 79.3496 58.3066 79.3496 55.1706V45.2586C79.3496 42.1226 77.8376 40.4146 74.7576 40.4146H69.8856V60.0146ZM74.7016 43.2146C75.6816 43.2146 76.2696 43.7186 76.2696 45.1186V55.3106C76.2696 56.7106 75.6816 57.2146 74.7016 57.2146H72.9656V43.2146H74.7016ZM81.3153 60.0146H84.3953V40.4146H81.3153V60.0146ZM92.6673 52.7066V55.5066C92.6673 56.9066 92.0513 57.4106 91.0713 57.4106C90.0913 57.4106 89.4753 56.9066 89.4753 55.5066V44.9226C89.4753 43.5226 90.0913 42.9906 91.0713 42.9906C92.0513 42.9906 92.6673 43.5226 92.6673 44.9226V47.0226H95.5793V45.1186C95.5793 41.9826 94.0113 40.1906 90.9873 40.1906C87.9633 40.1906 86.3953 41.9826 86.3953 45.1186V55.3106C86.3953 58.4466 87.9633 60.2386 90.9873 60.2386C94.0113 60.2386 95.5793 58.4466 95.5793 55.3106V52.7066H92.6673ZM96.5521 43.2146H99.7721V60.0146H102.852V43.2146H106.072V40.4146H96.5521V43.2146ZM110.509 43.2146H115.829V40.4146H107.429V60.0146H115.829V57.2146H110.509V51.4746H114.737V48.6746H110.509V43.2146ZM117.737 60.0146H122.609C125.689 60.0146 127.201 58.3066 127.201 55.1706V45.2586C127.201 42.1226 125.689 40.4146 122.609 40.4146H117.737V60.0146ZM122.553 43.2146C123.533 43.2146 124.121 43.7186 124.121 45.1186V55.3106C124.121 56.7106 123.533 57.2146 122.553 57.2146H120.817V43.2146H122.553ZM143.091 60.0146C142.783 59.2866 142.755 58.5866 142.755 57.6346V54.6106C142.755 52.5666 142.251 51.0826 140.711 50.4386C142.083 49.7946 142.727 48.4786 142.727 46.4626V44.9226C142.727 41.8986 141.355 40.4146 138.163 40.4146H133.515V60.0146H136.595V52.0346H137.659C139.059 52.0346 139.675 52.7066 139.675 54.5266V57.6066C139.675 59.2026 139.787 59.5106 139.955 60.0146H143.091ZM138.079 43.2146C139.171 43.2146 139.647 43.8306 139.647 45.2306V47.1626C139.647 48.7306 138.947 49.2346 137.799 49.2346H136.595V43.2146H138.079ZM147.86 43.2146H153.18V40.4146H144.78V60.0146H153.18V57.2146H147.86V51.4746H152.088V48.6746H147.86V43.2146ZM154.697 45.1186C154.697 50.7186 160.717 51.4746 160.717 55.5066C160.717 56.9066 160.101 57.4106 159.121 57.4106C158.141 57.4106 157.525 56.9066 157.525 55.5066V54.1066H154.613V55.3106C154.613 58.4466 156.181 60.2386 159.205 60.2386C162.229 60.2386 163.797 58.4466 163.797 55.3106C163.797 49.7106 157.777 48.9546 157.777 44.9226C157.777 43.5226 158.337 42.9906 159.317 42.9906C160.297 42.9906 160.857 43.5226 160.857 44.9226V45.7346H163.769V45.1186C163.769 41.9826 162.229 40.1906 159.233 40.1906C156.237 40.1906 154.697 41.9826 154.697 45.1186ZM165.421 40.4146V55.3386C165.421 58.4746 166.989 60.2666 170.013 60.2666C173.037 60.2666 174.605 58.4746 174.605 55.3386V40.4146H171.693V55.5346C171.693 56.9346 171.077 57.4386 170.097 57.4386C169.117 57.4386 168.501 56.9346 168.501 55.5346V40.4146H165.421ZM176.718 60.0146H184.866V57.2146H179.798V40.4146H176.718V60.0146ZM183.915 43.2146H187.135V60.0146H190.215V43.2146H193.435V40.4146H183.915V43.2146ZM194.4 45.1186C194.4 50.7186 200.42 51.4746 200.42 55.5066C200.42 56.9066 199.804 57.4106 198.824 57.4106C197.844 57.4106 197.228 56.9066 197.228 55.5066V54.1066H194.316V55.3106C194.316 58.4466 195.884 60.2386 198.908 60.2386C201.932 60.2386 203.5 58.4466 203.5 55.3106C203.5 49.7106 197.48 48.9546 197.48 44.9226C197.48 43.5226 198.04 42.9906 199.02 42.9906C200 42.9906 200.56 43.5226 200.56 44.9226V45.7346H203.472V45.1186C203.472 41.9826 201.932 40.1906 198.936 40.1906C195.94 40.1906 194.4 41.9826 194.4 45.1186Z" fill="white"/>
<path d="M338.952 38.4146H334.444L331.308 58.0146H334.136L334.668 54.4586H338.448L338.98 58.0146H342.088L338.952 38.4146ZM336.544 41.8866L338.028 51.7986H335.06L336.544 41.8866ZM349.542 50.7066V53.5066C349.542 54.9066 348.926 55.4106 347.946 55.4106C346.966 55.4106 346.35 54.9066 346.35 53.5066V42.9226C346.35 41.5226 346.966 40.9906 347.946 40.9906C348.926 40.9906 349.542 41.5226 349.542 42.9226V45.0226H352.454V43.1186C352.454 39.9826 350.886 38.1906 347.862 38.1906C344.838 38.1906 343.27 39.9826 343.27 43.1186V53.3106C343.27 56.4466 344.838 58.2386 347.862 58.2386C350.886 58.2386 352.454 56.4466 352.454 53.3106V50.7066H349.542ZM353.427 41.2146H356.647V58.0146H359.727V41.2146H362.947V38.4146H353.427V41.2146ZM364.164 38.4146V53.3386C364.164 56.4746 365.732 58.2666 368.756 58.2666C371.78 58.2666 373.348 56.4746 373.348 53.3386V38.4146H370.436V53.5346C370.436 54.9346 369.82 55.4386 368.84 55.4386C367.86 55.4386 367.244 54.9346 367.244 53.5346V38.4146H364.164ZM382.292 38.4146H377.784L374.648 58.0146H377.476L378.008 54.4586H381.788L382.32 58.0146H385.428L382.292 38.4146ZM379.884 41.8866L381.368 51.7986H378.4L379.884 41.8866ZM386.862 58.0146H395.01V55.2146H389.942V38.4146H386.862V58.0146ZM410.274 58.0146C409.966 57.2866 409.938 56.5866 409.938 55.6346V52.6106C409.938 50.5666 409.434 49.0826 407.894 48.4386C409.266 47.7946 409.91 46.4786 409.91 44.4626V42.9226C409.91 39.8986 408.538 38.4146 405.346 38.4146H400.698V58.0146H403.778V50.0346H404.842C406.242 50.0346 406.858 50.7066 406.858 52.5266V55.6066C406.858 57.2026 406.97 57.5106 407.138 58.0146H410.274ZM405.262 41.2146C406.354 41.2146 406.83 41.8306 406.83 43.2306V45.1626C406.83 46.7306 406.13 47.2346 404.982 47.2346H403.778V41.2146H405.262ZM415.044 41.2146H420.364V38.4146H411.964V58.0146H420.364V55.2146H415.044V49.4746H419.272V46.6746H415.044V41.2146ZM421.88 43.1186C421.88 48.7186 427.9 49.4746 427.9 53.5066C427.9 54.9066 427.284 55.4106 426.304 55.4106C425.324 55.4106 424.708 54.9066 424.708 53.5066V52.1066H421.796V53.3106C421.796 56.4466 423.364 58.2386 426.388 58.2386C429.412 58.2386 430.98 56.4466 430.98 53.3106C430.98 47.7106 424.96 46.9546 424.96 42.9226C424.96 41.5226 425.52 40.9906 426.5 40.9906C427.48 40.9906 428.04 41.5226 428.04 42.9226V43.7346H430.952V43.1186C430.952 39.9826 429.412 38.1906 426.416 38.1906C423.42 38.1906 421.88 39.9826 421.88 43.1186ZM432.605 38.4146V53.3386C432.605 56.4746 434.173 58.2666 437.197 58.2666C440.221 58.2666 441.789 56.4746 441.789 53.3386V38.4146H438.877V53.5346C438.877 54.9346 438.261 55.4386 437.281 55.4386C436.301 55.4386 435.685 54.9346 435.685 53.5346V38.4146H432.605ZM443.901 58.0146H452.049V55.2146H446.981V38.4146H443.901V58.0146ZM451.099 41.2146H454.319V58.0146H457.399V41.2146H460.619V38.4146H451.099V41.2146ZM461.583 43.1186C461.583 48.7186 467.603 49.4746 467.603 53.5066C467.603 54.9066 466.987 55.4106 466.007 55.4106C465.027 55.4106 464.411 54.9066 464.411 53.5066V52.1066H461.499V53.3106C461.499 56.4466 463.067 58.2386 466.091 58.2386C469.115 58.2386 470.683 56.4466 470.683 53.3106C470.683 47.7106 464.663 46.9546 464.663 42.9226C464.663 41.5226 465.223 40.9906 466.203 40.9906C467.183 40.9906 467.743 41.5226 467.743 42.9226V43.7346H470.655V43.1186C470.655 39.9826 469.115 38.1906 466.119 38.1906C463.123 38.1906 461.583 39.9826 461.583 43.1186Z" fill="white"/>
</g>
<defs>
<filter id="filter0_d" x="0" y="0" width="597" height="837" filterUnits="userSpaceOnUse" color-interpolation-filters="sRGB">
<feFlood flood-opacity="0" result="BackgroundImageFix"/>
<feColorMatrix in="SourceAlpha" type="matrix" values="0 0 0 0 0 0 0 0 0 0 0 0 0 0 0 0 0 0 127 0"/>
<feOffset dy="4"/>
<feGaussianBlur stdDeviation="2"/>
<feColorMatrix type="matrix" values="0 0 0 0 0 0 0 0 0 0 0 0 0 0 0 0 0 0 0.25 0"/>
<feBlend mode="normal" in2="BackgroundImageFix" result="effect1_dropShadow"/>
<feBlend mode="normal" in="SourceGraphic" in2="effect1_dropShadow" result="shape"/>
</filter>
<linearGradient id="paint0_linear" x1="298.5" y1="0" x2="298.5" y2="514" gradientUnits="userSpaceOnUse">
<stop stop-color="#014C91"/>
<stop offset="1" stop-color="#003257"/>
</linearGradient>
<clipPath id="clip0">
<rect width="597" height="522" fill="white"/>
</clipPath>
</defs>
</svg>
