<svg width="592" height="644" viewBox="0 0 592 644" fill="none" xmlns="http://www.w3.org/2000/svg">
<rect x="0.239746" y="0.289551" width="591" height="643" rx="5" fill="url(#paint0_linear)"/>
<path d="M572.197 49.9004H20.2397V621.095H572.197V49.9004Z" fill="white"/>
<path opacity="0.4" d="M550.936 68.2065H43.6074V597.636H550.936V68.2065Z" fill="#7CB4D0"/>
<path opacity="0.1" d="M550.936 68.2065H43.6074V597.636H550.936V68.2065Z" fill="#BCDEEA"/>
<path opacity="0.5" d="M43.6063 68.2056L20.2397 49.9004V621.095L43.6063 597.636V68.2056Z" fill="#7CB4D0"/>
<path opacity="0.5" d="M550.936 597.636L572.197 621.095V49.9004L550.936 68.2056V597.636Z" fill="#7CB4D0"/>
<path opacity="0.4" d="M572.197 49.9004H20.2397V621.095H572.197V49.9004Z" fill="#7CB4D0"/>
<path opacity="0.8" d="M550.935 597.458H43.6063L20.2397 621.095H572.197L550.935 597.458Z" fill="#7CB4D0"/>
<rect x="65.5186" y="185.731" width="66.1749" height="8.24829" fill="#003E6B"/>
<rect x="65.5186" y="204.294" width="66.1749" height="8.24829" fill="#003E6B"/>
<rect x="65.5186" y="224.919" width="66.1749" height="8.24829" fill="#003E6B"/>
<rect x="65.5186" y="245.543" width="66.1749" height="8.24829" fill="#003E6B"/>
<rect x="65.5186" y="274.677" width="66.1749" height="8.24829" fill="#003E6B"/>
<rect x="65.5186" y="335.498" width="66.1749" height="8.24829" fill="#003E6B"/>
<rect x="65.5186" y="399.591" width="66.1749" height="8.24829" fill="#003E6B"/>
<rect x="65.5186" y="440.84" width="66.1749" height="8.24829" fill="#003E6B"/>
<rect x="65.5186" y="492.66" width="66.1749" height="8.24829" fill="#003E6B"/>
<rect x="65.5186" y="531.848" width="66.1749" height="8.24829" fill="#003E6B"/>
<rect x="65.5186" y="561.886" width="466.707" height="20.8973" fill="#003E6B"/>
<path d="M76.1459 34.2896H77.5539V22.6096H76.1459V34.2896ZM82.3364 34.4816C83.5364 34.4816 84.4644 34.0176 85.1364 33.1696L85.1844 34.2896H86.3844V28.8976C86.3844 26.8496 85.3284 25.8416 83.1524 25.8416C81.0884 25.8416 79.9684 26.7536 79.8244 28.5456H81.2004C81.2484 27.5376 81.9364 27.0576 83.1044 27.0576C84.3844 27.0576 84.9764 27.6496 84.9764 28.9296V29.3776H82.9924C80.6724 29.3776 79.5844 30.3056 79.5844 31.9536C79.5844 33.5696 80.6404 34.4816 82.3364 34.4816ZM82.5444 33.2656C81.5044 33.2656 80.9924 32.7856 80.9924 31.9216C80.9924 30.9936 81.6004 30.5456 83.0404 30.5456H84.9764V31.7136C84.4804 32.7216 83.6484 33.2656 82.5444 33.2656ZM91.4886 34.4816C92.6886 34.4816 93.5686 34.0176 94.2726 32.9776L94.3206 34.2896H95.5206V22.6096H94.1126V27.1216C93.4406 26.2416 92.5926 25.8416 91.4886 25.8416C89.5686 25.8416 88.4486 27.0256 88.4486 29.2816V31.0416C88.4486 33.2976 89.5686 34.4816 91.4886 34.4816ZM91.6646 33.2496C90.5286 33.2496 89.8566 32.4656 89.8566 30.9936V29.3296C89.8566 27.8576 90.5286 27.0736 91.6646 27.0736C92.7206 27.0736 93.5686 27.7616 94.1126 28.9456V31.3776C93.5686 32.5616 92.7206 33.2496 91.6646 33.2496ZM100.801 34.4816C102.001 34.4816 102.881 34.0176 103.585 32.9776L103.633 34.2896H104.833V22.6096H103.425V27.1216C102.753 26.2416 101.905 25.8416 100.801 25.8416C98.8811 25.8416 97.7611 27.0256 97.7611 29.2816V31.0416C97.7611 33.2976 98.8811 34.4816 100.801 34.4816ZM100.977 33.2496C99.8411 33.2496 99.1691 32.4656 99.1691 30.9936V29.3296C99.1691 27.8576 99.8411 27.0736 100.977 27.0736C102.033 27.0736 102.881 27.7616 103.425 28.9456V31.3776C102.881 32.5616 102.033 33.2496 100.977 33.2496ZM110.658 34.4816C112.642 34.4816 113.874 33.5856 113.986 31.8256H112.626C112.53 32.7216 111.874 33.2656 110.626 33.2656C109.154 33.2656 108.482 32.5296 108.482 30.9136V30.5456H114.05V29.3456C114.05 27.0736 112.818 25.8416 110.562 25.8416C108.306 25.8416 107.074 27.0736 107.074 29.3456V30.9776C107.074 33.2496 108.338 34.4816 110.658 34.4816ZM108.482 29.3776C108.482 27.7936 109.138 27.0576 110.594 27.0576C112.034 27.0576 112.69 27.7936 112.69 29.3776H108.482ZM116.255 34.2896H117.663V29.5376C117.935 27.9536 118.687 27.2656 120.031 27.2656H120.447V25.8736H119.887C118.687 25.8736 117.935 26.4016 117.519 27.5696L117.455 26.0336H116.255V34.2896Z" fill="white"/>
<path d="M193.882 34.2896H195.338L197.69 25.8576L200.026 34.2896H201.498L204.426 23.4096H202.986L200.762 31.9536L198.41 23.4096H197.002L194.666 31.9216L192.442 23.4096H190.954L193.882 34.2896ZM207.919 34.2896H209.359V24.7376H212.575V23.4096H204.703V24.7376H207.919V34.2896Z" fill="white"/>
<path d="M273.794 37.2016H275.202V33.2016C275.874 34.0816 276.722 34.4816 277.826 34.4816C279.746 34.4816 280.866 33.2976 280.866 31.0416V29.2816C280.866 27.0256 279.746 25.8416 277.826 25.8416C276.626 25.8416 275.746 26.3056 275.042 27.3456L274.994 26.0336H273.794V37.2016ZM277.65 33.2496C276.594 33.2496 275.746 32.5616 275.202 31.3776V28.9456C275.746 27.7616 276.594 27.0736 277.65 27.0736C278.786 27.0736 279.458 27.8576 279.458 29.3296V30.9936C279.458 32.4656 278.786 33.2496 277.65 33.2496ZM285.282 34.4816C286.482 34.4816 287.41 34.0176 288.082 33.1696L288.13 34.2896H289.33V28.8976C289.33 26.8496 288.274 25.8416 286.098 25.8416C284.034 25.8416 282.914 26.7536 282.77 28.5456H284.146C284.194 27.5376 284.882 27.0576 286.05 27.0576C287.33 27.0576 287.922 27.6496 287.922 28.9296V29.3776H285.938C283.618 29.3776 282.53 30.3056 282.53 31.9536C282.53 33.5696 283.586 34.4816 285.282 34.4816ZM285.49 33.2656C284.45 33.2656 283.938 32.7856 283.938 31.9216C283.938 30.9936 284.546 30.5456 285.986 30.5456H287.922V31.7136C287.426 32.7216 286.594 33.2656 285.49 33.2656ZM291.81 34.2896H293.218V28.9296C293.81 27.7136 294.562 27.1376 295.538 27.1376C296.514 27.1376 296.994 27.6976 296.994 28.9936V34.2896H298.402V28.8656C298.402 26.8816 297.538 25.8416 295.81 25.8416C294.658 25.8416 293.778 26.3056 293.058 27.3296L293.01 26.0336H291.81V34.2896ZM303.959 34.4816C306.039 34.4816 307.191 33.4256 307.255 31.4256H305.895C305.799 32.7536 305.127 33.2496 303.975 33.2496C302.583 33.2496 301.927 32.5296 301.927 30.9456V29.3776C301.927 27.7936 302.583 27.0736 303.975 27.0736C305.127 27.0736 305.799 27.5696 305.895 28.8976H307.255C307.191 26.8976 306.039 25.8416 303.959 25.8416C301.719 25.8416 300.519 27.0576 300.519 29.3456V30.9776C300.519 33.2656 301.719 34.4816 303.959 34.4816ZM309.201 34.2896H310.609V29.5376C310.881 27.9536 311.633 27.2656 312.977 27.2656H313.393V25.8736H312.833C311.633 25.8736 310.881 26.4016 310.465 27.5696L310.401 26.0336H309.201V34.2896ZM318.072 34.4816C320.056 34.4816 321.288 33.5856 321.4 31.8256H320.04C319.944 32.7216 319.288 33.2656 318.04 33.2656C316.568 33.2656 315.896 32.5296 315.896 30.9136V30.5456H321.464V29.3456C321.464 27.0736 320.232 25.8416 317.976 25.8416C315.72 25.8416 314.488 27.0736 314.488 29.3456V30.9776C314.488 33.2496 315.752 34.4816 318.072 34.4816ZM315.896 29.3776C315.896 27.7936 316.552 27.0576 318.008 27.0576C319.448 27.0576 320.104 27.7936 320.104 29.3776H315.896ZM325.86 34.4816C327.06 34.4816 327.988 34.0176 328.66 33.1696L328.708 34.2896H329.908V28.8976C329.908 26.8496 328.852 25.8416 326.676 25.8416C324.612 25.8416 323.492 26.7536 323.348 28.5456H324.724C324.772 27.5376 325.46 27.0576 326.628 27.0576C327.908 27.0576 328.5 27.6496 328.5 28.9296V29.3776H326.516C324.196 29.3776 323.108 30.3056 323.108 31.9536C323.108 33.5696 324.164 34.4816 325.86 34.4816ZM326.068 33.2656C325.028 33.2656 324.516 32.7856 324.516 31.9216C324.516 30.9936 325.124 30.5456 326.564 30.5456H328.5V31.7136C328.004 32.7216 327.172 33.2656 326.068 33.2656ZM335.06 34.4816C337.236 34.4816 338.356 33.6176 338.356 31.9536C338.356 30.3856 337.524 29.6816 335.316 29.4416C333.796 29.2816 333.236 28.9776 333.236 28.2256C333.236 27.4736 333.876 27.0416 335.028 27.0416C336.212 27.0416 336.804 27.5056 336.804 28.3856H338.18C338.18 26.7216 337.092 25.8416 335.044 25.8416C332.996 25.8416 331.86 26.7376 331.86 28.3376C331.86 29.8096 332.66 30.4496 334.82 30.7056C336.42 30.8976 336.98 31.2496 336.98 32.0656C336.98 32.8496 336.34 33.2816 335.06 33.2816C333.684 33.2816 333.012 32.8016 333.012 31.8576H331.668C331.668 33.6016 332.788 34.4816 335.06 34.4816Z" fill="white"/>
<path d="M393.509 34.4816C395.493 34.4816 396.725 33.5856 396.837 31.8256H395.477C395.381 32.7216 394.725 33.2656 393.477 33.2656C392.005 33.2656 391.333 32.5296 391.333 30.9136V30.5456H396.901V29.3456C396.901 27.0736 395.669 25.8416 393.413 25.8416C391.157 25.8416 389.925 27.0736 389.925 29.3456V30.9776C389.925 33.2496 391.189 34.4816 393.509 34.4816ZM391.333 29.3776C391.333 27.7936 391.989 27.0576 393.445 27.0576C394.885 27.0576 395.541 27.7936 395.541 29.3776H391.333ZM401.746 34.4816C402.946 34.4816 403.826 34.0176 404.53 32.9776L404.578 34.2896H405.778V22.6096H404.37V27.1216C403.698 26.2416 402.85 25.8416 401.746 25.8416C399.826 25.8416 398.706 27.0256 398.706 29.2816V31.0416C398.706 33.2976 399.826 34.4816 401.746 34.4816ZM401.922 33.2496C400.786 33.2496 400.114 32.4656 400.114 30.9936V29.3296C400.114 27.8576 400.786 27.0736 401.922 27.0736C402.978 27.0736 403.826 27.7616 404.37 28.9456V31.3776C403.826 32.5616 402.978 33.2496 401.922 33.2496ZM408.371 24.5456H409.907V22.9776H408.371V24.5456ZM408.435 34.2896H409.843V26.0336H408.435V34.2896ZM415.057 34.2896H416.337V33.0736H415.393C414.449 33.0736 414.209 32.8016 414.209 31.7296V27.1856H416.241V26.0336H414.209V23.8576H412.945L412.833 26.0336H411.377V27.1856H412.801V31.7136C412.801 33.5216 413.473 34.2896 415.057 34.2896ZM427.145 34.2896H428.553V31.7936H429.833V30.5136H428.553V23.4096H426.953L421.545 30.4336V31.7936H427.145V34.2896ZM423.129 30.5136L427.145 25.2336V30.5136H423.129Z" fill="white"/>
<path d="M497.509 34.4816C499.493 34.4816 500.725 33.5856 500.837 31.8256H499.477C499.381 32.7216 498.725 33.2656 497.477 33.2656C496.005 33.2656 495.333 32.5296 495.333 30.9136V30.5456H500.901V29.3456C500.901 27.0736 499.669 25.8416 497.413 25.8416C495.157 25.8416 493.925 27.0736 493.925 29.3456V30.9776C493.925 33.2496 495.189 34.4816 497.509 34.4816ZM495.333 29.3776C495.333 27.7936 495.989 27.0576 497.445 27.0576C498.885 27.0576 499.541 27.7936 499.541 29.3776H495.333ZM505.746 34.4816C506.946 34.4816 507.826 34.0176 508.53 32.9776L508.578 34.2896H509.778V22.6096H508.37V27.1216C507.698 26.2416 506.85 25.8416 505.746 25.8416C503.826 25.8416 502.706 27.0256 502.706 29.2816V31.0416C502.706 33.2976 503.826 34.4816 505.746 34.4816ZM505.922 33.2496C504.786 33.2496 504.114 32.4656 504.114 30.9936V29.3296C504.114 27.8576 504.786 27.0736 505.922 27.0736C506.978 27.0736 507.826 27.7616 508.37 28.9456V31.3776C507.826 32.5616 506.978 33.2496 505.922 33.2496ZM512.371 24.5456H513.907V22.9776H512.371V24.5456ZM512.435 34.2896H513.843V26.0336H512.435V34.2896ZM519.057 34.2896H520.337V33.0736H519.393C518.449 33.0736 518.209 32.8016 518.209 31.7296V27.1856H520.241V26.0336H518.209V23.8576H516.945L516.833 26.0336H515.377V27.1856H516.801V31.7136C516.801 33.5216 517.473 34.2896 519.057 34.2896ZM527.529 34.2896H529.033C529.193 30.5456 530.665 27.5216 533.497 24.8015V23.4096H525.769V24.7536H531.865C529.177 27.3296 527.689 30.5616 527.529 34.2896Z" fill="white"/>
<rect x="154.24" y="191.29" width="66.3" height="348.979" fill="url(#paint1_linear)"/>
<rect x="258.24" y="191.29" width="66.3" height="348.979" fill="url(#paint2_linear)"/>
<rect x="362.24" y="191.29" width="66.3" height="348.979" fill="url(#paint3_linear)"/>
<rect x="466.24" y="191.29" width="66.3" height="348.979" fill="url(#paint4_linear)"/>
<rect x="154.24" y="229.237" width="66.3" height="275.684" fill="url(#paint5_linear)"/>
<rect x="258.24" y="229.237" width="66.3" height="230.481" fill="url(#paint6_linear)"/>
<rect x="362.24" y="229.237" width="66.3" height="230.481" fill="url(#paint7_linear)"/>
<rect x="466.24" y="207.277" width="66.3" height="252.441" fill="url(#paint8_linear)"/>
<rect x="154.24" y="259.52" width="66.3" height="5.4733" fill="#66A1DB"/>
<rect x="154.24" y="246.188" width="66.3" height="5.4733" fill="#66A1DB"/>
<rect x="154.24" y="356.768" width="66.3" height="5.4733" fill="#66A1DB"/>
<rect x="154.24" y="317.555" width="66.3" height="5.4733" fill="#66A1DB"/>
<rect x="154.24" y="439.9" width="66.3" height="5.4733" fill="#66A1DB"/>
<rect x="152.24" y="384.57" width="70" height="15.7639" fill="#66A1DB" stroke="#A41034" stroke-width="4"/>
<rect x="154.24" y="468.917" width="66.3" height="2.73665" fill="#66A1DB"/>
<rect x="154.24" y="486.956" width="66.3" height="2.73665" fill="#66A1DB"/>
<rect x="258.24" y="259.52" width="66.3" height="5.4733" fill="#66A1DB"/>
<rect x="258.24" y="246.188" width="66.3" height="5.4733" fill="#66A1DB"/>
<rect x="258.24" y="356.768" width="66.3" height="5.4733" fill="#66A1DB"/>
<rect x="258.24" y="317.555" width="66.3" height="5.4733" fill="#66A1DB"/>
<rect x="258.24" y="439.9" width="66.3" height="5.4733" fill="#66A1DB"/>
<rect x="258.24" y="468.917" width="66.3" height="2.73665" fill="#66A1DB"/>
<rect x="258.24" y="486.956" width="66.3" height="2.73665" fill="#66A1DB"/>
<rect x="362.24" y="259.52" width="66.3" height="5.4733" fill="#66A1DB"/>
<rect x="362.24" y="246.188" width="66.3" height="5.4733" fill="#66A1DB"/>
<rect x="362.24" y="356.768" width="66.3" height="5.4733" fill="#66A1DB"/>
<rect x="362.24" y="343.436" width="66.3" height="5.4733" fill="#66A1DB"/>
<rect x="362.24" y="317.555" width="66.3" height="5.4733" fill="#66A1DB"/>
<rect x="362.24" y="439.9" width="66.3" height="5.4733" fill="#66A1DB"/>
<rect x="362.24" y="468.917" width="66.3" height="2.73665" fill="#66A1DB"/>
<rect x="362.24" y="486.956" width="66.3" height="2.73665" fill="#66A1DB"/>
<rect x="466.24" y="259.52" width="66.3" height="5.4733" fill="#66A1DB"/>
<rect x="466.24" y="246.188" width="66.3" height="5.4733" fill="#66A1DB"/>
<rect x="466.24" y="356.768" width="66.3" height="5.4733" fill="#66A1DB"/>
<rect x="466.24" y="343.436" width="66.3" height="5.4733" fill="#66A1DB"/>
<rect x="466.24" y="317.555" width="66.3" height="5.4733" fill="#66A1DB"/>
<rect x="466.24" y="439.9" width="66.3" height="5.4733" fill="#66A1DB"/>
<rect x="466.24" y="468.917" width="66.3" height="2.73665" fill="#66A1DB"/>
<rect x="466.24" y="486.956" width="66.3" height="2.73665" fill="#66A1DB"/>
<path d="M235.179 391.229C234.593 391.815 234.593 392.764 235.179 393.35L244.725 402.896C245.311 403.482 246.261 403.482 246.846 402.896C247.432 402.31 247.432 401.361 246.846 400.775L238.361 392.29L246.846 383.804C247.432 383.218 247.432 382.269 246.846 381.683C246.261 381.097 245.311 381.097 244.725 381.683L235.179 391.229ZM287.24 390.79H236.24V393.79H287.24V390.79Z" fill="#A41034"/>
<path d="M308.343 395.305C308.031 396.627 307.435 397.642 306.556 398.352C305.651 399.055 304.58 399.407 303.343 399.407C302.223 399.381 301.289 399.107 300.541 398.586C299.779 398.085 299.225 397.506 298.88 396.848C298.776 396.633 298.682 396.428 298.597 396.233C298.519 396.031 298.454 395.777 298.402 395.471C298.304 394.898 298.255 393.798 298.255 392.17C298.255 390.517 298.304 389.41 298.402 388.85C298.506 388.29 298.666 387.838 298.88 387.493C299.225 386.835 299.779 386.249 300.541 385.735C301.289 385.214 302.223 384.947 303.343 384.934C304.717 384.947 305.837 385.354 306.703 386.155C307.569 386.962 308.115 387.961 308.343 389.153H306.058C305.882 388.58 305.563 388.092 305.101 387.688C304.619 387.304 304.033 387.105 303.343 387.092C302.835 387.105 302.399 387.206 302.035 387.395C301.664 387.59 301.364 387.834 301.136 388.127C300.856 388.433 300.671 388.827 300.58 389.309C300.475 389.817 300.423 390.771 300.423 392.17C300.423 393.57 300.475 394.517 300.58 395.012C300.671 395.507 300.856 395.907 301.136 396.213C301.364 396.506 301.664 396.744 302.035 396.926C302.399 397.141 302.835 397.249 303.343 397.249C304.554 397.249 305.459 396.601 306.058 395.305H308.343ZM319.476 395.305C319.164 396.627 318.568 397.642 317.689 398.352C316.784 399.055 315.713 399.407 314.476 399.407C313.356 399.381 312.422 399.107 311.673 398.586C310.912 398.085 310.358 397.506 310.013 396.848C309.909 396.633 309.815 396.428 309.73 396.233C309.652 396.031 309.587 395.777 309.535 395.471C309.437 394.898 309.388 393.798 309.388 392.17C309.388 390.517 309.437 389.41 309.535 388.85C309.639 388.29 309.798 387.838 310.013 387.493C310.358 386.835 310.912 386.249 311.673 385.735C312.422 385.214 313.356 384.947 314.476 384.934C315.85 384.947 316.97 385.354 317.835 386.155C318.701 386.962 319.248 387.961 319.476 389.153H317.191C317.015 388.58 316.696 388.092 316.234 387.688C315.752 387.304 315.166 387.105 314.476 387.092C313.968 387.105 313.532 387.206 313.167 387.395C312.796 387.59 312.497 387.834 312.269 388.127C311.989 388.433 311.804 388.827 311.712 389.309C311.608 389.817 311.556 390.771 311.556 392.17C311.556 393.57 311.608 394.517 311.712 395.012C311.804 395.507 311.989 395.907 312.269 396.213C312.497 396.506 312.796 396.744 313.167 396.926C313.532 397.141 313.968 397.249 314.476 397.249C315.687 397.249 316.592 396.601 317.191 395.305H319.476ZM323.167 391.292H326.429C327.236 391.278 327.842 391.044 328.246 390.588C328.643 390.165 328.841 389.644 328.841 389.026C328.828 388.284 328.591 387.747 328.128 387.415C327.764 387.122 327.236 386.975 326.546 386.975H323.167V391.292ZM321.009 385.051H326.566C327.751 385.051 328.718 385.364 329.466 385.989C330.371 386.698 330.843 387.711 330.882 389.026C330.856 390.959 329.938 392.275 328.128 392.971L331.429 399.29H328.861L325.921 393.206H323.167V399.29H321.009V385.051ZM332.708 385.051H340.296V387.092H334.632V390.315C335.296 389.794 336.055 389.534 336.908 389.534C337.455 389.547 337.956 389.644 338.412 389.827C338.841 390.028 339.19 390.276 339.457 390.569C339.854 390.959 340.14 391.412 340.316 391.926C340.407 392.206 340.472 392.548 340.511 392.952C340.55 393.362 340.57 393.866 340.57 394.465C340.57 395.39 340.505 396.099 340.375 396.594C340.238 397.083 340.01 397.515 339.691 397.893C339.411 398.264 339.004 398.603 338.47 398.909C337.949 399.228 337.331 399.394 336.615 399.407C335.651 399.407 334.769 399.12 333.968 398.547C333.154 397.961 332.65 397.014 332.455 395.706H334.496C334.717 396.799 335.397 397.353 336.537 397.366C337.025 397.366 337.416 397.268 337.708 397.073C337.988 396.884 338.184 396.637 338.294 396.331C338.412 396.025 338.483 395.693 338.509 395.334C338.522 394.983 338.529 394.641 338.529 394.309C338.542 393.495 338.415 392.834 338.148 392.327C338.005 392.086 337.793 391.894 337.513 391.75C337.233 391.633 336.885 391.575 336.468 391.575C336.097 391.575 335.759 391.659 335.453 391.829C335.147 392.004 334.873 392.31 334.632 392.747H332.708V385.051Z" fill="#003E6B"/>
<defs>
<linearGradient id="paint0_linear" x1="295.74" y1="0.289551" x2="295.74" y2="643.29" gradientUnits="userSpaceOnUse">
<stop stop-color="#014C91"/>
<stop offset="1" stop-color="#003257"/>
</linearGradient>
<linearGradient id="paint1_linear" x1="187.39" y1="191.29" x2="187.39" y2="540.269" gradientUnits="userSpaceOnUse">
<stop stop-color="#66A1DB" stop-opacity="0"/>
<stop offset="0.119792" stop-color="#66A1DB" stop-opacity="0.73"/>
<stop offset="0.875" stop-color="#66A1DB" stop-opacity="0.63"/>
<stop offset="1" stop-color="#66A1DB" stop-opacity="0"/>
</linearGradient>
<linearGradient id="paint2_linear" x1="291.39" y1="191.29" x2="291.39" y2="540.269" gradientUnits="userSpaceOnUse">
<stop stop-color="#66A1DB" stop-opacity="0"/>
<stop offset="0.296875" stop-color="#66A1DB"/>
<stop offset="0.666667" stop-color="#66A1DB"/>
<stop offset="1" stop-color="#66A1DB" stop-opacity="0"/>
</linearGradient>
<linearGradient id="paint3_linear" x1="395.39" y1="191.29" x2="395.39" y2="540.269" gradientUnits="userSpaceOnUse">
<stop stop-color="#66A1DB" stop-opacity="0"/>
<stop offset="0.307292" stop-color="#66A1DB"/>
<stop offset="0.791667" stop-color="#66A1DB"/>
<stop offset="1" stop-color="#66A1DB" stop-opacity="0"/>
</linearGradient>
<linearGradient id="paint4_linear" x1="499.39" y1="191.29" x2="499.39" y2="540.269" gradientUnits="userSpaceOnUse">
<stop stop-color="#66A1DB" stop-opacity="0"/>
<stop offset="0.385417" stop-color="#66A1DB"/>
<stop offset="0.885417" stop-color="#66A1DB"/>
<stop offset="1" stop-color="#66A1DB" stop-opacity="0"/>
</linearGradient>
<linearGradient id="paint5_linear" x1="187.39" y1="229.237" x2="187.39" y2="504.921" gradientUnits="userSpaceOnUse">
<stop stop-color="#66A1DB" stop-opacity="0"/>
<stop offset="0.119792" stop-color="#66A1DB"/>
<stop offset="0.875" stop-color="#66A1DB"/>
<stop offset="1" stop-color="#66A1DB" stop-opacity="0"/>
</linearGradient>
<linearGradient id="paint6_linear" x1="291.39" y1="229.237" x2="291.39" y2="459.718" gradientUnits="userSpaceOnUse">
<stop stop-color="#66A1DB" stop-opacity="0"/>
<stop offset="0.119792" stop-color="#66A1DB"/>
<stop offset="0.875" stop-color="#66A1DB"/>
<stop offset="1" stop-color="#66A1DB" stop-opacity="0"/>
</linearGradient>
<linearGradient id="paint7_linear" x1="395.39" y1="229.237" x2="395.39" y2="459.718" gradientUnits="userSpaceOnUse">
<stop stop-color="#66A1DB" stop-opacity="0"/>
<stop offset="0.119792" stop-color="#66A1DB"/>
<stop offset="0.875" stop-color="#66A1DB"/>
<stop offset="1" stop-color="#66A1DB" stop-opacity="0"/>
</linearGradient>
<linearGradient id="paint8_linear" x1="499.39" y1="207.277" x2="499.39" y2="459.718" gradientUnits="userSpaceOnUse">
<stop stop-color="#66A1DB" stop-opacity="0"/>
<stop offset="0.119792" stop-color="#66A1DB"/>
<stop offset="0.875" stop-color="#66A1DB"/>
<stop offset="1" stop-color="#66A1DB" stop-opacity="0"/>
</linearGradient>
</defs>
</svg>
