<svg width="592" height="654" viewBox="0 0 592 654" fill="none" xmlns="http://www.w3.org/2000/svg">
<rect x="0.64502" y="0.5" width="591" height="653" rx="5" fill="#003E6B"/>
<path d="M567.65 103.5H129.122V541.5H567.65V103.5Z" fill="white"/>
<path opacity="0.4" d="M550.758 117.537H147.687V523.511H550.758V117.537Z" fill="#7CB4D0"/>
<path opacity="0.1" d="M550.758 117.537H147.687V523.511H550.758V117.537Z" fill="#BCDEEA"/>
<path opacity="0.5" d="M147.687 117.537L129.122 103.5V541.5L147.687 523.511V117.537Z" fill="#7CB4D0"/>
<path opacity="0.5" d="M550.758 523.511L567.65 541.5V103.5L550.758 117.537V523.511Z" fill="#7CB4D0"/>
<path opacity="0.4" d="M567.65 103.5H129.122V541.5H567.65V103.5Z" fill="#7CB4D0"/>
<path opacity="0.8" d="M550.758 523.375H147.687L129.122 541.5H567.65L550.758 523.375Z" fill="#7CB4D0"/>
<path d="M172.337 131.5H176.012C178.712 131.5 179.927 130.255 179.927 127.51V125.29C179.927 122.56 178.712 121.3 176.012 121.3H172.337V131.5ZM174.167 129.895V122.905H175.757C177.467 122.905 178.097 123.565 178.097 125.32V127.48C178.097 129.235 177.467 129.895 175.757 129.895H174.167ZM182.005 131.5H183.745V123.955L188.05 131.5H189.805V121.3H188.065V128.38L184.03 121.3H182.005V131.5ZM191.118 131.5H192.978L193.773 129.19H197.388L198.168 131.5H200.118L196.548 121.3H194.673L191.118 131.5ZM194.268 127.615L195.588 123.43L196.893 127.615H194.268ZM163.116 150.5H169.536V148.865H164.946V140.3H163.116V150.5ZM173.193 150.68C174.288 150.68 175.098 150.275 175.683 149.48L175.743 150.5H177.273V145.46C177.273 143.465 176.268 142.535 174.123 142.535C172.068 142.535 171.018 143.405 170.898 145.115H172.638C172.683 144.38 173.148 143.99 174.063 143.99C175.038 143.99 175.473 144.455 175.473 145.445V145.79H173.823C171.708 145.79 170.673 146.675 170.673 148.28C170.673 149.81 171.633 150.68 173.193 150.68ZM173.643 149.225C172.863 149.225 172.458 148.85 172.458 148.175C172.458 147.455 172.893 147.08 174.063 147.08H175.473V148.04C175.083 148.82 174.468 149.225 173.643 149.225ZM181.818 150.68C182.868 150.68 183.633 150.29 184.248 149.42L184.308 150.5H185.838V139.55H184.038V143.525C183.453 142.835 182.748 142.535 181.818 142.535C180.018 142.535 178.998 143.645 178.998 145.76V147.47C178.998 149.585 180.018 150.68 181.818 150.68ZM182.178 149.18C181.293 149.18 180.798 148.61 180.798 147.44V145.775C180.798 144.59 181.293 144.035 182.163 144.035C183.003 144.035 183.633 144.545 184.038 145.49V147.725C183.633 148.67 183.003 149.18 182.178 149.18ZM190.519 150.68C191.569 150.68 192.334 150.29 192.949 149.42L193.009 150.5H194.539V139.55H192.739V143.525C192.154 142.835 191.449 142.535 190.519 142.535C188.719 142.535 187.699 143.645 187.699 145.76V147.47C187.699 149.585 188.719 150.68 190.519 150.68ZM190.879 149.18C189.994 149.18 189.499 148.61 189.499 147.44V145.775C189.499 144.59 189.994 144.035 190.864 144.035C191.704 144.035 192.334 144.545 192.739 145.49V147.725C192.334 148.67 191.704 149.18 190.879 149.18ZM199.865 150.68C201.875 150.68 203.03 149.81 203.12 148.145H201.395C201.335 148.82 200.81 149.225 199.865 149.225C198.71 149.225 198.2 148.64 198.2 147.38V147.14H203.165V145.85C203.165 143.705 201.995 142.535 199.775 142.535C197.585 142.535 196.4 143.69 196.4 145.835V147.365C196.4 149.54 197.6 150.68 199.865 150.68ZM198.2 145.805C198.2 144.545 198.695 143.99 199.835 143.99C200.96 143.99 201.455 144.545 201.455 145.805H198.2ZM204.992 150.5H206.792V146.03C207.032 144.785 207.647 144.275 208.847 144.275H209.252V142.565H208.697C207.602 142.565 206.942 143.06 206.597 144.14L206.522 142.715H204.992V150.5Z" fill="#333333"/>
<path d="M259.749 148.5H261.579V145.68L263.079 143.895L265.734 148.5H267.834L264.354 142.485L267.789 138.3H265.644L261.579 143.235V138.3H259.749V148.5ZM271.541 147.69H273.056V144.6H275.981V143.13H273.056V140.04H271.541V143.13H268.616V144.6H271.541V147.69Z" fill="#333333"/>
<path d="M344.161 148.5H345.991V145.68L347.491 143.895L350.146 148.5H352.246L348.766 142.485L352.201 138.3H350.056L345.991 143.235V138.3H344.161V148.5ZM352.215 144.885H356.865V143.25H352.215V144.885Z" fill="#333333"/>
<path d="M424.153 148.5H426.013L426.808 146.19H430.423L431.203 148.5H433.153L429.583 138.3H427.708L424.153 148.5ZM427.303 144.615L428.623 140.43L429.928 144.615H427.303ZM436.968 147.69H438.483V144.6H441.408V143.13H438.483V140.04H436.968V143.13H434.043V144.6H436.968V147.69Z" fill="#333333"/>
<path d="M508.888 148.5H510.748L511.543 146.19H515.158L515.938 148.5H517.888L514.318 138.3H512.443L508.888 148.5ZM512.038 144.615L513.358 140.43L514.663 144.615H512.038ZM518.317 144.885H522.967V143.25H518.317V144.885Z" fill="#333333"/>
<rect x="129.622" y="554" width="437.528" height="58" rx="4.5" fill="white" fill-opacity="0.1" stroke="white"/>
<path d="M187.301 588.5H188.921V583.766H191.909C194.771 583.766 195.995 582.65 195.995 580.022C195.995 577.394 194.771 576.26 191.909 576.26H187.301V588.5ZM188.921 582.29V577.736H191.801C193.691 577.736 194.375 578.384 194.375 580.022C194.375 581.66 193.691 582.29 191.801 582.29H188.921ZM201.812 588.716C204.44 588.716 205.826 587.312 205.826 584.612V583.1C205.826 580.4 204.44 578.996 201.812 578.996C199.184 578.996 197.798 580.4 197.798 583.1V584.612C197.798 587.312 199.184 588.716 201.812 588.716ZM201.812 587.33C200.174 587.33 199.382 586.43 199.382 584.558V583.136C199.382 581.264 200.174 580.382 201.812 580.382C203.45 580.382 204.242 581.264 204.242 583.136V584.558C204.242 586.43 203.45 587.33 201.812 587.33ZM211.379 588.716C213.827 588.716 215.087 587.744 215.087 585.872C215.087 584.108 214.151 583.316 211.667 583.046C209.957 582.866 209.327 582.524 209.327 581.678C209.327 580.832 210.047 580.346 211.343 580.346C212.675 580.346 213.341 580.868 213.341 581.858H214.889C214.889 579.986 213.665 578.996 211.361 578.996C209.057 578.996 207.779 580.004 207.779 581.804C207.779 583.46 208.679 584.18 211.109 584.468C212.909 584.684 213.539 585.08 213.539 585.998C213.539 586.88 212.819 587.366 211.379 587.366C209.831 587.366 209.075 586.826 209.075 585.764H207.563C207.563 587.726 208.823 588.716 211.379 588.716ZM217.249 577.538H218.977V575.774H217.249V577.538ZM217.321 588.5H218.905V579.212H217.321V588.5ZM224.771 588.5H226.211V587.132H225.149C224.087 587.132 223.817 586.826 223.817 585.62V580.508H226.103V579.212H223.817V576.764H222.395L222.269 579.212H220.631V580.508H222.233V585.602C222.233 587.636 222.989 588.5 224.771 588.5ZM227.954 577.538H229.682V575.774H227.954V577.538ZM228.026 588.5H229.61V579.212H228.026V588.5ZM234.558 588.5H236.268L239.526 579.212H237.888L235.44 586.52L232.992 579.212H231.3L234.558 588.5ZM244.65 588.716C246.882 588.716 248.268 587.708 248.394 585.728H246.864C246.756 586.736 246.018 587.348 244.614 587.348C242.958 587.348 242.202 586.52 242.202 584.702V584.288H248.466V582.938C248.466 580.382 247.08 578.996 244.542 578.996C242.004 578.996 240.618 580.382 240.618 582.938V584.774C240.618 587.33 242.04 588.716 244.65 588.716ZM242.202 582.974C242.202 581.192 242.94 580.364 244.578 580.364C246.198 580.364 246.936 581.192 246.936 582.974H242.202ZM264.004 588.716C266.236 588.716 267.622 587.708 267.748 585.728H266.218C266.11 586.736 265.372 587.348 263.968 587.348C262.312 587.348 261.556 586.52 261.556 584.702V584.288H267.82V582.938C267.82 580.382 266.434 578.996 263.896 578.996C261.358 578.996 259.972 580.382 259.972 582.938V584.774C259.972 587.33 261.394 588.716 264.004 588.716ZM261.556 582.974C261.556 581.192 262.294 580.364 263.932 580.364C265.552 580.364 266.29 581.192 266.29 582.974H261.556ZM270.301 588.5H271.885V575.36H270.301V588.5ZM278.435 588.716C280.667 588.716 282.053 587.708 282.179 585.728H280.649C280.541 586.736 279.803 587.348 278.399 587.348C276.743 587.348 275.987 586.52 275.987 584.702V584.288H282.251V582.938C282.251 580.382 280.865 578.996 278.327 578.996C275.789 578.996 274.403 580.382 274.403 582.938V584.774C274.403 587.33 275.825 588.716 278.435 588.716ZM275.987 582.974C275.987 581.192 276.725 580.364 278.363 580.364C279.983 580.364 280.721 581.192 280.721 582.974H275.987ZM288.152 588.716C290.492 588.716 291.788 587.528 291.86 585.278H290.33C290.222 586.772 289.466 587.33 288.17 587.33C286.604 587.33 285.866 586.52 285.866 584.738V582.974C285.866 581.192 286.604 580.382 288.17 580.382C289.466 580.382 290.222 580.94 290.33 582.434H291.86C291.788 580.184 290.492 578.996 288.152 578.996C285.632 578.996 284.282 580.364 284.282 582.938V584.774C284.282 587.348 285.632 588.716 288.152 588.716ZM297.052 588.5H298.492V587.132H297.43C296.368 587.132 296.098 586.826 296.098 585.62V580.508H298.384V579.212H296.098V576.764H294.676L294.55 579.212H292.912V580.508H294.514V585.602C294.514 587.636 295.27 588.5 297.052 588.5ZM300.307 588.5H301.891V583.154C302.197 581.372 303.043 580.598 304.555 580.598H305.023V579.032H304.393C303.043 579.032 302.197 579.626 301.729 580.94L301.657 579.212H300.307V588.5ZM310.269 588.716C312.897 588.716 314.283 587.312 314.283 584.612V583.1C314.283 580.4 312.897 578.996 310.269 578.996C307.641 578.996 306.255 580.4 306.255 583.1V584.612C306.255 587.312 307.641 588.716 310.269 588.716ZM310.269 587.33C308.631 587.33 307.839 586.43 307.839 584.558V583.136C307.839 581.264 308.631 580.382 310.269 580.382C311.907 580.382 312.699 581.264 312.699 583.136V584.558C312.699 586.43 311.907 587.33 310.269 587.33ZM319.747 588.716C321.097 588.716 322.087 588.194 322.879 587.024L322.933 588.5H324.283V575.36H322.699V580.436C321.943 579.446 320.989 578.996 319.747 578.996C317.587 578.996 316.327 580.328 316.327 582.866V584.846C316.327 587.384 317.587 588.716 319.747 588.716ZM319.945 587.33C318.667 587.33 317.911 586.448 317.911 584.792V582.92C317.911 581.264 318.667 580.382 319.945 580.382C321.133 580.382 322.087 581.156 322.699 582.488V585.224C322.087 586.556 321.133 587.33 319.945 587.33ZM330.836 588.716C333.068 588.716 334.454 587.708 334.58 585.728H333.05C332.942 586.736 332.204 587.348 330.8 587.348C329.144 587.348 328.388 586.52 328.388 584.702V584.288H334.652V582.938C334.652 580.382 333.266 578.996 330.728 578.996C328.19 578.996 326.804 580.382 326.804 582.938V584.774C326.804 587.33 328.226 588.716 330.836 588.716ZM328.388 582.974C328.388 581.192 329.126 580.364 330.764 580.364C332.384 580.364 333.122 581.192 333.122 582.974H328.388Z" fill="white"/>
<ellipse cx="156.504" cy="583.235" rx="17.1414" ry="17.0171" fill="#A00000"/>
<path d="M154.883 589.671H157.925V584.819H162.537V581.899H157.925V577.047H154.883V581.899H150.271V584.819H154.883V589.671Z" fill="white"/>
<rect x="129.622" y="33" width="437.528" height="58" rx="4.5" fill="white" fill-opacity="0.1" stroke="white"/>
<path d="M187.595 67.5H189.161V57.636L195.137 67.5H196.721V55.26H195.155V64.566L189.521 55.26H187.595V67.5ZM203.443 67.716C205.675 67.716 207.061 66.708 207.187 64.728H205.657C205.549 65.736 204.811 66.348 203.407 66.348C201.751 66.348 200.995 65.52 200.995 63.702V63.288H207.259V61.938C207.259 59.382 205.873 57.996 203.335 57.996C200.797 57.996 199.411 59.382 199.411 61.938V63.774C199.411 66.33 200.833 67.716 203.443 67.716ZM200.995 61.974C200.995 60.192 201.733 59.364 203.371 59.364C204.991 59.364 205.729 60.192 205.729 61.974H200.995ZM213.267 70.992C215.913 70.992 217.227 69.768 217.227 67.302V58.212H215.877L215.805 59.652C215.031 58.518 214.041 57.996 212.709 57.996C210.549 57.996 209.289 59.328 209.289 61.866V63.324C209.289 65.862 210.549 67.194 212.709 67.194C213.951 67.194 214.887 66.744 215.643 65.772V67.302C215.643 68.922 214.887 69.624 213.231 69.624C211.935 69.624 211.053 69.192 210.963 68.112H209.487C209.613 70.02 210.909 70.992 213.267 70.992ZM212.907 65.808C211.629 65.808 210.873 64.926 210.873 63.27V61.92C210.873 60.264 211.629 59.382 212.907 59.382C214.077 59.382 215.031 60.138 215.643 61.452V63.738C215.031 65.052 214.077 65.808 212.907 65.808ZM222.61 67.716C223.96 67.716 225.004 67.194 225.76 66.24L225.814 67.5H227.164V61.434C227.164 59.13 225.976 57.996 223.528 57.996C221.206 57.996 219.946 59.022 219.784 61.038H221.332C221.386 59.904 222.16 59.364 223.474 59.364C224.914 59.364 225.58 60.03 225.58 61.47V61.974H223.348C220.738 61.974 219.514 63.018 219.514 64.872C219.514 66.69 220.702 67.716 222.61 67.716ZM222.844 66.348C221.674 66.348 221.098 65.808 221.098 64.836C221.098 63.792 221.782 63.288 223.402 63.288H225.58V64.602C225.022 65.736 224.086 66.348 222.844 66.348ZM232.712 67.5H234.152V66.132H233.09C232.028 66.132 231.758 65.826 231.758 64.62V59.508H234.044V58.212H231.758V55.764H230.336L230.21 58.212H228.572V59.508H230.174V64.602C230.174 66.636 230.93 67.5 232.712 67.5ZM235.894 56.538H237.622V54.774H235.894V56.538ZM235.966 67.5H237.55V58.212H235.966V67.5ZM242.499 67.5H244.209L247.467 58.212H245.829L243.381 65.52L240.933 58.212H239.241L242.499 67.5ZM252.591 67.716C254.823 67.716 256.209 66.708 256.335 64.728H254.805C254.697 65.736 253.959 66.348 252.555 66.348C250.899 66.348 250.143 65.52 250.143 63.702V63.288H256.407V61.938C256.407 59.382 255.021 57.996 252.483 57.996C249.945 57.996 248.559 59.382 248.559 61.938V63.774C248.559 66.33 249.981 67.716 252.591 67.716ZM250.143 61.974C250.143 60.192 250.881 59.364 252.519 59.364C254.139 59.364 254.877 60.192 254.877 61.974H250.143ZM271.944 67.716C274.176 67.716 275.562 66.708 275.688 64.728H274.158C274.05 65.736 273.312 66.348 271.908 66.348C270.252 66.348 269.496 65.52 269.496 63.702V63.288H275.76V61.938C275.76 59.382 274.374 57.996 271.836 57.996C269.298 57.996 267.912 59.382 267.912 61.938V63.774C267.912 66.33 269.334 67.716 271.944 67.716ZM269.496 61.974C269.496 60.192 270.234 59.364 271.872 59.364C273.492 59.364 274.23 60.192 274.23 61.974H269.496ZM278.242 67.5H279.826V54.36H278.242V67.5ZM286.376 67.716C288.608 67.716 289.994 66.708 290.12 64.728H288.59C288.482 65.736 287.744 66.348 286.34 66.348C284.684 66.348 283.928 65.52 283.928 63.702V63.288H290.192V61.938C290.192 59.382 288.806 57.996 286.268 57.996C283.73 57.996 282.344 59.382 282.344 61.938V63.774C282.344 66.33 283.766 67.716 286.376 67.716ZM283.928 61.974C283.928 60.192 284.666 59.364 286.304 59.364C287.924 59.364 288.662 60.192 288.662 61.974H283.928ZM296.093 67.716C298.433 67.716 299.729 66.528 299.801 64.278H298.271C298.163 65.772 297.407 66.33 296.111 66.33C294.545 66.33 293.807 65.52 293.807 63.738V61.974C293.807 60.192 294.545 59.382 296.111 59.382C297.407 59.382 298.163 59.94 298.271 61.434H299.801C299.729 59.184 298.433 57.996 296.093 57.996C293.573 57.996 292.223 59.364 292.223 61.938V63.774C292.223 66.348 293.573 67.716 296.093 67.716ZM304.993 67.5H306.433V66.132H305.371C304.309 66.132 304.039 65.826 304.039 64.62V59.508H306.325V58.212H304.039V55.764H302.617L302.491 58.212H300.853V59.508H302.455V64.602C302.455 66.636 303.211 67.5 304.993 67.5ZM308.248 67.5H309.832V62.154C310.138 60.372 310.984 59.598 312.496 59.598H312.964V58.032H312.334C310.984 58.032 310.138 58.626 309.67 59.94L309.598 58.212H308.248V67.5ZM318.21 67.716C320.838 67.716 322.224 66.312 322.224 63.612V62.1C322.224 59.4 320.838 57.996 318.21 57.996C315.582 57.996 314.196 59.4 314.196 62.1V63.612C314.196 66.312 315.582 67.716 318.21 67.716ZM318.21 66.33C316.572 66.33 315.78 65.43 315.78 63.558V62.136C315.78 60.264 316.572 59.382 318.21 59.382C319.848 59.382 320.64 60.264 320.64 62.136V63.558C320.64 65.43 319.848 66.33 318.21 66.33ZM327.688 67.716C329.038 67.716 330.028 67.194 330.82 66.024L330.874 67.5H332.224V54.36H330.64V59.436C329.884 58.446 328.93 57.996 327.688 57.996C325.528 57.996 324.268 59.328 324.268 61.866V63.846C324.268 66.384 325.528 67.716 327.688 67.716ZM327.886 66.33C326.608 66.33 325.852 65.448 325.852 63.792V61.92C325.852 60.264 326.608 59.382 327.886 59.382C329.074 59.382 330.028 60.156 330.64 61.488V64.224C330.028 65.556 329.074 66.33 327.886 66.33ZM338.777 67.716C341.009 67.716 342.395 66.708 342.521 64.728H340.991C340.883 65.736 340.145 66.348 338.741 66.348C337.085 66.348 336.329 65.52 336.329 63.702V63.288H342.593V61.938C342.593 59.382 341.207 57.996 338.669 57.996C336.131 57.996 334.745 59.382 334.745 61.938V63.774C334.745 66.33 336.167 67.716 338.777 67.716ZM336.329 61.974C336.329 60.192 337.067 59.364 338.705 59.364C340.325 59.364 341.063 60.192 341.063 61.974H336.329Z" fill="white"/>
<ellipse cx="156.504" cy="61.8931" rx="17.1414" ry="17.0171" fill="#333333"/>
<path d="M154.883 63.6875H157.925V63.4771H162.537V60.5563H157.925V60.3459H154.883V60.5563H150.271V63.4771H154.883V63.6875Z" fill="white"/>
<g filter="url(#filter0_d)">
<rect x="398.61" y="235.5" width="70" height="15" fill="#C4C4C4" fill-opacity="0.01"/>
</g>
<g filter="url(#filter1_d)">
<rect x="398.61" y="420.5" width="70" height="15" fill="#C4C4C4" fill-opacity="0.01"/>
</g>
<g filter="url(#filter2_d)">
<rect x="231.896" y="357.5" width="70" height="15" fill="#C4C4C4" fill-opacity="0.01"/>
</g>
<g filter="url(#filter3_d)">
<rect x="231.896" y="215.5" width="70" height="15" fill="#C4C4C4" fill-opacity="0.01"/>
</g>
<path opacity="0.2" d="M148.011 173.823H220.798V154.5H148.011L148.011 173.823Z" fill="#3E6E7A"/>
<path opacity="0.2" d="M152.863 177.044H218.372V157.721H152.863V177.044Z" fill="#3E6E7A"/>
<path opacity="0.2" d="M152.863 173.823H218.372V157.721H152.863V173.823Z" fill="#3E6E7A"/>
<path opacity="0.2" d="M152.863 157.721L148.011 154.5V173.824L152.777 177.044L152.863 157.721Z" fill="#3E6E7A"/>
<path opacity="0.2" d="M218.372 177.044L220.798 173.824V154.5L218.372 157.721V177.044Z" fill="#3E6E7A"/>
<path opacity="0.5" d="M148.011 173.823L152.863 177.044H218.372L220.798 173.823H148.011Z" fill="white"/>
<path opacity="0.2" d="M230.503 173.823H303.29V154.5H230.503L230.503 173.823Z" fill="#3E6E7A"/>
<path opacity="0.2" d="M235.355 177.044H300.864V157.721H235.355V177.044Z" fill="#3E6E7A"/>
<path opacity="0.2" d="M235.355 173.823H300.864V157.721H235.355V173.823Z" fill="#3E6E7A"/>
<path opacity="0.2" d="M235.355 157.721L230.503 154.5V173.824L235.269 177.044L235.355 157.721Z" fill="#3E6E7A"/>
<path opacity="0.2" d="M300.864 177.044L303.29 173.824V154.5L300.864 157.721V177.044Z" fill="#3E6E7A"/>
<path opacity="0.5" d="M230.503 173.824L235.355 177.044H300.864L303.29 173.824H230.503Z" fill="white"/>
<path opacity="0.2" d="M312.995 173.823H385.782V154.5H312.995L312.995 173.823Z" fill="#3E6E7A"/>
<path opacity="0.2" d="M317.848 177.044H383.356V157.721H317.848V177.044Z" fill="#3E6E7A"/>
<path opacity="0.2" d="M317.847 173.823H383.356V157.721H317.847V173.823Z" fill="#3E6E7A"/>
<path opacity="0.2" d="M317.847 157.721L312.995 154.5V173.824L317.761 177.044L317.847 157.721Z" fill="#3E6E7A"/>
<path opacity="0.2" d="M383.356 177.044L385.782 173.824V154.5L383.356 157.721V177.044Z" fill="#3E6E7A"/>
<path opacity="0.5" d="M312.995 173.823L317.847 177.044H383.356L385.782 173.823H312.995Z" fill="white"/>
<path opacity="0.2" d="M395.823 173.823H468.61V154.5H395.823L395.823 173.823Z" fill="#3E6E7A"/>
<path opacity="0.2" d="M400.675 177.044H466.184V157.721H400.675V177.044Z" fill="#3E6E7A"/>
<path opacity="0.2" d="M400.675 173.823H466.184V157.721H400.675V173.823Z" fill="#3E6E7A"/>
<path opacity="0.2" d="M400.675 157.721L395.823 154.5V173.824L400.589 177.044L400.675 157.721Z" fill="#3E6E7A"/>
<path opacity="0.2" d="M466.184 177.044L468.61 173.824V154.5L466.184 157.721V177.044Z" fill="#3E6E7A"/>
<path opacity="0.5" d="M395.823 173.824L400.675 177.044H466.184L468.61 173.824H395.823Z" fill="white"/>
<path opacity="0.2" d="M478.315 173.823H551.102V154.5H478.315L478.315 173.823Z" fill="#3E6E7A"/>
<path opacity="0.2" d="M483.167 177.044H548.676V157.721H483.167V177.044Z" fill="#3E6E7A"/>
<path opacity="0.2" d="M483.167 173.823H548.676V157.721H483.167V173.823Z" fill="#3E6E7A"/>
<path opacity="0.2" d="M483.167 157.721L478.315 154.5V173.824L483.081 177.044L483.167 157.721Z" fill="#3E6E7A"/>
<path opacity="0.2" d="M548.676 177.044L551.102 173.824V154.5L548.676 157.721V177.044Z" fill="#3E6E7A"/>
<path opacity="0.5" d="M478.315 173.823L483.167 177.044H548.676L551.102 173.823H478.315Z" fill="white"/>
<g filter="url(#filter4_d)">
<rect x="315.645" y="189.5" width="70" height="15" fill="#C4C4C4" fill-opacity="0.01"/>
</g>
<g filter="url(#filter5_f)">
<rect x="150.645" y="190.5" width="70" height="15" fill="#1843A9"/>
</g>
<g filter="url(#filter6_f)">
<rect x="150.645" y="245.5" width="70" height="14" fill="#1843A9"/>
</g>
<g filter="url(#filter7_f)">
<rect x="150.645" y="278.5" width="70" height="10" fill="#1843A9"/>
</g>
<g filter="url(#filter8_f)">
<rect x="150.645" y="314.5" width="70" height="10" fill="#1843A9"/>
</g>
<g filter="url(#filter9_f)">
<rect x="150.645" y="339.5" width="70" height="10" fill="#1843A9"/>
</g>
<g filter="url(#filter10_f)">
<rect x="150.645" y="370.5" width="70" height="10" fill="#1843A9"/>
</g>
<g filter="url(#filter11_f)">
<rect x="150.645" y="404.5" width="70" height="10" fill="#1843A9"/>
</g>
<g filter="url(#filter12_f)">
<rect x="150.645" y="296.5" width="70" height="10" fill="#1843A9"/>
</g>
<g filter="url(#filter13_d)">
<rect x="479.945" y="200.5" width="70.3299" height="15" fill="#C4C4C4" fill-opacity="0.01"/>
</g>
<path d="M65.1333 204.692C67.6293 204.692 69.0373 203.476 69.0373 201.012C69.0373 198.676 67.7573 197.396 65.5493 197.396C64.5733 197.396 63.7733 197.652 63.1333 198.164L63.3413 194.948H68.5413V193.62H62.0773L61.7093 199.508H63.0053C63.6453 198.948 64.3493 198.676 65.2293 198.676C66.7653 198.676 67.6293 199.492 67.6293 201.044C67.6293 202.628 66.7333 203.412 65.1173 203.412C63.6613 203.412 62.7813 202.772 62.7333 201.684H61.3573C61.3893 203.556 62.7173 204.692 65.1333 204.692ZM74.7583 204.692C77.2543 204.692 78.6623 203.476 78.6623 201.012C78.6623 198.676 77.3823 197.396 75.1743 197.396C74.1983 197.396 73.3983 197.652 72.7583 198.164L72.9663 194.948H78.1663V193.62H71.7023L71.3343 199.508H72.6303C73.2703 198.948 73.9743 198.676 74.8543 198.676C76.3903 198.676 77.2543 199.492 77.2543 201.044C77.2543 202.628 76.3583 203.412 74.7423 203.412C73.2863 203.412 72.4063 202.772 72.3583 201.684H70.9823C71.0143 203.556 72.3423 204.692 74.7583 204.692ZM84.3673 204.692C86.7993 204.692 88.1113 203.428 88.1113 201.076V197.044C88.1113 194.692 86.7993 193.428 84.3673 193.428C81.9353 193.428 80.6233 194.692 80.6233 197.044V201.076C80.6233 203.428 81.9353 204.692 84.3673 204.692ZM84.3673 203.412C82.7993 203.412 82.0313 202.612 82.0313 200.98V197.14C82.0313 195.508 82.7993 194.708 84.3673 194.708C85.9353 194.708 86.7033 195.508 86.7033 197.14V200.98C86.7033 202.612 85.9353 203.412 84.3673 203.412ZM93.9923 204.692C96.4243 204.692 97.7363 203.428 97.7363 201.076V197.044C97.7363 194.692 96.4243 193.428 93.9923 193.428C91.5603 193.428 90.2483 194.692 90.2483 197.044V201.076C90.2483 203.428 91.5603 204.692 93.9923 204.692ZM93.9923 203.412C92.4243 203.412 91.6563 202.612 91.6563 200.98V197.14C91.6563 195.508 92.4243 194.708 93.9923 194.708C95.5603 194.708 96.3283 195.508 96.3283 197.14V200.98C96.3283 202.612 95.5603 203.412 93.9923 203.412ZM108.38 204.692C110.3 204.692 111.42 203.508 111.42 201.252V199.492C111.42 197.236 110.3 196.052 108.38 196.052C107.276 196.052 106.428 196.452 105.756 197.332V192.82H104.348V204.5H105.548L105.596 203.188C106.3 204.228 107.18 204.692 108.38 204.692ZM108.204 203.46C107.164 203.46 106.3 202.772 105.756 201.588V199.156C106.3 197.972 107.148 197.284 108.204 197.284C109.34 197.284 110.012 198.068 110.012 199.54V201.204C110.012 202.676 109.34 203.46 108.204 203.46ZM113.661 207.412H115.069V203.412C115.741 204.292 116.589 204.692 117.693 204.692C119.613 204.692 120.733 203.508 120.733 201.252V199.492C120.733 197.236 119.613 196.052 117.693 196.052C116.493 196.052 115.613 196.516 114.909 197.556L114.861 196.244H113.661V207.412ZM117.517 203.46C116.461 203.46 115.613 202.772 115.069 201.588V199.156C115.613 197.972 116.461 197.284 117.517 197.284C118.653 197.284 119.325 198.068 119.325 199.54V201.204C119.325 202.676 118.653 203.46 117.517 203.46Z" fill="white"/>
<path d="M66.6053 255.5H68.0133V253.004H69.2933V251.724H68.0133V244.62H66.4133L61.0053 251.644V253.004H66.6053V255.5ZM62.5893 251.724L66.6053 246.444V251.724H62.5893ZM74.7423 255.692C77.1743 255.692 78.4863 254.428 78.4863 252.076V248.044C78.4863 245.692 77.1743 244.428 74.7423 244.428C72.3103 244.428 70.9983 245.692 70.9983 248.044V252.076C70.9983 254.428 72.3103 255.692 74.7423 255.692ZM74.7423 254.412C73.1743 254.412 72.4063 253.612 72.4063 251.98V248.14C72.4063 246.508 73.1743 245.708 74.7423 245.708C76.3103 245.708 77.0783 246.508 77.0783 248.14V251.98C77.0783 253.612 76.3103 254.412 74.7423 254.412ZM84.3673 255.692C86.7993 255.692 88.1113 254.428 88.1113 252.076V248.044C88.1113 245.692 86.7993 244.428 84.3673 244.428C81.9353 244.428 80.6233 245.692 80.6233 248.044V252.076C80.6233 254.428 81.9353 255.692 84.3673 255.692ZM84.3673 254.412C82.7993 254.412 82.0313 253.612 82.0313 251.98V248.14C82.0313 246.508 82.7993 245.708 84.3673 245.708C85.9353 245.708 86.7033 246.508 86.7033 248.14V251.98C86.7033 253.612 85.9353 254.412 84.3673 254.412ZM93.9923 255.692C96.4243 255.692 97.7363 254.428 97.7363 252.076V248.044C97.7363 245.692 96.4243 244.428 93.9923 244.428C91.5603 244.428 90.2483 245.692 90.2483 248.044V252.076C90.2483 254.428 91.5603 255.692 93.9923 255.692ZM93.9923 254.412C92.4243 254.412 91.6563 253.612 91.6563 251.98V248.14C91.6563 246.508 92.4243 245.708 93.9923 245.708C95.5603 245.708 96.3283 246.508 96.3283 248.14V251.98C96.3283 253.612 95.5603 254.412 93.9923 254.412ZM108.38 255.692C110.3 255.692 111.42 254.508 111.42 252.252V250.492C111.42 248.236 110.3 247.052 108.38 247.052C107.276 247.052 106.428 247.452 105.756 248.332V243.82H104.348V255.5H105.548L105.596 254.188C106.3 255.228 107.18 255.692 108.38 255.692ZM108.204 254.46C107.164 254.46 106.3 253.772 105.756 252.588V250.156C106.3 248.972 107.148 248.284 108.204 248.284C109.34 248.284 110.012 249.068 110.012 250.54V252.204C110.012 253.676 109.34 254.46 108.204 254.46ZM113.661 258.412H115.069V254.412C115.741 255.292 116.589 255.692 117.693 255.692C119.613 255.692 120.733 254.508 120.733 252.252V250.492C120.733 248.236 119.613 247.052 117.693 247.052C116.493 247.052 115.613 247.516 114.909 248.556L114.861 247.244H113.661V258.412ZM117.517 254.46C116.461 254.46 115.613 253.772 115.069 252.588V250.156C115.613 248.972 116.461 248.284 117.517 248.284C118.653 248.284 119.325 249.068 119.325 250.54V252.204C119.325 253.676 118.653 254.46 117.517 254.46Z" fill="white"/>
<path d="M65.1653 306.692C67.6293 306.692 68.9893 305.652 68.9893 303.524C68.9893 302.148 68.4293 301.268 67.2453 300.868V300.836C68.2213 300.42 68.7173 299.604 68.7173 298.42C68.7173 296.5 67.4213 295.428 65.1813 295.428C62.8453 295.428 61.5013 296.58 61.5013 298.58V298.82H62.8613V298.676C62.8613 297.412 63.6613 296.708 65.1333 296.708C66.5413 296.708 67.3253 297.348 67.3253 298.548C67.3253 299.716 66.5733 300.308 65.1493 300.308H63.9333V301.588H65.1333C66.8133 301.588 67.5813 302.228 67.5813 303.476C67.5813 304.804 66.7173 305.412 65.1653 305.412C63.5333 305.412 62.7173 304.74 62.7173 303.428V303.22H61.3413V303.62C61.3413 305.62 62.6693 306.692 65.1653 306.692ZM74.7423 306.692C77.1743 306.692 78.4863 305.428 78.4863 303.076V299.044C78.4863 296.692 77.1743 295.428 74.7423 295.428C72.3103 295.428 70.9983 296.692 70.9983 299.044V303.076C70.9983 305.428 72.3103 306.692 74.7423 306.692ZM74.7423 305.412C73.1743 305.412 72.4063 304.612 72.4063 302.98V299.14C72.4063 297.508 73.1743 296.708 74.7423 296.708C76.3103 296.708 77.0783 297.508 77.0783 299.14V302.98C77.0783 304.612 76.3103 305.412 74.7423 305.412ZM84.3673 306.692C86.7993 306.692 88.1113 305.428 88.1113 303.076V299.044C88.1113 296.692 86.7993 295.428 84.3673 295.428C81.9353 295.428 80.6233 296.692 80.6233 299.044V303.076C80.6233 305.428 81.9353 306.692 84.3673 306.692ZM84.3673 305.412C82.7993 305.412 82.0313 304.612 82.0313 302.98V299.14C82.0313 297.508 82.7993 296.708 84.3673 296.708C85.9353 296.708 86.7033 297.508 86.7033 299.14V302.98C86.7033 304.612 85.9353 305.412 84.3673 305.412ZM93.9923 306.692C96.4243 306.692 97.7363 305.428 97.7363 303.076V299.044C97.7363 296.692 96.4243 295.428 93.9923 295.428C91.5603 295.428 90.2483 296.692 90.2483 299.044V303.076C90.2483 305.428 91.5603 306.692 93.9923 306.692ZM93.9923 305.412C92.4243 305.412 91.6563 304.612 91.6563 302.98V299.14C91.6563 297.508 92.4243 296.708 93.9923 296.708C95.5603 296.708 96.3283 297.508 96.3283 299.14V302.98C96.3283 304.612 95.5603 305.412 93.9923 305.412ZM108.38 306.692C110.3 306.692 111.42 305.508 111.42 303.252V301.492C111.42 299.236 110.3 298.052 108.38 298.052C107.276 298.052 106.428 298.452 105.756 299.332V294.82H104.348V306.5H105.548L105.596 305.188C106.3 306.228 107.18 306.692 108.38 306.692ZM108.204 305.46C107.164 305.46 106.3 304.772 105.756 303.588V301.156C106.3 299.972 107.148 299.284 108.204 299.284C109.34 299.284 110.012 300.068 110.012 301.54V303.204C110.012 304.676 109.34 305.46 108.204 305.46ZM113.661 309.412H115.069V305.412C115.741 306.292 116.589 306.692 117.693 306.692C119.613 306.692 120.733 305.508 120.733 303.252V301.492C120.733 299.236 119.613 298.052 117.693 298.052C116.493 298.052 115.613 298.516 114.909 299.556L114.861 298.244H113.661V309.412ZM117.517 305.46C116.461 305.46 115.613 304.772 115.069 303.588V301.156C115.613 299.972 116.461 299.284 117.517 299.284C118.653 299.284 119.325 300.068 119.325 301.54V303.204C119.325 304.676 118.653 305.46 117.517 305.46Z" fill="white"/>
<path d="M74.7423 370.692C77.3503 370.692 78.7583 369.588 78.7583 367.572C78.7583 366.212 78.1183 365.3 76.8863 364.868V364.836C77.9263 364.436 78.4543 363.62 78.4543 362.436C78.4543 360.532 77.0943 359.428 74.7583 359.428C72.4223 359.428 71.0463 360.532 71.0463 362.436C71.0463 363.62 71.5743 364.436 72.5983 364.836V364.868C71.3663 365.284 70.7263 366.212 70.7263 367.572C70.7263 369.588 72.1343 370.692 74.7423 370.692ZM74.7423 364.292C73.2383 364.292 72.4383 363.668 72.4383 362.516C72.4383 361.332 73.2863 360.708 74.7423 360.708C76.2303 360.708 77.0623 361.348 77.0623 362.516C77.0623 363.668 76.2463 364.292 74.7423 364.292ZM74.7423 369.412C73.0143 369.412 72.1343 368.756 72.1343 367.492C72.1343 366.228 73.0143 365.572 74.7423 365.572C76.4703 365.572 77.3503 366.228 77.3503 367.492C77.3503 368.756 76.4703 369.412 74.7423 369.412ZM84.3673 370.692C86.7993 370.692 88.1113 369.428 88.1113 367.076V363.044C88.1113 360.692 86.7993 359.428 84.3673 359.428C81.9353 359.428 80.6233 360.692 80.6233 363.044V367.076C80.6233 369.428 81.9353 370.692 84.3673 370.692ZM84.3673 369.412C82.7993 369.412 82.0313 368.612 82.0313 366.98V363.14C82.0313 361.508 82.7993 360.708 84.3673 360.708C85.9353 360.708 86.7033 361.508 86.7033 363.14V366.98C86.7033 368.612 85.9353 369.412 84.3673 369.412ZM93.9923 370.692C96.4243 370.692 97.7363 369.428 97.7363 367.076V363.044C97.7363 360.692 96.4243 359.428 93.9923 359.428C91.5603 359.428 90.2483 360.692 90.2483 363.044V367.076C90.2483 369.428 91.5603 370.692 93.9923 370.692ZM93.9923 369.412C92.4243 369.412 91.6563 368.612 91.6563 366.98V363.14C91.6563 361.508 92.4243 360.708 93.9923 360.708C95.5603 360.708 96.3283 361.508 96.3283 363.14V366.98C96.3283 368.612 95.5603 369.412 93.9923 369.412ZM108.38 370.692C110.3 370.692 111.42 369.508 111.42 367.252V365.492C111.42 363.236 110.3 362.052 108.38 362.052C107.276 362.052 106.428 362.452 105.756 363.332V358.82H104.348V370.5H105.548L105.596 369.188C106.3 370.228 107.18 370.692 108.38 370.692ZM108.204 369.46C107.164 369.46 106.3 368.772 105.756 367.588V365.156C106.3 363.972 107.148 363.284 108.204 363.284C109.34 363.284 110.012 364.068 110.012 365.54V367.204C110.012 368.676 109.34 369.46 108.204 369.46ZM113.661 373.412H115.069V369.412C115.741 370.292 116.589 370.692 117.693 370.692C119.613 370.692 120.733 369.508 120.733 367.252V365.492C120.733 363.236 119.613 362.052 117.693 362.052C116.493 362.052 115.613 362.516 114.909 363.556L114.861 362.244H113.661V373.412ZM117.517 369.46C116.461 369.46 115.613 368.772 115.069 367.588V365.156C115.613 363.972 116.461 363.284 117.517 363.284C118.653 363.284 119.325 364.068 119.325 365.54V367.204C119.325 368.676 118.653 369.46 117.517 369.46Z" fill="white"/>
<path d="M76.2303 416.5H77.6383V414.004H78.9183V412.724H77.6383V405.62H76.0383L70.6303 412.644V414.004H76.2303V416.5ZM72.2143 412.724L76.2303 407.444V412.724H72.2143ZM84.3673 416.692C86.7993 416.692 88.1113 415.428 88.1113 413.076V409.044C88.1113 406.692 86.7993 405.428 84.3673 405.428C81.9353 405.428 80.6233 406.692 80.6233 409.044V413.076C80.6233 415.428 81.9353 416.692 84.3673 416.692ZM84.3673 415.412C82.7993 415.412 82.0313 414.612 82.0313 412.98V409.14C82.0313 407.508 82.7993 406.708 84.3673 406.708C85.9353 406.708 86.7033 407.508 86.7033 409.14V412.98C86.7033 414.612 85.9353 415.412 84.3673 415.412ZM93.9923 416.692C96.4243 416.692 97.7363 415.428 97.7363 413.076V409.044C97.7363 406.692 96.4243 405.428 93.9923 405.428C91.5603 405.428 90.2483 406.692 90.2483 409.044V413.076C90.2483 415.428 91.5603 416.692 93.9923 416.692ZM93.9923 415.412C92.4243 415.412 91.6563 414.612 91.6563 412.98V409.14C91.6563 407.508 92.4243 406.708 93.9923 406.708C95.5603 406.708 96.3283 407.508 96.3283 409.14V412.98C96.3283 414.612 95.5603 415.412 93.9923 415.412ZM108.38 416.692C110.3 416.692 111.42 415.508 111.42 413.252V411.492C111.42 409.236 110.3 408.052 108.38 408.052C107.276 408.052 106.428 408.452 105.756 409.332V404.82H104.348V416.5H105.548L105.596 415.188C106.3 416.228 107.18 416.692 108.38 416.692ZM108.204 415.46C107.164 415.46 106.3 414.772 105.756 413.588V411.156C106.3 409.972 107.148 409.284 108.204 409.284C109.34 409.284 110.012 410.068 110.012 411.54V413.204C110.012 414.676 109.34 415.46 108.204 415.46ZM113.661 419.412H115.069V415.412C115.741 416.292 116.589 416.692 117.693 416.692C119.613 416.692 120.733 415.508 120.733 413.252V411.492C120.733 409.236 119.613 408.052 117.693 408.052C116.493 408.052 115.613 408.516 114.909 409.556L114.861 408.244H113.661V419.412ZM117.517 415.46C116.461 415.46 115.613 414.772 115.069 413.588V411.156C115.613 409.972 116.461 409.284 117.517 409.284C118.653 409.284 119.325 410.068 119.325 411.54V413.204C119.325 414.676 118.653 415.46 117.517 415.46Z" fill="white"/>
<defs>
<filter id="filter0_d" x="394.61" y="231.5" width="78" height="23" filterUnits="userSpaceOnUse" color-interpolation-filters="sRGB">
<feFlood flood-opacity="0" result="BackgroundImageFix"/>
<feColorMatrix in="SourceAlpha" type="matrix" values="0 0 0 0 0 0 0 0 0 0 0 0 0 0 0 0 0 0 127 0"/>
<feOffset/>
<feGaussianBlur stdDeviation="2"/>
<feColorMatrix type="matrix" values="0 0 0 0 0.0862745 0 0 0 0 0.258824 0 0 0 0 0.662745 0 0 0 1 0"/>
<feBlend mode="normal" in2="BackgroundImageFix" result="effect1_dropShadow"/>
<feBlend mode="normal" in="SourceGraphic" in2="effect1_dropShadow" result="shape"/>
</filter>
<filter id="filter1_d" x="394.61" y="416.5" width="78" height="23" filterUnits="userSpaceOnUse" color-interpolation-filters="sRGB">
<feFlood flood-opacity="0" result="BackgroundImageFix"/>
<feColorMatrix in="SourceAlpha" type="matrix" values="0 0 0 0 0 0 0 0 0 0 0 0 0 0 0 0 0 0 127 0"/>
<feOffset/>
<feGaussianBlur stdDeviation="2"/>
<feColorMatrix type="matrix" values="0 0 0 0 0.0862745 0 0 0 0 0.258824 0 0 0 0 0.662745 0 0 0 1 0"/>
<feBlend mode="normal" in2="BackgroundImageFix" result="effect1_dropShadow"/>
<feBlend mode="normal" in="SourceGraphic" in2="effect1_dropShadow" result="shape"/>
</filter>
<filter id="filter2_d" x="227.896" y="353.5" width="78" height="23" filterUnits="userSpaceOnUse" color-interpolation-filters="sRGB">
<feFlood flood-opacity="0" result="BackgroundImageFix"/>
<feColorMatrix in="SourceAlpha" type="matrix" values="0 0 0 0 0 0 0 0 0 0 0 0 0 0 0 0 0 0 127 0"/>
<feOffset/>
<feGaussianBlur stdDeviation="2"/>
<feColorMatrix type="matrix" values="0 0 0 0 0.0862745 0 0 0 0 0.258824 0 0 0 0 0.662745 0 0 0 1 0"/>
<feBlend mode="normal" in2="BackgroundImageFix" result="effect1_dropShadow"/>
<feBlend mode="normal" in="SourceGraphic" in2="effect1_dropShadow" result="shape"/>
</filter>
<filter id="filter3_d" x="227.896" y="211.5" width="78" height="23" filterUnits="userSpaceOnUse" color-interpolation-filters="sRGB">
<feFlood flood-opacity="0" result="BackgroundImageFix"/>
<feColorMatrix in="SourceAlpha" type="matrix" values="0 0 0 0 0 0 0 0 0 0 0 0 0 0 0 0 0 0 127 0"/>
<feOffset/>
<feGaussianBlur stdDeviation="2"/>
<feColorMatrix type="matrix" values="0 0 0 0 0.0862745 0 0 0 0 0.258824 0 0 0 0 0.662745 0 0 0 1 0"/>
<feBlend mode="normal" in2="BackgroundImageFix" result="effect1_dropShadow"/>
<feBlend mode="normal" in="SourceGraphic" in2="effect1_dropShadow" result="shape"/>
</filter>
<filter id="filter4_d" x="311.645" y="185.5" width="78" height="23" filterUnits="userSpaceOnUse" color-interpolation-filters="sRGB">
<feFlood flood-opacity="0" result="BackgroundImageFix"/>
<feColorMatrix in="SourceAlpha" type="matrix" values="0 0 0 0 0 0 0 0 0 0 0 0 0 0 0 0 0 0 127 0"/>
<feOffset/>
<feGaussianBlur stdDeviation="2"/>
<feColorMatrix type="matrix" values="0 0 0 0 0.0862745 0 0 0 0 0.258824 0 0 0 0 0.662745 0 0 0 1 0"/>
<feBlend mode="normal" in2="BackgroundImageFix" result="effect1_dropShadow"/>
<feBlend mode="normal" in="SourceGraphic" in2="effect1_dropShadow" result="shape"/>
</filter>
<filter id="filter5_f" x="146.645" y="186.5" width="78" height="23" filterUnits="userSpaceOnUse" color-interpolation-filters="sRGB">
<feFlood flood-opacity="0" result="BackgroundImageFix"/>
<feBlend mode="normal" in="SourceGraphic" in2="BackgroundImageFix" result="shape"/>
<feGaussianBlur stdDeviation="2" result="effect1_foregroundBlur"/>
</filter>
<filter id="filter6_f" x="146.645" y="241.5" width="78" height="22" filterUnits="userSpaceOnUse" color-interpolation-filters="sRGB">
<feFlood flood-opacity="0" result="BackgroundImageFix"/>
<feBlend mode="normal" in="SourceGraphic" in2="BackgroundImageFix" result="shape"/>
<feGaussianBlur stdDeviation="2" result="effect1_foregroundBlur"/>
</filter>
<filter id="filter7_f" x="146.645" y="274.5" width="78" height="18" filterUnits="userSpaceOnUse" color-interpolation-filters="sRGB">
<feFlood flood-opacity="0" result="BackgroundImageFix"/>
<feBlend mode="normal" in="SourceGraphic" in2="BackgroundImageFix" result="shape"/>
<feGaussianBlur stdDeviation="2" result="effect1_foregroundBlur"/>
</filter>
<filter id="filter8_f" x="146.645" y="310.5" width="78" height="18" filterUnits="userSpaceOnUse" color-interpolation-filters="sRGB">
<feFlood flood-opacity="0" result="BackgroundImageFix"/>
<feBlend mode="normal" in="SourceGraphic" in2="BackgroundImageFix" result="shape"/>
<feGaussianBlur stdDeviation="2" result="effect1_foregroundBlur"/>
</filter>
<filter id="filter9_f" x="146.645" y="335.5" width="78" height="18" filterUnits="userSpaceOnUse" color-interpolation-filters="sRGB">
<feFlood flood-opacity="0" result="BackgroundImageFix"/>
<feBlend mode="normal" in="SourceGraphic" in2="BackgroundImageFix" result="shape"/>
<feGaussianBlur stdDeviation="2" result="effect1_foregroundBlur"/>
</filter>
<filter id="filter10_f" x="146.645" y="366.5" width="78" height="18" filterUnits="userSpaceOnUse" color-interpolation-filters="sRGB">
<feFlood flood-opacity="0" result="BackgroundImageFix"/>
<feBlend mode="normal" in="SourceGraphic" in2="BackgroundImageFix" result="shape"/>
<feGaussianBlur stdDeviation="2" result="effect1_foregroundBlur"/>
</filter>
<filter id="filter11_f" x="146.645" y="400.5" width="78" height="18" filterUnits="userSpaceOnUse" color-interpolation-filters="sRGB">
<feFlood flood-opacity="0" result="BackgroundImageFix"/>
<feBlend mode="normal" in="SourceGraphic" in2="BackgroundImageFix" result="shape"/>
<feGaussianBlur stdDeviation="2" result="effect1_foregroundBlur"/>
</filter>
<filter id="filter12_f" x="146.645" y="292.5" width="78" height="18" filterUnits="userSpaceOnUse" color-interpolation-filters="sRGB">
<feFlood flood-opacity="0" result="BackgroundImageFix"/>
<feBlend mode="normal" in="SourceGraphic" in2="BackgroundImageFix" result="shape"/>
<feGaussianBlur stdDeviation="2" result="effect1_foregroundBlur"/>
</filter>
<filter id="filter13_d" x="475.945" y="196.5" width="78.3299" height="23" filterUnits="userSpaceOnUse" color-interpolation-filters="sRGB">
<feFlood flood-opacity="0" result="BackgroundImageFix"/>
<feColorMatrix in="SourceAlpha" type="matrix" values="0 0 0 0 0 0 0 0 0 0 0 0 0 0 0 0 0 0 127 0"/>
<feOffset/>
<feGaussianBlur stdDeviation="2"/>
<feColorMatrix type="matrix" values="0 0 0 0 0.0862745 0 0 0 0 0.258824 0 0 0 0 0.662745 0 0 0 1 0"/>
<feBlend mode="normal" in2="BackgroundImageFix" result="effect1_dropShadow"/>
<feBlend mode="normal" in="SourceGraphic" in2="effect1_dropShadow" result="shape"/>
</filter>
</defs>
</svg>
