<svg width="50" height="25" viewBox="0 0 50 25" fill="none" xmlns="http://www.w3.org/2000/svg">
<path d="M48.9656 24L48.9795 24C48.4553 11.2089 37.9199 1 25 1C12.0801 1 1.54471 11.2089 1.02046 24L1.03441 24L1.05646 24L1.07874 24L1.10124 24L1.12395 24L1.14689 24L1.17004 24L1.19342 24L1.21701 24L1.24082 24L1.26485 24L1.28909 24L1.31355 24L1.33823 24L1.36312 24L1.38823 24L1.41356 24L1.43909 24L1.46485 24L1.49082 24L1.517 24L1.54339 24L1.57 24L1.59682 24L1.62385 24L1.65109 24L1.67855 24L1.70621 24L1.73409 24L1.76217 24L1.79047 24L1.81897 24L1.84769 24L1.87661 24L1.90574 24L1.93508 24L1.96462 24L1.99438 24L2.02434 24L2.05451 24L2.08488 24L2.11546 24L2.14624 24L2.17723 24L2.20842 24L2.23982 24L2.27142 24L2.30322 24L2.33523 24L2.36744 24L2.39985 24L2.43246 24L2.46527 24L2.49829 24L2.5315 24L2.56492 24L2.59854 24L2.63235 24L2.66636 24L2.70058 24L2.73499 24L2.7696 24L2.8044 24L2.83941 24L2.87461 24L2.91 24L2.9456 24L2.98138 24L3.01737 24L3.05355 24L3.08992 24L3.12649 24L3.16324 24L3.2002 24L3.23734 24L3.27468 24L3.31222 24L3.34994 24L3.38785 24L3.42596 24L3.46425 24L3.50274 24L3.54141 24L3.58028 24L3.61934 24L3.65858 24L3.69801 24L3.73763 24L3.77744 24L3.81743 24L3.85761 24L3.89798 24L3.93853 24L3.97927 24L4.0202 24L4.0613 24L4.1026 24L4.14408 24L4.18574 24L4.22758 24L4.26961 24L4.31182 24L4.35421 24L4.39678 24L4.43954 24L4.48248 24L4.52559 24L4.56889 24L4.61237 24L4.65603 24L4.69986 24L4.74388 24L4.78807 24L4.83244 24L4.87699 24L4.92171 24L4.96662 24L5.01169 24L5.05695 24L5.10238 24L5.14799 24L5.19377 24L5.23972 24L5.28585 24L5.33216 24L5.37863 24L5.42528 24L5.4721 24L5.51909 24L5.56626 24L5.6136 24L5.66111 24L5.70879 24L5.75664 24L5.80466 24L5.85284 24L5.9012 24L5.94973 24L5.99842 24L6.04729 24L6.09632 24L6.14551 24L6.19488 24L6.24441 24L6.29411 24L6.34397 24L6.394 24L6.44419 24L6.49455 24L6.54507 24L6.59575 24L6.6466 24L6.69761 24L6.74879 24L6.80013 24L6.85163 24L6.90328 24L6.95511 24L7.00709 24L7.05923 24L7.11153 24L7.164 24L7.21662 24L7.2694 24L7.32233 24L7.37543 24L7.42868 24L7.48209 24L7.53566 24L7.58938 24L7.64326 24L7.6973 24L7.75149 24L7.80584 24L7.86034 24L7.91499 24L7.9698 24L8.02476 24L8.07988 24L8.13515 24L8.19057 24L8.24614 24L8.30186 24L8.35774 24L8.41376 24L8.46994 24L8.52626 24L8.58274 24L8.63936 24L8.69613 24L8.75306 24L8.81013 24L8.86734 24L8.92471 24L8.98222 24L9.03988 24L9.09768 24L9.15563 24L9.21372 24L9.27196 24L9.33035 24L9.38888 24L9.44755 24L9.50637 24L9.56532 24L9.62443 24L9.68367 24L9.74306 24L9.80258 24L9.86225 24L9.92206 24L9.98201 24L10.0421 24L10.1023 24L10.1627 24L10.2232 24L10.2839 24L10.3446 24L10.4056 24L10.4666 24L10.5278 24L10.5891 24L10.6506 24L10.7122 24L10.774 24L10.8358 24L10.8978 24L10.96 24L11.0223 24L11.0847 24L11.1472 24L11.2099 24L11.2727 24L11.3356 24L11.3987 24L11.4619 24L11.5253 24L11.5887 24L11.6523 24L11.716 24L11.7799 24L11.8439 24L11.908 24L11.9722 24L12.0366 24L12.1011 24L12.1657 24L12.2305 24L12.2953 24L12.3603 24L12.4255 24L12.4907 24L12.5561 24L12.6216 24L12.6872 24L12.7529 24L12.8188 24L12.8848 24L12.9509 24L13.0172 24L13.0835 24L13.15 24L13.2166 24L13.2833 24L13.3502 24L13.4171 24L13.4842 24L13.5514 24L13.6187 24L13.6861 24L13.7537 24L13.8214 24L13.8892 24L13.9571 24L14.0251 24L14.0932 24L14.1615 24L14.2298 24L14.2983 24L14.3669 24L14.4356 24L14.5044 24L14.5734 24L14.6424 24L14.7116 24L14.7809 24L14.8502 24L14.9197 24L14.9893 24L15.0591 24L15.1289 24L15.1988 24L15.2689 24L15.339 24L15.4093 24L15.4797 24L15.5501 24L15.6207 24L15.6914 24L15.7622 24L15.8331 24L15.9041 24L15.9753 24L16.0465 24L16.1178 24L16.1892 24L16.2608 24L16.3324 24L16.4042 24L16.476 24L16.548 24L16.62 24L16.6922 24L16.7644 24L16.8368 24L16.9092 24L16.9818 24L17.0544 24L17.1272 24L17.2 24L17.273 24L17.346 24L17.4192 24L17.4924 24L17.5658 24L17.6392 24L17.7127 24L17.7864 24L17.8601 24L17.9339 24L18.0078 24L18.0818 24L18.1559 24L18.2301 24L18.3044 24L18.3788 24L18.4533 24L18.5279 24L18.6025 24L18.6773 24L18.7521 24L18.827 24L18.9021 24L18.9772 24L19.0524 24L19.1277 24L19.2031 24L19.2785 24L19.3541 24L19.4297 24L19.5054 24L19.5813 24L19.6572 24L19.7332 24L19.8092 24L19.8854 24L19.9616 24L20.038 24L20.1144 24L20.1909 24L20.2674 24L20.3441 24L20.4209 24L20.4977 24L20.5746 24L20.6516 24L20.7286 24L20.8058 24L20.883 24L20.9603 24L21.0377 24L21.1152 24L21.1927 24L21.2704 24L21.3481 24L21.4259 24L21.5037 24L21.5817 24L21.6597 24L21.7378 24L21.8159 24L21.8942 24L21.9725 24L22.0509 24L22.1293 24L22.2079 24L22.2865 24L22.3651 24L22.4439 24L22.5227 24L22.6016 24L22.6806 24L22.7596 24L22.8387 24L22.9179 24L22.9972 24L23.0765 24L23.1559 24L23.2353 24L23.3149 24L23.3945 24L23.4741 24L23.5538 24L23.6336 24L23.7135 24L23.7934 24L23.8734 24L23.9535 24L24.0336 24L24.1138 24L24.194 24L24.2744 24L24.3547 24L24.4352 24L24.5157 24L24.5963 24L24.6769 24L24.7576 24L24.8383 24L24.9191 24L25 24L25.0809 24L25.1617 24L25.2424 24L25.3231 24L25.4038 24L25.4843 24L25.5648 24L25.6453 24L25.7256 24L25.806 24L25.8862 24L25.9664 24L26.0465 24L26.1266 24L26.2066 24L26.2865 24L26.3664 24L26.4462 24L26.5259 24L26.6055 24L26.6851 24L26.7647 24L26.8441 24L26.9235 24L27.0028 24L27.0821 24L27.1613 24L27.2404 24L27.3194 24L27.3984 24L27.4773 24L27.5561 24L27.6349 24L27.7135 24L27.7922 24L27.8707 24L27.9491 24L28.0275 24L28.1058 24L28.1841 24L28.2622 24L28.3403 24L28.4184 24L28.4963 24L28.5741 24L28.6519 24L28.7296 24L28.8073 24L28.8848 24L28.9623 24L29.0397 24L29.117 24L29.1942 24L29.2714 24L29.3484 24L29.4254 24L29.5023 24L29.5792 24L29.6559 24L29.7326 24L29.8091 24L29.8856 24L29.962 24L30.0384 24L30.1146 24L30.1908 24L30.2669 24L30.3428 24L30.4187 24L30.4946 24L30.5703 24L30.6459 24L30.7215 24L30.797 24L30.8723 24L30.9476 24L31.0228 24L31.0979 24L31.173 24L31.2479 24L31.3227 24L31.3975 24L31.4721 24L31.5467 24L31.6212 24L31.6956 24L31.7699 24L31.8441 24L31.9182 24L31.9922 24L32.0661 24L32.1399 24L32.2136 24L32.2873 24L32.3608 24L32.4342 24L32.5076 24L32.5808 24L32.654 24L32.727 24L32.8 24L32.8728 24L32.9456 24L33.0182 24L33.0908 24L33.1632 24L33.2356 24L33.3078 24L33.38 24L33.452 24L33.524 24L33.5958 24L33.6676 24L33.7392 24L33.8108 24L33.8822 24L33.9535 24L34.0247 24L34.0959 24L34.1669 24L34.2378 24L34.3086 24L34.3793 24L34.4499 24L34.5203 24L34.5907 24L34.661 24L34.7311 24L34.8012 24L34.8711 24L34.9409 24L35.0107 24L35.0803 24L35.1498 24L35.2191 24L35.2884 24L35.3576 24L35.4266 24L35.4956 24L35.5644 24L35.6331 24L35.7017 24L35.7702 24L35.8385 24L35.9068 24L35.9749 24L36.0429 24L36.1108 24L36.1786 24L36.2463 24L36.3139 24L36.3813 24L36.4486 24L36.5158 24L36.5829 24L36.6498 24L36.7167 24L36.7834 24L36.85 24L36.9165 24L36.9828 24L37.0491 24L37.1152 24L37.1812 24L37.2471 24L37.3128 24L37.3784 24L37.4439 24L37.5093 24L37.5746 24L37.6397 24L37.7047 24L37.7695 24L37.8343 24L37.8989 24L37.9634 24L38.0278 24L38.092 24L38.1561 24L38.2201 24L38.284 24L38.3477 24L38.4113 24L38.4747 24L38.5381 24L38.6013 24L38.6644 24L38.7273 24L38.7901 24L38.8528 24L38.9153 24L38.9777 24L39.04 24L39.1022 24L39.1642 24L39.226 24L39.2878 24L39.3494 24L39.4109 24L39.4722 24L39.5334 24L39.5944 24L39.6554 24L39.7161 24L39.7768 24L39.8373 24L39.8977 24L39.9579 24L40.018 24L40.0779 24L40.1377 24L40.1974 24L40.2569 24L40.3163 24L40.3756 24L40.4347 24L40.4936 24L40.5525 24L40.6111 24L40.6697 24L40.728 24L40.7863 24L40.8444 24L40.9023 24L40.9601 24L41.0178 24L41.0753 24L41.1327 24L41.1899 24L41.2469 24L41.3039 24L41.3606 24L41.4173 24L41.4737 24L41.5301 24L41.5862 24L41.6423 24L41.6981 24L41.7539 24L41.8094 24L41.8649 24L41.9201 24L41.9752 24L42.0302 24L42.085 24L42.1397 24L42.1942 24L42.2485 24L42.3027 24L42.3567 24L42.4106 24L42.4643 24L42.5179 24L42.5713 24L42.6246 24L42.6777 24L42.7306 24L42.7834 24L42.836 24L42.8885 24L42.9408 24L42.9929 24L43.0449 24L43.0967 24L43.1484 24L43.1999 24L43.2512 24L43.3024 24L43.3534 24L43.4042 24L43.4549 24L43.5055 24L43.5558 24L43.606 24L43.656 24L43.7059 24L43.7556 24L43.8051 24L43.8545 24L43.9037 24L43.9527 24L44.0016 24L44.0503 24L44.0988 24L44.1472 24L44.1953 24L44.2434 24L44.2912 24L44.3389 24L44.3864 24L44.4337 24L44.4809 24L44.5279 24L44.5747 24L44.6214 24L44.6678 24L44.7142 24L44.7603 24L44.8062 24L44.852 24L44.8976 24L44.9431 24L44.9883 24L45.0334 24L45.0783 24L45.123 24L45.1676 24L45.2119 24L45.2561 24L45.3001 24L45.344 24L45.3876 24L45.4311 24L45.4744 24L45.5175 24L45.5605 24L45.6032 24L45.6458 24L45.6882 24L45.7304 24L45.7724 24L45.8143 24L45.8559 24L45.8974 24L45.9387 24L45.9798 24L46.0207 24L46.0615 24L46.102 24L46.1424 24L46.1826 24L46.2226 24L46.2624 24L46.302 24L46.3414 24L46.3807 24L46.4197 24L46.4586 24L46.4973 24L46.5358 24L46.574 24L46.6122 24L46.6501 24L46.6878 24L46.7253 24L46.7627 24L46.7998 24L46.8368 24L46.8735 24L46.9101 24L46.9465 24L46.9826 24L47.0186 24L47.0544 24L47.09 24L47.1254 24L47.1606 24L47.1956 24L47.2304 24L47.265 24L47.2994 24L47.3336 24L47.3677 24L47.4015 24L47.4351 24L47.4685 24L47.5017 24L47.5347 24L47.5675 24L47.6002 24L47.6326 24L47.6648 24L47.6968 24L47.7286 24L47.7602 24L47.7916 24L47.8228 24L47.8538 24L47.8845 24L47.9151 24L47.9455 24L47.9757 24L48.0056 24L48.0354 24L48.0649 24L48.0943 24L48.1234 24L48.1523 24L48.181 24L48.2095 24L48.2378 24L48.2659 24L48.2938 24L48.3215 24L48.3489 24L48.3762 24L48.4032 24L48.43 24L48.4566 24L48.483 24L48.5092 24L48.5352 24L48.5609 24L48.5864 24L48.6118 24L48.6369 24L48.6618 24L48.6865 24L48.7109 24L48.7352 24L48.7592 24L48.783 24L48.8066 24L48.83 24L48.8531 24L48.8761 24L48.8988 24L48.9213 24L48.9435 24L48.9656 24Z" fill="#003E6B" stroke="#003E6B" stroke-width="2"/>
<path d="M25 8L18 17L32 17L25 8Z" fill="white"/>
</svg>
